<?xml version="1.0" encoding="UTF-8"?>
<svg id="Layer_10_2" data-name="Layer 10_2" xmlns="http://www.w3.org/2000/svg" viewBox="0 0 250 250">
  <defs>
    <style>
      .cls-1 {
        fill: #231f20;
        font-family: Futura-Medium, Futura;
        font-size: 2.8px;
        font-weight: 500;
      }
    </style>
  </defs>
  <text class="cls-1" transform="translate(155.9 167.42) rotate(145.3)"><tspan x="0" y="0">O</tspan></text>
  <text class="cls-1" transform="translate(153.84 168.84) rotate(147.48)"><tspan x="0" y="0">u</tspan></text>
  <text class="cls-1" transform="translate(152.57 169.64) rotate(148.84)"><tspan x="0" y="0">r</tspan></text>
  <text class="cls-1" transform="translate(151.68 170.18) rotate(149.88)"><tspan x="0" y="0"> </tspan></text>
  <text class="cls-1" transform="translate(150.94 170.62) rotate(151.26)"><tspan x="0" y="0">b</tspan></text>
  <text class="cls-1" transform="translate(149.48 171.41) rotate(152.72)"><tspan x="0" y="0">r</tspan></text>
  <text class="cls-1" transform="translate(148.56 171.89) rotate(154.21)"><tspan x="0" y="0">a</tspan></text>
  <text class="cls-1" transform="translate(147.06 172.61) rotate(155.49)"><tspan x="0" y="0">i</tspan></text>
  <text class="cls-1" transform="translate(146.42 172.91) rotate(156.72)"><tspan x="0" y="0">n</tspan></text>
  <text class="cls-1" transform="translate(145.03 173.5) rotate(158.01)"><tspan x="0" y="0"> </tspan></text>
  <text class="cls-1" transform="translate(144.23 173.83) rotate(159.22)"><tspan x="0" y="0">c</tspan></text>
  <text class="cls-1" transform="translate(143 174.3) rotate(160.86)"><tspan x="0" y="0">o</tspan></text>
  <text class="cls-1" transform="translate(141.44 174.84) rotate(162.59)"><tspan x="0" y="0">n</tspan></text>
  <text class="cls-1" transform="translate(140 175.29) rotate(164.19)"><tspan x="0" y="0">v</tspan></text>
  <text class="cls-1" transform="translate(138.72 175.65) rotate(165.73)"><tspan x="0" y="0">e</tspan></text>
  <text class="cls-1" transform="translate(137.24 176.03) rotate(167.4)"><tspan x="0" y="0">n</tspan></text>
  <text class="cls-1" transform="translate(135.74 176.36) rotate(168.62)"><tspan x="0" y="0">i</tspan></text>
  <text class="cls-1" transform="translate(135.07 176.5) rotate(169.85)"><tspan x="0" y="0">e</tspan></text>
  <text class="cls-1" transform="translate(133.55 176.77) rotate(171.52)"><tspan x="0" y="0">n</tspan></text>
  <text class="cls-1" transform="translate(132.05 176.99) rotate(172.76)"><tspan x="0" y="0">t</tspan></text>
  <text class="cls-1" transform="translate(131.27 177.09) rotate(173.58)"><tspan x="0" y="0">l</tspan></text>
  <text class="cls-1" transform="translate(130.58 177.17) rotate(174.8)"><tspan x="0" y="0">y</tspan></text>
  <text class="cls-1" transform="translate(129.07 177.31) rotate(176.09)"><tspan x="0" y="0"> </tspan></text>
  <text class="cls-1" transform="translate(128.22 177.37) rotate(177.28)"><tspan x="0" y="0">c</tspan></text>
  <text class="cls-1" transform="translate(126.89 177.43) rotate(178.91)"><tspan x="0" y="0">o</tspan></text>
  <text class="cls-1" transform="translate(125.22 177.46) rotate(-179.35)"><tspan x="0" y="0">n</tspan></text>
  <text class="cls-1" transform="translate(123.7 177.45) rotate(-177.7)"><tspan x="0" y="0">n</tspan></text>
  <text class="cls-1" transform="translate(122.17 177.39) rotate(-176.03)"><tspan x="0" y="0">e</tspan></text>
  <text class="cls-1" transform="translate(120.63 177.28) rotate(-174.47)"><tspan x="0" y="0">c</tspan></text>
  <text class="cls-1" transform="translate(119.33 177.15) rotate(-173.36)"><tspan x="0" y="0">t</tspan></text>
  <text class="cls-1" transform="translate(118.58 177.06) rotate(-172.34)"><tspan x="0" y="0">s</tspan></text>
  <text class="cls-1" transform="translate(117.45 176.91) rotate(-171.25)"><tspan x="0" y="0"> </tspan></text>
  <text class="cls-1" transform="translate(116.6 176.78) rotate(-170.37)"><tspan x="0" y="0">t</tspan></text>
  <text class="cls-1" transform="translate(115.81 176.65) rotate(-169.09)"><tspan x="0" y="0">h</tspan></text>
  <text class="cls-1" transform="translate(114.31 176.36) rotate(-167.43)"><tspan x="0" y="0">e</tspan></text>
  <text class="cls-1" transform="translate(112.79 176.02) rotate(-166.1)"><tspan x="0" y="0"> </tspan></text>
  <text class="cls-1" transform="translate(111.96 175.82) rotate(-164.73)"><tspan x="0" y="0">d</tspan></text>
  <text class="cls-1" transform="translate(110.36 175.38) rotate(-162.93)"><tspan x="0" y="0">o</tspan></text>
  <text class="cls-1" transform="translate(108.76 174.88) rotate(-161.6)"><tspan x="0" y="0">t</tspan></text>
  <text class="cls-1" transform="translate(108.03 174.64) rotate(-160.57)"><tspan x="0" y="0">s</tspan></text>
  <text class="cls-1" transform="translate(106.97 174.27) rotate(-159.49)"><tspan x="0" y="0"> </tspan></text>
  <text class="cls-1" transform="translate(106.17 173.97) rotate(-158.12)"><tspan x="0" y="0">a</tspan></text>
  <text class="cls-1" transform="translate(104.62 173.35) rotate(-156.37)"><tspan x="0" y="0">n</tspan></text>
  <text class="cls-1" transform="translate(103.21 172.73) rotate(-154.61)"><tspan x="0" y="0">d</tspan></text>
  <text class="cls-1" transform="translate(101.71 172.02) rotate(-153.24)"><tspan x="0" y="0"> </tspan></text>
  <text class="cls-1" transform="translate(100.95 171.63) rotate(-152.15)"><tspan x="0" y="0">s</tspan></text>
  <text class="cls-1" transform="translate(99.96 171.11) rotate(-150.71)"><tspan x="0" y="0">u</tspan></text>
  <text class="cls-1" transform="translate(98.63 170.37) rotate(-148.96)"><tspan x="0" y="0">p</tspan></text>
  <text class="cls-1" transform="translate(97.21 169.51) rotate(-147.14)"><tspan x="0" y="0">p</tspan></text>
  <text class="cls-1" transform="translate(95.8 168.6) rotate(-145.84)"><tspan x="0" y="0">l</tspan></text>
  <text class="cls-1" transform="translate(95.22 168.21) rotate(-145.06)"><tspan x="0" y="0">i</tspan></text>
  <text class="cls-1" transform="translate(94.68 167.83) rotate(-143.87)"><tspan x="0" y="0">e</tspan></text>
  <text class="cls-1" transform="translate(93.43 166.92) rotate(-142.4)"><tspan x="0" y="0">s</tspan></text>
  <text class="cls-1" transform="translate(92.53 166.22) rotate(-141.29)"><tspan x="0" y="0"> </tspan></text>
  <text class="cls-1" transform="translate(91.86 165.69) rotate(-139.91)"><tspan x="0" y="0">a</tspan></text>
  <text class="cls-1" transform="translate(90.59 164.62) rotate(-138.16)"><tspan x="0" y="0">n</tspan></text>
  <text class="cls-1" transform="translate(89.46 163.61) rotate(-136.86)"><tspan x="0" y="0"> </tspan></text>
  <text class="cls-1" transform="translate(88.83 163.02) rotate(-135.46)"><tspan x="0" y="0">o</tspan></text>
  <text class="cls-1" transform="translate(87.63 161.83) rotate(-133.71)"><tspan x="0" y="0">u</tspan></text>
  <text class="cls-1" transform="translate(86.59 160.75) rotate(-132.49)"><tspan x="0" y="0">t</tspan></text>
  <text class="cls-1" transform="translate(86.06 160.17) rotate(-131.67)"><tspan x="0" y="0">l</tspan></text>
  <text class="cls-1" transform="translate(85.62 159.67) rotate(-130.95)"><tspan x="0" y="0">i</tspan></text>
  <text class="cls-1" transform="translate(85.15 159.14) rotate(-129.73)"><tspan x="0" y="0">n</tspan></text>
  <text class="cls-1" transform="translate(84.19 157.99) rotate(-128.1)"><tspan x="0" y="0">e</tspan></text>
  <text class="cls-1" transform="translate(83.24 156.77) rotate(-126.94)"><tspan x="0" y="0"> </tspan></text>
  <text class="cls-1" transform="translate(82.72 156.09) rotate(-125.08)"><tspan x="0" y="0">t</tspan></text>
  <text class="cls-1" transform="translate(82.26 155.44) rotate(-124.61)"><tspan x="0" y="0">o</tspan></text>
  <text class="cls-1" transform="translate(81.31 154.06) rotate(-123.25)"><tspan x="0" y="0"> </tspan></text>
  <text class="cls-1" transform="translate(80.84 153.36) rotate(-121.89)"><tspan x="0" y="0">a</tspan></text>
  <text class="cls-1" transform="translate(79.97 151.95) rotate(-120.17)"><tspan x="0" y="0">n</tspan></text>
  <text class="cls-1" transform="translate(79.2 150.62) rotate(-118.86)"><tspan x="0" y="0"> </tspan></text>
  <text class="cls-1" transform="translate(78.78 149.87) rotate(-117.48)"><tspan x="0" y="0">o</tspan></text>
  <text class="cls-1" transform="translate(78.01 148.4) rotate(-115.66)"><tspan x="0" y="0">b</tspan></text>
  <text class="cls-1" transform="translate(77.29 146.88) rotate(-114.36)"><tspan x="0" y="0">j</tspan></text>
  <text class="cls-1" transform="translate(77.01 146.27) rotate(-113.15)"><tspan x="0" y="0">e</tspan></text>
  <text class="cls-1" transform="translate(76.41 144.86) rotate(-111.58)"><tspan x="0" y="0">c</tspan></text>
  <text class="cls-1" transform="translate(75.92 143.61) rotate(-110.42)"><tspan x="0" y="0">t</tspan></text>
  <text class="cls-1" transform="translate(75.65 142.9) rotate(-109.54)"><tspan x="0" y="0"> </tspan></text>
  <text class="cls-1" transform="translate(75.36 142.11) rotate(-107.89)"><tspan x="0" y="0">w</tspan></text>
  <text class="cls-1" transform="translate(74.7 140.05) rotate(-105.86)"><tspan x="0" y="0">h</tspan></text>
  <text class="cls-1" transform="translate(74.29 138.59) rotate(-104.19)"><tspan x="0" y="0">e</tspan></text>
  <text class="cls-1" transform="translate(73.91 137.09) rotate(-102.49)"><tspan x="0" y="0">n</tspan></text>
  <text class="cls-1" transform="translate(73.59 135.61) rotate(-101.2)"><tspan x="0" y="0"> </tspan></text>
  <text class="cls-1" transform="translate(73.42 134.75) rotate(-100.33)"><tspan x="0" y="0">i</tspan></text>
  <text class="cls-1" transform="translate(73.29 134.08) rotate(-99.54)"><tspan x="0" y="0">t</tspan></text>
  <text class="cls-1" transform="translate(73.15 133.23) rotate(-98.52)"><tspan x="0" y="0">’</tspan></text>
  <text class="cls-1" transform="translate(73.02 132.34) rotate(-97.41)"><tspan x="0" y="0">s</tspan></text>
  <text class="cls-1" transform="translate(72.87 131.22) rotate(-96.33)"><tspan x="0" y="0"> </tspan></text>
  <text class="cls-1" transform="translate(72.77 130.38) rotate(-95.03)"><tspan x="0" y="0">h</tspan></text>
  <text class="cls-1" transform="translate(72.64 128.85) rotate(-93.82)"><tspan x="0" y="0">i</tspan></text>
  <text class="cls-1" transform="translate(72.59 128.16) rotate(-92.53)"><tspan x="0" y="0">d</tspan></text>
  <text class="cls-1" transform="translate(72.52 126.5) rotate(-90.72)"><tspan x="0" y="0">d</tspan></text>
  <text class="cls-1" transform="translate(72.5 124.82) rotate(-88.96)"><tspan x="0" y="0">e</tspan></text>
  <text class="cls-1" transform="translate(72.53 123.27) rotate(-87.29)"><tspan x="0" y="0">n</tspan></text>
  <text class="cls-1" transform="translate(72.6 121.76) rotate(-86.01)"><tspan x="0" y="0"> </tspan></text>
  <text class="cls-1" transform="translate(72.66 120.91) rotate(-84.64)"><tspan x="0" y="0">p</tspan></text>
  <text class="cls-1" transform="translate(72.81 119.26) rotate(-82.91)"><tspan x="0" y="0">e</tspan></text>
  <text class="cls-1" transform="translate(73 117.74) rotate(-81.52)"><tspan x="0" y="0">r</tspan></text>
  <text class="cls-1" transform="translate(73.15 116.71) rotate(-80.25)"><tspan x="0" y="0">c</tspan></text>
  <text class="cls-1" transform="translate(73.37 115.42) rotate(-78.71)"><tspan x="0" y="0">e</tspan></text>
  <text class="cls-1" transform="translate(73.68 113.9) rotate(-76.96)"><tspan x="0" y="0">p</tspan></text>
  <text class="cls-1" transform="translate(74.06 112.27) rotate(-75.63)"><tspan x="0" y="0">t</tspan></text>
  <text class="cls-1" transform="translate(74.25 111.53) rotate(-74.39)"><tspan x="0" y="0">u</tspan></text>
  <text class="cls-1" transform="translate(74.65 110.08) rotate(-72.67)"><tspan x="0" y="0">a</tspan></text>
  <text class="cls-1" transform="translate(75.15 108.49) rotate(-71.39)"><tspan x="0" y="0">l</tspan></text>
  <text class="cls-1" transform="translate(75.38 107.81) rotate(-70.61)"><tspan x="0" y="0">l</tspan></text>
  <text class="cls-1" transform="translate(75.6 107.16) rotate(-69.41)"><tspan x="0" y="0">y</tspan></text>
  <text class="cls-1" transform="translate(76.1 105.85) rotate(-68.24)"><tspan x="0" y="0">,</tspan></text>
  <text class="cls-1" transform="translate(76.42 105.04) rotate(-67.3)"><tspan x="0" y="0"> </tspan></text>
  <text class="cls-1" transform="translate(76.75 104.25) rotate(-66.22)"><tspan x="0" y="0">s</tspan></text>
  <text class="cls-1" transform="translate(77.2 103.23) rotate(-64.7)"><tspan x="0" y="0">o</tspan></text>
  <text class="cls-1" transform="translate(77.91 101.71) rotate(-62.57)"><tspan x="0" y="0">m</tspan></text>
  <text class="cls-1" transform="translate(78.93 99.76) rotate(-60.52)"><tspan x="0" y="0">e</tspan></text>
  <text class="cls-1" transform="translate(79.7 98.41) rotate(-59.24)"><tspan x="0" y="0">t</tspan></text>
  <text class="cls-1" transform="translate(80.09 97.74) rotate(-58.43)"><tspan x="0" y="0">i</tspan></text>
  <text class="cls-1" transform="translate(80.44 97.16) rotate(-56.85)"><tspan x="0" y="0">m</tspan></text>
  <text class="cls-1" transform="translate(81.65 95.32) rotate(-54.8)"><tspan x="0" y="0">e</tspan></text>
  <text class="cls-1" transform="translate(82.54 94.07) rotate(-53.33)"><tspan x="0" y="0">s</tspan></text>
  <text class="cls-1" transform="translate(83.21 93.16) rotate(-52.25)"><tspan x="0" y="0"> </tspan></text>
  <text class="cls-1" transform="translate(83.73 92.49) rotate(-50.93)"><tspan x="0" y="0">e</tspan></text>
  <text class="cls-1" transform="translate(84.67 91.33) rotate(-49.37)"><tspan x="0" y="0">v</tspan></text>
  <text class="cls-1" transform="translate(85.55 90.3) rotate(-47.8)"><tspan x="0" y="0">e</tspan></text>
  <text class="cls-1" transform="translate(86.57 89.17) rotate(-46.14)"><tspan x="0" y="0">n</tspan></text>
  <text class="cls-1" transform="translate(87.63 88.07) rotate(-44.84)"><tspan x="0" y="0"> </tspan></text>
  <text class="cls-1" transform="translate(88.24 87.47) rotate(-43.75)"><tspan x="0" y="0">s</tspan></text>
  <text class="cls-1" transform="translate(89.05 86.68) rotate(-42.31)"><tspan x="0" y="0">u</tspan></text>
  <text class="cls-1" transform="translate(90.17 85.67) rotate(-40.59)"><tspan x="0" y="0">g</tspan></text>
  <text class="cls-1" transform="translate(91.44 84.58) rotate(-38.78)"><tspan x="0" y="0">g</tspan></text>
  <text class="cls-1" transform="translate(92.74 83.54) rotate(-37.05)"><tspan x="0" y="0">e</tspan></text>
  <text class="cls-1" transform="translate(93.97 82.6) rotate(-35.08)"><tspan x="0" y="0">s</tspan></text>
  <text class="cls-1" transform="translate(94.9 81.95) rotate(-34.61)"><tspan x="0" y="0">t</tspan></text>
  <text class="cls-1" transform="translate(95.51 81.52) rotate(-33.84)"><tspan x="0" y="0">i</tspan></text>
  <text class="cls-1" transform="translate(96.07 81.14) rotate(-32.66)"><tspan x="0" y="0">n</tspan></text>
  <text class="cls-1" transform="translate(97.37 80.31) rotate(-30.92)"><tspan x="0" y="0">g</tspan></text>
  <text class="cls-1" transform="translate(98.8 79.45) rotate(-29.53)"><tspan x="0" y="0"> </tspan></text>
  <text class="cls-1" transform="translate(99.53 79.04) rotate(-28.68)"><tspan x="0" y="0">t</tspan></text>
  <text class="cls-1" transform="translate(100.24 78.65) rotate(-27.37)"><tspan x="0" y="0">h</tspan></text>
  <text class="cls-1" transform="translate(101.61 77.94) rotate(-25.68)"><tspan x="0" y="0">e</tspan></text>
  <text class="cls-1" transform="translate(103.01 77.27) rotate(-24.36)"><tspan x="0" y="0"> </tspan></text>
  <text class="cls-1" transform="translate(103.79 76.92) rotate(-22.97)"><tspan x="0" y="0">p</tspan></text>
  <text class="cls-1" transform="translate(105.31 76.27) rotate(-21.5)"><tspan x="0" y="0">r</tspan></text>
  <text class="cls-1" transform="translate(106.25 75.9) rotate(-20.11)"><tspan x="0" y="0">e</tspan></text>
  <text class="cls-1" transform="translate(107.69 75.37) rotate(-18.65)"><tspan x="0" y="0">s</tspan></text>
  <text class="cls-1" transform="translate(108.76 75.01) rotate(-17.18)"><tspan x="0" y="0">e</tspan></text>
  <text class="cls-1" transform="translate(110.24 74.55) rotate(-15.48)"><tspan x="0" y="0">n</tspan></text>
  <text class="cls-1" transform="translate(111.71 74.15) rotate(-13.92)"><tspan x="0" y="0">c</tspan></text>
  <text class="cls-1" transform="translate(113 73.83) rotate(-12.34)"><tspan x="0" y="0">e</tspan></text>
  <text class="cls-1" transform="translate(114.5 73.5) rotate(-11.03)"><tspan x="0" y="0"> </tspan></text>
  <text class="cls-1" transform="translate(115.33 73.33) rotate(-9.65)"><tspan x="0" y="0">o</tspan></text>
  <text class="cls-1" transform="translate(116.99 73.06) rotate(-8.28)"><tspan x="0" y="0">f</tspan></text>
  <text class="cls-1" transform="translate(117.8 72.94) rotate(-7.37)"><tspan x="0" y="0"> </tspan></text>
  <text class="cls-1" transform="translate(118.65 72.83) rotate(-5.98)"><tspan x="0" y="0">a</tspan></text>
  <text class="cls-1" transform="translate(120.32 72.66) rotate(-4.6)"><tspan x="0" y="0"> </tspan></text>
  <text class="cls-1" transform="translate(121.17 72.59) rotate(-3.52)"><tspan x="0" y="0">s</tspan></text>
  <text class="cls-1" transform="translate(122.29 72.51) rotate(-2.08)"><tspan x="0" y="0">h</tspan></text>
  <text class="cls-1" transform="translate(123.82 72.46) rotate(-.34)"><tspan x="0" y="0">a</tspan></text>
  <text class="cls-1" transform="translate(125.47 72.45) rotate(1.46)"><tspan x="0" y="0">p</tspan></text>
  <text class="cls-1" transform="translate(127.15 72.49) rotate(3.22)"><tspan x="0" y="0">e</tspan></text>
  <text class="cls-1" transform="translate(128.67 72.58) rotate(4.5)"><tspan x="0" y="0"> </tspan></text>
  <text class="cls-1" transform="translate(129.53 72.64) rotate(5.81)"><tspan x="0" y="0">e</tspan></text>
  <text class="cls-1" transform="translate(131.03 72.8) rotate(7.37)"><tspan x="0" y="0">v</tspan></text>
  <text class="cls-1" transform="translate(132.37 72.97) rotate(8.9)"><tspan x="0" y="0">e</tspan></text>
  <text class="cls-1" transform="translate(133.87 73.2) rotate(10.55)"><tspan x="0" y="0">n</tspan></text>
  <text class="cls-1" transform="translate(135.38 73.49) rotate(11.85)"><tspan x="0" y="0"> </tspan></text>
  <text class="cls-1" transform="translate(136.21 73.65) rotate(13.47)"><tspan x="0" y="0">w</tspan></text>
  <text class="cls-1" transform="translate(138.3 74.16) rotate(15.46)"><tspan x="0" y="0">h</tspan></text>
  <text class="cls-1" transform="translate(139.77 74.56) rotate(17.13)"><tspan x="0" y="0">e</tspan></text>
  <text class="cls-1" transform="translate(141.23 75.02) rotate(18.78)"><tspan x="0" y="0">n</tspan></text>
  <text class="cls-1" transform="translate(142.67 75.51) rotate(20.07)"><tspan x="0" y="0"> </tspan></text>
  <text class="cls-1" transform="translate(143.49 75.81) rotate(20.93)"><tspan x="0" y="0">i</tspan></text>
  <text class="cls-1" transform="translate(144.12 76.05) rotate(21.71)"><tspan x="0" y="0">t</tspan></text>
  <text class="cls-1" transform="translate(144.93 76.37) rotate(22.75)"><tspan x="0" y="0">’</tspan></text>
  <text class="cls-1" transform="translate(145.78 76.73) rotate(23.87)"><tspan x="0" y="0">s</tspan></text>
  <text class="cls-1" transform="translate(146.81 77.19) rotate(24.96)"><tspan x="0" y="0"> </tspan></text>
  <text class="cls-1" transform="translate(147.59 77.54) rotate(26.26)"><tspan x="0" y="0">n</tspan></text>
  <text class="cls-1" transform="translate(148.95 78.21) rotate(28)"><tspan x="0" y="0">o</tspan></text>
  <text class="cls-1" transform="translate(150.44 79.01) rotate(29.35)"><tspan x="0" y="0">t</tspan></text>
  <text class="cls-1" transform="translate(151.1 79.38) rotate(30.23)"><tspan x="0" y="0"> </tspan></text>
  <text class="cls-1" transform="translate(151.83 79.81) rotate(31.1)"><tspan x="0" y="0">t</tspan></text>
  <text class="cls-1" transform="translate(152.53 80.22) rotate(32.42)"><tspan x="0" y="0">h</tspan></text>
  <text class="cls-1" transform="translate(153.81 81.04) rotate(34.1)"><tspan x="0" y="0">e</tspan></text>
  <text class="cls-1" transform="translate(155.1 81.91) rotate(35.54)"><tspan x="0" y="0">r</tspan></text>
  <text class="cls-1" transform="translate(155.93 82.5) rotate(36.93)"><tspan x="0" y="0">e</tspan></text>
  <text class="cls-1" transform="translate(157.15 83.43) rotate(38.24)"><tspan x="0" y="0">.</tspan></text>
  <text class="cls-1" transform="translate(157.84 83.97) rotate(39.2)"><tspan x="0" y="0"> </tspan></text>
  <text class="cls-1" transform="translate(158.5 84.5) rotate(40.41)"><tspan x="0" y="0">T</tspan></text>
  <text class="cls-1" transform="translate(159.52 85.37) rotate(41.97)"><tspan x="0" y="0">h</tspan></text>
  <text class="cls-1" transform="translate(160.64 86.38) rotate(43.64)"><tspan x="0" y="0">e</tspan></text>
  <text class="cls-1" transform="translate(161.77 87.46) rotate(45.07)"><tspan x="0" y="0">r</tspan></text>
  <text class="cls-1" transform="translate(162.48 88.17) rotate(46.45)"><tspan x="0" y="0">e</tspan></text>
  <text class="cls-1" transform="translate(163.53 89.28) rotate(47.74)"><tspan x="0" y="0"> </tspan></text>
  <text class="cls-1" transform="translate(164.12 89.92) rotate(48.6)"><tspan x="0" y="0">i</tspan></text>
  <text class="cls-1" transform="translate(164.58 90.45) rotate(49.59)"><tspan x="0" y="0">s</tspan></text>
  <text class="cls-1" transform="translate(165.31 91.3) rotate(50.66)"><tspan x="0" y="0"> </tspan></text>
  <text class="cls-1" transform="translate(165.85 91.96) rotate(51.56)"><tspan x="0" y="0">f</tspan></text>
  <text class="cls-1" transform="translate(166.39 92.64) rotate(52.42)"><tspan x="0" y="0">l</tspan></text>
  <text class="cls-1" transform="translate(166.81 93.19) rotate(53.06)"><tspan x="0" y="0">e</tspan></text>
  <text class="cls-1" transform="translate(167.69 94.38) rotate(55.21)"><tspan x="0" y="0">x</tspan></text>
  <text class="cls-1" transform="translate(168.58 95.67) rotate(56.44)"><tspan x="0" y="0">i</tspan></text>
  <text class="cls-1" transform="translate(168.97 96.24) rotate(57.7)"><tspan x="0" y="0">b</tspan></text>
  <text class="cls-1" transform="translate(169.85 97.64) rotate(58.97)"><tspan x="0" y="0">i</tspan></text>
  <text class="cls-1" transform="translate(170.21 98.25) rotate(59.74)"><tspan x="0" y="0">l</tspan></text>
  <text class="cls-1" transform="translate(170.55 98.82) rotate(60.46)"><tspan x="0" y="0">i</tspan></text>
  <text class="cls-1" transform="translate(170.9 99.44) rotate(61.28)"><tspan x="0" y="0">t</tspan></text>
  <text class="cls-1" transform="translate(171.26 100.09) rotate(62.49)"><tspan x="0" y="0">y</tspan></text>
  <text class="cls-1" transform="translate(171.96 101.44) rotate(63.8)"><tspan x="0" y="0"> </tspan></text>
  <text class="cls-1" transform="translate(172.34 102.22) rotate(64.65)"><tspan x="0" y="0">i</tspan></text>
  <text class="cls-1" transform="translate(172.64 102.83) rotate(65.87)"><tspan x="0" y="0">n</tspan></text>
  <text class="cls-1" transform="translate(173.25 104.22) rotate(67.16)"><tspan x="0" y="0"> </tspan></text>
  <text class="cls-1" transform="translate(173.59 105.02) rotate(68.06)"><tspan x="0" y="0">t</tspan></text>
  <text class="cls-1" transform="translate(173.9 105.79) rotate(69.4)"><tspan x="0" y="0">h</tspan></text>
  <text class="cls-1" transform="translate(174.43 107.2) rotate(71.06)"><tspan x="0" y="0">e</tspan></text>
  <text class="cls-1" transform="translate(174.93 108.65) rotate(72.37)"><tspan x="0" y="0"> </tspan></text>
  <text class="cls-1" transform="translate(175.19 109.48) rotate(73.48)"><tspan x="0" y="0">s</tspan></text>
  <text class="cls-1" transform="translate(175.52 110.56) rotate(74.94)"><tspan x="0" y="0">y</tspan></text>
  <text class="cls-1" transform="translate(175.91 112.02) rotate(76.39)"><tspan x="0" y="0">s</tspan></text>
  <text class="cls-1" transform="translate(176.17 113.1) rotate(77.4)"><tspan x="0" y="0">t</tspan></text>
  <text class="cls-1" transform="translate(176.35 113.88) rotate(78.71)"><tspan x="0" y="0">e</tspan></text>
  <text class="cls-1" transform="translate(176.65 115.37) rotate(80.74)"><tspan x="0" y="0">m</tspan></text>
  <text class="cls-1" transform="translate(176.99 117.55) rotate(82.41)"><tspan x="0" y="0">.</tspan></text>
  <text class="cls-1" transform="translate(177.11 118.41) rotate(83.37)"><tspan x="0" y="0"> </tspan></text>
</svg>