<?xml version="1.0" encoding="UTF-8"?>
<svg id="Layer_13" data-name="Layer 13" xmlns="http://www.w3.org/2000/svg" viewBox="0 0 250 250">
  <defs>
    <style>
      .cls-1 {
        fill: #231f20;
        font-family: Futura-Medium, Futura;
        font-size: 3.1px;
        font-weight: 500;
      }
    </style>
  </defs>
  <text class="cls-1" transform="translate(61.55 130.94) rotate(-94.38)"><tspan x="0" y="0">C</tspan></text>
  <text class="cls-1" transform="translate(61.39 128.8) rotate(-92.61)"><tspan x="0" y="0">o</tspan></text>
  <text class="cls-1" transform="translate(61.3 126.95) rotate(-90.71)"><tspan x="0" y="0">m</tspan></text>
  <text class="cls-1" transform="translate(61.27 124.49) rotate(-88.76)"><tspan x="0" y="0">p</tspan></text>
  <text class="cls-1" transform="translate(61.31 122.64) rotate(-87.18)"><tspan x="0" y="0">u</tspan></text>
  <text class="cls-1" transform="translate(61.4 120.97) rotate(-86.06)"><tspan x="0" y="0">t</tspan></text>
  <text class="cls-1" transform="translate(61.46 120.11) rotate(-84.89)"><tspan x="0" y="0">e</tspan></text>
  <text class="cls-1" transform="translate(61.61 118.4) rotate(-83.58)"><tspan x="0" y="0">r</tspan></text>
  <text class="cls-1" transform="translate(61.74 117.27) rotate(-82.51)"><tspan x="0" y="0">s</tspan></text>
  <text class="cls-1" transform="translate(61.9 116.04) rotate(-81.52)"><tspan x="0" y="0"> </tspan></text>
  <text class="cls-1" transform="translate(62.04 115.08) rotate(-80.32)"><tspan x="0" y="0">u</tspan></text>
  <text class="cls-1" transform="translate(62.32 113.44) rotate(-78.81)"><tspan x="0" y="0">n</tspan></text>
  <text class="cls-1" transform="translate(62.64 111.79) rotate(-77.21)"><tspan x="0" y="0">d</tspan></text>
  <text class="cls-1" transform="translate(63.05 110) rotate(-75.62)"><tspan x="0" y="0">e</tspan></text>
  <text class="cls-1" transform="translate(63.48 108.35) rotate(-74.31)"><tspan x="0" y="0">r</tspan></text>
  <text class="cls-1" transform="translate(63.79 107.25) rotate(-73.24)"><tspan x="0" y="0">s</tspan></text>
  <text class="cls-1" transform="translate(64.15 106.05) rotate(-72.29)"><tspan x="0" y="0">t</tspan></text>
  <text class="cls-1" transform="translate(64.4 105.24) rotate(-71.07)"><tspan x="0" y="0">a</tspan></text>
  <text class="cls-1" transform="translate(65 103.49) rotate(-69.47)"><tspan x="0" y="0">n</tspan></text>
  <text class="cls-1" transform="translate(65.59 101.91) rotate(-67.88)"><tspan x="0" y="0">d</tspan></text>
  <text class="cls-1" transform="translate(66.29 100.2) rotate(-66.62)"><tspan x="0" y="0"> </tspan></text>
  <text class="cls-1" transform="translate(66.66 99.34) rotate(-65.34)"><tspan x="0" y="0">3</tspan></text>
  <text class="cls-1" transform="translate(67.45 97.61) rotate(-63.48)"><tspan x="0" y="0">D</tspan></text>
  <text class="cls-1" transform="translate(68.45 95.62) rotate(-62.06)"><tspan x="0" y="0"> </tspan></text>
  <text class="cls-1" transform="translate(68.9 94.77) rotate(-61.22)"><tspan x="0" y="0">f</tspan></text>
  <text class="cls-1" transform="translate(69.36 93.93) rotate(-60.43)"><tspan x="0" y="0">i</tspan></text>
  <text class="cls-1" transform="translate(69.74 93.27) rotate(-59.74)"><tspan x="0" y="0">l</tspan></text>
  <text class="cls-1" transform="translate(70.13 92.59) rotate(-58.62)"><tspan x="0" y="0">e</tspan></text>
  <text class="cls-1" transform="translate(71.02 91.13) rotate(-57.3)"><tspan x="0" y="0">s</tspan></text>
  <text class="cls-1" transform="translate(71.69 90.1) rotate(-56.33)"><tspan x="0" y="0"> </tspan></text>
  <text class="cls-1" transform="translate(72.22 89.3) rotate(-55.07)"><tspan x="0" y="0">a</tspan></text>
  <text class="cls-1" transform="translate(73.27 87.8) rotate(-53.7)"><tspan x="0" y="0">s</tspan></text>
  <text class="cls-1" transform="translate(74.01 86.79) rotate(-52.72)"><tspan x="0" y="0"> </tspan></text>
  <text class="cls-1" transform="translate(74.57 86.05) rotate(-51.48)"><tspan x="0" y="0">a</tspan></text>
  <text class="cls-1" transform="translate(75.73 84.59) rotate(-50.22)"><tspan x="0" y="0"> </tspan></text>
  <text class="cls-1" transform="translate(76.34 83.86) rotate(-49.39)"><tspan x="0" y="0">f</tspan></text>
  <text class="cls-1" transform="translate(76.95 83.15) rotate(-48.13)"><tspan x="0" y="0">o</tspan></text>
  <text class="cls-1" transform="translate(78.19 81.77) rotate(-46.96)"><tspan x="0" y="0">l</tspan></text>
  <text class="cls-1" transform="translate(78.7 81.21) rotate(-45.8)"><tspan x="0" y="0">d</tspan></text>
  <text class="cls-1" transform="translate(79.99 79.9) rotate(-44.22)"><tspan x="0" y="0">e</tspan></text>
  <text class="cls-1" transform="translate(81.2 78.71) rotate(-42.63)"><tspan x="0" y="0">d</tspan></text>
  <text class="cls-1" transform="translate(82.56 77.47) rotate(-41.39)"><tspan x="0" y="0"> </tspan></text>
  <text class="cls-1" transform="translate(83.27 76.83) rotate(-40.21)"><tspan x="0" y="0">u</tspan></text>
  <text class="cls-1" transform="translate(84.54 75.76) rotate(-38.64)"><tspan x="0" y="0">p</tspan></text>
  <text class="cls-1" transform="translate(85.99 74.61) rotate(-37.39)"><tspan x="0" y="0"> </tspan></text>
  <text class="cls-1" transform="translate(86.75 74.02) rotate(-36.09)"><tspan x="0" y="0">2</tspan></text>
  <text class="cls-1" transform="translate(88.26 72.91) rotate(-34.25)"><tspan x="0" y="0">D</tspan></text>
  <text class="cls-1" transform="translate(90.12 71.66) rotate(-32.82)"><tspan x="0" y="0"> </tspan></text>
  <text class="cls-1" transform="translate(90.9 71.14) rotate(-31.3)"><tspan x="0" y="0">m</tspan></text>
  <text class="cls-1" transform="translate(92.98 69.89) rotate(-29.44)"><tspan x="0" y="0">e</tspan></text>
  <text class="cls-1" transform="translate(94.47 69.05) rotate(-28.1)"><tspan x="0" y="0">s</tspan></text>
  <text class="cls-1" transform="translate(95.58 68.45) rotate(-26.76)"><tspan x="0" y="0">h</tspan></text>
  <text class="cls-1" transform="translate(97.08 67.69) rotate(-25.57)"><tspan x="0" y="0">.</tspan></text>
  <text class="cls-1" transform="translate(97.92 67.3) rotate(-24.73)"><tspan x="0" y="0"> </tspan></text>
  <text class="cls-1" transform="translate(98.78 66.9) rotate(-23.63)"><tspan x="0" y="0">T</tspan></text>
  <text class="cls-1" transform="translate(100.15 66.3) rotate(-22.18)"><tspan x="0" y="0">h</tspan></text>
  <text class="cls-1" transform="translate(101.71 65.66) rotate(-20.65)"><tspan x="0" y="0">e</tspan></text>
  <text class="cls-1" transform="translate(103.31 65.06) rotate(-19.35)"><tspan x="0" y="0">r</tspan></text>
  <text class="cls-1" transform="translate(104.35 64.69) rotate(-18.1)"><tspan x="0" y="0">e</tspan></text>
  <text class="cls-1" transform="translate(105.98 64.16) rotate(-16.89)"><tspan x="0" y="0"> </tspan></text>
  <text class="cls-1" transform="translate(106.88 63.88) rotate(-15.64)"><tspan x="0" y="0">a</tspan></text>
  <text class="cls-1" transform="translate(108.66 63.39) rotate(-14.29)"><tspan x="0" y="0">r</tspan></text>
  <text class="cls-1" transform="translate(109.75 63.11) rotate(-13.02)"><tspan x="0" y="0">e</tspan></text>
  <text class="cls-1" transform="translate(111.39 62.73) rotate(-11.85)"><tspan x="0" y="0"> </tspan></text>
  <text class="cls-1" transform="translate(112.33 62.53) rotate(-10.85)"><tspan x="0" y="0">s</tspan></text>
  <text class="cls-1" transform="translate(113.55 62.3) rotate(-9.54)"><tspan x="0" y="0">e</tspan></text>
  <text class="cls-1" transform="translate(115.18 62.02) rotate(-8.14)"><tspan x="0" y="0">v</tspan></text>
  <text class="cls-1" transform="translate(116.65 61.81) rotate(-6.76)"><tspan x="0" y="0">e</tspan></text>
  <text class="cls-1" transform="translate(118.33 61.62) rotate(-6.26)"><tspan x="0" y="0">r</tspan></text>
  <text class="cls-1" transform="translate(119.47 61.5) rotate(-4.19)"><tspan x="0" y="0">a</tspan></text>
  <text class="cls-1" transform="translate(121.29 61.37) rotate(-3.06)"><tspan x="0" y="0">l</tspan></text>
  <text class="cls-1" transform="translate(122.06 61.33) rotate(-2.29)"><tspan x="0" y="0"> </tspan></text>
  <text class="cls-1" transform="translate(123.01 61.29) rotate(-1.04)"><tspan x="0" y="0">p</tspan></text>
  <text class="cls-1" transform="translate(124.85 61.26) rotate(.29)"><tspan x="0" y="0">r</tspan></text>
  <text class="cls-1" transform="translate(125.96 61.26) rotate(1.6)"><tspan x="0" y="0">o</tspan></text>
  <text class="cls-1" transform="translate(127.81 61.31) rotate(3.09)"><tspan x="0" y="0">c</tspan></text>
  <text class="cls-1" transform="translate(129.29 61.39) rotate(4.53)"><tspan x="0" y="0">e</tspan></text>
  <text class="cls-1" transform="translate(130.98 61.52) rotate(6.12)"><tspan x="0" y="0">d</tspan></text>
  <text class="cls-1" transform="translate(132.81 61.72) rotate(7.71)"><tspan x="0" y="0">u</tspan></text>
  <text class="cls-1" transform="translate(134.47 61.95) rotate(8.99)"><tspan x="0" y="0">r</tspan></text>
  <text class="cls-1" transform="translate(135.56 62.12) rotate(10.3)"><tspan x="0" y="0">a</tspan></text>
  <text class="cls-1" transform="translate(137.4 62.46) rotate(11.5)"><tspan x="0" y="0">l</tspan></text>
  <text class="cls-1" transform="translate(138.12 62.6) rotate(12.26)"><tspan x="0" y="0"> </tspan></text>
  <text class="cls-1" transform="translate(139.07 62.8) rotate(13.55)"><tspan x="0" y="0">p</tspan></text>
  <text class="cls-1" transform="translate(140.85 63.24) rotate(14.89)"><tspan x="0" y="0">r</tspan></text>
  <text class="cls-1" transform="translate(141.93 63.52) rotate(16.21)"><tspan x="0" y="0">o</tspan></text>
  <text class="cls-1" transform="translate(143.7 64.03) rotate(17.88)"><tspan x="0" y="0">b</tspan></text>
  <text class="cls-1" transform="translate(145.46 64.61) rotate(19.07)"><tspan x="0" y="0">l</tspan></text>
  <text class="cls-1" transform="translate(146.18 64.85) rotate(20.18)"><tspan x="0" y="0">e</tspan></text>
  <text class="cls-1" transform="translate(147.79 65.44) rotate(22.05)"><tspan x="0" y="0">m</tspan></text>
  <text class="cls-1" transform="translate(150.04 66.36) rotate(23.71)"><tspan x="0" y="0">s</tspan></text>
  <text class="cls-1" transform="translate(151.17 66.85) rotate(24.68)"><tspan x="0" y="0"> </tspan></text>
  <text class="cls-1" transform="translate(152.02 67.25) rotate(25.48)"><tspan x="0" y="0">t</tspan></text>
  <text class="cls-1" transform="translate(152.86 67.64) rotate(26.69)"><tspan x="0" y="0">h</tspan></text>
  <text class="cls-1" transform="translate(154.35 68.39) rotate(28.26)"><tspan x="0" y="0">a</tspan></text>
  <text class="cls-1" transform="translate(155.98 69.27) rotate(29.47)"><tspan x="0" y="0">t</tspan></text>
  <text class="cls-1" transform="translate(156.7 69.68) rotate(30.26)"><tspan x="0" y="0"> </tspan></text>
  <text class="cls-1" transform="translate(157.51 70.15) rotate(31.51)"><tspan x="0" y="0">a</tspan></text>
  <text class="cls-1" transform="translate(159.1 71.12) rotate(32.86)"><tspan x="0" y="0">r</tspan></text>
  <text class="cls-1" transform="translate(160.1 71.77) rotate(33.75)"><tspan x="0" y="0">i</tspan></text>
  <text class="cls-1" transform="translate(160.74 72.2) rotate(34.65)"><tspan x="0" y="0">s</tspan></text>
  <text class="cls-1" transform="translate(161.75 72.89) rotate(35.96)"><tspan x="0" y="0">e</tspan></text>
  <text class="cls-1" transform="translate(163.14 73.9) rotate(37.15)"><tspan x="0" y="0"> </tspan></text>
  <text class="cls-1" transform="translate(163.88 74.46) rotate(37.96)"><tspan x="0" y="0">f</tspan></text>
  <text class="cls-1" transform="translate(164.61 75.04) rotate(38.91)"><tspan x="0" y="0">r</tspan></text>
  <text class="cls-1" transform="translate(165.48 75.73) rotate(40.21)"><tspan x="0" y="0">o</tspan></text>
  <text class="cls-1" transform="translate(166.9 76.92) rotate(42.13)"><tspan x="0" y="0">m</tspan></text>
  <text class="cls-1" transform="translate(168.69 78.55) rotate(43.62)"><tspan x="0" y="0"> </tspan></text>
  <text class="cls-1" transform="translate(169.38 79.21) rotate(44.71)"><tspan x="0" y="0">c</tspan></text>
  <text class="cls-1" transform="translate(170.42 80.24) rotate(46.19)"><tspan x="0" y="0">o</tspan></text>
  <text class="cls-1" transform="translate(171.69 81.56) rotate(47.75)"><tspan x="0" y="0">n</tspan></text>
  <text class="cls-1" transform="translate(172.82 82.81) rotate(49.17)"><tspan x="0" y="0">c</tspan></text>
  <text class="cls-1" transform="translate(173.78 83.92) rotate(50.59)"><tspan x="0" y="0">e</tspan></text>
  <text class="cls-1" transform="translate(174.87 85.25) rotate(51.71)"><tspan x="0" y="0">i</tspan></text>
  <text class="cls-1" transform="translate(175.34 85.84) rotate(52.74)"><tspan x="0" y="0">v</tspan></text>
  <text class="cls-1" transform="translate(176.28 87.08) rotate(53.78)"><tspan x="0" y="0">i</tspan></text>
  <text class="cls-1" transform="translate(176.72 87.67) rotate(54.86)"><tspan x="0" y="0">n</tspan></text>
  <text class="cls-1" transform="translate(177.7 89.06) rotate(56.46)"><tspan x="0" y="0">g</tspan></text>
  <text class="cls-1" transform="translate(178.72 90.6) rotate(57.72)"><tspan x="0" y="0"> </tspan></text>
  <text class="cls-1" transform="translate(179.23 91.4) rotate(58.99)"><tspan x="0" y="0">o</tspan></text>
  <text class="cls-1" transform="translate(180.16 92.97) rotate(60.21)"><tspan x="0" y="0">f</tspan></text>
  <text class="cls-1" transform="translate(180.62 93.77) rotate(61.07)"><tspan x="0" y="0"> </tspan></text>
  <text class="cls-1" transform="translate(181.08 94.59) rotate(62.32)"><tspan x="0" y="0">a</tspan></text>
  <text class="cls-1" transform="translate(181.94 96.24) rotate(63.59)"><tspan x="0" y="0"> </tspan></text>
  <text class="cls-1" transform="translate(182.36 97.07) rotate(64.87)"><tspan x="0" y="0">3</tspan></text>
  <text class="cls-1" transform="translate(183.16 98.78) rotate(66.73)"><tspan x="0" y="0">D</tspan></text>
  <text class="cls-1" transform="translate(184.04 100.84) rotate(68.17)"><tspan x="0" y="0"> </tspan></text>
  <text class="cls-1" transform="translate(184.4 101.71) rotate(69.44)"><tspan x="0" y="0">o</tspan></text>
  <text class="cls-1" transform="translate(185.05 103.45) rotate(71.11)"><tspan x="0" y="0">b</tspan></text>
  <text class="cls-1" transform="translate(185.64 105.2) rotate(72.3)"><tspan x="0" y="0">j</tspan></text>
  <text class="cls-1" transform="translate(185.87 105.91) rotate(73.4)"><tspan x="0" y="0">e</tspan></text>
  <text class="cls-1" transform="translate(186.36 107.55) rotate(74.84)"><tspan x="0" y="0">c</tspan></text>
  <text class="cls-1" transform="translate(186.74 108.96) rotate(75.87)"><tspan x="0" y="0">t</tspan></text>
  <text class="cls-1" transform="translate(186.94 109.76) rotate(76.66)"><tspan x="0" y="0"> </tspan></text>
  <text class="cls-1" transform="translate(187.17 110.69) rotate(77.92)"><tspan x="0" y="0">a</tspan></text>
  <text class="cls-1" transform="translate(187.55 112.49) rotate(79.3)"><tspan x="0" y="0">s</tspan></text>
  <text class="cls-1" transform="translate(187.78 113.73) rotate(80.3)"><tspan x="0" y="0"> </tspan></text>
  <text class="cls-1" transform="translate(187.94 114.64) rotate(81.45)"><tspan x="0" y="0">n</tspan></text>
  <text class="cls-1" transform="translate(188.2 116.33) rotate(83.04)"><tspan x="0" y="0">o</tspan></text>
  <text class="cls-1" transform="translate(188.41 118.19) rotate(83.74)"><tspan x="0" y="0">t</tspan></text>
  <text class="cls-1" transform="translate(188.51 119.07) rotate(85.6)"><tspan x="0" y="0">h</tspan></text>
  <text class="cls-1" transform="translate(188.64 120.76) rotate(86.49)"><tspan x="0" y="0">i</tspan></text>
  <text class="cls-1" transform="translate(188.69 121.52) rotate(87.57)"><tspan x="0" y="0">n</tspan></text>
  <text class="cls-1" transform="translate(188.77 123.19) rotate(89.14)"><tspan x="0" y="0">g</tspan></text>
  <text class="cls-1" transform="translate(188.79 125.03) rotate(90.38)"><tspan x="0" y="0"> </tspan></text>
  <text class="cls-1" transform="translate(188.79 125.98) rotate(91.89)"><tspan x="0" y="0">m</tspan></text>
  <text class="cls-1" transform="translate(188.71 128.4) rotate(93.81)"><tspan x="0" y="0">o</tspan></text>
  <text class="cls-1" transform="translate(188.58 130.24) rotate(95.16)"><tspan x="0" y="0">r</tspan></text>
  <text class="cls-1" transform="translate(188.48 131.38) rotate(96.44)"><tspan x="0" y="0">e</tspan></text>
  <text class="cls-1" transform="translate(188.29 133.06) rotate(97.63)"><tspan x="0" y="0"> </tspan></text>
  <text class="cls-1" transform="translate(188.16 133.99) rotate(98.43)"><tspan x="0" y="0">t</tspan></text>
  <text class="cls-1" transform="translate(188.03 134.89) rotate(99.64)"><tspan x="0" y="0">h</tspan></text>
  <text class="cls-1" transform="translate(187.75 136.56) rotate(101.24)"><tspan x="0" y="0">a</tspan></text>
  <text class="cls-1" transform="translate(187.39 138.36) rotate(102.84)"><tspan x="0" y="0">n</tspan></text>
  <text class="cls-1" transform="translate(187.01 140.01) rotate(104.03)"><tspan x="0" y="0"> </tspan></text>
  <text class="cls-1" transform="translate(186.79 140.92) rotate(105.29)"><tspan x="0" y="0">a</tspan></text>
  <text class="cls-1" transform="translate(186.3 142.69) rotate(106.54)"><tspan x="0" y="0"> </tspan></text>
  <text class="cls-1" transform="translate(186.05 143.59) rotate(108.04)"><tspan x="0" y="0">w</tspan></text>
  <text class="cls-1" transform="translate(185.3 145.86) rotate(109.64)"><tspan x="0" y="0">r</tspan></text>
  <text class="cls-1" transform="translate(184.92 146.92) rotate(110.97)"><tspan x="0" y="0">a</tspan></text>
  <text class="cls-1" transform="translate(184.27 148.63) rotate(112.62)"><tspan x="0" y="0">p</tspan></text>
  <text class="cls-1" transform="translate(183.56 150.34) rotate(114.29)"><tspan x="0" y="0">p</tspan></text>
  <text class="cls-1" transform="translate(182.79 152.03) rotate(115.89)"><tspan x="0" y="0">e</tspan></text>
  <text class="cls-1" transform="translate(182.06 153.54) rotate(117.47)"><tspan x="0" y="0">d</tspan></text>
  <text class="cls-1" transform="translate(181.21 155.18) rotate(118.71)"><tspan x="0" y="0"> </tspan></text>
  <text class="cls-1" transform="translate(180.75 156.02) rotate(120.01)"><tspan x="0" y="0">2</tspan></text>
  <text class="cls-1" transform="translate(179.81 157.66) rotate(121.85)"><tspan x="0" y="0">D</tspan></text>
  <text class="cls-1" transform="translate(178.62 159.55) rotate(123.26)"><tspan x="0" y="0"> </tspan></text>
  <text class="cls-1" transform="translate(178.11 160.34) rotate(124.25)"><tspan x="0" y="0">s</tspan></text>
  <text class="cls-1" transform="translate(177.41 161.37) rotate(125.49)"><tspan x="0" y="0">k</tspan></text>
  <text class="cls-1" transform="translate(176.51 162.62) rotate(126.51)"><tspan x="0" y="0">i</tspan></text>
  <text class="cls-1" transform="translate(176.05 163.25) rotate(127.62)"><tspan x="0" y="0">n</tspan></text>
  <text class="cls-1" transform="translate(175.04 164.56) rotate(128.78)"><tspan x="0" y="0">,</tspan></text>
  <text class="cls-1" transform="translate(174.44 165.31) rotate(129.63)"><tspan x="0" y="0"> </tspan></text>
  <text class="cls-1" transform="translate(173.83 166.04) rotate(130.46)"><tspan x="0" y="0">f</tspan></text>
  <text class="cls-1" transform="translate(173.23 166.76) rotate(131.72)"><tspan x="0" y="0">o</tspan></text>
  <text class="cls-1" transform="translate(171.99 168.14) rotate(133.07)"><tspan x="0" y="0">r</tspan></text>
  <text class="cls-1" transform="translate(171.2 168.98) rotate(134.01)"><tspan x="0" y="0"> </tspan></text>
  <text class="cls-1" transform="translate(170.55 169.65) rotate(134.76)"><tspan x="0" y="0">i</tspan></text>
  <text class="cls-1" transform="translate(170.01 170.21) rotate(135.87)"><tspan x="0" y="0">n</tspan></text>
  <text class="cls-1" transform="translate(168.8 171.38) rotate(137.17)"><tspan x="0" y="0">s</tspan></text>
  <text class="cls-1" transform="translate(167.89 172.21) rotate(138.1)"><tspan x="0" y="0">t</tspan></text>
  <text class="cls-1" transform="translate(167.24 172.81) rotate(139.34)"><tspan x="0" y="0">a</tspan></text>
  <text class="cls-1" transform="translate(165.85 174) rotate(140.91)"><tspan x="0" y="0">n</tspan></text>
  <text class="cls-1" transform="translate(164.53 175.07) rotate(142.33)"><tspan x="0" y="0">c</tspan></text>
  <text class="cls-1" transform="translate(163.39 175.95) rotate(143.73)"><tspan x="0" y="0">e</tspan></text>
  <text class="cls-1" transform="translate(162 176.97) rotate(144.95)"><tspan x="0" y="0">,</tspan></text>
  <text class="cls-1" transform="translate(161.23 177.51) rotate(145.79)"><tspan x="0" y="0"> </tspan></text>
  <text class="cls-1" transform="translate(160.45 178.04) rotate(146.59)"><tspan x="0" y="0">t</tspan></text>
  <text class="cls-1" transform="translate(159.7 178.54) rotate(147.79)"><tspan x="0" y="0">h</tspan></text>
  <text class="cls-1" transform="translate(158.27 179.44) rotate(149.32)"><tspan x="0" y="0">e</tspan></text>
  <text class="cls-1" transform="translate(156.8 180.31) rotate(150.52)"><tspan x="0" y="0"> </tspan></text>
  <text class="cls-1" transform="translate(156 180.77) rotate(152.01)"><tspan x="0" y="0">w</tspan></text>
  <text class="cls-1" transform="translate(153.88 181.89) rotate(153.61)"><tspan x="0" y="0">r</tspan></text>
  <text class="cls-1" transform="translate(152.89 182.38) rotate(154.94)"><tspan x="0" y="0">a</tspan></text>
  <text class="cls-1" transform="translate(151.2 183.17) rotate(156.62)"><tspan x="0" y="0">p</tspan></text>
  <text class="cls-1" transform="translate(149.52 183.9) rotate(158.28)"><tspan x="0" y="0">p</tspan></text>
  <text class="cls-1" transform="translate(147.81 184.58) rotate(159.89)"><tspan x="0" y="0">e</tspan></text>
  <text class="cls-1" transform="translate(146.2 185.17) rotate(161.49)"><tspan x="0" y="0">d</tspan></text>
  <text class="cls-1" transform="translate(144.46 185.75) rotate(162.75)"><tspan x="0" y="0"> </tspan></text>
  <text class="cls-1" transform="translate(143.57 186.03) rotate(164.03)"><tspan x="0" y="0">2</tspan></text>
  <text class="cls-1" transform="translate(141.74 186.56) rotate(165.89)"><tspan x="0" y="0">D</tspan></text>
  <text class="cls-1" transform="translate(139.58 187.09) rotate(167.31)"><tspan x="0" y="0"> </tspan></text>
  <text class="cls-1" transform="translate(138.65 187.3) rotate(168.31)"><tspan x="0" y="0">s</tspan></text>
  <text class="cls-1" transform="translate(137.43 187.56) rotate(169.55)"><tspan x="0" y="0">k</tspan></text>
  <text class="cls-1" transform="translate(135.92 187.83) rotate(170.57)"><tspan x="0" y="0">i</tspan></text>
  <text class="cls-1" transform="translate(135.18 187.96) rotate(171.66)"><tspan x="0" y="0">n</tspan></text>
  <text class="cls-1" transform="translate(133.5 188.2) rotate(172.83)"><tspan x="0" y="0"> </tspan></text>
  <text class="cls-1" transform="translate(132.56 188.32) rotate(173.74)"><tspan x="0" y="0">w</tspan></text>
  <text class="cls-1" transform="translate(130.21 188.56) rotate(175.67)"><tspan x="0" y="0">i</tspan></text>
  <text class="cls-1" transform="translate(129.44 188.61) rotate(176.35)"><tspan x="0" y="0">l</tspan></text>
  <text class="cls-1" transform="translate(128.68 188.66) rotate(177.03)"><tspan x="0" y="0">l</tspan></text>
  <text class="cls-1" transform="translate(127.9 188.7) rotate(177.8)"><tspan x="0" y="0"> </tspan></text>
  <text class="cls-1" transform="translate(126.96 188.74) rotate(179.04)"><tspan x="0" y="0">o</tspan></text>
  <text class="cls-1" transform="translate(125.12 188.77) rotate(-179.73)"><tspan x="0" y="0">f</tspan></text>
  <text class="cls-1" transform="translate(124.1 188.76) rotate(-178.85)"><tspan x="0" y="0">t</tspan></text>
  <text class="cls-1" transform="translate(123.23 188.75) rotate(-177.68)"><tspan x="0" y="0">e</tspan></text>
  <text class="cls-1" transform="translate(121.54 188.68) rotate(-176.17)"><tspan x="0" y="0">n</tspan></text>
  <text class="cls-1" transform="translate(119.85 188.57) rotate(-174.98)"><tspan x="0" y="0"> </tspan></text>
  <text class="cls-1" transform="translate(118.91 188.49) rotate(-173.79)"><tspan x="0" y="0">h</tspan></text>
  <text class="cls-1" transform="translate(117.24 188.31) rotate(-172.19)"><tspan x="0" y="0">a</tspan></text>
  <text class="cls-1" transform="translate(115.38 188.05) rotate(-170.63)"><tspan x="0" y="0">v</tspan></text>
  <text class="cls-1" transform="translate(113.9 187.81) rotate(-169.21)"><tspan x="0" y="0">e</tspan></text>
  <text class="cls-1" transform="translate(112.23 187.48) rotate(-168.01)"><tspan x="0" y="0"> </tspan></text>
  <text class="cls-1" transform="translate(111.33 187.3) rotate(-166.77)"><tspan x="0" y="0">a</tspan></text>
  <text class="cls-1" transform="translate(109.52 186.87) rotate(-165.15)"><tspan x="0" y="0">n</tspan></text>
  <text class="cls-1" transform="translate(107.89 186.44) rotate(-163.96)"><tspan x="0" y="0"> </tspan></text>
  <text class="cls-1" transform="translate(106.99 186.18) rotate(-162.71)"><tspan x="0" y="0">a</tspan></text>
  <text class="cls-1" transform="translate(105.21 185.63) rotate(-160.78)"><tspan x="0" y="0">w</tspan></text>
  <text class="cls-1" transform="translate(102.96 184.84) rotate(-159.01)"><tspan x="0" y="0">k</tspan></text>
  <text class="cls-1" transform="translate(101.53 184.3) rotate(-157.25)"><tspan x="0" y="0">w</tspan></text>
  <text class="cls-1" transform="translate(99.37 183.39) rotate(-155.39)"><tspan x="0" y="0">a</tspan></text>
  <text class="cls-1" transform="translate(97.7 182.62) rotate(-154.05)"><tspan x="0" y="0">r</tspan></text>
  <text class="cls-1" transform="translate(96.7 182.14) rotate(-152.73)"><tspan x="0" y="0">d</tspan></text>
  <text class="cls-1" transform="translate(95.06 181.29) rotate(-151.48)"><tspan x="0" y="0"> </tspan></text>
  <text class="cls-1" transform="translate(94.22 180.84) rotate(-150.49)"><tspan x="0" y="0">s</tspan></text>
  <text class="cls-1" transform="translate(93.15 180.23) rotate(-149.18)"><tspan x="0" y="0">e</tspan></text>
  <text class="cls-1" transform="translate(91.69 179.36) rotate(-147.59)"><tspan x="0" y="0">a</tspan></text>
  <text class="cls-1" transform="translate(90.12 178.37) rotate(-145.67)"><tspan x="0" y="0">m</tspan></text>
  <text class="cls-1" transform="translate(88.12 177) rotate(-144.17)"><tspan x="0" y="0"> </tspan></text>
  <text class="cls-1" transform="translate(87.35 176.44) rotate(-143.4)"><tspan x="0" y="0">l</tspan></text>
  <text class="cls-1" transform="translate(86.74 175.98) rotate(-142.72)"><tspan x="0" y="0">i</tspan></text>
  <text class="cls-1" transform="translate(86.12 175.51) rotate(-141.61)"><tspan x="0" y="0">n</tspan></text>
  <text class="cls-1" transform="translate(84.81 174.48) rotate(-140.11)"><tspan x="0" y="0">e</tspan></text>
  <text class="cls-1" transform="translate(83.49 173.38) rotate(-138.92)"><tspan x="0" y="0"> </tspan></text>
</svg>