<?xml version="1.0" encoding="UTF-8"?>
<svg id="Layer_22_2" data-name="Layer 22_2" xmlns="http://www.w3.org/2000/svg" viewBox="0 0 250 250">
  <defs>
    <style>
      .cls-1 {
        font-family: Futura-Medium, Futura;
        font-weight: 500;
      }

      .cls-1, .cls-2 {
        fill: #231f20;
        font-size: 4px;
      }

      .cls-2 {
        font-family: Futura-CondensedExtraBold, Futura;
        font-weight: 700;
      }
    </style>
  </defs>
  <text class="cls-1" transform="translate(221.59 138.54) rotate(98.91)"><tspan x="0" y="0">A</tspan></text>
  <text class="cls-1" transform="translate(221.12 141.45) rotate(100.03)"><tspan x="0" y="0"> </tspan></text>
  <text class="cls-1" transform="translate(220.91 142.67) rotate(101.08)"><tspan x="0" y="0">g</tspan></text>
  <text class="cls-1" transform="translate(220.46 144.98) rotate(102.19)"><tspan x="0" y="0">r</tspan></text>
  <text class="cls-1" transform="translate(220.12 146.51) rotate(102.96)"><tspan x="0" y="0">i</tspan></text>
  <text class="cls-1" transform="translate(219.91 147.45) rotate(103.93)"><tspan x="0" y="0">d</tspan></text>
  <text class="cls-1" transform="translate(219.33 149.77) rotate(105)"><tspan x="0" y="0"> </tspan></text>
  <text class="cls-1" transform="translate(219.01 150.96) rotate(105.65)"><tspan x="0" y="0">i</tspan></text>
  <text class="cls-1" transform="translate(218.75 151.91) rotate(106.42)"><tspan x="0" y="0">s</tspan></text>
  <text class="cls-1" transform="translate(218.29 153.46) rotate(107.25)"><tspan x="0" y="0"> </tspan></text>
  <text class="cls-1" transform="translate(217.94 154.61) rotate(108.31)"><tspan x="0" y="0">a</tspan></text>
  <text class="cls-1" transform="translate(217.19 156.86) rotate(109.36)"><tspan x="0" y="0"> </tspan></text>
  <text class="cls-1" transform="translate(216.78 158.03) rotate(110.44)"><tspan x="0" y="0">p</tspan></text>
  <text class="cls-1" transform="translate(215.96 160.24) rotate(111.78)"><tspan x="0" y="0">e</tspan></text>
  <text class="cls-1" transform="translate(215.14 162.29) rotate(112.88)"><tspan x="0" y="0">r</tspan></text>
  <text class="cls-1" transform="translate(214.5 163.78) rotate(113.74)"><tspan x="0" y="0">f</tspan></text>
  <text class="cls-1" transform="translate(214.01 164.92) rotate(114.78)"><tspan x="0" y="0">e</tspan></text>
  <text class="cls-1" transform="translate(213.09 166.91) rotate(115.99)"><tspan x="0" y="0">c</tspan></text>
  <text class="cls-1" transform="translate(212.25 168.61) rotate(116.87)"><tspan x="0" y="0">t</tspan></text>
  <text class="cls-1" transform="translate(211.76 169.59) rotate(117.56)"><tspan x="0" y="0"> </tspan></text>
  <text class="cls-1" transform="translate(211.2 170.67) rotate(118.4)"><tspan x="0" y="0">s</tspan></text>
  <text class="cls-1" transform="translate(210.45 172.07) rotate(119.5)"><tspan x="0" y="0">y</tspan></text>
  <text class="cls-1" transform="translate(209.38 173.95) rotate(120.62)"><tspan x="0" y="0">s</tspan></text>
  <text class="cls-1" transform="translate(208.56 175.33) rotate(121.41)"><tspan x="0" y="0">t</tspan></text>
  <text class="cls-1" transform="translate(207.98 176.29) rotate(122.41)"><tspan x="0" y="0">e</tspan></text>
  <text class="cls-1" transform="translate(206.8 178.16) rotate(123.99)"><tspan x="0" y="0">m</tspan></text>
  <text class="cls-1" transform="translate(205.03 180.76) rotate(125.27)"><tspan x="0" y="0"> </tspan></text>
  <text class="cls-1" transform="translate(204.33 181.75) rotate(125.95)"><tspan x="0" y="0">t</tspan></text>
  <text class="cls-1" transform="translate(203.66 182.68) rotate(126.95)"><tspan x="0" y="0">h</tspan></text>
  <text class="cls-1" transform="translate(202.35 184.42) rotate(128.29)"><tspan x="0" y="0">a</tspan></text>
  <text class="cls-1" transform="translate(200.87 186.29) rotate(129.3)"><tspan x="0" y="0">t</tspan></text>
  <text class="cls-1" transform="translate(200.18 187.14) rotate(130)"><tspan x="0" y="0"> </tspan></text>
  <text class="cls-1" transform="translate(199.4 188.08) rotate(131.05)"><tspan x="0" y="0">o</tspan></text>
  <text class="cls-1" transform="translate(197.83 189.87) rotate(132.39)"><tspan x="0" y="0">n</tspan></text>
  <text class="cls-1" transform="translate(196.37 191.47) rotate(133.31)"><tspan x="0" y="0">l</tspan></text>
  <text class="cls-1" transform="translate(195.67 192.22) rotate(134.26)"><tspan x="0" y="0">y</tspan></text>
  <text class="cls-1" transform="translate(194.16 193.76) rotate(135.24)"><tspan x="0" y="0"> </tspan></text>
  <text class="cls-1" transform="translate(193.29 194.63) rotate(136.25)"><tspan x="0" y="0">e</tspan></text>
  <text class="cls-1" transform="translate(191.76 196.09) rotate(137.49)"><tspan x="0" y="0">x</tspan></text>
  <text class="cls-1" transform="translate(190.12 197.6) rotate(138.43)"><tspan x="0" y="0">i</tspan></text>
  <text class="cls-1" transform="translate(189.4 198.24) rotate(139.18)"><tspan x="0" y="0">s</tspan></text>
  <text class="cls-1" transform="translate(188.17 199.3) rotate(139.97)"><tspan x="0" y="0">t</tspan></text>
  <text class="cls-1" transform="translate(187.34 200) rotate(140.76)"><tspan x="0" y="0">s</tspan></text>
  <text class="cls-1" transform="translate(186.08 201.02) rotate(141.59)"><tspan x="0" y="0"> </tspan></text>
  <text class="cls-1" transform="translate(185.13 201.78) rotate(142.23)"><tspan x="0" y="0">i</tspan></text>
  <text class="cls-1" transform="translate(184.35 202.39) rotate(143.16)"><tspan x="0" y="0">n</tspan></text>
  <text class="cls-1" transform="translate(182.6 203.69) rotate(144.15)"><tspan x="0" y="0"> </tspan></text>
  <text class="cls-1" transform="translate(181.61 204.41) rotate(144.83)"><tspan x="0" y="0">t</tspan></text>
  <text class="cls-1" transform="translate(180.68 205.07) rotate(145.82)"><tspan x="0" y="0">h</tspan></text>
  <text class="cls-1" transform="translate(178.87 206.3) rotate(147.1)"><tspan x="0" y="0">e</tspan></text>
  <text class="cls-1" transform="translate(177.02 207.5) rotate(148.45)"><tspan x="0" y="0">o</tspan></text>
  <text class="cls-1" transform="translate(174.99 208.74) rotate(149.57)"><tspan x="0" y="0">r</tspan></text>
  <text class="cls-1" transform="translate(173.56 209.58) rotate(150.74)"><tspan x="0" y="0">y</tspan></text>
  <text class="cls-1" transform="translate(171.83 210.55) rotate(151.63)"><tspan x="0" y="0">,</tspan></text>
  <text class="cls-1" transform="translate(170.75 211.13) rotate(152.35)"><tspan x="0" y="0"> </tspan></text>
  <text class="cls-1" transform="translate(169.67 211.7) rotate(153.4)"><tspan x="0" y="0">a</tspan></text>
  <text class="cls-1" transform="translate(167.54 212.76) rotate(154.45)"><tspan x="0" y="0"> </tspan></text>
  <text class="cls-1" transform="translate(166.43 213.31) rotate(155.74)"><tspan x="0" y="0">m</tspan></text>
  <text class="cls-1" transform="translate(163.57 214.59) rotate(157.37)"><tspan x="0" y="0">a</tspan></text>
  <text class="cls-1" transform="translate(161.37 215.5) rotate(158.38)"><tspan x="0" y="0">t</tspan></text>
  <text class="cls-1" transform="translate(160.3 215.93) rotate(159.38)"><tspan x="0" y="0">h</tspan></text>
  <text class="cls-1" transform="translate(158.26 216.7) rotate(160.67)"><tspan x="0" y="0">e</tspan></text>
  <text class="cls-1" transform="translate(156.18 217.43) rotate(162.25)"><tspan x="0" y="0">m</tspan></text>
  <text class="cls-1" transform="translate(153.21 218.38) rotate(163.87)"><tspan x="0" y="0">a</tspan></text>
  <text class="cls-1" transform="translate(150.91 219.04) rotate(164.9)"><tspan x="0" y="0">t</tspan></text>
  <text class="cls-1" transform="translate(149.86 219.32) rotate(165.51)"><tspan x="0" y="0">i</tspan></text>
  <text class="cls-1" transform="translate(148.9 219.57) rotate(166.37)"><tspan x="0" y="0">c</tspan></text>
  <text class="cls-1" transform="translate(147.07 220.02) rotate(167.63)"><tspan x="0" y="0">a</tspan></text>
  <text class="cls-1" transform="translate(144.75 220.52) rotate(168.62)"><tspan x="0" y="0">l</tspan></text>
  <text class="cls-1" transform="translate(143.77 220.72) rotate(169.28)"><tspan x="0" y="0"> </tspan></text>
  <text class="cls-1" transform="translate(142.57 220.95) rotate(170.08)"><tspan x="0" y="0">r</tspan></text>
  <text class="cls-1" transform="translate(141.16 221.2) rotate(171.15)"><tspan x="0" y="0">e</tspan></text>
  <text class="cls-1" transform="translate(138.98 221.54) rotate(172.5)"><tspan x="0" y="0">p</tspan></text>
  <text class="cls-1" transform="translate(136.61 221.85) rotate(173.65)"><tspan x="0" y="0">r</tspan></text>
  <text class="cls-1" transform="translate(135.17 222.01) rotate(174.72)"><tspan x="0" y="0">e</tspan></text>
  <text class="cls-1" transform="translate(132.97 222.21) rotate(175.85)"><tspan x="0" y="0">s</tspan></text>
  <text class="cls-1" transform="translate(131.37 222.33) rotate(176.97)"><tspan x="0" y="0">e</tspan></text>
  <text class="cls-1" transform="translate(129.2 222.45) rotate(178.26)"><tspan x="0" y="0">n</tspan></text>
  <text class="cls-1" transform="translate(127 222.51) rotate(179.22)"><tspan x="0" y="0">t</tspan></text>
  <text class="cls-1" transform="translate(125.89 222.53) rotate(-179.74)"><tspan x="0" y="0">a</tspan></text>
  <text class="cls-1" transform="translate(123.51 222.51) rotate(-178.72)"><tspan x="0" y="0">t</tspan></text>
  <text class="cls-1" transform="translate(122.42 222.49) rotate(-178.11)"><tspan x="0" y="0">i</tspan></text>
  <text class="cls-1" transform="translate(121.45 222.46) rotate(-177.13)"><tspan x="0" y="0">o</tspan></text>
  <text class="cls-1" transform="translate(119.08 222.34) rotate(-175.81)"><tspan x="0" y="0">n</tspan></text>
  <text class="cls-1" transform="translate(116.89 222.18) rotate(-174.81)"><tspan x="0" y="0"> </tspan></text>
  <text class="cls-1" transform="translate(115.68 222.07) rotate(-173.77)"><tspan x="0" y="0">o</tspan></text>
  <text class="cls-1" transform="translate(113.28 221.8) rotate(-172.95)"><tspan x="0" y="0">f</tspan><tspan x="1.16" y=".01"> </tspan></text>
  <text class="cls-1" transform="translate(110.91 221.5) rotate(-171)"><tspan x="0" y="0">a</tspan></text>
  <text class="cls-1" transform="translate(108.56 221.12) rotate(-169.96)"><tspan x="0" y="0"> </tspan></text>
  <text class="cls-1" transform="translate(107.36 220.91) rotate(-168.89)"><tspan x="0" y="0">2</tspan></text>
  <text class="cls-1" transform="translate(104.96 220.44) rotate(-167.34)"><tspan x="0" y="0">D</tspan></text>
  <text class="cls-1" transform="translate(102.15 219.8) rotate(-166.14)"><tspan x="0" y="0"> </tspan></text>
  <text class="cls-1" transform="translate(100.97 219.52) rotate(-165.09)"><tspan x="0" y="0">p</tspan></text>
  <text class="cls-1" transform="translate(98.66 218.9) rotate(-164.1)"><tspan x="0" y="0">l</tspan></text>
  <text class="cls-1" transform="translate(97.72 218.63) rotate(-163.11)"><tspan x="0" y="0">a</tspan></text>
  <text class="cls-1" transform="translate(95.43 217.94) rotate(-161.76)"><tspan x="0" y="0">n</tspan></text>
  <text class="cls-1" transform="translate(93.38 217.26) rotate(-160.48)"><tspan x="0" y="0">e</tspan></text>
  <text class="cls-1" transform="translate(91.31 216.52) rotate(-159.47)"><tspan x="0" y="0">.</tspan></text>
  <text class="cls-1" transform="translate(90.14 216.09) rotate(-158.73)"><tspan x="0" y="0"> </tspan></text>
  <text class="cls-1" transform="translate(89.01 215.66) rotate(-157.5)"><tspan x="0" y="0">A</tspan></text>
  <text class="cls-1" transform="translate(86.29 214.53) rotate(-155.99)"><tspan x="0" y="0">n</tspan></text>
  <text class="cls-1" transform="translate(84.36 213.67) rotate(-154.74)"><tspan x="0" y="0">y</tspan></text>
  <text class="cls-1" transform="translate(82.41 212.74) rotate(-153.75)"><tspan x="0" y="0"> </tspan></text>
  <text class="cls-1" transform="translate(81.33 212.21) rotate(-152.68)"><tspan x="0" y="0">d</tspan></text>
  <text class="cls-1" transform="translate(79.21 211.12) rotate(-151.69)"><tspan x="0" y="0">i</tspan></text>
  <text class="cls-1" transform="translate(78.34 210.65) rotate(-150.92)"><tspan x="0" y="0">s</tspan></text>
  <text class="cls-1" transform="translate(76.92 209.86) rotate(-150)"><tspan x="0" y="0">r</tspan></text>
  <text class="cls-1" transform="translate(75.59 209.1) rotate(-148.89)"><tspan x="0" y="0">u</tspan></text>
  <text class="cls-1" transform="translate(73.73 207.97) rotate(-147.54)"><tspan x="0" y="0">p</tspan></text>
  <text class="cls-1" transform="translate(71.7 206.68) rotate(-146.5)"><tspan x="0" y="0">t</tspan></text>
  <text class="cls-1" transform="translate(70.8 206.08) rotate(-145.89)"><tspan x="0" y="0">i</tspan></text>
  <text class="cls-1" transform="translate(69.99 205.54) rotate(-144.9)"><tspan x="0" y="0">o</tspan></text>
  <text class="cls-1" transform="translate(68.03 204.16) rotate(-143.55)"><tspan x="0" y="0">n</tspan></text>
  <text class="cls-1" transform="translate(66.29 202.86) rotate(-142.55)"><tspan x="0" y="0"> </tspan></text>
  <text class="cls-1" transform="translate(65.31 202.12) rotate(-141.87)"><tspan x="0" y="0">t</tspan></text>
  <text class="cls-1" transform="translate(64.43 201.44) rotate(-140.83)"><tspan x="0" y="0">o</tspan></text>
  <text class="cls-1" transform="translate(62.57 199.91) rotate(-139.77)"><tspan x="0" y="0"> </tspan></text>
  <text class="cls-1" transform="translate(61.65 199.13) rotate(-139.1)"><tspan x="0" y="0">t</tspan></text>
  <text class="cls-1" transform="translate(60.76 198.37) rotate(-138.09)"><tspan x="0" y="0">h</tspan></text>
  <text class="cls-1" transform="translate(59.14 196.92) rotate(-136.75)"><tspan x="0" y="0">a</tspan></text>
  <text class="cls-1" transform="translate(57.42 195.29) rotate(-135.75)"><tspan x="0" y="0">t</tspan></text>
  <text class="cls-1" transform="translate(56.64 194.53) rotate(-135.07)"><tspan x="0" y="0"> </tspan></text>
  <text class="cls-1" transform="translate(55.77 193.67) rotate(-134.01)"><tspan x="0" y="0">p</tspan></text>
  <text class="cls-1" transform="translate(54.11 191.95) rotate(-133.03)"><tspan x="0" y="0">l</tspan></text>
  <text class="cls-1" transform="translate(53.44 191.23) rotate(-132.04)"><tspan x="0" y="0">a</tspan></text>
  <text class="cls-1" transform="translate(51.85 189.47) rotate(-130.72)"><tspan x="0" y="0">n</tspan></text>
  <text class="cls-1" transform="translate(50.43 187.82) rotate(-129.43)"><tspan x="0" y="0">e</tspan></text>
  <text class="cls-1" transform="translate(49.03 186.11) rotate(-128.43)"><tspan x="0" y="0"> </tspan></text>
  <text class="cls-1" transform="translate(48.27 185.17) rotate(-127.38)"><tspan x="0" y="0">d</tspan></text>
  <text class="cls-1" transform="translate(46.83 183.27) rotate(-126.4)"><tspan x="0" y="0">i</tspan></text>
  <text class="cls-1" transform="translate(46.25 182.48) rotate(-125.64)"><tspan x="0" y="0">s</tspan></text>
  <text class="cls-1" transform="translate(45.3 181.17) rotate(-124.74)"><tspan x="0" y="0">r</tspan></text>
  <text class="cls-1" transform="translate(44.43 179.92) rotate(-123.65)"><tspan x="0" y="0">u</tspan></text>
  <text class="cls-1" transform="translate(43.24 178.12) rotate(-122.32)"><tspan x="0" y="0">p</tspan></text>
  <text class="cls-1" transform="translate(41.94 176.05) rotate(-121.28)"><tspan x="0" y="0">t</tspan></text>
  <text class="cls-1" transform="translate(41.38 175.14) rotate(-120.49)"><tspan x="0" y="0">s</tspan></text>
  <text class="cls-1" transform="translate(40.56 173.75) rotate(-119.67)"><tspan x="0" y="0"> </tspan></text>
  <text class="cls-1" transform="translate(39.95 172.67) rotate(-118.98)"><tspan x="0" y="0">t</tspan></text>
  <text class="cls-1" transform="translate(39.4 171.68) rotate(-118)"><tspan x="0" y="0">h</tspan></text>
  <text class="cls-1" transform="translate(38.37 169.75) rotate(-116.71)"><tspan x="0" y="0">e</tspan></text>
  <text class="cls-1" transform="translate(37.38 167.77) rotate(-115.7)"><tspan x="0" y="0"> </tspan></text>
  <text class="cls-1" transform="translate(36.85 166.69) rotate(-114.43)"><tspan x="0" y="0">m</tspan></text>
  <text class="cls-1" transform="translate(35.55 163.83) rotate(-112.81)"><tspan x="0" y="0">a</tspan></text>
  <text class="cls-1" transform="translate(34.64 161.64) rotate(-111.79)"><tspan x="0" y="0">t</tspan></text>
  <text class="cls-1" transform="translate(34.19 160.54) rotate(-110.77)"><tspan x="0" y="0">h</tspan></text>
  <text class="cls-1" transform="translate(33.43 158.52) rotate(-109.49)"><tspan x="0" y="0">e</tspan></text>
  <text class="cls-1" transform="translate(32.69 156.46) rotate(-107.92)"><tspan x="0" y="0">m</tspan></text>
  <text class="cls-1" transform="translate(31.72 153.46) rotate(-106.28)"><tspan x="0" y="0">a</tspan></text>
  <text class="cls-1" transform="translate(31.06 151.17) rotate(-105.27)"><tspan x="0" y="0">t</tspan></text>
  <text class="cls-1" transform="translate(30.78 150.14) rotate(-104.66)"><tspan x="0" y="0">i</tspan></text>
  <text class="cls-1" transform="translate(30.53 149.18) rotate(-103.81)"><tspan x="0" y="0">c</tspan></text>
  <text class="cls-1" transform="translate(30.07 147.34) rotate(-102.54)"><tspan x="0" y="0">a</tspan></text>
  <text class="cls-1" transform="translate(29.56 145) rotate(-101.53)"><tspan x="0" y="0">l</tspan></text>
  <text class="cls-1" transform="translate(29.36 144.06) rotate(-100.89)"><tspan x="0" y="0"> </tspan></text>
  <text class="cls-1" transform="translate(29.13 142.85) rotate(-99.82)"><tspan x="0" y="0">p</tspan></text>
  <text class="cls-1" transform="translate(28.72 140.51) rotate(-98.48)"><tspan x="0" y="0">u</tspan></text>
  <text class="cls-1" transform="translate(28.41 138.37) rotate(-97.4)"><tspan x="0" y="0">r</tspan></text>
  <text class="cls-1" transform="translate(28.21 136.83) rotate(-96.63)"><tspan x="0" y="0">i</tspan></text>
  <text class="cls-1" transform="translate(28.09 135.85) rotate(-96.01)"><tspan x="0" y="0">t</tspan></text>
  <text class="cls-1" transform="translate(27.98 134.79) rotate(-95.07)"><tspan x="0" y="0">y</tspan></text>
  <text class="cls-1" transform="translate(27.79 132.62) rotate(-94.06)"><tspan x="0" y="0"> </tspan></text>
  <text class="cls-1" transform="translate(27.7 131.41) rotate(-92.99)"><tspan x="0" y="0">a</tspan></text>
  <text class="cls-1" transform="translate(27.58 129.04) rotate(-91.65)"><tspan x="0" y="0">n</tspan></text>
  <text class="cls-1" transform="translate(27.51 126.85) rotate(-90.3)"><tspan x="0" y="0">d</tspan></text>
  <text class="cls-1" transform="translate(27.5 124.46) rotate(-89.24)"><tspan x="0" y="0"> </tspan></text>
  <text class="cls-2" transform="translate(27.52 123.24) rotate(-88.36)"><tspan x="0" y="0">s</tspan></text>
  <text class="cls-2" transform="translate(27.56 121.49) rotate(-87.2)"><tspan x="0" y="0">u</tspan></text>
  <text class="cls-2" transform="translate(27.67 119.25) rotate(-85.9)"><tspan x="0" y="0">g</tspan></text>
  <text class="cls-2" transform="translate(27.83 117.03) rotate(-84.61)"><tspan x="0" y="0">g</tspan></text>
  <text class="cls-2" transform="translate(28.04 114.8) rotate(-83.33)"><tspan x="0" y="0">e</tspan></text>
  <text class="cls-2" transform="translate(28.31 112.64) rotate(-82.95)"><tspan x="0" y="0">s</tspan></text>
  <text class="cls-2" transform="translate(28.54 110.87) rotate(-81.09)"><tspan x="0" y="0">t</tspan></text>
  <text class="cls-2" transform="translate(28.75 109.54) rotate(-80.38)"><tspan x="0" y="0">s</tspan></text>
  <text class="cls-2" transform="translate(29.04 107.79) rotate(-79.52)"><tspan x="0" y="0"> </tspan></text>
  <text class="cls-2" transform="translate(29.26 106.62) rotate(-78.78)"><tspan x="0" y="0">t</tspan></text>
  <text class="cls-2" transform="translate(29.52 105.28) rotate(-77.74)"><tspan x="0" y="0">o</tspan></text>
  <text class="cls-2" transform="translate(30 103.13) rotate(-76.74)"><tspan x="0" y="0"> </tspan></text>
  <text class="cls-2" transform="translate(30.27 101.96) rotate(-76)"><tspan x="0" y="0">t</tspan></text>
  <text class="cls-2" transform="translate(30.61 100.58) rotate(-74.91)"><tspan x="0" y="0">h</tspan></text>
  <text class="cls-2" transform="translate(31.18 98.47) rotate(-73.64)"><tspan x="0" y="0">e</tspan></text>
  <text class="cls-2" transform="translate(31.79 96.39) rotate(-72.65)"><tspan x="0" y="0"> </tspan></text>
  <text class="cls-2" transform="translate(32.14 95.27) rotate(-71.71)"><tspan x="0" y="0">v</tspan></text>
  <text class="cls-2" transform="translate(32.78 93.36) rotate(-70.78)"><tspan x="0" y="0">i</tspan></text>
  <text class="cls-2" transform="translate(33.15 92.28) rotate(-69.81)"><tspan x="0" y="0">e</tspan></text>
  <text class="cls-2" transform="translate(33.87 90.29) rotate(-68.28)"><tspan x="0" y="0">w</tspan></text>
  <text class="cls-2" transform="translate(35.01 87.46) rotate(-66.75)"><tspan x="0" y="0">e</tspan></text>
  <text class="cls-2" transform="translate(35.86 85.48) rotate(-65.65)"><tspan x="0" y="0">r</tspan></text>
  <text class="cls-1" transform="translate(36.5 84.07) rotate(-64.83)"><tspan x="0" y="0"> </tspan></text>
  <text class="cls-1" transform="translate(37.02 82.96) rotate(-64.15)"><tspan x="0" y="0">t</tspan></text>
  <text class="cls-1" transform="translate(37.51 81.93) rotate(-63.15)"><tspan x="0" y="0">h</tspan></text>
  <text class="cls-1" transform="translate(38.49 79.99) rotate(-61.8)"><tspan x="0" y="0">a</tspan></text>
  <text class="cls-1" transform="translate(39.63 77.88) rotate(-60.77)"><tspan x="0" y="0">t</tspan></text>
  <text class="cls-1" transform="translate(40.16 76.94) rotate(-60.08)"><tspan x="0" y="0"> </tspan></text>
  <text class="cls-1" transform="translate(40.77 75.88) rotate(-59.4)"><tspan x="0" y="0">t</tspan></text>
  <text class="cls-1" transform="translate(41.36 74.88) rotate(-58.39)"><tspan x="0" y="0">h</tspan></text>
  <text class="cls-1" transform="translate(42.49 73.03) rotate(-57.1)"><tspan x="0" y="0">e</tspan></text>
  <text class="cls-1" transform="translate(43.69 71.19) rotate(-56.1)"><tspan x="0" y="0"> </tspan></text>
  <text class="cls-1" transform="translate(44.37 70.16) rotate(-55.03)"><tspan x="0" y="0">g</tspan></text>
  <text class="cls-1" transform="translate(45.73 68.23) rotate(-53.9)"><tspan x="0" y="0">r</tspan></text>
  <text class="cls-1" transform="translate(46.65 66.97) rotate(-53.13)"><tspan x="0" y="0">i</tspan></text>
  <text class="cls-1" transform="translate(47.23 66.19) rotate(-52.14)"><tspan x="0" y="0">d</tspan></text>
  <text class="cls-1" transform="translate(48.7 64.31) rotate(-51.08)"><tspan x="0" y="0"> </tspan></text>
  <text class="cls-1" transform="translate(49.46 63.36) rotate(-50.44)"><tspan x="0" y="0">i</tspan></text>
  <text class="cls-1" transform="translate(50.1 62.58) rotate(-49.66)"><tspan x="0" y="0">s</tspan></text>
  <text class="cls-1" transform="translate(51.14 61.37) rotate(-48.84)"><tspan x="0" y="0"> </tspan></text>
  <text class="cls-1" transform="translate(51.95 60.43) rotate(-47.83)"><tspan x="0" y="0">n</tspan></text>
  <text class="cls-1" transform="translate(53.41 58.82) rotate(-46.5)"><tspan x="0" y="0">o</tspan></text>
  <text class="cls-1" transform="translate(55.05 57.1) rotate(-45.44)"><tspan x="0" y="0"> </tspan></text>
  <text class="cls-1" transform="translate(55.9 56.23) rotate(-44.8)"><tspan x="0" y="0">l</tspan></text>
  <text class="cls-1" transform="translate(56.59 55.54) rotate(-43.82)"><tspan x="0" y="0">o</tspan></text>
  <text class="cls-1" transform="translate(58.33 53.87) rotate(-42.47)"><tspan x="0" y="0">n</tspan></text>
  <text class="cls-1" transform="translate(59.93 52.4) rotate(-41.14)"><tspan x="0" y="0">g</tspan></text>
  <text class="cls-1" transform="translate(61.71 50.85) rotate(-39.82)"><tspan x="0" y="0">e</tspan></text>
  <text class="cls-1" transform="translate(63.42 49.43) rotate(-38.73)"><tspan x="0" y="0">r</tspan></text>
  <text class="cls-1" transform="translate(64.57 48.5) rotate(-37.94)"><tspan x="0" y="0"> </tspan></text>
  <text class="cls-1" transform="translate(65.52 47.76) rotate(-36.89)"><tspan x="0" y="0">a</tspan></text>
  <text class="cls-1" transform="translate(67.43 46.33) rotate(-35.85)"><tspan x="0" y="0"> </tspan></text>
  <text class="cls-1" transform="translate(68.43 45.61) rotate(-35.16)"><tspan x="0" y="0">t</tspan></text>
  <text class="cls-1" transform="translate(69.38 44.93) rotate(-34.16)"><tspan x="0" y="0">h</tspan></text>
  <text class="cls-1" transform="translate(71.18 43.72) rotate(-32.89)"><tspan x="0" y="0">e</tspan></text>
  <text class="cls-1" transform="translate(73.02 42.53) rotate(-31.55)"><tspan x="0" y="0">o</tspan></text>
  <text class="cls-1" transform="translate(75.06 41.28) rotate(-30.42)"><tspan x="0" y="0">r</tspan></text>
  <text class="cls-1" transform="translate(76.31 40.54) rotate(-29.36)"><tspan x="0" y="0">e</tspan></text>
  <text class="cls-1" transform="translate(78.25 39.45) rotate(-28.38)"><tspan x="0" y="0">t</tspan></text>
  <text class="cls-1" transform="translate(79.21 38.93) rotate(-27.77)"><tspan x="0" y="0">i</tspan></text>
  <text class="cls-1" transform="translate(80.09 38.47) rotate(-26.92)"><tspan x="0" y="0">c</tspan></text>
  <text class="cls-1" transform="translate(81.76 37.61) rotate(-25.68)"><tspan x="0" y="0">a</tspan></text>
  <text class="cls-1" transform="translate(83.92 36.58) rotate(-24.69)"><tspan x="0" y="0">l</tspan></text>
  <text class="cls-1" transform="translate(84.81 36.17) rotate(-24.04)"><tspan x="0" y="0"> </tspan></text>
  <text class="cls-1" transform="translate(85.93 35.67) rotate(-22.96)"><tspan x="0" y="0">2</tspan></text>
  <text class="cls-1" transform="translate(88.16 34.72) rotate(-21.4)"><tspan x="0" y="0">D</tspan></text>
  <text class="cls-1" transform="translate(90.86 33.67) rotate(-20.19)"><tspan x="0" y="0"> </tspan></text>
  <text class="cls-1" transform="translate(92.01 33.24) rotate(-19.18)"><tspan x="0" y="0">e</tspan></text>
  <text class="cls-1" transform="translate(94.1 32.52) rotate(-17.88)"><tspan x="0" y="0">n</tspan></text>
  <text class="cls-1" transform="translate(96.17 31.85) rotate(-16.92)"><tspan x="0" y="0">t</tspan></text>
  <text class="cls-1" transform="translate(97.21 31.54) rotate(-16.31)"><tspan x="0" y="0">i</tspan></text>
  <text class="cls-1" transform="translate(98.16 31.26) rotate(-15.69)"><tspan x="0" y="0">t</tspan></text>
  <text class="cls-1" transform="translate(99.17 30.97) rotate(-14.75)"><tspan x="0" y="0">y</tspan></text>
  <text class="cls-1" transform="translate(101.28 30.42) rotate(-13.74)"><tspan x="0" y="0"> </tspan></text>
  <text class="cls-1" transform="translate(102.45 30.13) rotate(-12.68)"><tspan x="0" y="0">b</tspan></text>
  <text class="cls-1" transform="translate(104.77 29.6) rotate(-11.34)"><tspan x="0" y="0">u</tspan></text>
  <text class="cls-1" transform="translate(106.92 29.18) rotate(-10.36)"><tspan x="0" y="0">t</tspan></text>
  <text class="cls-1" transform="translate(107.97 28.99) rotate(-9.69)"><tspan x="0" y="0"> </tspan></text>
  <text class="cls-1" transform="translate(109.18 28.77) rotate(-8.68)"><tspan x="0" y="0">h</tspan></text>
  <text class="cls-1" transform="translate(111.32 28.45) rotate(-7.33)"><tspan x="0" y="0">a</tspan></text>
  <text class="cls-1" transform="translate(113.67 28.15) rotate(-6.16)"><tspan x="0" y="0">s</tspan></text>
  <text class="cls-1" transform="translate(115.29 27.97) rotate(-5.31)"><tspan x="0" y="0"> </tspan></text>
  <text class="cls-1" transform="translate(116.49 27.86) rotate(-4.48)"><tspan x="0" y="0">s</tspan></text>
  <text class="cls-1" transform="translate(118.11 27.73) rotate(-3.29)"><tspan x="0" y="0">o</tspan></text>
  <text class="cls-1" transform="translate(120.48 27.59) rotate(-1.67)"><tspan x="0" y="0">m</tspan></text>
  <text class="cls-1" transform="translate(123.61 27.5) rotate(-.1)"><tspan x="0" y="0">e</tspan></text>
  <text class="cls-1" transform="translate(125.83 27.5) rotate(.91)"><tspan x="0" y="0"> </tspan></text>
  <text class="cls-1" transform="translate(127.04 27.52) rotate(1.99)"><tspan x="0" y="0">3</tspan></text>
  <text class="cls-1" transform="translate(129.47 27.6) rotate(3.54)"><tspan x="0" y="0">D</tspan></text>
  <text class="cls-1" transform="translate(132.36 27.78) rotate(4.74)"><tspan x="0" y="0"> </tspan></text>
  <text class="cls-1" transform="translate(133.59 27.88) rotate(5.73)"><tspan x="0" y="0">e</tspan></text>
  <text class="cls-1" transform="translate(135.79 28.11) rotate(6.66)"><tspan x="0" y="0">l</tspan></text>
  <text class="cls-1" transform="translate(136.75 28.22) rotate(7.05)"><tspan x="0" y="0">e</tspan></text>
  <text class="cls-1" transform="translate(138.93 28.5) rotate(9.11)"><tspan x="0" y="0">m</tspan></text>
  <text class="cls-1" transform="translate(142.03 29) rotate(10.65)"><tspan x="0" y="0">e</tspan></text>
  <text class="cls-1" transform="translate(144.18 29.41) rotate(11.92)"><tspan x="0" y="0">n</tspan></text>
  <text class="cls-1" transform="translate(146.31 29.86) rotate(12.87)"><tspan x="0" y="0">t</tspan></text>
  <text class="cls-1" transform="translate(147.38 30.1) rotate(13.55)"><tspan x="0" y="0">,</tspan></text>
  <text class="cls-1" transform="translate(148.58 30.39) rotate(14.27)"><tspan x="0" y="0"> </tspan></text>
  <text class="cls-1" transform="translate(149.75 30.68) rotate(15.32)"><tspan x="0" y="0">a</tspan></text>
  <text class="cls-1" transform="translate(152.05 31.32) rotate(16.38)"><tspan x="0" y="0"> </tspan></text>
  <text class="cls-1" transform="translate(153.21 31.66) rotate(17.3)"><tspan x="0" y="0">c</tspan></text>
  <text class="cls-1" transform="translate(155.01 32.22) rotate(18.55)"><tspan x="0" y="0">o</tspan></text>
  <text class="cls-1" transform="translate(157.27 32.98) rotate(19.9)"><tspan x="0" y="0">n</tspan></text>
  <text class="cls-1" transform="translate(159.33 33.72) rotate(21.11)"><tspan x="0" y="0">c</tspan></text>
  <text class="cls-1" transform="translate(161.09 34.4) rotate(22.32)"><tspan x="0" y="0">e</tspan></text>
  <text class="cls-1" transform="translate(163.13 35.24) rotate(23.68)"><tspan x="0" y="0">a</tspan></text>
  <text class="cls-1" transform="translate(165.32 36.2) rotate(24.68)"><tspan x="0" y="0">l</tspan></text>
  <text class="cls-1" transform="translate(166.2 36.6) rotate(25.61)"><tspan x="0" y="0">e</tspan></text>
  <text class="cls-1" transform="translate(168.17 37.55) rotate(26.96)"><tspan x="0" y="0">d</tspan></text>
  <text class="cls-1" transform="translate(170.32 38.64) rotate(28.04)"><tspan x="0" y="0"> </tspan></text>
  <text class="cls-1" transform="translate(171.38 39.2) rotate(29.1)"><tspan x="0" y="0">o</tspan></text>
  <text class="cls-1" transform="translate(173.46 40.36) rotate(30.51)"><tspan x="0" y="0">b</tspan></text>
  <text class="cls-1" transform="translate(175.52 41.58) rotate(31.51)"><tspan x="0" y="0">j</tspan></text>
  <text class="cls-1" transform="translate(176.36 42.09) rotate(32.45)"><tspan x="0" y="0">e</tspan></text>
  <text class="cls-1" transform="translate(178.22 43.28) rotate(33.66)"><tspan x="0" y="0">c</tspan></text>
  <text class="cls-1" transform="translate(179.79 44.32) rotate(34.53)"><tspan x="0" y="0">t</tspan></text>
  <text class="cls-1" transform="translate(180.67 44.93) rotate(35.21)"><tspan x="0" y="0"> </tspan></text>
  <text class="cls-1" transform="translate(181.67 45.63) rotate(35.95)"><tspan x="0" y="0">‘</tspan></text>
  <text class="cls-1" transform="translate(182.72 46.39) rotate(36.97)"><tspan x="0" y="0">u</tspan></text>
  <text class="cls-1" transform="translate(184.45 47.69) rotate(38.25)"><tspan x="0" y="0">n</tspan></text>
  <text class="cls-1" transform="translate(186.16 49.04) rotate(39.59)"><tspan x="0" y="0">d</tspan></text>
  <text class="cls-1" transform="translate(187.98 50.55) rotate(40.92)"><tspan x="0" y="0">e</tspan></text>
  <text class="cls-1" transform="translate(189.65 52) rotate(42.01)"><tspan x="0" y="0">r</tspan></text>
  <text class="cls-1" transform="translate(190.8 53.03) rotate(43.12)"><tspan x="0" y="0">n</tspan></text>
  <text class="cls-1" transform="translate(192.4 54.52) rotate(44.41)"><tspan x="0" y="0">e</tspan></text>
  <text class="cls-1" transform="translate(193.95 56.05) rotate(45.73)"><tspan x="0" y="0">a</tspan></text>
  <text class="cls-1" transform="translate(195.62 57.76) rotate(46.75)"><tspan x="0" y="0">t</tspan></text>
  <text class="cls-1" transform="translate(196.41 58.6) rotate(47.75)"><tspan x="0" y="0">h</tspan></text>
  <text class="cls-1" transform="translate(197.89 60.23) rotate(48.75)"><tspan x="0" y="0">.</tspan></text>
  <text class="cls-1" transform="translate(198.63 61.08) rotate(49.43)"><tspan x="0" y="0">’</tspan></text>
  <text class="cls-1" transform="translate(199.49 62.08) rotate(50.18)"><tspan x="0" y="0"> </tspan></text>
</svg>