<?xml version="1.0" encoding="UTF-8"?>
<svg id="Layer_16" data-name="Layer 16" xmlns="http://www.w3.org/2000/svg" viewBox="0 0 250 250">
  <defs>
    <style>
      .cls-1 {
        fill: #231f20;
        font-family: Futura-Medium, Futura;
        font-size: 3.4px;
        font-weight: 500;
      }
    </style>
  </defs>
  <text class="cls-1" transform="translate(124.98 50) rotate(.93)"><tspan x="0" y="0">I</tspan></text>
  <text class="cls-1" transform="translate(125.97 50) rotate(1.43)"><tspan x="0" y="0">n</tspan></text>
  <text class="cls-1" transform="translate(127.82 50.05) rotate(2.52)"><tspan x="0" y="0"> </tspan></text>
  <text class="cls-1" transform="translate(128.89 50.09) rotate(3.72)"><tspan x="0" y="0">X</tspan></text>
  <text class="cls-1" transform="translate(131.05 50.24) rotate(4.85)"><tspan x="0" y="0">-</tspan></text>
  <text class="cls-1" transform="translate(131.8 50.3) rotate(5.91)"><tspan x="0" y="0">R</tspan></text>
  <text class="cls-1" transform="translate(133.74 50.5) rotate(7.4)"><tspan x="0" y="0">a</tspan></text>
  <text class="cls-1" transform="translate(135.8 50.77) rotate(8.91)"><tspan x="0" y="0">y</tspan></text>
  <text class="cls-1" transform="translate(137.61 51.06) rotate(10.01)"><tspan x="0" y="0"> </tspan></text>
  <text class="cls-1" transform="translate(138.63 51.23) rotate(11.03)"><tspan x="0" y="0">c</tspan></text>
  <text class="cls-1" transform="translate(140.21 51.54) rotate(12.12)"><tspan x="0" y="0">r</tspan></text>
  <text class="cls-1" transform="translate(141.58 51.83) rotate(13.42)"><tspan x="0" y="0">y</tspan></text>
  <text class="cls-1" transform="translate(143.35 52.26) rotate(14.65)"><tspan x="0" y="0">s</tspan></text>
  <text class="cls-1" transform="translate(144.69 52.61) rotate(15.54)"><tspan x="0" y="0">t</tspan></text>
  <text class="cls-1" transform="translate(145.61 52.86) rotate(16.7)"><tspan x="0" y="0">a</tspan></text>
  <text class="cls-1" transform="translate(147.56 53.45) rotate(17.81)"><tspan x="0" y="0">l</tspan></text>
  <text class="cls-1" transform="translate(148.36 53.7) rotate(18.92)"><tspan x="0" y="0">o</tspan></text>
  <text class="cls-1" transform="translate(150.26 54.36) rotate(20.46)"><tspan x="0" y="0">g</tspan></text>
  <text class="cls-1" transform="translate(152.15 55.06) rotate(21.72)"><tspan x="0" y="0">r</tspan></text>
  <text class="cls-1" transform="translate(153.31 55.52) rotate(22.97)"><tspan x="0" y="0">a</tspan></text>
  <text class="cls-1" transform="translate(155.17 56.31) rotate(24.53)"><tspan x="0" y="0">p</tspan></text>
  <text class="cls-1" transform="translate(157.01 57.15) rotate(26.01)"><tspan x="0" y="0">h</tspan></text>
  <text class="cls-1" transform="translate(158.62 57.94) rotate(27.38)"><tspan x="0" y="0">y</tspan></text>
  <text class="cls-1" transform="translate(160.14 58.72) rotate(28.38)"><tspan x="0" y="0">,</tspan></text>
  <text class="cls-1" transform="translate(161.03 59.21) rotate(29.16)"><tspan x="0" y="0"> </tspan></text>
  <text class="cls-1" transform="translate(161.95 59.72) rotate(30.18)"><tspan x="0" y="0">c</tspan></text>
  <text class="cls-1" transform="translate(163.35 60.53) rotate(31.28)"><tspan x="0" y="0">r</tspan></text>
  <text class="cls-1" transform="translate(164.55 61.26) rotate(32.58)"><tspan x="0" y="0">y</tspan></text>
  <text class="cls-1" transform="translate(166.08 62.24) rotate(33.78)"><tspan x="0" y="0">s</tspan></text>
  <text class="cls-1" transform="translate(167.23 63.01) rotate(34.66)"><tspan x="0" y="0">t</tspan></text>
  <text class="cls-1" transform="translate(168 63.54) rotate(35.8)"><tspan x="0" y="0">a</tspan></text>
  <text class="cls-1" transform="translate(169.65 64.73) rotate(36.9)"><tspan x="0" y="0">l</tspan></text>
  <text class="cls-1" transform="translate(170.31 65.23) rotate(37.73)"><tspan x="0" y="0">s</tspan></text>
  <text class="cls-1" transform="translate(171.4 66.07) rotate(38.65)"><tspan x="0" y="0"> </tspan></text>
  <text class="cls-1" transform="translate(172.22 66.73) rotate(39.4)"><tspan x="0" y="0">t</tspan></text>
  <text class="cls-1" transform="translate(172.99 67.35) rotate(40.51)"><tspan x="0" y="0">h</tspan></text>
  <text class="cls-1" transform="translate(174.38 68.54) rotate(41.97)"><tspan x="0" y="0">a</tspan></text>
  <text class="cls-1" transform="translate(175.89 69.91) rotate(43.1)"><tspan x="0" y="0">t</tspan></text>
  <text class="cls-1" transform="translate(176.57 70.54) rotate(43.85)"><tspan x="0" y="0"> </tspan></text>
  <text class="cls-1" transform="translate(177.32 71.26) rotate(44.85)"><tspan x="0" y="0">c</tspan></text>
  <text class="cls-1" transform="translate(178.45 72.38) rotate(46.22)"><tspan x="0" y="0">a</tspan></text>
  <text class="cls-1" transform="translate(179.85 73.84) rotate(47.69)"><tspan x="0" y="0">n</tspan></text>
  <text class="cls-1" transform="translate(181.1 75.23) rotate(48.82)"><tspan x="0" y="0">’</tspan></text>
  <text class="cls-1" transform="translate(181.83 76.06) rotate(49.59)"><tspan x="0" y="0">t</tspan></text>
  <text class="cls-1" transform="translate(182.43 76.76) rotate(50.34)"><tspan x="0" y="0"> </tspan></text>
  <text class="cls-1" transform="translate(183.09 77.55) rotate(51.49)"><tspan x="0" y="0">b</tspan></text>
  <text class="cls-1" transform="translate(184.36 79.15) rotate(52.99)"><tspan x="0" y="0">e</tspan></text>
  <text class="cls-1" transform="translate(185.48 80.63) rotate(54.09)"><tspan x="0" y="0"> </tspan></text>
  <text class="cls-1" transform="translate(186.08 81.46) rotate(55.25)"><tspan x="0" y="0">a</tspan></text>
  <text class="cls-1" transform="translate(187.24 83.13) rotate(56.73)"><tspan x="0" y="0">n</tspan></text>
  <text class="cls-1" transform="translate(188.26 84.69) rotate(58.22)"><tspan x="0" y="0">a</tspan></text>
  <text class="cls-1" transform="translate(189.34 86.43) rotate(59.71)"><tspan x="0" y="0">y</tspan></text>
  <text class="cls-1" transform="translate(190.28 88.04) rotate(60.75)"><tspan x="0" y="0">l</tspan></text>
  <text class="cls-1" transform="translate(190.69 88.76) rotate(61.77)"><tspan x="0" y="0">z</tspan></text>
  <text class="cls-1" transform="translate(191.55 90.37) rotate(63.18)"><tspan x="0" y="0">e</tspan></text>
  <text class="cls-1" transform="translate(192.4 92.05) rotate(64.69)"><tspan x="0" y="0">d</tspan></text>
  <text class="cls-1" transform="translate(193.26 93.89) rotate(65.87)"><tspan x="0" y="0"> </tspan></text>
  <text class="cls-1" transform="translate(193.69 94.82) rotate(67.03)"><tspan x="0" y="0">d</tspan></text>
  <text class="cls-1" transform="translate(194.47 96.68) rotate(68.13)"><tspan x="0" y="0">i</tspan></text>
  <text class="cls-1" transform="translate(194.79 97.47) rotate(68.94)"><tspan x="0" y="0">r</tspan></text>
  <text class="cls-1" transform="translate(195.24 98.63) rotate(70.13)"><tspan x="0" y="0">e</tspan></text>
  <text class="cls-1" transform="translate(195.87 100.37) rotate(71.46)"><tspan x="0" y="0">c</tspan></text>
  <text class="cls-1" transform="translate(196.38 101.9) rotate(72.43)"><tspan x="0" y="0">t</tspan></text>
  <text class="cls-1" transform="translate(196.66 102.79) rotate(73.12)"><tspan x="0" y="0">l</tspan></text>
  <text class="cls-1" transform="translate(196.91 103.61) rotate(74.17)"><tspan x="0" y="0">y</tspan></text>
  <text class="cls-1" transform="translate(197.41 105.39) rotate(75.28)"><tspan x="0" y="0"> </tspan></text>
  <text class="cls-1" transform="translate(197.68 106.39) rotate(76.47)"><tspan x="0" y="0">a</tspan></text>
  <text class="cls-1" transform="translate(198.15 108.35) rotate(77.72)"><tspan x="0" y="0">r</tspan></text>
  <text class="cls-1" transform="translate(198.42 109.57) rotate(78.91)"><tspan x="0" y="0">e</tspan></text>
  <text class="cls-1" transform="translate(198.77 111.38) rotate(80.01)"><tspan x="0" y="0"> </tspan></text>
  <text class="cls-1" transform="translate(198.95 112.43) rotate(80.91)"><tspan x="0" y="0">r</tspan></text>
  <text class="cls-1" transform="translate(199.15 113.62) rotate(82.12)"><tspan x="0" y="0">o</tspan></text>
  <text class="cls-1" transform="translate(199.43 115.66) rotate(83.27)"><tspan x="0" y="0">t</tspan></text>
  <text class="cls-1" transform="translate(199.54 116.61) rotate(84.43)"><tspan x="0" y="0">a</tspan></text>
  <text class="cls-1" transform="translate(199.73 118.62) rotate(85.54)"><tspan x="0" y="0">t</tspan></text>
  <text class="cls-1" transform="translate(199.81 119.57) rotate(86.62)"><tspan x="0" y="0">e</tspan></text>
  <text class="cls-1" transform="translate(199.92 121.44) rotate(88.09)"><tspan x="0" y="0">d</tspan></text>
  <text class="cls-1" transform="translate(199.98 123.45) rotate(89.07)"><tspan x="0" y="0"> </tspan></text>
  <text class="cls-1" transform="translate(200.01 124.5) rotate(90.93)"><tspan x="0" y="0">a</tspan></text>
  <text class="cls-1" transform="translate(199.99 126.52) rotate(91.84)"><tspan x="0" y="0">n</tspan></text>
  <text class="cls-1" transform="translate(199.93 128.35) rotate(93.29)"><tspan x="0" y="0">d</tspan></text>
  <text class="cls-1" transform="translate(199.81 130.4) rotate(94.46)"><tspan x="0" y="0"> </tspan></text>
  <text class="cls-1" transform="translate(199.73 131.42) rotate(95.37)"><tspan x="0" y="0">s</tspan></text>
  <text class="cls-1" transform="translate(199.61 132.77) rotate(96.59)"><tspan x="0" y="0">n</tspan></text>
  <text class="cls-1" transform="translate(199.4 134.63) rotate(98.08)"><tspan x="0" y="0">a</tspan></text>
  <text class="cls-1" transform="translate(199.11 136.64) rotate(99.63)"><tspan x="0" y="0">p</tspan></text>
  <text class="cls-1" transform="translate(198.77 138.64) rotate(100.94)"><tspan x="0" y="0">s</tspan></text>
  <text class="cls-1" transform="translate(198.51 139.98) rotate(102.17)"><tspan x="0" y="0">h</tspan></text>
  <text class="cls-1" transform="translate(198.13 141.77) rotate(103.65)"><tspan x="0" y="0">o</tspan></text>
  <text class="cls-1" transform="translate(197.63 143.77) rotate(104.81)"><tspan x="0" y="0">t</tspan></text>
  <text class="cls-1" transform="translate(197.4 144.65) rotate(105.68)"><tspan x="0" y="0">s</tspan></text>
  <text class="cls-1" transform="translate(197.03 145.97) rotate(106.61)"><tspan x="0" y="0"> </tspan></text>
  <text class="cls-1" transform="translate(196.74 146.96) rotate(107.79)"><tspan x="0" y="0">a</tspan></text>
  <text class="cls-1" transform="translate(196.12 148.89) rotate(109.05)"><tspan x="0" y="0">r</tspan></text>
  <text class="cls-1" transform="translate(195.72 150.07) rotate(110.25)"><tspan x="0" y="0">e</tspan></text>
  <text class="cls-1" transform="translate(195.06 151.83) rotate(111.37)"><tspan x="0" y="0"> </tspan></text>
  <text class="cls-1" transform="translate(194.69 152.79) rotate(112.12)"><tspan x="0" y="0">t</tspan></text>
  <text class="cls-1" transform="translate(194.33 153.68) rotate(113.28)"><tspan x="0" y="0">a</tspan></text>
  <text class="cls-1" transform="translate(193.53 155.54) rotate(114.7)"><tspan x="0" y="0">k</tspan></text>
  <text class="cls-1" transform="translate(192.85 157) rotate(116.01)"><tspan x="0" y="0">e</tspan></text>
  <text class="cls-1" transform="translate(192.04 158.67) rotate(117.43)"><tspan x="0" y="0">n</tspan></text>
  <text class="cls-1" transform="translate(191.18 160.31) rotate(118.54)"><tspan x="0" y="0"> </tspan></text>
  <text class="cls-1" transform="translate(190.68 161.25) rotate(119.73)"><tspan x="0" y="0">o</tspan></text>
  <text class="cls-1" transform="translate(189.68 163) rotate(120.88)"><tspan x="0" y="0">f</tspan></text>
  <text class="cls-1" transform="translate(189.17 163.85) rotate(121.65)"><tspan x="0" y="0"> </tspan></text>
  <text class="cls-1" transform="translate(188.62 164.75) rotate(122.41)"><tspan x="0" y="0">t</tspan></text>
  <text class="cls-1" transform="translate(188.1 165.57) rotate(123.51)"><tspan x="0" y="0">h</tspan></text>
  <text class="cls-1" transform="translate(187.07 167.12) rotate(124.93)"><tspan x="0" y="0">e</tspan></text>
  <text class="cls-1" transform="translate(186 168.65) rotate(125.96)"><tspan x="0" y="0">i</tspan></text>
  <text class="cls-1" transform="translate(185.51 169.32) rotate(126.75)"><tspan x="0" y="0">r</tspan></text>
  <text class="cls-1" transform="translate(184.76 170.33) rotate(127.63)"><tspan x="0" y="0"> </tspan></text>
  <text class="cls-1" transform="translate(184.12 171.16) rotate(128.55)"><tspan x="0" y="0">s</tspan></text>
  <text class="cls-1" transform="translate(183.27 172.23) rotate(129.77)"><tspan x="0" y="0">h</tspan></text>
  <text class="cls-1" transform="translate(182.09 173.65) rotate(131.24)"><tspan x="0" y="0">a</tspan></text>
  <text class="cls-1" transform="translate(180.75 175.18) rotate(132.78)"><tspan x="0" y="0">d</tspan></text>
  <text class="cls-1" transform="translate(179.38 176.66) rotate(134.32)"><tspan x="0" y="0">o</tspan></text>
  <text class="cls-1" transform="translate(178.02 178.06) rotate(136.03)"><tspan x="0" y="0">w</tspan></text>
  <text class="cls-1" transform="translate(176.25 179.76) rotate(137.29)"><tspan x="0" y="0">.</tspan></text>
  <text class="cls-1" transform="translate(175.48 180.47) rotate(138.08)"><tspan x="0" y="0"> </tspan></text>
  <text class="cls-1" transform="translate(174.71 181.16) rotate(139.12)"><tspan x="0" y="0">F</tspan></text>
  <text class="cls-1" transform="translate(173.43 182.27) rotate(140.23)"><tspan x="0" y="0">r</tspan></text>
  <text class="cls-1" transform="translate(172.5 183.05) rotate(141.45)"><tspan x="0" y="0">o</tspan></text>
  <text class="cls-1" transform="translate(170.93 184.31) rotate(143.23)"><tspan x="0" y="0">m</tspan></text>
  <text class="cls-1" transform="translate(168.77 185.91) rotate(144.65)"><tspan x="0" y="0"> </tspan></text>
  <text class="cls-1" transform="translate(167.92 186.52) rotate(145.83)"><tspan x="0" y="0">p</tspan></text>
  <text class="cls-1" transform="translate(166.25 187.65) rotate(146.91)"><tspan x="0" y="0">i</tspan></text>
  <text class="cls-1" transform="translate(165.55 188.11) rotate(147.94)"><tspan x="0" y="0">e</tspan></text>
  <text class="cls-1" transform="translate(163.96 189.1) rotate(149.28)"><tspan x="0" y="0">c</tspan></text>
  <text class="cls-1" transform="translate(162.58 189.92) rotate(150.21)"><tspan x="0" y="0">i</tspan></text>
  <text class="cls-1" transform="translate(161.86 190.34) rotate(151.23)"><tspan x="0" y="0">n</tspan></text>
  <text class="cls-1" transform="translate(160.25 191.22) rotate(152.71)"><tspan x="0" y="0">g</tspan></text>
  <text class="cls-1" transform="translate(158.45 192.15) rotate(153.88)"><tspan x="0" y="0"> </tspan></text>
  <text class="cls-1" transform="translate(157.5 192.61) rotate(154.64)"><tspan x="0" y="0">t</tspan></text>
  <text class="cls-1" transform="translate(156.67 193.01) rotate(155.78)"><tspan x="0" y="0">o</tspan></text>
  <text class="cls-1" transform="translate(154.82 193.85) rotate(157.34)"><tspan x="0" y="0">g</tspan></text>
  <text class="cls-1" transform="translate(152.95 194.62) rotate(158.83)"><tspan x="0" y="0">e</tspan></text>
  <text class="cls-1" transform="translate(151.17 195.31) rotate(159.93)"><tspan x="0" y="0">t</tspan></text>
  <text class="cls-1" transform="translate(150.23 195.65) rotate(161.06)"><tspan x="0" y="0">h</tspan></text>
  <text class="cls-1" transform="translate(148.5 196.25) rotate(162.48)"><tspan x="0" y="0">e</tspan></text>
  <text class="cls-1" transform="translate(146.72 196.81) rotate(163.68)"><tspan x="0" y="0">r</tspan></text>
  <text class="cls-1" transform="translate(145.51 197.16) rotate(164.57)"><tspan x="0" y="0"> </tspan></text>
  <text class="cls-1" transform="translate(144.5 197.44) rotate(165.33)"><tspan x="0" y="0">t</tspan></text>
  <text class="cls-1" transform="translate(143.55 197.69) rotate(166.44)"><tspan x="0" y="0">h</tspan></text>
  <text class="cls-1" transform="translate(141.75 198.13) rotate(167.87)"><tspan x="0" y="0">e</tspan></text>
  <text class="cls-1" transform="translate(139.91 198.52) rotate(169)"><tspan x="0" y="0"> </tspan></text>
  <text class="cls-1" transform="translate(138.9 198.72) rotate(170.16)"><tspan x="0" y="0">a</tspan></text>
  <text class="cls-1" transform="translate(136.9 199.07) rotate(171.72)"><tspan x="0" y="0">b</tspan></text>
  <text class="cls-1" transform="translate(134.91 199.35) rotate(173)"><tspan x="0" y="0">s</tspan></text>
  <text class="cls-1" transform="translate(133.54 199.52) rotate(173.88)"><tspan x="0" y="0">t</tspan></text>
  <text class="cls-1" transform="translate(132.62 199.62) rotate(174.72)"><tspan x="0" y="0">r</tspan></text>
  <text class="cls-1" transform="translate(131.4 199.74) rotate(175.94)"><tspan x="0" y="0">a</tspan></text>
  <text class="cls-1" transform="translate(129.37 199.88) rotate(177.33)"><tspan x="0" y="0">c</tspan></text>
  <text class="cls-1" transform="translate(127.76 199.95) rotate(178.28)"><tspan x="0" y="0">t</tspan></text>
  <text class="cls-1" transform="translate(126.82 199.98) rotate(179.07)"><tspan x="0" y="0">e</tspan></text>
  <text class="cls-1" transform="translate(124.96 200.01) rotate(-179.07)"><tspan x="0" y="0">d</tspan></text>
  <text class="cls-1" transform="translate(122.92 199.97) rotate(-178.05)"><tspan x="0" y="0"> </tspan></text>
  <text class="cls-1" transform="translate(121.89 199.94) rotate(-176.89)"><tspan x="0" y="0">o</tspan></text>
  <text class="cls-1" transform="translate(119.85 199.83) rotate(-175.42)"><tspan x="0" y="0">u</tspan></text>
  <text class="cls-1" transform="translate(118.03 199.68) rotate(-174.38)"><tspan x="0" y="0">t</tspan></text>
  <text class="cls-1" transform="translate(117.1 199.59) rotate(-173.7)"><tspan x="0" y="0">l</tspan></text>
  <text class="cls-1" transform="translate(116.28 199.5) rotate(-173.07)"><tspan x="0" y="0">i</tspan></text>
  <text class="cls-1" transform="translate(115.43 199.4) rotate(-172.03)"><tspan x="0" y="0">n</tspan></text>
  <text class="cls-1" transform="translate(113.6 199.14) rotate(-170.61)"><tspan x="0" y="0">e</tspan></text>
  <text class="cls-1" transform="translate(111.77 198.84) rotate(-169.38)"><tspan x="0" y="0">s</tspan></text>
  <text class="cls-1" transform="translate(110.43 198.59) rotate(-168.46)"><tspan x="0" y="0">,</tspan></text>
  <text class="cls-1" transform="translate(109.4 198.38) rotate(-167.65)"><tspan x="0" y="0"> </tspan></text>
  <text class="cls-1" transform="translate(108.38 198.16) rotate(-166.53)"><tspan x="0" y="0">e</tspan></text>
  <text class="cls-1" transform="translate(106.63 197.74) rotate(-165.21)"><tspan x="0" y="0">v</tspan></text>
  <text class="cls-1" transform="translate(105.04 197.32) rotate(-163.88)"><tspan x="0" y="0">e</tspan></text>
  <text class="cls-1" transform="translate(103.26 196.8) rotate(-162.46)"><tspan x="0" y="0">n</tspan></text>
  <text class="cls-1" transform="translate(101.49 196.24) rotate(-161.39)"><tspan x="0" y="0">t</tspan></text>
  <text class="cls-1" transform="translate(100.62 195.95) rotate(-160.33)"><tspan x="0" y="0">u</tspan></text>
  <text class="cls-1" transform="translate(98.88 195.33) rotate(-158.83)"><tspan x="0" y="0">a</tspan></text>
  <text class="cls-1" transform="translate(96.99 194.59) rotate(-157.73)"><tspan x="0" y="0">l</tspan></text>
  <text class="cls-1" transform="translate(96.22 194.28) rotate(-157.09)"><tspan x="0" y="0">l</tspan></text>
  <text class="cls-1" transform="translate(95.42 193.95) rotate(-156.04)"><tspan x="0" y="0">y</tspan></text>
  <text class="cls-1" transform="translate(93.76 193.2) rotate(-154.95)"><tspan x="0" y="0"> </tspan></text>
  <text class="cls-1" transform="translate(92.81 192.77) rotate(-153.77)"><tspan x="0" y="0">o</tspan></text>
  <text class="cls-1" transform="translate(90.98 191.86) rotate(-152.27)"><tspan x="0" y="0">n</tspan></text>
  <text class="cls-1" transform="translate(89.35 191.01) rotate(-150.86)"><tspan x="0" y="0">e</tspan></text>
  <text class="cls-1" transform="translate(87.73 190.1) rotate(-149.75)"><tspan x="0" y="0"> </tspan></text>
  <text class="cls-1" transform="translate(86.83 189.58) rotate(-148.74)"><tspan x="0" y="0">c</tspan></text>
  <text class="cls-1" transform="translate(85.43 188.73) rotate(-147.34)"><tspan x="0" y="0">a</tspan></text>
  <text class="cls-1" transform="translate(83.75 187.65) rotate(-145.87)"><tspan x="0" y="0">n</tspan></text>
  <text class="cls-1" transform="translate(82.22 186.61) rotate(-144.78)"><tspan x="0" y="0"> </tspan></text>
  <text class="cls-1" transform="translate(81.36 186.01) rotate(-143.66)"><tspan x="0" y="0">e</tspan></text>
  <text class="cls-1" transform="translate(79.91 184.95) rotate(-142.29)"><tspan x="0" y="0">x</tspan></text>
  <text class="cls-1" transform="translate(78.42 183.79) rotate(-141.22)"><tspan x="0" y="0">t</tspan></text>
  <text class="cls-1" transform="translate(77.7 183.21) rotate(-140.38)"><tspan x="0" y="0">r</tspan></text>
  <text class="cls-1" transform="translate(76.75 182.43) rotate(-139.16)"><tspan x="0" y="0">a</tspan></text>
  <text class="cls-1" transform="translate(75.22 181.11) rotate(-137.63)"><tspan x="0" y="0">p</tspan></text>
  <text class="cls-1" transform="translate(73.73 179.75) rotate(-136.09)"><tspan x="0" y="0">o</tspan></text>
  <text class="cls-1" transform="translate(72.27 178.33) rotate(-135)"><tspan x="0" y="0">l</tspan></text>
  <text class="cls-1" transform="translate(71.67 177.74) rotate(-133.91)"><tspan x="0" y="0">a</tspan></text>
  <text class="cls-1" transform="translate(70.25 176.27) rotate(-132.78)"><tspan x="0" y="0">t</tspan></text>
  <text class="cls-1" transform="translate(69.62 175.59) rotate(-131.71)"><tspan x="0" y="0">e</tspan></text>
  <text class="cls-1" transform="translate(68.37 174.18) rotate(-130.6)"><tspan x="0" y="0"> </tspan></text>
  <text class="cls-1" transform="translate(67.69 173.39) rotate(-129.85)"><tspan x="0" y="0">t</tspan></text>
  <text class="cls-1" transform="translate(67.07 172.65) rotate(-128.76)"><tspan x="0" y="0">h</tspan></text>
  <text class="cls-1" transform="translate(65.91 171.21) rotate(-127.35)"><tspan x="0" y="0">e</tspan></text>
  <text class="cls-1" transform="translate(64.77 169.71) rotate(-126.23)"><tspan x="0" y="0"> </tspan></text>
  <text class="cls-1" transform="translate(64.15 168.86) rotate(-125.48)"><tspan x="0" y="0">t</tspan></text>
  <text class="cls-1" transform="translate(63.59 168.07) rotate(-124.39)"><tspan x="0" y="0">h</tspan></text>
  <text class="cls-1" transform="translate(62.54 166.54) rotate(-122.97)"><tspan x="0" y="0">e</tspan></text>
  <text class="cls-1" transform="translate(61.52 164.96) rotate(-121.85)"><tspan x="0" y="0"> </tspan></text>
  <text class="cls-1" transform="translate(60.98 164.09) rotate(-120.94)"><tspan x="0" y="0">s</tspan></text>
  <text class="cls-1" transform="translate(60.27 162.92) rotate(-119.71)"><tspan x="0" y="0">h</tspan></text>
  <text class="cls-1" transform="translate(59.34 161.3) rotate(-118.21)"><tspan x="0" y="0">a</tspan></text>
  <text class="cls-1" transform="translate(58.39 159.52) rotate(-116.67)"><tspan x="0" y="0">p</tspan></text>
  <text class="cls-1" transform="translate(57.49 157.72) rotate(-115.18)"><tspan x="0" y="0">e</tspan></text>
  <text class="cls-1" transform="translate(56.7 156.03) rotate(-114.07)"><tspan x="0" y="0"> </tspan></text>
  <text class="cls-1" transform="translate(56.27 155.08) rotate(-112.89)"><tspan x="0" y="0">o</tspan></text>
  <text class="cls-1" transform="translate(55.48 153.21) rotate(-111.72)"><tspan x="0" y="0">f</tspan></text>
  <text class="cls-1" transform="translate(55.11 152.27) rotate(-110.93)"><tspan x="0" y="0"> </tspan></text>
  <text class="cls-1" transform="translate(54.74 151.3) rotate(-110.18)"><tspan x="0" y="0">t</tspan></text>
  <text class="cls-1" transform="translate(54.39 150.37) rotate(-109.05)"><tspan x="0" y="0">h</tspan></text>
  <text class="cls-1" transform="translate(53.79 148.64) rotate(-107.63)"><tspan x="0" y="0">e</tspan></text>
  <text class="cls-1" transform="translate(53.23 146.87) rotate(-106.52)"><tspan x="0" y="0"> </tspan></text>
  <text class="cls-1" transform="translate(52.94 145.86) rotate(-105.59)"><tspan x="0" y="0">s</tspan></text>
  <text class="cls-1" transform="translate(52.56 144.53) rotate(-104.34)"><tspan x="0" y="0">u</tspan></text>
  <text class="cls-1" transform="translate(52.11 142.76) rotate(-102.87)"><tspan x="0" y="0">b</tspan></text>
  <text class="cls-1" transform="translate(51.66 140.79) rotate(-101.57)"><tspan x="0" y="0">s</tspan></text>
  <text class="cls-1" transform="translate(51.39 139.45) rotate(-100.69)"><tspan x="0" y="0">t</tspan></text>
  <text class="cls-1" transform="translate(51.2 138.5) rotate(-99.52)"><tspan x="0" y="0">a</tspan></text>
  <text class="cls-1" transform="translate(50.87 136.53) rotate(-98.06)"><tspan x="0" y="0">n</tspan></text>
  <text class="cls-1" transform="translate(50.61 134.68) rotate(-96.73)"><tspan x="0" y="0">c</tspan></text>
  <text class="cls-1" transform="translate(50.43 133.1) rotate(-95.42)"><tspan x="0" y="0">e</tspan></text>
  <text class="cls-1" transform="translate(50.25 131.24) rotate(-94.31)"><tspan x="0" y="0"> </tspan></text>
  <text class="cls-1" transform="translate(50.17 130.18) rotate(-93.58)"><tspan x="0" y="0">i</tspan></text>
  <text class="cls-1" transform="translate(50.12 129.35) rotate(-92.93)"><tspan x="0" y="0">t</tspan></text>
  <text class="cls-1" transform="translate(50.07 128.44) rotate(-92.06)"><tspan x="0" y="0">s</tspan></text>
  <text class="cls-1" transform="translate(50.02 127.06) rotate(-90.93)"><tspan x="0" y="0">e</tspan></text>
  <text class="cls-1" transform="translate(49.99 125.21) rotate(-89.07)"><tspan x="0" y="0">l</tspan><tspan x=".86" y="0">f</tspan></text>
  <text class="cls-1" transform="translate(50.01 123.35) rotate(-88.37)"><tspan x="0" y="0">.</tspan></text>
</svg>