<?xml version="1.0" encoding="UTF-8"?>
<svg id="Layer_6" data-name="Layer 6" xmlns="http://www.w3.org/2000/svg" viewBox="0 0 250 250">
  <defs>
    <style>
      .cls-1 {
        fill: #231f20;
        font-family: Futura-Medium, Futura;
        font-size: 2.4px;
        font-weight: 500;
      }
    </style>
  </defs>
  <text class="cls-1" transform="translate(141.93 158.43) rotate(154.76)"><tspan x="0" y="0">O</tspan></text>
  <text class="cls-1" transform="translate(140.01 159.32) rotate(157.43)"><tspan x="0" y="0">p</tspan></text>
  <text class="cls-1" transform="translate(138.69 159.87) rotate(159.51)"><tspan x="0" y="0">e</tspan></text>
  <text class="cls-1" transform="translate(137.47 160.33) rotate(161.5)"><tspan x="0" y="0">n</tspan></text>
  <text class="cls-1" transform="translate(136.21 160.74) rotate(162.99)"><tspan x="0" y="0">i</tspan></text>
  <text class="cls-1" transform="translate(135.65 160.92) rotate(164.43)"><tspan x="0" y="0">n</tspan></text>
  <text class="cls-1" transform="translate(134.39 161.27) rotate(166.53)"><tspan x="0" y="0">g</tspan></text>
  <text class="cls-1" transform="translate(133.01 161.6) rotate(168.18)"><tspan x="0" y="0"> </tspan></text>
  <text class="cls-1" transform="translate(132.3 161.75) rotate(169.74)"><tspan x="0" y="0">u</tspan></text>
  <text class="cls-1" transform="translate(131.03 161.98) rotate(171.83)"><tspan x="0" y="0">p</tspan></text>
  <text class="cls-1" transform="translate(129.63 162.18) rotate(173.46)"><tspan x="0" y="0"> </tspan></text>
  <text class="cls-1" transform="translate(128.9 162.27) rotate(175.13)"><tspan x="0" y="0">a</tspan></text>
  <text class="cls-1" transform="translate(127.47 162.39) rotate(177.24)"><tspan x="0" y="0">n</tspan></text>
  <text class="cls-1" transform="translate(126.16 162.45) rotate(178.81)"><tspan x="0" y="0"> </tspan></text>
  <text class="cls-1" transform="translate(125.43 162.47) rotate(-179.53)"><tspan x="0" y="0">o</tspan></text>
  <text class="cls-1" transform="translate(124.06 162.45) rotate(-177.53)"><tspan x="0" y="0">y</tspan></text>
  <text class="cls-1" transform="translate(122.76 162.4) rotate(-175.8)"><tspan x="0" y="0">s</tspan></text>
  <text class="cls-1" transform="translate(121.81 162.33) rotate(-174.59)"><tspan x="0" y="0">t</tspan></text>
  <text class="cls-1" transform="translate(121.14 162.27) rotate(-173.04)"><tspan x="0" y="0">e</tspan></text>
  <text class="cls-1" transform="translate(119.83 162.1) rotate(-171.37)"><tspan x="0" y="0">r</tspan></text>
  <text class="cls-1" transform="translate(118.97 161.97) rotate(-170.16)"><tspan x="0" y="0"> </tspan></text>
  <text class="cls-1" transform="translate(118.24 161.85) rotate(-169.09)"><tspan x="0" y="0">t</tspan></text>
  <text class="cls-1" transform="translate(117.6 161.73) rotate(-167.51)"><tspan x="0" y="0">o</tspan></text>
  <text class="cls-1" transform="translate(116.19 161.41) rotate(-165.84)"><tspan x="0" y="0"> </tspan></text>
  <text class="cls-1" transform="translate(115.47 161.23) rotate(-164.6)"><tspan x="0" y="0">r</tspan></text>
  <text class="cls-1" transform="translate(114.65 161.01) rotate(-162.98)"><tspan x="0" y="0">e</tspan></text>
  <text class="cls-1" transform="translate(113.36 160.61) rotate(-161.44)"><tspan x="0" y="0">t</tspan></text>
  <text class="cls-1" transform="translate(112.76 160.41) rotate(-160.29)"><tspan x="0" y="0">r</tspan></text>
  <text class="cls-1" transform="translate(111.87 160.09) rotate(-159.09)"><tspan x="0" y="0">i</tspan></text>
  <text class="cls-1" transform="translate(111.32 159.88) rotate(-157.64)"><tspan x="0" y="0">e</tspan></text>
  <text class="cls-1" transform="translate(110.15 159.4) rotate(-155.8)"><tspan x="0" y="0">v</tspan></text>
  <text class="cls-1" transform="translate(109.09 158.93) rotate(-153.96)"><tspan x="0" y="0">e</tspan></text>
  <text class="cls-1" transform="translate(107.92 158.35) rotate(-152.41)"><tspan x="0" y="0"> </tspan></text>
  <text class="cls-1" transform="translate(107.26 158) rotate(-151.34)"><tspan x="0" y="0">t</tspan></text>
  <text class="cls-1" transform="translate(106.65 157.68) rotate(-149.79)"><tspan x="0" y="0">h</tspan></text>
  <text class="cls-1" transform="translate(105.54 157.03) rotate(-147.81)"><tspan x="0" y="0">e</tspan></text>
  <text class="cls-1" transform="translate(104.43 156.33) rotate(-146.25)"><tspan x="0" y="0"> </tspan></text>
  <text class="cls-1" transform="translate(103.8 155.91) rotate(-145.21)"><tspan x="0" y="0">i</tspan></text>
  <text class="cls-1" transform="translate(103.33 155.58) rotate(-143.77)"><tspan x="0" y="0">n</tspan></text>
  <text class="cls-1" transform="translate(102.27 154.81) rotate(-141.77)"><tspan x="0" y="0">n</tspan></text>
  <text class="cls-1" transform="translate(101.25 154) rotate(-139.75)"><tspan x="0" y="0">e</tspan></text>
  <text class="cls-1" transform="translate(100.25 153.16) rotate(-138.08)"><tspan x="0" y="0">r</tspan></text>
  <text class="cls-1" transform="translate(99.58 152.55) rotate(-136.8)"><tspan x="0" y="0"> </tspan></text>
  <text class="cls-1" transform="translate(99.05 152.07) rotate(-135.17)"><tspan x="0" y="0">p</tspan></text>
  <text class="cls-1" transform="translate(98.04 151.05) rotate(-133.04)"><tspan x="0" y="0">e</tspan></text>
  <text class="cls-1" transform="translate(97.14 150.1) rotate(-130.94)"><tspan x="0" y="0">a</tspan></text>
  <text class="cls-1" transform="translate(96.21 149.01) rotate(-129.15)"><tspan x="0" y="0">r</tspan></text>
  <text class="cls-1" transform="translate(95.63 148.31) rotate(-127.99)"><tspan x="0" y="0">l</tspan></text>
  <text class="cls-1" transform="translate(95.26 147.83) rotate(-126.95)"><tspan x="0" y="0"> </tspan></text>
  <text class="cls-1" transform="translate(94.83 147.26) rotate(-125.92)"><tspan x="0" y="0">t</tspan></text>
  <text class="cls-1" transform="translate(94.45 146.74) rotate(-124.43)"><tspan x="0" y="0">y</tspan></text>
  <text class="cls-1" transform="translate(93.71 145.67) rotate(-122.35)"><tspan x="0" y="0">p</tspan></text>
  <text class="cls-1" transform="translate(92.95 144.45) rotate(-120.82)"><tspan x="0" y="0">i</tspan></text>
  <text class="cls-1" transform="translate(92.64 143.94) rotate(-119.5)"><tspan x="0" y="0">c</tspan></text>
  <text class="cls-1" transform="translate(92.09 142.97) rotate(-117.75)"><tspan x="0" y="0">a</tspan></text>
  <text class="cls-1" transform="translate(91.44 141.71) rotate(-115.9)"><tspan x="0" y="0">l</tspan></text>
  <text class="cls-1" transform="translate(91.17 141.17) rotate(-115.19)"><tspan x="0" y="0">l</tspan></text>
  <text class="cls-1" transform="translate(90.91 140.62) rotate(-113.74)"><tspan x="0" y="0">y</tspan></text>
  <text class="cls-1" transform="translate(90.39 139.43) rotate(-112.21)"><tspan x="0" y="0"> </tspan></text>
  <text class="cls-1" transform="translate(90.12 138.77) rotate(-110.67)"><tspan x="0" y="0">e</tspan></text>
  <text class="cls-1" transform="translate(89.65 137.54) rotate(-108.68)"><tspan x="0" y="0">n</tspan></text>
  <text class="cls-1" transform="translate(89.23 136.29) rotate(-106.56)"><tspan x="0" y="0">d</tspan></text>
  <text class="cls-1" transform="translate(88.82 134.92) rotate(-104.72)"><tspan x="0" y="0">s</tspan></text>
  <text class="cls-1" transform="translate(88.58 133.99) rotate(-103.43)"><tspan x="0" y="0"> </tspan></text>
  <text class="cls-1" transform="translate(88.41 133.27) rotate(-102.4)"><tspan x="0" y="0">i</tspan></text>
  <text class="cls-1" transform="translate(88.28 132.72) rotate(-100.97)"><tspan x="0" y="0">n</tspan></text>
  <text class="cls-1" transform="translate(88.04 131.42) rotate(-99.37)"><tspan x="0" y="0"> </tspan></text>
  <text class="cls-1" transform="translate(87.92 130.69) rotate(-98.31)"><tspan x="0" y="0">t</tspan></text>
  <text class="cls-1" transform="translate(87.81 130.03) rotate(-96.76)"><tspan x="0" y="0">h</tspan></text>
  <text class="cls-1" transform="translate(87.66 128.72) rotate(-94.73)"><tspan x="0" y="0">e</tspan></text>
  <text class="cls-1" transform="translate(87.55 127.41) rotate(-93.15)"><tspan x="0" y="0"> </tspan></text>
  <text class="cls-1" transform="translate(87.51 126.7) rotate(-91.54)"><tspan x="0" y="0">d</tspan></text>
  <text class="cls-1" transform="translate(87.47 125.26) rotate(-89.4)"><tspan x="0" y="0">e</tspan></text>
  <text class="cls-1" transform="translate(87.49 123.95) rotate(-87.32)"><tspan x="0" y="0">a</tspan></text>
  <text class="cls-1" transform="translate(87.55 122.54) rotate(-85.16)"><tspan x="0" y="0">a</tspan></text>
  <text class="cls-1" transform="translate(87.68 121.11) rotate(-83.56)"><tspan x="0" y="0">t</tspan></text>
  <text class="cls-1" transform="translate(87.75 120.42) rotate(-82.01)"><tspan x="0" y="0">h</tspan></text>
  <text class="cls-1" transform="translate(87.94 119.14) rotate(-80.46)"><tspan x="0" y="0"> </tspan></text>
  <text class="cls-1" transform="translate(88.06 118.4) rotate(-78.79)"><tspan x="0" y="0">o</tspan></text>
  <text class="cls-1" transform="translate(88.34 116.99) rotate(-77.16)"><tspan x="0" y="0">f</tspan></text>
  <text class="cls-1" transform="translate(88.49 116.32) rotate(-76.1)"><tspan x="0" y="0"> </tspan></text>
  <text class="cls-1" transform="translate(88.67 115.6) rotate(-75.03)"><tspan x="0" y="0">t</tspan></text>
  <text class="cls-1" transform="translate(88.84 114.93) rotate(-73.49)"><tspan x="0" y="0">h</tspan></text>
  <text class="cls-1" transform="translate(89.22 113.67) rotate(-71.48)"><tspan x="0" y="0">e</tspan></text>
  <text class="cls-1" transform="translate(89.64 112.44) rotate(-69.95)"><tspan x="0" y="0"> </tspan></text>
  <text class="cls-1" transform="translate(89.88 111.76) rotate(-68.33)"><tspan x="0" y="0">o</tspan></text>
  <text class="cls-1" transform="translate(90.39 110.47) rotate(-66.32)"><tspan x="0" y="0">y</tspan></text>
  <text class="cls-1" transform="translate(90.91 109.29) rotate(-64.6)"><tspan x="0" y="0">s</tspan></text>
  <text class="cls-1" transform="translate(91.33 108.41) rotate(-63.36)"><tspan x="0" y="0">t</tspan></text>
  <text class="cls-1" transform="translate(91.62 107.82) rotate(-61.85)"><tspan x="0" y="0">e</tspan></text>
  <text class="cls-1" transform="translate(92.24 106.66) rotate(-60.18)"><tspan x="0" y="0">r</tspan></text>
  <text class="cls-1" transform="translate(92.62 106.01) rotate(-59.15)"><tspan x="0" y="0">.</tspan></text>
  <text class="cls-1" transform="translate(92.99 105.38) rotate(-58.02)"><tspan x="0" y="0"> </tspan></text>
  <text class="cls-1" transform="translate(93.38 104.76) rotate(-56.6)"><tspan x="0" y="0">T</tspan></text>
  <text class="cls-1" transform="translate(94.02 103.78) rotate(-54.69)"><tspan x="0" y="0">h</tspan></text>
  <text class="cls-1" transform="translate(94.77 102.72) rotate(-52.69)"><tspan x="0" y="0">e</tspan></text>
  <text class="cls-1" transform="translate(95.57 101.68) rotate(-51.11)"><tspan x="0" y="0"> </tspan></text>
  <text class="cls-1" transform="translate(96.02 101.12) rotate(-49.88)"><tspan x="0" y="0">r</tspan></text>
  <text class="cls-1" transform="translate(96.58 100.45) rotate(-48.21)"><tspan x="0" y="0">e</tspan></text>
  <text class="cls-1" transform="translate(97.47 99.46) rotate(-46.45)"><tspan x="0" y="0">s</tspan></text>
  <text class="cls-1" transform="translate(98.12 98.77) rotate(-44.73)"><tspan x="0" y="0">u</tspan></text>
  <text class="cls-1" transform="translate(99.05 97.85) rotate(-43.26)"><tspan x="0" y="0">l</tspan></text>
  <text class="cls-1" transform="translate(99.47 97.46) rotate(-42.33)"><tspan x="0" y="0">t</tspan></text>
  <text class="cls-1" transform="translate(99.97 97.01) rotate(-41.34)"><tspan x="0" y="0">i</tspan></text>
  <text class="cls-1" transform="translate(100.39 96.63) rotate(-39.91)"><tspan x="0" y="0">n</tspan></text>
  <text class="cls-1" transform="translate(101.39 95.79) rotate(-37.81)"><tspan x="0" y="0">g</tspan></text>
  <text class="cls-1" transform="translate(102.53 94.91) rotate(-36.14)"><tspan x="0" y="0"> </tspan></text>
  <text class="cls-1" transform="translate(103.11 94.49) rotate(-35.06)"><tspan x="0" y="0">f</tspan></text>
  <text class="cls-1" transform="translate(103.71 94.06) rotate(-34.03)"><tspan x="0" y="0">l</tspan></text>
  <text class="cls-1" transform="translate(104.2 93.73) rotate(-32.49)"><tspan x="0" y="0">a</tspan></text>
  <text class="cls-1" transform="translate(105.44 92.94) rotate(-30.36)"><tspan x="0" y="0">y</tspan></text>
  <text class="cls-1" transform="translate(106.51 92.31) rotate(-28.46)"><tspan x="0" y="0">e</tspan></text>
  <text class="cls-1" transform="translate(107.66 91.68) rotate(-25.9)"><tspan x="0" y="0">d</tspan></text>
  <text class="cls-1" transform="translate(108.95 91.05) rotate(-24.78)"><tspan x="0" y="0"> </tspan></text>
  <text class="cls-1" transform="translate(109.61 90.75) rotate(-23.38)"><tspan x="0" y="0">c</tspan></text>
  <text class="cls-1" transform="translate(110.63 90.3) rotate(-21.48)"><tspan x="0" y="0">a</tspan></text>
  <text class="cls-1" transform="translate(111.96 89.78) rotate(-19.72)"><tspan x="0" y="0">r</tspan></text>
  <text class="cls-1" transform="translate(112.78 89.48) rotate(-18.18)"><tspan x="0" y="0">c</tspan></text>
  <text class="cls-1" transform="translate(113.84 89.13) rotate(-16.25)"><tspan x="0" y="0">a</tspan></text>
  <text class="cls-1" transform="translate(115.22 88.74) rotate(-14.41)"><tspan x="0" y="0">s</tspan></text>
  <text class="cls-1" transform="translate(116.15 88.5) rotate(-12.93)"><tspan x="0" y="0">s</tspan></text>
  <text class="cls-1" transform="translate(117.11 88.28) rotate(-11.59)"><tspan x="0" y="0"> </tspan></text>
  <text class="cls-1" transform="translate(117.81 88.13) rotate(-9.95)"><tspan x="0" y="0">p</tspan></text>
  <text class="cls-1" transform="translate(119.21 87.89) rotate(-8.17)"><tspan x="0" y="0">r</tspan></text>
  <text class="cls-1" transform="translate(120.08 87.76) rotate(-6.41)"><tspan x="0" y="0">o</tspan></text>
  <text class="cls-1" transform="translate(121.45 87.61) rotate(-4.47)"><tspan x="0" y="0">v</tspan></text>
  <text class="cls-1" transform="translate(122.63 87.52) rotate(-3.11)"><tspan x="0" y="0">i</tspan></text>
  <text class="cls-1" transform="translate(123.24 87.48) rotate(-1.54)"><tspan x="0" y="0">d</tspan></text>
  <text class="cls-1" transform="translate(124.66 87.44) rotate(.56)"><tspan x="0" y="0">e</tspan></text>
  <text class="cls-1" transform="translate(125.97 87.46) rotate(2.29)"><tspan x="0" y="0">s</tspan></text>
  <text class="cls-1" transform="translate(126.93 87.5) rotate(3.59)"><tspan x="0" y="0"> </tspan></text>
  <text class="cls-1" transform="translate(127.65 87.54) rotate(5.23)"><tspan x="0" y="0">o</tspan></text>
  <text class="cls-1" transform="translate(129.07 87.67) rotate(7.3)"><tspan x="0" y="0">n</tspan></text>
  <text class="cls-1" transform="translate(130.37 87.84) rotate(8.76)"><tspan x="0" y="0">l</tspan></text>
  <text class="cls-1" transform="translate(130.97 87.93) rotate(10.22)"><tspan x="0" y="0">y</tspan></text>
  <text class="cls-1" transform="translate(132.25 88.16) rotate(11.76)"><tspan x="0" y="0"> </tspan></text>
  <text class="cls-1" transform="translate(132.98 88.31) rotate(12.79)"><tspan x="0" y="0">l</tspan></text>
  <text class="cls-1" transform="translate(133.55 88.44) rotate(13.69)"><tspan x="0" y="0">i</tspan></text>
  <text class="cls-1" transform="translate(134.1 88.56) rotate(15.52)"><tspan x="0" y="0">m</tspan></text>
  <text class="cls-1" transform="translate(135.92 89.08) rotate(17.41)"><tspan x="0" y="0">i</tspan></text>
  <text class="cls-1" transform="translate(136.48 89.26) rotate(18.34)"><tspan x="0" y="0">t</tspan></text>
  <text class="cls-1" transform="translate(137.12 89.46) rotate(19.88)"><tspan x="0" y="0">e</tspan></text>
  <text class="cls-1" transform="translate(138.37 89.91) rotate(21.97)"><tspan x="0" y="0">d</tspan></text>
  <text class="cls-1" transform="translate(139.68 90.45) rotate(23.6)"><tspan x="0" y="0"> </tspan></text>
  <text class="cls-1" transform="translate(140.36 90.75) rotate(24.63)"><tspan x="0" y="0">i</tspan></text>
  <text class="cls-1" transform="translate(140.88 90.98) rotate(26.04)"><tspan x="0" y="0">n</tspan></text>
  <text class="cls-1" transform="translate(142.06 91.56) rotate(27.58)"><tspan x="0" y="0">f</tspan></text>
  <text class="cls-1" transform="translate(142.72 91.9) rotate(29.26)"><tspan x="0" y="0">o</tspan></text>
  <text class="cls-1" transform="translate(143.96 92.6) rotate(31.03)"><tspan x="0" y="0">r</tspan></text>
  <text class="cls-1" transform="translate(144.75 93.06) rotate(33.19)"><tspan x="0" y="0">m</tspan></text>
  <text class="cls-1" transform="translate(146.32 94.09) rotate(35.7)"><tspan x="0" y="0">a</tspan></text>
  <text class="cls-1" transform="translate(147.49 94.94) rotate(37.31)"><tspan x="0" y="0">t</tspan></text>
  <text class="cls-1" transform="translate(148.01 95.34) rotate(38.28)"><tspan x="0" y="0">i</tspan></text>
  <text class="cls-1" transform="translate(148.46 95.69) rotate(39.81)"><tspan x="0" y="0">o</tspan></text>
  <text class="cls-1" transform="translate(149.56 96.61) rotate(41.92)"><tspan x="0" y="0">n</tspan></text>
  <text class="cls-1" transform="translate(150.52 97.47) rotate(43.46)"><tspan x="0" y="0"> </tspan></text>
  <text class="cls-1" transform="translate(151.06 97.98) rotate(45.14)"><tspan x="0" y="0">a</tspan></text>
  <text class="cls-1" transform="translate(152.06 98.99) rotate(46.96)"><tspan x="0" y="0">s</tspan></text>
  <text class="cls-1" transform="translate(152.73 99.71) rotate(48.3)"><tspan x="0" y="0"> </tspan></text>
  <text class="cls-1" transform="translate(153.2 100.24) rotate(49.33)"><tspan x="0" y="0">t</tspan></text>
  <text class="cls-1" transform="translate(153.65 100.75) rotate(50.98)"><tspan x="0" y="0">o</tspan></text>
  <text class="cls-1" transform="translate(154.55 101.87) rotate(52.64)"><tspan x="0" y="0"> </tspan></text>
  <text class="cls-1" transform="translate(154.98 102.43) rotate(54.17)"><tspan x="0" y="0">h</tspan></text>
  <text class="cls-1" transform="translate(155.74 103.48) rotate(56.24)"><tspan x="0" y="0">o</tspan></text>
  <text class="cls-1" transform="translate(156.52 104.63) rotate(58.69)"><tspan x="0" y="0">w</tspan></text>
  <text class="cls-1" transform="translate(157.47 106.22) rotate(60.64)"><tspan x="0" y="0"> </tspan></text>
  <text class="cls-1" transform="translate(157.83 106.86) rotate(61.68)"><tspan x="0" y="0">t</tspan></text>
  <text class="cls-1" transform="translate(158.18 107.47) rotate(64.1)"><tspan x="0" y="0">h</tspan></text>
  <text class="cls-1" transform="translate(158.75 108.62) rotate(65.17)"><tspan x="0" y="0">e</tspan></text>
  <text class="cls-1" transform="translate(159.3 109.82) rotate(66.71)"><tspan x="0" y="0"> </tspan></text>
  <text class="cls-1" transform="translate(159.59 110.49) rotate(67.71)"><tspan x="0" y="0">i</tspan></text>
  <text class="cls-1" transform="translate(159.82 111.03) rotate(69.15)"><tspan x="0" y="0">n</tspan></text>
  <text class="cls-1" transform="translate(160.28 112.26) rotate(70.64)"><tspan x="0" y="0">t</tspan></text>
  <text class="cls-1" transform="translate(160.5 112.89) rotate(72.27)"><tspan x="0" y="0">a</tspan></text>
  <text class="cls-1" transform="translate(160.93 114.23) rotate(74.2)"><tspan x="0" y="0">c</tspan></text>
  <text class="cls-1" transform="translate(161.24 115.34) rotate(75.59)"><tspan x="0" y="0">t</tspan></text>
  <text class="cls-1" transform="translate(161.41 115.97) rotate(76.66)"><tspan x="0" y="0"> </tspan></text>
  <text class="cls-1" transform="translate(161.58 116.67) rotate(78.32)"><tspan x="0" y="0">o</tspan></text>
  <text class="cls-1" transform="translate(161.86 118.07) rotate(80.1)"><tspan x="0" y="0">r</tspan></text>
  <text class="cls-1" transform="translate(162.02 118.94) rotate(81.87)"><tspan x="0" y="0">g</tspan></text>
  <text class="cls-1" transform="translate(162.22 120.36) rotate(84.08)"><tspan x="0" y="0">a</tspan></text>
  <text class="cls-1" transform="translate(162.37 121.76) rotate(86.14)"><tspan x="0" y="0">n</tspan></text>
  <text class="cls-1" transform="translate(162.45 123.08) rotate(87.63)"><tspan x="0" y="0">i</tspan></text>
  <text class="cls-1" transform="translate(162.48 123.66) rotate(88.81)"><tspan x="0" y="0">s</tspan></text>
  <text class="cls-1" transform="translate(162.51 124.62) rotate(90.99)"><tspan x="0" y="0">m</tspan></text>
  <text class="cls-1" transform="translate(162.46 126.5) rotate(92.99)"><tspan x="0" y="0"> </tspan></text>
  <text class="cls-1" transform="translate(162.43 127.22) rotate(94.07)"><tspan x="0" y="0">f</tspan></text>
  <text class="cls-1" transform="translate(162.38 127.94) rotate(95.62)"><tspan x="0" y="0">u</tspan></text>
  <text class="cls-1" transform="translate(162.25 129.23) rotate(97.6)"><tspan x="0" y="0">n</tspan></text>
  <text class="cls-1" transform="translate(162.08 130.52) rotate(99.45)"><tspan x="0" y="0">c</tspan></text>
  <text class="cls-1" transform="translate(161.89 131.65) rotate(100.82)"><tspan x="0" y="0">t</tspan></text>
  <text class="cls-1" transform="translate(161.77 132.28) rotate(101.76)"><tspan x="0" y="0">i</tspan></text>
  <text class="cls-1" transform="translate(161.66 132.84) rotate(103.26)"><tspan x="0" y="0">o</tspan></text>
  <text class="cls-1" transform="translate(161.33 134.24) rotate(105.35)"><tspan x="0" y="0">n</tspan></text>
  <text class="cls-1" transform="translate(160.98 135.49) rotate(107.06)"><tspan x="0" y="0">s</tspan></text>
  <text class="cls-1" transform="translate(160.7 136.4) rotate(108.34)"><tspan x="0" y="0">.</tspan></text>
  <text class="cls-1" transform="translate(160.47 137.1) rotate(109.45)"><tspan x="0" y="0"> </tspan></text>
</svg>