<?xml version="1.0" encoding="UTF-8"?>
<svg id="Layer_15_2" data-name="Layer 15_2" xmlns="http://www.w3.org/2000/svg" viewBox="0 0 250 250">
  <defs>
    <style>
      .cls-1 {
        fill: #231f20;
        font-family: Futura-Medium, Futura;
        font-size: 3.3px;
        font-weight: 500;
      }
    </style>
  </defs>
  <text class="cls-1" transform="translate(55.97 142.76) rotate(-103.5)"><tspan x="0" y="0">T</tspan></text>
  <text class="cls-1" transform="translate(55.6 141.22) rotate(-102.48)"><tspan x="0" y="0">h</tspan></text>
  <text class="cls-1" transform="translate(55.21 139.47) rotate(-101.05)"><tspan x="0" y="0">e</tspan></text>
  <text class="cls-1" transform="translate(54.86 137.68) rotate(-99.92)"><tspan x="0" y="0"> </tspan></text>
  <text class="cls-1" transform="translate(54.68 136.68) rotate(-98.72)"><tspan x="0" y="0">o</tspan></text>
  <text class="cls-1" transform="translate(54.39 134.76) rotate(-97.23)"><tspan x="0" y="0">u</tspan></text>
  <text class="cls-1" transform="translate(54.17 132.98) rotate(-96.14)"><tspan x="0" y="0">t</tspan></text>
  <text class="cls-1" transform="translate(54.07 132.1) rotate(-95.47)"><tspan x="0" y="0">l</tspan></text>
  <text class="cls-1" transform="translate(53.99 131.27) rotate(-94.79)"><tspan x="0" y="0">i</tspan></text>
  <text class="cls-1" transform="translate(53.92 130.46) rotate(-93.74)"><tspan x="0" y="0">n</tspan></text>
  <text class="cls-1" transform="translate(53.8 128.66) rotate(-92.28)"><tspan x="0" y="0">e</tspan></text>
  <text class="cls-1" transform="translate(53.73 126.87) rotate(-91.03)"><tspan x="0" y="0">s</tspan></text>
  <text class="cls-1" transform="translate(53.71 125.53) rotate(-90.06)"><tspan x="0" y="0"> </tspan></text>
  <text class="cls-1" transform="translate(53.7 124.52) rotate(-88.86)"><tspan x="0" y="0">o</tspan></text>
  <text class="cls-1" transform="translate(53.75 122.57) rotate(-87.68)"><tspan x="0" y="0">f</tspan></text>
  <text class="cls-1" transform="translate(53.79 121.6) rotate(-86.88)"><tspan x="0" y="0"> </tspan></text>
  <text class="cls-1" transform="translate(53.84 120.57) rotate(-86.13)"><tspan x="0" y="0">i</tspan></text>
  <text class="cls-1" transform="translate(53.89 119.76) rotate(-85.07)"><tspan x="0" y="0">n</tspan></text>
  <text class="cls-1" transform="translate(54.04 118) rotate(-83.57)"><tspan x="0" y="0">d</tspan></text>
  <text class="cls-1" transform="translate(54.27 116.02) rotate(-82.42)"><tspan x="0" y="0">i</tspan></text>
  <text class="cls-1" transform="translate(54.38 115.23) rotate(-81.43)"><tspan x="0" y="0">v</tspan></text>
  <text class="cls-1" transform="translate(54.62 113.61) rotate(-80.45)"><tspan x="0" y="0">i</tspan></text>
  <text class="cls-1" transform="translate(54.76 112.79) rotate(-79.31)"><tspan x="0" y="0">d</tspan></text>
  <text class="cls-1" transform="translate(55.12 110.87) rotate(-77.81)"><tspan x="0" y="0">u</tspan></text>
  <text class="cls-1" transform="translate(55.49 109.14) rotate(-76.3)"><tspan x="0" y="0">a</tspan></text>
  <text class="cls-1" transform="translate(55.97 107.22) rotate(-75.18)"><tspan x="0" y="0">l</tspan></text>
  <text class="cls-1" transform="translate(56.17 106.43) rotate(-74.44)"><tspan x="0" y="0"> </tspan></text>
  <text class="cls-1" transform="translate(56.44 105.45) rotate(-73.64)"><tspan x="0" y="0">f</tspan></text>
  <text class="cls-1" transform="translate(56.72 104.52) rotate(-72.75)"><tspan x="0" y="0">r</tspan></text>
  <text class="cls-1" transform="translate(57.07 103.38) rotate(-71.5)"><tspan x="0" y="0">a</tspan></text>
  <text class="cls-1" transform="translate(57.69 101.51) rotate(-70.08)"><tspan x="0" y="0">c</tspan></text>
  <text class="cls-1" transform="translate(58.23 100.04) rotate(-69.09)"><tspan x="0" y="0">t</tspan></text>
  <text class="cls-1" transform="translate(58.55 99.19) rotate(-67.94)"><tspan x="0" y="0">a</tspan></text>
  <text class="cls-1" transform="translate(59.29 97.37) rotate(-66.82)"><tspan x="0" y="0">l</tspan></text>
  <text class="cls-1" transform="translate(59.61 96.62) rotate(-65.96)"><tspan x="0" y="0">s</tspan></text>
  <text class="cls-1" transform="translate(60.16 95.4) rotate(-65.02)"><tspan x="0" y="0"> </tspan></text>
  <text class="cls-1" transform="translate(60.57 94.5) rotate(-63.91)"><tspan x="0" y="0">h</tspan></text>
  <text class="cls-1" transform="translate(61.36 92.89) rotate(-62.41)"><tspan x="0" y="0">a</tspan></text>
  <text class="cls-1" transform="translate(62.29 91.12) rotate(-60.94)"><tspan x="0" y="0">v</tspan></text>
  <text class="cls-1" transform="translate(63.06 89.72) rotate(-59.6)"><tspan x="0" y="0">e</tspan></text>
  <text class="cls-1" transform="translate(63.97 88.18) rotate(-58.49)"><tspan x="0" y="0"> </tspan></text>
  <text class="cls-1" transform="translate(64.51 87.31) rotate(-57.72)"><tspan x="0" y="0">t</tspan></text>
  <text class="cls-1" transform="translate(65.02 86.49) rotate(-56.59)"><tspan x="0" y="0">h</tspan></text>
  <text class="cls-1" transform="translate(66 85) rotate(-55.15)"><tspan x="0" y="0">e</tspan></text>
  <text class="cls-1" transform="translate(67.05 83.5) rotate(-54.09)"><tspan x="0" y="0">i</tspan></text>
  <text class="cls-1" transform="translate(67.53 82.84) rotate(-53.27)"><tspan x="0" y="0">r</tspan></text>
  <text class="cls-1" transform="translate(68.25 81.87) rotate(-52.4)"><tspan x="0" y="0"> </tspan></text>
  <text class="cls-1" transform="translate(68.86 81.07) rotate(-51.2)"><tspan x="0" y="0">o</tspan></text>
  <text class="cls-1" transform="translate(70.06 79.57) rotate(-49.43)"><tspan x="0" y="0">w</tspan></text>
  <text class="cls-1" transform="translate(71.7 77.67) rotate(-47.72)"><tspan x="0" y="0">n</tspan></text>
  <text class="cls-1" transform="translate(72.92 76.32) rotate(-46.57)"><tspan x="0" y="0">,</tspan></text>
  <text class="cls-1" transform="translate(73.61 75.6) rotate(-45.78)"><tspan x="0" y="0"> </tspan></text>
  <text class="cls-1" transform="translate(74.31 74.88) rotate(-45.04)"><tspan x="0" y="0">i</tspan></text>
  <text class="cls-1" transform="translate(74.89 74.29) rotate(-43.98)"><tspan x="0" y="0">n</tspan></text>
  <text class="cls-1" transform="translate(76.19 73.05) rotate(-42.9)"><tspan x="0" y="0">t</tspan></text>
  <text class="cls-1" transform="translate(76.85 72.42) rotate(-41.79)"><tspan x="0" y="0">e</tspan></text>
  <text class="cls-1" transform="translate(78.2 71.22) rotate(-40.57)"><tspan x="0" y="0">r</tspan></text>
  <text class="cls-1" transform="translate(79.17 70.39) rotate(-39.3)"><tspan x="0" y="0">n</tspan></text>
  <text class="cls-1" transform="translate(80.55 69.25) rotate(-37.79)"><tspan x="0" y="0">a</tspan></text>
  <text class="cls-1" transform="translate(82.13 68.04) rotate(-36.65)"><tspan x="0" y="0">l</tspan></text>
  <text class="cls-1" transform="translate(82.77 67.56) rotate(-35.92)"><tspan x="0" y="0"> </tspan></text>
  <text class="cls-1" transform="translate(83.58 66.97) rotate(-35.09)"><tspan x="0" y="0">‘</tspan></text>
  <text class="cls-1" transform="translate(84.47 66.35) rotate(-34.25)"><tspan x="0" y="0">f</tspan></text>
  <text class="cls-1" transform="translate(85.26 65.81) rotate(-33.37)"><tspan x="0" y="0">r</tspan></text>
  <text class="cls-1" transform="translate(86.25 65.15) rotate(-32.1)"><tspan x="0" y="0">a</tspan></text>
  <text class="cls-1" transform="translate(87.93 64.1) rotate(-30.66)"><tspan x="0" y="0">c</tspan></text>
  <text class="cls-1" transform="translate(89.26 63.31) rotate(-29.68)"><tspan x="0" y="0">t</tspan></text>
  <text class="cls-1" transform="translate(90.06 62.85) rotate(-28.5)"><tspan x="0" y="0">a</tspan></text>
  <text class="cls-1" transform="translate(91.81 61.91) rotate(-27.36)"><tspan x="0" y="0">l</tspan></text>
  <text class="cls-1" transform="translate(92.53 61.54) rotate(-26.6)"><tspan x="0" y="0">’</tspan></text>
  <text class="cls-1" transform="translate(93.47 61.07) rotate(-25.77)"><tspan x="0" y="0"> </tspan></text>
  <text class="cls-1" transform="translate(94.39 60.62) rotate(-24.55)"><tspan x="0" y="0">d</tspan></text>
  <text class="cls-1" transform="translate(96.16 59.81) rotate(-23.45)"><tspan x="0" y="0">i</tspan></text>
  <text class="cls-1" transform="translate(96.9 59.48) rotate(-22.08)"><tspan x="0" y="0">m</tspan></text>
  <text class="cls-1" transform="translate(99.3 58.51) rotate(-20.31)"><tspan x="0" y="0">e</tspan></text>
  <text class="cls-1" transform="translate(101.01 57.88) rotate(-18.87)"><tspan x="0" y="0">n</tspan></text>
  <text class="cls-1" transform="translate(102.71 57.3) rotate(-17.62)"><tspan x="0" y="0">s</tspan></text>
  <text class="cls-1" transform="translate(103.99 56.9) rotate(-16.76)"><tspan x="0" y="0">i</tspan></text>
  <text class="cls-1" transform="translate(104.75 56.66) rotate(-15.67)"><tspan x="0" y="0">o</tspan></text>
  <text class="cls-1" transform="translate(106.63 56.12) rotate(-13.5)"><tspan x="0" y="0">n</tspan></text>
  <text class="cls-1" transform="translate(108.41 55.69) rotate(-13.07)"><tspan x="0" y="0"> </tspan></text>
  <text class="cls-1" transform="translate(109.39 55.46) rotate(-11.89)"><tspan x="0" y="0">b</tspan></text>
  <text class="cls-1" transform="translate(111.3 55.06) rotate(-10.39)"><tspan x="0" y="0">e</tspan></text>
  <text class="cls-1" transform="translate(113.09 54.73) rotate(-9.3)"><tspan x="0" y="0">t</tspan></text>
  <text class="cls-1" transform="translate(113.97 54.58) rotate(-7.93)"><tspan x="0" y="0">w</tspan></text>
  <text class="cls-1" transform="translate(116.45 54.24) rotate(-6.21)"><tspan x="0" y="0">e</tspan></text>
  <text class="cls-1" transform="translate(118.25 54.04) rotate(-4.75)"><tspan x="0" y="0">e</tspan></text>
  <text class="cls-1" transform="translate(120.04 53.89) rotate(-3.31)"><tspan x="0" y="0">n</tspan></text>
  <text class="cls-1" transform="translate(121.84 53.79) rotate(-2.17)"><tspan x="0" y="0"> </tspan></text>
  <text class="cls-1" transform="translate(122.86 53.75) rotate(-.93)"><tspan x="0" y="0">1</tspan></text>
  <text class="cls-1" transform="translate(124.88 53.72) rotate(.29)"><tspan x="0" y="0"> </tspan></text>
  <text class="cls-1" transform="translate(125.89 53.72) rotate(1.5)"><tspan x="0" y="0">a</tspan></text>
  <text class="cls-1" transform="translate(127.83 53.77) rotate(3.01)"><tspan x="0" y="0">n</tspan></text>
  <text class="cls-1" transform="translate(129.63 53.87) rotate(4.54)"><tspan x="0" y="0">d</tspan></text>
  <text class="cls-1" transform="translate(131.58 54.02) rotate(5.73)"><tspan x="0" y="0"> </tspan></text>
  <text class="cls-1" transform="translate(132.59 54.12) rotate(6.96)"><tspan x="0" y="0">2</tspan></text>
  <text class="cls-1" transform="translate(134.6 54.37) rotate(8.19)"><tspan x="0" y="0"> </tspan></text>
  <text class="cls-1" transform="translate(135.6 54.51) rotate(8.96)"><tspan x="0" y="0">t</tspan></text>
  <text class="cls-1" transform="translate(136.54 54.66) rotate(10.1)"><tspan x="0" y="0">h</tspan></text>
  <text class="cls-1" transform="translate(138.32 54.98) rotate(11.63)"><tspan x="0" y="0">a</tspan></text>
  <text class="cls-1" transform="translate(140.25 55.38) rotate(12.78)"><tspan x="0" y="0">t</tspan></text>
  <text class="cls-1" transform="translate(141.11 55.57) rotate(13.54)"><tspan x="0" y="0"> </tspan></text>
  <text class="cls-1" transform="translate(142.1 55.81) rotate(14.28)"><tspan x="0" y="0">i</tspan></text>
  <text class="cls-1" transform="translate(142.86 56) rotate(15.13)"><tspan x="0" y="0">s</tspan></text>
  <text class="cls-1" transform="translate(144.16 56.36) rotate(16.08)"><tspan x="0" y="0"> </tspan></text>
  <text class="cls-1" transform="translate(145.13 56.62) rotate(17.53)"><tspan x="0" y="0">m</tspan></text>
  <text class="cls-1" transform="translate(147.6 57.41) rotate(19.29)"><tspan x="0" y="0">e</tspan></text>
  <text class="cls-1" transform="translate(149.3 58) rotate(20.8)"><tspan x="0" y="0">a</tspan></text>
  <text class="cls-1" transform="translate(151.15 58.71) rotate(22.13)"><tspan x="0" y="0">s</tspan></text>
  <text class="cls-1" transform="translate(152.37 59.21) rotate(23.37)"><tspan x="0" y="0">u</tspan></text>
  <text class="cls-1" transform="translate(154.01 59.91) rotate(24.57)"><tspan x="0" y="0">r</tspan></text>
  <text class="cls-1" transform="translate(155.1 60.41) rotate(25.77)"><tspan x="0" y="0">e</tspan></text>
  <text class="cls-1" transform="translate(156.74 61.2) rotate(27.29)"><tspan x="0" y="0">d</tspan></text>
  <text class="cls-1" transform="translate(158.47 62.1) rotate(28.46)"><tspan x="0" y="0"> </tspan></text>
  <text class="cls-1" transform="translate(159.36 62.58) rotate(29.59)"><tspan x="0" y="0">e</tspan></text>
  <text class="cls-1" transform="translate(160.93 63.46) rotate(31.34)"><tspan x="0" y="0">m</tspan></text>
  <text class="cls-1" transform="translate(163.18 64.84) rotate(33.2)"><tspan x="0" y="0">p</tspan></text>
  <text class="cls-1" transform="translate(164.83 65.92) rotate(34.31)"><tspan x="0" y="0">i</tspan></text>
  <text class="cls-1" transform="translate(165.49 66.38) rotate(35.12)"><tspan x="0" y="0">r</tspan></text>
  <text class="cls-1" transform="translate(166.47 67.06) rotate(36.21)"><tspan x="0" y="0">c</tspan></text>
  <text class="cls-1" transform="translate(167.73 67.98) rotate(37.63)"><tspan x="0" y="0">a</tspan></text>
  <text class="cls-1" transform="translate(169.29 69.19) rotate(38.74)"><tspan x="0" y="0">l</tspan></text>
  <text class="cls-1" transform="translate(169.92 69.69) rotate(39.38)"><tspan x="0" y="0">l</tspan></text>
  <text class="cls-1" transform="translate(170.58 70.23) rotate(40.46)"><tspan x="0" y="0">y</tspan></text>
  <text class="cls-1" transform="translate(171.79 71.26) rotate(41.42)"><tspan x="0" y="0">.</tspan></text>
  <text class="cls-1" transform="translate(172.53 71.92) rotate(42.22)"><tspan x="0" y="0"> </tspan></text>
  <text class="cls-1" transform="translate(173.3 72.61) rotate(43.28)"><tspan x="0" y="0">T</tspan></text>
  <text class="cls-1" transform="translate(174.45 73.69) rotate(44.64)"><tspan x="0" y="0">h</tspan></text>
  <text class="cls-1" transform="translate(175.73 74.95) rotate(46.08)"><tspan x="0" y="0">e</tspan></text>
  <text class="cls-1" transform="translate(176.97 76.25) rotate(47.13)"><tspan x="0" y="0">i</tspan></text>
  <text class="cls-1" transform="translate(177.52 76.84) rotate(47.95)"><tspan x="0" y="0">r</tspan></text>
  <text class="cls-1" transform="translate(178.35 77.77) rotate(48.87)"><tspan x="0" y="0"> </tspan></text>
  <text class="cls-1" transform="translate(179.02 78.52) rotate(50.06)"><tspan x="0" y="0">o</tspan></text>
  <text class="cls-1" transform="translate(180.28 80.02) rotate(51.57)"><tspan x="0" y="0">u</tspan></text>
  <text class="cls-1" transform="translate(181.38 81.42) rotate(52.65)"><tspan x="0" y="0">t</tspan></text>
  <text class="cls-1" transform="translate(181.93 82.14) rotate(53.35)"><tspan x="0" y="0">l</tspan></text>
  <text class="cls-1" transform="translate(182.41 82.79) rotate(54.01)"><tspan x="0" y="0">i</tspan></text>
  <text class="cls-1" transform="translate(182.89 83.44) rotate(55.07)"><tspan x="0" y="0">n</tspan></text>
  <text class="cls-1" transform="translate(183.92 84.91) rotate(56.52)"><tspan x="0" y="0">e</tspan></text>
  <text class="cls-1" transform="translate(184.93 86.44) rotate(57.81)"><tspan x="0" y="0">s</tspan></text>
  <text class="cls-1" transform="translate(185.62 87.55) rotate(58.74)"><tspan x="0" y="0"> </tspan></text>
  <text class="cls-1" transform="translate(186.15 88.4) rotate(59.94)"><tspan x="0" y="0">d</tspan></text>
  <text class="cls-1" transform="translate(187.14 90.11) rotate(61.48)"><tspan x="0" y="0">e</tspan></text>
  <text class="cls-1" transform="translate(187.99 91.7) rotate(62.6)"><tspan x="0" y="0">f</tspan></text>
  <text class="cls-1" transform="translate(188.47 92.63) rotate(63.38)"><tspan x="0" y="0">i</tspan></text>
  <text class="cls-1" transform="translate(188.84 93.35) rotate(64.44)"><tspan x="0" y="0">n</tspan></text>
  <text class="cls-1" transform="translate(189.62 94.98) rotate(65.9)"><tspan x="0" y="0">e</tspan></text>
  <text class="cls-1" transform="translate(190.35 96.62) rotate(67.02)"><tspan x="0" y="0"> </tspan></text>
  <text class="cls-1" transform="translate(190.74 97.55) rotate(67.79)"><tspan x="0" y="0">t</tspan></text>
  <text class="cls-1" transform="translate(191.11 98.43) rotate(68.92)"><tspan x="0" y="0">h</tspan></text>
  <text class="cls-1" transform="translate(191.75 100.1) rotate(70.36)"><tspan x="0" y="0">e</tspan></text>
  <text class="cls-1" transform="translate(192.36 101.82) rotate(71.5)"><tspan x="0" y="0"> </tspan></text>
  <text class="cls-1" transform="translate(192.68 102.78) rotate(72.22)"><tspan x="0" y="0">i</tspan></text>
  <text class="cls-1" transform="translate(192.93 103.55) rotate(73.26)"><tspan x="0" y="0">n</tspan></text>
  <text class="cls-1" transform="translate(193.45 105.28) rotate(74.64)"><tspan x="0" y="0">n</tspan></text>
  <text class="cls-1" transform="translate(193.93 106.99) rotate(76.5)"><tspan x="0" y="0">e</tspan></text>
  <text class="cls-1" transform="translate(194.36 108.76) rotate(77.3)"><tspan x="0" y="0">r</tspan></text>
  <text class="cls-1" transform="translate(194.63 109.95) rotate(78.18)"><tspan x="0" y="0"> </tspan></text>
  <text class="cls-1" transform="translate(194.84 110.94) rotate(79.11)"><tspan x="0" y="0">s</tspan></text>
  <text class="cls-1" transform="translate(195.09 112.24) rotate(80.42)"><tspan x="0" y="0">p</tspan></text>
  <text class="cls-1" transform="translate(195.42 114.19) rotate(82.01)"><tspan x="0" y="0">a</tspan></text>
  <text class="cls-1" transform="translate(195.69 116.14) rotate(83.43)"><tspan x="0" y="0">c</tspan></text>
  <text class="cls-1" transform="translate(195.87 117.68) rotate(84.78)"><tspan x="0" y="0">e</tspan></text>
  <text class="cls-1" transform="translate(196.03 119.5) rotate(85.93)"><tspan x="0" y="0"> </tspan></text>
  <text class="cls-1" transform="translate(196.11 120.49) rotate(87.12)"><tspan x="0" y="0">o</tspan></text>
  <text class="cls-1" transform="translate(196.2 122.45) rotate(88.31)"><tspan x="0" y="0">f</tspan></text>
  <text class="cls-1" transform="translate(196.23 123.43) rotate(89.11)"><tspan x="0" y="0"> </tspan></text>
  <text class="cls-1" transform="translate(196.24 124.43) rotate(89.87)"><tspan x="0" y="0">t</tspan></text>
  <text class="cls-1" transform="translate(196.25 125.4) rotate(91.03)"><tspan x="0" y="0">h</tspan></text>
  <text class="cls-1" transform="translate(196.22 127.18) rotate(92.47)"><tspan x="0" y="0">e</tspan></text>
  <text class="cls-1" transform="translate(196.14 129) rotate(93.63)"><tspan x="0" y="0"> </tspan></text>
  <text class="cls-1" transform="translate(196.07 130.01) rotate(94.42)"><tspan x="0" y="0">f</tspan></text>
  <text class="cls-1" transform="translate(196 130.97) rotate(95.31)"><tspan x="0" y="0">r</tspan></text>
  <text class="cls-1" transform="translate(195.89 132.17) rotate(96.59)"><tspan x="0" y="0">a</tspan></text>
  <text class="cls-1" transform="translate(195.66 134.12) rotate(98.02)"><tspan x="0" y="0">c</tspan></text>
  <text class="cls-1" transform="translate(195.44 135.66) rotate(99.01)"><tspan x="0" y="0">t</tspan></text>
  <text class="cls-1" transform="translate(195.3 136.58) rotate(100.19)"><tspan x="0" y="0">a</tspan></text>
  <text class="cls-1" transform="translate(194.95 138.5) rotate(101.3)"><tspan x="0" y="0">l</tspan></text>
  <text class="cls-1" transform="translate(194.79 139.31) rotate(102.04)"><tspan x="0" y="0"> </tspan></text>
  <text class="cls-1" transform="translate(194.58 140.31) rotate(103)"><tspan x="0" y="0">s</tspan></text>
  <text class="cls-1" transform="translate(194.29 141.6) rotate(104.33)"><tspan x="0" y="0">o</tspan></text>
  <text class="cls-1" transform="translate(193.81 143.49) rotate(106.14)"><tspan x="0" y="0">m</tspan></text>
  <text class="cls-1" transform="translate(193.08 145.98) rotate(107.91)"><tspan x="0" y="0">e</tspan></text>
  <text class="cls-1" transform="translate(192.55 147.65) rotate(109.62)"><tspan x="0" y="0">w</tspan></text>
  <text class="cls-1" transform="translate(191.69 150.04) rotate(111.36)"><tspan x="0" y="0">h</tspan></text>
  <text class="cls-1" transform="translate(191.04 151.71) rotate(112.86)"><tspan x="0" y="0">a</tspan></text>
  <text class="cls-1" transform="translate(190.27 153.53) rotate(114.02)"><tspan x="0" y="0">t</tspan></text>
  <text class="cls-1" transform="translate(189.91 154.33) rotate(114.76)"><tspan x="0" y="0"> </tspan></text>
  <text class="cls-1" transform="translate(189.48 155.26) rotate(115.58)"><tspan x="0" y="0"> </tspan></text>
  <text class="cls-1" transform="translate(189.05 156.18) rotate(117.03)"><tspan x="0" y="0">m</tspan></text>
  <text class="cls-1" transform="translate(187.87 158.48) rotate(118.85)"><tspan x="0" y="0">o</tspan></text>
  <text class="cls-1" transform="translate(186.93 160.19) rotate(120.1)"><tspan x="0" y="0">r</tspan></text>
  <text class="cls-1" transform="translate(186.33 161.23) rotate(121.3)"><tspan x="0" y="0">e</tspan></text>
  <text class="cls-1" transform="translate(185.38 162.78) rotate(122.43)"><tspan x="0" y="0"> </tspan></text>
  <text class="cls-1" transform="translate(184.83 163.64) rotate(123.2)"><tspan x="0" y="0">t</tspan></text>
  <text class="cls-1" transform="translate(184.31 164.45) rotate(124.33)"><tspan x="0" y="0">h</tspan></text>
  <text class="cls-1" transform="translate(183.3 165.93) rotate(125.83)"><tspan x="0" y="0">a</tspan></text>
  <text class="cls-1" transform="translate(182.16 167.51) rotate(127.33)"><tspan x="0" y="0">n</tspan></text>
  <text class="cls-1" transform="translate(181.07 168.93) rotate(128.44)"><tspan x="0" y="0"> </tspan></text>
  <text class="cls-1" transform="translate(180.44 169.73) rotate(129.64)"><tspan x="0" y="0">a</tspan></text>
  <text class="cls-1" transform="translate(179.18 171.25) rotate(130.84)"><tspan x="0" y="0"> </tspan></text>
  <text class="cls-1" transform="translate(178.53 172.01) rotate(132.05)"><tspan x="0" y="0">1</tspan></text>
  <text class="cls-1" transform="translate(177.18 173.51) rotate(133.82)"><tspan x="0" y="0">D</tspan></text>
  <text class="cls-1" transform="translate(175.53 175.22) rotate(135.18)"><tspan x="0" y="0"> </tspan></text>
  <text class="cls-1" transform="translate(174.81 175.94) rotate(135.91)"><tspan x="0" y="0">l</tspan></text>
  <text class="cls-1" transform="translate(174.23 176.5) rotate(136.56)"><tspan x="0" y="0">i</tspan></text>
  <text class="cls-1" transform="translate(173.63 177.07) rotate(137.63)"><tspan x="0" y="0">n</tspan></text>
  <text class="cls-1" transform="translate(172.32 178.26) rotate(139.06)"><tspan x="0" y="0">e</tspan></text>
  <text class="cls-1" transform="translate(170.93 179.46) rotate(140.22)"><tspan x="0" y="0"> </tspan></text>
  <text class="cls-1" transform="translate(170.16 180.11) rotate(141.42)"><tspan x="0" y="0">a</tspan></text>
  <text class="cls-1" transform="translate(168.63 181.33) rotate(142.93)"><tspan x="0" y="0">n</tspan></text>
  <text class="cls-1" transform="translate(167.21 182.41) rotate(144.45)"><tspan x="0" y="0">d</tspan></text>
  <text class="cls-1" transform="translate(165.6 183.55) rotate(145.66)"><tspan x="0" y="0"> </tspan></text>
  <text class="cls-1" transform="translate(164.77 184.12) rotate(146.39)"><tspan x="0" y="0">l</tspan></text>
  <text class="cls-1" transform="translate(164.1 184.57) rotate(147.45)"><tspan x="0" y="0">e</tspan></text>
  <text class="cls-1" transform="translate(162.55 185.55) rotate(148.74)"><tspan x="0" y="0">s</tspan></text>
  <text class="cls-1" transform="translate(161.43 186.23) rotate(149.81)"><tspan x="0" y="0">s</tspan></text>
  <text class="cls-1" transform="translate(160.29 186.89) rotate(150.75)"><tspan x="0" y="0"> </tspan></text>
  <text class="cls-1" transform="translate(159.4 187.39) rotate(151.53)"><tspan x="0" y="0">t</tspan></text>
  <text class="cls-1" transform="translate(158.56 187.85) rotate(152.67)"><tspan x="0" y="0">h</tspan></text>
  <text class="cls-1" transform="translate(156.97 188.68) rotate(154.19)"><tspan x="0" y="0">a</tspan></text>
  <text class="cls-1" transform="translate(155.19 189.54) rotate(155.72)"><tspan x="0" y="0">n</tspan></text>
  <text class="cls-1" transform="translate(153.55 190.27) rotate(156.84)"><tspan x="0" y="0"> </tspan></text>
  <text class="cls-1" transform="translate(152.63 190.67) rotate(158.04)"><tspan x="0" y="0">a</tspan></text>
  <text class="cls-1" transform="translate(150.8 191.4) rotate(159.23)"><tspan x="0" y="0"> </tspan></text>
  <text class="cls-1" transform="translate(149.88 191.76) rotate(160.43)"><tspan x="0" y="0">2</tspan></text>
  <text class="cls-1" transform="translate(147.97 192.44) rotate(162.2)"><tspan x="0" y="0">D</tspan></text>
  <text class="cls-1" transform="translate(145.71 193.16) rotate(163.53)"><tspan x="0" y="0"> </tspan></text>
  <text class="cls-1" transform="translate(144.74 193.45) rotate(164.64)"><tspan x="0" y="0">p</tspan></text>
  <text class="cls-1" transform="translate(142.85 193.97) rotate(166.5)"><tspan x="0" y="0">l</tspan></text>
  <text class="cls-1" transform="translate(142.04 194.17) rotate(166.91)"><tspan x="0" y="0">a</tspan></text>
  <text class="cls-1" transform="translate(140.15 194.61) rotate(168.39)"><tspan x="0" y="0">n</tspan></text>
  <text class="cls-1" transform="translate(138.38 194.98) rotate(169.83)"><tspan x="0" y="0">e</tspan></text>
  <text class="cls-1" transform="translate(136.59 195.29) rotate(170.97)"><tspan x="0" y="0">.</tspan></text>
  <text class="cls-1" transform="translate(135.61 195.45) rotate(171.76)"><tspan x="0" y="0"> </tspan></text>
  <text class="cls-1" transform="translate(134.61 195.59) rotate(172.57)"><tspan x="0" y="0"> </tspan></text>
  <text class="cls-1" transform="translate(133.61 195.72) rotate(173.38)"><tspan x="0" y="0"> </tspan></text>
</svg>