<?xml version="1.0" encoding="UTF-8"?>
<svg id="Layer_17" data-name="Layer 17" xmlns="http://www.w3.org/2000/svg" viewBox="0 0 250 250">
  <defs>
    <style>
      .cls-1 {
        fill: #231f20;
        font-family: Futura-Medium, Futura;
        font-size: 3.5px;
        font-weight: 500;
      }
    </style>
  </defs>
  <text class="cls-1" transform="translate(51.96 154.33) rotate(-110.97)"><tspan x="0" y="0">A</tspan></text>
  <text class="cls-1" transform="translate(51.05 151.95) rotate(-109.38)"><tspan x="0" y="0">n</tspan></text>
  <text class="cls-1" transform="translate(50.42 150.14) rotate(-108.39)"><tspan x="0" y="0">i</tspan></text>
  <text class="cls-1" transform="translate(50.14 149.32) rotate(-107.07)"><tspan x="0" y="0">m</tspan></text>
  <text class="cls-1" transform="translate(49.34 146.7) rotate(-105.33)"><tspan x="0" y="0">a</tspan></text>
  <text class="cls-1" transform="translate(48.79 144.69) rotate(-104.23)"><tspan x="0" y="0">t</tspan></text>
  <text class="cls-1" transform="translate(48.54 143.74) rotate(-103.1)"><tspan x="0" y="0">o</tspan></text>
  <text class="cls-1" transform="translate(48.07 141.7) rotate(-101.86)"><tspan x="0" y="0">r</tspan></text>
  <text class="cls-1" transform="translate(47.81 140.43) rotate(-100.87)"><tspan x="0" y="0">s</tspan></text>
  <text class="cls-1" transform="translate(47.54 139.03) rotate(-99.95)"><tspan x="0" y="0"> </tspan></text>
  <text class="cls-1" transform="translate(47.35 138) rotate(-98.81)"><tspan x="0" y="0">o</tspan></text>
  <text class="cls-1" transform="translate(47.04 135.94) rotate(-97.67)"><tspan x="0" y="0">f</tspan></text>
  <text class="cls-1" transform="translate(46.88 134.78) rotate(-96.85)"><tspan x="0" y="0">t</tspan></text>
  <text class="cls-1" transform="translate(46.76 133.82) rotate(-95.78)"><tspan x="0" y="0">e</tspan></text>
  <text class="cls-1" transform="translate(46.57 131.91) rotate(-94.38)"><tspan x="0" y="0">n</tspan></text>
  <text class="cls-1" transform="translate(46.43 129.99) rotate(-93.27)"><tspan x="0" y="0"> </tspan></text>
  <text class="cls-1" transform="translate(46.36 128.93) rotate(-92.12)"><tspan x="0" y="0">a</tspan></text>
  <text class="cls-1" transform="translate(46.29 126.85) rotate(-90.75)"><tspan x="0" y="0">c</tspan></text>
  <text class="cls-1" transform="translate(46.26 125.2) rotate(-89.54)"><tspan x="0" y="0">c</tspan></text>
  <text class="cls-1" transform="translate(46.28 123.54) rotate(-88.62)"><tspan x="0" y="0">i</tspan></text>
  <text class="cls-1" transform="translate(46.29 122.69) rotate(-87.55)"><tspan x="0" y="0">d</tspan></text>
  <text class="cls-1" transform="translate(46.38 120.61) rotate(-86.09)"><tspan x="0" y="0">e</tspan></text>
  <text class="cls-1" transform="translate(46.52 118.66) rotate(-84.67)"><tspan x="0" y="0">n</tspan></text>
  <text class="cls-1" transform="translate(46.7 116.79) rotate(-83.65)"><tspan x="0" y="0">t</tspan></text>
  <text class="cls-1" transform="translate(46.8 115.83) rotate(-82.98)"><tspan x="0" y="0">l</tspan></text>
  <text class="cls-1" transform="translate(46.91 114.96) rotate(-81.96)"><tspan x="0" y="0">y</tspan></text>
  <text class="cls-1" transform="translate(47.18 113.08) rotate(-80.88)"><tspan x="0" y="0"> </tspan></text>
  <text class="cls-1" transform="translate(47.34 112.03) rotate(-79.73)"><tspan x="0" y="0">a</tspan></text>
  <text class="cls-1" transform="translate(47.71 109.97) rotate(-78.46)"><tspan x="0" y="0">s</tspan></text>
  <text class="cls-1" transform="translate(48 108.58) rotate(-77.43)"><tspan x="0" y="0">s</tspan></text>
  <text class="cls-1" transform="translate(48.31 107.21) rotate(-76.61)"><tspan x="0" y="0">i</tspan></text>
  <text class="cls-1" transform="translate(48.5 106.37) rotate(-75.54)"><tspan x="0" y="0">g</tspan></text>
  <text class="cls-1" transform="translate(49.02 104.36) rotate(-74.1)"><tspan x="0" y="0">n</tspan></text>
  <text class="cls-1" transform="translate(49.55 102.51) rotate(-73.01)"><tspan x="0" y="0"> </tspan></text>
  <text class="cls-1" transform="translate(49.86 101.49) rotate(-72.28)"><tspan x="0" y="0">t</tspan></text>
  <text class="cls-1" transform="translate(50.16 100.55) rotate(-71.21)"><tspan x="0" y="0">e</tspan></text>
  <text class="cls-1" transform="translate(50.75 98.8) rotate(-69.87)"><tspan x="0" y="0">x</tspan></text>
  <text class="cls-1" transform="translate(51.43 96.97) rotate(-68.82)"><tspan x="0" y="0">t</tspan></text>
  <text class="cls-1" transform="translate(51.76 96.09) rotate(-67.8)"><tspan x="0" y="0">u</tspan></text>
  <text class="cls-1" transform="translate(52.48 94.34) rotate(-66.64)"><tspan x="0" y="0">r</tspan></text>
  <text class="cls-1" transform="translate(52.99 93.16) rotate(-65.49)"><tspan x="0" y="0">e</tspan></text>
  <text class="cls-1" transform="translate(53.78 91.43) rotate(-64.3)"><tspan x="0" y="0">s</tspan></text>
  <text class="cls-1" transform="translate(54.39 90.15) rotate(-63.4)"><tspan x="0" y="0"> </tspan></text>
  <text class="cls-1" transform="translate(54.87 89.2) rotate(-62.67)"><tspan x="0" y="0">t</tspan></text>
  <text class="cls-1" transform="translate(55.31 88.34) rotate(-61.56)"><tspan x="0" y="0">o</tspan></text>
  <text class="cls-1" transform="translate(56.32 86.49) rotate(-60.4)"><tspan x="0" y="0"> </tspan></text>
  <text class="cls-1" transform="translate(56.85 85.57) rotate(-59.68)"><tspan x="0" y="0">t</tspan></text>
  <text class="cls-1" transform="translate(57.36 84.68) rotate(-58.58)"><tspan x="0" y="0">h</tspan></text>
  <text class="cls-1" transform="translate(58.34 83.07) rotate(-57.21)"><tspan x="0" y="0">e</tspan></text>
  <text class="cls-1" transform="translate(59.4 81.44) rotate(-56.11)"><tspan x="0" y="0"> </tspan></text>
  <text class="cls-1" transform="translate(60 80.54) rotate(-55.4)"><tspan x="0" y="0">i</tspan></text>
  <text class="cls-1" transform="translate(60.47 79.85) rotate(-54.41)"><tspan x="0" y="0">n</tspan></text>
  <text class="cls-1" transform="translate(61.59 78.29) rotate(-53.21)"><tspan x="0" y="0">s</tspan></text>
  <text class="cls-1" transform="translate(62.43 77.17) rotate(-52.38)"><tspan x="0" y="0">i</tspan></text>
  <text class="cls-1" transform="translate(62.96 76.48) rotate(-51.3)"><tspan x="0" y="0">d</tspan></text>
  <text class="cls-1" transform="translate(64.25 74.86) rotate(-49.85)"><tspan x="0" y="0">e</tspan></text>
  <text class="cls-1" transform="translate(65.49 73.4) rotate(-48.76)"><tspan x="0" y="0"> </tspan></text>
  <text class="cls-1" transform="translate(66.2 72.59) rotate(-47.6)"><tspan x="0" y="0">o</tspan></text>
  <text class="cls-1" transform="translate(67.63 71.03) rotate(-46.45)"><tspan x="0" y="0">f</tspan></text>
  <text class="cls-1" transform="translate(68.33 70.29) rotate(-45.68)"><tspan x="0" y="0"> </tspan></text>
  <text class="cls-1" transform="translate(69.07 69.53) rotate(-44.96)"><tspan x="0" y="0">t</tspan></text>
  <text class="cls-1" transform="translate(69.79 68.81) rotate(-43.86)"><tspan x="0" y="0">h</tspan></text>
  <text class="cls-1" transform="translate(71.17 67.49) rotate(-42.45)"><tspan x="0" y="0">e</tspan></text>
  <text class="cls-1" transform="translate(72.59 66.18) rotate(-41.35)"><tspan x="0" y="0"> </tspan></text>
  <text class="cls-1" transform="translate(73.38 65.48) rotate(-40.2)"><tspan x="0" y="0">o</tspan></text>
  <text class="cls-1" transform="translate(74.98 64.13) rotate(-38.67)"><tspan x="0" y="0">b</tspan></text>
  <text class="cls-1" transform="translate(76.62 62.82) rotate(-37.58)"><tspan x="0" y="0">j</tspan></text>
  <text class="cls-1" transform="translate(77.31 62.29) rotate(-36.55)"><tspan x="0" y="0">e</tspan></text>
  <text class="cls-1" transform="translate(78.84 61.16) rotate(-35.26)"><tspan x="0" y="0">c</tspan></text>
  <text class="cls-1" transform="translate(80.2 60.2) rotate(-34.29)"><tspan x="0" y="0">t</tspan></text>
  <text class="cls-1" transform="translate(80.99 59.66) rotate(-33.55)"><tspan x="0" y="0"> </tspan></text>
  <text class="cls-1" transform="translate(81.88 59.07) rotate(-32.81)"><tspan x="0" y="0">t</tspan></text>
  <text class="cls-1" transform="translate(82.71 58.53) rotate(-31.73)"><tspan x="0" y="0">h</tspan></text>
  <text class="cls-1" transform="translate(84.33 57.53) rotate(-30.34)"><tspan x="0" y="0">e</tspan></text>
  <text class="cls-1" transform="translate(85.95 56.58) rotate(-28.99)"><tspan x="0" y="0">y</tspan></text>
  <text class="cls-1" transform="translate(87.62 55.66) rotate(-27.88)"><tspan x="0" y="0">’</tspan></text>
  <text class="cls-1" transform="translate(88.57 55.16) rotate(-27.04)"><tspan x="0" y="0">r</tspan></text>
  <text class="cls-1" transform="translate(89.71 54.57) rotate(-25.89)"><tspan x="0" y="0">e</tspan></text>
  <text class="cls-1" transform="translate(91.45 53.73) rotate(-24.8)"><tspan x="0" y="0"> </tspan></text>
  <text class="cls-1" transform="translate(92.4 53.28) rotate(-23.44)"><tspan x="0" y="0">m</tspan></text>
  <text class="cls-1" transform="translate(94.92 52.17) rotate(-20.97)"><tspan x="0" y="0">o</tspan></text>
  <text class="cls-1" transform="translate(96.87 51.41) rotate(-20.22)"><tspan x="0" y="0">d</tspan></text>
  <text class="cls-1" transform="translate(98.81 50.7) rotate(-18.79)"><tspan x="0" y="0">e</tspan></text>
  <text class="cls-1" transform="translate(100.66 50.07) rotate(-17.77)"><tspan x="0" y="0">l</tspan></text>
  <text class="cls-1" transform="translate(101.47 49.82) rotate(-17.16)"><tspan x="0" y="0">i</tspan></text>
  <text class="cls-1" transform="translate(102.31 49.55) rotate(-16.15)"><tspan x="0" y="0">n</tspan></text>
  <text class="cls-1" transform="translate(104.13 49.02) rotate(-14.7)"><tspan x="0" y="0">g</tspan></text>
  <text class="cls-1" transform="translate(106.15 48.5) rotate(-13.55)"><tspan x="0" y="0"> </tspan></text>
  <text class="cls-1" transform="translate(107.19 48.24) rotate(-12.4)"><tspan x="0" y="0">a</tspan></text>
  <text class="cls-1" transform="translate(109.21 47.8) rotate(-11.14)"><tspan x="0" y="0">s</tspan></text>
  <text class="cls-1" transform="translate(110.61 47.53) rotate(-10.22)"><tspan x="0" y="0"> </tspan></text>
  <text class="cls-1" transform="translate(111.64 47.34) rotate(-9.08)"><tspan x="0" y="0">o</tspan></text>
  <text class="cls-1" transform="translate(113.72 47) rotate(-7.54)"><tspan x="0" y="0">p</tspan></text>
  <text class="cls-1" transform="translate(115.77 46.73) rotate(-6.02)"><tspan x="0" y="0">p</tspan></text>
  <text class="cls-1" transform="translate(117.85 46.51) rotate(-4.49)"><tspan x="0" y="0">o</tspan></text>
  <text class="cls-1" transform="translate(119.93 46.35) rotate(-3.2)"><tspan x="0" y="0">s</tspan></text>
  <text class="cls-1" transform="translate(121.33 46.27) rotate(-1.99)"><tspan x="0" y="0">e</tspan></text>
  <text class="cls-1" transform="translate(123.26 46.2) rotate(-.51)"><tspan x="0" y="0">d</tspan></text>
  <text class="cls-1" transform="translate(125.34 46.19) rotate(.63)"><tspan x="0" y="0"> </tspan></text>
  <text class="cls-1" transform="translate(126.42 46.2) rotate(1.38)"><tspan x="0" y="0">t</tspan></text>
  <text class="cls-1" transform="translate(127.4 46.22) rotate(2.52)"><tspan x="0" y="0">o</tspan></text>
  <text class="cls-1" transform="translate(129.46 46.31) rotate(3.65)"><tspan x="0" y="0"> </tspan></text>
  <text class="cls-1" transform="translate(130.54 46.38) rotate(4.39)"><tspan x="0" y="0">t</tspan></text>
  <text class="cls-1" transform="translate(131.54 46.46) rotate(5.48)"><tspan x="0" y="0">h</tspan></text>
  <text class="cls-1" transform="translate(133.46 46.64) rotate(6.89)"><tspan x="0" y="0">e</tspan></text>
  <text class="cls-1" transform="translate(135.36 46.87) rotate(7.98)"><tspan x="0" y="0"> </tspan></text>
  <text class="cls-1" transform="translate(136.42 47.02) rotate(9.12)"><tspan x="0" y="0">o</tspan></text>
  <text class="cls-1" transform="translate(138.48 47.35) rotate(10.57)"><tspan x="0" y="0">u</tspan></text>
  <text class="cls-1" transform="translate(140.34 47.7) rotate(11.61)"><tspan x="0" y="0">t</tspan></text>
  <text class="cls-1" transform="translate(141.28 47.89) rotate(12.46)"><tspan x="0" y="0">s</tspan></text>
  <text class="cls-1" transform="translate(142.64 48.2) rotate(13.28)"><tspan x="0" y="0">i</tspan></text>
  <text class="cls-1" transform="translate(143.49 48.39) rotate(14.36)"><tspan x="0" y="0">d</tspan></text>
  <text class="cls-1" transform="translate(145.51 48.91) rotate(15.81)"><tspan x="0" y="0">e</tspan></text>
  <text class="cls-1" transform="translate(147.37 49.44) rotate(16.9)"><tspan x="0" y="0">.</tspan></text>
  <text class="cls-1" transform="translate(148.39 49.75) rotate(17.68)"><tspan x="0" y="0"> </tspan></text>
  <text class="cls-1" transform="translate(149.4 50.07) rotate(18.66)"><tspan x="0" y="0">T</tspan></text>
  <text class="cls-1" transform="translate(151 50.6) rotate(19.96)"><tspan x="0" y="0">h</tspan></text>
  <text class="cls-1" transform="translate(152.79 51.26) rotate(21.35)"><tspan x="0" y="0">e</tspan></text>
  <text class="cls-1" transform="translate(154.56 51.95) rotate(22.42)"><tspan x="0" y="0"> </tspan></text>
  <text class="cls-1" transform="translate(155.58 52.37) rotate(23.29)"><tspan x="0" y="0">r</tspan></text>
  <text class="cls-1" transform="translate(156.73 52.86) rotate(24.42)"><tspan x="0" y="0">e</tspan></text>
  <text class="cls-1" transform="translate(158.49 53.67) rotate(25.64)"><tspan x="0" y="0">s</tspan></text>
  <text class="cls-1" transform="translate(159.77 54.28) rotate(26.84)"><tspan x="0" y="0">u</tspan></text>
  <text class="cls-1" transform="translate(161.44 55.13) rotate(27.82)"><tspan x="0" y="0">l</tspan></text>
  <text class="cls-1" transform="translate(162.21 55.53) rotate(28.48)"><tspan x="0" y="0">t</tspan></text>
  <text class="cls-1" transform="translate(163.04 55.98) rotate(29.21)"><tspan x="0" y="0"> </tspan></text>
  <text class="cls-1" transform="translate(163.98 56.51) rotate(29.92)"><tspan x="0" y="0">i</tspan></text>
  <text class="cls-1" transform="translate(164.75 56.95) rotate(30.75)"><tspan x="0" y="0">s</tspan></text>
  <text class="cls-1" transform="translate(165.96 57.67) rotate(31.65)"><tspan x="0" y="0"> </tspan></text>
  <text class="cls-1" transform="translate(166.86 58.22) rotate(32.79)"><tspan x="0" y="0">a</tspan></text>
  <text class="cls-1" transform="translate(168.61 59.35) rotate(34.23)"><tspan x="0" y="0">n</tspan></text>
  <text class="cls-1" transform="translate(170.18 60.42) rotate(35.31)"><tspan x="0" y="0"> </tspan></text>
  <text class="cls-1" transform="translate(171.06 61.04) rotate(36.02)"><tspan x="0" y="0">i</tspan></text>
  <text class="cls-1" transform="translate(171.77 61.55) rotate(37.03)"><tspan x="0" y="0">n</tspan></text>
  <text class="cls-1" transform="translate(173.23 62.66) rotate(38.31)"><tspan x="0" y="0">v</tspan></text>
  <text class="cls-1" transform="translate(174.56 63.71) rotate(39.61)"><tspan x="0" y="0">e</tspan></text>
  <text class="cls-1" transform="translate(176.04 64.94) rotate(40.78)"><tspan x="0" y="0">r</tspan></text>
  <text class="cls-1" transform="translate(177.12 65.87) rotate(41.7)"><tspan x="0" y="0">t</tspan></text>
  <text class="cls-1" transform="translate(177.85 66.51) rotate(42.76)"><tspan x="0" y="0">e</tspan></text>
  <text class="cls-1" transform="translate(179.26 67.82) rotate(44.23)"><tspan x="0" y="0">d</tspan></text>
  <text class="cls-1" transform="translate(180.76 69.28) rotate(45.39)"><tspan x="0" y="0"> </tspan></text>
  <text class="cls-1" transform="translate(181.51 70.04) rotate(46.1)"><tspan x="0" y="0">i</tspan></text>
  <text class="cls-1" transform="translate(182.11 70.65) rotate(47.42)"><tspan x="0" y="0">m</tspan></text>
  <text class="cls-1" transform="translate(183.96 72.68) rotate(49.18)"><tspan x="0" y="0">a</tspan></text>
  <text class="cls-1" transform="translate(185.33 74.25) rotate(50.71)"><tspan x="0" y="0">g</tspan></text>
  <text class="cls-1" transform="translate(186.64 75.86) rotate(52.18)"><tspan x="0" y="0">e</tspan></text>
  <text class="cls-1" transform="translate(187.82 77.38) rotate(53.27)"><tspan x="0" y="0">,</tspan></text>
  <text class="cls-1" transform="translate(188.47 78.26) rotate(54.07)"><tspan x="0" y="0"> </tspan></text>
  <text class="cls-1" transform="translate(189.09 79.1) rotate(55.44)"><tspan x="0" y="0">w</tspan></text>
  <text class="cls-1" transform="translate(190.62 81.32) rotate(57.12)"><tspan x="0" y="0">h</tspan></text>
  <text class="cls-1" transform="translate(191.65 82.92) rotate(58.51)"><tspan x="0" y="0">e</tspan></text>
  <text class="cls-1" transform="translate(192.66 84.58) rotate(59.71)"><tspan x="0" y="0">r</tspan></text>
  <text class="cls-1" transform="translate(193.31 85.67) rotate(60.85)"><tspan x="0" y="0">e</tspan></text>
  <text class="cls-1" transform="translate(194.24 87.35) rotate(61.94)"><tspan x="0" y="0"> </tspan></text>
  <text class="cls-1" transform="translate(194.74 88.28) rotate(63.3)"><tspan x="0" y="0">w</tspan></text>
  <text class="cls-1" transform="translate(195.95 90.68) rotate(64.95)"><tspan x="0" y="0">h</tspan></text>
  <text class="cls-1" transform="translate(196.75 92.4) rotate(66.38)"><tspan x="0" y="0">a</tspan></text>
  <text class="cls-1" transform="translate(197.58 94.32) rotate(67.17)"><tspan x="0" y="0">t</tspan></text>
  <text class="cls-1" transform="translate(197.96 95.2) rotate(69.03)"><tspan x="0" y="0"> </tspan></text>
  <text class="cls-1" transform="translate(198.36 96.19) rotate(69.53)"><tspan x="0" y="0">w</tspan></text>
  <text class="cls-1" transform="translate(199.28 98.66) rotate(71.21)"><tspan x="0" y="0">a</tspan></text>
  <text class="cls-1" transform="translate(199.95 100.65) rotate(72.47)"><tspan x="0" y="0">s</tspan></text>
  <text class="cls-1" transform="translate(200.36 101.97) rotate(73.36)"><tspan x="0" y="0"> </tspan></text>
  <text class="cls-1" transform="translate(200.69 103.01) rotate(74.76)"><tspan x="0" y="0">m</tspan></text>
  <text class="cls-1" transform="translate(201.4 105.66) rotate(76.45)"><tspan x="0" y="0">e</tspan></text>
  <text class="cls-1" transform="translate(201.86 107.53) rotate(77.91)"><tspan x="0" y="0">a</tspan></text>
  <text class="cls-1" transform="translate(202.29 109.58) rotate(79.37)"><tspan x="0" y="0">n</tspan></text>
  <text class="cls-1" transform="translate(202.64 111.44) rotate(80.4)"><tspan x="0" y="0">t</tspan></text>
  <text class="cls-1" transform="translate(202.79 112.37) rotate(81.14)"><tspan x="0" y="0"> </tspan></text>
  <text class="cls-1" transform="translate(202.96 113.42) rotate(81.88)"><tspan x="0" y="0">t</tspan></text>
  <text class="cls-1" transform="translate(203.1 114.39) rotate(83.02)"><tspan x="0" y="0">o</tspan></text>
  <text class="cls-1" transform="translate(203.35 116.47) rotate(84.18)"><tspan x="0" y="0"> </tspan></text>
  <text class="cls-1" transform="translate(203.47 117.53) rotate(85.33)"><tspan x="0" y="0">b</tspan></text>
  <text class="cls-1" transform="translate(203.63 119.6) rotate(86.8)"><tspan x="0" y="0">e</tspan></text>
  <text class="cls-1" transform="translate(203.74 121.53) rotate(87.9)"><tspan x="0" y="0"> </tspan></text>
  <text class="cls-1" transform="translate(203.78 122.6) rotate(88.61)"><tspan x="0" y="0">i</tspan></text>
  <text class="cls-1" transform="translate(203.8 123.46) rotate(89.62)"><tspan x="0" y="0">n</tspan></text>
  <text class="cls-1" transform="translate(203.81 125.36) rotate(90.83)"><tspan x="0" y="0">s</tspan></text>
  <text class="cls-1" transform="translate(203.79 126.77) rotate(91.66)"><tspan x="0" y="0">i</tspan></text>
  <text class="cls-1" transform="translate(203.77 127.65) rotate(92.76)"><tspan x="0" y="0">d</tspan></text>
  <text class="cls-1" transform="translate(203.67 129.73) rotate(94.22)"><tspan x="0" y="0">e</tspan></text>
  <text class="cls-1" transform="translate(203.52 131.65) rotate(95.31)"><tspan x="0" y="0"> </tspan></text>
  <text class="cls-1" transform="translate(203.43 132.71) rotate(96.39)"><tspan x="0" y="0">n</tspan></text>
  <text class="cls-1" transform="translate(203.22 134.6) rotate(97.85)"><tspan x="0" y="0">o</tspan></text>
  <text class="cls-1" transform="translate(202.95 136.6) rotate(99.53)"><tspan x="0" y="0">w</tspan></text>
  <text class="cls-1" transform="translate(202.5 139.24) rotate(100.89)"><tspan x="0" y="0"> </tspan></text>
  <text class="cls-1" transform="translate(202.3 140.29) rotate(101.97)"><tspan x="0" y="0">u</tspan></text>
  <text class="cls-1" transform="translate(201.9 142.17) rotate(103.37)"><tspan x="0" y="0">n</tspan></text>
  <text class="cls-1" transform="translate(201.46 144.01) rotate(104.42)"><tspan x="0" y="0">f</tspan></text>
  <text class="cls-1" transform="translate(201.2 145.04) rotate(105.58)"><tspan x="0" y="0">o</tspan></text>
  <text class="cls-1" transform="translate(200.63 147.07) rotate(106.82)"><tspan x="0" y="0">r</tspan></text>
  <text class="cls-1" transform="translate(200.21 148.43) rotate(107.72)"><tspan x="0" y="0">t</tspan></text>
  <text class="cls-1" transform="translate(199.93 149.33) rotate(108.74)"><tspan x="0" y="0">u</tspan></text>
  <text class="cls-1" transform="translate(199.33 151.12) rotate(110.11)"><tspan x="0" y="0">n</tspan></text>
  <text class="cls-1" transform="translate(198.67 152.92) rotate(111.56)"><tspan x="0" y="0">a</tspan></text>
  <text class="cls-1" transform="translate(197.9 154.85) rotate(112.65)"><tspan x="0" y="0">t</tspan></text>
  <text class="cls-1" transform="translate(197.52 155.76) rotate(113.72)"><tspan x="0" y="0">e</tspan></text>
  <text class="cls-1" transform="translate(196.75 157.51) rotate(114.72)"><tspan x="0" y="0">l</tspan></text>
  <text class="cls-1" transform="translate(196.37 158.33) rotate(115.75)"><tspan x="0" y="0">y</tspan></text>
  <text class="cls-1" transform="translate(195.55 160.03) rotate(116.82)"><tspan x="0" y="0"> </tspan></text>
  <text class="cls-1" transform="translate(195.07 160.99) rotate(117.71)"><tspan x="0" y="0">s</tspan></text>
  <text class="cls-1" transform="translate(194.42 162.22) rotate(118.52)"><tspan x="0" y="0">l</tspan></text>
  <text class="cls-1" transform="translate(193.99 163) rotate(119.17)"><tspan x="0" y="0">i</tspan></text>
  <text class="cls-1" transform="translate(193.58 163.76) rotate(120.24)"><tspan x="0" y="0">p</tspan></text>
  <text class="cls-1" transform="translate(192.52 165.56) rotate(121.5)"><tspan x="0" y="0">s</tspan></text>
  <text class="cls-1" transform="translate(191.8 166.74) rotate(122.38)"><tspan x="0" y="0"> </tspan></text>
  <text class="cls-1" transform="translate(191.22 167.66) rotate(123.54)"><tspan x="0" y="0">o</tspan></text>
  <text class="cls-1" transform="translate(190.07 169.4) rotate(124.98)"><tspan x="0" y="0">u</tspan></text>
  <text class="cls-1" transform="translate(188.98 170.95) rotate(126.02)"><tspan x="0" y="0">t</tspan></text>
  <text class="cls-1" transform="translate(188.42 171.72) rotate(126.75)"><tspan x="0" y="0">.</tspan></text>
  <text class="cls-1" transform="translate(187.78 172.57) rotate(127.53)"><tspan x="0" y="0"> </tspan></text>
  <text class="cls-1" transform="translate(187.14 173.42) rotate(128.29)"><tspan x="0" y="0">I</tspan></text>
  <text class="cls-1" transform="translate(186.49 174.24) rotate(129.02)"><tspan x="0" y="0">t</tspan></text>
  <text class="cls-1" transform="translate(185.89 174.98) rotate(129.76)"><tspan x="0" y="0"> </tspan></text>
  <text class="cls-1" transform="translate(185.21 175.79) rotate(130.46)"><tspan x="0" y="0">i</tspan></text>
  <text class="cls-1" transform="translate(184.66 176.44) rotate(131.28)"><tspan x="0" y="0">s</tspan></text>
  <text class="cls-1" transform="translate(183.72 177.51) rotate(132.2)"><tspan x="0" y="0"> </tspan></text>
  <text class="cls-1" transform="translate(182.99 178.31) rotate(132.94)"><tspan x="0" y="0">t</tspan></text>
  <text class="cls-1" transform="translate(182.3 179.06) rotate(134.03)"><tspan x="0" y="0">h</tspan></text>
  <text class="cls-1" transform="translate(180.98 180.43) rotate(135.44)"><tspan x="0" y="0">e</tspan></text>
  <text class="cls-1" transform="translate(179.6 181.78) rotate(136.53)"><tspan x="0" y="0"> </tspan></text>
  <text class="cls-1" transform="translate(178.84 182.51) rotate(137.68)"><tspan x="0" y="0">d</tspan></text>
  <text class="cls-1" transform="translate(177.29 183.91) rotate(138.76)"><tspan x="0" y="0">i</tspan></text>
  <text class="cls-1" transform="translate(176.64 184.48) rotate(139.85)"><tspan x="0" y="0">g</tspan></text>
  <text class="cls-1" transform="translate(175.06 185.81) rotate(140.91)"><tspan x="0" y="0">i</tspan></text>
  <text class="cls-1" transform="translate(174.39 186.36) rotate(141.58)"><tspan x="0" y="0">t</tspan></text>
  <text class="cls-1" transform="translate(173.63 186.97) rotate(142.71)"><tspan x="0" y="0">a</tspan></text>
  <text class="cls-1" transform="translate(171.95 188.24) rotate(143.8)"><tspan x="0" y="0">l</tspan></text>
  <text class="cls-1" transform="translate(171.25 188.75) rotate(144.52)"><tspan x="0" y="0"> </tspan></text>
  <text class="cls-1" transform="translate(170.39 189.37) rotate(145.6)"><tspan x="0" y="0">e</tspan></text>
  <text class="cls-1" transform="translate(168.81 190.46) rotate(147.07)"><tspan x="0" y="0">q</tspan></text>
  <text class="cls-1" transform="translate(167.02 191.61) rotate(148.56)"><tspan x="0" y="0">u</tspan></text>
  <text class="cls-1" transform="translate(165.42 192.59) rotate(149.55)"><tspan x="0" y="0">i</tspan></text>
  <text class="cls-1" transform="translate(164.65 193.04) rotate(150.52)"><tspan x="0" y="0">v</tspan></text>
  <text class="cls-1" transform="translate(163.21 193.86) rotate(151.85)"><tspan x="0" y="0">a</tspan></text>
  <text class="cls-1" transform="translate(161.34 194.85) rotate(152.93)"><tspan x="0" y="0">l</tspan></text>
  <text class="cls-1" transform="translate(160.59 195.24) rotate(153.93)"><tspan x="0" y="0">e</tspan></text>
  <text class="cls-1" transform="translate(158.86 196.09) rotate(155.31)"><tspan x="0" y="0">n</tspan></text>
  <text class="cls-1" transform="translate(157.13 196.88) rotate(156.33)"><tspan x="0" y="0">t</tspan></text>
  <text class="cls-1" transform="translate(156.26 197.26) rotate(157.06)"><tspan x="0" y="0"> </tspan></text>
  <text class="cls-1" transform="translate(155.28 197.7) rotate(159.03)"><tspan x="0" y="0">o</tspan></text>
  <text class="cls-1" transform="translate(153.33 198.46) rotate(159.3)"><tspan x="0" y="0">f</tspan></text>
  <text class="cls-1" transform="translate(152.37 198.82) rotate(160.05)"><tspan x="0" y="0"> </tspan></text>
  <text class="cls-1" transform="translate(151.37 199.19) rotate(161.18)"><tspan x="0" y="0">a</tspan></text>
  <text class="cls-1" transform="translate(149.4 199.85) rotate(162.32)"><tspan x="0" y="0"> </tspan></text>
  <text class="cls-1" transform="translate(148.36 200.19) rotate(163.47)"><tspan x="0" y="0">p</tspan></text>
  <text class="cls-1" transform="translate(146.37 200.78) rotate(164.69)"><tspan x="0" y="0">r</tspan></text>
  <text class="cls-1" transform="translate(145.14 201.12) rotate(165.91)"><tspan x="0" y="0">o</tspan></text>
  <text class="cls-1" transform="translate(143.13 201.62) rotate(166.97)"><tspan x="0" y="0">l</tspan></text>
  <text class="cls-1" transform="translate(142.29 201.82) rotate(168.05)"><tspan x="0" y="0">a</tspan></text>
  <text class="cls-1" transform="translate(140.24 202.25) rotate(169.58)"><tspan x="0" y="0">p</tspan></text>
  <text class="cls-1" transform="translate(138.19 202.63) rotate(170.85)"><tspan x="0" y="0">s</tspan></text>
  <text class="cls-1" transform="translate(136.82 202.85) rotate(172.06)"><tspan x="0" y="0">e</tspan></text>
  <text class="cls-1" transform="translate(134.91 203.12) rotate(173.53)"><tspan x="0" y="0">d</tspan></text>
  <text class="cls-1" transform="translate(132.84 203.35) rotate(174.69)"><tspan x="0" y="0"> </tspan></text>
  <text class="cls-1" transform="translate(131.78 203.45) rotate(175.84)"><tspan x="0" y="0">o</tspan></text>
  <text class="cls-1" transform="translate(129.7 203.6) rotate(177.08)"><tspan x="0" y="0">r</tspan></text>
  <text class="cls-1" transform="translate(128.37 203.67) rotate(178.34)"><tspan x="0" y="0">g</tspan></text>
  <text class="cls-1" transform="translate(126.3 203.73) rotate(179.86)"><tspan x="0" y="0">a</tspan></text>
  <text class="cls-1" transform="translate(124.23 203.74) rotate(-178.69)"><tspan x="0" y="0">n</tspan></text>
  <text class="cls-1" transform="translate(122.32 203.69) rotate(-177.59)"><tspan x="0" y="0">.</tspan></text>
</svg>