<?xml version="1.0" encoding="UTF-8"?>
<svg id="Layer_24" data-name="Layer 24" xmlns="http://www.w3.org/2000/svg" viewBox="0 0 250 250">
  <defs>
    <style>
      .cls-1 {
        font-family: Futura-Medium, Futura;
        font-weight: 500;
      }

      .cls-1, .cls-2 {
        fill: #231f20;
        font-size: 4.2px;
      }

      .cls-2 {
        font-family: Futura-CondensedExtraBold, Futura;
        font-weight: 700;
      }
    </style>
  </defs>
  <text class="cls-1" transform="translate(23.92 96.43) rotate(-73.26)"><tspan x="0" y="0">L</tspan></text>
  <text class="cls-1" transform="translate(24.44 94.66) rotate(-72.53)"><tspan x="0" y="0">a</tspan></text>
  <text class="cls-1" transform="translate(25.21 92.24) rotate(-71.23)"><tspan x="0" y="0">y</tspan></text>
  <text class="cls-1" transform="translate(25.91 90.15) rotate(-70.03)"><tspan x="0" y="0">e</tspan></text>
  <text class="cls-1" transform="translate(26.71 87.98) rotate(-68.97)"><tspan x="0" y="0">r</tspan></text>
  <text class="cls-1" transform="translate(27.27 86.53) rotate(-68.2)"><tspan x="0" y="0"> </tspan></text>
  <text class="cls-1" transform="translate(27.74 85.34) rotate(-67.15)"><tspan x="0" y="0">2</tspan></text>
  <text class="cls-1" transform="translate(28.72 82.99) rotate(-65.77)"><tspan x="0" y="0">4</tspan></text>
  <text class="cls-1" transform="translate(29.79 80.64) rotate(-64.71)"><tspan x="0" y="0"> </tspan></text>
  <text class="cls-1" transform="translate(30.33 79.48) rotate(-63.67)"><tspan x="0" y="0">p</tspan></text>
  <text class="cls-1" transform="translate(31.44 77.25) rotate(-62.53)"><tspan x="0" y="0">s</tspan></text>
  <text class="cls-1" transform="translate(32.22 75.73) rotate(-61.43)"><tspan x="0" y="0">u</tspan></text>
  <text class="cls-1" transform="translate(33.29 73.75) rotate(-59.91)"><tspan x="0" y="0">m</tspan></text>
  <text class="cls-1" transform="translate(34.97 70.88) rotate(-58.64)"><tspan x="0" y="0"> </tspan></text>
  <text class="cls-1" transform="translate(35.63 69.79) rotate(-57.78)"><tspan x="0" y="0">L</tspan></text>
  <text class="cls-1" transform="translate(36.6 68.24) rotate(-56.6)"><tspan x="0" y="0">o</tspan></text>
  <text class="cls-1" transform="translate(38 66.13) rotate(-55.47)"><tspan x="0" y="0">r</tspan></text>
  <text class="cls-1" transform="translate(38.86 64.88) rotate(-54.43)"><tspan x="0" y="0">e</tspan></text>
  <text class="cls-1" transform="translate(40.19 63) rotate(-52.88)"><tspan x="0" y="0">m</tspan></text>
  <text class="cls-1" transform="translate(42.19 60.38) rotate(-51.63)"><tspan x="0" y="0"> </tspan></text>
  <text class="cls-2" transform="translate(42.99 59.37) rotate(-50.92)"><tspan x="0" y="0">I</tspan></text>
  <text class="cls-2" transform="translate(43.8 58.36) rotate(-49.92)"><tspan x="0" y="0">p</tspan></text>
  <text class="cls-2" transform="translate(45.29 56.59) rotate(-48.79)"><tspan x="0" y="0">s</tspan></text>
  <text class="cls-2" transform="translate(46.52 55.19) rotate(-47.63)"><tspan x="0" y="0">u</tspan></text>
  <text class="cls-2" transform="translate(48.1 53.44) rotate(-46.03)"><tspan x="0" y="0">m</tspan></text>
  <text class="cls-2" transform="translate(50.52 50.95) rotate(-44.74)"><tspan x="0" y="0"> </tspan></text>
  <text class="cls-2" transform="translate(51.42 50.06) rotate(-43.92)"><tspan x="0" y="0">L</tspan></text>
  <text class="cls-2" transform="translate(52.65 48.87) rotate(-42.83)"><tspan x="0" y="0">o</tspan></text>
  <text class="cls-2" transform="translate(54.34 47.31) rotate(-41.76)"><tspan x="0" y="0">r</tspan></text>
  <text class="cls-2" transform="translate(55.57 46.21) rotate(-40.68)"><tspan x="0" y="0">e</tspan></text>
  <text class="cls-2" transform="translate(57.3 44.71) rotate(-39.11)"><tspan x="0" y="0">m</tspan></text>
  <text class="cls-2" transform="translate(59.97 42.55) rotate(-37.84)"><tspan x="0" y="0"> </tspan></text>
  <text class="cls-2" transform="translate(60.97 41.78) rotate(-37.15)"><tspan x="0" y="0">I</tspan></text>
  <text class="cls-2" transform="translate(62 40.99) rotate(-36.16)"><tspan x="0" y="0">p</tspan></text>
  <text class="cls-2" transform="translate(63.89 39.61) rotate(-35.02)"><tspan x="0" y="0">s</tspan></text>
  <text class="cls-2" transform="translate(65.4 38.55) rotate(-33.88)"><tspan x="0" y="0">u</tspan></text>
  <text class="cls-2" transform="translate(67.35 37.23) rotate(-32.3)"><tspan x="0" y="0">m</tspan></text>
  <text class="cls-2" transform="translate(70.29 35.39) rotate(-31.02)"><tspan x="0" y="0"> </tspan></text>
  <text class="cls-2" transform="translate(71.36 34.74) rotate(-30.21)"><tspan x="0" y="0">L</tspan></text>
  <text class="cls-2" transform="translate(72.85 33.87) rotate(-29.12)"><tspan x="0" y="0">o</tspan></text>
  <text class="cls-2" transform="translate(74.87 32.75) rotate(-28.05)"><tspan x="0" y="0">r</tspan></text>
  <text class="cls-2" transform="translate(76.32 31.97) rotate(-26.99)"><tspan x="0" y="0">e</tspan></text>
  <text class="cls-2" transform="translate(78.34 30.93) rotate(-25.43)"><tspan x="0" y="0">m</tspan></text>
  <text class="cls-2" transform="translate(81.49 29.45) rotate(-24.14)"><tspan x="0" y="0"> </tspan></text>
  <text class="cls-2" transform="translate(82.62 28.94) rotate(-23.46)"><tspan x="0" y="0">I</tspan></text>
  <text class="cls-2" transform="translate(83.8 28.43) rotate(-22.48)"><tspan x="0" y="0">p</tspan></text>
  <text class="cls-2" transform="translate(85.95 27.54) rotate(-21.34)"><tspan x="0" y="0">s</tspan></text>
  <text class="cls-1" transform="translate(87.68 26.86) rotate(-20.21)"><tspan x="0" y="0">u</tspan></text>
  <text class="cls-1" transform="translate(89.81 26.07) rotate(-18.7)"><tspan x="0" y="0">m</tspan></text>
  <text class="cls-1" transform="translate(92.94 25.02) rotate(-17.45)"><tspan x="0" y="0"> </tspan></text>
  <text class="cls-1" transform="translate(94.18 24.63) rotate(-16.59)"><tspan x="0" y="0">L</tspan></text>
  <text class="cls-1" transform="translate(95.95 24.1) rotate(-15.4)"><tspan x="0" y="0">o</tspan></text>
  <text class="cls-1" transform="translate(98.35 23.44) rotate(-14.3)"><tspan x="0" y="0">r</tspan></text>
  <text class="cls-1" transform="translate(99.83 23.06) rotate(-13.26)"><tspan x="0" y="0">e</tspan></text>
  <text class="cls-1" transform="translate(102.09 22.52) rotate(-11.72)"><tspan x="0" y="0">m</tspan></text>
  <text class="cls-1" transform="translate(105.3 21.87) rotate(-10.48)"><tspan x="0" y="0"> </tspan></text>
  <text class="cls-1" transform="translate(106.58 21.63) rotate(-9.78)"><tspan x="0" y="0">I</tspan></text>
  <text class="cls-1" transform="translate(107.8 21.41) rotate(-8.75)"><tspan x="0" y="0">p</tspan></text>
  <text class="cls-1" transform="translate(110.25 21.04) rotate(-7.62)"><tspan x="0" y="0">s</tspan></text>
  <text class="cls-1" transform="translate(111.94 20.81) rotate(-6.52)"><tspan x="0" y="0">u</tspan></text>
  <text class="cls-1" transform="translate(114.17 20.55) rotate(-5)"><tspan x="0" y="0">m</tspan></text>
  <text class="cls-1" transform="translate(117.46 20.27) rotate(-3.59)"><tspan x="0" y="0">L</tspan></text>
  <text class="cls-1" transform="translate(119.32 20.15) rotate(-2.38)"><tspan x="0" y="0">o</tspan></text>
  <text class="cls-1" transform="translate(121.83 20.05) rotate(-1.26)"><tspan x="0" y="0">r</tspan></text>
  <text class="cls-1" transform="translate(123.35 20.01) rotate(-.22)"><tspan x="0" y="0">e</tspan></text>
  <text class="cls-1" transform="translate(125.65 20) rotate(1.32)"><tspan x="0" y="0">m</tspan></text>
  <text class="cls-1" transform="translate(128.96 20.08) rotate(2.58)"><tspan x="0" y="0"> </tspan></text>
  <text class="cls-1" transform="translate(130.23 20.14) rotate(3.26)"><tspan x="0" y="0">I</tspan></text>
  <text class="cls-1" transform="translate(131.46 20.2) rotate(4.3)"><tspan x="0" y="0">p</tspan></text>
  <text class="cls-1" transform="translate(133.95 20.4) rotate(5.44)"><tspan x="0" y="0">s</tspan></text>
  <text class="cls-1" transform="translate(135.62 20.55) rotate(6.52)"><tspan x="0" y="0">u</tspan></text>
  <text class="cls-1" transform="translate(137.89 20.81) rotate(8.05)"><tspan x="0" y="0">m</tspan></text>
  <text class="cls-1" transform="translate(141.16 21.28) rotate(9.45)"><tspan x="0" y="0">L</tspan></text>
  <text class="cls-1" transform="translate(142.99 21.58) rotate(10.64)"><tspan x="0" y="0">o</tspan></text>
  <text class="cls-1" transform="translate(145.44 22.04) rotate(11.74)"><tspan x="0" y="0">r</tspan></text>
  <text class="cls-1" transform="translate(146.94 22.35) rotate(12.77)"><tspan x="0" y="0">e</tspan></text>
  <text class="cls-1" transform="translate(149.19 22.85) rotate(14.27)"><tspan x="0" y="0">m</tspan></text>
  <text class="cls-1" transform="translate(152.4 23.69) rotate(14.89)"><tspan x="0" y="0"> </tspan></text>
  <text class="cls-1" transform="translate(153.64 24.02) rotate(16.74)"><tspan x="0" y="0">I</tspan></text>
  <text class="cls-1" transform="translate(154.81 24.36) rotate(17.18)"><tspan x="0" y="0">p</tspan></text>
  <text class="cls-1" transform="translate(157.21 25.11) rotate(18.31)"><tspan x="0" y="0">s</tspan></text>
  <text class="cls-1" transform="translate(158.81 25.63) rotate(19.37)"><tspan x="0" y="0">u</tspan></text>
  <text class="cls-1" transform="translate(160.95 26.37) rotate(20.88)"><tspan x="0" y="0">m</tspan></text>
  <text class="cls-1" transform="translate(164.03 27.56) rotate(22.28)"><tspan x="0" y="0">L</tspan></text>
  <text class="cls-1" transform="translate(165.74 28.26) rotate(23.47)"><tspan x="0" y="0">o</tspan></text>
  <text class="cls-1" transform="translate(168.03 29.26) rotate(24.57)"><tspan x="0" y="0">r</tspan></text>
  <text class="cls-1" transform="translate(169.43 29.89) rotate(25.62)"><tspan x="0" y="0">e</tspan></text>
  <text class="cls-1" transform="translate(171.52 30.88) rotate(27.16)"><tspan x="0" y="0">m</tspan></text>
  <text class="cls-1" transform="translate(174.45 32.4) rotate(28.41)"><tspan x="0" y="0"> </tspan></text>
  <text class="cls-1" transform="translate(175.58 33.01) rotate(29.11)"><tspan x="0" y="0">I</tspan></text>
  <text class="cls-1" transform="translate(176.66 33.61) rotate(30.13)"><tspan x="0" y="0">p</tspan></text>
  <text class="cls-1" transform="translate(178.8 34.85) rotate(31.27)"><tspan x="0" y="0">s</tspan></text>
  <text class="cls-1" transform="translate(180.25 35.73) rotate(32.36)"><tspan x="0" y="0">u</tspan></text>
  <text class="cls-1" transform="translate(182.16 36.93) rotate(33.89)"><tspan x="0" y="0">m</tspan></text>
  <text class="cls-1" transform="translate(184.9 38.79) rotate(35.31)"><tspan x="0" y="0">L</tspan></text>
  <text class="cls-1" transform="translate(186.42 39.86) rotate(36.51)"><tspan x="0" y="0">o</tspan></text>
  <text class="cls-1" transform="translate(188.43 41.35) rotate(37.62)"><tspan x="0" y="0">r</tspan></text>
  <text class="cls-1" transform="translate(189.65 42.29) rotate(38.68)"><tspan x="0" y="0">e</tspan></text>
  <text class="cls-1" transform="translate(191.45 43.71) rotate(40.21)"><tspan x="0" y="0">m</tspan></text>
  <text class="cls-1" transform="translate(193.96 45.86) rotate(41.47)"><tspan x="0" y="0"> </tspan></text>
  <text class="cls-1" transform="translate(194.92 46.71) rotate(42.15)"><tspan x="0" y="0">I</tspan></text>
  <text class="cls-1" transform="translate(195.84 47.53) rotate(43.18)"><tspan x="0" y="0">p</tspan></text>
  <text class="cls-1" transform="translate(197.67 49.25) rotate(44.33)"><tspan x="0" y="0">s</tspan></text>
  <text class="cls-1" transform="translate(198.88 50.43) rotate(45.41)"><tspan x="0" y="0">u</tspan></text>
  <text class="cls-1" transform="translate(200.47 52.03) rotate(46.93)"><tspan x="0" y="0">m</tspan></text>
  <text class="cls-1" transform="translate(202.72 54.45) rotate(48.33)"><tspan x="0" y="0">L</tspan></text>
  <text class="cls-1" transform="translate(203.94 55.82) rotate(49.51)"><tspan x="0" y="0">o</tspan></text>
  <text class="cls-1" transform="translate(205.57 57.73) rotate(50.62)"><tspan x="0" y="0">r</tspan></text>
  <text class="cls-1" transform="translate(206.55 58.92) rotate(51.66)"><tspan x="0" y="0">e</tspan></text>
  <text class="cls-1" transform="translate(207.99 60.72) rotate(53.19)"><tspan x="0" y="0">m</tspan></text>
  <text class="cls-1" transform="translate(209.95 63.37) rotate(54.43)"><tspan x="0" y="0"> </tspan></text>
  <text class="cls-1" transform="translate(210.7 64.42) rotate(55.11)"><tspan x="0" y="0">I</tspan></text>
  <text class="cls-1" transform="translate(211.4 65.41) rotate(56.12)"><tspan x="0" y="0">p</tspan></text>
  <text class="cls-1" transform="translate(212.8 67.5) rotate(57.26)"><tspan x="0" y="0">s</tspan></text>
  <text class="cls-1" transform="translate(213.72 68.92) rotate(58.34)"><tspan x="0" y="0">u</tspan></text>
  <text class="cls-1" transform="translate(214.91 70.84) rotate(59.84)"><tspan x="0" y="0">m</tspan></text>
  <text class="cls-1" transform="translate(216.56 73.71) rotate(61.24)"><tspan x="0" y="0">L</tspan></text>
  <text class="cls-1" transform="translate(217.45 75.31) rotate(62.42)"><tspan x="0" y="0">o</tspan></text>
  <text class="cls-1" transform="translate(218.61 77.55) rotate(63.53)"><tspan x="0" y="0">r</tspan></text>
  <text class="cls-1" transform="translate(219.29 78.9) rotate(64.55)"><tspan x="0" y="0">e</tspan></text>
  <text class="cls-1" transform="translate(220.29 80.98) rotate(66.07)"><tspan x="0" y="0">m</tspan></text>
  <text class="cls-1" transform="translate(221.62 84.01) rotate(67.32)"><tspan x="0" y="0"> </tspan></text>
  <text class="cls-1" transform="translate(222.11 85.18) rotate(68)"><tspan x="0" y="0">I</tspan></text>
  <text class="cls-1" transform="translate(222.59 86.35) rotate(69.02)"><tspan x="0" y="0">p</tspan></text>
  <text class="cls-1" transform="translate(223.48 88.68) rotate(70.16)"><tspan x="0" y="0">s</tspan></text>
  <text class="cls-1" transform="translate(224.05 90.26) rotate(71.24)"><tspan x="0" y="0">u</tspan></text>
  <text class="cls-1" transform="translate(224.78 92.39) rotate(72.74)"><tspan x="0" y="0">m</tspan></text>
  <text class="cls-1" transform="translate(225.76 95.56) rotate(74.15)"><tspan x="0" y="0">L</tspan></text>
  <text class="cls-1" transform="translate(226.27 97.34) rotate(75.34)"><tspan x="0" y="0">o</tspan></text>
  <text class="cls-1" transform="translate(226.9 99.77) rotate(76.46)"><tspan x="0" y="0">r</tspan></text>
  <text class="cls-1" transform="translate(227.26 101.26) rotate(77.5)"><tspan x="0" y="0">e</tspan></text>
  <text class="cls-1" transform="translate(227.76 103.48) rotate(79.02)"><tspan x="0" y="0">m</tspan></text>
  <text class="cls-1" transform="translate(228.38 106.74) rotate(80.29)"><tspan x="0" y="0"> </tspan></text>
  <text class="cls-1" transform="translate(228.6 108.01) rotate(80.97)"><tspan x="0" y="0">I</tspan></text>
  <text class="cls-1" transform="translate(228.8 109.21) rotate(81.99)"><tspan x="0" y="0">p</tspan></text>
  <text class="cls-1" transform="translate(229.14 111.71) rotate(83.15)"><tspan x="0" y="0">s</tspan></text>
  <text class="cls-1" transform="translate(229.34 113.36) rotate(84.23)"><tspan x="0" y="0">u</tspan></text>
  <text class="cls-1" transform="translate(229.58 115.62) rotate(85.76)"><tspan x="0" y="0">m</tspan></text>
  <text class="cls-1" transform="translate(229.81 118.92) rotate(87.02)"><tspan x="0" y="0"> </tspan></text>
  <text class="cls-1" transform="translate(229.88 120.2) rotate(87.88)"><tspan x="0" y="0">L</tspan></text>
  <text class="cls-1" transform="translate(229.95 122.05) rotate(89.08)"><tspan x="0" y="0">o</tspan></text>
  <text class="cls-1" transform="translate(229.99 124.57) rotate(90.21)"><tspan x="0" y="0">r</tspan></text>
  <text class="cls-1" transform="translate(229.99 126.1) rotate(91.25)"><tspan x="0" y="0">e</tspan></text>
  <text class="cls-1" transform="translate(229.95 128.38) rotate(92.78)"><tspan x="0" y="0">m</tspan></text>
  <text class="cls-1" transform="translate(229.77 131.7) rotate(94.05)"><tspan x="0" y="0"> </tspan></text>
  <text class="cls-1" transform="translate(229.68 132.97) rotate(94.73)"><tspan x="0" y="0">I</tspan></text>
  <text class="cls-1" transform="translate(229.59 134.19) rotate(95.76)"><tspan x="0" y="0">p</tspan></text>
  <text class="cls-1" transform="translate(229.33 136.68) rotate(96.9)"><tspan x="0" y="0">s</tspan></text>
  <text class="cls-1" transform="translate(229.13 138.36) rotate(97.98)"><tspan x="0" y="0">u</tspan></text>
  <text class="cls-1" transform="translate(228.83 140.59) rotate(99.5)"><tspan x="0" y="0">m</tspan></text>
  <text class="cls-1" transform="translate(228.27 143.85) rotate(100.74)"><tspan x="0" y="0"> </tspan></text>
  <text class="cls-1" transform="translate(228.03 145.13) rotate(101.6)"><tspan x="0" y="0">L</tspan></text>
  <text class="cls-1" transform="translate(227.66 146.94) rotate(102.78)"><tspan x="0" y="0">o</tspan></text>
  <text class="cls-1" transform="translate(227.11 149.37) rotate(103.86)"><tspan x="0" y="0">r</tspan></text>
  <text class="cls-1" transform="translate(226.74 150.85) rotate(104.89)"><tspan x="0" y="0">e</tspan></text>
  <text class="cls-1" transform="translate(226.17 153.08) rotate(106.74)"><tspan x="0" y="0">m</tspan></text>
  <text class="cls-1" transform="translate(225.21 156.26) rotate(107.62)"><tspan x="0" y="0"> </tspan></text>
  <text class="cls-1" transform="translate(224.82 157.49) rotate(108.3)"><tspan x="0" y="0">I</tspan></text>
  <text class="cls-1" transform="translate(224.44 158.66) rotate(109.31)"><tspan x="0" y="0">p</tspan></text>
  <text class="cls-1" transform="translate(223.61 161.01) rotate(110.44)"><tspan x="0" y="0">s</tspan></text>
  <text class="cls-1" transform="translate(223.03 162.59) rotate(111.51)"><tspan x="0" y="0">u</tspan></text>
  <text class="cls-1" transform="translate(222.2 164.7) rotate(113.03)"><tspan x="0" y="0">m</tspan></text>
  <text class="cls-1" transform="translate(220.9 167.74) rotate(114.28)"><tspan x="0" y="0"> </tspan></text>
  <text class="cls-1" transform="translate(220.37 168.91) rotate(115.13)"><tspan x="0" y="0">L</tspan></text>
  <text class="cls-1" transform="translate(219.59 170.58) rotate(116.33)"><tspan x="0" y="0">o</tspan></text>
  <text class="cls-1" transform="translate(218.47 172.84) rotate(117.45)"><tspan x="0" y="0">r</tspan></text>
  <text class="cls-1" transform="translate(217.77 174.19) rotate(118.49)"><tspan x="0" y="0">e</tspan></text>
  <text class="cls-1" transform="translate(216.69 176.21) rotate(120.02)"><tspan x="0" y="0">m</tspan></text>
  <text class="cls-1" transform="translate(215.02 179.08) rotate(121.29)"><tspan x="0" y="0"> </tspan></text>
  <text class="cls-1" transform="translate(214.35 180.18) rotate(121.98)"><tspan x="0" y="0">I</tspan></text>
  <text class="cls-1" transform="translate(213.71 181.21) rotate(123)"><tspan x="0" y="0">p</tspan></text>
  <text class="cls-1" transform="translate(212.34 183.31) rotate(124.16)"><tspan x="0" y="0">s</tspan></text>
  <text class="cls-1" transform="translate(211.4 184.7) rotate(125.24)"><tspan x="0" y="0">u</tspan></text>
  <text class="cls-1" transform="translate(210.1 186.56) rotate(126.77)"><tspan x="0" y="0">m</tspan></text>
  <text class="cls-1" transform="translate(208.1 189.21) rotate(128.19)"><tspan x="0" y="0">L</tspan></text>
  <text class="cls-1" transform="translate(206.98 190.65) rotate(129.38)"><tspan x="0" y="0">o</tspan></text>
  <text class="cls-1" transform="translate(205.38 192.59) rotate(130.49)"><tspan x="0" y="0">r</tspan></text>
  <text class="cls-1" transform="translate(204.39 193.76) rotate(131.54)"><tspan x="0" y="0">e</tspan></text>
  <text class="cls-1" transform="translate(202.86 195.49) rotate(133.08)"><tspan x="0" y="0">m</tspan></text>
  <text class="cls-1" transform="translate(200.6 197.89) rotate(134.33)"><tspan x="0" y="0"> </tspan></text>
  <text class="cls-1" transform="translate(199.7 198.82) rotate(135.02)"><tspan x="0" y="0">I</tspan></text>
  <text class="cls-1" transform="translate(198.84 199.69) rotate(136.04)"><tspan x="0" y="0">p</tspan></text>
  <text class="cls-1" transform="translate(197.03 201.42) rotate(137.19)"><tspan x="0" y="0">s</tspan></text>
  <text class="cls-1" transform="translate(195.79 202.57) rotate(138.26)"><tspan x="0" y="0">u</tspan></text>
  <text class="cls-1" transform="translate(194.12 204.07) rotate(139.77)"><tspan x="0" y="0">m</tspan></text>
  <text class="cls-1" transform="translate(191.58 206.21) rotate(141.18)"><tspan x="0" y="0">L</tspan></text>
  <text class="cls-1" transform="translate(190.14 207.38) rotate(142.37)"><tspan x="0" y="0">o</tspan></text>
  <text class="cls-1" transform="translate(188.16 208.89) rotate(143.46)"><tspan x="0" y="0">r</tspan></text>
  <text class="cls-1" transform="translate(186.93 209.81) rotate(144.5)"><tspan x="0" y="0">e</tspan></text>
  <text class="cls-1" transform="translate(185.05 211.16) rotate(146.03)"><tspan x="0" y="0">m</tspan></text>
  <text class="cls-1" transform="translate(182.31 212.99) rotate(147.27)"><tspan x="0" y="0"> </tspan></text>
  <text class="cls-1" transform="translate(181.23 213.69) rotate(147.95)"><tspan x="0" y="0">I</tspan></text>
  <text class="cls-1" transform="translate(180.2 214.34) rotate(148.96)"><tspan x="0" y="0">p</tspan></text>
  <text class="cls-1" transform="translate(178.05 215.63) rotate(150.1)"><tspan x="0" y="0">s</tspan></text>
  <text class="cls-1" transform="translate(176.58 216.48) rotate(151.18)"><tspan x="0" y="0">u</tspan></text>
  <text class="cls-1" transform="translate(174.6 217.57) rotate(152.68)"><tspan x="0" y="0">m</tspan></text>
  <text class="cls-1" transform="translate(171.65 219.08) rotate(153.93)"><tspan x="0" y="0"> </tspan></text>
  <text class="cls-1" transform="translate(170.52 219.64) rotate(154.62)"><tspan x="0" y="0"> </tspan></text>
  <text class="cls-1" transform="translate(169.35 220.2) rotate(155.32)"><tspan x="0" y="0"> </tspan></text>
  <text class="cls-1" transform="translate(168.17 220.74) rotate(156.18)"><tspan x="0" y="0">L</tspan></text>
  <text class="cls-1" transform="translate(166.49 221.48) rotate(157.35)"><tspan x="0" y="0">o</tspan></text>
  <text class="cls-1" transform="translate(164.18 222.44) rotate(158.46)"><tspan x="0" y="0">r</tspan></text>
  <text class="cls-1" transform="translate(162.75 223.01) rotate(159.5)"><tspan x="0" y="0">e</tspan></text>
  <text class="cls-1" transform="translate(160.6 223.82) rotate(161.02)"><tspan x="0" y="0">m</tspan></text>
  <text class="cls-1" transform="translate(157.47 224.89) rotate(162.27)"><tspan x="0" y="0"> </tspan></text>
  <text class="cls-1" transform="translate(156.24 225.28) rotate(162.96)"><tspan x="0" y="0">I</tspan></text>
  <text class="cls-1" transform="translate(155.07 225.65) rotate(163.97)"><tspan x="0" y="0">p</tspan></text>
  <text class="cls-1" transform="translate(152.66 226.33) rotate(165.12)"><tspan x="0" y="0">s</tspan></text>
  <text class="cls-1" transform="translate(151.03 226.77) rotate(166.2)"><tspan x="0" y="0">u</tspan></text>
  <text class="cls-1" transform="translate(148.84 227.32) rotate(167.72)"><tspan x="0" y="0">m</tspan></text>
  <text class="cls-1" transform="translate(145.6 228.01) rotate(169.13)"><tspan x="0" y="0">L</tspan></text>
  <text class="cls-1" transform="translate(143.8 228.36) rotate(170.32)"><tspan x="0" y="0">o</tspan></text>
  <text class="cls-1" transform="translate(141.32 228.78) rotate(171.43)"><tspan x="0" y="0">r</tspan></text>
  <text class="cls-1" transform="translate(139.82 229.01) rotate(172.47)"><tspan x="0" y="0">e</tspan></text>
  <text class="cls-1" transform="translate(137.54 229.32) rotate(174.01)"><tspan x="0" y="0">m</tspan></text>
  <text class="cls-1" transform="translate(134.24 229.65) rotate(175.28)"><tspan x="0" y="0"> </tspan></text>
  <text class="cls-1" transform="translate(132.95 229.76) rotate(175.97)"><tspan x="0" y="0">I</tspan></text>
  <text class="cls-1" transform="translate(131.75 229.85) rotate(176.99)"><tspan x="0" y="0">p</tspan></text>
  <text class="cls-1" transform="translate(129.25 229.98) rotate(178.14)"><tspan x="0" y="0">s</tspan></text>
  <text class="cls-1" transform="translate(127.57 230.04) rotate(179.23)"><tspan x="0" y="0">u</tspan></text>
  <text class="cls-1" transform="translate(125.29 230.07) rotate(-179.24)"><tspan x="0" y="0">m</tspan></text>
  <text class="cls-1" transform="translate(122 230.02) rotate(-177.83)"><tspan x="0" y="0">L</tspan></text>
  <text class="cls-1" transform="translate(120.13 229.95) rotate(-176.62)"><tspan x="0" y="0">o</tspan></text>
  <text class="cls-1" transform="translate(117.64 229.8) rotate(-175.51)"><tspan x="0" y="0">r</tspan></text>
  <text class="cls-1" transform="translate(116.13 229.69) rotate(-174.42)"><tspan x="0" y="0">o</tspan></text>
  <text class="cls-1" transform="translate(113.62 229.44) rotate(-173.3)"><tspan x="0" y="0">r</tspan></text>
  <text class="cls-1" transform="translate(112.11 229.26) rotate(-172.26)"><tspan x="0" y="0">e</tspan></text>
  <text class="cls-1" transform="translate(109.81 228.96) rotate(-170.73)"><tspan x="0" y="0">m</tspan></text>
  <text class="cls-1" transform="translate(106.56 228.42) rotate(-169.49)"><tspan x="0" y="0"> </tspan></text>
  <text class="cls-1" transform="translate(105.3 228.18) rotate(-168.81)"><tspan x="0" y="0">I</tspan></text>
  <text class="cls-1" transform="translate(104.1 227.95) rotate(-167.8)"><tspan x="0" y="0">p</tspan></text>
  <text class="cls-1" transform="translate(101.65 227.42) rotate(-166.67)"><tspan x="0" y="0">s</tspan></text>
  <text class="cls-1" transform="translate(100.01 227.03) rotate(-165.6)"><tspan x="0" y="0">u</tspan></text>
  <text class="cls-1" transform="translate(97.81 226.5) rotate(-163.26)"><tspan x="0" y="0">m</tspan></text>
  <text class="cls-1" transform="translate(94.64 225.56) rotate(-162.73)"><tspan x="0" y="0">L</tspan></text>
  <text class="cls-1" transform="translate(92.86 225.01) rotate(-161.56)"><tspan x="0" y="0">o</tspan></text>
  <text class="cls-1" transform="translate(90.5 224.22) rotate(-160.47)"><tspan x="0" y="0">r</tspan></text>
  <text class="cls-1" transform="translate(89.04 223.71) rotate(-159.43)"><tspan x="0" y="0">e</tspan></text>
  <text class="cls-1" transform="translate(86.89 222.91) rotate(-157.91)"><tspan x="0" y="0">m</tspan></text>
  <text class="cls-1" transform="translate(83.85 221.66) rotate(-156.67)"><tspan x="0" y="0"> </tspan></text>
  <text class="cls-1" transform="translate(82.64 221.14) rotate(-155.97)"><tspan x="0" y="0">I</tspan></text>
  <text class="cls-1" transform="translate(81.53 220.65) rotate(-154.96)"><tspan x="0" y="0">p</tspan></text>
  <text class="cls-1" transform="translate(79.27 219.59) rotate(-153.81)"><tspan x="0" y="0">s</tspan></text>
  <text class="cls-1" transform="translate(77.75 218.85) rotate(-152.72)"><tspan x="0" y="0">u</tspan></text>
  <text class="cls-1" transform="translate(75.72 217.81) rotate(-151.19)"><tspan x="0" y="0">m</tspan></text>
  <text class="cls-1" transform="translate(72.84 216.21) rotate(-149.93)"><tspan x="0" y="0"> </tspan></text>
  <text class="cls-1" transform="translate(71.72 215.56) rotate(-149.22)"><tspan x="0" y="0"> </tspan></text>
  <text class="cls-1" transform="translate(70.62 214.91) rotate(-148.52)"><tspan x="0" y="0"> </tspan></text>
  <text class="cls-1" transform="translate(69.53 214.25) rotate(-147.66)"><tspan x="0" y="0">L</tspan></text>
  <text class="cls-1" transform="translate(67.97 213.26) rotate(-146.46)"><tspan x="0" y="0">o</tspan></text>
  <text class="cls-1" transform="translate(65.88 211.87) rotate(-145.34)"><tspan x="0" y="0">r</tspan></text>
  <text class="cls-1" transform="translate(64.61 211) rotate(-144.29)"><tspan x="0" y="0">e</tspan></text>
  <text class="cls-1" transform="translate(62.74 209.66) rotate(-142.75)"><tspan x="0" y="0">m</tspan></text>
  <text class="cls-1" transform="translate(60.12 207.66) rotate(-141.5)"><tspan x="0" y="0"> </tspan></text>
  <text class="cls-1" transform="translate(59.11 206.86) rotate(-140.81)"><tspan x="0" y="0">I</tspan></text>
  <text class="cls-1" transform="translate(58.17 206.09) rotate(-139.79)"><tspan x="0" y="0">p</tspan></text>
  <text class="cls-1" transform="translate(56.25 204.47) rotate(-138.63)"><tspan x="0" y="0">s</tspan></text>
  <text class="cls-1" transform="translate(54.99 203.36) rotate(-137.55)"><tspan x="0" y="0">u</tspan></text>
  <text class="cls-1" transform="translate(53.29 201.82) rotate(-136.02)"><tspan x="0" y="0">m</tspan></text>
  <text class="cls-1" transform="translate(50.93 199.53) rotate(-134.62)"><tspan x="0" y="0">L</tspan></text>
  <text class="cls-1" transform="translate(49.63 198.22) rotate(-133.43)"><tspan x="0" y="0">o</tspan></text>
  <text class="cls-1" transform="translate(47.91 196.39) rotate(-132.32)"><tspan x="0" y="0">r</tspan></text>
  <text class="cls-1" transform="translate(46.88 195.27) rotate(-131.28)"><tspan x="0" y="0">e</tspan></text>
  <text class="cls-1" transform="translate(45.35 193.54) rotate(-129.75)"><tspan x="0" y="0">m</tspan></text>
  <text class="cls-1" transform="translate(43.25 190.99) rotate(-128.51)"><tspan x="0" y="0"> </tspan></text>
  <text class="cls-1" transform="translate(42.45 189.98) rotate(-127.82)"><tspan x="0" y="0">I</tspan></text>
  <text class="cls-1" transform="translate(41.7 189.03) rotate(-126.81)"><tspan x="0" y="0">p</tspan></text>
  <text class="cls-1" transform="translate(40.2 187.02) rotate(-125.68)"><tspan x="0" y="0">s</tspan></text>
  <text class="cls-1" transform="translate(39.21 185.65) rotate(-124.6)"><tspan x="0" y="0">u</tspan></text>
  <text class="cls-1" transform="translate(37.92 183.79) rotate(-123.09)"><tspan x="0" y="0">m</tspan></text>
  <text class="cls-1" transform="translate(36.12 181.01) rotate(-121.69)"><tspan x="0" y="0">L</tspan></text>
  <text class="cls-1" transform="translate(35.15 179.44) rotate(-120.51)"><tspan x="0" y="0">o</tspan></text>
  <text class="cls-1" transform="translate(33.88 177.28) rotate(-119.41)"><tspan x="0" y="0">r</tspan></text>
  <text class="cls-1" transform="translate(33.12 175.94) rotate(-118.37)"><tspan x="0" y="0">e</tspan></text>
  <text class="cls-1" transform="translate(32.03 173.93) rotate(-116.86)"><tspan x="0" y="0">m</tspan></text>
  <text class="cls-1" transform="translate(30.55 170.98) rotate(-115.62)"><tspan x="0" y="0"> </tspan></text>
  <text class="cls-1" transform="translate(29.98 169.82) rotate(-114.63)"><tspan x="0" y="0">E</tspan></text>
  <text class="cls-1" transform="translate(29.01 167.69) rotate(-113.37)"><tspan x="0" y="0">n</tspan></text>
  <text class="cls-1" transform="translate(28.1 165.58) rotate(-112.07)"><tspan x="0" y="0">d</tspan></text>
</svg>