<?xml version="1.0" encoding="UTF-8"?>
<svg id="Layer_11" data-name="Layer 11" xmlns="http://www.w3.org/2000/svg" viewBox="0 0 250 250">
  <defs>
    <style>
      .cls-1 {
        font-family: Futura-CondensedExtraBold, Futura;
        font-weight: 700;
      }

      .cls-1, .cls-2 {
        fill: #231f20;
        font-size: 2.9px;
      }

      .cls-2 {
        font-family: Futura-Medium, Futura;
        font-weight: 500;
      }
    </style>
  </defs>
  <text class="cls-2" transform="translate(157.6 79.09) rotate(36.35)"><tspan x="0" y="0">I</tspan></text>
  <text class="cls-2" transform="translate(158.3 79.59) rotate(37.05)"><tspan x="0" y="0">n</tspan></text>
  <text class="cls-2" transform="translate(159.55 80.54) rotate(38.28)"><tspan x="0" y="0"> </tspan></text>
  <text class="cls-2" transform="translate(160.24 81.08) rotate(39.59)"><tspan x="0" y="0">p</tspan></text>
  <text class="cls-2" transform="translate(161.57 82.19) rotate(41.02)"><tspan x="0" y="0">r</tspan></text>
  <text class="cls-2" transform="translate(162.37 82.88) rotate(42.42)"><tspan x="0" y="0">o</tspan></text>
  <text class="cls-2" transform="translate(163.64 84.04) rotate(43.73)"><tspan x="0" y="0">f</tspan></text>
  <text class="cls-2" transform="translate(164.28 84.65) rotate(45.01)"><tspan x="0" y="0">e</tspan></text>
  <text class="cls-2" transform="translate(165.41 85.78) rotate(46.43)"><tspan x="0" y="0">s</tspan></text>
  <text class="cls-2" transform="translate(166.21 86.62) rotate(47.61)"><tspan x="0" y="0">s</tspan></text>
  <text class="cls-2" transform="translate(167 87.49) rotate(48.58)"><tspan x="0" y="0">i</tspan></text>
  <text class="cls-2" transform="translate(167.47 88.02) rotate(49.83)"><tspan x="0" y="0">o</tspan></text>
  <text class="cls-2" transform="translate(168.58 89.33) rotate(51.52)"><tspan x="0" y="0">n</tspan></text>
  <text class="cls-2" transform="translate(169.56 90.56) rotate(53.21)"><tspan x="0" y="0">a</tspan></text>
  <text class="cls-2" transform="translate(170.6 91.96) rotate(54.47)"><tspan x="0" y="0">l</tspan></text>
  <text class="cls-2" transform="translate(171.01 92.54) rotate(55.29)"><tspan x="0" y="0"> </tspan></text>
  <text class="cls-2" transform="translate(171.52 93.26) rotate(56.63)"><tspan x="0" y="0">a</tspan></text>
  <text class="cls-2" transform="translate(172.46 94.68) rotate(58.66)"><tspan x="0" y="0">m</tspan></text>
  <text class="cls-2" transform="translate(173.64 96.63) rotate(60.65)"><tspan x="0" y="0">e</tspan></text>
  <text class="cls-2" transform="translate(174.42 98.01) rotate(62)"><tspan x="0" y="0">r</tspan></text>
  <text class="cls-2" transform="translate(174.94 99) rotate(62.96)"><tspan x="0" y="0">i</tspan></text>
  <text class="cls-2" transform="translate(175.27 99.63) rotate(64.02)"><tspan x="0" y="0">c</tspan></text>
  <text class="cls-2" transform="translate(175.87 100.87) rotate(65.6)"><tspan x="0" y="0">a</tspan></text>
  <text class="cls-2" transform="translate(176.57 102.42) rotate(67.27)"><tspan x="0" y="0">n</tspan></text>
  <text class="cls-2" transform="translate(177.18 103.88) rotate(68.52)"><tspan x="0" y="0"> </tspan></text>
  <text class="cls-2" transform="translate(177.51 104.7) rotate(69.85)"><tspan x="0" y="0">b</tspan></text>
  <text class="cls-2" transform="translate(178.11 106.33) rotate(71.61)"><tspan x="0" y="0">a</tspan></text>
  <text class="cls-2" transform="translate(178.65 107.97) rotate(73.03)"><tspan x="0" y="0">r</tspan></text>
  <text class="cls-2" transform="translate(178.96 108.99) rotate(74.44)"><tspan x="0" y="0">b</tspan></text>
  <text class="cls-2" transform="translate(179.42 110.64) rotate(76.11)"><tspan x="0" y="0">e</tspan></text>
  <text class="cls-2" transform="translate(179.8 112.17) rotate(77.77)"><tspan x="0" y="0">q</tspan></text>
  <text class="cls-2" transform="translate(180.17 113.9) rotate(79.48)"><tspan x="0" y="0">u</tspan></text>
  <text class="cls-2" transform="translate(180.46 115.42) rotate(81.06)"><tspan x="0" y="0">e</tspan></text>
  <text class="cls-2" transform="translate(180.7 117) rotate(82.32)"><tspan x="0" y="0"> </tspan></text>
  <text class="cls-2" transform="translate(180.82 117.86) rotate(83.45)"><tspan x="0" y="0">c</tspan></text>
  <text class="cls-2" transform="translate(180.98 119.24) rotate(85.03)"><tspan x="0" y="0">o</tspan></text>
  <text class="cls-2" transform="translate(181.13 120.94) rotate(87.04)"><tspan x="0" y="0">m</tspan></text>
  <text class="cls-2" transform="translate(181.25 123.24) rotate(89.1)"><tspan x="0" y="0">p</tspan></text>
  <text class="cls-2" transform="translate(181.27 124.98) rotate(90.8)"><tspan x="0" y="0">e</tspan></text>
  <text class="cls-2" transform="translate(181.25 126.59) rotate(92.02)"><tspan x="0" y="0">t</tspan></text>
  <text class="cls-2" transform="translate(181.22 127.41) rotate(93.27)"><tspan x="0" y="0">e</tspan></text>
  <text class="cls-2" transform="translate(181.13 129) rotate(94.48)"><tspan x="0" y="0">t</tspan></text>
  <text class="cls-2" transform="translate(181.06 129.8) rotate(95.26)"><tspan x="0" y="0">i</tspan></text>
  <text class="cls-2" transform="translate(181.01 130.5) rotate(96.5)"><tspan x="0" y="0">o</tspan></text>
  <text class="cls-2" transform="translate(180.81 132.22) rotate(98.19)"><tspan x="0" y="0">n</tspan></text>
  <text class="cls-2" transform="translate(180.58 133.77) rotate(99.59)"><tspan x="0" y="0">s</tspan></text>
  <text class="cls-2" transform="translate(180.39 134.92) rotate(100.63)"><tspan x="0" y="0">,</tspan></text>
  <text class="cls-2" transform="translate(180.23 135.78) rotate(101.53)"><tspan x="0" y="0"> </tspan></text>
  <text class="cls-2" transform="translate(180.05 136.66) rotate(102.69)"><tspan x="0" y="0">c</tspan></text>
  <text class="cls-2" transform="translate(179.75 137.99) rotate(104.27)"><tspan x="0" y="0">o</tspan></text>
  <text class="cls-2" transform="translate(179.33 139.67) rotate(105.97)"><tspan x="0" y="0">n</tspan></text>
  <text class="cls-2" transform="translate(178.89 141.17) rotate(107.17)"><tspan x="0" y="0">t</tspan></text>
  <text class="cls-2" transform="translate(178.65 141.96) rotate(108.43)"><tspan x="0" y="0">e</tspan></text>
  <text class="cls-2" transform="translate(178.15 143.45) rotate(109.83)"><tspan x="0" y="0">s</tspan></text>
  <text class="cls-2" transform="translate(177.75 144.55) rotate(110.84)"><tspan x="0" y="0">t</tspan></text>
  <text class="cls-2" transform="translate(177.47 145.31) rotate(112.15)"><tspan x="0" y="0">a</tspan></text>
  <text class="cls-2" transform="translate(176.82 146.9) rotate(113.84)"><tspan x="0" y="0">n</tspan></text>
  <text class="cls-2" transform="translate(176.18 148.35) rotate(115.05)"><tspan x="0" y="0">t</tspan></text>
  <text class="cls-2" transform="translate(175.85 149.05) rotate(116.04)"><tspan x="0" y="0">s</tspan></text>
  <text class="cls-2" transform="translate(175.33 150.11) rotate(117.09)"><tspan x="0" y="0"> </tspan></text>
  <text class="cls-1" transform="translate(174.94 150.89) rotate(118.36)"><tspan x="0" y="0">p</tspan></text>
  <text class="cls-1" transform="translate(174.18 152.3) rotate(119.96)"><tspan x="0" y="0">e</tspan></text>
  <text class="cls-1" transform="translate(173.4 153.66) rotate(121.54)"><tspan x="0" y="0">e</tspan></text>
  <text class="cls-1" transform="translate(172.57 154.99) rotate(122.74)"><tspan x="0" y="0">l</tspan></text>
  <text class="cls-1" transform="translate(172.12 155.69) rotate(123.61)"><tspan x="0" y="0"> </tspan></text>
  <text class="cls-1" transform="translate(171.65 156.41) rotate(124.49)"><tspan x="0" y="0">o</tspan></text>
  <text class="cls-1" transform="translate(170.75 157.7) rotate(126.35)"><tspan x="0" y="0">f</tspan></text>
  <text class="cls-1" transform="translate(170.18 158.48) rotate(127.01)"><tspan x="0" y="0"> </tspan></text>
  <text class="cls-1" transform="translate(169.65 159.17) rotate(127.94)"><tspan x="0" y="0">t</tspan></text>
  <text class="cls-1" transform="translate(169.03 159.98) rotate(129.28)"><tspan x="0" y="0">h</tspan></text>
  <text class="cls-1" transform="translate(168.02 161.22) rotate(130.88)"><tspan x="0" y="0">e</tspan></text>
  <text class="cls-1" transform="translate(166.98 162.41) rotate(132.12)"><tspan x="0" y="0"> </tspan></text>
  <text class="cls-1" transform="translate(166.41 163.04) rotate(133.21)"><tspan x="0" y="0">s</tspan></text>
  <text class="cls-1" transform="translate(165.53 163.99) rotate(134.69)"><tspan x="0" y="0">k</tspan></text>
  <text class="cls-1" transform="translate(164.41 165.11) rotate(135.91)"><tspan x="0" y="0">i</tspan></text>
  <text class="cls-1" transform="translate(163.81 165.7) rotate(137.17)"><tspan x="0" y="0">n</tspan></text>
  <text class="cls-1" transform="translate(162.64 166.78) rotate(138.42)"><tspan x="0" y="0"> </tspan></text>
  <text class="cls-1" transform="translate(162.01 167.35) rotate(139.67)"><tspan x="0" y="0">o</tspan></text>
  <text class="cls-1" transform="translate(160.81 168.36) rotate(140.96)"><tspan x="0" y="0">f</tspan></text>
  <text class="cls-1" transform="translate(160.04 168.98) rotate(141.92)"><tspan x="0" y="0"> </tspan></text>
  <text class="cls-1" transform="translate(159.36 169.52) rotate(142.88)"><tspan x="0" y="0">c</tspan></text>
  <text class="cls-1" transform="translate(158.54 170.14) rotate(144.25)"><tspan x="0" y="0">h</tspan></text>
  <text class="cls-1" transform="translate(157.22 171.08) rotate(145.51)"><tspan x="0" y="0">i</tspan></text>
  <text class="cls-1" transform="translate(156.55 171.55) rotate(146.44)"><tspan x="0" y="0">c</tspan></text>
  <text class="cls-1" transform="translate(155.68 172.12) rotate(147.82)"><tspan x="0" y="0">k</tspan></text>
  <text class="cls-1" transform="translate(154.34 172.97) rotate(149.42)"><tspan x="0" y="0">e</tspan></text>
  <text class="cls-1" transform="translate(153.01 173.75) rotate(151.02)"><tspan x="0" y="0">n</tspan></text>
  <text class="cls-1" transform="translate(151.61 174.53) rotate(152.28)"><tspan x="0" y="0"> </tspan></text>
  <text class="cls-1" transform="translate(150.83 174.94) rotate(153.24)"><tspan x="0" y="0">t</tspan></text>
  <text class="cls-1" transform="translate(149.93 175.39) rotate(154.58)"><tspan x="0" y="0">h</tspan></text>
  <text class="cls-1" transform="translate(148.47 176.08) rotate(155.84)"><tspan x="0" y="0">i</tspan></text>
  <text class="cls-1" transform="translate(147.74 176.41) rotate(157.05)"><tspan x="0" y="0">g</tspan></text>
  <text class="cls-1" transform="translate(146.26 177.04) rotate(158.69)"><tspan x="0" y="0">h</tspan></text>
  <text class="cls-1" transform="translate(144.78 177.62) rotate(160.28)"><tspan x="0" y="0">e</tspan></text>
  <text class="cls-1" transform="translate(143.3 178.15) rotate(161.74)"><tspan x="0" y="0">s</tspan></text>
  <text class="cls-2" transform="translate(142.1 178.54) rotate(162.81)"><tspan x="0" y="0">,</tspan></text>
  <text class="cls-2" transform="translate(141.26 178.8) rotate(163.71)"><tspan x="0" y="0"> </tspan></text>
  <text class="cls-2" transform="translate(140.4 179.06) rotate(164.76)"><tspan x="0" y="0">s</tspan></text>
  <text class="cls-2" transform="translate(139.28 179.36) rotate(166.04)"><tspan x="0" y="0">c</tspan></text>
  <text class="cls-2" transform="translate(137.94 179.69) rotate(167.28)"><tspan x="0" y="0">r</tspan></text>
  <text class="cls-2" transform="translate(136.93 179.93) rotate(168.67)"><tspan x="0" y="0">a</tspan></text>
  <text class="cls-2" transform="translate(135.23 180.27) rotate(170.42)"><tspan x="0" y="0">p</tspan></text>
  <text class="cls-2" transform="translate(133.54 180.55) rotate(172.09)"><tspan x="0" y="0">e</tspan></text>
  <text class="cls-2" transform="translate(131.96 180.77) rotate(173.35)"><tspan x="0" y="0"> </tspan></text>
  <text class="cls-2" transform="translate(131.09 180.87) rotate(174.18)"><tspan x="0" y="0">t</tspan></text>
  <text class="cls-2" transform="translate(130.25 180.96) rotate(175.44)"><tspan x="0" y="0">h</tspan></text>
  <text class="cls-2" transform="translate(128.68 181.08) rotate(177.04)"><tspan x="0" y="0">e</tspan></text>
  <text class="cls-2" transform="translate(127.08 181.17) rotate(179.02)"><tspan x="0" y="0">m</tspan></text>
  <text class="cls-2" transform="translate(124.82 181.2) rotate(-179.39)"><tspan x="0" y="0"> </tspan></text>
  <text class="cls-2" transform="translate(123.93 181.2) rotate(-178.06)"><tspan x="0" y="0">o</tspan></text>
  <text class="cls-2" transform="translate(122.22 181.13) rotate(-176.77)"><tspan x="0" y="0">f</tspan></text>
  <text class="cls-2" transform="translate(121.35 181.09) rotate(-175.86)"><tspan x="0" y="0"> </tspan></text>
  <text class="cls-2" transform="translate(120.47 181.02) rotate(-175.02)"><tspan x="0" y="0">t</tspan></text>
  <text class="cls-2" transform="translate(119.64 180.95) rotate(-173.76)"><tspan x="0" y="0">h</tspan></text>
  <text class="cls-2" transform="translate(118.06 180.78) rotate(-172.14)"><tspan x="0" y="0">e</tspan></text>
  <text class="cls-2" transform="translate(116.49 180.56) rotate(-170.87)"><tspan x="0" y="0"> </tspan></text>
  <text class="cls-2" transform="translate(115.63 180.42) rotate(-170)"><tspan x="0" y="0">f</tspan></text>
  <text class="cls-2" transform="translate(114.76 180.27) rotate(-168.65)"><tspan x="0" y="0">a</tspan></text>
  <text class="cls-2" transform="translate(113.06 179.93) rotate(-167.35)"><tspan x="0" y="0">t</tspan></text>
  <text class="cls-2" transform="translate(112.29 179.76) rotate(-166.49)"><tspan x="0" y="0">,</tspan></text>
  <text class="cls-2" transform="translate(111.44 179.55) rotate(-165.59)"><tspan x="0" y="0"> </tspan></text>
  <text class="cls-2" transform="translate(110.57 179.33) rotate(-164.25)"><tspan x="0" y="0">a</tspan></text>
  <text class="cls-2" transform="translate(108.93 178.87) rotate(-162.56)"><tspan x="0" y="0">n</tspan></text>
  <text class="cls-2" transform="translate(107.43 178.4) rotate(-160.88)"><tspan x="0" y="0">d</tspan></text>
  <text class="cls-2" transform="translate(105.8 177.83) rotate(-159.54)"><tspan x="0" y="0"> </tspan></text>
  <text class="cls-2" transform="translate(104.95 177.51) rotate(-158.52)"><tspan x="0" y="0">r</tspan></text>
  <text class="cls-2" transform="translate(103.98 177.13) rotate(-157.17)"><tspan x="0" y="0">e</tspan></text>
  <text class="cls-2" transform="translate(102.52 176.52) rotate(-156.05)"><tspan x="0" y="0">-</tspan></text>
  <text class="cls-2" transform="translate(101.94 176.27) rotate(-154.84)"><tspan x="0" y="0">a</tspan></text>
  <text class="cls-2" transform="translate(100.4 175.54) rotate(-153.58)"><tspan x="0" y="0">t</tspan></text>
  <text class="cls-2" transform="translate(99.69 175.18) rotate(-152.77)"><tspan x="0" y="0">t</tspan></text>
  <text class="cls-2" transform="translate(98.96 174.82) rotate(-151.46)"><tspan x="0" y="0">a</tspan></text>
  <text class="cls-2" transform="translate(97.46 173.99) rotate(-149.9)"><tspan x="0" y="0">c</tspan></text>
  <text class="cls-2" transform="translate(96.21 173.27) rotate(-148.34)"><tspan x="0" y="0">h</tspan></text>
  <text class="cls-2" transform="translate(94.87 172.44) rotate(-147.1)"><tspan x="0" y="0"> </tspan></text>
  <text class="cls-2" transform="translate(94.13 171.96) rotate(-146.3)"><tspan x="0" y="0">i</tspan></text>
  <text class="cls-2" transform="translate(93.52 171.56) rotate(-145.53)"><tspan x="0" y="0">t</tspan></text>
  <text class="cls-2" transform="translate(92.89 171.12) rotate(-145.51)"><tspan x="0" y="0"> </tspan></text>
  <text class="cls-2" transform="translate(92.16 170.61) rotate(-143.65)"><tspan x="0" y="0">t</tspan></text>
  <text class="cls-2" transform="translate(91.5 170.13) rotate(-142.58)"><tspan x="0" y="0">o</tspan></text>
  <text class="cls-2" transform="translate(90.15 169.09) rotate(-141.29)"><tspan x="0" y="0"> </tspan></text>
  <text class="cls-2" transform="translate(89.46 168.54) rotate(-140.45)"><tspan x="0" y="0">t</tspan></text>
  <text class="cls-2" transform="translate(88.8 168) rotate(-139.19)"><tspan x="0" y="0">h</tspan></text>
  <text class="cls-2" transform="translate(87.61 166.97) rotate(-137.58)"><tspan x="0" y="0">e</tspan></text>
  <text class="cls-2" transform="translate(86.45 165.91) rotate(-136.34)"><tspan x="0" y="0"> </tspan></text>
  <text class="cls-2" transform="translate(85.8 165.29) rotate(-135.44)"><tspan x="0" y="0">f</tspan></text>
  <text class="cls-2" transform="translate(85.15 164.65) rotate(-134.59)"><tspan x="0" y="0">l</tspan></text>
  <text class="cls-2" transform="translate(84.66 164.15) rotate(-133.42)"><tspan x="0" y="0">e</tspan></text>
  <text class="cls-2" transform="translate(83.57 162.99) rotate(-132.01)"><tspan x="0" y="0">s</tspan></text>
  <text class="cls-2" transform="translate(82.78 162.13) rotate(-130.6)"><tspan x="0" y="0">h</tspan></text>
  <text class="cls-2" transform="translate(81.77 160.94) rotate(-129.35)"><tspan x="0" y="0"> </tspan></text>
  <text class="cls-2" transform="translate(81.2 160.25) rotate(-128.08)"><tspan x="0" y="0">u</tspan></text>
  <text class="cls-2" transform="translate(80.23 159.02) rotate(-126.68)"><tspan x="0" y="0">s</tspan></text>
  <text class="cls-2" transform="translate(79.53 158.07) rotate(-125.71)"><tspan x="0" y="0">i</tspan></text>
  <text class="cls-2" transform="translate(79.13 157.52) rotate(-124.56)"><tspan x="0" y="0">n</tspan></text>
  <text class="cls-2" transform="translate(78.23 156.22) rotate(-122.86)"><tspan x="0" y="0">g</tspan></text>
  <text class="cls-2" transform="translate(77.3 154.76) rotate(-121.52)"><tspan x="0" y="0"> </tspan></text>
  <text class="cls-2" transform="translate(76.84 154.01) rotate(-120.67)"><tspan x="0" y="0">t</tspan></text>
  <text class="cls-2" transform="translate(76.43 153.34) rotate(-119.38)"><tspan x="0" y="0">o</tspan></text>
  <text class="cls-2" transform="translate(75.57 151.81) rotate(-117.59)"><tspan x="0" y="0">o</tspan></text>
  <text class="cls-2" transform="translate(74.78 150.28) rotate(-116.31)"><tspan x="0" y="0">t</tspan></text>
  <text class="cls-2" transform="translate(74.39 149.51) rotate(-115.03)"><tspan x="0" y="0">h</tspan></text>
  <text class="cls-2" transform="translate(73.73 148.1) rotate(-113.36)"><tspan x="0" y="0">p</tspan></text>
  <text class="cls-2" transform="translate(73.06 146.52) rotate(-112.13)"><tspan x="0" y="0">i</tspan></text>
  <text class="cls-2" transform="translate(72.78 145.85) rotate(-111.05)"><tspan x="0" y="0">c</tspan></text>
  <text class="cls-2" transform="translate(72.27 144.52) rotate(-109.57)"><tspan x="0" y="0">k</tspan></text>
  <text class="cls-2" transform="translate(71.79 143.17) rotate(-108.26)"><tspan x="0" y="0">s</tspan></text>
  <text class="cls-2" transform="translate(71.42 142.06) rotate(-107.21)"><tspan x="0" y="0">.</tspan></text>
  <text class="cls-2" transform="translate(71.16 141.21) rotate(-106.31)"><tspan x="0" y="0"> </tspan></text>
  <text class="cls-2" transform="translate(70.91 140.36) rotate(-105.15)"><tspan x="0" y="0">T</tspan></text>
  <text class="cls-2" transform="translate(70.55 139.02) rotate(-103.66)"><tspan x="0" y="0">h</tspan></text>
  <text class="cls-2" transform="translate(70.18 137.49) rotate(-102.06)"><tspan x="0" y="0">e</tspan></text>
  <text class="cls-2" transform="translate(69.85 136) rotate(-100.52)"><tspan x="0" y="0">y</tspan></text>
  <text class="cls-2" transform="translate(69.57 134.46) rotate(-99.28)"><tspan x="0" y="0"> </tspan></text>
  <text class="cls-2" transform="translate(69.42 133.58) rotate(-97.96)"><tspan x="0" y="0">d</tspan></text>
  <text class="cls-2" transform="translate(69.19 131.87) rotate(-96.21)"><tspan x="0" y="0">o</tspan></text>
  <text class="cls-2" transform="translate(69 130.15) rotate(-94.88)"><tspan x="0" y="0"> </tspan></text>
  <text class="cls-2" transform="translate(68.93 129.28) rotate(-93.86)"><tspan x="0" y="0">s</tspan></text>
  <text class="cls-2" transform="translate(68.85 128.13) rotate(-92.4)"><tspan x="0" y="0">o</tspan></text>
  <text class="cls-2" transform="translate(68.78 126.4) rotate(-91.07)"><tspan x="0" y="0"> </tspan></text>
  <text class="cls-2" transform="translate(68.76 125.51) rotate(-90.25)"><tspan x="0" y="0">i</tspan></text>
  <text class="cls-2" transform="translate(68.75 124.8) rotate(-89.09)"><tspan x="0" y="0">n</tspan></text>
  <text class="cls-2" transform="translate(68.78 123.23) rotate(-87.85)"><tspan x="0" y="0"> </tspan></text>
  <text class="cls-2" transform="translate(68.81 122.34) rotate(-86.51)"><tspan x="0" y="0">o</tspan></text>
  <text class="cls-2" transform="translate(68.92 120.61) rotate(-85.08)"><tspan x="0" y="0">r</tspan></text>
  <text class="cls-2" transform="translate(69 119.58) rotate(-83.7)"><tspan x="0" y="0">d</tspan></text>
  <text class="cls-2" transform="translate(69.19 117.87) rotate(-82.01)"><tspan x="0" y="0">e</tspan></text>
  <text class="cls-2" transform="translate(69.42 116.28) rotate(-80.63)"><tspan x="0" y="0">r</tspan></text>
  <text class="cls-2" transform="translate(69.6 115.22) rotate(-79.63)"><tspan x="0" y="0"> </tspan></text>
  <text class="cls-2" transform="translate(69.76 114.35) rotate(-78.78)"><tspan x="0" y="0">t</tspan></text>
  <text class="cls-2" transform="translate(69.91 113.56) rotate(-77.46)"><tspan x="0" y="0">o</tspan></text>
  <text class="cls-2" transform="translate(70.28 111.89) rotate(-76.14)"><tspan x="0" y="0"> </tspan></text>
  <text class="cls-2" transform="translate(70.49 111.03) rotate(-74.8)"><tspan x="0" y="0">g</tspan></text>
  <text class="cls-2" transform="translate(70.94 109.36) rotate(-73.1)"><tspan x="0" y="0">e</tspan></text>
  <text class="cls-2" transform="translate(71.42 107.82) rotate(-71.86)"><tspan x="0" y="0">t</tspan></text>
  <text class="cls-2" transform="translate(71.66 107.09) rotate(-71.01)"><tspan x="0" y="0"> </tspan></text>
  <text class="cls-2" transform="translate(71.94 106.25) rotate(-69.85)"><tspan x="0" y="0">c</tspan></text>
  <text class="cls-2" transform="translate(72.41 104.97) rotate(-68.61)"><tspan x="0" y="0">r</tspan></text>
  <text class="cls-2" transform="translate(72.83 103.91) rotate(-67.62)"><tspan x="0" y="0">i</tspan></text>
  <text class="cls-2" transform="translate(73.09 103.27) rotate(-66.68)"><tspan x="0" y="0">s</tspan></text>
  <text class="cls-2" transform="translate(73.55 102.2) rotate(-65.2)"><tspan x="0" y="0">p</tspan></text>
  <text class="cls-2" transform="translate(74.25 100.68) rotate(-63.58)"><tspan x="0" y="0">y</tspan></text>
  <text class="cls-2" transform="translate(74.96 99.27) rotate(-62.32)"><tspan x="0" y="0"> </tspan></text>
  <text class="cls-2" transform="translate(75.36 98.49) rotate(-61.28)"><tspan x="0" y="0">s</tspan></text>
  <text class="cls-2" transform="translate(75.92 97.48) rotate(-59.97)"><tspan x="0" y="0">k</tspan></text>
  <text class="cls-2" transform="translate(76.64 96.24) rotate(-58.88)"><tspan x="0" y="0">i</tspan></text>
  <text class="cls-2" transform="translate(77 95.63) rotate(-57.73)"><tspan x="0" y="0">n</tspan></text>
  <text class="cls-2" transform="translate(77.85 94.29) rotate(-56.48)"><tspan x="0" y="0"> </tspan></text>
  <text class="cls-2" transform="translate(78.33 93.57) rotate(-55.67)"><tspan x="0" y="0">t</tspan></text>
  <text class="cls-2" transform="translate(78.78 92.87) rotate(-53.65)"><tspan x="0" y="0">h</tspan></text>
  <text class="cls-2" transform="translate(79.72 91.58) rotate(-52.77)"><tspan x="0" y="0">a</tspan></text>
  <text class="cls-2" transform="translate(80.76 90.22) rotate(-51.52)"><tspan x="0" y="0">t</tspan></text>
  <text class="cls-2" transform="translate(81.25 89.6) rotate(-50.68)"><tspan x="0" y="0"> </tspan></text>
  <text class="cls-2" transform="translate(81.81 88.91) rotate(-49.1)"><tspan x="0" y="0">w</tspan></text>
  <text class="cls-2" transform="translate(83.27 87.23) rotate(-47.61)"><tspan x="0" y="0">i</tspan></text>
  <text class="cls-2" transform="translate(83.75 86.71) rotate(-46.88)"><tspan x="0" y="0">l</tspan></text>
  <text class="cls-2" transform="translate(84.23 86.19) rotate(-46.16)"><tspan x="0" y="0">l</tspan></text>
  <text class="cls-2" transform="translate(84.72 85.68) rotate(-45.35)"><tspan x="0" y="0"> </tspan></text>
  <text class="cls-2" transform="translate(85.34 85.05) rotate(-44.09)"><tspan x="0" y="0">n</tspan></text>
  <text class="cls-2" transform="translate(86.48 83.94) rotate(-42.39)"><tspan x="0" y="0">o</tspan></text>
  <text class="cls-2" transform="translate(87.77 82.77) rotate(-41.09)"><tspan x="0" y="0">t</tspan></text>
  <text class="cls-2" transform="translate(88.36 82.26) rotate(-40.24)"><tspan x="0" y="0"> </tspan></text>
  <text class="cls-2" transform="translate(89.03 81.69) rotate(-38.9)"><tspan x="0" y="0">p</tspan></text>
  <text class="cls-2" transform="translate(90.37 80.6) rotate(-37.21)"><tspan x="0" y="0">u</tspan></text>
  <text class="cls-2" transform="translate(91.63 79.66) rotate(-36.04)"><tspan x="0" y="0">l</tspan></text>
  <text class="cls-2" transform="translate(92.2 79.24) rotate(-35.31)"><tspan x="0" y="0">l</tspan></text>
  <text class="cls-2" transform="translate(92.78 78.83) rotate(-34.49)"><tspan x="0" y="0"> </tspan></text>
  <text class="cls-2" transform="translate(93.51 78.32) rotate(-33.15)"><tspan x="0" y="0">a</tspan></text>
  <text class="cls-2" transform="translate(94.96 77.37) rotate(-31.1)"><tspan x="0" y="0">w</tspan></text>
  <text class="cls-2" transform="translate(96.83 76.24) rotate(-29.14)"><tspan x="0" y="0">a</tspan></text>
  <text class="cls-2" transform="translate(98.35 75.4) rotate(-27.44)"><tspan x="0" y="0">y</tspan></text>
  <text class="cls-2" transform="translate(99.73 74.68) rotate(-26.2)"><tspan x="0" y="0"> </tspan></text>
  <text class="cls-2" transform="translate(100.53 74.28) rotate(-24.59)"><tspan x="0" y="0">w</tspan></text>
  <text class="cls-2" transform="translate(102.55 73.36) rotate(-22.67)"><tspan x="0" y="0">h</tspan></text>
  <text class="cls-2" transform="translate(104.01 72.75) rotate(-21.05)"><tspan x="0" y="0">e</tspan></text>
  <text class="cls-2" transform="translate(105.48 72.19) rotate(-19.46)"><tspan x="0" y="0">n</tspan></text>
  <text class="cls-2" transform="translate(106.96 71.67) rotate(-18.22)"><tspan x="0" y="0"> </tspan></text>
  <text class="cls-2" transform="translate(107.81 71.38) rotate(-17.06)"><tspan x="0" y="0">c</tspan></text>
  <text class="cls-2" transform="translate(109.11 70.98) rotate(-15.5)"><tspan x="0" y="0">o</tspan></text>
  <text class="cls-2" transform="translate(110.78 70.52) rotate(-13.74)"><tspan x="0" y="0">o</tspan></text>
  <text class="cls-2" transform="translate(112.46 70.11) rotate(-12.14)"><tspan x="0" y="0">k</tspan></text>
  <text class="cls-2" transform="translate(113.81 69.82) rotate(-10.67)"><tspan x="0" y="0">e</tspan></text>
  <text class="cls-2" transform="translate(115.38 69.52) rotate(-8.98)"><tspan x="0" y="0">d</tspan></text>
  <text class="cls-2" transform="translate(117.09 69.26) rotate(-7.66)"><tspan x="0" y="0">.</tspan></text>
</svg>