<?xml version="1.0" encoding="UTF-8"?>
<svg id="Layer_9" data-name="Layer 9" xmlns="http://www.w3.org/2000/svg" viewBox="0 0 250 250">
  <defs>
    <style>
      .cls-1 {
        font-family: Futura-CondensedExtraBold, Futura;
        font-weight: 700;
      }

      .cls-1, .cls-2 {
        fill: #231f20;
        font-size: 2.7px;
      }

      .cls-2 {
        font-family: Futura-Medium, Futura;
        font-weight: 500;
      }
    </style>
  </defs>
  <text class="cls-2" transform="translate(134.85 172.78) rotate(169.23)"><tspan x="0" y="0">L</tspan></text>
  <text class="cls-2" transform="translate(133.67 173.01) rotate(170.62)"><tspan x="0" y="0">a</tspan></text>
  <text class="cls-2" transform="translate(132.06 173.27) rotate(172.43)"><tspan x="0" y="0">y</tspan></text>
  <text class="cls-2" transform="translate(130.67 173.46) rotate(174.08)"><tspan x="0" y="0">e</tspan></text>
  <text class="cls-2" transform="translate(129.19 173.61) rotate(175.55)"><tspan x="0" y="0">r</tspan></text>
  <text class="cls-2" transform="translate(128.18 173.69) rotate(176.63)"><tspan x="0" y="0"> </tspan></text>
  <text class="cls-2" transform="translate(127.37 173.74) rotate(178.07)"><tspan x="0" y="0">9</tspan></text>
  <text class="cls-2" transform="translate(125.7 173.79) rotate(179.56)"><tspan x="0" y="0"> </tspan></text>
  <text class="cls-2" transform="translate(124.89 173.8) rotate(-179.5)"><tspan x="0" y="0">I</tspan></text>
  <text class="cls-2" transform="translate(124.11 173.79) rotate(-178.09)"><tspan x="0" y="0">p</tspan></text>
  <text class="cls-2" transform="translate(122.51 173.74) rotate(-176.51)"><tspan x="0" y="0">s</tspan></text>
  <text class="cls-2" transform="translate(121.42 173.67) rotate(-175)"><tspan x="0" y="0">u</tspan></text>
  <text class="cls-2" transform="translate(119.96 173.55) rotate(-172.87)"><tspan x="0" y="0">m</tspan></text>
  <text class="cls-2" transform="translate(117.87 173.28) rotate(-171.14)"><tspan x="0" y="0"> </tspan></text>
  <text class="cls-2" transform="translate(117.04 173.15) rotate(-169.93)"><tspan x="0" y="0">L</tspan></text>
  <text class="cls-2" transform="translate(115.88 172.95) rotate(-168.29)"><tspan x="0" y="0">o</tspan></text>
  <text class="cls-2" transform="translate(114.31 172.62) rotate(-166.75)"><tspan x="0" y="0">r</tspan></text>
  <text class="cls-2" transform="translate(113.34 172.4) rotate(-165.29)"><tspan x="0" y="0">e</tspan></text>
  <text class="cls-2" transform="translate(111.92 172.03) rotate(-163.18)"><tspan x="0" y="0">m</tspan></text>
  <text class="cls-2" transform="translate(109.89 171.41) rotate(-161.45)"><tspan x="0" y="0"> </tspan></text>
  <text class="cls-2" transform="translate(109.1 171.14) rotate(-160.5)"><tspan x="0" y="0">I</tspan></text>
  <text class="cls-2" transform="translate(108.35 170.88) rotate(-159.07)"><tspan x="0" y="0">p</tspan></text>
  <text class="cls-2" transform="translate(106.85 170.31) rotate(-157.5)"><tspan x="0" y="0">s</tspan></text>
  <text class="cls-2" transform="translate(105.86 169.9) rotate(-156.02)"><tspan x="0" y="0">u</tspan></text>
  <text class="cls-2" transform="translate(104.52 169.31) rotate(-153.92)"><tspan x="0" y="0">m</tspan></text>
  <text class="cls-2" transform="translate(102.62 168.37) rotate(-152.21)"><tspan x="0" y="0"> </tspan></text>
  <text class="cls-2" transform="translate(101.88 167.98) rotate(-151.01)"><tspan x="0" y="0">L</tspan></text>
  <text class="cls-2" transform="translate(100.85 167.41) rotate(-149.39)"><tspan x="0" y="0">o</tspan></text>
  <text class="cls-2" transform="translate(99.45 166.58) rotate(-147.85)"><tspan x="0" y="0">r</tspan></text>
  <text class="cls-2" transform="translate(98.63 166.07) rotate(-146.44)"><tspan x="0" y="0">e</tspan></text>
  <text class="cls-2" transform="translate(97.37 165.24) rotate(-144.31)"><tspan x="0" y="0">m</tspan></text>
  <text class="cls-2" transform="translate(95.66 164) rotate(-142.6)"><tspan x="0" y="0"> </tspan></text>
  <text class="cls-2" transform="translate(95.01 163.5) rotate(-141.66)"><tspan x="0" y="0">I</tspan></text>
  <text class="cls-2" transform="translate(94.38 163.01) rotate(-140.24)"><tspan x="0" y="0">p</tspan></text>
  <text class="cls-2" transform="translate(93.15 161.99) rotate(-138.68)"><tspan x="0" y="0">s</tspan></text>
  <text class="cls-2" transform="translate(92.34 161.28) rotate(-137.2)"><tspan x="0" y="0">u</tspan></text>
  <text class="cls-2" transform="translate(91.27 160.29) rotate(-135.09)"><tspan x="0" y="0">m</tspan></text>
  <text class="cls-2" transform="translate(89.77 158.78) rotate(-133.37)"><tspan x="0" y="0"> </tspan></text>
  <text class="cls-2" transform="translate(89.2 158.18) rotate(-132.18)"><tspan x="0" y="0">L</tspan></text>
  <text class="cls-2" transform="translate(88.4 157.31) rotate(-130.53)"><tspan x="0" y="0">o</tspan></text>
  <text class="cls-2" transform="translate(87.36 156.08) rotate(-128.99)"><tspan x="0" y="0">r</tspan></text>
  <text class="cls-2" transform="translate(86.74 155.32) rotate(-127.56)"><tspan x="0" y="0">e</tspan></text>
  <text class="cls-2" transform="translate(85.82 154.14) rotate(-125.41)"><tspan x="0" y="0">m</tspan></text>
  <text class="cls-2" transform="translate(84.62 152.42) rotate(-123.7)"><tspan x="0" y="0"> </tspan></text>
  <text class="cls-2" transform="translate(84.15 151.73) rotate(-122.73)"><tspan x="0" y="0">I</tspan></text>
  <text class="cls-2" transform="translate(83.73 151.07) rotate(-121.32)"><tspan x="0" y="0">p</tspan></text>
  <text class="cls-2" transform="translate(82.89 149.7) rotate(-119.73)"><tspan x="0" y="0">s</tspan></text>
  <text class="cls-2" transform="translate(82.35 148.76) rotate(-118.22)"><tspan x="0" y="0">u</tspan></text>
  <text class="cls-2" transform="translate(81.65 147.46) rotate(-116.08)"><tspan x="0" y="0">m</tspan></text>
  <text class="cls-2" transform="translate(80.72 145.55) rotate(-114.34)"><tspan x="0" y="0"> </tspan></text>
  <text class="cls-2" transform="translate(80.39 144.82) rotate(-113.17)"><tspan x="0" y="0">L</tspan></text>
  <text class="cls-2" transform="translate(79.92 143.72) rotate(-111.51)"><tspan x="0" y="0">o</tspan></text>
  <text class="cls-2" transform="translate(79.33 142.22) rotate(-109.98)"><tspan x="0" y="0">r</tspan></text>
  <text class="cls-2" transform="translate(78.99 141.3) rotate(-108.53)"><tspan x="0" y="0">e</tspan></text>
  <text class="cls-2" transform="translate(78.51 139.88) rotate(-106.41)"><tspan x="0" y="0">m</tspan></text>
  <text class="cls-2" transform="translate(77.93 137.86) rotate(-104.71)"><tspan x="0" y="0"> </tspan></text>
  <text class="cls-2" transform="translate(77.72 137.07) rotate(-103.78)"><tspan x="0" y="0">I</tspan></text>
  <text class="cls-2" transform="translate(77.52 136.29) rotate(-102.62)"><tspan x="0" y="0">p</tspan></text>
  <text class="cls-2" transform="translate(77.18 134.72) rotate(-100.77)"><tspan x="0" y="0">s</tspan></text>
  <text class="cls-2" transform="translate(76.97 133.66) rotate(-99.36)"><tspan x="0" y="0">u</tspan></text>
  <text class="cls-2" transform="translate(76.73 132.22) rotate(-97.28)"><tspan x="0" y="0">m</tspan></text>
  <text class="cls-2" transform="translate(76.47 130.12) rotate(-95.35)"><tspan x="0" y="0">L</tspan></text>
  <text class="cls-2" transform="translate(76.36 128.94) rotate(-93.71)"><tspan x="0" y="0">o</tspan></text>
  <text class="cls-2" transform="translate(76.25 127.31) rotate(-92.15)"><tspan x="0" y="0">r</tspan></text>
  <text class="cls-2" transform="translate(76.22 126.34) rotate(-90.72)"><tspan x="0" y="0">e</tspan></text>
  <text class="cls-2" transform="translate(76.19 124.88) rotate(-88.61)"><tspan x="0" y="0">m</tspan></text>
  <text class="cls-2" transform="translate(76.25 122.75) rotate(-86.87)"><tspan x="0" y="0"> </tspan></text>
  <text class="cls-2" transform="translate(76.3 121.91) rotate(-85.88)"><tspan x="0" y="0">I</tspan></text>
  <text class="cls-2" transform="translate(76.35 121.12) rotate(-84.46)"><tspan x="0" y="0">p</tspan></text>
  <text class="cls-2" transform="translate(76.51 119.52) rotate(-82.87)"><tspan x="0" y="0">s</tspan></text>
  <text class="cls-2" transform="translate(76.64 118.45) rotate(-81.37)"><tspan x="0" y="0">u</tspan></text>
  <text class="cls-2" transform="translate(76.85 117.01) rotate(-79.25)"><tspan x="0" y="0">m</tspan></text>
  <text class="cls-2" transform="translate(77.25 114.93) rotate(-77.3)"><tspan x="0" y="0">L</tspan></text>
  <text class="cls-2" transform="translate(77.51 113.78) rotate(-75.66)"><tspan x="0" y="0">o</tspan></text>
  <text class="cls-2" transform="translate(77.92 112.2) rotate(-74.1)"><tspan x="0" y="0">r</tspan></text>
  <text class="cls-2" transform="translate(78.18 111.26) rotate(-72.66)"><tspan x="0" y="0">e</tspan></text>
  <text class="cls-2" transform="translate(78.62 109.84) rotate(-70.54)"><tspan x="0" y="0">m</tspan></text>
  <text class="cls-2" transform="translate(79.33 107.85) rotate(-68.82)"><tspan x="0" y="0"> </tspan></text>
  <text class="cls-2" transform="translate(79.63 107.08) rotate(-67.87)"><tspan x="0" y="0">I</tspan></text>
  <text class="cls-2" transform="translate(79.92 106.35) rotate(-66.47)"><tspan x="0" y="0">p</tspan></text>
  <text class="cls-2" transform="translate(80.56 104.89) rotate(-64.91)"><tspan x="0" y="0">s</tspan></text>
  <text class="cls-2" transform="translate(81.02 103.9) rotate(-63.41)"><tspan x="0" y="0">u</tspan></text>
  <text class="cls-2" transform="translate(81.67 102.59) rotate(-61.31)"><tspan x="0" y="0">m</tspan></text>
  <text class="cls-2" transform="translate(82.69 100.74) rotate(-59.39)"><tspan x="0" y="0">L</tspan></text>
  <text class="cls-2" transform="translate(83.29 99.72) rotate(-57.76)"><tspan x="0" y="0">o</tspan></text>
  <text class="cls-2" transform="translate(84.16 98.35) rotate(-56.23)"><tspan x="0" y="0">r</tspan></text>
  <text class="cls-2" transform="translate(84.71 97.52) rotate(-54.78)"><tspan x="0" y="0">e</tspan></text>
  <text class="cls-2" transform="translate(85.56 96.31) rotate(-52.68)"><tspan x="0" y="0">m</tspan></text>
  <text class="cls-2" transform="translate(86.85 94.64) rotate(-50.97)"><tspan x="0" y="0"> </tspan></text>
  <text class="cls-2" transform="translate(87.36 94) rotate(-50.03)"><tspan x="0" y="0">I</tspan></text>
  <text class="cls-2" transform="translate(87.87 93.38) rotate(-48.62)"><tspan x="0" y="0">p</tspan></text>
  <text class="cls-2" transform="translate(88.94 92.17) rotate(-47.03)"><tspan x="0" y="0">s</tspan></text>
  <text class="cls-2" transform="translate(89.66 91.4) rotate(-45.57)"><tspan x="0" y="0">u</tspan></text>
  <text class="cls-2" transform="translate(90.69 90.34) rotate(-43.45)"><tspan x="0" y="0">m</tspan></text>
  <text class="cls-2" transform="translate(92.23 88.89) rotate(-41.51)"><tspan x="0" y="0">L</tspan></text>
  <text class="cls-2" transform="translate(93.12 88.1) rotate(-39.86)"><tspan x="0" y="0">o</tspan></text>
  <text class="cls-2" transform="translate(94.35 87.08) rotate(-38.34)"><tspan x="0" y="0">r</tspan></text>
  <text class="cls-2" transform="translate(95.13 86.46) rotate(-36.88)"><tspan x="0" y="0">e</tspan></text>
  <text class="cls-2" transform="translate(96.31 85.57) rotate(-34.75)"><tspan x="0" y="0">m</tspan></text>
  <text class="cls-2" transform="translate(98.07 84.36) rotate(-33)"><tspan x="0" y="0"> </tspan></text>
  <text class="cls-2" transform="translate(98.74 83.92) rotate(-32.07)"><tspan x="0" y="0">I</tspan></text>
  <text class="cls-2" transform="translate(99.41 83.49) rotate(-30.63)"><tspan x="0" y="0">p</tspan></text>
  <text class="cls-2" transform="translate(100.8 82.68) rotate(-29.04)"><tspan x="0" y="0">s</tspan></text>
  <text class="cls-2" transform="translate(101.75 82.14) rotate(-27.53)"><tspan x="0" y="0">u</tspan></text>
  <text class="cls-2" transform="translate(103.04 81.47) rotate(-25.41)"><tspan x="0" y="0">m</tspan></text>
  <text class="cls-2" transform="translate(104.95 80.57) rotate(-23.46)"><tspan x="0" y="0">L</tspan></text>
  <text class="cls-2" transform="translate(106.03 80.09) rotate(-21.82)"><tspan x="0" y="0">o</tspan></text>
  <text class="cls-2" transform="translate(107.54 79.49) rotate(-20.27)"><tspan x="0" y="0">r</tspan></text>
  <text class="cls-2" transform="translate(108.46 79.15) rotate(-18.83)"><tspan x="0" y="0">e</tspan></text>
  <text class="cls-2" transform="translate(109.86 78.67) rotate(-16.72)"><tspan x="0" y="0">m</tspan></text>
  <text class="cls-2" transform="translate(111.89 78.06) rotate(-15.01)"><tspan x="0" y="0"> </tspan></text>
  <text class="cls-2" transform="translate(112.7 77.85) rotate(-14.05)"><tspan x="0" y="0">I</tspan></text>
  <text class="cls-2" transform="translate(113.44 77.66) rotate(-12.69)"><tspan x="0" y="0">p</tspan></text>
  <text class="cls-2" transform="translate(115.02 77.3) rotate(-10.77)"><tspan x="0" y="0">s</tspan></text>
  <text class="cls-2" transform="translate(116.09 77.09) rotate(-9.65)"><tspan x="0" y="0">u</tspan></text>
  <text class="cls-2" transform="translate(117.53 76.84) rotate(-7.57)"><tspan x="0" y="0">m</tspan></text>
  <text class="cls-2" transform="translate(119.63 76.57) rotate(-5.65)"><tspan x="0" y="0">L</tspan></text>
  <text class="cls-2" transform="translate(120.81 76.45) rotate(-4)"><tspan x="0" y="0">o</tspan></text>
  <text class="cls-2" transform="translate(122.42 76.34) rotate(-2.47)"><tspan x="0" y="0">r</tspan></text>
  <text class="cls-2" transform="translate(123.39 76.3) rotate(-1.03)"><tspan x="0" y="0">e</tspan></text>
  <text class="cls-2" transform="translate(124.88 76.26) rotate(1.1)"><tspan x="0" y="0">m</tspan></text>
  <text class="cls-2" transform="translate(127 76.31) rotate(2.84)"><tspan x="0" y="0"> </tspan></text>
  <text class="cls-2" transform="translate(127.83 76.36) rotate(3.8)"><tspan x="0" y="0">I</tspan></text>
  <text class="cls-2" transform="translate(128.61 76.4) rotate(5.23)"><tspan x="0" y="0">p</tspan></text>
  <text class="cls-2" transform="translate(130.22 76.55) rotate(6.82)"><tspan x="0" y="0">s</tspan></text>
  <text class="cls-2" transform="translate(131.29 76.68) rotate(8.33)"><tspan x="0" y="0">u</tspan></text>
  <text class="cls-2" transform="translate(132.73 76.88) rotate(10.44)"><tspan x="0" y="0">m</tspan></text>
  <text class="cls-2" transform="translate(134.81 77.27) rotate(12.39)"><tspan x="0" y="0">L</tspan></text>
  <text class="cls-2" transform="translate(135.96 77.52) rotate(14.03)"><tspan x="0" y="0">o</tspan></text>
  <text class="cls-2" transform="translate(137.55 77.93) rotate(15.6)"><tspan x="0" y="0">r</tspan></text>
  <text class="cls-2" transform="translate(138.49 78.18) rotate(17.03)"><tspan x="0" y="0">e</tspan></text>
  <text class="cls-2" transform="translate(139.91 78.61) rotate(19.16)"><tspan x="0" y="0">m</tspan></text>
  <text class="cls-2" transform="translate(141.91 79.32) rotate(20.88)"><tspan x="0" y="0"> </tspan></text>
  <text class="cls-2" transform="translate(142.68 79.61) rotate(21.83)"><tspan x="0" y="0">I</tspan></text>
  <text class="cls-2" transform="translate(143.41 79.9) rotate(23.23)"><tspan x="0" y="0">p</tspan></text>
  <text class="cls-2" transform="translate(144.88 80.53) rotate(24.79)"><tspan x="0" y="0">s</tspan></text>
  <text class="cls-2" transform="translate(145.87 80.99) rotate(26.3)"><tspan x="0" y="0">u</tspan></text>
  <text class="cls-2" transform="translate(147.18 81.63) rotate(28.39)"><tspan x="0" y="0">m</tspan></text>
  <text class="cls-2" transform="translate(149.04 82.64) rotate(30.1)"><tspan x="0" y="0"> </tspan></text>
  <text class="cls-2" transform="translate(149.77 83.06) rotate(31.3)"><tspan x="0" y="0">L</tspan></text>
  <text class="cls-2" transform="translate(150.77 83.67) rotate(32.92)"><tspan x="0" y="0">o</tspan></text>
  <text class="cls-2" transform="translate(152.13 84.56) rotate(34.46)"><tspan x="0" y="0">r</tspan></text>
  <text class="cls-2" transform="translate(152.93 85.1) rotate(35.87)"><tspan x="0" y="0">e</tspan></text>
  <text class="cls-2" transform="translate(154.14 85.97) rotate(37.98)"><tspan x="0" y="0">m</tspan></text>
  <text class="cls-2" transform="translate(155.82 87.29) rotate(39.71)"><tspan x="0" y="0"> </tspan></text>
  <text class="cls-2" transform="translate(156.45 87.81) rotate(40.66)"><tspan x="0" y="0">I</tspan></text>
  <text class="cls-2" transform="translate(157.04 88.32) rotate(42.05)"><tspan x="0" y="0">p</tspan></text>
  <text class="cls-2" transform="translate(158.23 89.39) rotate(43.62)"><tspan x="0" y="0">s</tspan></text>
  <text class="cls-2" transform="translate(159.02 90.14) rotate(45.12)"><tspan x="0" y="0">u</tspan></text>
  <text class="cls-2" transform="translate(160.06 91.18) rotate(47.24)"><tspan x="0" y="0">m</tspan></text>
  <text class="cls-2" transform="translate(161.5 92.75) rotate(48.97)"><tspan x="0" y="0"> </tspan></text>
  <text class="cls-2" transform="translate(162.03 93.36) rotate(50.14)"><tspan x="0" y="0">L</tspan></text>
  <text class="cls-2" transform="translate(162.8 94.27) rotate(51.79)"><tspan x="0" y="0">o</tspan></text>
  <text class="cls-2" transform="translate(163.79 95.53) rotate(53.32)"><tspan x="0" y="0">r</tspan></text>
  <text class="cls-2" transform="translate(164.37 96.31) rotate(54.76)"><tspan x="0" y="0">e</tspan></text>
  <text class="cls-2" transform="translate(165.24 97.53) rotate(56.92)"><tspan x="0" y="0">m</tspan></text>
  <text class="cls-2" transform="translate(166.38 99.3) rotate(58.64)"><tspan x="0" y="0"> </tspan></text>
  <text class="cls-2" transform="translate(166.82 100.02) rotate(59.61)"><tspan x="0" y="0">I</tspan></text>
  <text class="cls-2" transform="translate(167.22 100.69) rotate(61.03)"><tspan x="0" y="0">p</tspan></text>
  <text class="cls-2" transform="translate(168 102.11) rotate(62.63)"><tspan x="0" y="0">s</tspan></text>
  <text class="cls-2" transform="translate(168.5 103.06) rotate(64.12)"><tspan x="0" y="0">u</tspan></text>
  <text class="cls-2" transform="translate(169.14 104.37) rotate(66.25)"><tspan x="0" y="0">m</tspan></text>
  <text class="cls-2" transform="translate(169.99 106.33) rotate(68)"><tspan x="0" y="0"> </tspan></text>
  <text class="cls-2" transform="translate(170.3 107.08) rotate(69.17)"><tspan x="0" y="0">L</tspan></text>
  <text class="cls-2" transform="translate(170.72 108.19) rotate(70.81)"><tspan x="0" y="0">o</tspan></text>
  <text class="cls-2" transform="translate(171.25 109.71) rotate(72.35)"><tspan x="0" y="0">r</tspan></text>
  <text class="cls-2" transform="translate(171.55 110.64) rotate(73.77)"><tspan x="0" y="0">e</tspan></text>
  <text class="cls-2" transform="translate(171.96 112.05) rotate(75.86)"><tspan x="0" y="0">m</tspan></text>
  <text class="cls-2" transform="translate(172.48 114.13) rotate(77.38)"><tspan x="0" y="0"> </tspan></text>
  <text class="cls-2" transform="translate(172.66 114.92) rotate(79.23)"><tspan x="0" y="0">I</tspan></text>
  <text class="cls-2" transform="translate(172.82 115.71) rotate(79.89)"><tspan x="0" y="0">p</tspan></text>
  <text class="cls-2" transform="translate(173.09 117.27) rotate(81.43)"><tspan x="0" y="0">s</tspan></text>
  <text class="cls-2" transform="translate(173.26 118.36) rotate(82.93)"><tspan x="0" y="0">u</tspan></text>
  <text class="cls-2" transform="translate(173.45 119.81) rotate(85.03)"><tspan x="0" y="0">m</tspan></text>
  <text class="cls-2" transform="translate(173.62 121.92) rotate(86.97)"><tspan x="0" y="0">L</tspan></text>
  <text class="cls-2" transform="translate(173.69 123.1) rotate(88.61)"><tspan x="0" y="0">o</tspan></text>
  <text class="cls-2" transform="translate(173.72 124.72) rotate(90.16)"><tspan x="0" y="0">r</tspan></text>
  <text class="cls-2" transform="translate(173.72 125.71) rotate(91.62)"><tspan x="0" y="0">e</tspan></text>
  <text class="cls-2" transform="translate(173.69 127.17) rotate(93.74)"><tspan x="0" y="0">m</tspan></text>
  <text class="cls-1" transform="translate(173.54 129.3) rotate(95.47)"><tspan x="0" y="0"> </tspan></text>
  <text class="cls-1" transform="translate(173.46 130.09) rotate(96.42)"><tspan x="0" y="0">I</tspan></text>
  <text class="cls-1" transform="translate(173.38 130.9) rotate(97.8)"><tspan x="0" y="0">p</tspan></text>
  <text class="cls-1" transform="translate(173.17 132.4) rotate(99.56)"><tspan x="0" y="0">e</tspan></text>
  <text class="cls-1" transform="translate(172.93 133.85) rotate(101.76)"><tspan x="0" y="0">m</tspan></text>
  <text class="cls-1" transform="translate(172.47 136.02) rotate(103.53)"><tspan x="0" y="0"> </tspan></text>
  <text class="cls-1" transform="translate(172.29 136.8) rotate(104.49)"><tspan x="0" y="0">I</tspan></text>
  <text class="cls-1" transform="translate(172.08 137.6) rotate(105.86)"><tspan x="0" y="0">p</tspan></text>
  <text class="cls-1" transform="translate(171.67 139.05) rotate(107.47)"><tspan x="0" y="0">s</tspan></text>
  <text class="cls-1" transform="translate(171.31 140.18) rotate(109.05)"><tspan x="0" y="0">u</tspan></text>
  <text class="cls-1" transform="translate(170.83 141.6) rotate(111.23)"><tspan x="0" y="0">m</tspan></text>
  <text class="cls-1" transform="translate(170.01 143.69) rotate(113.21)"><tspan x="0" y="0">L</tspan></text>
  <text class="cls-1" transform="translate(169.58 144.7) rotate(114.71)"><tspan x="0" y="0">o</tspan></text>
  <text class="cls-1" transform="translate(168.96 146.05) rotate(116.19)"><tspan x="0" y="0">r</tspan></text>
  <text class="cls-1" transform="translate(168.49 146.99) rotate(117.67)"><tspan x="0" y="0">e</tspan></text>
  <text class="cls-1" transform="translate(167.81 148.31) rotate(119.85)"><tspan x="0" y="0">m</tspan></text>
  <text class="cls-1" transform="translate(166.7 150.22) rotate(121.6)"><tspan x="0" y="0"> </tspan></text>
  <text class="cls-1" transform="translate(166.29 150.9) rotate(122.54)"><tspan x="0" y="0">I</tspan></text>
  <text class="cls-1" transform="translate(165.84 151.6) rotate(123.9)"><tspan x="0" y="0">p</tspan></text>
  <text class="cls-1" transform="translate(164.99 152.86) rotate(125.27)"><tspan x="0" y="0"> </tspan></text>
  <text class="cls-1" transform="translate(164.54 153.5) rotate(126.17)"><tspan x="0" y="0">l</tspan></text>
  <text class="cls-1" transform="translate(164.08 154.13) rotate(127.49)"><tspan x="0" y="0">o</tspan></text>
  <text class="cls-1" transform="translate(163.19 155.29) rotate(128.94)"><tspan x="0" y="0">r</tspan></text>
  <text class="cls-1" transform="translate(162.52 156.13) rotate(130.44)"><tspan x="0" y="0">e</tspan></text>
  <text class="cls-1" transform="translate(161.57 157.24) rotate(131.77)"><tspan x="0" y="0"> </tspan></text>
  <text class="cls-1" transform="translate(161.04 157.83) rotate(132.67)"><tspan x="0" y="0">i</tspan></text>
  <text class="cls-1" transform="translate(160.51 158.41) rotate(134)"><tspan x="0" y="0">e</tspan></text>
  <text class="cls-1" transform="translate(159.49 159.46) rotate(135.34)"><tspan x="0" y="0"> </tspan></text>
  <text class="cls-1" transform="translate(158.93 160.02) rotate(136.24)"><tspan x="0" y="0">l</tspan></text>
  <text class="cls-1" transform="translate(158.38 160.55) rotate(137.56)"><tspan x="0" y="0">o</tspan></text>
  <text class="cls-1" transform="translate(157.28 161.55) rotate(139.06)"><tspan x="0" y="0">r</tspan></text>
  <text class="cls-1" transform="translate(156.49 162.23) rotate(140.53)"><tspan x="0" y="0">e</tspan></text>
  <text class="cls-1" transform="translate(155.37 163.17) rotate(142.71)"><tspan x="0" y="0">m</tspan></text>
  <text class="cls-1" transform="translate(153.59 164.51) rotate(144.5)"><tspan x="0" y="0"> </tspan></text>
  <text class="cls-1" transform="translate(152.94 164.98) rotate(145.42)"><tspan x="0" y="0">i</tspan></text>
  <text class="cls-1" transform="translate(152.29 165.42) rotate(146.78)"><tspan x="0" y="0">p</tspan></text>
  <text class="cls-1" transform="translate(151.04 166.24) rotate(148.37)"><tspan x="0" y="0">s</tspan></text>
  <text class="cls-1" transform="translate(150.04 166.86) rotate(149.96)"><tspan x="0" y="0">u</tspan></text>
  <text class="cls-1" transform="translate(148.72 167.63) rotate(151.74)"><tspan x="0" y="0">e</tspan></text>
  <text class="cls-1" transform="translate(147.43 168.32) rotate(153.92)"><tspan x="0" y="0">m</tspan></text>
  <text class="cls-1" transform="translate(145.43 169.29) rotate(155.71)"><tspan x="0" y="0"> </tspan></text>
  <text class="cls-2" transform="translate(144.71 169.62) rotate(156.61)"><tspan x="0" y="0">t</tspan></text>
  <text class="cls-2" transform="translate(144.02 169.92) rotate(157.55)"><tspan x="0" y="0"> </tspan></text>
  <text class="cls-2" transform="translate(143.26 170.23) rotate(158.9)"><tspan x="0" y="0">h</tspan></text>
  <text class="cls-2" transform="translate(141.91 170.76) rotate(160.61)"><tspan x="0" y="0">e</tspan></text>
  <text class="cls-2" transform="translate(140.5 171.25) rotate(162.37)"><tspan x="0" y="0">e</tspan></text>
  <text class="cls-2" transform="translate(139.09 171.7) rotate(164.09)"><tspan x="0" y="0">n</tspan></text>
  <text class="cls-2" transform="translate(137.69 172.1) rotate(165.86)"><tspan x="0" y="0">d</tspan></text>
</svg>