<?xml version="1.0" encoding="UTF-8"?>
<svg id="Layer_5" data-name="Layer 5" xmlns="http://www.w3.org/2000/svg" viewBox="0 0 250 250">
  <defs>
    <style>
      .cls-1 {
        font-family: Futura-CondensedExtraBold, Futura;
        font-weight: 700;
      }

      .cls-1, .cls-2 {
        fill: #231f20;
        font-size: 2.3px;
      }

      .cls-2 {
        font-family: Futura-Medium, Futura;
        font-weight: 500;
      }
    </style>
  </defs>
  <text class="cls-2" transform="translate(95.39 141.25) rotate(-116.91)"><tspan x="0" y="0">M</tspan></text>
  <text class="cls-2" transform="translate(94.4 139.29) rotate(-113.92)"><tspan x="0" y="0">o</tspan></text>
  <text class="cls-2" transform="translate(93.85 138.03) rotate(-111.98)"><tspan x="0" y="0">s</tspan></text>
  <text class="cls-2" transform="translate(93.51 137.17) rotate(-110.67)"><tspan x="0" y="0">t</tspan></text>
  <text class="cls-2" transform="translate(93.29 136.59) rotate(-109.54)"><tspan x="0" y="0"> </tspan></text>
  <text class="cls-2" transform="translate(93.05 135.94) rotate(-107.79)"><tspan x="0" y="0">b</tspan></text>
  <text class="cls-2" transform="translate(92.63 134.64) rotate(-105.46)"><tspan x="0" y="0">a</tspan></text>
  <text class="cls-2" transform="translate(92.27 133.33) rotate(-103.58)"><tspan x="0" y="0">r</tspan></text>
  <text class="cls-2" transform="translate(92.07 132.47) rotate(-102.07)"><tspan x="0" y="0">r</tspan></text>
  <text class="cls-2" transform="translate(91.88 131.6) rotate(-100.78)"><tspan x="0" y="0">i</tspan></text>
  <text class="cls-2" transform="translate(91.77 131.05) rotate(-99.23)"><tspan x="0" y="0">e</tspan></text>
  <text class="cls-2" transform="translate(91.57 129.8) rotate(-97.42)"><tspan x="0" y="0">r</tspan></text>
  <text class="cls-2" transform="translate(91.46 128.95) rotate(-95.88)"><tspan x="0" y="0">s</tspan></text>
  <text class="cls-2" transform="translate(91.37 128.04) rotate(-94.53)"><tspan x="0" y="0"> </tspan></text>
  <text class="cls-2" transform="translate(91.31 127.33) rotate(-92.74)"><tspan x="0" y="0">a</tspan></text>
  <text class="cls-2" transform="translate(91.25 125.97) rotate(-90.86)"><tspan x="0" y="0">r</tspan></text>
  <text class="cls-2" transform="translate(91.23 125.13) rotate(-89.08)"><tspan x="0" y="0">e</tspan></text>
  <text class="cls-2" transform="translate(91.25 123.89) rotate(-87.44)"><tspan x="0" y="0"> </tspan></text>
  <text class="cls-2" transform="translate(91.28 123.18) rotate(-86.06)"><tspan x="0" y="0">s</tspan></text>
  <text class="cls-2" transform="translate(91.34 122.28) rotate(-84.25)"><tspan x="0" y="0">u</tspan></text>
  <text class="cls-2" transform="translate(91.47 121.02) rotate(-82.45)"><tspan x="0" y="0">r</tspan></text>
  <text class="cls-2" transform="translate(91.59 120.14) rotate(-80.95)"><tspan x="0" y="0">r</tspan></text>
  <text class="cls-2" transform="translate(91.72 119.29) rotate(-78.68)"><tspan x="0" y="0">m</tspan></text>
  <text class="cls-2" transform="translate(92.08 117.51) rotate(-75.99)"><tspan x="0" y="0">o</tspan></text>
  <text class="cls-2" transform="translate(92.41 116.2) rotate(-73.81)"><tspan x="0" y="0">u</tspan></text>
  <text class="cls-2" transform="translate(92.75 115.01) rotate(-71.72)"><tspan x="0" y="0">n</tspan></text>
  <text class="cls-2" transform="translate(93.15 113.82) rotate(-70.14)"><tspan x="0" y="0">t</tspan></text>
  <text class="cls-2" transform="translate(93.36 113.22) rotate(-68.43)"><tspan x="0" y="0">a</tspan></text>
  <text class="cls-2" transform="translate(93.86 111.95) rotate(-66.12)"><tspan x="0" y="0">b</tspan></text>
  <text class="cls-2" transform="translate(94.42 110.7) rotate(-64.48)"><tspan x="0" y="0">l</tspan></text>
  <text class="cls-2" transform="translate(94.66 110.19) rotate(-62.94)"><tspan x="0" y="0">e</tspan></text>
  <text class="cls-2" transform="translate(95.23 109.08) rotate(-61.3)"><tspan x="0" y="0">.</tspan></text>
  <text class="cls-2" transform="translate(95.57 108.46) rotate(-60.09)"><tspan x="0" y="0"> </tspan></text>
  <text class="cls-2" transform="translate(95.9 107.85) rotate(-57.45)"><tspan x="0" y="0">W</tspan></text>
  <text class="cls-2" transform="translate(97.14 105.92) rotate(-54.54)"><tspan x="0" y="0">e</tspan></text>
  <text class="cls-2" transform="translate(97.87 104.9) rotate(-52.88)"><tspan x="0" y="0"> </tspan></text>
  <text class="cls-2" transform="translate(98.29 104.35) rotate(-51.13)"><tspan x="0" y="0">d</tspan></text>
  <text class="cls-2" transform="translate(99.14 103.28) rotate(-48.79)"><tspan x="0" y="0">o</tspan></text>
  <text class="cls-2" transform="translate(100.05 102.25) rotate(-46.53)"><tspan x="0" y="0">n</tspan></text>
  <text class="cls-2" transform="translate(100.91 101.35) rotate(-44.84)"><tspan x="0" y="0">’</tspan></text>
  <text class="cls-2" transform="translate(101.43 100.83) rotate(-43.68)"><tspan x="0" y="0">t</tspan></text>
  <text class="cls-2" transform="translate(101.89 100.39) rotate(-42.53)"><tspan x="0" y="0"> </tspan></text>
  <text class="cls-2" transform="translate(102.4 99.91) rotate(-40.43)"><tspan x="0" y="0">w</tspan></text>
  <text class="cls-2" transform="translate(103.72 98.79) rotate(-37.82)"><tspan x="0" y="0">a</tspan></text>
  <text class="cls-2" transform="translate(104.79 97.96) rotate(-36.2)"><tspan x="0" y="0">l</tspan></text>
  <text class="cls-2" transform="translate(105.25 97.62) rotate(-34.75)"><tspan x="0" y="0">k</tspan></text>
  <text class="cls-2" transform="translate(106.18 96.98) rotate(-33.21)"><tspan x="0" y="0"> </tspan></text>
  <text class="cls-2" transform="translate(106.77 96.59) rotate(-32.08)"><tspan x="0" y="0">t</tspan></text>
  <text class="cls-2" transform="translate(107.33 96.24) rotate(-30.45)"><tspan x="0" y="0">h</tspan></text>
  <text class="cls-2" transform="translate(108.4 95.6) rotate(-27.8)"><tspan x="0" y="0">r</tspan></text>
  <text class="cls-2" transform="translate(109.14 95.2) rotate(-26.86)"><tspan x="0" y="0">o</tspan></text>
  <text class="cls-2" transform="translate(110.36 94.59) rotate(-24.69)"><tspan x="0" y="0">u</tspan></text>
  <text class="cls-2" transform="translate(111.47 94.08) rotate(-22.52)"><tspan x="0" y="0">g</tspan></text>
  <text class="cls-2" transform="translate(112.73 93.55) rotate(-20.31)"><tspan x="0" y="0">h</tspan></text>
  <text class="cls-2" transform="translate(113.9 93.12) rotate(-18.64)"><tspan x="0" y="0"> </tspan></text>
  <text class="cls-2" transform="translate(114.56 92.9) rotate(-16.89)"><tspan x="0" y="0">a</tspan></text>
  <text class="cls-2" transform="translate(115.88 92.5) rotate(-15.1)"><tspan x="0" y="0"> </tspan></text>
  <text class="cls-2" transform="translate(116.54 92.32) rotate(-13.36)"><tspan x="0" y="0">d</tspan></text>
  <text class="cls-2" transform="translate(117.88 92) rotate(-11)"><tspan x="0" y="0">o</tspan></text>
  <text class="cls-2" transform="translate(119.22 91.74) rotate(-8.66)"><tspan x="0" y="0">o</tspan></text>
  <text class="cls-2" transform="translate(120.58 91.54) rotate(-6.76)"><tspan x="0" y="0">r</tspan></text>
  <text class="cls-2" transform="translate(121.42 91.44) rotate(-5.45)"><tspan x="0" y="0"> </tspan></text>
  <text class="cls-2" transform="translate(122.12 91.37) rotate(-4.31)"><tspan x="0" y="0">t</tspan></text>
  <text class="cls-2" transform="translate(122.78 91.32) rotate(-2.65)"><tspan x="0" y="0">h</tspan></text>
  <text class="cls-2" transform="translate(124.02 91.26) rotate(-.43)"><tspan x="0" y="0">a</tspan></text>
  <text class="cls-2" transform="translate(125.39 91.25) rotate(1.26)"><tspan x="0" y="0">t</tspan></text>
  <text class="cls-2" transform="translate(126.01 91.27) rotate(2.39)"><tspan x="0" y="0"> </tspan></text>
  <text class="cls-2" transform="translate(126.71 91.29) rotate(3.77)"><tspan x="0" y="0">s</tspan></text>
  <text class="cls-2" transform="translate(127.63 91.35) rotate(5.71)"><tspan x="0" y="0">a</tspan></text>
  <text class="cls-2" transform="translate(129.01 91.49) rotate(7.94)"><tspan x="0" y="0">y</tspan></text>
  <text class="cls-2" transform="translate(130.22 91.66) rotate(9.74)"><tspan x="0" y="0">s</tspan></text>
  <text class="cls-1" transform="translate(131.14 91.82) rotate(11.11)"><tspan x="0" y="0"> </tspan></text>
  <text class="cls-1" transform="translate(131.8 91.95) rotate(12.39)"><tspan x="0" y="0">‘</tspan></text>
  <text class="cls-1" transform="translate(132.65 92.13) rotate(14.23)"><tspan x="0" y="0">d</tspan></text>
  <text class="cls-1" transform="translate(133.89 92.45) rotate(16.36)"><tspan x="0" y="0">o</tspan></text>
  <text class="cls-1" transform="translate(135.09 92.8) rotate(17.98)"><tspan x="0" y="0"> </tspan></text>
  <text class="cls-1" transform="translate(135.73 93) rotate(19.61)"><tspan x="0" y="0">n</tspan></text>
  <text class="cls-1" transform="translate(136.92 93.43) rotate(21.74)"><tspan x="0" y="0">o</tspan></text>
  <text class="cls-1" transform="translate(138.09 93.9) rotate(23.46)"><tspan x="0" y="0">t</tspan></text>
  <text class="cls-1" transform="translate(138.78 94.2) rotate(24.66)"><tspan x="0" y="0"> </tspan></text>
  <text class="cls-1" transform="translate(139.41 94.48) rotate(26.29)"><tspan x="0" y="0">e</tspan></text>
  <text class="cls-1" transform="translate(140.53 95.04) rotate(28.44)"><tspan x="0" y="0">n</tspan></text>
  <text class="cls-1" transform="translate(141.64 95.64) rotate(30.17)"><tspan x="0" y="0">t</tspan></text>
  <text class="cls-1" transform="translate(142.32 96.03) rotate(31.9)"><tspan x="0" y="0">e</tspan></text>
  <text class="cls-1" transform="translate(143.36 96.68) rotate(33.68)"><tspan x="0" y="0">r</tspan></text>
  <text class="cls-2" transform="translate(144.1 97.18) rotate(35.07)"><tspan x="0" y="0">’</tspan></text>
  <text class="cls-2" transform="translate(144.71 97.6) rotate(36.29)"><tspan x="0" y="0"> </tspan></text>
  <text class="cls-2" transform="translate(145.29 98.02) rotate(38.09)"><tspan x="0" y="0">b</tspan></text>
  <text class="cls-2" transform="translate(146.34 98.85) rotate(40.28)"><tspan x="0" y="0">e</tspan></text>
  <text class="cls-2" transform="translate(147.31 99.67) rotate(42.32)"><tspan x="0" y="0">c</tspan></text>
  <text class="cls-2" transform="translate(148.11 100.4) rotate(44.4)"><tspan x="0" y="0">a</tspan></text>
  <text class="cls-2" transform="translate(149.08 101.35) rotate(46.63)"><tspan x="0" y="0">u</tspan></text>
  <text class="cls-2" transform="translate(149.93 102.25) rotate(48.46)"><tspan x="0" y="0">s</tspan></text>
  <text class="cls-2" transform="translate(150.55 102.95) rotate(50.34)"><tspan x="0" y="0">e</tspan></text>
  <text class="cls-2" transform="translate(151.35 103.92) rotate(52)"><tspan x="0" y="0"> </tspan></text>
  <text class="cls-2" transform="translate(151.78 104.45) rotate(54.08)"><tspan x="0" y="0">w</tspan></text>
  <text class="cls-2" transform="translate(152.79 105.85) rotate(56.56)"><tspan x="0" y="0">e</tspan></text>
  <text class="cls-2" transform="translate(153.49 106.92) rotate(58.24)"><tspan x="0" y="0"> </tspan></text>
  <text class="cls-2" transform="translate(153.85 107.5) rotate(59.28)"><tspan x="0" y="0">i</tspan></text>
  <text class="cls-2" transform="translate(154.16 107.98) rotate(62.2)"><tspan x="0" y="0">m</tspan></text>
  <text class="cls-2" transform="translate(155.01 109.57) rotate(63.91)"><tspan x="0" y="0">a</tspan></text>
  <text class="cls-2" transform="translate(155.62 110.8) rotate(66.22)"><tspan x="0" y="0">g</tspan></text>
  <text class="cls-2" transform="translate(156.16 112.05) rotate(67.84)"><tspan x="0" y="0">i</tspan></text>
  <text class="cls-2" transform="translate(156.38 112.57) rotate(69.38)"><tspan x="0" y="0">n</tspan></text>
  <text class="cls-2" transform="translate(156.81 113.73) rotate(71.5)"><tspan x="0" y="0">e</tspan></text>
  <text class="cls-2" transform="translate(157.21 114.92) rotate(73.16)"><tspan x="0" y="0"> </tspan></text>
  <text class="cls-2" transform="translate(157.41 115.59) rotate(74.27)"><tspan x="0" y="0">t</tspan></text>
  <text class="cls-2" transform="translate(157.6 116.23) rotate(75.97)"><tspan x="0" y="0">h</tspan></text>
  <text class="cls-2" transform="translate(157.9 117.44) rotate(78.11)"><tspan x="0" y="0">e</tspan></text>
  <text class="cls-2" transform="translate(158.16 118.68) rotate(79.93)"><tspan x="0" y="0">r</tspan></text>
  <text class="cls-2" transform="translate(158.3 119.5) rotate(81.7)"><tspan x="0" y="0">e</tspan></text>
  <text class="cls-2" transform="translate(158.48 120.75) rotate(83.41)"><tspan x="0" y="0">’</tspan></text>
  <text class="cls-2" transform="translate(158.57 121.48) rotate(84.81)"><tspan x="0" y="0">s</tspan></text>
  <text class="cls-2" transform="translate(158.65 122.4) rotate(86.22)"><tspan x="0" y="0"> </tspan></text>
  <text class="cls-2" transform="translate(158.7 123.09) rotate(87.96)"><tspan x="0" y="0">a</tspan></text>
  <text class="cls-2" transform="translate(158.75 124.47) rotate(89.75)"><tspan x="0" y="0"> </tspan></text>
  <text class="cls-2" transform="translate(158.76 125.16) rotate(91.48)"><tspan x="0" y="0">g</tspan></text>
  <text class="cls-2" transform="translate(158.72 126.53) rotate(93.81)"><tspan x="0" y="0">o</tspan></text>
  <text class="cls-2" transform="translate(158.63 127.87) rotate(96.09)"><tspan x="0" y="0">o</tspan></text>
  <text class="cls-2" transform="translate(158.49 129.24) rotate(98.41)"><tspan x="0" y="0">d</tspan></text>
  <text class="cls-2" transform="translate(158.28 130.6) rotate(100.17)"><tspan x="0" y="0"> </tspan></text>
  <text class="cls-2" transform="translate(158.16 131.29) rotate(101.49)"><tspan x="0" y="0">r</tspan></text>
  <text class="cls-2" transform="translate(157.99 132.11) rotate(103.25)"><tspan x="0" y="0">e</tspan></text>
  <text class="cls-2" transform="translate(157.71 133.31) rotate(105.42)"><tspan x="0" y="0">a</tspan></text>
  <text class="cls-2" transform="translate(157.34 134.65) rotate(107.39)"><tspan x="0" y="0">s</tspan></text>
  <text class="cls-2" transform="translate(157.07 135.52) rotate(109.31)"><tspan x="0" y="0">o</tspan></text>
  <text class="cls-2" transform="translate(156.62 136.8) rotate(111.49)"><tspan x="0" y="0">n</tspan></text>
  <text class="cls-2" transform="translate(156.15 137.98) rotate(113.16)"><tspan x="0" y="0"> </tspan></text>
  <text class="cls-2" transform="translate(155.89 138.63) rotate(115.26)"><tspan x="0" y="0">w</tspan></text>
  <text class="cls-2" transform="translate(155.13 140.22) rotate(117.8)"><tspan x="0" y="0">h</tspan></text>
  <text class="cls-2" transform="translate(154.57 141.28) rotate(119.82)"><tspan x="0" y="0">y</tspan></text>
  <text class="cls-2" transform="translate(153.95 142.35) rotate(121.46)"><tspan x="0" y="0"> </tspan></text>
  <text class="cls-2" transform="translate(153.6 142.94) rotate(123.55)"><tspan x="0" y="0">w</tspan></text>
  <text class="cls-2" transform="translate(152.64 144.39) rotate(126.07)"><tspan x="0" y="0">e</tspan></text>
  <text class="cls-2" transform="translate(151.9 145.4) rotate(127.74)"><tspan x="0" y="0"> </tspan></text>
  <text class="cls-2" transform="translate(151.48 145.95) rotate(129.49)"><tspan x="0" y="0">a</tspan></text>
  <text class="cls-2" transform="translate(150.6 147.01) rotate(131.39)"><tspan x="0" y="0">r</tspan></text>
  <text class="cls-2" transform="translate(150.06 147.63) rotate(133.16)"><tspan x="0" y="0">e</tspan></text>
  <text class="cls-2" transform="translate(149.19 148.55) rotate(134.84)"><tspan x="0" y="0"> </tspan></text>
  <text class="cls-2" transform="translate(148.69 149.06) rotate(136.62)"><tspan x="0" y="0">b</tspan></text>
  <text class="cls-2" transform="translate(147.7 149.99) rotate(138.86)"><tspan x="0" y="0">e</tspan></text>
  <text class="cls-2" transform="translate(146.74 150.82) rotate(140.43)"><tspan x="0" y="0">i</tspan></text>
  <text class="cls-2" transform="translate(146.32 151.18) rotate(141.96)"><tspan x="0" y="0">n</tspan></text>
  <text class="cls-2" transform="translate(145.34 151.94) rotate(144.17)"><tspan x="0" y="0">g</tspan></text>
  <text class="cls-2" transform="translate(144.23 152.74) rotate(145.93)"><tspan x="0" y="0"> </tspan></text>
  <text class="cls-2" transform="translate(143.66 153.13) rotate(147.65)"><tspan x="0" y="0">a</tspan></text>
  <text class="cls-2" transform="translate(142.51 153.86) rotate(149.55)"><tspan x="0" y="0">s</tspan></text>
  <text class="cls-2" transform="translate(141.72 154.34) rotate(152.2)"><tspan x="0" y="0">k</tspan></text>
  <text class="cls-2" transform="translate(140.74 154.86) rotate(153.23)"><tspan x="0" y="0">e</tspan></text>
  <text class="cls-2" transform="translate(139.64 155.42) rotate(155.4)"><tspan x="0" y="0">d</tspan></text>
  <text class="cls-2" transform="translate(138.38 155.99) rotate(157.16)"><tspan x="0" y="0"> </tspan></text>
  <text class="cls-2" transform="translate(137.73 156.27) rotate(158.3)"><tspan x="0" y="0">t</tspan></text>
  <text class="cls-2" transform="translate(137.14 156.51) rotate(160.01)"><tspan x="0" y="0">o</tspan></text>
  <text class="cls-2" transform="translate(135.86 156.97) rotate(161.76)"><tspan x="0" y="0"> </tspan></text>
  <text class="cls-2" transform="translate(135.2 157.19) rotate(163.07)"><tspan x="0" y="0">r</tspan></text>
  <text class="cls-2" transform="translate(134.4 157.43) rotate(164.86)"><tspan x="0" y="0">e</tspan></text>
  <text class="cls-2" transform="translate(133.18 157.76) rotate(166.73)"><tspan x="0" y="0">s</tspan></text>
  <text class="cls-2" transform="translate(132.28 157.98) rotate(168.69)"><tspan x="0" y="0">p</tspan></text>
  <text class="cls-2" transform="translate(130.96 158.24) rotate(170.9)"><tspan x="0" y="0">e</tspan></text>
  <text class="cls-2" transform="translate(129.7 158.44) rotate(172.93)"><tspan x="0" y="0">c</tspan></text>
  <text class="cls-2" transform="translate(128.63 158.57) rotate(174.38)"><tspan x="0" y="0">t</tspan></text>
  <text class="cls-2" transform="translate(128 158.63) rotate(175.52)"><tspan x="0" y="0"> </tspan></text>
  <text class="cls-2" transform="translate(127.3 158.69) rotate(176.66)"><tspan x="0" y="0">t</tspan></text>
  <text class="cls-2" transform="translate(126.64 158.73) rotate(178.31)"><tspan x="0" y="0">h</tspan></text>
  <text class="cls-2" transform="translate(125.41 158.76) rotate(179.83)"><tspan x="0" y="0">i</tspan></text>
  <text class="cls-2" transform="translate(124.85 158.77) rotate(-178.91)"><tspan x="0" y="0">s</tspan></text>
  <text class="cls-2" transform="translate(123.92 158.75) rotate(-177.53)"><tspan x="0" y="0"> </tspan></text>
  <text class="cls-2" transform="translate(123.21 158.72) rotate(-175.76)"><tspan x="0" y="0">b</tspan></text>
  <text class="cls-2" transform="translate(121.85 158.62) rotate(-173.43)"><tspan x="0" y="0">o</tspan></text>
  <text class="cls-2" transform="translate(120.5 158.47) rotate(-171.25)"><tspan x="0" y="0">u</tspan></text>
  <text class="cls-2" transform="translate(119.28 158.28) rotate(-169.15)"><tspan x="0" y="0">n</tspan></text>
  <text class="cls-2" transform="translate(118.06 158.05) rotate(-166.97)"><tspan x="0" y="0">d</tspan></text>
  <text class="cls-2" transform="translate(116.73 157.74) rotate(-164.66)"><tspan x="0" y="0">a</tspan></text>
  <text class="cls-2" transform="translate(115.41 157.37) rotate(-162.78)"><tspan x="0" y="0">r</tspan></text>
  <text class="cls-2" transform="translate(114.51 157.09) rotate(-160.86)"><tspan x="0" y="0">y</tspan></text>
  <text class="cls-2" transform="translate(113.46 156.73) rotate(-159.45)"><tspan x="0" y="0">.</tspan></text>
</svg>