<?xml version="1.0" encoding="UTF-8"?>
<svg id="Layer_10" data-name="Layer 10" xmlns="http://www.w3.org/2000/svg" viewBox="0 0 250 250">
  <defs>
    <style>
      .cls-1 {
        fill: #231f20;
        font-family: Futura-Medium, Futura;
        font-size: 2.8px;
        font-weight: 500;
      }
    </style>
  </defs>
  <text class="cls-1" transform="translate(155.88 167.42) rotate(144.92)"><tspan x="0" y="0">L</tspan></text>
  <text class="cls-1" transform="translate(154.87 168.14) rotate(146.21)"><tspan x="0" y="0">a</tspan></text>
  <text class="cls-1" transform="translate(153.48 169.07) rotate(147.93)"><tspan x="0" y="0">y</tspan></text>
  <text class="cls-1" transform="translate(152.24 169.85) rotate(149.54)"><tspan x="0" y="0">e</tspan></text>
  <text class="cls-1" transform="translate(150.89 170.64) rotate(150.96)"><tspan x="0" y="0">r</tspan></text>
  <text class="cls-1" transform="translate(150 171.13) rotate(151.98)"><tspan x="0" y="0"> </tspan></text>
  <text class="cls-1" transform="translate(149.24 171.54) rotate(153.39)"><tspan x="0" y="0">1</tspan></text>
  <text class="cls-1" transform="translate(147.86 172.24) rotate(155.08)"><tspan x="0" y="0">0</tspan></text>
  <text class="cls-1" transform="translate(146.3 172.96) rotate(156.49)"><tspan x="0" y="0"> </tspan></text>
  <text class="cls-1" transform="translate(145.5 173.3) rotate(157.43)"><tspan x="0" y="0">I</tspan></text>
  <text class="cls-1" transform="translate(144.77 173.61) rotate(158.77)"><tspan x="0" y="0">p</tspan></text>
  <text class="cls-1" transform="translate(143.19 174.22) rotate(160.33)"><tspan x="0" y="0">s</tspan></text>
  <text class="cls-1" transform="translate(142.14 174.6) rotate(161.78)"><tspan x="0" y="0">u</tspan></text>
  <text class="cls-1" transform="translate(140.72 175.08) rotate(163.81)"><tspan x="0" y="0">m</tspan></text>
  <text class="cls-1" transform="translate(138.58 175.69) rotate(165.51)"><tspan x="0" y="0"> </tspan></text>
  <text class="cls-1" transform="translate(137.76 175.9) rotate(166.65)"><tspan x="0" y="0">L</tspan></text>
  <text class="cls-1" transform="translate(136.57 176.19) rotate(168.23)"><tspan x="0" y="0">o</tspan></text>
  <text class="cls-1" transform="translate(134.93 176.52) rotate(169.71)"><tspan x="0" y="0">r</tspan></text>
  <text class="cls-1" transform="translate(133.93 176.71) rotate(171.11)"><tspan x="0" y="0">e</tspan></text>
  <text class="cls-1" transform="translate(132.42 176.95) rotate(173.15)"><tspan x="0" y="0">m</tspan></text>
  <text class="cls-1" transform="translate(130.21 177.21) rotate(174.84)"><tspan x="0" y="0"> </tspan></text>
  <text class="cls-1" transform="translate(129.36 177.28) rotate(175.75)"><tspan x="0" y="0">I</tspan></text>
  <text class="cls-1" transform="translate(128.57 177.35) rotate(177.08)"><tspan x="0" y="0">p</tspan></text>
  <text class="cls-1" transform="translate(126.89 177.43) rotate(178.61)"><tspan x="0" y="0">s</tspan></text>
  <text class="cls-1" transform="translate(125.77 177.46) rotate(-179.95)"><tspan x="0" y="0">u</tspan></text>
  <text class="cls-1" transform="translate(124.26 177.46) rotate(-177.94)"><tspan x="0" y="0">m</tspan></text>
  <text class="cls-1" transform="translate(122.05 177.37) rotate(-176.27)"><tspan x="0" y="0"> </tspan></text>
  <text class="cls-1" transform="translate(121.2 177.32) rotate(-175.13)"><tspan x="0" y="0">L</tspan></text>
  <text class="cls-1" transform="translate(119.98 177.22) rotate(-173.57)"><tspan x="0" y="0">o</tspan></text>
  <text class="cls-1" transform="translate(118.3 177.03) rotate(-172.08)"><tspan x="0" y="0">r</tspan></text>
  <text class="cls-1" transform="translate(117.3 176.89) rotate(-170.71)"><tspan x="0" y="0">e</tspan></text>
  <text class="cls-1" transform="translate(115.8 176.65) rotate(-168.71)"><tspan x="0" y="0">m</tspan></text>
  <text class="cls-1" transform="translate(113.63 176.21) rotate(-167.04)"><tspan x="0" y="0"> </tspan></text>
  <text class="cls-1" transform="translate(112.79 176.02) rotate(-166.12)"><tspan x="0" y="0">I</tspan></text>
  <text class="cls-1" transform="translate(112 175.83) rotate(-164.77)"><tspan x="0" y="0">p</tspan></text>
  <text class="cls-1" transform="translate(110.39 175.38) rotate(-163.25)"><tspan x="0" y="0">s</tspan></text>
  <text class="cls-1" transform="translate(109.31 175.06) rotate(-161.82)"><tspan x="0" y="0">u</tspan></text>
  <text class="cls-1" transform="translate(107.87 174.6) rotate(-159.8)"><tspan x="0" y="0">m</tspan></text>
  <text class="cls-1" transform="translate(105.79 173.82) rotate(-158.12)"><tspan x="0" y="0"> </tspan></text>
  <text class="cls-1" transform="translate(105.01 173.51) rotate(-156.99)"><tspan x="0" y="0">L</tspan></text>
  <text class="cls-1" transform="translate(103.86 173.03) rotate(-155.39)"><tspan x="0" y="0">o</tspan></text>
  <text class="cls-1" transform="translate(102.35 172.33) rotate(-153.92)"><tspan x="0" y="0">r</tspan></text>
  <text class="cls-1" transform="translate(101.43 171.88) rotate(-152.52)"><tspan x="0" y="0">e</tspan></text>
  <text class="cls-1" transform="translate(100.06 171.18) rotate(-150.47)"><tspan x="0" y="0">m</tspan></text>
  <text class="cls-1" transform="translate(98.16 170.09) rotate(-148.81)"><tspan x="0" y="0"> </tspan></text>
  <text class="cls-1" transform="translate(97.42 169.64) rotate(-147.88)"><tspan x="0" y="0">I</tspan></text>
  <text class="cls-1" transform="translate(96.73 169.22) rotate(-146.52)"><tspan x="0" y="0">p</tspan></text>
  <text class="cls-1" transform="translate(95.34 168.29) rotate(-144.97)"><tspan x="0" y="0">s</tspan></text>
  <text class="cls-1" transform="translate(94.42 167.65) rotate(-143.53)"><tspan x="0" y="0">u</tspan></text>
  <text class="cls-1" transform="translate(93.21 166.77) rotate(-141.51)"><tspan x="0" y="0">m</tspan></text>
  <text class="cls-1" transform="translate(91.48 165.38) rotate(-139.82)"><tspan x="0" y="0"> </tspan></text>
  <text class="cls-1" transform="translate(90.82 164.82) rotate(-138.65)"><tspan x="0" y="0">L</tspan></text>
  <text class="cls-1" transform="translate(89.91 164.02) rotate(-137.08)"><tspan x="0" y="0">o</tspan></text>
  <text class="cls-1" transform="translate(88.69 162.88) rotate(-135.6)"><tspan x="0" y="0">r</tspan></text>
  <text class="cls-1" transform="translate(87.95 162.17) rotate(-134.2)"><tspan x="0" y="0">e</tspan></text>
  <text class="cls-1" transform="translate(86.88 161.07) rotate(-132.17)"><tspan x="0" y="0">m</tspan></text>
  <text class="cls-1" transform="translate(85.4 159.42) rotate(-130.5)"><tspan x="0" y="0"> </tspan></text>
  <text class="cls-1" transform="translate(84.85 158.77) rotate(-129.59)"><tspan x="0" y="0">I</tspan></text>
  <text class="cls-1" transform="translate(84.32 158.15) rotate(-128.26)"><tspan x="0" y="0">p</tspan></text>
  <text class="cls-1" transform="translate(83.28 156.82) rotate(-126.94)"><tspan x="0" y="0">s</tspan></text>
  <text class="cls-1" transform="translate(82.61 155.93) rotate(-125.08)"><tspan x="0" y="0">u</tspan></text>
  <text class="cls-1" transform="translate(81.73 154.7) rotate(-123.34)"><tspan x="0" y="0">m</tspan></text>
  <text class="cls-1" transform="translate(80.53 152.85) rotate(-121.48)"><tspan x="0" y="0">L</tspan></text>
  <text class="cls-1" transform="translate(79.89 151.82) rotate(-119.92)"><tspan x="0" y="0">o</tspan></text>
  <text class="cls-1" transform="translate(79.06 150.37) rotate(-118.45)"><tspan x="0" y="0">r</tspan></text>
  <text class="cls-1" transform="translate(78.57 149.47) rotate(-117.05)"><tspan x="0" y="0">e</tspan></text>
  <text class="cls-1" transform="translate(77.87 148.11) rotate(-115.01)"><tspan x="0" y="0">m</tspan></text>
  <text class="cls-1" transform="translate(76.94 146.1) rotate(-113.33)"><tspan x="0" y="0"> </tspan></text>
  <text class="cls-1" transform="translate(76.6 145.32) rotate(-112.41)"><tspan x="0" y="0">I</tspan></text>
  <text class="cls-1" transform="translate(76.29 144.57) rotate(-111.05)"><tspan x="0" y="0">p</tspan></text>
  <text class="cls-1" transform="translate(75.69 142.99) rotate(-109.49)"><tspan x="0" y="0">s</tspan></text>
  <text class="cls-1" transform="translate(75.32 141.96) rotate(-108.07)"><tspan x="0" y="0">u</tspan></text>
  <text class="cls-1" transform="translate(74.84 140.51) rotate(-106.01)"><tspan x="0" y="0">m</tspan></text>
  <text class="cls-1" transform="translate(74.24 138.4) rotate(-104.14)"><tspan x="0" y="0">L</tspan></text>
  <text class="cls-1" transform="translate(73.93 137.2) rotate(-102.54)"><tspan x="0" y="0">o</tspan></text>
  <text class="cls-1" transform="translate(73.58 135.57) rotate(-101.05)"><tspan x="0" y="0">r</tspan></text>
  <text class="cls-1" transform="translate(73.38 134.56) rotate(-99.65)"><tspan x="0" y="0">e</tspan></text>
  <text class="cls-1" transform="translate(73.11 133.07) rotate(-97.63)"><tspan x="0" y="0">m</tspan></text>
  <text class="cls-1" transform="translate(72.83 130.87) rotate(-95.94)"><tspan x="0" y="0"> </tspan></text>
  <text class="cls-1" transform="translate(72.74 130.02) rotate(-95.03)"><tspan x="0" y="0">I</tspan></text>
  <text class="cls-1" transform="translate(72.67 129.2) rotate(-93.67)"><tspan x="0" y="0">p</tspan></text>
  <text class="cls-1" transform="translate(72.56 127.53) rotate(-92.14)"><tspan x="0" y="0">s</tspan></text>
  <text class="cls-1" transform="translate(72.52 126.43) rotate(-90.72)"><tspan x="0" y="0">u</tspan></text>
  <text class="cls-1" transform="translate(72.49 124.92) rotate(-88.71)"><tspan x="0" y="0">m</tspan></text>
  <text class="cls-1" transform="translate(72.55 122.7) rotate(-86.82)"><tspan x="0" y="0">L</tspan></text>
  <text class="cls-1" transform="translate(72.62 121.46) rotate(-85.24)"><tspan x="0" y="0">o</tspan></text>
  <text class="cls-1" transform="translate(72.76 119.81) rotate(-83.79)"><tspan x="0" y="0">r</tspan></text>
  <text class="cls-1" transform="translate(72.86 118.81) rotate(-82.42)"><tspan x="0" y="0">e</tspan></text>
  <text class="cls-1" transform="translate(73.06 117.26) rotate(-80.37)"><tspan x="0" y="0">m</tspan></text>
  <text class="cls-1" transform="translate(73.44 115.08) rotate(-78.71)"><tspan x="0" y="0"> </tspan></text>
  <text class="cls-1" transform="translate(73.61 114.25) rotate(-77.81)"><tspan x="0" y="0">I</tspan></text>
  <text class="cls-1" transform="translate(73.77 113.46) rotate(-76.46)"><tspan x="0" y="0">p</tspan></text>
  <text class="cls-1" transform="translate(74.17 111.84) rotate(-74.95)"><tspan x="0" y="0">s</tspan></text>
  <text class="cls-1" transform="translate(74.46 110.75) rotate(-73.51)"><tspan x="0" y="0">u</tspan></text>
  <text class="cls-1" transform="translate(74.88 109.3) rotate(-71.5)"><tspan x="0" y="0">m</tspan></text>
  <text class="cls-1" transform="translate(75.59 107.21) rotate(-69.63)"><tspan x="0" y="0">L</tspan></text>
  <text class="cls-1" transform="translate(76.02 106.05) rotate(-68.03)"><tspan x="0" y="0">o</tspan></text>
  <text class="cls-1" transform="translate(76.64 104.5) rotate(-66.56)"><tspan x="0" y="0">r</tspan></text>
  <text class="cls-1" transform="translate(77.04 103.57) rotate(-65.18)"><tspan x="0" y="0">e</tspan></text>
  <text class="cls-1" transform="translate(77.68 102.18) rotate(-63.13)"><tspan x="0" y="0">m</tspan></text>
  <text class="cls-1" transform="translate(78.69 100.21) rotate(-61.46)"><tspan x="0" y="0"> </tspan></text>
  <text class="cls-1" transform="translate(79.1 99.46) rotate(-60.54)"><tspan x="0" y="0">I</tspan></text>
  <text class="cls-1" transform="translate(79.49 98.75) rotate(-59.18)"><tspan x="0" y="0">p</tspan></text>
  <text class="cls-1" transform="translate(80.35 97.32) rotate(-57.64)"><tspan x="0" y="0">s</tspan></text>
  <text class="cls-1" transform="translate(80.95 96.36) rotate(-56.19)"><tspan x="0" y="0">u</tspan></text>
  <text class="cls-1" transform="translate(81.78 95.11) rotate(-54.15)"><tspan x="0" y="0">m</tspan></text>
  <text class="cls-1" transform="translate(83.08 93.33) rotate(-52.27)"><tspan x="0" y="0">L</tspan></text>
  <text class="cls-1" transform="translate(83.84 92.35) rotate(-50.66)"><tspan x="0" y="0">o</tspan></text>
  <text class="cls-1" transform="translate(84.89 91.07) rotate(-49.19)"><tspan x="0" y="0">r</tspan></text>
  <text class="cls-1" transform="translate(85.55 90.3) rotate(-47.8)"><tspan x="0" y="0">e</tspan></text>
  <text class="cls-1" transform="translate(86.59 89.14) rotate(-45.74)"><tspan x="0" y="0">m</tspan></text>
  <text class="cls-1" transform="translate(88.13 87.57) rotate(-44.07)"><tspan x="0" y="0"> </tspan></text>
  <text class="cls-1" transform="translate(88.74 86.99) rotate(-43.17)"><tspan x="0" y="0">I</tspan></text>
  <text class="cls-1" transform="translate(89.33 86.42) rotate(-41.81)"><tspan x="0" y="0">p</tspan></text>
  <text class="cls-1" transform="translate(90.59 85.3) rotate(-40.27)"><tspan x="0" y="0">s</tspan></text>
  <text class="cls-1" transform="translate(91.43 84.58) rotate(-38.87)"><tspan x="0" y="0">u</tspan></text>
  <text class="cls-1" transform="translate(92.61 83.63) rotate(-36.94)"><tspan x="0" y="0">m</tspan></text>
  <text class="cls-1" transform="translate(94.39 82.3) rotate(-35.01)"><tspan x="0" y="0">L</tspan></text>
  <text class="cls-1" transform="translate(95.38 81.6) rotate(-33.47)"><tspan x="0" y="0">o</tspan></text>
  <text class="cls-1" transform="translate(96.79 80.68) rotate(-32)"><tspan x="0" y="0">r</tspan></text>
  <text class="cls-1" transform="translate(97.65 80.14) rotate(-30.62)"><tspan x="0" y="0">e</tspan></text>
  <text class="cls-1" transform="translate(98.97 79.35) rotate(-28.59)"><tspan x="0" y="0">m</tspan></text>
  <text class="cls-1" transform="translate(100.91 78.3) rotate(-26.92)"><tspan x="0" y="0"> </tspan></text>
  <text class="cls-1" transform="translate(101.68 77.91) rotate(-26)"><tspan x="0" y="0">I</tspan></text>
  <text class="cls-1" transform="translate(102.41 77.55) rotate(-24.63)"><tspan x="0" y="0">p</tspan></text>
  <text class="cls-1" transform="translate(103.92 76.86) rotate(-23.1)"><tspan x="0" y="0">s</tspan></text>
  <text class="cls-1" transform="translate(104.96 76.42) rotate(-21.65)"><tspan x="0" y="0">u</tspan></text>
  <text class="cls-1" transform="translate(106.35 75.86) rotate(-19.62)"><tspan x="0" y="0">m</tspan></text>
  <text class="cls-1" transform="translate(108.45 75.12) rotate(-17.72)"><tspan x="0" y="0">L</tspan></text>
  <text class="cls-1" transform="translate(109.61 74.74) rotate(-16.12)"><tspan x="0" y="0">o</tspan></text>
  <text class="cls-1" transform="translate(111.21 74.28) rotate(-14.65)"><tspan x="0" y="0">r</tspan></text>
  <text class="cls-1" transform="translate(112.19 74.02) rotate(-13.26)"><tspan x="0" y="0">e</tspan></text>
  <text class="cls-1" transform="translate(113.69 73.66) rotate(-11.2)"><tspan x="0" y="0">m</tspan></text>
  <text class="cls-1" transform="translate(115.85 73.24) rotate(-9.52)"><tspan x="0" y="0"> </tspan></text>
  <text class="cls-1" transform="translate(116.7 73.1) rotate(-8.61)"><tspan x="0" y="0">I</tspan></text>
  <text class="cls-1" transform="translate(117.51 72.97) rotate(-7.24)"><tspan x="0" y="0">p</tspan></text>
  <text class="cls-1" transform="translate(119.16 72.77) rotate(-5.72)"><tspan x="0" y="0">s</tspan></text>
  <text class="cls-1" transform="translate(120.28 72.66) rotate(-4.28)"><tspan x="0" y="0">u</tspan></text>
  <text class="cls-1" transform="translate(121.79 72.53) rotate(-2.25)"><tspan x="0" y="0">m</tspan></text>
  <text class="cls-1" transform="translate(123.99 72.46) rotate(-.6)"><tspan x="0" y="0"> </tspan></text>
  <text class="cls-1" transform="translate(124.86 72.45) rotate(.56)"><tspan x="0" y="0">L</tspan></text>
  <text class="cls-1" transform="translate(126.08 72.46) rotate(2.13)"><tspan x="0" y="0">o</tspan></text>
  <text class="cls-1" transform="translate(127.76 72.52) rotate(3.61)"><tspan x="0" y="0">r</tspan></text>
  <text class="cls-1" transform="translate(128.77 72.58) rotate(4.97)"><tspan x="0" y="0">e</tspan></text>
  <text class="cls-1" transform="translate(130.3 72.71) rotate(7)"><tspan x="0" y="0">m</tspan></text>
  <text class="cls-1" transform="translate(132.47 72.99) rotate(8.65)"><tspan x="0" y="0"> </tspan></text>
  <text class="cls-1" transform="translate(133.33 73.12) rotate(9.56)"><tspan x="0" y="0">I</tspan></text>
  <text class="cls-1" transform="translate(134.13 73.25) rotate(10.91)"><tspan x="0" y="0">p</tspan></text>
  <text class="cls-1" transform="translate(135.77 73.57) rotate(12.43)"><tspan x="0" y="0">s</tspan></text>
  <text class="cls-1" transform="translate(136.87 73.81) rotate(13.86)"><tspan x="0" y="0">u</tspan></text>
  <text class="cls-1" transform="translate(138.33 74.16) rotate(15.87)"><tspan x="0" y="0">m</tspan></text>
  <text class="cls-1" transform="translate(140.46 74.77) rotate(17.54)"><tspan x="0" y="0"> </tspan></text>
  <text class="cls-1" transform="translate(141.28 75.03) rotate(18.68)"><tspan x="0" y="0">L</tspan></text>
  <text class="cls-1" transform="translate(142.43 75.42) rotate(20.25)"><tspan x="0" y="0">o</tspan></text>
  <text class="cls-1" transform="translate(144.01 76.01) rotate(21.73)"><tspan x="0" y="0">r</tspan></text>
  <text class="cls-1" transform="translate(144.95 76.38) rotate(23.11)"><tspan x="0" y="0">e</tspan></text>
  <text class="cls-1" transform="translate(146.38 76.98) rotate(25.17)"><tspan x="0" y="0">m</tspan></text>
  <text class="cls-1" transform="translate(148.35 77.92) rotate(26.82)"><tspan x="0" y="0"> </tspan></text>
  <text class="cls-1" transform="translate(149.12 78.3) rotate(27.74)"><tspan x="0" y="0">I</tspan></text>
  <text class="cls-1" transform="translate(149.85 78.68) rotate(29.11)"><tspan x="0" y="0">p</tspan></text>
  <text class="cls-1" transform="translate(151.31 79.5) rotate(30.64)"><tspan x="0" y="0">s</tspan></text>
  <text class="cls-1" transform="translate(152.28 80.07) rotate(32.09)"><tspan x="0" y="0">u</tspan></text>
  <text class="cls-1" transform="translate(153.57 80.87) rotate(34.14)"><tspan x="0" y="0">m</tspan></text>
  <text class="cls-1" transform="translate(155.39 82.12) rotate(35.82)"><tspan x="0" y="0"> </tspan></text>
  <text class="cls-1" transform="translate(156.08 82.62) rotate(36.98)"><tspan x="0" y="0">L</tspan></text>
  <text class="cls-1" transform="translate(157.07 83.36) rotate(38.58)"><tspan x="0" y="0">o</tspan></text>
  <text class="cls-1" transform="translate(158.36 84.39) rotate(40.05)"><tspan x="0" y="0">r</tspan></text>
  <text class="cls-1" transform="translate(159.14 85.04) rotate(41.44)"><tspan x="0" y="0">e</tspan></text>
  <text class="cls-1" transform="translate(160.31 86.06) rotate(43.5)"><tspan x="0" y="0">m</tspan></text>
  <text class="cls-1" transform="translate(161.89 87.58) rotate(45.17)"><tspan x="0" y="0"> </tspan></text>
  <text class="cls-1" transform="translate(162.5 88.19) rotate(46.09)"><tspan x="0" y="0">I</tspan></text>
  <text class="cls-1" transform="translate(163.07 88.78) rotate(47.44)"><tspan x="0" y="0">p</tspan></text>
  <text class="cls-1" transform="translate(164.19 90.01) rotate(48.96)"><tspan x="0" y="0">s</tspan></text>
  <text class="cls-1" transform="translate(164.93 90.85) rotate(50.38)"><tspan x="0" y="0">u</tspan></text>
  <text class="cls-1" transform="translate(165.91 92.02) rotate(52.4)"><tspan x="0" y="0">m</tspan></text>
  <text class="cls-1" transform="translate(167.24 93.75) rotate(54.92)"><tspan x="0" y="0">L</tspan></text>
  <text class="cls-1" transform="translate(167.96 94.76) rotate(55.78)"><tspan x="0" y="0">o</tspan></text>
  <text class="cls-1" transform="translate(168.91 96.15) rotate(57.52)"><tspan x="0" y="0">e</tspan></text>
  <text class="cls-1" transform="translate(169.73 97.44) rotate(59.54)"><tspan x="0" y="0">m</tspan></text>
  <text class="cls-1" transform="translate(170.84 99.33) rotate(61.19)"><tspan x="0" y="0"> </tspan></text>
  <text class="cls-1" transform="translate(171.25 100.09) rotate(62.11)"><tspan x="0" y="0">I</tspan></text>
  <text class="cls-1" transform="translate(171.65 100.82) rotate(63.49)"><tspan x="0" y="0">p</tspan></text>
  <text class="cls-1" transform="translate(172.39 102.31) rotate(65.01)"><tspan x="0" y="0">s</tspan></text>
  <text class="cls-1" transform="translate(172.86 103.32) rotate(66.45)"><tspan x="0" y="0">u</tspan></text>
  <text class="cls-1" transform="translate(173.48 104.72) rotate(68.51)"><tspan x="0" y="0">m</tspan></text>
  <text class="cls-1" transform="translate(174.27 106.76) rotate(70.38)"><tspan x="0" y="0">L</tspan></text>
  <text class="cls-1" transform="translate(174.69 107.92) rotate(71.97)"><tspan x="0" y="0">o</tspan></text>
  <text class="cls-1" transform="translate(175.21 109.52) rotate(73.48)"><tspan x="0" y="0">r</tspan></text>
  <text class="cls-1" transform="translate(175.49 110.47) rotate(74.85)"><tspan x="0" y="0">e</tspan></text>
  <text class="cls-1" transform="translate(175.9 111.96) rotate(76.92)"><tspan x="0" y="0">m</tspan></text>
  <text class="cls-1" transform="translate(176.39 114.1) rotate(78.58)"><tspan x="0" y="0"> </tspan></text>
  <text class="cls-1" transform="translate(176.56 114.94) rotate(79.5)"><tspan x="0" y="0">I</tspan></text>
  <text class="cls-1" transform="translate(176.71 115.75) rotate(80.87)"><tspan x="0" y="0">p</tspan></text>
  <text class="cls-1" transform="translate(176.98 117.41) rotate(82.41)"><tspan x="0" y="0">s</tspan></text>
  <text class="cls-1" transform="translate(177.13 118.52) rotate(83.84)"><tspan x="0" y="0">u</tspan></text>
  <text class="cls-1" transform="translate(177.3 120.02) rotate(85.87)"><tspan x="0" y="0">m</tspan></text>
  <text class="cls-1" transform="translate(177.44 122.22) rotate(87.54)"><tspan x="0" y="0"> </tspan></text>
  <text class="cls-1" transform="translate(177.48 123.07) rotate(88.46)"><tspan x="0" y="0"> </tspan></text>
  <text class="cls-1" transform="translate(177.5 123.93) rotate(89.41)"><tspan x="0" y="0"> </tspan></text>
  <text class="cls-1" transform="translate(177.51 124.8) rotate(90.35)"><tspan x="0" y="0"> </tspan></text>
  <text class="cls-1" transform="translate(177.51 125.65) rotate(91.27)"><tspan x="0" y="0"> </tspan></text>
  <text class="cls-1" transform="translate(177.49 126.5) rotate(92.19)"><tspan x="0" y="0"> </tspan></text>
  <text class="cls-1" transform="translate(177.46 127.36) rotate(93.13)"><tspan x="0" y="0"> </tspan></text>
  <text class="cls-1" transform="translate(177.41 128.23) rotate(94.08)"><tspan x="0" y="0"> </tspan></text>
  <text class="cls-1" transform="translate(177.35 129.07) rotate(95)"><tspan x="0" y="0"> </tspan></text>
</svg>