<?xml version="1.0" encoding="UTF-8"?>
<svg id="Layer_22" data-name="Layer 22" xmlns="http://www.w3.org/2000/svg" viewBox="0 0 250 250">
  <defs>
    <style>
      .cls-1 {
        font-family: Futura-Medium, Futura;
        font-weight: 500;
      }

      .cls-1, .cls-2 {
        fill: #231f20;
        font-size: 4px;
      }

      .cls-2 {
        font-family: Futura-CondensedExtraBold, Futura;
        font-weight: 700;
      }
    </style>
  </defs>
  <text class="cls-1" transform="translate(221.58 138.53) rotate(98.91)"><tspan x="0" y="0">L</tspan></text>
  <text class="cls-1" transform="translate(221.32 140.28) rotate(99.68)"><tspan x="0" y="0">a</tspan></text>
  <text class="cls-1" transform="translate(220.91 142.66) rotate(101.02)"><tspan x="0" y="0">y</tspan></text>
  <text class="cls-1" transform="translate(220.52 144.7) rotate(102.24)"><tspan x="0" y="0">e</tspan></text>
  <text class="cls-1" transform="translate(220.04 146.87) rotate(103.32)"><tspan x="0" y="0">r</tspan></text>
  <text class="cls-1" transform="translate(219.7 148.31) rotate(104.12)"><tspan x="0" y="0"> </tspan></text>
  <text class="cls-1" transform="translate(219.41 149.51) rotate(105.2)"><tspan x="0" y="0">2</tspan></text>
  <text class="cls-1" transform="translate(218.77 151.86) rotate(106.63)"><tspan x="0" y="0">2</tspan></text>
  <text class="cls-1" transform="translate(218.06 154.2) rotate(107.71)"><tspan x="0" y="0"> </tspan></text>
  <text class="cls-1" transform="translate(217.69 155.37) rotate(108.42)"><tspan x="0" y="0">I</tspan></text>
  <text class="cls-1" transform="translate(217.32 156.49) rotate(109.48)"><tspan x="0" y="0">p</tspan></text>
  <text class="cls-1" transform="translate(216.53 158.71) rotate(110.64)"><tspan x="0" y="0">s</tspan></text>
  <text class="cls-1" transform="translate(215.96 160.22) rotate(111.76)"><tspan x="0" y="0">u</tspan></text>
  <text class="cls-1" transform="translate(215.17 162.24) rotate(113.33)"><tspan x="0" y="0">m</tspan></text>
  <text class="cls-1" transform="translate(213.91 165.12) rotate(114.62)"><tspan x="0" y="0"> </tspan></text>
  <text class="cls-1" transform="translate(213.41 166.22) rotate(115.5)"><tspan x="0" y="0">L</tspan></text>
  <text class="cls-1" transform="translate(212.65 167.83) rotate(116.74)"><tspan x="0" y="0">o</tspan></text>
  <text class="cls-1" transform="translate(211.58 169.95) rotate(117.88)"><tspan x="0" y="0">r</tspan></text>
  <text class="cls-1" transform="translate(210.9 171.23) rotate(118.95)"><tspan x="0" y="0">e</tspan></text>
  <text class="cls-1" transform="translate(209.84 173.16) rotate(120.53)"><tspan x="0" y="0">m</tspan></text>
  <text class="cls-1" transform="translate(208.23 175.87) rotate(121.83)"><tspan x="0" y="0"> </tspan></text>
  <text class="cls-1" transform="translate(207.59 176.9) rotate(122.53)"><tspan x="0" y="0">I</tspan></text>
  <text class="cls-1" transform="translate(206.97 177.89) rotate(123.57)"><tspan x="0" y="0">p</tspan></text>
  <text class="cls-1" transform="translate(205.65 179.87) rotate(124.75)"><tspan x="0" y="0">s</tspan></text>
  <text class="cls-1" transform="translate(204.74 181.19) rotate(125.86)"><tspan x="0" y="0">u</tspan></text>
  <text class="cls-1" transform="translate(203.48 182.95) rotate(127.42)"><tspan x="0" y="0">m</tspan></text>
  <text class="cls-1" transform="translate(201.56 185.43) rotate(128.7)"><tspan x="0" y="0"> </tspan></text>
  <text class="cls-1" transform="translate(200.79 186.4) rotate(129.59)"><tspan x="0" y="0">L</tspan></text>
  <text class="cls-1" transform="translate(199.68 187.74) rotate(130.79)"><tspan x="0" y="0">o</tspan></text>
  <text class="cls-1" transform="translate(198.11 189.55) rotate(131.93)"><tspan x="0" y="0">r</tspan></text>
  <text class="cls-1" transform="translate(197.15 190.63) rotate(132.99)"><tspan x="0" y="0">e</tspan></text>
  <text class="cls-1" transform="translate(195.66 192.24) rotate(134.56)"><tspan x="0" y="0">m</tspan></text>
  <text class="cls-1" transform="translate(193.43 194.49) rotate(135.84)"><tspan x="0" y="0"> </tspan></text>
  <text class="cls-1" transform="translate(192.56 195.33) rotate(136.54)"><tspan x="0" y="0">I</tspan></text>
  <text class="cls-1" transform="translate(191.72 196.14) rotate(137.57)"><tspan x="0" y="0">p</tspan></text>
  <text class="cls-1" transform="translate(189.96 197.74) rotate(138.74)"><tspan x="0" y="0">s</tspan></text>
  <text class="cls-1" transform="translate(188.75 198.8) rotate(139.84)"><tspan x="0" y="0">u</tspan></text>
  <text class="cls-1" transform="translate(187.11 200.2) rotate(141.39)"><tspan x="0" y="0">m</tspan></text>
  <text class="cls-1" transform="translate(184.65 202.15) rotate(142.66)"><tspan x="0" y="0"> </tspan></text>
  <text class="cls-1" transform="translate(183.67 202.9) rotate(143.53)"><tspan x="0" y="0">L</tspan></text>
  <text class="cls-1" transform="translate(182.25 203.95) rotate(144.75)"><tspan x="0" y="0">o</tspan></text>
  <text class="cls-1" transform="translate(180.3 205.33) rotate(145.88)"><tspan x="0" y="0">r</tspan></text>
  <text class="cls-1" transform="translate(179.11 206.14) rotate(146.93)"><tspan x="0" y="0">e</tspan></text>
  <text class="cls-1" transform="translate(177.28 207.34) rotate(148.49)"><tspan x="0" y="0">m</tspan></text>
  <text class="cls-1" transform="translate(174.58 208.98) rotate(149.77)"><tspan x="0" y="0"> </tspan></text>
  <text class="cls-1" transform="translate(173.53 209.6) rotate(150.47)"><tspan x="0" y="0">I</tspan></text>
  <text class="cls-1" transform="translate(172.51 210.17) rotate(151.51)"><tspan x="0" y="0">p</tspan></text>
  <text class="cls-1" transform="translate(170.43 211.3) rotate(152.67)"><tspan x="0" y="0">s</tspan></text>
  <text class="cls-1" transform="translate(168.99 212.05) rotate(153.79)"><tspan x="0" y="0">u</tspan></text>
  <text class="cls-1" transform="translate(167.06 213.01) rotate(155.34)"><tspan x="0" y="0">m</tspan></text>
  <text class="cls-1" transform="translate(164.21 214.3) rotate(156.61)"><tspan x="0" y="0"> </tspan></text>
  <text class="cls-1" transform="translate(163.08 214.8) rotate(157.5)"><tspan x="0" y="0">L</tspan></text>
  <text class="cls-1" transform="translate(161.46 215.47) rotate(158.71)"><tspan x="0" y="0">o</tspan></text>
  <text class="cls-1" transform="translate(159.22 216.34) rotate(159.86)"><tspan x="0" y="0">r</tspan></text>
  <text class="cls-1" transform="translate(157.86 216.84) rotate(160.92)"><tspan x="0" y="0">e</tspan></text>
  <text class="cls-1" transform="translate(155.8 217.56) rotate(162.49)"><tspan x="0" y="0">m</tspan></text>
  <text class="cls-1" transform="translate(152.79 218.5) rotate(163.78)"><tspan x="0" y="0"> </tspan></text>
  <text class="cls-1" transform="translate(151.63 218.84) rotate(164.48)"><tspan x="0" y="0">I</tspan></text>
  <text class="cls-1" transform="translate(150.5 219.16) rotate(165.53)"><tspan x="0" y="0">p</tspan></text>
  <text class="cls-1" transform="translate(148.18 219.75) rotate(166.72)"><tspan x="0" y="0">s</tspan></text>
  <text class="cls-1" transform="translate(146.62 220.12) rotate(167.84)"><tspan x="0" y="0">u</tspan></text>
  <text class="cls-1" transform="translate(144.51 220.58) rotate(169.4)"><tspan x="0" y="0">m</tspan></text>
  <text class="cls-1" transform="translate(141.42 221.15) rotate(170.86)"><tspan x="0" y="0">L</tspan></text>
  <text class="cls-1" transform="translate(139.69 221.43) rotate(172.08)"><tspan x="0" y="0">o</tspan></text>
  <text class="cls-1" transform="translate(137.32 221.76) rotate(173.23)"><tspan x="0" y="0">r</tspan></text>
  <text class="cls-1" transform="translate(135.88 221.93) rotate(174.3)"><tspan x="0" y="0">e</tspan></text>
  <text class="cls-1" transform="translate(133.7 222.16) rotate(175.88)"><tspan x="0" y="0">m</tspan></text>
  <text class="cls-1" transform="translate(130.56 222.38) rotate(177.17)"><tspan x="0" y="0"> </tspan></text>
  <text class="cls-1" transform="translate(129.34 222.44) rotate(177.87)"><tspan x="0" y="0">I</tspan></text>
  <text class="cls-1" transform="translate(128.17 222.48) rotate(178.92)"><tspan x="0" y="0">p</tspan></text>
  <text class="cls-1" transform="translate(125.79 222.53) rotate(-179.91)"><tspan x="0" y="0">s</tspan></text>
  <text class="cls-1" transform="translate(124.19 222.53) rotate(-178.8)"><tspan x="0" y="0">u</tspan></text>
  <text class="cls-1" transform="translate(122.04 222.49) rotate(-177.26)"><tspan x="0" y="0">m</tspan></text>
  <text class="cls-1" transform="translate(118.88 222.33) rotate(-175.82)"><tspan x="0" y="0">L</tspan></text>
  <text class="cls-1" transform="translate(117.12 222.2) rotate(-174.61)"><tspan x="0" y="0">o</tspan></text>
  <text class="cls-1" transform="translate(114.76 221.98) rotate(-173.5)"><tspan x="0" y="0">r</tspan></text>
  <text class="cls-1" transform="translate(113.32 221.81) rotate(-172.95)"><tspan x="0" y="0">e</tspan></text>
  <text class="cls-1" transform="translate(111.14 221.53) rotate(-170.91)"><tspan x="0" y="0">m</tspan></text>
  <text class="cls-1" transform="translate(108.02 221.02) rotate(-169.64)"><tspan x="0" y="0"> </tspan></text>
  <text class="cls-1" transform="translate(106.84 220.81) rotate(-168.96)"><tspan x="0" y="0">I</tspan></text>
  <text class="cls-1" transform="translate(105.68 220.59) rotate(-167.92)"><tspan x="0" y="0">p</tspan></text>
  <text class="cls-1" transform="translate(103.37 220.09) rotate(-166.77)"><tspan x="0" y="0">s</tspan></text>
  <text class="cls-1" transform="translate(101.8 219.72) rotate(-165.66)"><tspan x="0" y="0">u</tspan></text>
  <text class="cls-2" transform="translate(99.7 219.2) rotate(-164.06)"><tspan x="0" y="0">m</tspan></text>
  <text class="cls-2" transform="translate(96.52 218.28) rotate(-162.59)"><tspan x="0" y="0">L</tspan></text>
  <text class="cls-2" transform="translate(94.96 217.79) rotate(-161.47)"><tspan x="0" y="0">o</tspan></text>
  <text class="cls-2" transform="translate(92.89 217.09) rotate(-160.37)"><tspan x="0" y="0">r</tspan></text>
  <text class="cls-2" transform="translate(91.4 216.56) rotate(-159.25)"><tspan x="0" y="0">e</tspan></text>
  <text class="cls-2" transform="translate(89.38 215.81) rotate(-157.64)"><tspan x="0" y="0">m</tspan></text>
  <text class="cls-2" transform="translate(86.32 214.53) rotate(-156.3)"><tspan x="0" y="0"> </tspan></text>
  <text class="cls-2" transform="translate(85.23 214.06) rotate(-155.59)"><tspan x="0" y="0">I</tspan></text>
  <text class="cls-2" transform="translate(84.12 213.56) rotate(-154.57)"><tspan x="0" y="0">p</tspan></text>
  <text class="cls-2" transform="translate(82.12 212.61) rotate(-153.39)"><tspan x="0" y="0">s</tspan></text>
  <text class="cls-2" transform="translate(80.53 211.81) rotate(-152.2)"><tspan x="0" y="0">u</tspan></text>
  <text class="cls-2" transform="translate(78.56 210.78) rotate(-150.57)"><tspan x="0" y="0">m</tspan></text>
  <text class="cls-1" transform="translate(75.69 209.15) rotate(-149.07)"><tspan x="0" y="0">L</tspan></text>
  <text class="cls-1" transform="translate(74.18 208.25) rotate(-147.85)"><tspan x="0" y="0">o</tspan></text>
  <text class="cls-1" transform="translate(72.17 206.98) rotate(-146.71)"><tspan x="0" y="0">r</tspan></text>
  <text class="cls-1" transform="translate(70.95 206.18) rotate(-145.64)"><tspan x="0" y="0">e</tspan></text>
  <text class="cls-1" transform="translate(69.11 204.94) rotate(-144.05)"><tspan x="0" y="0">m</tspan></text>
  <text class="cls-1" transform="translate(66.58 203.09) rotate(-142.77)"><tspan x="0" y="0"> </tspan></text>
  <text class="cls-1" transform="translate(65.62 202.36) rotate(-142.08)"><tspan x="0" y="0">I</tspan></text>
  <text class="cls-1" transform="translate(64.68 201.63) rotate(-141.02)"><tspan x="0" y="0">p</tspan></text>
  <text class="cls-1" transform="translate(62.83 200.13) rotate(-139.85)"><tspan x="0" y="0">s</tspan></text>
  <text class="cls-1" transform="translate(61.61 199.11) rotate(-138.75)"><tspan x="0" y="0">u</tspan></text>
  <text class="cls-1" transform="translate(59.98 197.68) rotate(-137.19)"><tspan x="0" y="0">m</tspan></text>
  <text class="cls-1" transform="translate(57.69 195.55) rotate(-135.77)"><tspan x="0" y="0">L</tspan></text>
  <text class="cls-1" transform="translate(56.41 194.32) rotate(-134.55)"><tspan x="0" y="0">o</tspan></text>
  <text class="cls-1" transform="translate(54.74 192.61) rotate(-133.41)"><tspan x="0" y="0">r</tspan></text>
  <text class="cls-1" transform="translate(53.75 191.57) rotate(-132.36)"><tspan x="0" y="0">e</tspan></text>
  <text class="cls-1" transform="translate(52.27 189.95) rotate(-130.8)"><tspan x="0" y="0">m</tspan></text>
  <text class="cls-1" transform="translate(50.21 187.55) rotate(-129.52)"><tspan x="0" y="0"> </tspan></text>
  <text class="cls-1" transform="translate(49.44 186.61) rotate(-128.83)"><tspan x="0" y="0">I</tspan></text>
  <text class="cls-1" transform="translate(48.7 185.71) rotate(-127.79)"><tspan x="0" y="0">p</tspan></text>
  <text class="cls-1" transform="translate(47.24 183.81) rotate(-126.62)"><tspan x="0" y="0">s</tspan></text>
  <text class="cls-1" transform="translate(46.29 182.54) rotate(-125.53)"><tspan x="0" y="0">u</tspan></text>
  <text class="cls-1" transform="translate(45.02 180.77) rotate(-123.97)"><tspan x="0" y="0">m</tspan></text>
  <text class="cls-1" transform="translate(43.27 178.16) rotate(-122.54)"><tspan x="0" y="0">L</tspan></text>
  <text class="cls-1" transform="translate(42.33 176.7) rotate(-121.34)"><tspan x="0" y="0">o</tspan></text>
  <text class="cls-1" transform="translate(41.09 174.66) rotate(-120.21)"><tspan x="0" y="0">r</tspan></text>
  <text class="cls-1" transform="translate(40.35 173.39) rotate(-119.13)"><tspan x="0" y="0">e</tspan></text>
  <text class="cls-1" transform="translate(39.28 171.49) rotate(-117.58)"><tspan x="0" y="0">m</tspan></text>
  <text class="cls-1" transform="translate(37.83 168.69) rotate(-116.3)"><tspan x="0" y="0"> </tspan></text>
  <text class="cls-1" transform="translate(37.29 167.58) rotate(-115.59)"><tspan x="0" y="0">I</tspan></text>
  <text class="cls-1" transform="translate(36.78 166.54) rotate(-114.56)"><tspan x="0" y="0">p</tspan></text>
  <text class="cls-1" transform="translate(35.8 164.39) rotate(-113.39)"><tspan x="0" y="0">s</tspan></text>
  <text class="cls-1" transform="translate(35.15 162.89) rotate(-112.27)"><tspan x="0" y="0">u</tspan></text>
  <text class="cls-1" transform="translate(34.32 160.89) rotate(-110.71)"><tspan x="0" y="0">m</tspan></text>
  <text class="cls-1" transform="translate(33.23 157.96) rotate(-109.27)"><tspan x="0" y="0">L</tspan></text>
  <text class="cls-1" transform="translate(32.64 156.31) rotate(-108.06)"><tspan x="0" y="0">o</tspan></text>
  <text class="cls-1" transform="translate(31.91 154.03) rotate(-106.91)"><tspan x="0" y="0">r</tspan></text>
  <text class="cls-1" transform="translate(31.48 152.66) rotate(-105.85)"><tspan x="0" y="0">e</tspan></text>
  <text class="cls-1" transform="translate(30.88 150.55) rotate(-104.27)"><tspan x="0" y="0">m</tspan></text>
  <text class="cls-1" transform="translate(30.11 147.48) rotate(-102.97)"><tspan x="0" y="0"> </tspan></text>
  <text class="cls-1" transform="translate(29.84 146.29) rotate(-102.26)"><tspan x="0" y="0">I</tspan></text>
  <text class="cls-1" transform="translate(29.58 145.14) rotate(-101.2)"><tspan x="0" y="0">p</tspan></text>
  <text class="cls-1" transform="translate(29.12 142.82) rotate(-100.03)"><tspan x="0" y="0">s</tspan></text>
  <text class="cls-1" transform="translate(28.84 141.25) rotate(-98.92)"><tspan x="0" y="0">u</tspan></text>
  <text class="cls-1" transform="translate(28.5 139.1) rotate(-97.34)"><tspan x="0" y="0">m</tspan></text>
  <text class="cls-1" transform="translate(28.11 135.98) rotate(-96.05)"><tspan x="0" y="0"> </tspan></text>
  <text class="cls-1" transform="translate(27.98 134.78) rotate(-95.18)"><tspan x="0" y="0">L</tspan></text>
  <text class="cls-1" transform="translate(27.82 133.02) rotate(-93.95)"><tspan x="0" y="0">o</tspan></text>
  <text class="cls-1" transform="translate(27.66 130.63) rotate(-92.8)"><tspan x="0" y="0">r</tspan></text>
  <text class="cls-1" transform="translate(27.58 129.18) rotate(-91.73)"><tspan x="0" y="0">e</tspan></text>
  <text class="cls-1" transform="translate(27.51 127) rotate(-90.17)"><tspan x="0" y="0">m</tspan></text>
  <text class="cls-1" transform="translate(27.51 123.85) rotate(-88.88)"><tspan x="0" y="0"> </tspan></text>
  <text class="cls-1" transform="translate(27.53 122.63) rotate(-88.18)"><tspan x="0" y="0">I</tspan></text>
  <text class="cls-1" transform="translate(27.56 121.46) rotate(-87.14)"><tspan x="0" y="0">p</tspan></text>
  <text class="cls-1" transform="translate(27.69 119.08) rotate(-85.98)"><tspan x="0" y="0">s</tspan></text>
  <text class="cls-1" transform="translate(27.8 117.47) rotate(-84.88)"><tspan x="0" y="0">u</tspan></text>
  <text class="cls-1" transform="translate(27.98 115.31) rotate(-83.34)"><tspan x="0" y="0">m</tspan></text>
  <text class="cls-1" transform="translate(28.37 112.19) rotate(-82.95)"><tspan x="0" y="0"> </tspan></text>
  <text class="cls-1" transform="translate(28.52 110.99) rotate(-81.09)"><tspan x="0" y="0">L</tspan></text>
  <text class="cls-1" transform="translate(28.79 109.25) rotate(-80.03)"><tspan x="0" y="0">o</tspan></text>
  <text class="cls-1" transform="translate(29.2 106.92) rotate(-78.92)"><tspan x="0" y="0">r</tspan></text>
  <text class="cls-1" transform="translate(29.48 105.47) rotate(-77.85)"><tspan x="0" y="0">e</tspan></text>
  <text class="cls-1" transform="translate(29.94 103.33) rotate(-76.29)"><tspan x="0" y="0">m</tspan></text>
  <text class="cls-1" transform="translate(30.69 100.28) rotate(-75.01)"><tspan x="0" y="0"> </tspan></text>
  <text class="cls-1" transform="translate(31.01 99.08) rotate(-74.3)"><tspan x="0" y="0">I</tspan></text>
  <text class="cls-1" transform="translate(31.32 97.97) rotate(-73.27)"><tspan x="0" y="0">p</tspan></text>
  <text class="cls-1" transform="translate(32.01 95.7) rotate(-72.1)"><tspan x="0" y="0">s</tspan></text>
  <text class="cls-1" transform="translate(32.5 94.15) rotate(-70.97)"><tspan x="0" y="0">u</tspan></text>
  <text class="cls-1" transform="translate(33.2 92.12) rotate(-69.41)"><tspan x="0" y="0">m</tspan></text>
  <text class="cls-1" transform="translate(34.31 89.19) rotate(-68.13)"><tspan x="0" y="0"> </tspan></text>
  <text class="cls-1" transform="translate(34.77 88.04) rotate(-67.24)"><tspan x="0" y="0">L</tspan></text>
  <text class="cls-1" transform="translate(35.44 86.42) rotate(-66.01)"><tspan x="0" y="0">o</tspan></text>
  <text class="cls-1" transform="translate(36.42 84.24) rotate(-64.87)"><tspan x="0" y="0">r</tspan></text>
  <text class="cls-1" transform="translate(37.03 82.92) rotate(-63.79)"><tspan x="0" y="0">e</tspan></text>
  <text class="cls-1" transform="translate(37.99 80.96) rotate(-62.22)"><tspan x="0" y="0">m</tspan></text>
  <text class="cls-1" transform="translate(39.47 78.17) rotate(-60.92)"><tspan x="0" y="0"> </tspan></text>
  <text class="cls-1" transform="translate(40.06 77.11) rotate(-60.21)"><tspan x="0" y="0">I</tspan></text>
  <text class="cls-1" transform="translate(40.64 76.08) rotate(-59.16)"><tspan x="0" y="0">p</tspan></text>
  <text class="cls-1" transform="translate(41.86 74.05) rotate(-57.99)"><tspan x="0" y="0">s</tspan></text>
  <text class="cls-1" transform="translate(42.71 72.68) rotate(-56.87)"><tspan x="0" y="0">u</tspan></text>
  <text class="cls-1" transform="translate(43.88 70.88) rotate(-55.31)"><tspan x="0" y="0">m</tspan></text>
  <text class="cls-1" transform="translate(45.69 68.28) rotate(-53.86)"><tspan x="0" y="0">L</tspan></text>
  <text class="cls-1" transform="translate(46.72 66.87) rotate(-52.64)"><tspan x="0" y="0">o</tspan></text>
  <text class="cls-1" transform="translate(48.16 64.99) rotate(-51.52)"><tspan x="0" y="0">r</tspan></text>
  <text class="cls-1" transform="translate(49.08 63.83) rotate(-50.44)"><tspan x="0" y="0">e</tspan></text>
  <text class="cls-1" transform="translate(50.45 62.15) rotate(-48.88)"><tspan x="0" y="0">m</tspan></text>
  <text class="cls-1" transform="translate(52.54 59.77) rotate(-47.59)"><tspan x="0" y="0"> </tspan></text>
  <text class="cls-1" transform="translate(53.35 58.89) rotate(-46.9)"><tspan x="0" y="0">I</tspan></text>
  <text class="cls-1" transform="translate(54.16 58.02) rotate(-45.85)"><tspan x="0" y="0">p</tspan></text>
  <text class="cls-1" transform="translate(55.81 56.32) rotate(-44.69)"><tspan x="0" y="0">s</tspan></text>
  <text class="cls-1" transform="translate(56.96 55.18) rotate(-43.58)"><tspan x="0" y="0">u</tspan></text>
  <text class="cls-1" transform="translate(58.51 53.69) rotate(-42.04)"><tspan x="0" y="0">m</tspan></text>
  <text class="cls-1" transform="translate(60.85 51.59) rotate(-40.61)"><tspan x="0" y="0">L</tspan></text>
  <text class="cls-1" transform="translate(62.19 50.44) rotate(-39.39)"><tspan x="0" y="0">o</tspan></text>
  <text class="cls-1" transform="translate(64.04 48.93) rotate(-38.26)"><tspan x="0" y="0">r</tspan></text>
  <text class="cls-1" transform="translate(65.17 48.04) rotate(-37.21)"><tspan x="0" y="0">e</tspan></text>
  <text class="cls-1" transform="translate(66.91 46.7) rotate(-35.65)"><tspan x="0" y="0">m</tspan></text>
  <text class="cls-1" transform="translate(69.48 44.87) rotate(-34.37)"><tspan x="0" y="0"> </tspan></text>
  <text class="cls-1" transform="translate(70.5 44.17) rotate(-33.67)"><tspan x="0" y="0">I</tspan></text>
  <text class="cls-1" transform="translate(71.45 43.54) rotate(-32.64)"><tspan x="0" y="0">p</tspan></text>
  <text class="cls-1" transform="translate(73.47 42.24) rotate(-31.47)"><tspan x="0" y="0">s</tspan></text>
  <text class="cls-1" transform="translate(74.83 41.41) rotate(-30.38)"><tspan x="0" y="0">u</tspan></text>
  <text class="cls-1" transform="translate(76.7 40.31) rotate(-28.81)"><tspan x="0" y="0">m</tspan></text>
  <text class="cls-1" transform="translate(79.45 38.81) rotate(-27.55)"><tspan x="0" y="0"> </tspan></text>
  <text class="cls-1" transform="translate(80.55 38.23) rotate(-26.82)"><tspan x="0" y="0"> </tspan></text>
  <text class="cls-1" transform="translate(81.63 37.68) rotate(-26.11)"><tspan x="0" y="0"> </tspan></text>
  <text class="cls-1" transform="translate(82.74 37.14) rotate(-25.22)"><tspan x="0" y="0">L</tspan></text>
  <text class="cls-1" transform="translate(84.31 36.39) rotate(-24.02)"><tspan x="0" y="0">o</tspan></text>
  <text class="cls-1" transform="translate(86.51 35.42) rotate(-22.87)"><tspan x="0" y="0">r</tspan></text>
  <text class="cls-1" transform="translate(87.84 34.86) rotate(-21.81)"><tspan x="0" y="0">e</tspan></text>
  <text class="cls-1" transform="translate(89.87 34.03) rotate(-20.24)"><tspan x="0" y="0">m</tspan></text>
  <text class="cls-1" transform="translate(92.84 32.95) rotate(-18.95)"><tspan x="0" y="0"> </tspan></text>
  <text class="cls-1" transform="translate(93.98 32.56) rotate(-18.25)"><tspan x="0" y="0">I</tspan></text>
  <text class="cls-1" transform="translate(95.09 32.19) rotate(-17.2)"><tspan x="0" y="0">p</tspan></text>
  <text class="cls-1" transform="translate(97.37 31.49) rotate(-16.02)"><tspan x="0" y="0">s</tspan></text>
  <text class="cls-1" transform="translate(98.92 31.04) rotate(-14.9)"><tspan x="0" y="0">u</tspan></text>
  <text class="cls-1" transform="translate(100.99 30.48) rotate(-13.34)"><tspan x="0" y="0">m</tspan></text>
  <text class="cls-1" transform="translate(104.06 29.76) rotate(-11.89)"><tspan x="0" y="0">L</tspan></text>
  <text class="cls-1" transform="translate(105.76 29.4) rotate(-10.67)"><tspan x="0" y="0">o</tspan></text>
  <text class="cls-1" transform="translate(108.12 28.96) rotate(-9.52)"><tspan x="0" y="0">r</tspan></text>
  <text class="cls-1" transform="translate(109.54 28.72) rotate(-8.45)"><tspan x="0" y="0">e</tspan></text>
  <text class="cls-1" transform="translate(111.71 28.39) rotate(-6.87)"><tspan x="0" y="0">m</tspan></text>
  <text class="cls-1" transform="translate(114.84 28.02) rotate(-5.58)"><tspan x="0" y="0"> </tspan></text>
  <text class="cls-1" transform="translate(116.07 27.9) rotate(-4.86)"><tspan x="0" y="0">I</tspan></text>
  <text class="cls-1" transform="translate(117.24 27.79) rotate(-3.81)"><tspan x="0" y="0">p</tspan></text>
  <text class="cls-1" transform="translate(119.6 27.64) rotate(-2.64)"><tspan x="0" y="0">s</tspan></text>
  <text class="cls-1" transform="translate(121.2 27.56) rotate(-1.53)"><tspan x="0" y="0">u</tspan></text>
  <text class="cls-1" transform="translate(123.38 27.51) rotate(-.53)"><tspan x="0" y="0"> </tspan></text>
  <text class="cls-1" transform="translate(124.59 27.5) rotate(.17)"><tspan x="0" y="0">I</tspan></text>
  <text class="cls-1" transform="translate(125.75 27.5) rotate(1.21)"><tspan x="0" y="0">p</tspan></text>
  <text class="cls-1" transform="translate(128.14 27.55) rotate(2.38)"><tspan x="0" y="0">s</tspan></text>
  <text class="cls-1" transform="translate(129.76 27.62) rotate(3.49)"><tspan x="0" y="0">u</tspan></text>
  <text class="cls-1" transform="translate(131.91 27.74) rotate(5.03)"><tspan x="0" y="0">m</tspan></text>
  <text class="cls-1" transform="translate(135.03 28.02) rotate(6.45)"><tspan x="0" y="0">L</tspan></text>
  <text class="cls-1" transform="translate(136.79 28.23) rotate(7.05)"><tspan x="0" y="0">o</tspan></text>
  <text class="cls-1" transform="translate(139.13 28.53) rotate(8.91)"><tspan x="0" y="0">r</tspan></text>
  <text class="cls-1" transform="translate(140.58 28.76) rotate(9.81)"><tspan x="0" y="0">e</tspan></text>
  <text class="cls-1" transform="translate(142.75 29.13) rotate(11.36)"><tspan x="0" y="0">m</tspan></text>
  <text class="cls-1" transform="translate(145.83 29.74) rotate(13.19)"><tspan x="0" y="0">m</tspan></text>
  <text class="cls-1" transform="translate(148.87 30.47) rotate(14.45)"><tspan x="0" y="0"> </tspan></text>
  <text class="cls-1" transform="translate(150.06 30.77) rotate(15.15)"><tspan x="0" y="0">I</tspan></text>
  <text class="cls-1" transform="translate(151.21 31.08) rotate(16.21)"><tspan x="0" y="0">p</tspan></text>
  <text class="cls-1" transform="translate(153.49 31.74) rotate(17.39)"><tspan x="0" y="0">s</tspan></text>
  <text class="cls-1" transform="translate(155.01 32.22) rotate(18.49)"><tspan x="0" y="0">u</tspan></text>
  <text class="cls-1" transform="translate(157.07 32.9) rotate(20.06)"><tspan x="0" y="0">m</tspan></text>
  <text class="cls-1" transform="translate(160.03 33.99) rotate(21.51)"><tspan x="0" y="0">L</tspan></text>
  <text class="cls-1" transform="translate(161.67 34.63) rotate(22.74)"><tspan x="0" y="0">o</tspan></text>
  <text class="cls-1" transform="translate(163.85 35.55) rotate(23.88)"><tspan x="0" y="0">r</tspan></text>
  <text class="cls-1" transform="translate(165.17 36.13) rotate(24.94)"><tspan x="0" y="0">e</tspan></text>
  <text class="cls-1" transform="translate(167.17 37.06) rotate(26.53)"><tspan x="0" y="0">m</tspan></text>
  <text class="cls-1" transform="translate(169.98 38.47) rotate(27.82)"><tspan x="0" y="0"> </tspan></text>
  <text class="cls-1" transform="translate(171.06 39.04) rotate(28.53)"><tspan x="0" y="0">I</tspan></text>
  <text class="cls-1" transform="translate(172.1 39.6) rotate(29.59)"><tspan x="0" y="0">p</tspan></text>
  <text class="cls-1" transform="translate(174.16 40.77) rotate(30.76)"><tspan x="0" y="0">s</tspan></text>
  <text class="cls-1" transform="translate(175.54 41.59) rotate(31.87)"><tspan x="0" y="0">u</tspan></text>
  <text class="cls-1" transform="translate(177.38 42.73) rotate(33.44)"><tspan x="0" y="0">m</tspan></text>
  <text class="cls-1" transform="translate(179.99 44.46) rotate(34.88)"><tspan x="0" y="0">L</tspan></text>
  <text class="cls-1" transform="translate(181.43 45.46) rotate(36.1)"><tspan x="0" y="0">o</tspan></text>
  <text class="cls-1" transform="translate(183.37 46.88) rotate(37.25)"><tspan x="0" y="0">r</tspan></text>
  <text class="cls-1" transform="translate(184.53 47.75) rotate(38.31)"><tspan x="0" y="0">e</tspan></text>
  <text class="cls-1" transform="translate(186.26 49.12) rotate(39.89)"><tspan x="0" y="0">m</tspan></text>
  <text class="cls-1" transform="translate(188.66 51.13) rotate(41.16)"><tspan x="0" y="0"> </tspan></text>
  <text class="cls-1" transform="translate(189.59 51.95) rotate(41.87)"><tspan x="0" y="0">I</tspan></text>
  <text class="cls-1" transform="translate(190.45 52.71) rotate(42.9)"><tspan x="0" y="0">p</tspan></text>
  <text class="cls-1" transform="translate(192.2 54.34) rotate(44.07)"><tspan x="0" y="0">s</tspan></text>
  <text class="cls-1" transform="translate(193.35 55.45) rotate(45.18)"><tspan x="0" y="0">u</tspan></text>
  <text class="cls-1" transform="translate(194.87 56.97) rotate(46.72)"><tspan x="0" y="0">m</tspan></text>
  <text class="cls-1" transform="translate(197.02 59.27) rotate(48.15)"><tspan x="0" y="0">L</tspan></text>
  <text class="cls-1" transform="translate(198.2 60.58) rotate(49.37)"><tspan x="0" y="0">o</tspan></text>
  <text class="cls-1" transform="translate(199.76 62.4) rotate(50.5)"><tspan x="0" y="0">r</tspan></text>
  <text class="cls-1" transform="translate(200.68 63.52) rotate(51.56)"><tspan x="0" y="0">e</tspan></text>
  <text class="cls-1" transform="translate(202.05 65.23) rotate(53.12)"><tspan x="0" y="0">m</tspan></text>
  <text class="cls-1" transform="translate(203.93 67.75) rotate(54.39)"><tspan x="0" y="0"> </tspan></text>
  <text class="cls-1" transform="translate(204.65 68.74) rotate(55.4)"><tspan x="0" y="0">E</tspan></text>
  <text class="cls-1" transform="translate(205.92 70.59) rotate(56.69)"><tspan x="0" y="0">n</tspan></text>
  <text class="cls-1" transform="translate(207.11 72.4) rotate(58.02)"><tspan x="0" y="0">d</tspan></text>
</svg>