<?xml version="1.0" encoding="UTF-8"?>
<svg id="Layer_4" data-name="Layer 4" xmlns="http://www.w3.org/2000/svg" viewBox="0 0 250 250">
  <defs>
    <style>
      .cls-1 {
        fill: #231f20;
        font-family: Futura-Medium, Futura;
        font-size: 2.3px;
        font-weight: 500;
      }
    </style>
  </defs>
  <text class="cls-1" transform="translate(124.99 94.99) rotate(1.59)"><tspan x="0" y="0">A</tspan></text>
  <text class="cls-1" transform="translate(126.67 95.04) rotate(3.81)"><tspan x="0" y="0"> </tspan></text>
  <text class="cls-1" transform="translate(127.38 95.09) rotate(5.53)"><tspan x="0" y="0">c</tspan></text>
  <text class="cls-1" transform="translate(128.46 95.19) rotate(7.87)"><tspan x="0" y="0">o</tspan></text>
  <text class="cls-1" transform="translate(129.78 95.37) rotate(10.84)"><tspan x="0" y="0">m</tspan></text>
  <text class="cls-1" transform="translate(131.6 95.72) rotate(13.98)"><tspan x="0" y="0">p</tspan></text>
  <text class="cls-1" transform="translate(132.91 96.05) rotate(16.08)"><tspan x="0" y="0">r</tspan></text>
  <text class="cls-1" transform="translate(133.71 96.28) rotate(18.07)"><tspan x="0" y="0">e</tspan></text>
  <text class="cls-1" transform="translate(134.92 96.67) rotate(20.2)"><tspan x="0" y="0">s</tspan></text>
  <text class="cls-1" transform="translate(135.78 96.99) rotate(21.96)"><tspan x="0" y="0">s</tspan></text>
  <text class="cls-1" transform="translate(136.62 97.33) rotate(23.37)"><tspan x="0" y="0">i</tspan></text>
  <text class="cls-1" transform="translate(137.13 97.55) rotate(25.2)"><tspan x="0" y="0">o</tspan></text>
  <text class="cls-1" transform="translate(138.38 98.13) rotate(27.73)"><tspan x="0" y="0">n</tspan></text>
  <text class="cls-1" transform="translate(139.49 98.72) rotate(29.6)"><tspan x="0" y="0"> </tspan></text>
  <text class="cls-1" transform="translate(140.1 99.07) rotate(31.15)"><tspan x="0" y="0">s</tspan></text>
  <text class="cls-1" transform="translate(140.87 99.53) rotate(33.18)"><tspan x="0" y="0">h</tspan></text>
  <text class="cls-1" transform="translate(141.91 100.21) rotate(34.9)"><tspan x="0" y="0">i</tspan></text>
  <text class="cls-1" transform="translate(142.39 100.54) rotate(36.28)"><tspan x="0" y="0">r</tspan></text>
  <text class="cls-1" transform="translate(143.13 101.09) rotate(37.82)"><tspan x="0" y="0">t</tspan></text>
  <text class="cls-1" transform="translate(143.63 101.48) rotate(39.1)"><tspan x="0" y="0"> </tspan></text>
  <text class="cls-1" transform="translate(144.17 101.91) rotate(40.78)"><tspan x="0" y="0">c</tspan></text>
  <text class="cls-1" transform="translate(145 102.63) rotate(43.12)"><tspan x="0" y="0">a</tspan></text>
  <text class="cls-1" transform="translate(145.99 103.56) rotate(45.6)"><tspan x="0" y="0">n</tspan></text>
  <text class="cls-1" transform="translate(146.84 104.43) rotate(47.39)"><tspan x="0" y="0"> </tspan></text>
  <text class="cls-1" transform="translate(147.32 104.95) rotate(49.36)"><tspan x="0" y="0">b</tspan></text>
  <text class="cls-1" transform="translate(148.21 105.98) rotate(51.84)"><tspan x="0" y="0">e</tspan></text>
  <text class="cls-1" transform="translate(148.99 106.98) rotate(53.73)"><tspan x="0" y="0"> </tspan></text>
  <text class="cls-1" transform="translate(149.41 107.55) rotate(55.44)"><tspan x="0" y="0">c</tspan></text>
  <text class="cls-1" transform="translate(150.03 108.44) rotate(57.77)"><tspan x="0" y="0">o</tspan></text>
  <text class="cls-1" transform="translate(150.76 109.59) rotate(60.8)"><tspan x="0" y="0">m</tspan></text>
  <text class="cls-1" transform="translate(151.62 111.16) rotate(63.14)"><tspan x="0" y="0">f</tspan></text>
  <text class="cls-1" transform="translate(151.94 111.78) rotate(65.15)"><tspan x="0" y="0">o</tspan></text>
  <text class="cls-1" transform="translate(152.51 113.01) rotate(67.25)"><tspan x="0" y="0">r</tspan></text>
  <text class="cls-1" transform="translate(152.87 113.88) rotate(68.83)"><tspan x="0" y="0">t</tspan></text>
  <text class="cls-1" transform="translate(153.1 114.46) rotate(69.98)"><tspan x="0" y="0">i</tspan></text>
  <text class="cls-1" transform="translate(153.3 115) rotate(71.75)"><tspan x="0" y="0">n</tspan></text>
  <text class="cls-1" transform="translate(153.69 116.17) rotate(74.24)"><tspan x="0" y="0">g</tspan></text>
  <text class="cls-1" transform="translate(154.05 117.47) rotate(76.2)"><tspan x="0" y="0"> </tspan></text>
  <text class="cls-1" transform="translate(154.22 118.16) rotate(77.54)"><tspan x="0" y="0">f</tspan></text>
  <text class="cls-1" transform="translate(154.37 118.83) rotate(79.51)"><tspan x="0" y="0">o</tspan></text>
  <text class="cls-1" transform="translate(154.62 120.19) rotate(81.67)"><tspan x="0" y="0">r</tspan></text>
  <text class="cls-1" transform="translate(154.74 121.01) rotate(83.12)"><tspan x="0" y="0"> </tspan></text>
  <text class="cls-1" transform="translate(154.83 121.72) rotate(85.11)"><tspan x="0" y="0">a</tspan></text>
  <text class="cls-1" transform="translate(154.94 123.08) rotate(87.05)"><tspan x="0" y="0"> </tspan></text>
  <text class="cls-1" transform="translate(154.98 123.79) rotate(88.91)"><tspan x="0" y="0">h</tspan></text>
  <text class="cls-1" transform="translate(155.01 125) rotate(91.18)"><tspan x="0" y="0">u</tspan></text>
  <text class="cls-1" transform="translate(154.99 126.26) rotate(94.08)"><tspan x="0" y="0">m</tspan></text>
  <text class="cls-1" transform="translate(154.85 128.04) rotate(97.06)"><tspan x="0" y="0">a</tspan></text>
  <text class="cls-1" transform="translate(154.69 129.39) rotate(99.54)"><tspan x="0" y="0">n</tspan></text>
  <text class="cls-1" transform="translate(154.47 130.63) rotate(101.43)"><tspan x="0" y="0"> </tspan></text>
  <text class="cls-1" transform="translate(154.34 131.31) rotate(103.4)"><tspan x="0" y="0">o</tspan></text>
  <text class="cls-1" transform="translate(154.02 132.64) rotate(105.54)"><tspan x="0" y="0">r</tspan></text>
  <text class="cls-1" transform="translate(153.79 133.45) rotate(107.01)"><tspan x="0" y="0"> </tspan></text>
  <text class="cls-1" transform="translate(153.59 134.12) rotate(108.74)"><tspan x="0" y="0">c</tspan></text>
  <text class="cls-1" transform="translate(153.25 135.14) rotate(111.08)"><tspan x="0" y="0">a</tspan></text>
  <text class="cls-1" transform="translate(152.75 136.43) rotate(113.01)"><tspan x="0" y="0">t</tspan></text>
  <text class="cls-1" transform="translate(152.51 136.98) rotate(114.24)"><tspan x="0" y="0"> </tspan></text>
  <text class="cls-1" transform="translate(152.24 137.62) rotate(116.59)"><tspan x="0" y="0">w</tspan></text>
  <text class="cls-1" transform="translate(151.45 139.19) rotate(119.46)"><tspan x="0" y="0">h</tspan></text>
  <text class="cls-1" transform="translate(150.83 140.28) rotate(121.97)"><tspan x="0" y="0">o</tspan></text>
  <text class="cls-1" transform="translate(150.1 141.44) rotate(123.95)"><tspan x="0" y="0"> </tspan></text>
  <text class="cls-1" transform="translate(149.71 142.01) rotate(125.25)"><tspan x="0" y="0">f</tspan></text>
  <text class="cls-1" transform="translate(149.29 142.61) rotate(126.53)"><tspan x="0" y="0">i</tspan></text>
  <text class="cls-1" transform="translate(148.96 143.06) rotate(128.24)"><tspan x="0" y="0">n</tspan></text>
  <text class="cls-1" transform="translate(148.19 144.04) rotate(130.73)"><tspan x="0" y="0">d</tspan></text>
  <text class="cls-1" transform="translate(147.3 145.08) rotate(132.91)"><tspan x="0" y="0">s</tspan></text>
  <text class="cls-1" transform="translate(146.67 145.75) rotate(134.44)"><tspan x="0" y="0"> </tspan></text>
  <text class="cls-1" transform="translate(146.18 146.25) rotate(135.68)"><tspan x="0" y="0">t</tspan></text>
  <text class="cls-1" transform="translate(145.7 146.72) rotate(137.56)"><tspan x="0" y="0">h</tspan></text>
  <text class="cls-1" transform="translate(144.78 147.57) rotate(139.96)"><tspan x="0" y="0">e</tspan></text>
  <text class="cls-1" transform="translate(143.82 148.37) rotate(141.79)"><tspan x="0" y="0"> </tspan></text>
  <text class="cls-1" transform="translate(143.29 148.79) rotate(143.72)"><tspan x="0" y="0">p</tspan></text>
  <text class="cls-1" transform="translate(142.17 149.61) rotate(145.87)"><tspan x="0" y="0">r</tspan></text>
  <text class="cls-1" transform="translate(141.48 150.08) rotate(147.86)"><tspan x="0" y="0">e</tspan></text>
  <text class="cls-1" transform="translate(140.41 150.75) rotate(149.93)"><tspan x="0" y="0">s</tspan></text>
  <text class="cls-1" transform="translate(139.63 151.2) rotate(151.66)"><tspan x="0" y="0">s</tspan></text>
  <text class="cls-1" transform="translate(138.81 151.64) rotate(153.75)"><tspan x="0" y="0">u</tspan></text>
  <text class="cls-1" transform="translate(137.7 152.19) rotate(155.76)"><tspan x="0" y="0">r</tspan></text>
  <text class="cls-1" transform="translate(136.95 152.53) rotate(157.73)"><tspan x="0" y="0">e</tspan></text>
  <text class="cls-1" transform="translate(135.78 153.01) rotate(159.63)"><tspan x="0" y="0"> </tspan></text>
  <text class="cls-1" transform="translate(135.14 153.25) rotate(161.31)"><tspan x="0" y="0">c</tspan></text>
  <text class="cls-1" transform="translate(134.1 153.6) rotate(163.7)"><tspan x="0" y="0">o</tspan></text>
  <text class="cls-1" transform="translate(132.8 153.99) rotate(166.73)"><tspan x="0" y="0">m</tspan></text>
  <text class="cls-1" transform="translate(131.06 154.39) rotate(169.07)"><tspan x="0" y="0">f</tspan></text>
  <text class="cls-1" transform="translate(130.37 154.53) rotate(171.09)"><tspan x="0" y="0">o</tspan></text>
  <text class="cls-1" transform="translate(129.01 154.74) rotate(173.21)"><tspan x="0" y="0">r</tspan></text>
  <text class="cls-1" transform="translate(128.1 154.84) rotate(174.75)"><tspan x="0" y="0">t</tspan></text>
  <text class="cls-1" transform="translate(127.47 154.9) rotate(175.88)"><tspan x="0" y="0">i</tspan></text>
  <text class="cls-1" transform="translate(126.91 154.95) rotate(177.6)"><tspan x="0" y="0">n</tspan></text>
  <text class="cls-1" transform="translate(125.66 155.01) rotate(-179.07)"><tspan x="0" y="0">g</tspan></text>
  <text class="cls-1" transform="translate(124.29 154.99) rotate(-178)"><tspan x="0" y="0">,</tspan></text>
  <text class="cls-1" transform="translate(123.59 154.97) rotate(-176.69)"><tspan x="0" y="0"> </tspan></text>
  <text class="cls-1" transform="translate(122.9 154.94) rotate(-174.74)"><tspan x="0" y="0">b</tspan></text>
  <text class="cls-1" transform="translate(121.54 154.81) rotate(-172.26)"><tspan x="0" y="0">u</tspan></text>
  <text class="cls-1" transform="translate(120.32 154.64) rotate(-170.5)"><tspan x="0" y="0">t</tspan></text>
  <text class="cls-1" transform="translate(119.71 154.54) rotate(-169.24)"><tspan x="0" y="0"> </tspan></text>
  <text class="cls-1" transform="translate(119.03 154.41) rotate(-167.27)"><tspan x="0" y="0">o</tspan></text>
  <text class="cls-1" transform="translate(117.75 154.12) rotate(-164.95)"><tspan x="0" y="0">v</tspan></text>
  <text class="cls-1" transform="translate(116.69 153.84) rotate(-162.72)"><tspan x="0" y="0">e</tspan></text>
  <text class="cls-1" transform="translate(115.48 153.46) rotate(-160.68)"><tspan x="0" y="0">r</tspan></text>
  <text class="cls-1" transform="translate(114.57 153.15) rotate(-157.95)"><tspan x="0" y="0">w</tspan></text>
  <text class="cls-1" transform="translate(112.94 152.48) rotate(-155.06)"><tspan x="0" y="0">h</tspan></text>
  <text class="cls-1" transform="translate(111.83 151.97) rotate(-152.7)"><tspan x="0" y="0">e</tspan></text>
  <text class="cls-1" transform="translate(110.71 151.39) rotate(-150.97)"><tspan x="0" y="0">l</tspan></text>
  <text class="cls-1" transform="translate(110.2 151.12) rotate(-148.67)"><tspan x="0" y="0">m</tspan></text>
  <text class="cls-1" transform="translate(108.67 150.17) rotate(-146.43)"><tspan x="0" y="0">i</tspan></text>
  <text class="cls-1" transform="translate(108.2 149.87) rotate(-144.71)"><tspan x="0" y="0">n</tspan></text>
  <text class="cls-1" transform="translate(107.18 149.15) rotate(-142.22)"><tspan x="0" y="0">g</tspan></text>
  <text class="cls-1" transform="translate(106.1 148.3) rotate(-140.38)"><tspan x="0" y="0">l</tspan></text>
  <text class="cls-1" transform="translate(105.67 147.95) rotate(-138.67)"><tspan x="0" y="0">y</tspan></text>
  <text class="cls-1" transform="translate(104.72 147.11) rotate(-136.79)"><tspan x="0" y="0"> </tspan></text>
  <text class="cls-1" transform="translate(104.22 146.65) rotate(-135.13)"><tspan x="0" y="0">c</tspan></text>
  <text class="cls-1" transform="translate(103.45 145.87) rotate(-133.55)"><tspan x="0" y="0">l</tspan></text>
  <text class="cls-1" transform="translate(103.07 145.48) rotate(-131.76)"><tspan x="0" y="0">a</tspan></text>
  <text class="cls-1" transform="translate(102.16 144.46) rotate(-129.27)"><tspan x="0" y="0">u</tspan></text>
  <text class="cls-1" transform="translate(101.38 143.5) rotate(-127.22)"><tspan x="0" y="0">s</tspan></text>
  <text class="cls-1" transform="translate(100.82 142.77) rotate(-125.76)"><tspan x="0" y="0">t</tspan></text>
  <text class="cls-1" transform="translate(100.45 142.26) rotate(-124.34)"><tspan x="0" y="0">r</tspan></text>
  <text class="cls-1" transform="translate(99.99 141.58) rotate(-122.28)"><tspan x="0" y="0">o</tspan></text>
  <text class="cls-1" transform="translate(99.26 140.43) rotate(-119.68)"><tspan x="0" y="0">p</tspan></text>
  <text class="cls-1" transform="translate(98.59 139.26) rotate(-117.21)"><tspan x="0" y="0">h</tspan></text>
  <text class="cls-1" transform="translate(98.01 138.14) rotate(-114.68)"><tspan x="0" y="0">o</tspan></text>
  <text class="cls-1" transform="translate(97.44 136.89) rotate(-112.05)"><tspan x="0" y="0">b</tspan></text>
  <text class="cls-1" transform="translate(96.93 135.63) rotate(-110.2)"><tspan x="0" y="0">i</tspan></text>
  <text class="cls-1" transform="translate(96.74 135.1) rotate(-108.61)"><tspan x="0" y="0">c</tspan></text>
  <text class="cls-1" transform="translate(96.4 134.08) rotate(-106.92)"><tspan x="0" y="0"> </tspan></text>
  <text class="cls-1" transform="translate(96.19 133.41) rotate(-105.59)"><tspan x="0" y="0">f</tspan></text>
  <text class="cls-1" transform="translate(96 132.74) rotate(-103.58)"><tspan x="0" y="0">o</tspan></text>
  <text class="cls-1" transform="translate(95.69 131.42) rotate(-101.48)"><tspan x="0" y="0">r</tspan></text>
  <text class="cls-1" transform="translate(95.51 130.57) rotate(-99.95)"><tspan x="0" y="0"> </tspan></text>
  <text class="cls-1" transform="translate(95.39 129.88) rotate(-98.69)"><tspan x="0" y="0">t</tspan></text>
  <text class="cls-1" transform="translate(95.29 129.24) rotate(-96.84)"><tspan x="0" y="0">h</tspan></text>
  <text class="cls-1" transform="translate(95.14 128) rotate(-94.35)"><tspan x="0" y="0">o</tspan></text>
  <text class="cls-1" transform="translate(95.04 126.63) rotate(-92.18)"><tspan x="0" y="0">s</tspan></text>
  <text class="cls-1" transform="translate(95.01 125.71) rotate(-90.93)"><tspan x="0" y="0">e</tspan></text>
  <text class="cls-1" transform="translate(95 124.46) rotate(-88.32)"><tspan x="0" y="0"> </tspan></text>
  <text class="cls-1" transform="translate(95.01 123.77) rotate(-86.01)"><tspan x="0" y="0">w</tspan></text>
  <text class="cls-1" transform="translate(95.14 121.99) rotate(-83.12)"><tspan x="0" y="0">h</tspan></text>
  <text class="cls-1" transform="translate(95.29 120.76) rotate(-80.64)"><tspan x="0" y="0">o</tspan></text>
  <text class="cls-1" transform="translate(95.52 119.42) rotate(-78.66)"><tspan x="0" y="0"> </tspan></text>
  <text class="cls-1" transform="translate(95.65 118.74) rotate(-76.69)"><tspan x="0" y="0">d</tspan></text>
  <text class="cls-1" transform="translate(95.96 117.41) rotate(-74.06)"><tspan x="0" y="0">o</tspan></text>
  <text class="cls-1" transform="translate(96.34 116.11) rotate(-72.1)"><tspan x="0" y="0"> </tspan></text>
  <text class="cls-1" transform="translate(96.55 115.43) rotate(-70.2)"><tspan x="0" y="0">n</tspan></text>
  <text class="cls-1" transform="translate(96.97 114.26) rotate(-67.69)"><tspan x="0" y="0">o</tspan></text>
  <text class="cls-1" transform="translate(97.5 112.98) rotate(-65.76)"><tspan x="0" y="0">t</tspan></text>
  <text class="cls-1" transform="translate(97.76 112.42) rotate(-64.49)"><tspan x="0" y="0"> </tspan></text>
  <text class="cls-1" transform="translate(98.05 111.78) rotate(-62.62)"><tspan x="0" y="0">n</tspan></text>
  <text class="cls-1" transform="translate(98.62 110.68) rotate(-60.23)"><tspan x="0" y="0">e</tspan></text>
  <text class="cls-1" transform="translate(99.24 109.6) rotate(-57.85)"><tspan x="0" y="0">e</tspan></text>
  <text class="cls-1" transform="translate(99.91 108.53) rotate(-55.36)"><tspan x="0" y="0">d</tspan></text>
  <text class="cls-1" transform="translate(100.69 107.41) rotate(-53.38)"><tspan x="0" y="0"> </tspan></text>
  <text class="cls-1" transform="translate(101.11 106.85) rotate(-52.14)"><tspan x="0" y="0">t</tspan></text>
  <text class="cls-1" transform="translate(101.52 106.31) rotate(-50.25)"><tspan x="0" y="0">h</tspan></text>
  <text class="cls-1" transform="translate(102.3 105.37) rotate(-47.82)"><tspan x="0" y="0">a</tspan></text>
  <text class="cls-1" transform="translate(103.22 104.37) rotate(-45.94)"><tspan x="0" y="0">t</tspan></text>
  <text class="cls-1" transform="translate(103.66 103.91) rotate(-44.66)"><tspan x="0" y="0"> </tspan></text>
  <text class="cls-1" transform="translate(104.15 103.42) rotate(-43.38)"><tspan x="0" y="0">f</tspan></text>
  <text class="cls-1" transform="translate(104.67 102.93) rotate(-41.46)"><tspan x="0" y="0">e</tspan></text>
  <text class="cls-1" transform="translate(105.61 102.09) rotate(-39.06)"><tspan x="0" y="0">e</tspan></text>
  <text class="cls-1" transform="translate(106.59 101.31) rotate(-37.35)"><tspan x="0" y="0">l</tspan></text>
  <text class="cls-1" transform="translate(107.04 100.97) rotate(-36.28)"><tspan x="0" y="0">i</tspan></text>
  <text class="cls-1" transform="translate(107.48 100.63) rotate(-34.56)"><tspan x="0" y="0">n</tspan></text>
  <text class="cls-1" transform="translate(108.51 99.92) rotate(-32.06)"><tspan x="0" y="0">g</tspan></text>
  <text class="cls-1" transform="translate(109.68 99.2) rotate(-30.07)"><tspan x="0" y="0">.</tspan></text>
  <text class="cls-1" transform="translate(110.27 98.86) rotate(-28.77)"><tspan x="0" y="0"> </tspan></text>
</svg>