<?xml version="1.0" encoding="UTF-8"?>
<svg id="Layer_21" data-name="Layer 21" xmlns="http://www.w3.org/2000/svg" viewBox="0 0 250 250">
  <defs>
    <style>
      .cls-1 {
        fill: #231f20;
        font-family: Futura-Medium, Futura;
        font-size: 3.9px;
        font-weight: 500;
      }
    </style>
  </defs>
  <text class="cls-1" transform="translate(216.76 106.04) rotate(79.28)"><tspan x="0" y="0">L</tspan></text>
  <text class="cls-1" transform="translate(217.09 107.73) rotate(80.07)"><tspan x="0" y="0">a</tspan></text>
  <text class="cls-1" transform="translate(217.5 110.05) rotate(81.43)"><tspan x="0" y="0">y</tspan></text>
  <text class="cls-1" transform="translate(217.8 112.07) rotate(82.68)"><tspan x="0" y="0">e</tspan></text>
  <text class="cls-1" transform="translate(218.07 114.21) rotate(83.78)"><tspan x="0" y="0">r</tspan></text>
  <text class="cls-1" transform="translate(218.23 115.64) rotate(84.58)"><tspan x="0" y="0"> </tspan></text>
  <text class="cls-1" transform="translate(218.35 116.85) rotate(85.68)"><tspan x="0" y="0">2</tspan></text>
  <text class="cls-1" transform="translate(218.51 118.91) rotate(86.95)"><tspan x="0" y="0">1</tspan></text>
  <text class="cls-1" transform="translate(218.63 121.29) rotate(88.04)"><tspan x="0" y="0"> </tspan></text>
  <text class="cls-1" transform="translate(218.67 122.47) rotate(88.75)"><tspan x="0" y="0">I</tspan></text>
  <text class="cls-1" transform="translate(218.7 123.63) rotate(89.82)"><tspan x="0" y="0">p</tspan></text>
  <text class="cls-1" transform="translate(218.7 125.94) rotate(91.01)"><tspan x="0" y="0">s</tspan></text>
  <text class="cls-1" transform="translate(218.68 127.52) rotate(92.15)"><tspan x="0" y="0">u</tspan></text>
  <text class="cls-1" transform="translate(218.61 129.61) rotate(93.74)"><tspan x="0" y="0">m</tspan></text>
  <text class="cls-1" transform="translate(218.4 132.68) rotate(95.05)"><tspan x="0" y="0"> </tspan></text>
  <text class="cls-1" transform="translate(218.29 133.89) rotate(95.96)"><tspan x="0" y="0">L</tspan></text>
  <text class="cls-1" transform="translate(218.12 135.59) rotate(97.2)"><tspan x="0" y="0">o</tspan></text>
  <text class="cls-1" transform="translate(217.82 137.91) rotate(98.37)"><tspan x="0" y="0">r</tspan></text>
  <text class="cls-1" transform="translate(217.62 139.3) rotate(99.45)"><tspan x="0" y="0">e</tspan></text>
  <text class="cls-1" transform="translate(217.27 141.42) rotate(101.06)"><tspan x="0" y="0">m</tspan></text>
  <text class="cls-1" transform="translate(216.67 144.44) rotate(102.37)"><tspan x="0" y="0"> </tspan></text>
  <text class="cls-1" transform="translate(216.41 145.61) rotate(103.09)"><tspan x="0" y="0">I</tspan></text>
  <text class="cls-1" transform="translate(216.17 146.7) rotate(104.14)"><tspan x="0" y="0">p</tspan></text>
  <text class="cls-1" transform="translate(215.59 148.96) rotate(105.34)"><tspan x="0" y="0">s</tspan></text>
  <text class="cls-1" transform="translate(215.18 150.48) rotate(106.47)"><tspan x="0" y="0">u</tspan></text>
  <text class="cls-1" transform="translate(214.59 152.5) rotate(108.05)"><tspan x="0" y="0">m</tspan></text>
  <text class="cls-1" transform="translate(213.63 155.41) rotate(109.35)"><tspan x="0" y="0"> </tspan></text>
  <text class="cls-1" transform="translate(213.23 156.56) rotate(110.26)"><tspan x="0" y="0">L</tspan></text>
  <text class="cls-1" transform="translate(212.64 158.16) rotate(111.49)"><tspan x="0" y="0">o</tspan></text>
  <text class="cls-1" transform="translate(211.78 160.33) rotate(112.64)"><tspan x="0" y="0">r</tspan></text>
  <text class="cls-1" transform="translate(211.24 161.65) rotate(113.72)"><tspan x="0" y="0">e</tspan></text>
  <text class="cls-1" transform="translate(210.38 163.61) rotate(115.31)"><tspan x="0" y="0">m</tspan></text>
  <text class="cls-1" transform="translate(209.07 166.37) rotate(116.6)"><tspan x="0" y="0"> </tspan></text>
  <text class="cls-1" transform="translate(208.53 167.45) rotate(117.31)"><tspan x="0" y="0">I</tspan></text>
  <text class="cls-1" transform="translate(208 168.47) rotate(118.37)"><tspan x="0" y="0">p</tspan></text>
  <text class="cls-1" transform="translate(206.9 170.5) rotate(119.55)"><tspan x="0" y="0">s</tspan></text>
  <text class="cls-1" transform="translate(206.13 171.87) rotate(120.67)"><tspan x="0" y="0">u</tspan></text>
  <text class="cls-1" transform="translate(205.06 173.69) rotate(122.24)"><tspan x="0" y="0">m</tspan></text>
  <text class="cls-1" transform="translate(203.41 176.29) rotate(123.54)"><tspan x="0" y="0"> </tspan></text>
  <text class="cls-1" transform="translate(202.76 177.27) rotate(124.42)"><tspan x="0" y="0">L</tspan></text>
  <text class="cls-1" transform="translate(201.78 178.7) rotate(125.66)"><tspan x="0" y="0">o</tspan></text>
  <text class="cls-1" transform="translate(200.42 180.59) rotate(126.8)"><tspan x="0" y="0">r</tspan></text>
  <text class="cls-1" transform="translate(199.57 181.73) rotate(127.88)"><tspan x="0" y="0">e</tspan></text>
  <text class="cls-1" transform="translate(198.26 183.42) rotate(129.46)"><tspan x="0" y="0">m</tspan></text>
  <text class="cls-1" transform="translate(196.31 185.79) rotate(130.75)"><tspan x="0" y="0"> </tspan></text>
  <text class="cls-1" transform="translate(195.52 186.7) rotate(131.47)"><tspan x="0" y="0">I</tspan></text>
  <text class="cls-1" transform="translate(194.77 187.55) rotate(132.52)"><tspan x="0" y="0">p</tspan></text>
  <text class="cls-1" transform="translate(193.2 189.26) rotate(133.71)"><tspan x="0" y="0">s</tspan></text>
  <text class="cls-1" transform="translate(192.13 190.39) rotate(134.82)"><tspan x="0" y="0">u</tspan></text>
  <text class="cls-1" transform="translate(190.63 191.91) rotate(136.42)"><tspan x="0" y="0">m</tspan></text>
  <text class="cls-1" transform="translate(188.4 194.01) rotate(137.71)"><tspan x="0" y="0"> </tspan></text>
  <text class="cls-1" transform="translate(187.53 194.81) rotate(138.6)"><tspan x="0" y="0">L</tspan></text>
  <text class="cls-1" transform="translate(186.24 195.94) rotate(139.84)"><tspan x="0" y="0">o</tspan></text>
  <text class="cls-1" transform="translate(184.44 197.46) rotate(141.01)"><tspan x="0" y="0">r</tspan></text>
  <text class="cls-1" transform="translate(183.35 198.35) rotate(142.09)"><tspan x="0" y="0">e</tspan></text>
  <text class="cls-1" transform="translate(181.66 199.68) rotate(143.69)"><tspan x="0" y="0">m</tspan></text>
  <text class="cls-1" transform="translate(179.18 201.48) rotate(145)"><tspan x="0" y="0"> </tspan></text>
  <text class="cls-1" transform="translate(178.21 202.16) rotate(145.71)"><tspan x="0" y="0">I</tspan></text>
  <text class="cls-1" transform="translate(177.26 202.82) rotate(146.79)"><tspan x="0" y="0">p</tspan></text>
  <text class="cls-1" transform="translate(175.33 204.08) rotate(147.97)"><tspan x="0" y="0">s</tspan></text>
  <text class="cls-1" transform="translate(173.98 204.93) rotate(149.12)"><tspan x="0" y="0">u</tspan></text>
  <text class="cls-1" transform="translate(172.17 206.01) rotate(150.72)"><tspan x="0" y="0">m</tspan></text>
  <text class="cls-1" transform="translate(169.5 207.5) rotate(152.18)"><tspan x="0" y="0">L</tspan></text>
  <text class="cls-1" transform="translate(167.98 208.31) rotate(153.43)"><tspan x="0" y="0">o</tspan></text>
  <text class="cls-1" transform="translate(165.9 209.34) rotate(154.59)"><tspan x="0" y="0">r</tspan></text>
  <text class="cls-1" transform="translate(164.61 209.96) rotate(155.69)"><tspan x="0" y="0">e</tspan></text>
  <text class="cls-1" transform="translate(162.67 210.84) rotate(157.28)"><tspan x="0" y="0">m</tspan></text>
  <text class="cls-1" transform="translate(159.84 212.02) rotate(158.58)"><tspan x="0" y="0"> </tspan></text>
  <text class="cls-1" transform="translate(158.72 212.46) rotate(159.3)"><tspan x="0" y="0">I</tspan></text>
  <text class="cls-1" transform="translate(157.66 212.86) rotate(160.36)"><tspan x="0" y="0">p</tspan></text>
  <text class="cls-1" transform="translate(155.46 213.64) rotate(161.56)"><tspan x="0" y="0">s</tspan></text>
  <text class="cls-1" transform="translate(153.96 214.15) rotate(162.69)"><tspan x="0" y="0">u</tspan></text>
  <text class="cls-1" transform="translate(151.97 214.78) rotate(164.25)"><tspan x="0" y="0">m</tspan></text>
  <text class="cls-1" transform="translate(149.01 215.6) rotate(165.7)"><tspan x="0" y="0">L</tspan></text>
  <text class="cls-1" transform="translate(147.34 216.03) rotate(166.92)"><tspan x="0" y="0">o</tspan></text>
  <text class="cls-1" transform="translate(145.06 216.55) rotate(167.42)"><tspan x="0" y="0">r</tspan></text>
  <text class="cls-1" transform="translate(143.67 216.86) rotate(169.28)"><tspan x="0" y="0">e</tspan></text>
  <text class="cls-1" transform="translate(141.57 217.26) rotate(170.69)"><tspan x="0" y="0">m</tspan></text>
  <text class="cls-1" transform="translate(138.53 217.75) rotate(171.98)"><tspan x="0" y="0"> </tspan></text>
  <text class="cls-1" transform="translate(137.36 217.92) rotate(172.68)"><tspan x="0" y="0">I</tspan></text>
  <text class="cls-1" transform="translate(136.23 218.07) rotate(173.73)"><tspan x="0" y="0">p</tspan></text>
  <text class="cls-1" transform="translate(133.92 218.32) rotate(174.92)"><tspan x="0" y="0">s</tspan></text>
  <text class="cls-1" transform="translate(132.34 218.46) rotate(176.05)"><tspan x="0" y="0">u</tspan></text>
  <text class="cls-1" transform="translate(130.25 218.61) rotate(177.62)"><tspan x="0" y="0">m</tspan></text>
  <text class="cls-1" transform="translate(127.2 218.73) rotate(179.08)"><tspan x="0" y="0">L</tspan></text>
  <text class="cls-1" transform="translate(125.46 218.76) rotate(-179.66)"><tspan x="0" y="0">o</tspan></text>
  <text class="cls-1" transform="translate(123.12 218.74) rotate(-178.5)"><tspan x="0" y="0">r</tspan></text>
  <text class="cls-1" transform="translate(121.71 218.71) rotate(-177.41)"><tspan x="0" y="0">e</tspan></text>
  <text class="cls-1" transform="translate(119.59 218.62) rotate(-175.82)"><tspan x="0" y="0">m</tspan></text>
  <text class="cls-1" transform="translate(116.51 218.39) rotate(-174.49)"><tspan x="0" y="0"> </tspan></text>
  <text class="cls-1" transform="translate(115.32 218.27) rotate(-173.77)"><tspan x="0" y="0">I</tspan></text>
  <text class="cls-1" transform="translate(114.19 218.15) rotate(-172.71)"><tspan x="0" y="0">p</tspan></text>
  <text class="cls-1" transform="translate(111.9 217.86) rotate(-171.52)"><tspan x="0" y="0">s</tspan></text>
  <text class="cls-1" transform="translate(110.32 217.62) rotate(-170.37)"><tspan x="0" y="0">u</tspan></text>
  <text class="cls-1" transform="translate(108.26 217.28) rotate(-168.79)"><tspan x="0" y="0">m</tspan></text>
  <text class="cls-1" transform="translate(105.25 216.68) rotate(-167.32)"><tspan x="0" y="0">L</tspan></text>
  <text class="cls-1" transform="translate(103.57 216.3) rotate(-166.08)"><tspan x="0" y="0">o</tspan></text>
  <text class="cls-1" transform="translate(101.3 215.73) rotate(-164.91)"><tspan x="0" y="0">r</tspan></text>
  <text class="cls-1" transform="translate(99.94 215.37) rotate(-163.83)"><tspan x="0" y="0">e</tspan></text>
  <text class="cls-1" transform="translate(97.87 214.78) rotate(-162.23)"><tspan x="0" y="0">m</tspan></text>
  <text class="cls-1" transform="translate(94.95 213.83) rotate(-160.93)"><tspan x="0" y="0"> </tspan></text>
  <text class="cls-1" transform="translate(93.82 213.44) rotate(-160.22)"><tspan x="0" y="0">I</tspan></text>
  <text class="cls-1" transform="translate(92.75 213.06) rotate(-159.16)"><tspan x="0" y="0">p</tspan></text>
  <text class="cls-1" transform="translate(90.57 212.23) rotate(-157.96)"><tspan x="0" y="0">s</tspan></text>
  <text class="cls-1" transform="translate(89.1 211.64) rotate(-156.83)"><tspan x="0" y="0">u</tspan></text>
  <text class="cls-1" transform="translate(87.18 210.82) rotate(-155.27)"><tspan x="0" y="0">m</tspan></text>
  <text class="cls-1" transform="translate(84.39 209.53) rotate(-153.81)"><tspan x="0" y="0">L</tspan></text>
  <text class="cls-1" transform="translate(82.84 208.77) rotate(-152.57)"><tspan x="0" y="0">o</tspan></text>
  <text class="cls-1" transform="translate(80.79 207.7) rotate(-151.43)"><tspan x="0" y="0">r</tspan></text>
  <text class="cls-1" transform="translate(79.52 207.01) rotate(-150.34)"><tspan x="0" y="0">e</tspan></text>
  <text class="cls-1" transform="translate(77.66 205.96) rotate(-148.76)"><tspan x="0" y="0">m</tspan></text>
  <text class="cls-1" transform="translate(75.06 204.37) rotate(-147.48)"><tspan x="0" y="0"> </tspan></text>
  <text class="cls-1" transform="translate(74.03 203.71) rotate(-146.76)"><tspan x="0" y="0">I</tspan></text>
  <text class="cls-1" transform="translate(73.08 203.1) rotate(-145.71)"><tspan x="0" y="0">p</tspan></text>
  <text class="cls-1" transform="translate(71.17 201.79) rotate(-144.54)"><tspan x="0" y="0">s</tspan></text>
  <text class="cls-1" transform="translate(69.87 200.87) rotate(-143.4)"><tspan x="0" y="0">u</tspan></text>
  <text class="cls-1" transform="translate(68.19 199.63) rotate(-141.85)"><tspan x="0" y="0">m</tspan></text>
  <text class="cls-1" transform="translate(65.79 197.73) rotate(-140.39)"><tspan x="0" y="0">L</tspan></text>
  <text class="cls-1" transform="translate(64.45 196.63) rotate(-139.15)"><tspan x="0" y="0">o</tspan></text>
  <text class="cls-1" transform="translate(62.68 195.09) rotate(-137.99)"><tspan x="0" y="0">r</tspan></text>
  <text class="cls-1" transform="translate(61.62 194.15) rotate(-136.92)"><tspan x="0" y="0">e</tspan></text>
  <text class="cls-1" transform="translate(60.05 192.69) rotate(-135.33)"><tspan x="0" y="0">m</tspan></text>
  <text class="cls-1" transform="translate(57.88 190.53) rotate(-134.03)"><tspan x="0" y="0"> </tspan></text>
  <text class="cls-1" transform="translate(57.06 189.67) rotate(-133.32)"><tspan x="0" y="0">I</tspan></text>
  <text class="cls-1" transform="translate(56.27 188.85) rotate(-132.26)"><tspan x="0" y="0">p</tspan></text>
  <text class="cls-1" transform="translate(54.71 187.13) rotate(-131.07)"><tspan x="0" y="0">s</tspan></text>
  <text class="cls-1" transform="translate(53.68 185.95) rotate(-129.95)"><tspan x="0" y="0">u</tspan></text>
  <text class="cls-1" transform="translate(52.32 184.33) rotate(-128.36)"><tspan x="0" y="0">m</tspan></text>
  <text class="cls-1" transform="translate(50.42 181.91) rotate(-126.89)"><tspan x="0" y="0">L</tspan></text>
  <text class="cls-1" transform="translate(49.39 180.55) rotate(-125.65)"><tspan x="0" y="0">o</tspan></text>
  <text class="cls-1" transform="translate(48.03 178.65) rotate(-124.49)"><tspan x="0" y="0">r</tspan></text>
  <text class="cls-1" transform="translate(47.22 177.47) rotate(-123.39)"><tspan x="0" y="0">e</tspan></text>
  <text class="cls-1" transform="translate(46.03 175.68) rotate(-121.78)"><tspan x="0" y="0">m</tspan></text>
  <text class="cls-1" transform="translate(44.43 173.08) rotate(-120.48)"><tspan x="0" y="0"> </tspan></text>
  <text class="cls-1" transform="translate(43.81 172.03) rotate(-119.75)"><tspan x="0" y="0">I</tspan></text>
  <text class="cls-1" transform="translate(43.25 171.05) rotate(-118.68)"><tspan x="0" y="0">p</tspan></text>
  <text class="cls-1" transform="translate(42.13 169.01) rotate(-117.48)"><tspan x="0" y="0">s</tspan></text>
  <text class="cls-1" transform="translate(41.4 167.61) rotate(-116.35)"><tspan x="0" y="0">u</tspan></text>
  <text class="cls-1" transform="translate(40.47 165.74) rotate(-114.76)"><tspan x="0" y="0">m</tspan></text>
  <text class="cls-1" transform="translate(39.19 162.94) rotate(-113.45)"><tspan x="0" y="0"> </tspan></text>
  <text class="cls-1" transform="translate(38.72 161.86) rotate(-112.56)"><tspan x="0" y="0">L</tspan></text>
  <text class="cls-1" transform="translate(38.05 160.25) rotate(-111.31)"><tspan x="0" y="0">o</tspan></text>
  <text class="cls-1" transform="translate(37.21 158.09) rotate(-110.16)"><tspan x="0" y="0">r</tspan></text>
  <text class="cls-1" transform="translate(36.72 156.76) rotate(-109.07)"><tspan x="0" y="0">e</tspan></text>
  <text class="cls-1" transform="translate(36.01 154.75) rotate(-107.49)"><tspan x="0" y="0">m</tspan></text>
  <text class="cls-1" transform="translate(35.09 151.79) rotate(-106.18)"><tspan x="0" y="0"> </tspan></text>
  <text class="cls-1" transform="translate(34.76 150.66) rotate(-105.48)"><tspan x="0" y="0">I</tspan></text>
  <text class="cls-1" transform="translate(34.46 149.57) rotate(-104.44)"><tspan x="0" y="0">p</tspan></text>
  <text class="cls-1" transform="translate(33.88 147.31) rotate(-103.26)"><tspan x="0" y="0">s</tspan></text>
  <text class="cls-1" transform="translate(33.52 145.77) rotate(-102.58)"><tspan x="0" y="0">u</tspan></text>
  <text class="cls-1" transform="translate(33.07 143.73) rotate(-100.61)"><tspan x="0" y="0">m</tspan></text>
  <text class="cls-1" transform="translate(32.51 140.69) rotate(-99.31)"><tspan x="0" y="0"> </tspan></text>
  <text class="cls-1" transform="translate(32.31 139.51) rotate(-98.43)"><tspan x="0" y="0">L</tspan></text>
  <text class="cls-1" transform="translate(32.06 137.81) rotate(-97.21)"><tspan x="0" y="0">o</tspan></text>
  <text class="cls-1" transform="translate(31.77 135.49) rotate(-96.05)"><tspan x="0" y="0">r</tspan></text>
  <text class="cls-1" transform="translate(31.62 134.11) rotate(-94.99)"><tspan x="0" y="0">e</tspan></text>
  <text class="cls-1" transform="translate(31.42 131.96) rotate(-93.39)"><tspan x="0" y="0">m</tspan></text>
  <text class="cls-1" transform="translate(31.25 128.89) rotate(-92.08)"><tspan x="0" y="0"> </tspan></text>
  <text class="cls-1" transform="translate(31.21 127.69) rotate(-91.36)"><tspan x="0" y="0">I</tspan></text>
  <text class="cls-1" transform="translate(31.18 126.56) rotate(-90.31)"><tspan x="0" y="0">p</tspan></text>
  <text class="cls-1" transform="translate(31.17 124.24) rotate(-89.11)"><tspan x="0" y="0">s</tspan></text>
  <text class="cls-1" transform="translate(31.19 122.67) rotate(-87.98)"><tspan x="0" y="0">u</tspan></text>
  <text class="cls-1" transform="translate(31.26 120.54) rotate(-86.38)"><tspan x="0" y="0">m</tspan></text>
  <text class="cls-1" transform="translate(31.46 117.49) rotate(-85.07)"><tspan x="0" y="0"> </tspan></text>
  <text class="cls-1" transform="translate(31.56 116.3) rotate(-84.17)"><tspan x="0" y="0">L</tspan></text>
  <text class="cls-1" transform="translate(31.73 114.6) rotate(-82.93)"><tspan x="0" y="0">o</tspan></text>
  <text class="cls-1" transform="translate(32.02 112.28) rotate(-81.76)"><tspan x="0" y="0">r</tspan></text>
  <text class="cls-1" transform="translate(32.22 110.88) rotate(-80.68)"><tspan x="0" y="0">e</tspan></text>
  <text class="cls-1" transform="translate(32.56 108.77) rotate(-79.07)"><tspan x="0" y="0">m</tspan></text>
  <text class="cls-1" transform="translate(33.16 105.74) rotate(-77.76)"><tspan x="0" y="0"> </tspan></text>
  <text class="cls-1" transform="translate(33.41 104.57) rotate(-77.04)"><tspan x="0" y="0">I</tspan></text>
  <text class="cls-1" transform="translate(33.66 103.47) rotate(-75.98)"><tspan x="0" y="0">p</tspan></text>
  <text class="cls-1" transform="translate(34.22 101.22) rotate(-74.79)"><tspan x="0" y="0">s</tspan></text>
  <text class="cls-1" transform="translate(34.63 99.7) rotate(-73.66)"><tspan x="0" y="0">u</tspan></text>
  <text class="cls-1" transform="translate(35.22 97.68) rotate(-72.07)"><tspan x="0" y="0">m</tspan></text>
  <text class="cls-1" transform="translate(36.18 94.75) rotate(-70.61)"><tspan x="0" y="0">L</tspan></text>
  <text class="cls-1" transform="translate(36.74 93.14) rotate(-69.37)"><tspan x="0" y="0">o</tspan></text>
  <text class="cls-1" transform="translate(37.57 90.94) rotate(-68.21)"><tspan x="0" y="0">r</tspan></text>
  <text class="cls-1" transform="translate(38.09 89.63) rotate(-67.13)"><tspan x="0" y="0">e</tspan></text>
  <text class="cls-1" transform="translate(38.92 87.65) rotate(-65.55)"><tspan x="0" y="0">m</tspan></text>
  <text class="cls-1" transform="translate(40.19 84.87) rotate(-64.26)"><tspan x="0" y="0"> </tspan></text>
  <text class="cls-1" transform="translate(40.73 83.77) rotate(-63.53)"><tspan x="0" y="0">I</tspan></text>
  <text class="cls-1" transform="translate(41.22 82.76) rotate(-62.48)"><tspan x="0" y="0">p</tspan></text>
  <text class="cls-1" transform="translate(42.3 80.71) rotate(-61.3)"><tspan x="0" y="0">s</tspan></text>
  <text class="cls-1" transform="translate(43.05 79.32) rotate(-60.17)"><tspan x="0" y="0">e</tspan></text>
  <text class="cls-1" transform="translate(44.12 77.46) rotate(-58.87)"><tspan x="0" y="0">n</tspan></text>
  <text class="cls-1" transform="translate(45.21 75.65) rotate(-57.52)"><tspan x="0" y="0">d</tspan></text>
  <text class="cls-1" transform="translate(46.47 73.69) rotate(-56.46)"><tspan x="0" y="0"> </tspan></text>
  <text class="cls-1" transform="translate(47.13 72.68) rotate(-55.74)"><tspan x="0" y="0">I</tspan></text>
  <text class="cls-1" transform="translate(47.77 71.73) rotate(-54.69)"><tspan x="0" y="0">p</tspan></text>
  <text class="cls-1" transform="translate(49.11 69.85) rotate(-53.51)"><tspan x="0" y="0">s</tspan></text>
  <text class="cls-1" transform="translate(50.05 68.58) rotate(-52.39)"><tspan x="0" y="0">u</tspan></text>
  <text class="cls-1" transform="translate(51.32 66.91) rotate(-50.82)"><tspan x="0" y="0">m</tspan></text>
  <text class="cls-1" transform="translate(53.27 64.53) rotate(-49.36)"><tspan x="0" y="0">L</tspan></text>
  <text class="cls-1" transform="translate(54.4 63.22) rotate(-48.12)"><tspan x="0" y="0">o</tspan></text>
  <text class="cls-1" transform="translate(55.94 61.5) rotate(-46.98)"><tspan x="0" y="0">r</tspan></text>
  <text class="cls-1" transform="translate(56.91 60.46) rotate(-45.91)"><tspan x="0" y="0">e</tspan></text>
  <text class="cls-1" transform="translate(58.39 58.92) rotate(-44.32)"><tspan x="0" y="0">m</tspan></text>
  <text class="cls-1" transform="translate(60.6 56.77) rotate(-43.01)"><tspan x="0" y="0"> </tspan></text>
  <text class="cls-1" transform="translate(61.49 55.95) rotate(-42.29)"><tspan x="0" y="0">I</tspan></text>
  <text class="cls-1" transform="translate(62.33 55.18) rotate(-41.23)"><tspan x="0" y="0">p</tspan></text>
  <text class="cls-1" transform="translate(64.08 53.65) rotate(-40.03)"><tspan x="0" y="0">s</tspan></text>
  <text class="cls-1" transform="translate(65.28 52.63) rotate(-38.9)"><tspan x="0" y="0">u</tspan></text>
  <text class="cls-1" transform="translate(66.91 51.31) rotate(-37.32)"><tspan x="0" y="0">m</tspan></text>
  <text class="cls-1" transform="translate(69.36 49.45) rotate(-35.85)"><tspan x="0" y="0">L</tspan></text>
  <text class="cls-1" transform="translate(70.74 48.45) rotate(-34.61)"><tspan x="0" y="0">o</tspan></text>
  <text class="cls-1" transform="translate(72.65 47.14) rotate(-33.46)"><tspan x="0" y="0">r</tspan></text>
  <text class="cls-1" transform="translate(73.85 46.34) rotate(-32.36)"><tspan x="0" y="0">e</tspan></text>
  <text class="cls-1" transform="translate(75.65 45.19) rotate(-30.76)"><tspan x="0" y="0">m</tspan></text>
  <text class="cls-1" transform="translate(78.31 43.63) rotate(-29.44)"><tspan x="0" y="0"> </tspan></text>
  <text class="cls-1" transform="translate(79.34 43.04) rotate(-28.39)"><tspan x="0" y="0">E</tspan></text>
  <text class="cls-1" transform="translate(81.26 42) rotate(-27.07)"><tspan x="0" y="0">n</tspan></text>
  <text class="cls-1" transform="translate(83.16 41.03) rotate(-25.7)"><tspan x="0" y="0">d</tspan></text>
</svg>