<?xml version="1.0" encoding="UTF-8"?>
<svg id="Layer_1" data-name="Layer 1" xmlns="http://www.w3.org/2000/svg" viewBox="0 0 250 250">
  <defs>
    <style>
      .cls-1 {
        fill: #231f20;
        font-family: Futura-Medium, Futura;
        font-size: 1.9px;
        font-weight: 500;
      }
    </style>
  </defs>
  <text class="cls-1" transform="translate(109.97 136.22) rotate(-124.51)"><tspan x="0" y="0">A</tspan></text>
  <text class="cls-1" transform="translate(109.18 135.06) rotate(-121.61)"><tspan x="0" y="0">t</tspan></text>
  <text class="cls-1" transform="translate(108.92 134.63) rotate(-119.98)"><tspan x="0" y="0"> </tspan></text>
  <text class="cls-1" transform="translate(108.62 134.12) rotate(-118.26)"><tspan x="0" y="0">t</tspan></text>
  <text class="cls-1" transform="translate(108.36 133.65) rotate(-115.84)"><tspan x="0" y="0">h</tspan></text>
  <text class="cls-1" transform="translate(107.92 132.74) rotate(-112.7)"><tspan x="0" y="0">e</tspan></text>
  <text class="cls-1" transform="translate(107.52 131.78) rotate(-110.2)"><tspan x="0" y="0"> </tspan></text>
  <text class="cls-1" transform="translate(107.32 131.25) rotate(-107.98)"><tspan x="0" y="0">c</tspan></text>
  <text class="cls-1" transform="translate(107.05 130.42) rotate(-105.07)"><tspan x="0" y="0">e</tspan></text>
  <text class="cls-1" transform="translate(106.78 129.42) rotate(-101.91)"><tspan x="0" y="0">n</tspan></text>
  <text class="cls-1" transform="translate(106.58 128.42) rotate(-99.56)"><tspan x="0" y="0">t</tspan></text>
  <text class="cls-1" transform="translate(106.48 127.9) rotate(-97.12)"><tspan x="0" y="0">e</tspan></text>
  <text class="cls-1" transform="translate(106.36 126.88) rotate(-94.53)"><tspan x="0" y="0">r</tspan></text>
  <text class="cls-1" transform="translate(106.31 126.17) rotate(-92.55)"><tspan x="0" y="0"> </tspan></text>
  <text class="cls-1" transform="translate(106.27 125.61) rotate(-89.97)"><tspan x="0" y="0">o</tspan></text>
  <text class="cls-1" transform="translate(106.28 124.47) rotate(-87.4)"><tspan x="0" y="0">f</tspan></text>
  <text class="cls-1" transform="translate(106.31 123.92) rotate(-85.69)"><tspan x="0" y="0"> </tspan></text>
  <text class="cls-1" transform="translate(106.35 123.36) rotate(-84.07)"><tspan x="0" y="0">t</tspan></text>
  <text class="cls-1" transform="translate(106.4 122.83) rotate(-81.68)"><tspan x="0" y="0">h</tspan></text>
  <text class="cls-1" transform="translate(106.55 121.81) rotate(-78.51)"><tspan x="0" y="0">e</tspan></text>
  <text class="cls-1" transform="translate(106.75 120.81) rotate(-76.13)"><tspan x="0" y="0"> </tspan></text>
  <text class="cls-1" transform="translate(106.89 120.25) rotate(-73.9)"><tspan x="0" y="0">c</tspan></text>
  <text class="cls-1" transform="translate(107.13 119.39) rotate(-70.81)"><tspan x="0" y="0">a</tspan></text>
  <text class="cls-1" transform="translate(107.5 118.35) rotate(-67.44)"><tspan x="0" y="0">d</tspan></text>
  <text class="cls-1" transform="translate(107.93 117.3) rotate(-63.97)"><tspan x="0" y="0">b</tspan></text>
  <text class="cls-1" transform="translate(108.41 116.31) rotate(-60.75)"><tspan x="0" y="0">u</tspan></text>
  <text class="cls-1" transform="translate(108.92 115.42) rotate(-58.12)"><tspan x="0" y="0">r</tspan></text>
  <text class="cls-1" transform="translate(109.31 114.78) rotate(-55.29)"><tspan x="0" y="0">y</tspan></text>
  <text class="cls-1" transform="translate(109.9 113.93) rotate(-52.8)"><tspan x="0" y="0"> </tspan></text>
  <text class="cls-1" transform="translate(110.24 113.48) rotate(-50.57)"><tspan x="0" y="0">c</tspan></text>
  <text class="cls-1" transform="translate(110.8 112.8) rotate(-48.16)"><tspan x="0" y="0">r</tspan></text>
  <text class="cls-1" transform="translate(111.25 112.29) rotate(-45.55)"><tspan x="0" y="0">e</tspan></text>
  <text class="cls-1" transform="translate(111.99 111.54) rotate(-42.21)"><tspan x="0" y="0">a</tspan></text>
  <text class="cls-1" transform="translate(112.8 110.79) rotate(-38.31)"><tspan x="0" y="0">m</tspan></text>
  <text class="cls-1" transform="translate(113.98 109.88) rotate(-35.23)"><tspan x="0" y="0"> </tspan></text>
  <text class="cls-1" transform="translate(114.45 109.54) rotate(-32.78)"><tspan x="0" y="0">e</tspan></text>
  <text class="cls-1" transform="translate(115.31 108.98) rotate(-29.53)"><tspan x="0" y="0">g</tspan></text>
  <text class="cls-1" transform="translate(116.26 108.44) rotate(-26.19)"><tspan x="0" y="0">g</tspan></text>
  <text class="cls-1" transform="translate(117.27 107.95) rotate(-23.6)"><tspan x="0" y="0"> </tspan></text>
  <text class="cls-1" transform="translate(117.8 107.72) rotate(-21.99)"><tspan x="0" y="0">i</tspan></text>
  <text class="cls-1" transform="translate(118.22 107.55) rotate(-20.11)"><tspan x="0" y="0">s</tspan></text>
  <text class="cls-1" transform="translate(118.93 107.29) rotate(-18.07)"><tspan x="0" y="0"> </tspan></text>
  <text class="cls-1" transform="translate(119.48 107.11) rotate(-16.39)"><tspan x="0" y="0">t</tspan></text>
  <text class="cls-1" transform="translate(120 106.96) rotate(-13.93)"><tspan x="0" y="0">h</tspan></text>
  <text class="cls-1" transform="translate(120.99 106.71) rotate(-10.78)"><tspan x="0" y="0">e</tspan></text>
  <text class="cls-1" transform="translate(122 106.52) rotate(-8.34)"><tspan x="0" y="0"> </tspan></text>
  <text class="cls-1" transform="translate(122.57 106.43) rotate(-5.74)"><tspan x="0" y="0">g</tspan></text>
  <text class="cls-1" transform="translate(123.69 106.32) rotate(-2.29)"><tspan x="0" y="0">o</tspan></text>
  <text class="cls-1" transform="translate(124.79 106.27) rotate(1.05)"><tspan x="0" y="0">o</tspan></text>
  <text class="cls-1" transform="translate(125.9 106.29) rotate(4.31)"><tspan x="0" y="0">e</tspan></text>
  <text class="cls-1" transform="translate(126.92 106.37) rotate(7.39)"><tspan x="0" y="0">y</tspan></text>
  <text class="cls-1" transform="translate(127.92 106.5) rotate(9.77)"><tspan x="0" y="0"> </tspan></text>
  <text class="cls-1" transform="translate(128.49 106.6) rotate(12)"><tspan x="0" y="0">c</tspan></text>
  <text class="cls-1" transform="translate(129.33 106.77) rotate(14.99)"><tspan x="0" y="0">o</tspan></text>
  <text class="cls-1" transform="translate(130.44 107.07) rotate(17.82)"><tspan x="0" y="0">r</tspan></text>
  <text class="cls-1" transform="translate(131.08 107.28) rotate(20.4)"><tspan x="0" y="0">e</tspan></text>
  <text class="cls-1" transform="translate(132.04 107.64) rotate(22.82)"><tspan x="0" y="0">,</tspan></text>
  <text class="cls-1" transform="translate(132.57 107.86) rotate(24.55)"><tspan x="0" y="0"> </tspan></text>
  <text class="cls-1" transform="translate(133.1 108.09) rotate(27.68)"><tspan x="0" y="0">w</tspan></text>
  <text class="cls-1" transform="translate(134.37 108.76) rotate(31.45)"><tspan x="0" y="0">h</tspan></text>
  <text class="cls-1" transform="translate(135.24 109.3) rotate(33.74)"><tspan x="0" y="0">i</tspan></text>
  <text class="cls-1" transform="translate(135.62 109.55) rotate(35.78)"><tspan x="0" y="0">c</tspan></text>
  <text class="cls-1" transform="translate(136.38 110.1) rotate(38.89)"><tspan x="0" y="0">h</tspan></text>
  <text class="cls-1" transform="translate(137.17 110.74) rotate(41.31)"><tspan x="0" y="0"> </tspan></text>
  <text class="cls-1" transform="translate(137.6 111.11) rotate(43.91)"><tspan x="0" y="0">o</tspan></text>
  <text class="cls-1" transform="translate(138.42 111.9) rotate(47.25)"><tspan x="0" y="0">n</tspan></text>
  <text class="cls-1" transform="translate(139.11 112.64) rotate(50.32)"><tspan x="0" y="0">e</tspan></text>
  <text class="cls-1" transform="translate(139.75 113.43) rotate(52.48)"><tspan x="0" y="0"> </tspan></text>
  <text class="cls-1" transform="translate(140.12 113.9) rotate(54.95)"><tspan x="0" y="0">c</tspan></text>
  <text class="cls-1" transform="translate(140.62 114.61) rotate(57.94)"><tspan x="0" y="0">a</tspan></text>
  <text class="cls-1" transform="translate(141.22 115.56) rotate(61.19)"><tspan x="0" y="0">n</tspan></text>
  <text class="cls-1" transform="translate(141.7 116.46) rotate(63.63)"><tspan x="0" y="0"> </tspan></text>
  <text class="cls-1" transform="translate(141.96 116.98) rotate(65.24)"><tspan x="0" y="0">l</tspan></text>
  <text class="cls-1" transform="translate(142.16 117.4) rotate(66.67)"><tspan x="0" y="0">i</tspan></text>
  <text class="cls-1" transform="translate(142.34 117.82) rotate(68.72)"><tspan x="0" y="0">c</tspan></text>
  <text class="cls-1" transform="translate(142.68 118.68) rotate(71.66)"><tspan x="0" y="0">k</tspan></text>
  <text class="cls-1" transform="translate(142.97 119.56) rotate(73.96)"><tspan x="0" y="0"> </tspan></text>
  <text class="cls-1" transform="translate(143.14 120.12) rotate(76.6)"><tspan x="0" y="0">o</tspan></text>
  <text class="cls-1" transform="translate(143.39 121.2) rotate(79.83)"><tspan x="0" y="0">u</tspan></text>
  <text class="cls-1" transform="translate(143.57 122.2) rotate(82.18)"><tspan x="0" y="0">t</tspan></text>
  <text class="cls-1" transform="translate(143.64 122.7) rotate(83.83)"><tspan x="0" y="0"> </tspan></text>
  <text class="cls-1" transform="translate(143.7 123.29) rotate(85.9)"><tspan x="0" y="0">s</tspan></text>
  <text class="cls-1" transform="translate(143.76 124.02) rotate(88.57)"><tspan x="0" y="0">e</tspan></text>
  <text class="cls-1" transform="translate(143.78 125.05) rotate(91.83)"><tspan x="0" y="0">p</tspan></text>
  <text class="cls-1" transform="translate(143.75 126.19) rotate(95.16)"><tspan x="0" y="0">e</tspan></text>
  <text class="cls-1" transform="translate(143.65 127.2) rotate(97.73)"><tspan x="0" y="0">r</tspan></text>
  <text class="cls-1" transform="translate(143.57 127.88) rotate(100.46)"><tspan x="0" y="0">a</tspan></text>
  <text class="cls-1" transform="translate(143.36 128.98) rotate(102.93)"><tspan x="0" y="0">t</tspan></text>
  <text class="cls-1" transform="translate(143.24 129.49) rotate(105.33)"><tspan x="0" y="0">e</tspan></text>
  <text class="cls-1" transform="translate(142.97 130.48) rotate(107.56)"><tspan x="0" y="0">l</tspan></text>
  <text class="cls-1" transform="translate(142.83 130.94) rotate(109.88)"><tspan x="0" y="0">y</tspan></text>
  <text class="cls-1" transform="translate(142.48 131.89) rotate(112.3)"><tspan x="0" y="0"> </tspan></text>
  <text class="cls-1" transform="translate(142.27 132.42) rotate(114.9)"><tspan x="0" y="0">o</tspan></text>
  <text class="cls-1" transform="translate(141.79 133.44) rotate(117.68)"><tspan x="0" y="0">r</tspan></text>
  <text class="cls-1" transform="translate(141.47 134.05) rotate(119.6)"><tspan x="0" y="0"> </tspan></text>
  <text class="cls-1" transform="translate(141.19 134.56) rotate(121.89)"><tspan x="0" y="0">c</tspan></text>
  <text class="cls-1" transform="translate(140.72 135.3) rotate(124.27)"><tspan x="0" y="0">r</tspan></text>
  <text class="cls-1" transform="translate(140.32 135.9) rotate(127.02)"><tspan x="0" y="0">u</tspan></text>
  <text class="cls-1" transform="translate(139.71 136.71) rotate(130.14)"><tspan x="0" y="0">n</tspan></text>
  <text class="cls-1" transform="translate(139.04 137.5) rotate(133.1)"><tspan x="0" y="0">c</tspan></text>
  <text class="cls-1" transform="translate(138.4 138.18) rotate(136.16)"><tspan x="0" y="0">h</tspan></text>
  <text class="cls-1" transform="translate(137.66 138.89) rotate(138.6)"><tspan x="0" y="0"> </tspan></text>
  <text class="cls-1" transform="translate(137.26 139.26) rotate(141.6)"><tspan x="0" y="0">w</tspan></text>
  <text class="cls-1" transform="translate(136.1 140.16) rotate(144.5)"><tspan x="0" y="0">i</tspan></text>
  <text class="cls-1" transform="translate(135.73 140.43) rotate(145.95)"><tspan x="0" y="0">t</tspan></text>
  <text class="cls-1" transform="translate(135.28 140.74) rotate(148.39)"><tspan x="0" y="0">h</tspan></text>
  <text class="cls-1" transform="translate(134.4 141.27) rotate(150.83)"><tspan x="0" y="0"> </tspan></text>
  <text class="cls-1" transform="translate(133.91 141.55) rotate(152.45)"><tspan x="0" y="0">t</tspan></text>
  <text class="cls-1" transform="translate(133.44 141.8) rotate(154.88)"><tspan x="0" y="0">h</tspan></text>
  <text class="cls-1" transform="translate(132.52 142.23) rotate(158.02)"><tspan x="0" y="0">e</tspan></text>
  <text class="cls-1" transform="translate(131.55 142.61) rotate(160.51)"><tspan x="0" y="0"> </tspan></text>
  <text class="cls-1" transform="translate(131.02 142.81) rotate(162.55)"><tspan x="0" y="0">s</tspan></text>
  <text class="cls-1" transform="translate(130.3 143.04) rotate(165.28)"><tspan x="0" y="0">h</tspan></text>
  <text class="cls-1" transform="translate(129.31 143.3) rotate(168.44)"><tspan x="0" y="0">e</tspan></text>
  <text class="cls-1" transform="translate(128.3 143.5) rotate(170.7)"><tspan x="0" y="0">l</tspan></text>
  <text class="cls-1" transform="translate(127.83 143.57) rotate(172.18)"><tspan x="0" y="0">l</tspan></text>
  <text class="cls-1" transform="translate(127.38 143.64) rotate(173.74)"><tspan x="0" y="0">.</tspan></text>
</svg>