<?xml version="1.0" encoding="UTF-8"?>
<svg id="Layer_18" data-name="Layer 18" xmlns="http://www.w3.org/2000/svg" viewBox="0 0 250 250">
  <defs>
    <style>
      .cls-1 {
        fill: #231f20;
        font-family: Futura-CondensedExtraBold, Futura;
        font-size: 3.6px;
        font-weight: 700;
      }
    </style>
  </defs>
  <text class="cls-1" transform="translate(177.64 188.59) rotate(141.29)"><tspan x="0" y="0">L</tspan></text>
  <text class="cls-1" transform="translate(176.49 189.53) rotate(142.06)"><tspan x="0" y="0">a</tspan></text>
  <text class="cls-1" transform="translate(174.88 190.78) rotate(143.4)"><tspan x="0" y="0">y</tspan></text>
  <text class="cls-1" transform="translate(173.44 191.85) rotate(144.67)"><tspan x="0" y="0">e</tspan></text>
  <text class="cls-1" transform="translate(171.85 192.97) rotate(145.82)"><tspan x="0" y="0">r</tspan></text>
  <text class="cls-1" transform="translate(170.69 193.76) rotate(146.68)"><tspan x="0" y="0"> </tspan></text>
  <text class="cls-1" transform="translate(169.81 194.34) rotate(147.79)"><tspan x="0" y="0">1</tspan></text>
  <text class="cls-1" transform="translate(168.14 195.4) rotate(149.16)"><tspan x="0" y="0">8</tspan></text>
  <text class="cls-1" transform="translate(166.29 196.5) rotate(150.29)"><tspan x="0" y="0"> </tspan></text>
  <text class="cls-1" transform="translate(165.38 197.02) rotate(151.03)"><tspan x="0" y="0">I</tspan></text>
  <text class="cls-1" transform="translate(164.39 197.57) rotate(152.13)"><tspan x="0" y="0">p</tspan></text>
  <text class="cls-1" transform="translate(162.62 198.5) rotate(153.38)"><tspan x="0" y="0">s</tspan></text>
  <text class="cls-1" transform="translate(161.22 199.21) rotate(154.64)"><tspan x="0" y="0">u</tspan></text>
  <text class="cls-1" transform="translate(159.38 200.09) rotate(156.4)"><tspan x="0" y="0">m</tspan></text>
  <text class="cls-1" transform="translate(156.67 201.26) rotate(157.8)"><tspan x="0" y="0"> </tspan></text>
  <text class="cls-1" transform="translate(155.66 201.67) rotate(158.71)"><tspan x="0" y="0">L</tspan></text>
  <text class="cls-1" transform="translate(154.28 202.21) rotate(159.91)"><tspan x="0" y="0">o</tspan></text>
  <text class="cls-1" transform="translate(152.42 202.89) rotate(161.09)"><tspan x="0" y="0">r</tspan></text>
  <text class="cls-1" transform="translate(151.08 203.35) rotate(162.28)"><tspan x="0" y="0">e</tspan></text>
  <text class="cls-1" transform="translate(149.24 203.95) rotate(163.99)"><tspan x="0" y="0">m</tspan></text>
  <text class="cls-1" transform="translate(146.39 204.76) rotate(165.39)"><tspan x="0" y="0"> </tspan></text>
  <text class="cls-1" transform="translate(145.35 205.03) rotate(166.16)"><tspan x="0" y="0">I</tspan></text>
  <text class="cls-1" transform="translate(144.27 205.3) rotate(167.25)"><tspan x="0" y="0">p</tspan></text>
  <text class="cls-1" transform="translate(142.33 205.73) rotate(168.49)"><tspan x="0" y="0">s</tspan></text>
  <text class="cls-1" transform="translate(140.77 206.06) rotate(169.74)"><tspan x="0" y="0">u</tspan></text>
  <text class="cls-1" transform="translate(138.79 206.42) rotate(171.47)"><tspan x="0" y="0">m</tspan></text>
  <text class="cls-1" transform="translate(135.85 206.85) rotate(172.88)"><tspan x="0" y="0"> </tspan></text>
  <text class="cls-1" transform="translate(134.76 206.99) rotate(173.78)"><tspan x="0" y="0">L</tspan></text>
  <text class="cls-1" transform="translate(133.28 207.15) rotate(174.99)"><tspan x="0" y="0">o</tspan></text>
  <text class="cls-1" transform="translate(131.32 207.32) rotate(176.15)"><tspan x="0" y="0">r</tspan></text>
  <text class="cls-1" transform="translate(129.93 207.42) rotate(177.31)"><tspan x="0" y="0">e</tspan></text>
  <text class="cls-1" transform="translate(127.96 207.52) rotate(179.02)"><tspan x="0" y="0">m</tspan></text>
  <text class="cls-1" transform="translate(125 207.56) rotate(-179.59)"><tspan x="0" y="0"> </tspan></text>
  <text class="cls-1" transform="translate(123.93 207.55) rotate(-178.84)"><tspan x="0" y="0">I</tspan></text>
  <text class="cls-1" transform="translate(122.84 207.53) rotate(-177.77)"><tspan x="0" y="0">p</tspan></text>
  <text class="cls-1" transform="translate(120.84 207.45) rotate(-176.54)"><tspan x="0" y="0">s</tspan></text>
  <text class="cls-1" transform="translate(119.23 207.36) rotate(-175.28)"><tspan x="0" y="0">u</tspan></text>
  <text class="cls-1" transform="translate(117.24 207.2) rotate(-173.57)"><tspan x="0" y="0">m</tspan></text>
  <text class="cls-1" transform="translate(114.27 206.85) rotate(-172.16)"><tspan x="0" y="0"> </tspan></text>
  <text class="cls-1" transform="translate(113.22 206.71) rotate(-171.28)"><tspan x="0" y="0">L</tspan></text>
  <text class="cls-1" transform="translate(111.74 206.49) rotate(-170.09)"><tspan x="0" y="0">o</tspan></text>
  <text class="cls-1" transform="translate(109.81 206.15) rotate(-168.93)"><tspan x="0" y="0">r</tspan></text>
  <text class="cls-1" transform="translate(108.41 205.88) rotate(-167.76)"><tspan x="0" y="0">e</tspan></text>
  <text class="cls-1" transform="translate(106.52 205.47) rotate(-166.06)"><tspan x="0" y="0">m</tspan></text>
  <text class="cls-1" transform="translate(103.61 204.74) rotate(-164.65)"><tspan x="0" y="0"> </tspan></text>
  <text class="cls-1" transform="translate(102.58 204.46) rotate(-163.89)"><tspan x="0" y="0">I</tspan></text>
  <text class="cls-1" transform="translate(101.52 204.16) rotate(-162.82)"><tspan x="0" y="0">p</tspan></text>
  <text class="cls-1" transform="translate(99.6 203.56) rotate(-161.57)"><tspan x="0" y="0">s</tspan></text>
  <text class="cls-1" transform="translate(98.09 203.06) rotate(-160.31)"><tspan x="0" y="0">u</tspan></text>
  <text class="cls-1" transform="translate(96.19 202.39) rotate(-158.58)"><tspan x="0" y="0">m</tspan></text>
  <text class="cls-1" transform="translate(93.42 201.29) rotate(-157.17)"><tspan x="0" y="0"> </tspan></text>
  <text class="cls-1" transform="translate(92.44 200.88) rotate(-156.28)"><tspan x="0" y="0">L</tspan></text>
  <text class="cls-1" transform="translate(91.08 200.28) rotate(-155.08)"><tspan x="0" y="0">o</tspan></text>
  <text class="cls-1" transform="translate(89.29 199.45) rotate(-153.9)"><tspan x="0" y="0">r</tspan></text>
  <text class="cls-1" transform="translate(88.01 198.83) rotate(-152.72)"><tspan x="0" y="0">e</tspan></text>
  <text class="cls-1" transform="translate(86.29 197.95) rotate(-151)"><tspan x="0" y="0">m</tspan></text>
  <text class="cls-1" transform="translate(83.7 196.5) rotate(-149.59)"><tspan x="0" y="0"> </tspan></text>
  <text class="cls-1" transform="translate(82.78 195.96) rotate(-148.84)"><tspan x="0" y="0">I</tspan></text>
  <text class="cls-1" transform="translate(81.84 195.4) rotate(-147.76)"><tspan x="0" y="0">p</tspan></text>
  <text class="cls-1" transform="translate(80.14 194.32) rotate(-146.49)"><tspan x="0" y="0">s</tspan></text>
  <text class="cls-1" transform="translate(78.81 193.44) rotate(-145.22)"><tspan x="0" y="0">u</tspan></text>
  <text class="cls-1" transform="translate(77.15 192.3) rotate(-143.48)"><tspan x="0" y="0">m</tspan></text>
  <text class="cls-1" transform="translate(74.76 190.52) rotate(-141.92)"><tspan x="0" y="0">L</tspan></text>
  <text class="cls-1" transform="translate(73.59 189.6) rotate(-140.71)"><tspan x="0" y="0">o</tspan></text>
  <text class="cls-1" transform="translate(72.07 188.35) rotate(-139.54)"><tspan x="0" y="0">r</tspan></text>
  <text class="cls-1" transform="translate(71 187.44) rotate(-138.37)"><tspan x="0" y="0">e</tspan></text>
  <text class="cls-1" transform="translate(69.53 186.15) rotate(-136.65)"><tspan x="0" y="0">m</tspan></text>
  <text class="cls-1" transform="translate(67.38 184.1) rotate(-135.25)"><tspan x="0" y="0"> </tspan></text>
  <text class="cls-1" transform="translate(66.62 183.35) rotate(-134.51)"><tspan x="0" y="0">I</tspan></text>
  <text class="cls-1" transform="translate(65.83 182.55) rotate(-133.42)"><tspan x="0" y="0">p</tspan></text>
  <text class="cls-1" transform="translate(64.47 181.11) rotate(-132.2)"><tspan x="0" y="0">s</tspan></text>
  <text class="cls-1" transform="translate(63.39 179.92) rotate(-130.95)"><tspan x="0" y="0">u</tspan></text>
  <text class="cls-1" transform="translate(62.07 178.43) rotate(-128.71)"><tspan x="0" y="0">m</tspan></text>
  <text class="cls-1" transform="translate(60.19 176.09) rotate(-127.73)"><tspan x="0" y="0">L</tspan></text>
  <text class="cls-1" transform="translate(59.28 174.93) rotate(-126.55)"><tspan x="0" y="0">o</tspan></text>
  <text class="cls-1" transform="translate(58.11 173.34) rotate(-125.4)"><tspan x="0" y="0">r</tspan></text>
  <text class="cls-1" transform="translate(57.28 172.18) rotate(-124.22)"><tspan x="0" y="0">e</tspan></text>
  <text class="cls-1" transform="translate(56.19 170.59) rotate(-122.53)"><tspan x="0" y="0">m</tspan></text>
  <text class="cls-1" transform="translate(54.6 168.09) rotate(-121.13)"><tspan x="0" y="0"> </tspan></text>
  <text class="cls-1" transform="translate(54.04 167.16) rotate(-120.36)"><tspan x="0" y="0">I</tspan></text>
  <text class="cls-1" transform="translate(53.48 166.21) rotate(-119.28)"><tspan x="0" y="0">p</tspan></text>
  <text class="cls-1" transform="translate(52.5 164.46) rotate(-118.03)"><tspan x="0" y="0">s</tspan></text>
  <text class="cls-1" transform="translate(51.76 163.06) rotate(-116.77)"><tspan x="0" y="0">u</tspan></text>
  <text class="cls-1" transform="translate(50.84 161.27) rotate(-115.03)"><tspan x="0" y="0">m</tspan></text>
  <text class="cls-1" transform="translate(49.59 158.57) rotate(-113.47)"><tspan x="0" y="0">L</tspan></text>
  <text class="cls-1" transform="translate(48.99 157.19) rotate(-112.25)"><tspan x="0" y="0">o</tspan></text>
  <text class="cls-1" transform="translate(48.25 155.37) rotate(-111.07)"><tspan x="0" y="0">r</tspan></text>
  <text class="cls-1" transform="translate(47.73 154.04) rotate(-109.88)"><tspan x="0" y="0">e</tspan></text>
  <text class="cls-1" transform="translate(47.08 152.24) rotate(-108.18)"><tspan x="0" y="0">m</tspan></text>
  <text class="cls-1" transform="translate(46.15 149.39) rotate(-106.75)"><tspan x="0" y="0"> </tspan></text>
  <text class="cls-1" transform="translate(45.85 148.39) rotate(-106.01)"><tspan x="0" y="0">I</tspan></text>
  <text class="cls-1" transform="translate(45.54 147.32) rotate(-104.91)"><tspan x="0" y="0">p</tspan></text>
  <text class="cls-1" transform="translate(45.03 145.39) rotate(-103.67)"><tspan x="0" y="0">s</tspan></text>
  <text class="cls-1" transform="translate(44.65 143.84) rotate(-102.41)"><tspan x="0" y="0">u</tspan></text>
  <text class="cls-1" transform="translate(44.21 141.87) rotate(-100.67)"><tspan x="0" y="0">m</tspan></text>
  <text class="cls-1" transform="translate(43.66 138.94) rotate(-99.11)"><tspan x="0" y="0">L</tspan></text>
  <text class="cls-1" transform="translate(43.43 137.49) rotate(-97.92)"><tspan x="0" y="0">o</tspan></text>
  <text class="cls-1" transform="translate(43.16 135.53) rotate(-96.76)"><tspan x="0" y="0">r</tspan></text>
  <text class="cls-1" transform="translate(42.99 134.12) rotate(-95.57)"><tspan x="0" y="0">e</tspan></text>
  <text class="cls-1" transform="translate(42.79 132.19) rotate(-93.87)"><tspan x="0" y="0">m</tspan></text>
  <text class="cls-1" transform="translate(42.6 129.23) rotate(-92.48)"><tspan x="0" y="0"> </tspan></text>
  <text class="cls-1" transform="translate(42.56 128.13) rotate(-91.71)"><tspan x="0" y="0">I</tspan></text>
  <text class="cls-1" transform="translate(42.52 127.03) rotate(-90.64)"><tspan x="0" y="0">p</tspan></text>
  <text class="cls-1" transform="translate(42.5 125.03) rotate(-89.4)"><tspan x="0" y="0">s</tspan></text>
  <text class="cls-1" transform="translate(42.51 123.45) rotate(-88.16)"><tspan x="0" y="0">u</tspan></text>
  <text class="cls-1" transform="translate(42.57 121.42) rotate(-86.43)"><tspan x="0" y="0">m</tspan></text>
  <text class="cls-1" transform="translate(42.76 118.46) rotate(-84.89)"><tspan x="0" y="0">L</tspan></text>
  <text class="cls-1" transform="translate(42.89 116.97) rotate(-83.7)"><tspan x="0" y="0">o</tspan></text>
  <text class="cls-1" transform="translate(43.11 115.02) rotate(-82.54)"><tspan x="0" y="0">r</tspan></text>
  <text class="cls-1" transform="translate(43.3 113.61) rotate(-81.37)"><tspan x="0" y="0">e</tspan></text>
  <text class="cls-1" transform="translate(43.58 111.7) rotate(-79.68)"><tspan x="0" y="0">m</tspan></text>
  <text class="cls-1" transform="translate(44.12 108.79) rotate(-78.29)"><tspan x="0" y="0"> </tspan></text>
  <text class="cls-1" transform="translate(44.34 107.71) rotate(-77.52)"><tspan x="0" y="0">I</tspan></text>
  <text class="cls-1" transform="translate(44.58 106.64) rotate(-76.45)"><tspan x="0" y="0">p</tspan></text>
  <text class="cls-1" transform="translate(45.05 104.69) rotate(-75.2)"><tspan x="0" y="0">s</tspan></text>
  <text class="cls-1" transform="translate(45.45 103.16) rotate(-73.96)"><tspan x="0" y="0">u</tspan></text>
  <text class="cls-1" transform="translate(46 101.23) rotate(-72.24)"><tspan x="0" y="0">m</tspan></text>
  <text class="cls-1" transform="translate(46.92 98.39) rotate(-70.68)"><tspan x="0" y="0">L</tspan></text>
  <text class="cls-1" transform="translate(47.41 96.98) rotate(-69.47)"><tspan x="0" y="0">o</tspan></text>
  <text class="cls-1" transform="translate(48.09 95.16) rotate(-68.32)"><tspan x="0" y="0">r</tspan></text>
  <text class="cls-1" transform="translate(48.62 93.82) rotate(-67.13)"><tspan x="0" y="0">e</tspan></text>
  <text class="cls-1" transform="translate(49.36 92.04) rotate(-65.43)"><tspan x="0" y="0">m</tspan></text>
  <text class="cls-1" transform="translate(50.61 89.33) rotate(-64.01)"><tspan x="0" y="0"> </tspan></text>
  <text class="cls-1" transform="translate(51.09 88.36) rotate(-63.24)"><tspan x="0" y="0">I</tspan></text>
  <text class="cls-1" transform="translate(51.58 87.39) rotate(-62.17)"><tspan x="0" y="0">p</tspan></text>
  <text class="cls-1" transform="translate(52.51 85.62) rotate(-60.91)"><tspan x="0" y="0">s</tspan></text>
  <text class="cls-1" transform="translate(53.29 84.21) rotate(-59.63)"><tspan x="0" y="0">u</tspan></text>
  <text class="cls-1" transform="translate(54.31 82.46) rotate(-57.89)"><tspan x="0" y="0">m</tspan></text>
  <text class="cls-1" transform="translate(55.89 79.96) rotate(-56.34)"><tspan x="0" y="0">L</tspan></text>
  <text class="cls-1" transform="translate(56.7 78.73) rotate(-55.13)"><tspan x="0" y="0">o</tspan></text>
  <text class="cls-1" transform="translate(57.84 77.11) rotate(-53.95)"><tspan x="0" y="0">r</tspan></text>
  <text class="cls-1" transform="translate(58.67 75.97) rotate(-52.77)"><tspan x="0" y="0">e</tspan></text>
  <text class="cls-1" transform="translate(59.85 74.4) rotate(-51.04)"><tspan x="0" y="0">m</tspan></text>
  <text class="cls-1" transform="translate(61.72 72.1) rotate(-49.64)"><tspan x="0" y="0"> </tspan></text>
  <text class="cls-1" transform="translate(62.41 71.29) rotate(-48.89)"><tspan x="0" y="0">I</tspan></text>
  <text class="cls-1" transform="translate(63.13 70.46) rotate(-47.81)"><tspan x="0" y="0">p</tspan></text>
  <text class="cls-1" transform="translate(64.48 68.97) rotate(-46.55)"><tspan x="0" y="0">s</tspan></text>
  <text class="cls-1" transform="translate(65.58 67.81) rotate(-45.3)"><tspan x="0" y="0">u</tspan></text>
  <text class="cls-1" transform="translate(66.99 66.37) rotate(-43.58)"><tspan x="0" y="0">m</tspan></text>
  <text class="cls-1" transform="translate(69.14 64.34) rotate(-42.2)"><tspan x="0" y="0"> </tspan></text>
  <text class="cls-1" transform="translate(69.94 63.61) rotate(-41.31)"><tspan x="0" y="0">L</tspan></text>
  <text class="cls-1" transform="translate(71.06 62.63) rotate(-40.56)"><tspan x="0" y="0">o</tspan></text>
  <text class="cls-1" transform="translate(72.55 61.37) rotate(-38.71)"><tspan x="0" y="0">r</tspan></text>
  <text class="cls-1" transform="translate(73.65 60.48) rotate(-37.85)"><tspan x="0" y="0">e</tspan></text>
  <text class="cls-1" transform="translate(75.2 59.26) rotate(-36.14)"><tspan x="0" y="0">m</tspan></text>
  <text class="cls-1" transform="translate(77.59 57.53) rotate(-34.76)"><tspan x="0" y="0"> </tspan></text>
  <text class="cls-1" transform="translate(78.49 56.91) rotate(-34)"><tspan x="0" y="0">I</tspan></text>
  <text class="cls-1" transform="translate(79.39 56.3) rotate(-32.94)"><tspan x="0" y="0">p</tspan></text>
  <text class="cls-1" transform="translate(81.06 55.21) rotate(-31.69)"><tspan x="0" y="0">s</tspan></text>
  <text class="cls-1" transform="translate(82.42 54.37) rotate(-30.43)"><tspan x="0" y="0">u</tspan></text>
  <text class="cls-1" transform="translate(84.18 53.33) rotate(-28.68)"><tspan x="0" y="0">m</tspan></text>
  <text class="cls-1" transform="translate(86.76 51.93) rotate(-27.29)"><tspan x="0" y="0"> </tspan></text>
  <text class="cls-1" transform="translate(87.74 51.42) rotate(-26.37)"><tspan x="0" y="0">L</tspan></text>
  <text class="cls-1" transform="translate(89.07 50.76) rotate(-25.16)"><tspan x="0" y="0">o</tspan></text>
  <text class="cls-1" transform="translate(90.84 49.94) rotate(-24)"><tspan x="0" y="0">r</tspan></text>
  <text class="cls-1" transform="translate(92.15 49.35) rotate(-22.8)"><tspan x="0" y="0">e</tspan></text>
  <text class="cls-1" transform="translate(93.92 48.6) rotate(-21.1)"><tspan x="0" y="0">m</tspan></text>
  <text class="cls-1" transform="translate(96.7 47.54) rotate(-19.68)"><tspan x="0" y="0"> </tspan></text>
  <text class="cls-1" transform="translate(97.72 47.17) rotate(-18.91)"><tspan x="0" y="0">I</tspan></text>
  <text class="cls-1" transform="translate(98.75 46.81) rotate(-17.83)"><tspan x="0" y="0">p</tspan></text>
  <text class="cls-1" transform="translate(100.65 46.2) rotate(-16.58)"><tspan x="0" y="0">s</tspan></text>
  <text class="cls-1" transform="translate(102.19 45.74) rotate(-15.31)"><tspan x="0" y="0">u</tspan></text>
  <text class="cls-1" transform="translate(104.15 45.2) rotate(-13.56)"><tspan x="0" y="0">m</tspan></text>
  <text class="cls-1" transform="translate(107.02 44.52) rotate(-12.17)"><tspan x="0" y="0"> </tspan></text>
  <text class="cls-1" transform="translate(108.06 44.29) rotate(-11.28)"><tspan x="0" y="0">L</tspan></text>
  <text class="cls-1" transform="translate(109.54 43.99) rotate(-10.06)"><tspan x="0" y="0">o</tspan></text>
  <text class="cls-1" transform="translate(111.48 43.65) rotate(-8.89)"><tspan x="0" y="0">r</tspan></text>
  <text class="cls-1" transform="translate(112.89 43.43) rotate(-7.71)"><tspan x="0" y="0">e</tspan></text>
  <text class="cls-1" transform="translate(114.82 43.16) rotate(-6)"><tspan x="0" y="0">m</tspan></text>
  <text class="cls-1" transform="translate(117.77 42.86) rotate(-4.6)"><tspan x="0" y="0"> </tspan></text>
  <text class="cls-1" transform="translate(118.84 42.78) rotate(-3.85)"><tspan x="0" y="0">I</tspan></text>
  <text class="cls-1" transform="translate(119.93 42.7) rotate(-2.78)"><tspan x="0" y="0">p</tspan></text>
  <text class="cls-1" transform="translate(121.93 42.6) rotate(-1.54)"><tspan x="0" y="0">s</tspan></text>
  <text class="cls-1" transform="translate(123.51 42.56) rotate(-.3)"><tspan x="0" y="0">u</tspan></text>
  <text class="cls-1" transform="translate(125.54 42.54) rotate(1.43)"><tspan x="0" y="0">m</tspan></text>
  <text class="cls-1" transform="translate(128.51 42.62) rotate(2.97)"><tspan x="0" y="0">L</tspan></text>
  <text class="cls-1" transform="translate(130 42.7) rotate(4.17)"><tspan x="0" y="0">o</tspan></text>
  <text class="cls-1" transform="translate(131.96 42.84) rotate(5.32)"><tspan x="0" y="0">r</tspan></text>
  <text class="cls-1" transform="translate(133.37 42.97) rotate(6.49)"><tspan x="0" y="0">e</tspan></text>
  <text class="cls-1" transform="translate(135.29 43.18) rotate(8.18)"><tspan x="0" y="0">m</tspan></text>
  <text class="cls-1" transform="translate(138.25 43.62) rotate(9.59)"><tspan x="0" y="0"> </tspan></text>
  <text class="cls-1" transform="translate(139.31 43.8) rotate(10.34)"><tspan x="0" y="0">I</tspan></text>
  <text class="cls-1" transform="translate(140.39 43.99) rotate(11.41)"><tspan x="0" y="0">p</tspan></text>
  <text class="cls-1" transform="translate(142.35 44.39) rotate(12.65)"><tspan x="0" y="0">s</tspan></text>
  <text class="cls-1" transform="translate(143.89 44.73) rotate(13.89)"><tspan x="0" y="0">u</tspan></text>
  <text class="cls-1" transform="translate(145.87 45.22) rotate(15.63)"><tspan x="0" y="0">m</tspan></text>
  <text class="cls-1" transform="translate(148.71 46.02) rotate(17.16)"><tspan x="0" y="0">L</tspan></text>
  <text class="cls-1" transform="translate(150.14 46.46) rotate(18.37)"><tspan x="0" y="0">o</tspan></text>
  <text class="cls-1" transform="translate(152.01 47.08) rotate(19.53)"><tspan x="0" y="0">r</tspan></text>
  <text class="cls-1" transform="translate(153.36 47.56) rotate(20.72)"><tspan x="0" y="0">e</tspan></text>
  <text class="cls-1" transform="translate(155.16 48.23) rotate(22.42)"><tspan x="0" y="0">m</tspan></text>
  <text class="cls-1" transform="translate(157.91 49.38) rotate(23.83)"><tspan x="0" y="0"> </tspan></text>
  <text class="cls-1" transform="translate(158.9 49.81) rotate(24.59)"><tspan x="0" y="0">I</tspan></text>
  <text class="cls-1" transform="translate(159.91 50.27) rotate(25.69)"><tspan x="0" y="0">p</tspan></text>
  <text class="cls-1" transform="translate(161.7 51.14) rotate(26.93)"><tspan x="0" y="0">s</tspan></text>
  <text class="cls-1" transform="translate(163.14 51.86) rotate(28.2)"><tspan x="0" y="0">u</tspan></text>
  <text class="cls-1" transform="translate(164.91 52.81) rotate(29.95)"><tspan x="0" y="0">m</tspan></text>
  <text class="cls-1" transform="translate(167.48 54.3) rotate(31.36)"><tspan x="0" y="0"> </tspan></text>
  <text class="cls-1" transform="translate(168.4 54.86) rotate(32.11)"><tspan x="0" y="0"> </tspan></text>
  <text class="cls-1" transform="translate(169.31 55.43) rotate(32.87)"><tspan x="0" y="0"> </tspan></text>
  <text class="cls-1" transform="translate(170.2 56.01) rotate(33.75)"><tspan x="0" y="0">L</tspan></text>
  <text class="cls-1" transform="translate(171.43 56.82) rotate(34.96)"><tspan x="0" y="0">o</tspan></text>
  <text class="cls-1" transform="translate(173.05 57.96) rotate(36.14)"><tspan x="0" y="0">r</tspan></text>
  <text class="cls-1" transform="translate(174.2 58.79) rotate(37.32)"><tspan x="0" y="0">e</tspan></text>
  <text class="cls-1" transform="translate(175.76 59.97) rotate(39.05)"><tspan x="0" y="0">m</tspan></text>
  <text class="cls-1" transform="translate(178.06 61.86) rotate(40.46)"><tspan x="0" y="0"> </tspan></text>
  <text class="cls-1" transform="translate(178.86 62.54) rotate(41.2)"><tspan x="0" y="0">I</tspan></text>
  <text class="cls-1" transform="translate(179.7 63.26) rotate(42.28)"><tspan x="0" y="0">p</tspan></text>
  <text class="cls-1" transform="translate(181.19 64.63) rotate(43.55)"><tspan x="0" y="0">s</tspan></text>
  <text class="cls-1" transform="translate(182.34 65.72) rotate(44.79)"><tspan x="0" y="0">u</tspan></text>
  <text class="cls-1" transform="translate(183.78 67.13) rotate(46.51)"><tspan x="0" y="0">m</tspan></text>
  <text class="cls-1" transform="translate(185.81 69.29) rotate(48.04)"><tspan x="0" y="0">L</tspan></text>
  <text class="cls-1" transform="translate(186.82 70.4) rotate(49.23)"><tspan x="0" y="0">o</tspan></text>
  <text class="cls-1" transform="translate(188.1 71.88) rotate(51.29)"><tspan x="0" y="0">r</tspan></text>
  <text class="cls-1" transform="translate(189 72.98) rotate(51.52)"><tspan x="0" y="0">e</tspan></text>
  <text class="cls-1" transform="translate(190.21 74.49) rotate(53.2)"><tspan x="0" y="0">m</tspan></text>
  <text class="cls-1" transform="translate(191.99 76.89) rotate(54.6)"><tspan x="0" y="0"> </tspan></text>
  <text class="cls-1" transform="translate(192.62 77.77) rotate(55.67)"><tspan x="0" y="0">p</tspan></text>
  <text class="cls-1" transform="translate(193.75 79.42) rotate(56.91)"><tspan x="0" y="0">s</tspan></text>
  <text class="cls-1" transform="translate(194.61 80.74) rotate(58.15)"><tspan x="0" y="0">u</tspan></text>
  <text class="cls-1" transform="translate(195.68 82.45) rotate(59.88)"><tspan x="0" y="0">m</tspan></text>
  <text class="cls-1" transform="translate(197.17 85.03) rotate(61.3)"><tspan x="0" y="0"> </tspan></text>
  <text class="cls-1" transform="translate(197.68 85.96) rotate(62.04)"><tspan x="0" y="0"> </tspan></text>
  <text class="cls-1" transform="translate(198.19 86.93) rotate(62.8)"><tspan x="0" y="0"> </tspan></text>
  <text class="cls-1" transform="translate(198.68 87.88) rotate(63.7)"><tspan x="0" y="0">L</tspan></text>
  <text class="cls-1" transform="translate(199.34 89.21) rotate(64.9)"><tspan x="0" y="0">o</tspan></text>
  <text class="cls-1" transform="translate(200.18 91) rotate(66.09)"><tspan x="0" y="0">r</tspan></text>
  <text class="cls-1" transform="translate(200.75 92.28) rotate(67.26)"><tspan x="0" y="0">e</tspan></text>
  <text class="cls-1" transform="translate(201.51 94.09) rotate(68.99)"><tspan x="0" y="0">m</tspan></text>
  <text class="cls-1" transform="translate(202.57 96.87) rotate(70.41)"><tspan x="0" y="0"> </tspan></text>
  <text class="cls-1" transform="translate(202.92 97.86) rotate(71.16)"><tspan x="0" y="0">I</tspan></text>
  <text class="cls-1" transform="translate(203.29 98.92) rotate(72.26)"><tspan x="0" y="0">p</tspan></text>
  <text class="cls-1" transform="translate(203.89 100.82) rotate(73.51)"><tspan x="0" y="0">s</tspan></text>
  <text class="cls-1" transform="translate(204.34 102.33) rotate(74.76)"><tspan x="0" y="0">u</tspan></text>
  <text class="cls-1" transform="translate(204.88 104.28) rotate(76.51)"><tspan x="0" y="0">m</tspan></text>
  <text class="cls-1" transform="translate(205.56 107.17) rotate(78.05)"><tspan x="0" y="0">L</tspan></text>
  <text class="cls-1" transform="translate(205.88 108.64) rotate(79.27)"><tspan x="0" y="0">o</tspan></text>
  <text class="cls-1" transform="translate(206.24 110.58) rotate(80.44)"><tspan x="0" y="0">r</tspan></text>
  <text class="cls-1" transform="translate(206.48 111.96) rotate(81.6)"><tspan x="0" y="0">e</tspan></text>
  <text class="cls-1" transform="translate(206.77 113.88) rotate(83.31)"><tspan x="0" y="0">m</tspan></text>
  <text class="cls-1" transform="translate(207.1 116.83) rotate(84.71)"><tspan x="0" y="0"> </tspan></text>
  <text class="cls-1" transform="translate(207.2 117.9) rotate(85.46)"><tspan x="0" y="0">I</tspan></text>
  <text class="cls-1" transform="translate(207.3 119.02) rotate(86.55)"><tspan x="0" y="0">p</tspan></text>
  <text class="cls-1" transform="translate(207.41 121.02) rotate(87.8)"><tspan x="0" y="0">s</tspan></text>
  <text class="cls-1" transform="translate(207.48 122.6) rotate(89.04)"><tspan x="0" y="0">u</tspan></text>
  <text class="cls-1" transform="translate(207.52 124.6) rotate(90.75)"><tspan x="0" y="0">m</tspan></text>
  <text class="cls-1" transform="translate(207.47 127.57) rotate(92.29)"><tspan x="0" y="0">L</tspan></text>
  <text class="cls-1" transform="translate(207.41 129.06) rotate(93.49)"><tspan x="0" y="0">o</tspan></text>
  <text class="cls-1" transform="translate(207.29 131.05) rotate(94.66)"><tspan x="0" y="0">r</tspan></text>
  <text class="cls-1" transform="translate(207.18 132.44) rotate(95.81)"><tspan x="0" y="0">e</tspan></text>
  <text class="cls-1" transform="translate(206.99 134.39) rotate(97.52)"><tspan x="0" y="0">m</tspan></text>
  <text class="cls-1" transform="translate(206.59 137.33) rotate(98.91)"><tspan x="0" y="0"> </tspan></text>
  <text class="cls-1" transform="translate(206.43 138.38) rotate(99.85)"><tspan x="0" y="0">E</tspan></text>
  <text class="cls-1" transform="translate(206.14 140.02) rotate(101.11)"><tspan x="0" y="0">n</tspan></text>
  <text class="cls-1" transform="translate(205.76 141.98) rotate(102.5)"><tspan x="0" y="0">d</tspan></text>
</svg>