<?xml version="1.0" encoding="UTF-8"?>
<svg id="Layer_26" data-name="Layer 26" xmlns="http://www.w3.org/2000/svg" viewBox="0 0 250 250">
  <defs>
    <style>
      .cls-1 {
        font-family: Futura-Medium, Futura;
        font-weight: 500;
      }

      .cls-1, .cls-2 {
        fill: #231f20;
        font-size: 4.4px;
      }

      .cls-2 {
        font-family: Futura-CondensedExtraBold, Futura;
        font-weight: 700;
      }
    </style>
  </defs>
  <text class="cls-1" transform="translate(27.59 68.71) rotate(-58.95)"><tspan x="0" y="0">M</tspan></text>
  <text class="cls-1" transform="translate(29.77 65.11) rotate(-57.23)"><tspan x="0" y="0">a</tspan></text>
  <text class="cls-1" transform="translate(31.19 62.9) rotate(-55.97)"><tspan x="0" y="0">n</tspan></text>
  <text class="cls-1" transform="translate(32.49 60.98) rotate(-54.8)"><tspan x="0" y="0">y</tspan></text>
  <text class="cls-1" transform="translate(33.85 59.05) rotate(-53.86)"><tspan x="0" y="0"> </tspan></text>
  <text class="cls-1" transform="translate(34.65 57.95) rotate(-52.85)"><tspan x="0" y="0">o</tspan></text>
  <text class="cls-1" transform="translate(36.23 55.87) rotate(-51.85)"><tspan x="0" y="0">f</tspan></text>
  <text class="cls-1" transform="translate(37.04 54.85) rotate(-51.18)"><tspan x="0" y="0"> </tspan></text>
  <text class="cls-1" transform="translate(37.89 53.79) rotate(-50.52)"><tspan x="0" y="0">t</tspan></text>
  <text class="cls-1" transform="translate(38.7 52.8) rotate(-49.56)"><tspan x="0" y="0">h</tspan></text>
  <text class="cls-1" transform="translate(40.26 50.97) rotate(-48.32)"><tspan x="0" y="0">e</tspan></text>
  <text class="cls-1" transform="translate(41.87 49.16) rotate(-47.36)"><tspan x="0" y="0"> </tspan></text>
  <text class="cls-1" transform="translate(42.77 48.18) rotate(-46.4)"><tspan x="0" y="0">e</tspan></text>
  <text class="cls-1" transform="translate(44.39 46.48) rotate(-45.19)"><tspan x="0" y="0">x</tspan></text>
  <text class="cls-1" transform="translate(46.03 44.82) rotate(-43.95)"><tspan x="0" y="0">a</tspan></text>
  <text class="cls-1" transform="translate(47.92 42.99) rotate(-42.38)"><tspan x="0" y="0">m</tspan></text>
  <text class="cls-1" transform="translate(50.52 40.63) rotate(-40.8)"><tspan x="0" y="0">p</tspan></text>
  <text class="cls-1" transform="translate(52.51 38.92) rotate(-39.85)"><tspan x="0" y="0">l</tspan></text>
  <text class="cls-1" transform="translate(53.34 38.22) rotate(-38.94)"><tspan x="0" y="0">e</tspan></text>
  <text class="cls-1" transform="translate(55.23 36.7) rotate(-37.87)"><tspan x="0" y="0">s</tspan></text>
  <text class="cls-1" transform="translate(56.62 35.62) rotate(-37.07)"><tspan x="0" y="0"> </tspan></text>
  <text class="cls-1" transform="translate(57.69 34.81) rotate(-36.2)"><tspan x="0" y="0">c</tspan></text>
  <text class="cls-1" transform="translate(59.39 33.57) rotate(-35.38)"><tspan x="0" y="0">i</tspan></text>
  <text class="cls-1" transform="translate(60.26 32.95) rotate(-34.69)"><tspan x="0" y="0">r</tspan></text>
  <text class="cls-1" transform="translate(61.58 32.03) rotate(-33.75)"><tspan x="0" y="0">c</tspan></text>
  <text class="cls-1" transform="translate(63.31 30.88) rotate(-32.94)"><tspan x="0" y="0">l</tspan></text>
  <text class="cls-1" transform="translate(64.21 30.29) rotate(-32.05)"><tspan x="0" y="0">e</tspan></text>
  <text class="cls-1" transform="translate(66.27 29) rotate(-31.09)"><tspan x="0" y="0"> </tspan></text>
  <text class="cls-1" transform="translate(67.41 28.31) rotate(-30.08)"><tspan x="0" y="0">b</tspan></text>
  <text class="cls-1" transform="translate(69.69 26.99) rotate(-28.74)"><tspan x="0" y="0">a</tspan></text>
  <text class="cls-1" transform="translate(71.99 25.73) rotate(-27.54)"><tspan x="0" y="0">c</tspan></text>
  <text class="cls-1" transform="translate(73.94 24.72) rotate(-26.4)"><tspan x="0" y="0">k</tspan></text>
  <text class="cls-1" transform="translate(75.88 23.75) rotate(-25.51)"><tspan x="0" y="0"> </tspan></text>
  <text class="cls-1" transform="translate(77.1 23.17) rotate(-24.86)"><tspan x="0" y="0">t</tspan></text>
  <text class="cls-1" transform="translate(78.21 22.65) rotate(-23.88)"><tspan x="0" y="0">o</tspan></text>
  <text class="cls-1" transform="translate(80.62 21.59) rotate(-22.87)"><tspan x="0" y="0"> </tspan></text>
  <text class="cls-1" transform="translate(81.86 21.06) rotate(-21.91)"><tspan x="0" y="0">n</tspan></text>
  <text class="cls-1" transform="translate(84.08 20.17) rotate(-20.64)"><tspan x="0" y="0">o</tspan></text>
  <text class="cls-1" transform="translate(86.58 19.24) rotate(-19.66)"><tspan x="0" y="0">t</tspan></text>
  <text class="cls-1" transform="translate(87.7 18.84) rotate(-19.08)"><tspan x="0" y="0">i</tspan></text>
  <text class="cls-1" transform="translate(88.72 18.48) rotate(-18.14)"><tspan x="0" y="0">o</tspan></text>
  <text class="cls-1" transform="translate(91.2 17.66) rotate(-16.88)"><tspan x="0" y="0">n</tspan></text>
  <text class="cls-1" transform="translate(93.51 16.96) rotate(-15.81)"><tspan x="0" y="0">s</tspan></text>
  <text class="cls-1" transform="translate(95.22 16.48) rotate(-15.02)"><tspan x="0" y="0"> </tspan></text>
  <text class="cls-1" transform="translate(96.52 16.13) rotate(-14.23)"><tspan x="0" y="0">s</tspan></text>
  <text class="cls-1" transform="translate(98.23 15.7) rotate(-13.19)"><tspan x="0" y="0">u</tspan></text>
  <text class="cls-1" transform="translate(100.55 15.16) rotate(-12.17)"><tspan x="0" y="0">r</tspan></text>
  <text class="cls-1" transform="translate(102.22 14.8) rotate(-11.31)"><tspan x="0" y="0">r</tspan></text>
  <text class="cls-1" transform="translate(103.77 14.48) rotate(-10.25)"><tspan x="0" y="0">o</tspan></text>
  <text class="cls-1" transform="translate(106.37 14.01) rotate(-8.98)"><tspan x="0" y="0">u</tspan></text>
  <text class="cls-1" transform="translate(108.7 13.64) rotate(-7.78)"><tspan x="0" y="0">n</tspan></text>
  <text class="cls-1" transform="translate(111.07 13.32) rotate(-6.5)"><tspan x="0" y="0">d</tspan></text>
  <text class="cls-1" transform="translate(113.69 13.02) rotate(-5.56)"><tspan x="0" y="0">i</tspan></text>
  <text class="cls-1" transform="translate(114.78 12.91) rotate(-4.67)"><tspan x="0" y="0">n</tspan></text>
  <text class="cls-1" transform="translate(117.16 12.72) rotate(-3.4)"><tspan x="0" y="0">g</tspan></text>
  <text class="cls-1" transform="translate(119.78 12.57) rotate(-2.39)"><tspan x="0" y="0"> </tspan></text>
  <text class="cls-1" transform="translate(121.13 12.51) rotate(-1.74)"><tspan x="0" y="0">t</tspan></text>
  <text class="cls-1" transform="translate(122.39 12.47) rotate(-.79)"><tspan x="0" y="0">h</tspan></text>
  <text class="cls-1" transform="translate(124.8 12.44) rotate(.45)"><tspan x="0" y="0">e</tspan></text>
  <text class="cls-1" transform="translate(127.21 12.46) rotate(1.4)"><tspan x="0" y="0"> </tspan></text>
  <text class="cls-1" transform="translate(128.57 12.49) rotate(2.42)"><tspan x="0" y="0">b</tspan></text>
  <text class="cls-1" transform="translate(131.16 12.6) rotate(3.75)"><tspan x="0" y="0">o</tspan></text>
  <text class="cls-1" transform="translate(133.8 12.77) rotate(5.1)"><tspan x="0" y="0">d</tspan></text>
  <text class="cls-1" transform="translate(136.39 13) rotate(6.37)"><tspan x="0" y="0">y</tspan></text>
  <text class="cls-1" transform="translate(138.57 13.25) rotate(7.23)"><tspan x="0" y="0">,</tspan></text>
  <text class="cls-1" transform="translate(139.93 13.42) rotate(7.93)"><tspan x="0" y="0"> </tspan></text>
  <text class="cls-1" transform="translate(141.25 13.59) rotate(9.14)"><tspan x="0" y="0">w</tspan></text>
  <text class="cls-1" transform="translate(144.59 14.13) rotate(10.62)"><tspan x="0" y="0">h</tspan></text>
  <text class="cls-1" transform="translate(146.95 14.58) rotate(11.51)"><tspan x="0" y="0">i</tspan></text>
  <text class="cls-1" transform="translate(148 14.79) rotate(12.32)"><tspan x="0" y="0">c</tspan></text>
  <text class="cls-1" transform="translate(150.15 15.26) rotate(13.53)"><tspan x="0" y="0">h</tspan></text>
  <text class="cls-1" transform="translate(152.5 15.83) rotate(14.5)"><tspan x="0" y="0"> </tspan></text>
  <text class="cls-1" transform="translate(153.8 16.17) rotate(15.12)"><tspan x="0" y="0">i</tspan></text>
  <text class="cls-1" transform="translate(154.84 16.45) rotate(16.02)"><tspan x="0" y="0">n</tspan></text>
  <text class="cls-1" transform="translate(157.15 17.11) rotate(16.98)"><tspan x="0" y="0"> </tspan></text>
  <text class="cls-1" transform="translate(158.42 17.5) rotate(17.99)"><tspan x="0" y="0">a</tspan></text>
  <text class="cls-1" transform="translate(160.92 18.31) rotate(19.01)"><tspan x="0" y="0"> </tspan></text>
  <text class="cls-1" transform="translate(162.2 18.75) rotate(19.88)"><tspan x="0" y="0">c</tspan></text>
  <text class="cls-1" transform="translate(164.16 19.46) rotate(20.69)"><tspan x="0" y="0">l</tspan></text>
  <text class="cls-1" transform="translate(165.17 19.84) rotate(21.64)"><tspan x="0" y="0">a</tspan></text>
  <text class="cls-1" transform="translate(167.6 20.81) rotate(22.76)"><tspan x="0" y="0">s</tspan></text>
  <text class="cls-1" transform="translate(169.24 21.49) rotate(23.66)"><tspan x="0" y="0">s</tspan></text>
  <text class="cls-1" transform="translate(170.86 22.2) rotate(24.38)"><tspan x="0" y="0">i</tspan></text>
  <text class="cls-1" transform="translate(171.87 22.66) rotate(25.2)"><tspan x="0" y="0">c</tspan></text>
  <text class="cls-1" transform="translate(173.74 23.54) rotate(26.06)"><tspan x="0" y="0"> </tspan></text>
  <text class="cls-1" transform="translate(174.95 24.12) rotate(27.17)"><tspan x="0" y="0">C</tspan></text>
  <text class="cls-1" transform="translate(177.67 25.53) rotate(28.59)"><tspan x="0" y="0">a</tspan></text>
  <text class="cls-1" transform="translate(179.98 26.79) rotate(29.07)"><tspan x="0" y="0">r</tspan></text>
  <text class="cls-1" transform="translate(181.54 27.67) rotate(30.93)"><tspan x="0" y="0">t</tspan></text>
  <text class="cls-1" transform="translate(182.59 28.29) rotate(31.36)"><tspan x="0" y="0">e</tspan></text>
  <text class="cls-1" transform="translate(184.66 29.55) rotate(32.41)"><tspan x="0" y="0">s</tspan></text>
  <text class="cls-1" transform="translate(186.16 30.51) rotate(33.14)"><tspan x="0" y="0">i</tspan></text>
  <text class="cls-1" transform="translate(187.08 31.1) rotate(34.08)"><tspan x="0" y="0">a</tspan></text>
  <text class="cls-1" transform="translate(189.25 32.57) rotate(35.35)"><tspan x="0" y="0">n</tspan></text>
  <text class="cls-1" transform="translate(191.2 33.96) rotate(36.3)"><tspan x="0" y="0"> </tspan></text>
  <text class="cls-1" transform="translate(192.28 34.75) rotate(37.09)"><tspan x="0" y="0">s</tspan></text>
  <text class="cls-1" transform="translate(193.69 35.81) rotate(38.15)"><tspan x="0" y="0">e</tspan></text>
  <text class="cls-1" transform="translate(195.6 37.32) rotate(39.39)"><tspan x="0" y="0">n</tspan></text>
  <text class="cls-1" transform="translate(197.44 38.83) rotate(40.44)"><tspan x="0" y="0">s</tspan></text>
  <text class="cls-1" transform="translate(198.8 39.98) rotate(41.52)"><tspan x="0" y="0">e</tspan></text>
  <text class="cls-1" transform="translate(200.61 41.59) rotate(42.49)"><tspan x="0" y="0"> </tspan></text>
  <text class="cls-1" transform="translate(201.61 42.51) rotate(43.11)"><tspan x="0" y="0">i</tspan></text>
  <text class="cls-1" transform="translate(202.39 43.23) rotate(43.84)"><tspan x="0" y="0">s</tspan></text>
  <text class="cls-1" transform="translate(203.67 44.47) rotate(44.64)"><tspan x="0" y="0"> </tspan></text>
  <text class="cls-1" transform="translate(204.64 45.43) rotate(45.3)"><tspan x="0" y="0">t</tspan></text>
  <text class="cls-1" transform="translate(205.53 46.32) rotate(46.26)"><tspan x="0" y="0">h</tspan></text>
  <text class="cls-1" transform="translate(207.2 48.06) rotate(47.5)"><tspan x="0" y="0">e</tspan></text>
  <text class="cls-1" transform="translate(208.81 49.83) rotate(48.45)"><tspan x="0" y="0"> </tspan></text>
  <text class="cls-1" transform="translate(209.71 50.84) rotate(49.34)"><tspan x="0" y="0">c</tspan></text>
  <text class="cls-1" transform="translate(211.08 52.42) rotate(50.55)"><tspan x="0" y="0">o</tspan></text>
  <text class="cls-1" transform="translate(212.75 54.45) rotate(51.84)"><tspan x="0" y="0">n</tspan></text>
  <text class="cls-1" transform="translate(214.21 56.33) rotate(52.75)"><tspan x="0" y="0">t</tspan></text>
  <text class="cls-1" transform="translate(214.98 57.32) rotate(53.76)"><tspan x="0" y="0">a</tspan></text>
  <text class="cls-1" transform="translate(216.51 59.43) rotate(54.7)"><tspan x="0" y="0">i</tspan></text>
  <text class="cls-1" transform="translate(217.15 60.32) rotate(55.6)"><tspan x="0" y="0">n</tspan></text>
  <text class="cls-1" transform="translate(218.5 62.3) rotate(56.83)"><tspan x="0" y="0">e</tspan></text>
  <text class="cls-1" transform="translate(219.82 64.32) rotate(57.86)"><tspan x="0" y="0">r</tspan></text>
  <text class="cls-1" transform="translate(220.6 65.56) rotate(58.54)"><tspan x="0" y="0">,</tspan></text>
  <text class="cls-1" transform="translate(221.3 66.7) rotate(59.22)"><tspan x="0" y="0"> </tspan></text>
  <text class="cls-1" transform="translate(221.99 67.86) rotate(59.87)"><tspan x="0" y="0">t</tspan></text>
  <text class="cls-1" transform="translate(222.64 68.97) rotate(60.83)"><tspan x="0" y="0">h</tspan></text>
  <text class="cls-1" transform="translate(223.81 71.07) rotate(62.06)"><tspan x="0" y="0">e</tspan></text>
  <text class="cls-1" transform="translate(224.94 73.2) rotate(63.01)"><tspan x="0" y="0"> </tspan></text>
  <text class="cls-1" transform="translate(225.55 74.4) rotate(64.02)"><tspan x="0" y="0">b</tspan></text>
  <text class="cls-1" transform="translate(226.7 76.75) rotate(65.35)"><tspan x="0" y="0">o</tspan></text>
  <text class="cls-1" transform="translate(227.79 79.13) rotate(66.62)"><tspan x="0" y="0">u</tspan></text>
  <text class="cls-1" transform="translate(228.74 81.33) rotate(67.84)"><tspan x="0" y="0">n</tspan></text>
  <text class="cls-1" transform="translate(229.64 83.54) rotate(69.11)"><tspan x="0" y="0">d</tspan></text>
  <text class="cls-1" transform="translate(230.58 85.98) rotate(70.43)"><tspan x="0" y="0">a</tspan></text>
  <text class="cls-1" transform="translate(231.45 88.46) rotate(71.51)"><tspan x="0" y="0">r</tspan></text>
  <text class="cls-1" transform="translate(231.96 89.97) rotate(72.57)"><tspan x="0" y="0">a</tspan></text>
  <text class="cls-1" transform="translate(232.76 92.52) rotate(73.86)"><tspan x="0" y="0">y</tspan></text>
  <text class="cls-1" transform="translate(233.37 94.62) rotate(74.7)"><tspan x="0" y="0">,</tspan></text>
  <text class="cls-1" transform="translate(233.72 95.92) rotate(75.38)"><tspan x="0" y="0"> </tspan></text>
  <text class="cls-1" transform="translate(234.06 97.22) rotate(76.03)"><tspan x="0" y="0">t</tspan></text>
  <text class="cls-1" transform="translate(234.38 98.47) rotate(76.99)"><tspan x="0" y="0">h</tspan></text>
  <text class="cls-1" transform="translate(234.91 100.79) rotate(78.25)"><tspan x="0" y="0">a</tspan></text>
  <text class="cls-1" transform="translate(235.45 103.37) rotate(79.22)"><tspan x="0" y="0">t</tspan></text>
  <text class="cls-1" transform="translate(235.67 104.54) rotate(79.86)"><tspan x="0" y="0"> </tspan></text>
  <text class="cls-1" transform="translate(235.91 105.88) rotate(80.88)"><tspan x="0" y="0">d</tspan></text>
  <text class="cls-1" transform="translate(236.32 108.44) rotate(82.14)"><tspan x="0" y="0">e</tspan></text>
  <text class="cls-1" transform="translate(236.65 110.86) rotate(83.04)"><tspan x="0" y="0">l</tspan></text>
  <text class="cls-1" transform="translate(236.78 111.93) rotate(83.58)"><tspan x="0" y="0">i</tspan></text>
  <text class="cls-1" transform="translate(236.91 113.02) rotate(84.48)"><tspan x="0" y="0">n</tspan></text>
  <text class="cls-1" transform="translate(237.14 115.39) rotate(85.69)"><tspan x="0" y="0">e</tspan></text>
  <text class="cls-1" transform="translate(237.32 117.8) rotate(86.97)"><tspan x="0" y="0">a</tspan></text>
  <text class="cls-1" transform="translate(237.46 120.42) rotate(87.94)"><tspan x="0" y="0">t</tspan></text>
  <text class="cls-1" transform="translate(237.51 121.65) rotate(88.88)"><tspan x="0" y="0">e</tspan></text>
  <text class="cls-1" transform="translate(237.55 124.07) rotate(89.95)"><tspan x="0" y="0">s</tspan></text>
  <text class="cls-1" transform="translate(237.55 125.86) rotate(90.75)"><tspan x="0" y="0"> </tspan></text>
  <text class="cls-1" transform="translate(237.53 127.19) rotate(91.39)"><tspan x="0" y="0">t</tspan></text>
  <text class="cls-1" transform="translate(237.51 128.48) rotate(92.36)"><tspan x="0" y="0">h</tspan></text>
  <text class="cls-1" transform="translate(237.41 130.85) rotate(93.58)"><tspan x="0" y="0">e</tspan></text>
  <text class="cls-1" transform="translate(237.25 133.28) rotate(94.55)"><tspan x="0" y="0"> </tspan></text>
  <text class="cls-1" transform="translate(237.14 134.62) rotate(95.17)"><tspan x="0" y="0">i</tspan></text>
  <text class="cls-1" transform="translate(237.05 135.71) rotate(96.07)"><tspan x="0" y="0">n</tspan></text>
  <text class="cls-1" transform="translate(236.8 138.09) rotate(97.29)"><tspan x="0" y="0">n</tspan></text>
  <text class="cls-1" transform="translate(236.5 140.47) rotate(98.52)"><tspan x="0" y="0">e</tspan></text>
  <text class="cls-1" transform="translate(236.13 142.85) rotate(99.56)"><tspan x="0" y="0">r</tspan></text>
  <text class="cls-1" transform="translate(235.86 144.48) rotate(100.33)"><tspan x="0" y="0"> </tspan></text>
  <text class="cls-1" transform="translate(235.62 145.79) rotate(101.13)"><tspan x="0" y="0">s</tspan></text>
  <text class="cls-1" transform="translate(235.28 147.53) rotate(102.19)"><tspan x="0" y="0">u</tspan></text>
  <text class="cls-1" transform="translate(234.78 149.86) rotate(103.48)"><tspan x="0" y="0">b</tspan></text>
  <text class="cls-1" transform="translate(234.17 152.4) rotate(104.6)"><tspan x="0" y="0">s</tspan></text>
  <text class="cls-1" transform="translate(233.71 154.13) rotate(105.37)"><tspan x="0" y="0">t</tspan></text>
  <text class="cls-1" transform="translate(233.4 155.31) rotate(106.36)"><tspan x="0" y="0">a</tspan></text>
  <text class="cls-1" transform="translate(232.66 157.83) rotate(107.65)"><tspan x="0" y="0">n</tspan></text>
  <text class="cls-1" transform="translate(231.93 160.11) rotate(108.79)"><tspan x="0" y="0">c</tspan></text>
  <text class="cls-1" transform="translate(231.27 162.07) rotate(109.94)"><tspan x="0" y="0">e</tspan></text>
  <text class="cls-1" transform="translate(230.43 164.35) rotate(110.91)"><tspan x="0" y="0"> </tspan></text>
  <text class="cls-1" transform="translate(229.96 165.61) rotate(111.92)"><tspan x="0" y="0">o</tspan></text>
  <text class="cls-1" transform="translate(228.98 168.03) rotate(112.91)"><tspan x="0" y="0">f</tspan></text>
  <text class="cls-1" transform="translate(228.47 169.24) rotate(113.59)"><tspan x="0" y="0"> </tspan></text>
  <text class="cls-1" transform="translate(227.93 170.47) rotate(114.23)"><tspan x="0" y="0">t</tspan></text>
  <text class="cls-1" transform="translate(227.4 171.65) rotate(115.2)"><tspan x="0" y="0">h</tspan></text>
  <text class="cls-1" transform="translate(226.39 173.81) rotate(116.41)"><tspan x="0" y="0">e</tspan></text>
  <text class="cls-1" transform="translate(225.3 175.98) rotate(117.36)"><tspan x="0" y="0"> </tspan></text>
  <text class="cls-1" transform="translate(224.69 177.17) rotate(118.14)"><tspan x="0" y="0">s</tspan></text>
  <text class="cls-1" transform="translate(223.86 178.73) rotate(119.07)"><tspan x="0" y="0">o</tspan></text>
  <text class="cls-1" transform="translate(222.58 181.03) rotate(120.93)"><tspan x="0" y="0">u</tspan></text>
  <text class="cls-1" transform="translate(221.36 183.09) rotate(121.36)"><tspan x="0" y="0">l</tspan></text>
  <text class="cls-1" transform="translate(220.79 184.02) rotate(121.97)"><tspan x="0" y="0">.</tspan></text>
  <text class="cls-1" transform="translate(220.07 185.16) rotate(122.65)"><tspan x="0" y="0"> </tspan></text>
  <text class="cls-1" transform="translate(219.36 186.29) rotate(123.64)"><tspan x="0" y="0">B</tspan></text>
  <text class="cls-1" transform="translate(217.92 188.45) rotate(124.91)"><tspan x="0" y="0">e</tspan></text>
  <text class="cls-1" transform="translate(216.54 190.43) rotate(126.05)"><tspan x="0" y="0">c</tspan></text>
  <text class="cls-1" transform="translate(215.31 192.12) rotate(127.24)"><tspan x="0" y="0">a</tspan></text>
  <text class="cls-1" transform="translate(213.74 194.19) rotate(128.51)"><tspan x="0" y="0">u</tspan></text>
  <text class="cls-1" transform="translate(212.25 196.05) rotate(129.57)"><tspan x="0" y="0">s</tspan></text>
  <text class="cls-1" transform="translate(211.12 197.43) rotate(130.64)"><tspan x="0" y="0">e</tspan></text>
  <text class="cls-1" transform="translate(209.54 199.26) rotate(131.61)"><tspan x="0" y="0"> </tspan></text>
  <text class="cls-1" transform="translate(208.66 200.27) rotate(132.82)"><tspan x="0" y="0">w</tspan></text>
  <text class="cls-1" transform="translate(206.4 202.7) rotate(134.27)"><tspan x="0" y="0">e</tspan></text>
  <text class="cls-1" transform="translate(204.71 204.42) rotate(135.23)"><tspan x="0" y="0"> </tspan></text>
  <text class="cls-1" transform="translate(203.76 205.37) rotate(135.86)"><tspan x="0" y="0">i</tspan></text>
  <text class="cls-1" transform="translate(202.98 206.13) rotate(136.81)"><tspan x="0" y="0">d</tspan></text>
  <text class="cls-1" transform="translate(201.06 207.93) rotate(138.11)"><tspan x="0" y="0">e</tspan></text>
  <text class="cls-1" transform="translate(199.27 209.54) rotate(139.34)"><tspan x="0" y="0">n</tspan></text>
  <text class="cls-1" transform="translate(197.44 211.11) rotate(140.27)"><tspan x="0" y="0">t</tspan></text>
  <text class="cls-1" transform="translate(196.52 211.87) rotate(140.85)"><tspan x="0" y="0">i</tspan></text>
  <text class="cls-1" transform="translate(195.69 212.55) rotate(141.45)"><tspan x="0" y="0">f</tspan></text>
  <text class="cls-1" transform="translate(194.67 213.36) rotate(142.4)"><tspan x="0" y="0">y</tspan></text>
  <text class="cls-1" transform="translate(192.78 214.81) rotate(143.35)"><tspan x="0" y="0"> </tspan></text>
  <text class="cls-1" transform="translate(191.71 215.62) rotate(144.37)"><tspan x="0" y="0">a</tspan></text>
  <text class="cls-1" transform="translate(189.59 217.13) rotate(145.49)"><tspan x="0" y="0">s</tspan></text>
  <text class="cls-1" transform="translate(188.11 218.15) rotate(146.29)"><tspan x="0" y="0"> </tspan></text>
  <text class="cls-1" transform="translate(186.99 218.9) rotate(147.25)"><tspan x="0" y="0">h</tspan></text>
  <text class="cls-1" transform="translate(184.98 220.2) rotate(148.53)"><tspan x="0" y="0">a</tspan></text>
  <text class="cls-1" transform="translate(182.71 221.58) rotate(149.78)"><tspan x="0" y="0">v</tspan></text>
  <text class="cls-1" transform="translate(180.82 222.68) rotate(150.61)"><tspan x="0" y="0">i</tspan></text>
  <text class="cls-1" transform="translate(179.87 223.21) rotate(151.5)"><tspan x="0" y="0">n</tspan></text>
  <text class="cls-1" transform="translate(177.78 224.36) rotate(152.77)"><tspan x="0" y="0">g</tspan></text>
  <text class="cls-1" transform="translate(175.44 225.55) rotate(153.78)"><tspan x="0" y="0"> </tspan></text>
  <text class="cls-1" transform="translate(174.23 226.16) rotate(154.79)"><tspan x="0" y="0">a</tspan></text>
  <text class="cls-1" transform="translate(171.87 227.26) rotate(156.06)"><tspan x="0" y="0">n</tspan></text>
  <text class="cls-1" transform="translate(169.67 228.24) rotate(157.02)"><tspan x="0" y="0"> </tspan></text>
  <text class="cls-2" transform="translate(168.43 228.77) rotate(157.97)"><tspan x="0" y="0">o</tspan></text>
  <text class="cls-2" transform="translate(166.19 229.68) rotate(159.21)"><tspan x="0" y="0">u</tspan></text>
  <text class="cls-2" transform="translate(163.89 230.54) rotate(160.21)"><tspan x="0" y="0">t</tspan></text>
  <text class="cls-2" transform="translate(162.47 231.06) rotate(161.2)"><tspan x="0" y="0">e</tspan></text>
  <text class="cls-2" transform="translate(160.22 231.82) rotate(162.22)"><tspan x="0" y="0">r</tspan></text>
  <text class="cls-2" transform="translate(158.59 232.34) rotate(162.99)"><tspan x="0" y="0"> </tspan></text>
  <text class="cls-2" transform="translate(157.33 232.73) rotate(163.82)"><tspan x="0" y="0">s</tspan></text>
  <text class="cls-2" transform="translate(155.45 233.28) rotate(164.93)"><tspan x="0" y="0">h</tspan></text>
  <text class="cls-2" transform="translate(153.13 233.9) rotate(166.14)"><tspan x="0" y="0">e</tspan></text>
  <text class="cls-2" transform="translate(150.81 234.47) rotate(167.06)"><tspan x="0" y="0">l</tspan></text>
  <text class="cls-2" transform="translate(149.6 234.75) rotate(167.69)"><tspan x="0" y="0">l</tspan></text>
  <text class="cls-1" transform="translate(148.37 235.02) rotate(168.35)"><tspan x="0" y="0"> </tspan></text>
  <text class="cls-1" transform="translate(147.06 235.29) rotate(169.36)"><tspan x="0" y="0">a</tspan></text>
  <text class="cls-1" transform="translate(144.48 235.78) rotate(170.63)"><tspan x="0" y="0">n</tspan></text>
  <text class="cls-1" transform="translate(142.11 236.17) rotate(171.9)"><tspan x="0" y="0">d</tspan></text>
  <text class="cls-1" transform="translate(139.51 236.54) rotate(172.91)"><tspan x="0" y="0"> </tspan></text>
  <text class="cls-1" transform="translate(138.16 236.7) rotate(173.53)"><tspan x="0" y="0">i</tspan></text>
  <text class="cls-1" transform="translate(137.1 236.83) rotate(174.41)"><tspan x="0" y="0">n</tspan></text>
  <text class="cls-1" transform="translate(134.7 237.06) rotate(175.63)"><tspan x="0" y="0">n</tspan></text>
  <text class="cls-1" transform="translate(132.32 237.24) rotate(176.85)"><tspan x="0" y="0">e</tspan></text>
  <text class="cls-1" transform="translate(129.92 237.37) rotate(177.87)"><tspan x="0" y="0">r</tspan></text>
  <text class="cls-1" transform="translate(128.27 237.43) rotate(178.64)"><tspan x="0" y="0"> </tspan></text>
  <text class="cls-1" transform="translate(126.92 237.47) rotate(179.51)"><tspan x="0" y="0">c</tspan></text>
  <text class="cls-1" transform="translate(124.86 237.49) rotate(-179.3)"><tspan x="0" y="0">o</tspan></text>
  <text class="cls-1" transform="translate(122.22 237.45) rotate(-178.2)"><tspan x="0" y="0">r</tspan></text>
  <text class="cls-1" transform="translate(120.63 237.41) rotate(-177.19)"><tspan x="0" y="0">e</tspan></text>
  <text class="cls-1" transform="translate(118.2 237.28) rotate(-176.22)"><tspan x="0" y="0">,</tspan></text>
  <text class="cls-1" transform="translate(116.86 237.19) rotate(-175.53)"><tspan x="0" y="0"> </tspan></text>
  <text class="cls-1" transform="translate(115.52 237.1) rotate(-174.32)"><tspan x="0" y="0">w</tspan></text>
  <text class="cls-1" transform="translate(112.21 236.76) rotate(-172.86)"><tspan x="0" y="0">e</tspan></text>
  <text class="cls-1" transform="translate(109.8 236.46) rotate(-171.9)"><tspan x="0" y="0"> </tspan></text>
  <text class="cls-1" transform="translate(108.48 236.28) rotate(-170.88)"><tspan x="0" y="0">p</tspan></text>
  <text class="cls-1" transform="translate(105.89 235.86) rotate(-169.79)"><tspan x="0" y="0">r</tspan></text>
  <text class="cls-1" transform="translate(104.33 235.58) rotate(-168.72)"><tspan x="0" y="0">o</tspan></text>
  <text class="cls-1" transform="translate(101.75 235.06) rotate(-167.77)"><tspan x="0" y="0">j</tspan></text>
  <text class="cls-1" transform="translate(100.69 234.83) rotate(-166.87)"><tspan x="0" y="0">e</tspan></text>
  <text class="cls-1" transform="translate(98.33 234.28) rotate(-165.71)"><tspan x="0" y="0">c</tspan></text>
  <text class="cls-1" transform="translate(96.32 233.77) rotate(-164.88)"><tspan x="0" y="0">t</tspan></text>
  <text class="cls-1" transform="translate(95.16 233.45) rotate(-164.22)"><tspan x="0" y="0"> </tspan></text>
  <text class="cls-1" transform="translate(93.87 233.09) rotate(-163.57)"><tspan x="0" y="0">t</tspan></text>
  <text class="cls-1" transform="translate(92.63 232.73) rotate(-162.6)"><tspan x="0" y="0">h</tspan></text>
  <text class="cls-1" transform="translate(90.35 232.02) rotate(-161.32)"><tspan x="0" y="0">a</tspan></text>
  <text class="cls-1" transform="translate(87.87 231.17) rotate(-160.34)"><tspan x="0" y="0">t</tspan></text>
  <text class="cls-1" transform="translate(86.74 230.77) rotate(-159.69)"><tspan x="0" y="0"> </tspan></text>
  <text class="cls-1" transform="translate(85.48 230.3) rotate(-159.07)"><tspan x="0" y="0">i</tspan></text>
  <text class="cls-1" transform="translate(84.47 229.92) rotate(-158.13)"><tspan x="0" y="0">d</tspan></text>
  <text class="cls-1" transform="translate(82.03 228.94) rotate(-156.84)"><tspan x="0" y="0">e</tspan></text>
  <text class="cls-1" transform="translate(79.81 227.99) rotate(-155.62)"><tspan x="0" y="0">n</tspan></text>
  <text class="cls-1" transform="translate(77.64 227) rotate(-154.71)"><tspan x="0" y="0">t</tspan></text>
  <text class="cls-1" transform="translate(76.53 226.48) rotate(-154.13)"><tspan x="0" y="0">i</tspan></text>
  <text class="cls-1" transform="translate(75.58 226.02) rotate(-153.54)"><tspan x="0" y="0">f</tspan></text>
  <text class="cls-1" transform="translate(74.32 225.39) rotate(-152.88)"><tspan x="0" y="0">i</tspan></text>
  <text class="cls-1" transform="translate(73.36 224.9) rotate(-152.09)"><tspan x="0" y="0">c</tspan></text>
  <text class="cls-1" transform="translate(71.52 223.93) rotate(-150.93)"><tspan x="0" y="0">a</tspan></text>
  <text class="cls-1" transform="translate(69.22 222.66) rotate(-149.07)"><tspan x="0" y="0">t</tspan><tspan x="1.19" y="-.01">i</tspan></text>
  <text class="cls-1" transform="translate(67.26 221.51) rotate(-148.46)"><tspan x="0" y="0">o</tspan></text>
  <text class="cls-1" transform="translate(65.01 220.12) rotate(-147.19)"><tspan x="0" y="0">n</tspan></text>
  <text class="cls-1" transform="translate(63 218.82) rotate(-146.25)"><tspan x="0" y="0"> </tspan></text>
  <text class="cls-1" transform="translate(61.88 218.08) rotate(-145.24)"><tspan x="0" y="0">o</tspan></text>
  <text class="cls-1" transform="translate(59.73 216.59) rotate(-143.98)"><tspan x="0" y="0">n</tspan></text>
  <text class="cls-1" transform="translate(57.79 215.17) rotate(-143.06)"><tspan x="0" y="0">t</tspan></text>
  <text class="cls-1" transform="translate(56.82 214.45) rotate(-142.08)"><tspan x="0" y="0">o</tspan></text>
  <text class="cls-1" transform="translate(54.75 212.83) rotate(-141.07)"><tspan x="0" y="0"> </tspan></text>
  <text class="cls-1" transform="translate(53.69 211.98) rotate(-140.1)"><tspan x="0" y="0">e</tspan></text>
  <text class="cls-1" transform="translate(51.88 210.47) rotate(-138.95)"><tspan x="0" y="0">v</tspan></text>
  <text class="cls-1" transform="translate(50.28 209.08) rotate(-137.81)"><tspan x="0" y="0">e</tspan></text>
  <text class="cls-1" transform="translate(48.5 207.46) rotate(-136.78)"><tspan x="0" y="0">r</tspan></text>
  <text class="cls-1" transform="translate(47.17 206.21) rotate(-135.65)"><tspan x="0" y="0">y</tspan></text>
  <text class="cls-1" transform="translate(45.48 204.55) rotate(-134.74)"><tspan x="0" y="0">t</tspan></text>
  <text class="cls-1" transform="translate(44.57 203.64) rotate(-133.77)"><tspan x="0" y="0">h</tspan></text>
  <text class="cls-1" transform="translate(42.92 201.91) rotate(-132.88)"><tspan x="0" y="0">i</tspan></text>
  <text class="cls-1" transform="translate(42.17 201.11) rotate(-131.98)"><tspan x="0" y="0">n</tspan></text>
  <text class="cls-1" transform="translate(40.56 199.32) rotate(-130.68)"><tspan x="0" y="0">g</tspan></text>
  <text class="cls-1" transform="translate(38.86 197.33) rotate(-129.67)"><tspan x="0" y="0">.</tspan></text>
</svg>