<?xml version="1.0" encoding="UTF-8"?>
<svg id="Layer_8_2" data-name="Layer 8_2" xmlns="http://www.w3.org/2000/svg" viewBox="0 0 250 250">
  <defs>
    <style>
      .cls-1 {
        fill: #231f20;
        font-family: Futura-Medium, Futura;
        font-size: 2.6px;
        font-weight: 500;
      }
    </style>
  </defs>
  <text class="cls-1" transform="translate(140.11 167.37) rotate(162.03)"><tspan x="0" y="0">W</tspan></text>
  <text class="cls-1" transform="translate(137.67 168.16) rotate(164.43)"><tspan x="0" y="0">e</tspan></text>
  <text class="cls-1" transform="translate(136.29 168.53) rotate(165.83)"><tspan x="0" y="0"> </tspan></text>
  <text class="cls-1" transform="translate(135.52 168.73) rotate(167.33)"><tspan x="0" y="0">o</tspan></text>
  <text class="cls-1" transform="translate(134 169.07) rotate(168.81)"><tspan x="0" y="0">f</tspan></text>
  <text class="cls-1" transform="translate(133.15 169.24) rotate(169.87)"><tspan x="0" y="0">t</tspan></text>
  <text class="cls-1" transform="translate(132.44 169.37) rotate(171.26)"><tspan x="0" y="0">e</tspan></text>
  <text class="cls-1" transform="translate(131.03 169.59) rotate(173.08)"><tspan x="0" y="0">n</tspan></text>
  <text class="cls-1" transform="translate(129.61 169.75) rotate(174.51)"><tspan x="0" y="0"> </tspan></text>
  <text class="cls-1" transform="translate(128.83 169.83) rotate(175.63)"><tspan x="0" y="0">r</tspan></text>
  <text class="cls-1" transform="translate(127.89 169.91) rotate(177.14)"><tspan x="0" y="0">e</tspan></text>
  <text class="cls-1" transform="translate(126.46 169.98) rotate(179.05)"><tspan x="0" y="0">q</tspan></text>
  <text class="cls-1" transform="translate(124.9 170) rotate(-179.03)"><tspan x="0" y="0">u</tspan></text>
  <text class="cls-1" transform="translate(123.5 169.98) rotate(-177.73)"><tspan x="0" y="0">i</tspan></text>
  <text class="cls-1" transform="translate(122.84 169.95) rotate(-176.68)"><tspan x="0" y="0">r</tspan></text>
  <text class="cls-1" transform="translate(121.91 169.9) rotate(-175.19)"><tspan x="0" y="0">e</tspan></text>
  <text class="cls-1" transform="translate(120.47 169.77) rotate(-173.75)"><tspan x="0" y="0"> </tspan></text>
  <text class="cls-1" transform="translate(119.71 169.69) rotate(-172.49)"><tspan x="0" y="0">c</tspan></text>
  <text class="cls-1" transform="translate(118.48 169.54) rotate(-170.7)"><tspan x="0" y="0">o</tspan></text>
  <text class="cls-1" transform="translate(116.94 169.28) rotate(-168.8)"><tspan x="0" y="0">n</tspan></text>
  <text class="cls-1" transform="translate(115.56 169) rotate(-167.46)"><tspan x="0" y="0">t</tspan></text>
  <text class="cls-1" transform="translate(114.85 168.85) rotate(-166.08)"><tspan x="0" y="0">e</tspan></text>
  <text class="cls-1" transform="translate(113.51 168.52) rotate(-164.32)"><tspan x="0" y="0">x</tspan></text>
  <text class="cls-1" transform="translate(112.12 168.12) rotate(-162.95)"><tspan x="0" y="0">t</tspan></text>
  <text class="cls-1" transform="translate(111.45 167.92) rotate(-162)"><tspan x="0" y="0"> </tspan></text>
  <text class="cls-1" transform="translate(110.69 167.68) rotate(-160.72)"><tspan x="0" y="0">c</tspan></text>
  <text class="cls-1" transform="translate(109.54 167.27) rotate(-159.54)"><tspan x="0" y="0">l</tspan></text>
  <text class="cls-1" transform="translate(108.93 167.05) rotate(-158.24)"><tspan x="0" y="0">u</tspan></text>
  <text class="cls-1" transform="translate(107.62 166.53) rotate(-156.45)"><tspan x="0" y="0">e</tspan></text>
  <text class="cls-1" transform="translate(106.34 165.96) rotate(-154.91)"><tspan x="0" y="0">s</tspan></text>
  <text class="cls-1" transform="translate(105.37 165.51) rotate(-153.71)"><tspan x="0" y="0"> </tspan></text>
  <text class="cls-1" transform="translate(104.66 165.16) rotate(-152.82)"><tspan x="0" y="0">i</tspan></text>
  <text class="cls-1" transform="translate(104.11 164.88) rotate(-151.54)"><tspan x="0" y="0">n</tspan></text>
  <text class="cls-1" transform="translate(102.85 164.19) rotate(-150.12)"><tspan x="0" y="0"> </tspan></text>
  <text class="cls-1" transform="translate(102.16 163.8) rotate(-148.63)"><tspan x="0" y="0">o</tspan></text>
  <text class="cls-1" transform="translate(100.84 162.99) rotate(-147.04)"><tspan x="0" y="0">r</tspan></text>
  <text class="cls-1" transform="translate(100.03 162.47) rotate(-145.46)"><tspan x="0" y="0">d</tspan></text>
  <text class="cls-1" transform="translate(98.77 161.61) rotate(-143.59)"><tspan x="0" y="0">e</tspan></text>
  <text class="cls-1" transform="translate(97.62 160.75) rotate(-142.06)"><tspan x="0" y="0">r</tspan></text>
  <text class="cls-1" transform="translate(96.86 160.16) rotate(-140.94)"><tspan x="0" y="0"> </tspan></text>
  <text class="cls-1" transform="translate(96.24 159.66) rotate(-139.98)"><tspan x="0" y="0">t</tspan></text>
  <text class="cls-1" transform="translate(95.7 159.21) rotate(-138.55)"><tspan x="0" y="0">o</tspan></text>
  <text class="cls-1" transform="translate(94.53 158.17) rotate(-137.03)"><tspan x="0" y="0"> </tspan></text>
  <text class="cls-1" transform="translate(93.96 157.64) rotate(-135.55)"><tspan x="0" y="0">d</tspan></text>
  <text class="cls-1" transform="translate(92.85 156.55) rotate(-134.15)"><tspan x="0" y="0">i</tspan></text>
  <text class="cls-1" transform="translate(92.4 156.09) rotate(-133.06)"><tspan x="0" y="0">s</tspan></text>
  <text class="cls-1" transform="translate(91.69 155.32) rotate(-131.94)"><tspan x="0" y="0">t</tspan></text>
  <text class="cls-1" transform="translate(91.22 154.8) rotate(-131.08)"><tspan x="0" y="0">i</tspan></text>
  <text class="cls-1" transform="translate(90.79 154.32) rotate(-129.76)"><tspan x="0" y="0">n</tspan></text>
  <text class="cls-1" transform="translate(89.88 153.23) rotate(-127.86)"><tspan x="0" y="0">g</tspan></text>
  <text class="cls-1" transform="translate(88.94 152.01) rotate(-125.97)"><tspan x="0" y="0">u</tspan></text>
  <text class="cls-1" transform="translate(88.12 150.87) rotate(-124.66)"><tspan x="0" y="0">i</tspan></text>
  <text class="cls-1" transform="translate(87.76 150.35) rotate(-123.59)"><tspan x="0" y="0">s</tspan></text>
  <text class="cls-1" transform="translate(87.18 149.49) rotate(-122.02)"><tspan x="0" y="0">h</tspan></text>
  <text class="cls-1" transform="translate(86.42 148.27) rotate(-120.58)"><tspan x="0" y="0"> </tspan></text>
  <text class="cls-1" transform="translate(86.02 147.61) rotate(-119.1)"><tspan x="0" y="0">o</tspan></text>
  <text class="cls-1" transform="translate(85.26 146.24) rotate(-117.12)"><tspan x="0" y="0">b</tspan></text>
  <text class="cls-1" transform="translate(84.56 144.86) rotate(-115.72)"><tspan x="0" y="0">j</tspan></text>
  <text class="cls-1" transform="translate(84.28 144.28) rotate(-114.41)"><tspan x="0" y="0">e</tspan></text>
  <text class="cls-1" transform="translate(83.69 142.98) rotate(-112.73)"><tspan x="0" y="0">c</tspan></text>
  <text class="cls-1" transform="translate(83.22 141.85) rotate(-111.53)"><tspan x="0" y="0">t</tspan></text>
  <text class="cls-1" transform="translate(82.96 141.19) rotate(-110.62)"><tspan x="0" y="0">s</tspan></text>
  <text class="cls-1" transform="translate(82.59 140.22) rotate(-108.77)"><tspan x="0" y="0"> </tspan></text>
  <text class="cls-1" transform="translate(82.33 139.47) rotate(-108.31)"><tspan x="0" y="0">f</tspan></text>
  <text class="cls-1" transform="translate(82.09 138.74) rotate(-107.22)"><tspan x="0" y="0">r</tspan></text>
  <text class="cls-1" transform="translate(81.81 137.84) rotate(-105.66)"><tspan x="0" y="0">o</tspan></text>
  <text class="cls-1" transform="translate(81.39 136.36) rotate(-103.4)"><tspan x="0" y="0">m</tspan></text>
  <text class="cls-1" transform="translate(80.92 134.37) rotate(-101.59)"><tspan x="0" y="0"> </tspan></text>
  <text class="cls-1" transform="translate(80.76 133.6) rotate(-100.11)"><tspan x="0" y="0">o</tspan></text>
  <text class="cls-1" transform="translate(80.49 132.08) rotate(-98.22)"><tspan x="0" y="0">n</tspan></text>
  <text class="cls-1" transform="translate(80.29 130.66) rotate(-96.38)"><tspan x="0" y="0">e</tspan></text>
  <text class="cls-1" transform="translate(80.13 129.24) rotate(-94.95)"><tspan x="0" y="0"> </tspan></text>
  <text class="cls-1" transform="translate(80.06 128.46) rotate(-93.46)"><tspan x="0" y="0">a</tspan></text>
  <text class="cls-1" transform="translate(79.97 126.93) rotate(-91.57)"><tspan x="0" y="0">n</tspan></text>
  <text class="cls-1" transform="translate(79.92 125.51) rotate(-89.67)"><tspan x="0" y="0">o</tspan></text>
  <text class="cls-1" transform="translate(79.94 123.95) rotate(-88.22)"><tspan x="0" y="0">t</tspan></text>
  <text class="cls-1" transform="translate(79.96 123.18) rotate(-86.77)"><tspan x="0" y="0">h</tspan></text>
  <text class="cls-1" transform="translate(80.04 121.78) rotate(-84.97)"><tspan x="0" y="0">e</tspan></text>
  <text class="cls-1" transform="translate(80.17 120.36) rotate(-83.44)"><tspan x="0" y="0">r</tspan></text>
  <text class="cls-1" transform="translate(80.26 119.53) rotate(-82.49)"><tspan x="0" y="0">.</tspan></text>
  <text class="cls-1" transform="translate(80.36 118.76) rotate(-81.48)"><tspan x="0" y="0"> </tspan></text>
  <text class="cls-1" transform="translate(80.48 117.97) rotate(-80.18)"><tspan x="0" y="0">T</tspan></text>
  <text class="cls-1" transform="translate(80.67 116.85) rotate(-78.54)"><tspan x="0" y="0">o</tspan></text>
  <text class="cls-1" transform="translate(80.98 115.32) rotate(-77.03)"><tspan x="0" y="0"> </tspan></text>
  <text class="cls-1" transform="translate(81.15 114.56) rotate(-75.56)"><tspan x="0" y="0">a</tspan></text>
  <text class="cls-1" transform="translate(81.55 113.05) rotate(-74.06)"><tspan x="0" y="0"> </tspan></text>
  <text class="cls-1" transform="translate(81.76 112.28) rotate(-72.78)"><tspan x="0" y="0">c</tspan></text>
  <text class="cls-1" transform="translate(82.15 111.05) rotate(-71.02)"><tspan x="0" y="0">h</tspan></text>
  <text class="cls-1" transform="translate(82.61 109.72) rotate(-69.73)"><tspan x="0" y="0">i</tspan></text>
  <text class="cls-1" transform="translate(82.83 109.12) rotate(-68.92)"><tspan x="0" y="0">l</tspan></text>
  <text class="cls-1" transform="translate(83.06 108.51) rotate(-67.51)"><tspan x="0" y="0">d</tspan></text>
  <text class="cls-1" transform="translate(83.65 107.1) rotate(-66.06)"><tspan x="0" y="0">,</tspan></text>
  <text class="cls-1" transform="translate(83.98 106.36) rotate(-65.04)"><tspan x="0" y="0"> </tspan></text>
  <text class="cls-1" transform="translate(84.31 105.64) rotate(-63.63)"><tspan x="0" y="0">e</tspan></text>
  <text class="cls-1" transform="translate(84.92 104.4) rotate(-61.96)"><tspan x="0" y="0">v</tspan></text>
  <text class="cls-1" transform="translate(85.51 103.29) rotate(-60.29)"><tspan x="0" y="0">e</tspan></text>
  <text class="cls-1" transform="translate(86.21 102.06) rotate(-58.8)"><tspan x="0" y="0">r</tspan></text>
  <text class="cls-1" transform="translate(86.78 101.12) rotate(-57.13)"><tspan x="0" y="0">y</tspan></text>
  <text class="cls-1" transform="translate(87.54 99.95) rotate(-55.8)"><tspan x="0" y="0">t</tspan></text>
  <text class="cls-1" transform="translate(87.97 99.32) rotate(-54.38)"><tspan x="0" y="0">h</tspan></text>
  <text class="cls-1" transform="translate(88.79 98.18) rotate(-53.09)"><tspan x="0" y="0">i</tspan></text>
  <text class="cls-1" transform="translate(89.16 97.68) rotate(-51.8)"><tspan x="0" y="0">n</tspan></text>
  <text class="cls-1" transform="translate(90.04 96.56) rotate(-49.9)"><tspan x="0" y="0">g</tspan></text>
  <text class="cls-1" transform="translate(91.03 95.39) rotate(-48.42)"><tspan x="0" y="0"> </tspan></text>
  <text class="cls-1" transform="translate(91.56 94.79) rotate(-47.51)"><tspan x="0" y="0">i</tspan></text>
  <text class="cls-1" transform="translate(91.98 94.32) rotate(-46.21)"><tspan x="0" y="0">n</tspan></text>
  <text class="cls-1" transform="translate(92.98 93.29) rotate(-44.77)"><tspan x="0" y="0"> </tspan></text>
  <text class="cls-1" transform="translate(93.55 92.73) rotate(-43.8)"><tspan x="0" y="0">t</tspan></text>
  <text class="cls-1" transform="translate(94.08 92.21) rotate(-42.4)"><tspan x="0" y="0">h</tspan></text>
  <text class="cls-1" transform="translate(95.14 91.25) rotate(-40.55)"><tspan x="0" y="0">e</tspan></text>
  <text class="cls-1" transform="translate(96.22 90.33) rotate(-39.14)"><tspan x="0" y="0"> </tspan></text>
  <text class="cls-1" transform="translate(96.81 89.83) rotate(-37.37)"><tspan x="0" y="0">w</tspan></text>
  <text class="cls-1" transform="translate(98.37 88.65) rotate(-35.15)"><tspan x="0" y="0">o</tspan></text>
  <text class="cls-1" transform="translate(99.64 87.76) rotate(-33.54)"><tspan x="0" y="0">r</tspan></text>
  <text class="cls-1" transform="translate(100.47 87.21) rotate(-32.47)"><tspan x="0" y="0">l</tspan></text>
  <text class="cls-1" transform="translate(101.01 86.86) rotate(-31.06)"><tspan x="0" y="0">d</tspan></text>
  <text class="cls-1" transform="translate(102.35 86.06) rotate(-29.55)"><tspan x="0" y="0"> </tspan></text>
  <text class="cls-1" transform="translate(103.03 85.67) rotate(-28.65)"><tspan x="0" y="0">i</tspan></text>
  <text class="cls-1" transform="translate(103.59 85.36) rotate(-27.57)"><tspan x="0" y="0">s</tspan></text>
  <text class="cls-1" transform="translate(104.52 84.88) rotate(-26.4)"><tspan x="0" y="0"> </tspan></text>
  <text class="cls-1" transform="translate(105.22 84.51) rotate(-24.43)"><tspan x="0" y="0">O</tspan></text>
  <text class="cls-1" transform="translate(107.32 83.57) rotate(-22.1)"><tspan x="0" y="0">n</tspan></text>
  <text class="cls-1" transform="translate(108.64 83.04) rotate(-20.62)"><tspan x="0" y="0">e</tspan></text>
  <text class="cls-1" transform="translate(109.98 82.54) rotate(-18.77)"><tspan x="0" y="0">.</tspan></text>
  <text class="cls-1" transform="translate(110.73 82.28) rotate(-17.92)"><tspan x="0" y="0"> </tspan></text>
  <text class="cls-1" transform="translate(111.48 82.04) rotate(-16.52)"><tspan x="0" y="0">E</tspan></text>
  <text class="cls-1" transform="translate(112.9 81.62) rotate(-14.75)"><tspan x="0" y="0">v</tspan></text>
  <text class="cls-1" transform="translate(114.09 81.3) rotate(-13.1)"><tspan x="0" y="0">e</tspan></text>
  <text class="cls-1" transform="translate(115.5 80.98) rotate(-11.28)"><tspan x="0" y="0">n</tspan></text>
  <text class="cls-1" transform="translate(116.88 80.7) rotate(-9.88)"><tspan x="0" y="0"> </tspan></text>
  <text class="cls-1" transform="translate(117.65 80.57) rotate(-8.94)"><tspan x="0" y="0">t</tspan></text>
  <text class="cls-1" transform="translate(118.4 80.45) rotate(-7.5)"><tspan x="0" y="0">h</tspan></text>
  <text class="cls-1" transform="translate(119.8 80.26) rotate(-5.69)"><tspan x="0" y="0">e</tspan></text>
  <text class="cls-1" transform="translate(121.22 80.13) rotate(-4.26)"><tspan x="0" y="0"> </tspan></text>
  <text class="cls-1" transform="translate(122.02 80.06) rotate(-2.95)"><tspan x="0" y="0">c</tspan></text>
  <text class="cls-1" transform="translate(123.31 80) rotate(-1.17)"><tspan x="0" y="0">h</tspan></text>
  <text class="cls-1" transform="translate(124.73 79.97) rotate(.15)"><tspan x="0" y="0">i</tspan></text>
  <text class="cls-1" transform="translate(125.35 79.97) rotate(.94)"><tspan x="0" y="0">l</tspan></text>
  <text class="cls-1" transform="translate(126 79.98) rotate(2.35)"><tspan x="0" y="0">d</tspan></text>
  <text class="cls-1" transform="translate(127.55 80.05) rotate(3.89)"><tspan x="0" y="0">’</tspan></text>
  <text class="cls-1" transform="translate(128.38 80.1) rotate(5.09)"><tspan x="0" y="0">s</tspan></text>
  <text class="cls-1" transform="translate(129.43 80.2) rotate(6.27)"><tspan x="0" y="0"> </tspan></text>
  <text class="cls-1" transform="translate(130.22 80.28) rotate(7.45)"><tspan x="0" y="0">s</tspan></text>
  <text class="cls-1" transform="translate(131.26 80.42) rotate(9.04)"><tspan x="0" y="0">e</tspan></text>
  <text class="cls-1" transform="translate(132.68 80.64) rotate(10.86)"><tspan x="0" y="0">n</tspan></text>
  <text class="cls-1" transform="translate(134.06 80.91) rotate(12.41)"><tspan x="0" y="0">s</tspan></text>
  <text class="cls-1" transform="translate(135.06 81.13) rotate(13.96)"><tspan x="0" y="0">e</tspan></text>
  <text class="cls-1" transform="translate(136.45 81.48) rotate(15.38)"><tspan x="0" y="0"> </tspan></text>
  <text class="cls-1" transform="translate(137.23 81.68) rotate(16.88)"><tspan x="0" y="0">o</tspan></text>
  <text class="cls-1" transform="translate(138.71 82.14) rotate(18.34)"><tspan x="0" y="0">f</tspan></text>
  <text class="cls-1" transform="translate(139.43 82.38) rotate(19.32)"><tspan x="0" y="0"> </tspan></text>
  <text class="cls-1" transform="translate(140.17 82.64) rotate(20.48)"><tspan x="0" y="0">s</tspan></text>
  <text class="cls-1" transform="translate(141.16 83) rotate(22.06)"><tspan x="0" y="0">e</tspan></text>
  <text class="cls-1" transform="translate(142.5 83.55) rotate(23.38)"><tspan x="0" y="0">l</tspan></text>
  <text class="cls-1" transform="translate(143.06 83.79) rotate(24.24)"><tspan x="0" y="0">f</tspan></text>
  <text class="cls-1" transform="translate(143.78 84.12) rotate(25.26)"><tspan x="0" y="0"> </tspan></text>
  <text class="cls-1" transform="translate(144.49 84.45) rotate(26.16)"><tspan x="0" y="0">i</tspan></text>
  <text class="cls-1" transform="translate(145.07 84.73) rotate(27.23)"><tspan x="0" y="0">s</tspan></text>
  <text class="cls-1" transform="translate(145.99 85.21) rotate(28.38)"><tspan x="0" y="0"> </tspan></text>
  <text class="cls-1" transform="translate(146.69 85.58) rotate(29.66)"><tspan x="0" y="0">c</tspan></text>
  <text class="cls-1" transform="translate(147.76 86.19) rotate(31.42)"><tspan x="0" y="0">o</tspan></text>
  <text class="cls-1" transform="translate(149.08 87) rotate(33.3)"><tspan x="0" y="0">n</tspan></text>
  <text class="cls-1" transform="translate(150.25 87.77) rotate(34.63)"><tspan x="0" y="0">t</tspan></text>
  <text class="cls-1" transform="translate(150.84 88.18) rotate(35.49)"><tspan x="0" y="0">i</tspan></text>
  <text class="cls-1" transform="translate(151.38 88.56) rotate(36.82)"><tspan x="0" y="0">n</tspan></text>
  <text class="cls-1" transform="translate(152.49 89.39) rotate(38.59)"><tspan x="0" y="0">u</tspan></text>
  <text class="cls-1" transform="translate(153.61 90.28) rotate(40.49)"><tspan x="0" y="0">o</tspan></text>
  <text class="cls-1" transform="translate(154.77 91.27) rotate(42.36)"><tspan x="0" y="0">u</tspan></text>
  <text class="cls-1" transform="translate(155.81 92.22) rotate(43.92)"><tspan x="0" y="0">s</tspan></text>
  <text class="cls-1" transform="translate(156.56 92.95) rotate(45.1)"><tspan x="0" y="0"> </tspan></text>
  <text class="cls-1" transform="translate(157.13 93.51) rotate(46.9)"><tspan x="0" y="0">w</tspan></text>
  <text class="cls-1" transform="translate(158.48 94.96) rotate(48.56)"><tspan x="0" y="0">i</tspan></text>
  <text class="cls-1" transform="translate(158.92 95.46) rotate(49.45)"><tspan x="0" y="0">t</tspan></text>
  <text class="cls-1" transform="translate(159.4 96.02) rotate(50.86)"><tspan x="0" y="0">h</tspan></text>
  <text class="cls-1" transform="translate(160.29 97.12) rotate(52.27)"><tspan x="0" y="0"> </tspan></text>
  <text class="cls-1" transform="translate(160.79 97.76) rotate(53.25)"><tspan x="0" y="0">t</tspan></text>
  <text class="cls-1" transform="translate(161.24 98.36) rotate(54.67)"><tspan x="0" y="0">h</tspan></text>
  <text class="cls-1" transform="translate(162.06 99.51) rotate(56.5)"><tspan x="0" y="0">e</tspan></text>
  <text class="cls-1" transform="translate(162.83 100.69) rotate(57.8)"><tspan x="0" y="0">i</tspan></text>
  <text class="cls-1" transform="translate(163.18 101.23) rotate(58.83)"><tspan x="0" y="0">r</tspan></text>
  <text class="cls-1" transform="translate(163.67 102.06) rotate(59.95)"><tspan x="0" y="0"> </tspan></text>
  <text class="cls-1" transform="translate(164.08 102.76) rotate(61.39)"><tspan x="0" y="0">e</tspan></text>
  <text class="cls-1" transform="translate(164.76 104) rotate(63.2)"><tspan x="0" y="0">n</tspan></text>
  <text class="cls-1" transform="translate(165.38 105.23) rotate(64.87)"><tspan x="0" y="0">v</tspan></text>
  <text class="cls-1" transform="translate(165.93 106.41) rotate(66.09)"><tspan x="0" y="0">i</tspan></text>
  <text class="cls-1" transform="translate(166.19 107) rotate(67.11)"><tspan x="0" y="0">r</tspan></text>
  <text class="cls-1" transform="translate(166.57 107.87) rotate(68.67)"><tspan x="0" y="0">o</tspan></text>
  <text class="cls-1" transform="translate(167.13 109.28) rotate(71.24)"><tspan x="0" y="0">n</tspan></text>
  <text class="cls-1" transform="translate(167.6 110.63) rotate(72.66)"><tspan x="0" y="0">m</tspan></text>
  <text class="cls-1" transform="translate(168.2 112.57) rotate(74.84)"><tspan x="0" y="0">e</tspan></text>
  <text class="cls-1" transform="translate(168.58 113.95) rotate(76.65)"><tspan x="0" y="0">n</tspan></text>
  <text class="cls-1" transform="translate(168.9 115.34) rotate(78)"><tspan x="0" y="0">t</tspan></text>
  <text class="cls-1" transform="translate(169.05 116.02) rotate(78.95)"><tspan x="0" y="0">,</tspan></text>
  <text class="cls-1" transform="translate(169.2 116.81) rotate(79.98)"><tspan x="0" y="0"> </tspan></text>
  <text class="cls-1" transform="translate(169.34 117.58) rotate(81.47)"><tspan x="0" y="0">a</tspan></text>
  <text class="cls-1" transform="translate(169.57 119.1) rotate(82.95)"><tspan x="0" y="0"> </tspan></text>
  <text class="cls-1" transform="translate(169.67 119.9) rotate(84.47)"><tspan x="0" y="0">p</tspan></text>
  <text class="cls-1" transform="translate(169.82 121.44) rotate(86.36)"><tspan x="0" y="0">h</tspan></text>
  <text class="cls-1" transform="translate(169.91 122.85) rotate(88.18)"><tspan x="0" y="0">e</tspan></text>
  <text class="cls-1" transform="translate(169.95 124.29) rotate(90.02)"><tspan x="0" y="0">n</tspan></text>
  <text class="cls-1" transform="translate(169.95 125.69) rotate(91.92)"><tspan x="0" y="0">o</tspan></text>
  <text class="cls-1" transform="translate(169.91 127.23) rotate(94.2)"><tspan x="0" y="0">m</tspan></text>
  <text class="cls-1" transform="translate(169.75 129.27) rotate(96.43)"><tspan x="0" y="0">e</tspan></text>
  <text class="cls-1" transform="translate(169.59 130.69) rotate(98.23)"><tspan x="0" y="0">n</tspan></text>
  <text class="cls-1" transform="translate(169.39 132.08) rotate(100.12)"><tspan x="0" y="0">o</tspan></text>
  <text class="cls-1" transform="translate(169.12 133.62) rotate(102.02)"><tspan x="0" y="0">n</tspan></text>
  <text class="cls-1" transform="translate(168.82 134.98) rotate(103.4)"><tspan x="0" y="0"> </tspan></text>
  <text class="cls-1" transform="translate(168.64 135.76) rotate(104.82)"><tspan x="0" y="0">e</tspan></text>
  <text class="cls-1" transform="translate(168.29 137.1) rotate(106.58)"><tspan x="0" y="0">x</tspan></text>
  <text class="cls-1" transform="translate(167.88 138.47) rotate(108.47)"><tspan x="0" y="0">p</tspan></text>
  <text class="cls-1" transform="translate(167.39 139.94) rotate(109.86)"><tspan x="0" y="0">l</tspan></text>
  <text class="cls-1" transform="translate(167.17 140.55) rotate(111.25)"><tspan x="0" y="0">o</tspan></text>
  <text class="cls-1" transform="translate(166.61 141.99) rotate(112.83)"><tspan x="0" y="0">r</tspan></text>
  <text class="cls-1" transform="translate(166.24 142.86) rotate(114.32)"><tspan x="0" y="0">e</tspan></text>
  <text class="cls-1" transform="translate(165.66 144.16) rotate(116.2)"><tspan x="0" y="0">d</tspan></text>
  <text class="cls-1" transform="translate(164.97 145.56) rotate(117.7)"><tspan x="0" y="0"> </tspan></text>
  <text class="cls-1" transform="translate(164.61 146.24) rotate(119.15)"><tspan x="0" y="0">b</tspan></text>
  <text class="cls-1" transform="translate(163.87 147.57) rotate(120.99)"><tspan x="0" y="0">y</tspan></text>
  <text class="cls-1" transform="translate(163.15 148.76) rotate(122.36)"><tspan x="0" y="0"> </tspan></text>
  <text class="cls-1" transform="translate(162.72 149.44) rotate(123.6)"><tspan x="0" y="0">L</tspan></text>
  <text class="cls-1" transform="translate(162.09 150.4) rotate(125.32)"><tspan x="0" y="0">a</tspan></text>
  <text class="cls-1" transform="translate(161.19 151.66) rotate(127.08)"><tspan x="0" y="0">c</tspan></text>
  <text class="cls-1" transform="translate(160.47 152.62) rotate(128.81)"><tspan x="0" y="0">a</tspan></text>
  <text class="cls-1" transform="translate(159.5 153.83) rotate(130.71)"><tspan x="0" y="0">n</tspan></text>
  <text class="cls-1" transform="translate(158.57 154.9) rotate(132.12)"><tspan x="0" y="0">.</tspan></text>
</svg>