<?xml version="1.0" encoding="UTF-8"?>
<svg id="Layer_21_2" data-name="Layer 21_2" xmlns="http://www.w3.org/2000/svg" viewBox="0 0 250 250">
  <defs>
    <style>
      .cls-1 {
        fill: #231f20;
        font-family: Futura-Medium, Futura;
        font-size: 3.9px;
        font-weight: 500;
      }
    </style>
  </defs>
  <text class="cls-1" transform="translate(216.77 106.03) rotate(79.46)"><tspan x="0" y="0">M</tspan></text>
  <text class="cls-1" transform="translate(217.44 109.72) rotate(81.3)"><tspan x="0" y="0">a</tspan></text>
  <text class="cls-1" transform="translate(217.79 112.01) rotate(82.63)"><tspan x="0" y="0">u</tspan></text>
  <text class="cls-1" transform="translate(218.06 114.11) rotate(83.72)"><tspan x="0" y="0">r</tspan></text>
  <text class="cls-1" transform="translate(218.23 115.61) rotate(84.49)"><tspan x="0" y="0">i</tspan></text>
  <text class="cls-1" transform="translate(218.32 116.57) rotate(85.35)"><tspan x="0" y="0">c</tspan></text>
  <text class="cls-1" transform="translate(218.47 118.41) rotate(86.56)"><tspan x="0" y="0">e</tspan></text>
  <text class="cls-1" transform="translate(218.6 120.54) rotate(87.58)"><tspan x="0" y="0"> </tspan></text>
  <text class="cls-1" transform="translate(218.66 121.72) rotate(89.08)"><tspan x="0" y="0">M</tspan></text>
  <text class="cls-1" transform="translate(218.71 125.47) rotate(90.9)"><tspan x="0" y="0">e</tspan></text>
  <text class="cls-1" transform="translate(218.67 127.6) rotate(92)"><tspan x="0" y="0">r</tspan></text>
  <text class="cls-1" transform="translate(218.62 129.11) rotate(92.78)"><tspan x="0" y="0">l</tspan></text>
  <text class="cls-1" transform="translate(218.58 130.08) rotate(93.74)"><tspan x="0" y="0">e</tspan></text>
  <text class="cls-1" transform="translate(218.44 132.22) rotate(95.12)"><tspan x="0" y="0">a</tspan></text>
  <text class="cls-1" transform="translate(218.23 134.53) rotate(96.48)"><tspan x="0" y="0">u</tspan></text>
  <text class="cls-1" transform="translate(217.99 136.63) rotate(97.39)"><tspan x="0" y="0">-</tspan></text>
  <text class="cls-1" transform="translate(217.88 137.47) rotate(98.29)"><tspan x="0" y="0">P</tspan></text>
  <text class="cls-1" transform="translate(217.6 139.42) rotate(99.58)"><tspan x="0" y="0">o</tspan></text>
  <text class="cls-1" transform="translate(217.21 141.73) rotate(100.96)"><tspan x="0" y="0">n</tspan></text>
  <text class="cls-1" transform="translate(216.8 143.81) rotate(101.93)"><tspan x="0" y="0">t</tspan></text>
  <text class="cls-1" transform="translate(216.59 144.85) rotate(102.91)"><tspan x="0" y="0">y</tspan></text>
  <text class="cls-1" transform="translate(216.11 146.9) rotate(103.92)"><tspan x="0" y="0"> </tspan></text>
  <text class="cls-1" transform="translate(215.82 148.07) rotate(104.62)"><tspan x="0" y="0">t</tspan></text>
  <text class="cls-1" transform="translate(215.56 149.09) rotate(105.38)"><tspan x="0" y="0">r</tspan></text>
  <text class="cls-1" transform="translate(215.15 150.55) rotate(106.17)"><tspan x="0" y="0">i</tspan></text>
  <text class="cls-1" transform="translate(214.89 151.48) rotate(107.12)"><tspan x="0" y="0">e</tspan></text>
  <text class="cls-1" transform="translate(214.26 153.53) rotate(108.49)"><tspan x="0" y="0">d</tspan></text>
  <text class="cls-1" transform="translate(213.52 155.72) rotate(109.56)"><tspan x="0" y="0"> </tspan></text>
  <text class="cls-1" transform="translate(213.13 156.84) rotate(110.24)"><tspan x="0" y="0">t</tspan></text>
  <text class="cls-1" transform="translate(212.75 157.86) rotate(111.29)"><tspan x="0" y="0">o</tspan></text>
  <text class="cls-1" transform="translate(211.9 160.04) rotate(112.37)"><tspan x="0" y="0"> </tspan></text>
  <text class="cls-1" transform="translate(211.44 161.16) rotate(113.19)"><tspan x="0" y="0">r</tspan></text>
  <text class="cls-1" transform="translate(210.89 162.46) rotate(114.26)"><tspan x="0" y="0">e</tspan></text>
  <text class="cls-1" transform="translate(210.01 164.4) rotate(115.61)"><tspan x="0" y="0">a</tspan></text>
  <text class="cls-1" transform="translate(209 166.5) rotate(116.67)"><tspan x="0" y="0">f</tspan></text>
  <text class="cls-1" transform="translate(208.42 167.65) rotate(117.45)"><tspan x="0" y="0">f</tspan></text>
  <text class="cls-1" transform="translate(207.84 168.77) rotate(118.22)"><tspan x="0" y="0">f</tspan></text>
  <text class="cls-1" transform="translate(207.25 169.88) rotate(118.93)"><tspan x="0" y="0">i</tspan></text>
  <text class="cls-1" transform="translate(206.79 170.71) rotate(119.66)"><tspan x="0" y="0">r</tspan></text>
  <text class="cls-1" transform="translate(206.05 172.02) rotate(121.07)"><tspan x="0" y="0">m</tspan></text>
  <text class="cls-1" transform="translate(204.47 174.63) rotate(122.35)"><tspan x="0" y="0"> </tspan></text>
  <text class="cls-1" transform="translate(203.82 175.65) rotate(123.43)"><tspan x="0" y="0">p</tspan></text>
  <text class="cls-1" transform="translate(202.54 177.59) rotate(124.78)"><tspan x="0" y="0">e</tspan></text>
  <text class="cls-1" transform="translate(201.32 179.35) rotate(125.87)"><tspan x="0" y="0">r</tspan></text>
  <text class="cls-1" transform="translate(200.49 180.5) rotate(126.85)"><tspan x="0" y="0">c</tspan></text>
  <text class="cls-1" transform="translate(199.38 181.98) rotate(128.07)"><tspan x="0" y="0">e</tspan></text>
  <text class="cls-1" transform="translate(198.07 183.66) rotate(129.42)"><tspan x="0" y="0">p</tspan></text>
  <text class="cls-1" transform="translate(196.57 185.48) rotate(130.47)"><tspan x="0" y="0">t</tspan></text>
  <text class="cls-1" transform="translate(195.87 186.3) rotate(131.44)"><tspan x="0" y="0">u</tspan></text>
  <text class="cls-1" transform="translate(194.48 187.88) rotate(132.79)"><tspan x="0" y="0">a</tspan></text>
  <text class="cls-1" transform="translate(192.9 189.58) rotate(133.79)"><tspan x="0" y="0">l</tspan></text>
  <text class="cls-1" transform="translate(192.22 190.29) rotate(134.46)"><tspan x="0" y="0"> </tspan></text>
  <text class="cls-1" transform="translate(191.4 191.13) rotate(135.52)"><tspan x="0" y="0">a</tspan></text>
  <text class="cls-1" transform="translate(189.74 192.77) rotate(137.17)"><tspan x="0" y="0">m</tspan></text>
  <text class="cls-1" transform="translate(187.49 194.85) rotate(138.82)"><tspan x="0" y="0">b</tspan></text>
  <text class="cls-1" transform="translate(185.73 196.38) rotate(139.83)"><tspan x="0" y="0">i</tspan></text>
  <text class="cls-1" transform="translate(185 197) rotate(140.84)"><tspan x="0" y="0">g</tspan></text>
  <text class="cls-1" transform="translate(183.21 198.46) rotate(142.19)"><tspan x="0" y="0">u</tspan></text>
  <text class="cls-1" transform="translate(181.53 199.76) rotate(143.14)"><tspan x="0" y="0">i</tspan></text>
  <text class="cls-1" transform="translate(180.76 200.34) rotate(143.76)"><tspan x="0" y="0">t</tspan></text>
  <text class="cls-1" transform="translate(179.92 200.96) rotate(144.72)"><tspan x="0" y="0">y</tspan></text>
  <text class="cls-1" transform="translate(178.18 202.19) rotate(145.75)"><tspan x="0" y="0"> </tspan></text>
  <text class="cls-1" transform="translate(177.2 202.86) rotate(146.83)"><tspan x="0" y="0">a</tspan></text>
  <text class="cls-1" transform="translate(175.26 204.12) rotate(148.02)"><tspan x="0" y="0">s</tspan></text>
  <text class="cls-1" transform="translate(173.92 204.96) rotate(148.88)"><tspan x="0" y="0"> </tspan></text>
  <text class="cls-1" transform="translate(172.9 205.58) rotate(149.96)"><tspan x="0" y="0">a</tspan></text>
  <text class="cls-1" transform="translate(170.88 206.74) rotate(151.05)"><tspan x="0" y="0"> </tspan></text>
  <text class="cls-1" transform="translate(169.83 207.33) rotate(152.14)"><tspan x="0" y="0">p</tspan></text>
  <text class="cls-1" transform="translate(167.79 208.41) rotate(153.56)"><tspan x="0" y="0">o</tspan></text>
  <text class="cls-1" transform="translate(165.69 209.44) rotate(154.77)"><tspan x="0" y="0">s</tspan></text>
  <text class="cls-1" transform="translate(164.26 210.11) rotate(155.55)"><tspan x="0" y="0">i</tspan></text>
  <text class="cls-1" transform="translate(163.41 210.5) rotate(156.16)"><tspan x="0" y="0">t</tspan></text>
  <text class="cls-1" transform="translate(162.43 210.93) rotate(156.79)"><tspan x="0" y="0">i</tspan></text>
  <text class="cls-1" transform="translate(161.55 211.32) rotate(157.68)"><tspan x="0" y="0">v</tspan></text>
  <text class="cls-1" transform="translate(159.81 212.03) rotate(158.9)"><tspan x="0" y="0">e</tspan></text>
  <text class="cls-1" transform="translate(157.8 212.81) rotate(159.92)"><tspan x="0" y="0"> </tspan></text>
  <text class="cls-1" transform="translate(156.69 213.22) rotate(160.99)"><tspan x="0" y="0">p</tspan></text>
  <text class="cls-1" transform="translate(154.5 213.97) rotate(162.35)"><tspan x="0" y="0">h</tspan></text>
  <text class="cls-1" transform="translate(152.45 214.62) rotate(163.66)"><tspan x="0" y="0">e</tspan></text>
  <text class="cls-1" transform="translate(150.4 215.22) rotate(164.95)"><tspan x="0" y="0">n</tspan></text>
  <text class="cls-1" transform="translate(148.36 215.77) rotate(166.29)"><tspan x="0" y="0">o</tspan></text>
  <text class="cls-1" transform="translate(146.08 216.32) rotate(167.42)"><tspan x="0" y="0">m</tspan></text>
  <text class="cls-1" transform="translate(143.09 216.97) rotate(169.47)"><tspan x="0" y="0">e</tspan></text>
  <text class="cls-1" transform="translate(140.99 217.36) rotate(170.75)"><tspan x="0" y="0">n</tspan></text>
  <text class="cls-1" transform="translate(138.87 217.71) rotate(172.11)"><tspan x="0" y="0">o</tspan></text>
  <text class="cls-1" transform="translate(136.59 218.02) rotate(173.45)"><tspan x="0" y="0">n</tspan></text>
  <text class="cls-1" transform="translate(134.47 218.26) rotate(174.46)"><tspan x="0" y="0">.</tspan></text>
  <text class="cls-1" transform="translate(133.28 218.38) rotate(175.19)"><tspan x="0" y="0"> </tspan></text>
  <text class="cls-1" transform="translate(132.1 218.49) rotate(176.43)"><tspan x="0" y="0">A</tspan></text>
  <text class="cls-1" transform="translate(129.23 218.66) rotate(177.96)"><tspan x="0" y="0">n</tspan></text>
  <text class="cls-1" transform="translate(127.08 218.73) rotate(178.99)"><tspan x="0" y="0"> </tspan></text>
  <text class="cls-1" transform="translate(125.9 218.76) rotate(-179.93)"><tspan x="0" y="0">o</tspan></text>
  <text class="cls-1" transform="translate(123.56 218.75) rotate(-178.5)"><tspan x="0" y="0">b</tspan></text>
  <text class="cls-1" transform="translate(121.25 218.69) rotate(-177.49)"><tspan x="0" y="0">j</tspan></text>
  <text class="cls-1" transform="translate(120.28 218.65) rotate(-176.53)"><tspan x="0" y="0">e</tspan></text>
  <text class="cls-1" transform="translate(118.15 218.52) rotate(-175.31)"><tspan x="0" y="0">c</tspan></text>
  <text class="cls-1" transform="translate(116.32 218.37) rotate(-174.42)"><tspan x="0" y="0">t</tspan></text>
  <text class="cls-1" transform="translate(115.24 218.26) rotate(-173.71)"><tspan x="0" y="0"> </tspan></text>
  <text class="cls-1" transform="translate(114.05 218.13) rotate(-173.04)"><tspan x="0" y="0">i</tspan></text>
  <text class="cls-1" transform="translate(113.1 218.02) rotate(-172.09)"><tspan x="0" y="0">n</tspan></text>
  <text class="cls-1" transform="translate(111 217.72) rotate(-171.08)"><tspan x="0" y="0"> </tspan></text>
  <text class="cls-1" transform="translate(109.8 217.54) rotate(-170.37)"><tspan x="0" y="0">t</tspan></text>
  <text class="cls-1" transform="translate(108.71 217.35) rotate(-169.36)"><tspan x="0" y="0">h</tspan></text>
  <text class="cls-1" transform="translate(106.61 216.96) rotate(-168.04)"><tspan x="0" y="0">e</tspan></text>
  <text class="cls-1" transform="translate(104.51 216.51) rotate(-167.02)"><tspan x="0" y="0"> </tspan></text>
  <text class="cls-1" transform="translate(103.35 216.25) rotate(-165.93)"><tspan x="0" y="0">d</tspan></text>
  <text class="cls-1" transform="translate(101.08 215.68) rotate(-164.92)"><tspan x="0" y="0">i</tspan></text>
  <text class="cls-1" transform="translate(100.14 215.42) rotate(-164.14)"><tspan x="0" y="0">s</tspan></text>
  <text class="cls-1" transform="translate(98.63 214.99) rotate(-163.33)"><tspan x="0" y="0">t</tspan></text>
  <text class="cls-1" transform="translate(97.6 214.69) rotate(-162.28)"><tspan x="0" y="0">a</tspan></text>
  <text class="cls-1" transform="translate(95.39 213.98) rotate(-160.93)"><tspan x="0" y="0">n</tspan></text>
  <text class="cls-1" transform="translate(93.38 213.28) rotate(-159.71)"><tspan x="0" y="0">c</tspan></text>
  <text class="cls-1" transform="translate(91.64 212.65) rotate(-158.49)"><tspan x="0" y="0">e</tspan></text>
  <text class="cls-1" transform="translate(89.66 211.86) rotate(-157.48)"><tspan x="0" y="0"> </tspan></text>
  <text class="cls-1" transform="translate(88.55 211.4) rotate(-156.79)"><tspan x="0" y="0">t</tspan></text>
  <text class="cls-1" transform="translate(87.49 210.95) rotate(-155.76)"><tspan x="0" y="0">h</tspan></text>
  <text class="cls-1" transform="translate(85.56 210.08) rotate(-154.41)"><tspan x="0" y="0">a</tspan></text>
  <text class="cls-1" transform="translate(83.46 209.07) rotate(-153.38)"><tspan x="0" y="0">t</tspan></text>
  <text class="cls-1" transform="translate(82.52 208.6) rotate(-152.7)"><tspan x="0" y="0"> </tspan></text>
  <text class="cls-1" transform="translate(81.44 208.04) rotate(-152.03)"><tspan x="0" y="0">i</tspan></text>
  <text class="cls-1" transform="translate(80.6 207.6) rotate(-151.26)"><tspan x="0" y="0">s</tspan></text>
  <text class="cls-1" transform="translate(79.23 206.84) rotate(-150.43)"><tspan x="0" y="0"> </tspan></text>
  <text class="cls-1" transform="translate(78.18 206.25) rotate(-149.77)"><tspan x="0" y="0">i</tspan></text>
  <text class="cls-1" transform="translate(77.34 205.77) rotate(-148.83)"><tspan x="0" y="0">n</tspan></text>
  <text class="cls-1" transform="translate(75.53 204.67) rotate(-147.48)"><tspan x="0" y="0">d</tspan></text>
  <text class="cls-1" transform="translate(73.56 203.42) rotate(-146.12)"><tspan x="0" y="0">e</tspan></text>
  <text class="cls-1" transform="translate(71.77 202.2) rotate(-145.13)"><tspan x="0" y="0">t</tspan></text>
  <text class="cls-1" transform="translate(70.86 201.58) rotate(-144.13)"><tspan x="0" y="0">e</tspan></text>
  <text class="cls-1" transform="translate(69.12 200.32) rotate(-143.04)"><tspan x="0" y="0">r</tspan></text>
  <text class="cls-1" transform="translate(67.91 199.42) rotate(-141.63)"><tspan x="0" y="0">m</tspan></text>
  <text class="cls-1" transform="translate(65.52 197.51) rotate(-140.41)"><tspan x="0" y="0">i</tspan></text>
  <text class="cls-1" transform="translate(64.77 196.9) rotate(-139.47)"><tspan x="0" y="0">n</tspan></text>
  <text class="cls-1" transform="translate(63.16 195.52) rotate(-138.12)"><tspan x="0" y="0">a</tspan></text>
  <text class="cls-1" transform="translate(61.43 193.96) rotate(-137.09)"><tspan x="0" y="0">t</tspan></text>
  <text class="cls-1" transform="translate(60.63 193.23) rotate(-136.09)"><tspan x="0" y="0">e</tspan></text>
  <text class="cls-1" transform="translate(59.08 191.73) rotate(-135.07)"><tspan x="0" y="0"> </tspan></text>
  <text class="cls-1" transform="translate(58.23 190.89) rotate(-133.99)"><tspan x="0" y="0">d</tspan></text>
  <text class="cls-1" transform="translate(56.64 189.24) rotate(-132.65)"><tspan x="0" y="0">u</tspan></text>
  <text class="cls-1" transform="translate(55.18 187.66) rotate(-131.33)"><tspan x="0" y="0">e</tspan></text>
  <text class="cls-1" transform="translate(53.77 186.05) rotate(-130.31)"><tspan x="0" y="0"> </tspan></text>
  <text class="cls-1" transform="translate(53 185.13) rotate(-129.62)"><tspan x="0" y="0">t</tspan></text>
  <text class="cls-1" transform="translate(52.31 184.32) rotate(-128.58)"><tspan x="0" y="0">o</tspan></text>
  <text class="cls-1" transform="translate(50.85 182.48) rotate(-127.49)"><tspan x="0" y="0"> </tspan></text>
  <text class="cls-1" transform="translate(50.13 181.54) rotate(-126.83)"><tspan x="0" y="0">i</tspan></text>
  <text class="cls-1" transform="translate(49.54 180.75) rotate(-126.2)"><tspan x="0" y="0">t</tspan></text>
  <text class="cls-1" transform="translate(48.92 179.9) rotate(-125.39)"><tspan x="0" y="0">s</tspan></text>
  <text class="cls-1" transform="translate(48.02 178.64) rotate(-124.56)"><tspan x="0" y="0"> </tspan></text>
  <text class="cls-1" transform="translate(47.34 177.65) rotate(-123.83)"><tspan x="0" y="0">f</tspan></text>
  <text class="cls-1" transform="translate(46.69 176.69) rotate(-122.82)"><tspan x="0" y="0">u</tspan></text>
  <text class="cls-1" transform="translate(45.55 174.91) rotate(-121.52)"><tspan x="0" y="0">z</tspan></text>
  <text class="cls-1" transform="translate(44.46 173.13) rotate(-120.24)"><tspan x="0" y="0">z</tspan></text>
  <text class="cls-1" transform="translate(43.39 171.3) rotate(-118.93)"><tspan x="0" y="0">y</tspan></text>
  <text class="cls-1" transform="translate(42.37 169.44) rotate(-117.91)"><tspan x="0" y="0"> </tspan></text>
  <text class="cls-1" transform="translate(41.81 168.4) rotate(-116.83)"><tspan x="0" y="0">o</tspan></text>
  <text class="cls-1" transform="translate(40.76 166.32) rotate(-115.45)"><tspan x="0" y="0">u</tspan></text>
  <text class="cls-1" transform="translate(39.86 164.42) rotate(-114.49)"><tspan x="0" y="0">t</tspan></text>
  <text class="cls-1" transform="translate(39.42 163.45) rotate(-113.87)"><tspan x="0" y="0">l</tspan></text>
  <text class="cls-1" transform="translate(39.02 162.55) rotate(-113.26)"><tspan x="0" y="0">i</tspan></text>
  <text class="cls-1" transform="translate(38.64 161.68) rotate(-112.32)"><tspan x="0" y="0">n</tspan></text>
  <text class="cls-1" transform="translate(37.83 159.72) rotate(-111.01)"><tspan x="0" y="0">e</tspan></text>
  <text class="cls-1" transform="translate(37.07 157.71) rotate(-109.99)"><tspan x="0" y="0"> </tspan></text>
  <text class="cls-1" transform="translate(36.66 156.58) rotate(-109.32)"><tspan x="0" y="0">i</tspan></text>
  <text class="cls-1" transform="translate(36.34 155.69) rotate(-108.56)"><tspan x="0" y="0">s</tspan></text>
  <text class="cls-1" transform="translate(35.84 154.19) rotate(-107.71)"><tspan x="0" y="0">,</tspan></text>
  <text class="cls-1" transform="translate(35.47 153.04) rotate(-106.98)"><tspan x="0" y="0"> </tspan></text>
  <text class="cls-1" transform="translate(35.12 151.9) rotate(-106.32)"><tspan x="0" y="0">i</tspan></text>
  <text class="cls-1" transform="translate(34.85 150.99) rotate(-105.39)"><tspan x="0" y="0">n</tspan></text>
  <text class="cls-1" transform="translate(34.29 148.93) rotate(-104.38)"><tspan x="0" y="0"> </tspan></text>
  <text class="cls-1" transform="translate(33.99 147.76) rotate(-103.67)"><tspan x="0" y="0">f</tspan></text>
  <text class="cls-1" transform="translate(33.7 146.6) rotate(-102.59)"><tspan x="0" y="0">a</tspan></text>
  <text class="cls-1" transform="translate(33.19 144.35) rotate(-100.72)"><tspan x="0" y="0">c</tspan></text>
  <text class="cls-1" transform="translate(32.84 142.51) rotate(-100.47)"><tspan x="0" y="0">t</tspan></text>
  <text class="cls-1" transform="translate(32.64 141.47) rotate(-99.79)"><tspan x="0" y="0">,</tspan></text>
  <text class="cls-1" transform="translate(32.44 140.28) rotate(-99.07)"><tspan x="0" y="0"> </tspan></text>
  <text class="cls-1" transform="translate(32.25 139.11) rotate(-98.42)"><tspan x="0" y="0">i</tspan></text>
  <text class="cls-1" transform="translate(32.11 138.16) rotate(-97.48)"><tspan x="0" y="0">n</tspan></text>
  <text class="cls-1" transform="translate(31.83 136.06) rotate(-96.13)"><tspan x="0" y="0">d</tspan></text>
  <text class="cls-1" transform="translate(31.58 133.74) rotate(-94.77)"><tspan x="0" y="0">e</tspan></text>
  <text class="cls-1" transform="translate(31.4 131.57) rotate(-93.77)"><tspan x="0" y="0">t</tspan></text>
  <text class="cls-1" transform="translate(31.33 130.48) rotate(-92.77)"><tspan x="0" y="0">e</tspan></text>
  <text class="cls-1" transform="translate(31.23 128.36) rotate(-91.68)"><tspan x="0" y="0">r</tspan></text>
  <text class="cls-1" transform="translate(31.18 126.83) rotate(-90.24)"><tspan x="0" y="0">m</tspan></text>
  <text class="cls-1" transform="translate(31.17 123.77) rotate(-89.01)"><tspan x="0" y="0">i</tspan></text>
  <text class="cls-1" transform="translate(31.19 122.8) rotate(-88.06)"><tspan x="0" y="0">n</tspan></text>
  <text class="cls-1" transform="translate(31.26 120.68) rotate(-86.69)"><tspan x="0" y="0">a</tspan></text>
  <text class="cls-1" transform="translate(31.4 118.36) rotate(-85.65)"><tspan x="0" y="0">t</tspan></text>
  <text class="cls-1" transform="translate(31.47 117.27) rotate(-84.64)"><tspan x="0" y="0">e</tspan></text>
  <text class="cls-1" transform="translate(31.68 115.15) rotate(-83.62)"><tspan x="0" y="0">:</tspan></text>
  <text class="cls-1" transform="translate(31.81 113.95) rotate(-82.88)"><tspan x="0" y="0"> </tspan></text>
  <text class="cls-1" transform="translate(31.95 112.76) rotate(-81.59)"><tspan x="0" y="0">w</tspan></text>
  <text class="cls-1" transform="translate(32.38 109.86) rotate(-80.04)"><tspan x="0" y="0">e</tspan></text>
  <text class="cls-1" transform="translate(32.76 107.74) rotate(-79.01)"><tspan x="0" y="0"> </tspan></text>
  <text class="cls-1" transform="translate(32.99 106.56) rotate(-78.15)"><tspan x="0" y="0">s</tspan></text>
  <text class="cls-1" transform="translate(33.31 105.02) rotate(-77.02)"><tspan x="0" y="0">h</tspan></text>
  <text class="cls-1" transform="translate(33.78 102.97) rotate(-75.66)"><tspan x="0" y="0">o</tspan></text>
  <text class="cls-1" transform="translate(34.36 100.69) rotate(-74.29)"><tspan x="0" y="0">u</tspan></text>
  <text class="cls-1" transform="translate(34.93 98.67) rotate(-73.35)"><tspan x="0" y="0">l</tspan></text>
  <text class="cls-1" transform="translate(35.21 97.73) rotate(-72.34)"><tspan x="0" y="0">d</tspan></text>
  <text class="cls-1" transform="translate(35.91 95.53) rotate(-70.98)"><tspan x="0" y="0">n</tspan></text>
  <text class="cls-1" transform="translate(36.61 93.5) rotate(-69.94)"><tspan x="0" y="0">’</tspan></text>
  <text class="cls-1" transform="translate(37.05 92.31) rotate(-69.22)"><tspan x="0" y="0">t</tspan></text>
  <text class="cls-1" transform="translate(37.43 91.32) rotate(-68.53)"><tspan x="0" y="0"> </tspan></text>
  <text class="cls-1" transform="translate(37.86 90.2) rotate(-67.46)"><tspan x="0" y="0">d</tspan></text>
  <text class="cls-1" transform="translate(38.75 88.07) rotate(-66.1)"><tspan x="0" y="0">e</tspan></text>
  <text class="cls-1" transform="translate(39.62 86.1) rotate(-65.09)"><tspan x="0" y="0">f</tspan></text>
  <text class="cls-1" transform="translate(40.12 85.02) rotate(-64.07)"><tspan x="0" y="0">e</tspan></text>
  <text class="cls-1" transform="translate(41.06 83.09) rotate(-62.97)"><tspan x="0" y="0">r</tspan></text>
  <text class="cls-1" transform="translate(41.73 81.79) rotate(-62.16)"><tspan x="0" y="0"> </tspan></text>
  <text class="cls-1" transform="translate(42.29 80.73) rotate(-61.48)"><tspan x="0" y="0">t</tspan></text>
  <text class="cls-1" transform="translate(42.8 79.77) rotate(-60.43)"><tspan x="0" y="0">o</tspan></text>
  <text class="cls-1" transform="translate(43.95 77.75) rotate(-59.36)"><tspan x="0" y="0"> </tspan></text>
  <text class="cls-1" transform="translate(44.55 76.73) rotate(-58.29)"><tspan x="0" y="0">o</tspan></text>
  <text class="cls-1" transform="translate(45.78 74.75) rotate(-56.95)"><tspan x="0" y="0">u</tspan></text>
  <text class="cls-1" transform="translate(46.94 72.97) rotate(-55.86)"><tspan x="0" y="0">r</tspan></text>
  <text class="cls-1" transform="translate(47.76 71.76) rotate(-55.05)"><tspan x="0" y="0"> </tspan></text>
  <text class="cls-1" transform="translate(48.43 70.8) rotate(-54.11)"><tspan x="0" y="0">k</tspan></text>
  <text class="cls-1" transform="translate(49.57 69.22) rotate(-52.87)"><tspan x="0" y="0">n</tspan></text>
  <text class="cls-1" transform="translate(50.84 67.54) rotate(-51.52)"><tspan x="0" y="0">o</tspan></text>
  <text class="cls-1" transform="translate(52.25 65.76) rotate(-49.94)"><tspan x="0" y="0">w</tspan></text>
  <text class="cls-1" transform="translate(54.21 63.45) rotate(-48.72)"><tspan x="0" y="0">l</tspan></text>
  <text class="cls-1" transform="translate(54.83 62.72) rotate(-47.78)"><tspan x="0" y="0">e</tspan></text>
  <text class="cls-1" transform="translate(56.27 61.13) rotate(-46.41)"><tspan x="0" y="0">d</tspan></text>
  <text class="cls-1" transform="translate(57.87 59.46) rotate(-45)"><tspan x="0" y="0">g</tspan></text>
  <text class="cls-1" transform="translate(59.52 57.81) rotate(-43.64)"><tspan x="0" y="0">e</tspan></text>
  <text class="cls-1" transform="translate(61.08 56.33) rotate(-42.61)"><tspan x="0" y="0"> </tspan></text>
  <text class="cls-1" transform="translate(61.96 55.51) rotate(-41.53)"><tspan x="0" y="0">o</tspan></text>
  <text class="cls-1" transform="translate(63.7 53.97) rotate(-40.47)"><tspan x="0" y="0">f</tspan></text>
  <text class="cls-1" transform="translate(64.58 53.23) rotate(-39.75)"><tspan x="0" y="0"> </tspan></text>
  <text class="cls-1" transform="translate(65.49 52.46) rotate(-38.67)"><tspan x="0" y="0">d</tspan></text>
  <text class="cls-1" transform="translate(67.29 51.02) rotate(-37.31)"><tspan x="0" y="0">e</tspan></text>
  <text class="cls-1" transform="translate(69.03 49.7) rotate(-36.31)"><tspan x="0" y="0">t</tspan></text>
  <text class="cls-1" transform="translate(69.91 49.05) rotate(-35.3)"><tspan x="0" y="0">e</tspan></text>
  <text class="cls-1" transform="translate(71.68 47.8) rotate(-34.18)"><tspan x="0" y="0">r</tspan></text>
  <text class="cls-1" transform="translate(72.91 46.96) rotate(-32.76)"><tspan x="0" y="0">m</tspan></text>
  <text class="cls-1" transform="translate(75.5 45.3) rotate(-31.52)"><tspan x="0" y="0">i</tspan></text>
  <text class="cls-1" transform="translate(76.32 44.79) rotate(-30.57)"><tspan x="0" y="0">n</tspan></text>
  <text class="cls-1" transform="translate(78.15 43.71) rotate(-29.19)"><tspan x="0" y="0">a</tspan></text>
  <text class="cls-1" transform="translate(80.17 42.58) rotate(-27.92)"><tspan x="0" y="0">c</tspan></text>
  <text class="cls-1" transform="translate(81.8 41.72) rotate(-26.7)"><tspan x="0" y="0">y</tspan></text>
  <text class="cls-1" transform="translate(83.47 40.88) rotate(-25.83)"><tspan x="0" y="0">.</tspan></text>
  <text class="cls-1" transform="translate(84.55 40.36) rotate(-25.1)"><tspan x="0" y="0"> </tspan></text>
</svg>