<?xml version="1.0" encoding="UTF-8"?>
<svg id="Layer_19_2" data-name="Layer 19_2" xmlns="http://www.w3.org/2000/svg" viewBox="0 0 250 250">
  <defs>
    <style>
      .cls-1 {
        fill: #231f20;
        font-family: Futura-Medium, Futura;
        font-size: 3.7px;
        font-weight: 500;
      }
    </style>
  </defs>
  <text class="cls-1" transform="translate(48.59 164.9) rotate(-116.49)"><tspan x="0" y="0">O</tspan></text>
  <text class="cls-1" transform="translate(47.12 161.94) rotate(-114.74)"><tspan x="0" y="0">u</tspan></text>
  <text class="cls-1" transform="translate(46.29 160.11) rotate(-113.64)"><tspan x="0" y="0">r</tspan></text>
  <text class="cls-1" transform="translate(45.75 158.87) rotate(-112.82)"><tspan x="0" y="0"> </tspan></text>
  <text class="cls-1" transform="translate(45.29 157.81) rotate(-111.76)"><tspan x="0" y="0">e</tspan></text>
  <text class="cls-1" transform="translate(44.55 155.94) rotate(-110.74)"><tspan x="0" y="0">f</tspan></text>
  <text class="cls-1" transform="translate(44.12 154.8) rotate(-109.93)"><tspan x="0" y="0">f</tspan></text>
  <text class="cls-1" transform="translate(43.73 153.74) rotate(-108.8)"><tspan x="0" y="0">o</tspan></text>
  <text class="cls-1" transform="translate(43.02 151.64) rotate(-107.61)"><tspan x="0" y="0">r</tspan></text>
  <text class="cls-1" transform="translate(42.57 150.21) rotate(-106.73)"><tspan x="0" y="0">t</tspan></text>
  <text class="cls-1" transform="translate(42.27 149.24) rotate(-105.89)"><tspan x="0" y="0">s</tspan></text>
  <text class="cls-1" transform="translate(41.86 147.79) rotate(-105.01)"><tspan x="0" y="0"> </tspan></text>
  <text class="cls-1" transform="translate(41.57 146.69) rotate(-104.29)"><tspan x="0" y="0">t</tspan></text>
  <text class="cls-1" transform="translate(41.32 145.73) rotate(-103.22)"><tspan x="0" y="0">o</tspan></text>
  <text class="cls-1" transform="translate(40.81 143.55) rotate(-102.08)"><tspan x="0" y="0"> </tspan></text>
  <text class="cls-1" transform="translate(40.58 142.44) rotate(-101.37)"><tspan x="0" y="0">t</tspan></text>
  <text class="cls-1" transform="translate(40.37 141.44) rotate(-100.28)"><tspan x="0" y="0">o</tspan></text>
  <text class="cls-1" transform="translate(39.98 139.28) rotate(-99.17)"><tspan x="0" y="0"> </tspan></text>
  <text class="cls-1" transform="translate(39.8 138.16) rotate(-98.11)"><tspan x="0" y="0">n</tspan></text>
  <text class="cls-1" transform="translate(39.51 136.17) rotate(-96.76)"><tspan x="0" y="0">e</tspan></text>
  <text class="cls-1" transform="translate(39.27 134.13) rotate(-95.33)"><tspan x="0" y="0">a</tspan></text>
  <text class="cls-1" transform="translate(39.07 131.93) rotate(-94.26)"><tspan x="0" y="0">t</tspan></text>
  <text class="cls-1" transform="translate(39 130.94) rotate(-93.62)"><tspan x="0" y="0">l</tspan></text>
  <text class="cls-1" transform="translate(38.93 130.01) rotate(-92.64)"><tspan x="0" y="0">y</tspan></text>
  <text class="cls-1" transform="translate(38.85 128.01) rotate(-91.59)"><tspan x="0" y="0"> </tspan></text>
  <text class="cls-1" transform="translate(38.81 126.88) rotate(-90.48)"><tspan x="0" y="0">d</tspan></text>
  <text class="cls-1" transform="translate(38.79 124.67) rotate(-89.07)"><tspan x="0" y="0">e</tspan></text>
  <text class="cls-1" transform="translate(38.83 122.65) rotate(-88.09)"><tspan x="0" y="0">l</tspan></text>
  <text class="cls-1" transform="translate(38.86 121.7) rotate(-87.46)"><tspan x="0" y="0">i</tspan></text>
  <text class="cls-1" transform="translate(38.9 120.79) rotate(-86.49)"><tspan x="0" y="0">n</tspan></text>
  <text class="cls-1" transform="translate(39.02 118.79) rotate(-85.15)"><tspan x="0" y="0">e</tspan></text>
  <text class="cls-1" transform="translate(39.19 116.77) rotate(-83.75)"><tspan x="0" y="0">a</tspan></text>
  <text class="cls-1" transform="translate(39.44 114.56) rotate(-82.68)"><tspan x="0" y="0">t</tspan></text>
  <text class="cls-1" transform="translate(39.56 113.56) rotate(-81.67)"><tspan x="0" y="0">e</tspan></text>
  <text class="cls-1" transform="translate(39.86 111.54) rotate(-80.61)"><tspan x="0" y="0"> </tspan></text>
  <text class="cls-1" transform="translate(40.04 110.42) rotate(-79.5)"><tspan x="0" y="0">o</tspan></text>
  <text class="cls-1" transform="translate(40.44 108.25) rotate(-78.05)"><tspan x="0" y="0">b</tspan></text>
  <text class="cls-1" transform="translate(40.9 106.1) rotate(-77.02)"><tspan x="0" y="0">j</tspan></text>
  <text class="cls-1" transform="translate(41.11 105.19) rotate(-76.04)"><tspan x="0" y="0">e</tspan></text>
  <text class="cls-1" transform="translate(41.6 103.24) rotate(-74.8)"><tspan x="0" y="0">c</tspan></text>
  <text class="cls-1" transform="translate(42.06 101.53) rotate(-73.88)"><tspan x="0" y="0">t</tspan></text>
  <text class="cls-1" transform="translate(42.34 100.57) rotate(-73.06)"><tspan x="0" y="0">s</tspan></text>
  <text class="cls-1" transform="translate(42.77 99.15) rotate(-72.19)"><tspan x="0" y="0"> </tspan></text>
  <text class="cls-1" transform="translate(43.12 98.08) rotate(-71.47)"><tspan x="0" y="0">f</tspan></text>
  <text class="cls-1" transform="translate(43.47 97.02) rotate(-70.63)"><tspan x="0" y="0">r</tspan></text>
  <text class="cls-1" transform="translate(43.91 95.76) rotate(-69.48)"><tspan x="0" y="0">o</tspan></text>
  <text class="cls-1" transform="translate(44.67 93.7) rotate(-67.79)"><tspan x="0" y="0">m</tspan></text>
  <text class="cls-1" transform="translate(45.78 91) rotate(-66.46)"><tspan x="0" y="0"> </tspan></text>
  <text class="cls-1" transform="translate(46.23 89.97) rotate(-65.42)"><tspan x="0" y="0">n</tspan></text>
  <text class="cls-1" transform="translate(47.06 88.14) rotate(-64.02)"><tspan x="0" y="0">o</tspan></text>
  <text class="cls-1" transform="translate(48.03 86.16) rotate(-62.63)"><tspan x="0" y="0">n</tspan></text>
  <text class="cls-1" transform="translate(48.97 84.35) rotate(-61.68)"><tspan x="0" y="0">-</tspan></text>
  <text class="cls-1" transform="translate(49.34 83.66) rotate(-60.69)"><tspan x="0" y="0">o</tspan></text>
  <text class="cls-1" transform="translate(50.42 81.73) rotate(-59.23)"><tspan x="0" y="0">b</tspan></text>
  <text class="cls-1" transform="translate(51.56 79.84) rotate(-58.19)"><tspan x="0" y="0">j</tspan></text>
  <text class="cls-1" transform="translate(52.03 79.07) rotate(-57.22)"><tspan x="0" y="0">e</tspan></text>
  <text class="cls-1" transform="translate(53.13 77.36) rotate(-55.96)"><tspan x="0" y="0">c</tspan></text>
  <text class="cls-1" transform="translate(54.13 75.89) rotate(-55.03)"><tspan x="0" y="0">t</tspan></text>
  <text class="cls-1" transform="translate(54.7 75.07) rotate(-54.2)"><tspan x="0" y="0">s</tspan></text>
  <text class="cls-1" transform="translate(55.57 73.87) rotate(-53.33)"><tspan x="0" y="0"> </tspan></text>
  <text class="cls-1" transform="translate(56.24 72.96) rotate(-52.21)"><tspan x="0" y="0">o</tspan></text>
  <text class="cls-1" transform="translate(57.59 71.22) rotate(-51.12)"><tspan x="0" y="0">f</tspan></text>
  <text class="cls-1" transform="translate(58.36 70.27) rotate(-50.33)"><tspan x="0" y="0">t</tspan></text>
  <text class="cls-1" transform="translate(59.03 69.45) rotate(-49.27)"><tspan x="0" y="0">e</tspan></text>
  <text class="cls-1" transform="translate(60.35 67.92) rotate(-47.93)"><tspan x="0" y="0">n</tspan></text>
  <text class="cls-1" transform="translate(61.71 66.42) rotate(-46.87)"><tspan x="0" y="0"> </tspan></text>
  <text class="cls-1" transform="translate(62.48 65.6) rotate(-46.13)"><tspan x="0" y="0">f</tspan></text>
  <text class="cls-1" transform="translate(63.27 64.77) rotate(-44.99)"><tspan x="0" y="0">a</tspan></text>
  <text class="cls-1" transform="translate(64.84 63.21) rotate(-43.95)"><tspan x="0" y="0">i</tspan></text>
  <text class="cls-1" transform="translate(65.48 62.59) rotate(-43.34)"><tspan x="0" y="0">l</tspan></text>
  <text class="cls-1" transform="translate(66.15 61.96) rotate(-42.65)"><tspan x="0" y="0"> </tspan></text>
  <text class="cls-1" transform="translate(66.98 61.19) rotate(-41.6)"><tspan x="0" y="0">u</tspan></text>
  <text class="cls-1" transform="translate(68.47 59.86) rotate(-40.26)"><tspan x="0" y="0">n</tspan></text>
  <text class="cls-1" transform="translate(70.01 58.55) rotate(-38.85)"><tspan x="0" y="0">d</tspan></text>
  <text class="cls-1" transform="translate(71.73 57.17) rotate(-37.44)"><tspan x="0" y="0">e</tspan></text>
  <text class="cls-1" transform="translate(73.37 55.92) rotate(-36.29)"><tspan x="0" y="0">r</tspan></text>
  <text class="cls-1" transform="translate(74.46 55.12) rotate(-35.47)"><tspan x="0" y="0"> </tspan></text>
  <text class="cls-1" transform="translate(75.38 54.46) rotate(-34.51)"><tspan x="0" y="0">c</tspan></text>
  <text class="cls-1" transform="translate(76.83 53.47) rotate(-33.63)"><tspan x="0" y="0">l</tspan></text>
  <text class="cls-1" transform="translate(77.59 52.96) rotate(-32.59)"><tspan x="0" y="0">o</tspan></text>
  <text class="cls-1" transform="translate(79.46 51.77) rotate(-31.36)"><tspan x="0" y="0">s</tspan></text>
  <text class="cls-1" transform="translate(80.72 50.99) rotate(-30.21)"><tspan x="0" y="0">e</tspan></text>
  <text class="cls-1" transform="translate(82.49 49.97) rotate(-29.17)"><tspan x="0" y="0"> </tspan></text>
  <text class="cls-1" transform="translate(83.48 49.42) rotate(-28.48)"><tspan x="0" y="0">a</tspan></text>
  <text class="cls-1" transform="translate(85.4 48.38) rotate(-26.63)"><tspan x="0" y="0">n</tspan></text>
  <text class="cls-1" transform="translate(87.21 47.47) rotate(-25.34)"><tspan x="0" y="0">a</tspan></text>
  <text class="cls-1" transform="translate(89.2 46.54) rotate(-24.31)"><tspan x="0" y="0">l</tspan></text>
  <text class="cls-1" transform="translate(90.07 46.14) rotate(-23.33)"><tspan x="0" y="0">y</tspan></text>
  <text class="cls-1" transform="translate(91.89 45.36) rotate(-22.19)"><tspan x="0" y="0">s</tspan></text>
  <text class="cls-1" transform="translate(93.3 44.79) rotate(-21.37)"><tspan x="0" y="0">i</tspan></text>
  <text class="cls-1" transform="translate(94.14 44.46) rotate(-20.58)"><tspan x="0" y="0">s</tspan></text>
  <text class="cls-1" transform="translate(95.53 43.93) rotate(-19.71)"><tspan x="0" y="0">.</tspan></text>
  <text class="cls-1" transform="translate(96.6 43.55) rotate(-18.96)"><tspan x="0" y="0"> </tspan></text>
  <text class="cls-1" transform="translate(97.65 43.17) rotate(-17.5)"><tspan x="0" y="0">O</tspan></text>
  <text class="cls-1" transform="translate(100.8 42.19) rotate(-15.72)"><tspan x="0" y="0">u</tspan></text>
  <text class="cls-1" transform="translate(102.72 41.65) rotate(-14.6)"><tspan x="0" y="0">r</tspan></text>
  <text class="cls-1" transform="translate(104.07 41.3) rotate(-13.75)"><tspan x="0" y="0"> </tspan></text>
  <text class="cls-1" transform="translate(105.18 41.03) rotate(-13.06)"><tspan x="0" y="0">i</tspan></text>
  <text class="cls-1" transform="translate(106.05 40.82) rotate(-11.79)"><tspan x="0" y="0">m</tspan></text>
  <text class="cls-1" transform="translate(108.93 40.22) rotate(-10.06)"><tspan x="0" y="0">p</tspan></text>
  <text class="cls-1" transform="translate(111.12 39.84) rotate(-8.64)"><tspan x="0" y="0">u</tspan></text>
  <text class="cls-1" transform="translate(113.09 39.54) rotate(-7.67)"><tspan x="0" y="0">l</tspan></text>
  <text class="cls-1" transform="translate(113.98 39.42) rotate(-6.87)"><tspan x="0" y="0">s</tspan></text>
  <text class="cls-1" transform="translate(115.47 39.24) rotate(-5.68)"><tspan x="0" y="0">e</tspan></text>
  <text class="cls-1" transform="translate(117.49 39.04) rotate(-4.63)"><tspan x="0" y="0"> </tspan></text>
  <text class="cls-1" transform="translate(118.64 38.95) rotate(-3.91)"><tspan x="0" y="0">t</tspan></text>
  <text class="cls-1" transform="translate(119.67 38.87) rotate(-2.81)"><tspan x="0" y="0">o</tspan></text>
  <text class="cls-1" transform="translate(121.87 38.77) rotate(-1.7)"><tspan x="0" y="0"> </tspan></text>
  <text class="cls-1" transform="translate(123 38.73) rotate(-.59)"><tspan x="0" y="0">d</tspan></text>
  <text class="cls-1" transform="translate(125.18 38.71) rotate(.87)"><tspan x="0" y="0">o</tspan></text>
  <text class="cls-1" transform="translate(127.42 38.75) rotate(2)"><tspan x="0" y="0"> </tspan></text>
  <text class="cls-1" transform="translate(128.54 38.78) rotate(2.86)"><tspan x="0" y="0">s</tspan></text>
  <text class="cls-1" transform="translate(130.03 38.85) rotate(4.09)"><tspan x="0" y="0">o</tspan></text>
  <text class="cls-1" transform="translate(132.22 39.02) rotate(5.19)"><tspan x="0" y="0"> </tspan></text>
  <text class="cls-1" transform="translate(133.37 39.12) rotate(5.88)"><tspan x="0" y="0">i</tspan></text>
  <text class="cls-1" transform="translate(134.27 39.21) rotate(6.68)"><tspan x="0" y="0">s</tspan></text>
  <text class="cls-1" transform="translate(135.74 39.39) rotate(7.54)"><tspan x="0" y="0"> </tspan></text>
  <text class="cls-1" transform="translate(136.88 39.53) rotate(8.89)"><tspan x="0" y="0">m</tspan></text>
  <text class="cls-1" transform="translate(139.76 39.98) rotate(10.58)"><tspan x="0" y="0">o</tspan></text>
  <text class="cls-1" transform="translate(141.94 40.39) rotate(11.66)"><tspan x="0" y="0">t</tspan></text>
  <text class="cls-1" transform="translate(142.94 40.6) rotate(12.3)"><tspan x="0" y="0">i</tspan></text>
  <text class="cls-1" transform="translate(143.81 40.79) rotate(13.19)"><tspan x="0" y="0">v</tspan></text>
  <text class="cls-1" transform="translate(145.56 41.19) rotate(14.5)"><tspan x="0" y="0">a</tspan></text>
  <text class="cls-1" transform="translate(147.7 41.75) rotate(15.57)"><tspan x="0" y="0">t</tspan></text>
  <text class="cls-1" transform="translate(148.7 42.03) rotate(16.59)"><tspan x="0" y="0">e</tspan></text>
  <text class="cls-1" transform="translate(150.63 42.6) rotate(17.98)"><tspan x="0" y="0">d</tspan></text>
  <text class="cls-1" transform="translate(152.74 43.29) rotate(19.09)"><tspan x="0" y="0"> </tspan></text>
  <text class="cls-1" transform="translate(153.8 43.65) rotate(20.18)"><tspan x="0" y="0">b</tspan></text>
  <text class="cls-1" transform="translate(155.81 44.39) rotate(21.52)"><tspan x="0" y="0">y</tspan></text>
  <text class="cls-1" transform="translate(157.68 45.13) rotate(22.57)"><tspan x="0" y="0"> </tspan></text>
  <text class="cls-1" transform="translate(158.71 45.55) rotate(23.66)"><tspan x="0" y="0">o</tspan></text>
  <text class="cls-1" transform="translate(160.73 46.44) rotate(25.05)"><tspan x="0" y="0">u</tspan></text>
  <text class="cls-1" transform="translate(162.54 47.29) rotate(26.17)"><tspan x="0" y="0">r</tspan></text>
  <text class="cls-1" transform="translate(163.79 47.9) rotate(27)"><tspan x="0" y="0"> </tspan></text>
  <text class="cls-1" transform="translate(164.78 48.41) rotate(28.04)"><tspan x="0" y="0">n</tspan></text>
  <text class="cls-1" transform="translate(166.56 49.35) rotate(29.43)"><tspan x="0" y="0">a</tspan></text>
  <text class="cls-1" transform="translate(168.5 50.45) rotate(30.51)"><tspan x="0" y="0">t</tspan></text>
  <text class="cls-1" transform="translate(169.35 50.95) rotate(31.51)"><tspan x="0" y="0">u</tspan></text>
  <text class="cls-1" transform="translate(171.07 52) rotate(32.63)"><tspan x="0" y="0">r</tspan></text>
  <text class="cls-1" transform="translate(172.2 52.72) rotate(33.8)"><tspan x="0" y="0">a</tspan></text>
  <text class="cls-1" transform="translate(174.03 53.96) rotate(34.84)"><tspan x="0" y="0">l</tspan></text>
  <text class="cls-1" transform="translate(174.78 54.47) rotate(35.52)"><tspan x="0" y="0"> </tspan></text>
  <text class="cls-1" transform="translate(175.72 55.14) rotate(36.59)"><tspan x="0" y="0">h</tspan></text>
  <text class="cls-1" transform="translate(177.33 56.33) rotate(37.98)"><tspan x="0" y="0">a</tspan></text>
  <text class="cls-1" transform="translate(179.06 57.69) rotate(39.45)"><tspan x="0" y="0">b</tspan></text>
  <text class="cls-1" transform="translate(180.77 59.1) rotate(40.51)"><tspan x="0" y="0">i</tspan></text>
  <text class="cls-1" transform="translate(181.46 59.69) rotate(41.14)"><tspan x="0" y="0">t</tspan></text>
  <text class="cls-1" transform="translate(182.21 60.34) rotate(41.85)"><tspan x="0" y="0"> </tspan></text>
  <text class="cls-1" transform="translate(183.07 61.11) rotate(42.58)"><tspan x="0" y="0">t</tspan></text>
  <text class="cls-1" transform="translate(183.81 61.79) rotate(43.66)"><tspan x="0" y="0">o</tspan></text>
  <text class="cls-1" transform="translate(185.42 63.34) rotate(44.79)"><tspan x="0" y="0"> </tspan></text>
  <text class="cls-1" transform="translate(186.22 64.12) rotate(45.9)"><tspan x="0" y="0">d</tspan></text>
  <text class="cls-1" transform="translate(187.76 65.71) rotate(46.95)"><tspan x="0" y="0">i</tspan></text>
  <text class="cls-1" transform="translate(188.38 66.38) rotate(47.75)"><tspan x="0" y="0">s</tspan></text>
  <text class="cls-1" transform="translate(189.38 67.48) rotate(48.58)"><tspan x="0" y="0">t</tspan></text>
  <text class="cls-1" transform="translate(190.04 68.23) rotate(49.22)"><tspan x="0" y="0">i</tspan></text>
  <text class="cls-1" transform="translate(190.65 68.92) rotate(50.21)"><tspan x="0" y="0">n</tspan></text>
  <text class="cls-1" transform="translate(191.94 70.48) rotate(51.62)"><tspan x="0" y="0">g</tspan></text>
  <text class="cls-1" transform="translate(193.3 72.19) rotate(53.01)"><tspan x="0" y="0">u</tspan></text>
  <text class="cls-1" transform="translate(194.5 73.8) rotate(53.98)"><tspan x="0" y="0">i</tspan></text>
  <text class="cls-1" transform="translate(195.05 74.55) rotate(54.79)"><tspan x="0" y="0">s</tspan></text>
  <text class="cls-1" transform="translate(195.9 75.75) rotate(55.94)"><tspan x="0" y="0">h</tspan></text>
  <text class="cls-1" transform="translate(197.03 77.42) rotate(56.98)"><tspan x="0" y="0"> </tspan></text>
  <text class="cls-1" transform="translate(197.65 78.37) rotate(58.09)"><tspan x="0" y="0">o</tspan></text>
  <text class="cls-1" transform="translate(198.81 80.24) rotate(59.47)"><tspan x="0" y="0">u</tspan></text>
  <text class="cls-1" transform="translate(199.83 81.97) rotate(60.58)"><tspan x="0" y="0">r</tspan></text>
  <text class="cls-1" transform="translate(200.5 83.16) rotate(61.51)"><tspan x="0" y="0">s</tspan></text>
  <text class="cls-1" transform="translate(201.23 84.47) rotate(63.37)"><tspan x="0" y="0">e</tspan></text>
  <text class="cls-1" transform="translate(202.15 86.28) rotate(63.62)"><tspan x="0" y="0">l</tspan></text>
  <text class="cls-1" transform="translate(202.57 87.13) rotate(64.55)"><tspan x="0" y="0">v</tspan></text>
  <text class="cls-1" transform="translate(203.34 88.75) rotate(65.79)"><tspan x="0" y="0">e</tspan></text>
  <text class="cls-1" transform="translate(204.18 90.61) rotate(66.95)"><tspan x="0" y="0">s</tspan></text>
  <text class="cls-1" transform="translate(204.76 91.97) rotate(67.81)"><tspan x="0" y="0"> </tspan></text>
  <text class="cls-1" transform="translate(205.19 93.04) rotate(68.56)"><tspan x="0" y="0">f</tspan></text>
  <text class="cls-1" transform="translate(205.59 94.05) rotate(69.37)"><tspan x="0" y="0">r</tspan></text>
  <text class="cls-1" transform="translate(206.07 95.3) rotate(70.55)"><tspan x="0" y="0">o</tspan></text>
  <text class="cls-1" transform="translate(206.8 97.36) rotate(72.23)"><tspan x="0" y="0">m</tspan></text>
  <text class="cls-1" transform="translate(207.68 100.14) rotate(73.58)"><tspan x="0" y="0"> </tspan></text>
  <text class="cls-1" transform="translate(208.01 101.23) rotate(74.7)"><tspan x="0" y="0">o</tspan></text>
  <text class="cls-1" transform="translate(208.59 103.36) rotate(76.11)"><tspan x="0" y="0">u</tspan></text>
  <text class="cls-1" transform="translate(209.06 105.29) rotate(77.23)"><tspan x="0" y="0">r</tspan></text>
  <text class="cls-1" transform="translate(209.37 106.64) rotate(78.08)"><tspan x="0" y="0"> </tspan></text>
  <text class="cls-1" transform="translate(209.61 107.77) rotate(78.97)"><tspan x="0" y="0">s</tspan></text>
  <text class="cls-1" transform="translate(209.89 109.21) rotate(80.12)"><tspan x="0" y="0">u</tspan></text>
  <text class="cls-1" transform="translate(210.23 111.18) rotate(81.25)"><tspan x="0" y="0">r</tspan></text>
  <text class="cls-1" transform="translate(210.45 112.62) rotate(82.22)"><tspan x="0" y="0">r</tspan></text>
  <text class="cls-1" transform="translate(210.63 113.93) rotate(83.39)"><tspan x="0" y="0">o</tspan></text>
  <text class="cls-1" transform="translate(210.89 116.13) rotate(84.8)"><tspan x="0" y="0">u</tspan></text>
  <text class="cls-1" transform="translate(211.07 118.11) rotate(86.14)"><tspan x="0" y="0">n</tspan></text>
  <text class="cls-1" transform="translate(211.21 120.14) rotate(87.56)"><tspan x="0" y="0">d</tspan></text>
  <text class="cls-1" transform="translate(211.29 122.33) rotate(88.58)"><tspan x="0" y="0">i</tspan></text>
  <text class="cls-1" transform="translate(211.32 123.24) rotate(89.57)"><tspan x="0" y="0">n</tspan></text>
  <text class="cls-1" transform="translate(211.34 125.27) rotate(90.98)"><tspan x="0" y="0">g</tspan></text>
  <text class="cls-1" transform="translate(211.3 127.45) rotate(92.19)"><tspan x="0" y="0">s</tspan></text>
  <text class="cls-1" transform="translate(211.24 128.96) rotate(93.08)"><tspan x="0" y="0">,</tspan></text>
  <text class="cls-1" transform="translate(211.18 130.1) rotate(93.84)"><tspan x="0" y="0"> </tspan></text>
  <text class="cls-1" transform="translate(211.1 131.23) rotate(94.55)"><tspan x="0" y="0">t</tspan></text>
  <text class="cls-1" transform="translate(211.03 132.25) rotate(95.62)"><tspan x="0" y="0">o</tspan></text>
  <text class="cls-1" transform="translate(210.81 134.43) rotate(96.72)"><tspan x="0" y="0"> </tspan></text>
  <text class="cls-1" transform="translate(210.67 135.57) rotate(97.56)"><tspan x="0" y="0">r</tspan></text>
  <text class="cls-1" transform="translate(210.5 136.91) rotate(98.68)"><tspan x="0" y="0">e</tspan></text>
  <text class="cls-1" transform="translate(210.19 138.91) rotate(100.07)"><tspan x="0" y="0">a</tspan></text>
  <text class="cls-1" transform="translate(209.8 141.09) rotate(101.16)"><tspan x="0" y="0">f</tspan></text>
  <text class="cls-1" transform="translate(209.57 142.26) rotate(101.95)"><tspan x="0" y="0">f</tspan></text>
  <text class="cls-1" transform="translate(209.32 143.43) rotate(102.68)"><tspan x="0" y="0">i</tspan></text>
  <text class="cls-1" transform="translate(209.13 144.3) rotate(103.43)"><tspan x="0" y="0">r</tspan></text>
  <text class="cls-1" transform="translate(208.8 145.7) rotate(104.88)"><tspan x="0" y="0">m</tspan></text>
  <text class="cls-1" transform="translate(208.04 148.52) rotate(106.23)"><tspan x="0" y="0"> </tspan></text>
  <text class="cls-1" transform="translate(207.74 149.59) rotate(107.32)"><tspan x="0" y="0">o</tspan></text>
  <text class="cls-1" transform="translate(207.08 151.7) rotate(108.7)"><tspan x="0" y="0">u</tspan></text>
  <text class="cls-1" transform="translate(206.43 153.62) rotate(109.84)"><tspan x="0" y="0">r</tspan></text>
  <text class="cls-1" transform="translate(205.97 154.89) rotate(110.65)"><tspan x="0" y="0"> </tspan></text>
  <text class="cls-1" transform="translate(205.57 155.96) rotate(111.76)"><tspan x="0" y="0">o</tspan></text>
  <text class="cls-1" transform="translate(204.78 157.95) rotate(113.38)"><tspan x="0" y="0">w</tspan></text>
  <text class="cls-1" transform="translate(203.65 160.56) rotate(114.99)"><tspan x="0" y="0">n</tspan></text>
  <text class="cls-1" transform="translate(202.79 162.39) rotate(116.04)"><tspan x="0" y="0"> </tspan></text>
  <text class="cls-1" transform="translate(202.3 163.4) rotate(116.7)"><tspan x="0" y="0">i</tspan></text>
  <text class="cls-1" transform="translate(201.89 164.21) rotate(117.73)"><tspan x="0" y="0">d</tspan></text>
  <text class="cls-1" transform="translate(200.86 166.17) rotate(119.14)"><tspan x="0" y="0">e</tspan></text>
  <text class="cls-1" transform="translate(199.87 167.95) rotate(120.49)"><tspan x="0" y="0">n</tspan></text>
  <text class="cls-1" transform="translate(198.85 169.67) rotate(121.48)"><tspan x="0" y="0">t</tspan></text>
  <text class="cls-1" transform="translate(198.32 170.54) rotate(122.13)"><tspan x="0" y="0">i</tspan></text>
  <text class="cls-1" transform="translate(197.84 171.3) rotate(122.76)"><tspan x="0" y="0">t</tspan></text>
  <text class="cls-1" transform="translate(197.3 172.15) rotate(123.76)"><tspan x="0" y="0">y</tspan></text>
  <text class="cls-1" transform="translate(196.19 173.81) rotate(124.8)"><tspan x="0" y="0"> </tspan></text>
  <text class="cls-1" transform="translate(195.55 174.73) rotate(125.91)"><tspan x="0" y="0">a</tspan></text>
  <text class="cls-1" transform="translate(194.24 176.53) rotate(127.15)"><tspan x="0" y="0">s</tspan></text>
  <text class="cls-1" transform="translate(193.34 177.72) rotate(128.03)"><tspan x="0" y="0"> </tspan></text>
  <text class="cls-1" transform="translate(192.65 178.61) rotate(129.14)"><tspan x="0" y="0">a</tspan></text>
  <text class="cls-1" transform="translate(191.25 180.33) rotate(130.26)"><tspan x="0" y="0"> </tspan></text>
  <text class="cls-1" transform="translate(190.52 181.2) rotate(131.36)"><tspan x="0" y="0">S</tspan></text>
  <text class="cls-1" transform="translate(189.11 182.8) rotate(132.75)"><tspan x="0" y="0">e</tspan></text>
  <text class="cls-1" transform="translate(187.72 184.29) rotate(133.74)"><tspan x="0" y="0">l</tspan></text>
  <text class="cls-1" transform="translate(187.09 184.95) rotate(134.41)"><tspan x="0" y="0">f</tspan></text>
  <text class="cls-1" transform="translate(186.34 185.72) rotate(135.14)"><tspan x="0" y="0"> </tspan></text>
  <text class="cls-1" transform="translate(185.52 186.54) rotate(136.28)"><tspan x="0" y="0">a</tspan></text>
  <text class="cls-1" transform="translate(183.94 188.05) rotate(137.98)"><tspan x="0" y="0">m</tspan></text>
  <text class="cls-1" transform="translate(181.78 190) rotate(139.69)"><tspan x="0" y="0">o</tspan></text>
  <text class="cls-1" transform="translate(180.09 191.43) rotate(141.1)"><tspan x="0" y="0">n</tspan></text>
  <text class="cls-1" transform="translate(178.52 192.7) rotate(142.52)"><tspan x="0" y="0">g</tspan></text>
  <text class="cls-1" transform="translate(176.77 194.03) rotate(143.62)"><tspan x="0" y="0"> </tspan></text>
  <text class="cls-1" transform="translate(175.86 194.7) rotate(144.33)"><tspan x="0" y="0">t</tspan></text>
  <text class="cls-1" transform="translate(175 195.33) rotate(145.38)"><tspan x="0" y="0">h</tspan></text>
  <text class="cls-1" transform="translate(173.35 196.47) rotate(146.71)"><tspan x="0" y="0">e</tspan></text>
  <text class="cls-1" transform="translate(171.62 197.6) rotate(147.78)"><tspan x="0" y="0"> </tspan></text>
  <text class="cls-1" transform="translate(170.68 198.19) rotate(148.75)"><tspan x="0" y="0">v</tspan></text>
  <text class="cls-1" transform="translate(169.15 199.13) rotate(150.04)"><tspan x="0" y="0">a</tspan></text>
  <text class="cls-1" transform="translate(167.25 200.22) rotate(151.24)"><tspan x="0" y="0">s</tspan></text>
  <text class="cls-1" transform="translate(165.93 200.93) rotate(151.52)"><tspan x="0" y="0">t</tspan></text>
  <text class="cls-1" transform="translate(165.04 201.42) rotate(153.37)"><tspan x="0" y="0"> </tspan></text>
  <text class="cls-1" transform="translate(164.05 201.93) rotate(154.05)"><tspan x="0" y="0">w</tspan></text>
  <text class="cls-1" transform="translate(161.55 203.14) rotate(155.66)"><tspan x="0" y="0">o</tspan></text>
  <text class="cls-1" transform="translate(159.54 204.05) rotate(156.84)"><tspan x="0" y="0">r</tspan></text>
  <text class="cls-1" transform="translate(158.22 204.61) rotate(157.63)"><tspan x="0" y="0">l</tspan></text>
  <text class="cls-1" transform="translate(157.37 204.97) rotate(158.67)"><tspan x="0" y="0">d</tspan></text>
  <text class="cls-1" transform="translate(155.31 205.76) rotate(159.78)"><tspan x="0" y="0"> </tspan></text>
  <text class="cls-1" transform="translate(154.26 206.16) rotate(160.88)"><tspan x="0" y="0">o</tspan></text>
  <text class="cls-1" transform="translate(152.16 206.88) rotate(161.99)"><tspan x="0" y="0">f</tspan></text>
  <text class="cls-1" transform="translate(151.13 207.22) rotate(162.73)"><tspan x="0" y="0"> </tspan></text>
  <text class="cls-1" transform="translate(150.04 207.56) rotate(163.45)"><tspan x="0" y="0">t</tspan></text>
  <text class="cls-1" transform="translate(149.01 207.86) rotate(164.5)"><tspan x="0" y="0">h</tspan></text>
  <text class="cls-1" transform="translate(147.07 208.4) rotate(165.86)"><tspan x="0" y="0">e</tspan></text>
  <text class="cls-1" transform="translate(145.09 208.9) rotate(166.92)"><tspan x="0" y="0"> </tspan></text>
  <text class="cls-1" transform="translate(144.01 209.16) rotate(168.39)"><tspan x="0" y="0">O</tspan></text>
  <text class="cls-1" transform="translate(140.77 209.82) rotate(169.83)"><tspan x="0" y="0">t</tspan></text>
  <text class="cls-1" transform="translate(139.71 210.01) rotate(170.9)"><tspan x="0" y="0">h</tspan></text>
  <text class="cls-1" transform="translate(137.72 210.33) rotate(172.24)"><tspan x="0" y="0">e</tspan></text>
  <text class="cls-1" transform="translate(135.7 210.6) rotate(173.39)"><tspan x="0" y="0">r</tspan></text>
  <text class="cls-1" transform="translate(134.53 210.74) rotate(174.1)"><tspan x="0" y="0">.</tspan></text>
</svg>