<?xml version="1.0" encoding="UTF-8"?>
<svg id="Layer_3" data-name="Layer 3" xmlns="http://www.w3.org/2000/svg" viewBox="0 0 250 250">
  <defs>
    <style>
      .cls-1 {
        font-family: Futura-Medium, Futura;
        font-weight: 500;
      }

      .cls-1, .cls-2 {
        fill: #231f20;
        font-size: 2.1px;
      }

      .cls-2 {
        font-family: Futura-CondensedExtraBold, Futura;
        font-weight: 700;
      }
    </style>
  </defs>
  <text class="cls-1" transform="translate(102.08 137.89) rotate(-117.8)"><tspan x="0" y="0">D</tspan></text>
  <text class="cls-1" transform="translate(101.39 136.57) rotate(-114.99)"><tspan x="0" y="0">u</tspan></text>
  <text class="cls-1" transform="translate(100.91 135.53) rotate(-112.91)"><tspan x="0" y="0">r</tspan></text>
  <text class="cls-1" transform="translate(100.61 134.8) rotate(-111.47)"><tspan x="0" y="0">i</tspan></text>
  <text class="cls-1" transform="translate(100.42 134.33) rotate(-109.66)"><tspan x="0" y="0">n</tspan></text>
  <text class="cls-1" transform="translate(100.03 133.26) rotate(-107.06)"><tspan x="0" y="0">g</tspan></text>
  <text class="cls-1" transform="translate(99.67 132.08) rotate(-105)"><tspan x="0" y="0"> </tspan></text>
  <text class="cls-1" transform="translate(99.5 131.46) rotate(-102.69)"><tspan x="0" y="0">C</tspan></text>
  <text class="cls-1" transform="translate(99.18 130.04) rotate(-99.72)"><tspan x="0" y="0">o</tspan></text>
  <text class="cls-1" transform="translate(98.98 128.85) rotate(-97.29)"><tspan x="0" y="0">v</tspan></text>
  <text class="cls-1" transform="translate(98.85 127.81) rotate(-95.58)"><tspan x="0" y="0">i</tspan></text>
  <text class="cls-1" transform="translate(98.79 127.31) rotate(-93.66)"><tspan x="0" y="0">d</tspan></text>
  <text class="cls-1" transform="translate(98.72 126.07) rotate(-91.62)"><tspan x="0" y="0"> </tspan></text>
  <text class="cls-1" transform="translate(98.69 125.45) rotate(-89.19)"><tspan x="0" y="0">w</tspan></text>
  <text class="cls-1" transform="translate(98.72 123.87) rotate(-86.25)"><tspan x="0" y="0">e</tspan></text>
  <text class="cls-1" transform="translate(98.8 122.71) rotate(-84.27)"><tspan x="0" y="0"> </tspan></text>
  <text class="cls-1" transform="translate(98.86 122.09) rotate(-82.26)"><tspan x="0" y="0">a</tspan></text>
  <text class="cls-1" transform="translate(99.03 120.85) rotate(-80.33)"><tspan x="0" y="0">l</tspan></text>
  <text class="cls-1" transform="translate(99.12 120.34) rotate(-79.22)"><tspan x="0" y="0">l</tspan></text>
  <text class="cls-1" transform="translate(99.21 119.84) rotate(-77.98)"><tspan x="0" y="0"> </tspan></text>
  <text class="cls-1" transform="translate(99.33 119.22) rotate(-75.54)"><tspan x="0" y="0">w</tspan></text>
  <text class="cls-1" transform="translate(99.73 117.71) rotate(-72.56)"><tspan x="0" y="0">o</tspan></text>
  <text class="cls-1" transform="translate(100.11 116.51) rotate(-70.33)"><tspan x="0" y="0">r</tspan></text>
  <text class="cls-1" transform="translate(100.36 115.79) rotate(-68.28)"><tspan x="0" y="0">e</tspan></text>
  <text class="cls-1" transform="translate(100.79 114.73) rotate(-66.35)"><tspan x="0" y="0"> </tspan></text>
  <text class="cls-1" transform="translate(101.02 114.16) rotate(-63.9)"><tspan x="0" y="0">m</tspan></text>
  <text class="cls-1" transform="translate(101.76 112.67) rotate(-60.71)"><tspan x="0" y="0">a</tspan></text>
  <text class="cls-1" transform="translate(102.37 111.6) rotate(-58.46)"><tspan x="0" y="0">s</tspan></text>
  <text class="cls-1" transform="translate(102.8 110.88) rotate(-56.42)"><tspan x="0" y="0">k</tspan></text>
  <text class="cls-1" transform="translate(103.38 110.02) rotate(-54.38)"><tspan x="0" y="0">s</tspan></text>
  <text class="cls-1" transform="translate(103.87 109.34) rotate(-52.75)"><tspan x="0" y="0">,</tspan></text>
  <text class="cls-1" transform="translate(104.24 108.85) rotate(-51.39)"><tspan x="0" y="0"> </tspan></text>
  <text class="cls-1" transform="translate(104.64 108.33) rotate(-49.28)"><tspan x="0" y="0">o</tspan></text>
  <text class="cls-1" transform="translate(105.46 107.38) rotate(-46.53)"><tspan x="0" y="0">b</tspan></text>
  <text class="cls-1" transform="translate(106.31 106.49) rotate(-44.26)"><tspan x="0" y="0">s</tspan></text>
  <text class="cls-1" transform="translate(106.91 105.9) rotate(-42.25)"><tspan x="0" y="0">c</tspan></text>
  <text class="cls-1" transform="translate(107.65 105.23) rotate(-39.92)"><tspan x="0" y="0">u</tspan></text>
  <text class="cls-1" transform="translate(108.51 104.51) rotate(-37.85)"><tspan x="0" y="0">r</tspan></text>
  <text class="cls-1" transform="translate(109.14 104.03) rotate(-36.41)"><tspan x="0" y="0">i</tspan></text>
  <text class="cls-1" transform="translate(109.55 103.72) rotate(-34.6)"><tspan x="0" y="0">n</tspan></text>
  <text class="cls-1" transform="translate(110.47 103.08) rotate(-32.06)"><tspan x="0" y="0">g</tspan></text>
  <text class="cls-1" transform="translate(111.54 102.42) rotate(-30.36)"><tspan x="0" y="0"> </tspan></text>
  <text class="cls-1" transform="translate(112.09 102.09) rotate(-27.98)"><tspan x="0" y="0">o</tspan></text>
  <text class="cls-1" transform="translate(113.19 101.51) rotate(-25.44)"><tspan x="0" y="0">u</tspan></text>
  <text class="cls-1" transform="translate(114.21 101.03) rotate(-23.36)"><tspan x="0" y="0">r</tspan></text>
  <text class="cls-1" transform="translate(114.93 100.72) rotate(-21.83)"><tspan x="0" y="0"> </tspan></text>
  <text class="cls-2" transform="translate(115.52 100.48) rotate(-20.47)"><tspan x="0" y="0">i</tspan></text>
  <text class="cls-2" transform="translate(116.06 100.27) rotate(-18.58)"><tspan x="0" y="0">n</tspan></text>
  <text class="cls-2" transform="translate(117.15 99.91) rotate(-16.07)"><tspan x="0" y="0">n</tspan></text>
  <text class="cls-2" transform="translate(118.25 99.59) rotate(-13.58)"><tspan x="0" y="0">e</tspan></text>
  <text class="cls-2" transform="translate(119.35 99.33) rotate(-11.44)"><tspan x="0" y="0">r</tspan></text>
  <text class="cls-2" transform="translate(120.15 99.17) rotate(-9.85)"><tspan x="0" y="0"> </tspan></text>
  <text class="cls-2" transform="translate(120.76 99.06) rotate(-8.53)"><tspan x="0" y="0">i</tspan></text>
  <text class="cls-2" transform="translate(121.34 98.97) rotate(-6.59)"><tspan x="0" y="0">d</tspan></text>
  <text class="cls-2" transform="translate(122.49 98.84) rotate(-4.09)"><tspan x="0" y="0">e</tspan></text>
  <text class="cls-2" transform="translate(123.61 98.76) rotate(-1.61)"><tspan x="0" y="0">n</tspan></text>
  <text class="cls-2" transform="translate(124.75 98.73) rotate(.38)"><tspan x="0" y="0">t</tspan></text>
  <text class="cls-2" transform="translate(125.48 98.73) rotate(1.85)"><tspan x="0" y="0">i</tspan></text>
  <text class="cls-2" transform="translate(126.05 98.75) rotate(3.23)"><tspan x="0" y="0">t</tspan></text>
  <text class="cls-2" transform="translate(126.76 98.79) rotate(5.17)"><tspan x="0" y="0">y</tspan></text>
  <text class="cls-1" transform="translate(127.82 98.89) rotate(7.02)"><tspan x="0" y="0"> </tspan></text>
  <text class="cls-1" transform="translate(128.47 98.97) rotate(8.3)"><tspan x="0" y="0">i</tspan></text>
  <text class="cls-1" transform="translate(128.98 99.04) rotate(10.1)"><tspan x="0" y="0">n</tspan></text>
  <text class="cls-1" transform="translate(130.08 99.24) rotate(11.99)"><tspan x="0" y="0"> </tspan></text>
  <text class="cls-1" transform="translate(130.7 99.36) rotate(14.03)"><tspan x="0" y="0">o</tspan></text>
  <text class="cls-1" transform="translate(131.93 99.67) rotate(16.25)"><tspan x="0" y="0">r</tspan></text>
  <text class="cls-1" transform="translate(132.65 99.88) rotate(18.39)"><tspan x="0" y="0">d</tspan></text>
  <text class="cls-1" transform="translate(133.81 100.27) rotate(20.95)"><tspan x="0" y="0">e</tspan></text>
  <text class="cls-1" transform="translate(134.89 100.68) rotate(23.05)"><tspan x="0" y="0">r</tspan></text>
  <text class="cls-1" transform="translate(135.6 100.99) rotate(24.59)"><tspan x="0" y="0"> </tspan></text>
  <text class="cls-1" transform="translate(136.2 101.26) rotate(25.93)"><tspan x="0" y="0">t</tspan></text>
  <text class="cls-1" transform="translate(136.71 101.5) rotate(27.9)"><tspan x="0" y="0">o</tspan></text>
  <text class="cls-1" transform="translate(137.81 102.09) rotate(29.98)"><tspan x="0" y="0"> </tspan></text>
  <text class="cls-1" transform="translate(138.36 102.4) rotate(32.01)"><tspan x="0" y="0">p</tspan></text>
  <text class="cls-1" transform="translate(139.42 103.07) rotate(34.23)"><tspan x="0" y="0">r</tspan></text>
  <text class="cls-1" transform="translate(140.03 103.48) rotate(36.37)"><tspan x="0" y="0">o</tspan></text>
  <text class="cls-1" transform="translate(141.04 104.23) rotate(38.39)"><tspan x="0" y="0">t</tspan></text>
  <text class="cls-1" transform="translate(141.49 104.58) rotate(40.28)"><tspan x="0" y="0">e</tspan></text>
  <text class="cls-1" transform="translate(142.38 105.33) rotate(42.67)"><tspan x="0" y="0">c</tspan></text>
  <text class="cls-1" transform="translate(143.1 106) rotate(44.36)"><tspan x="0" y="0">t</tspan></text>
  <text class="cls-1" transform="translate(143.51 106.4) rotate(45.69)"><tspan x="0" y="0"> </tspan></text>
  <text class="cls-1" transform="translate(143.95 106.84) rotate(47.74)"><tspan x="0" y="0">o</tspan></text>
  <text class="cls-1" transform="translate(144.8 107.79) rotate(49.77)"><tspan x="0" y="0">t</tspan></text>
  <text class="cls-1" transform="translate(145.18 108.24) rotate(51.7)"><tspan x="0" y="0">h</tspan></text>
  <text class="cls-1" transform="translate(145.9 109.14) rotate(54.22)"><tspan x="0" y="0">e</tspan></text>
  <text class="cls-1" transform="translate(146.56 110.07) rotate(56.31)"><tspan x="0" y="0">r</tspan></text>
  <text class="cls-1" transform="translate(146.99 110.71) rotate(58.03)"><tspan x="0" y="0">s</tspan></text>
  <text class="cls-1" transform="translate(147.43 111.42) rotate(59.61)"><tspan x="0" y="0">.</tspan></text>
  <text class="cls-1" transform="translate(147.76 111.97) rotate(61.5)"><tspan x="0" y="0"> </tspan></text>
  <text class="cls-1" transform="translate(148.07 112.53) rotate(62.74)"><tspan x="0" y="0">T</tspan></text>
  <text class="cls-1" transform="translate(148.53 113.42) rotate(65.06)"><tspan x="0" y="0">h</tspan></text>
  <text class="cls-1" transform="translate(149.01 114.45) rotate(67.54)"><tspan x="0" y="0">e</tspan></text>
  <text class="cls-1" transform="translate(149.43 115.49) rotate(69.44)"><tspan x="0" y="0"> </tspan></text>
  <text class="cls-1" transform="translate(149.67 116.09) rotate(71.95)"><tspan x="0" y="0">m</tspan></text>
  <text class="cls-1" transform="translate(150.17 117.64) rotate(75.09)"><tspan x="0" y="0">a</tspan></text>
  <text class="cls-1" transform="translate(150.49 118.85) rotate(77.4)"><tspan x="0" y="0">s</tspan></text>
  <text class="cls-1" transform="translate(150.67 119.66) rotate(79.44)"><tspan x="0" y="0">k</tspan></text>
  <text class="cls-1" transform="translate(150.86 120.68) rotate(81.51)"><tspan x="0" y="0">s</tspan></text>
  <text class="cls-1" transform="translate(150.98 121.52) rotate(83.14)"><tspan x="0" y="0"> </tspan></text>
  <text class="cls-1" transform="translate(151.07 122.14) rotate(85.6)"><tspan x="0" y="0">w</tspan></text>
  <text class="cls-1" transform="translate(151.19 123.72) rotate(88.56)"><tspan x="0" y="0">e</tspan></text>
  <text class="cls-1" transform="translate(151.21 124.86) rotate(90.64)"><tspan x="0" y="0">r</tspan></text>
  <text class="cls-1" transform="translate(151.21 125.62) rotate(92.72)"><tspan x="0" y="0">e</tspan></text>
  <text class="cls-1" transform="translate(151.15 126.75) rotate(94.61)"><tspan x="0" y="0"> </tspan></text>
  <text class="cls-1" transform="translate(151.1 127.41) rotate(96.59)"><tspan x="0" y="0">u</tspan></text>
  <text class="cls-1" transform="translate(150.98 128.5) rotate(98.99)"><tspan x="0" y="0">n</tspan></text>
  <text class="cls-1" transform="translate(150.8 129.62) rotate(101.3)"><tspan x="0" y="0">c</tspan></text>
  <text class="cls-1" transform="translate(150.61 130.6) rotate(103.74)"><tspan x="0" y="0">o</tspan></text>
  <text class="cls-1" transform="translate(150.32 131.8) rotate(106.85)"><tspan x="0" y="0">m</tspan></text>
  <text class="cls-1" transform="translate(149.83 133.39) rotate(109.33)"><tspan x="0" y="0">f</tspan></text>
  <text class="cls-1" transform="translate(149.62 133.98) rotate(111.38)"><tspan x="0" y="0">o</tspan></text>
  <text class="cls-1" transform="translate(149.17 135.14) rotate(113.56)"><tspan x="0" y="0">r</tspan></text>
  <text class="cls-1" transform="translate(148.82 135.92) rotate(115.19)"><tspan x="0" y="0">t</tspan></text>
  <text class="cls-1" transform="translate(148.6 136.42) rotate(117.13)"><tspan x="0" y="0">b</tspan></text>
  <text class="cls-1" transform="translate(148.02 137.53) rotate(119.07)"><tspan x="0" y="0">l</tspan></text>
  <text class="cls-1" transform="translate(147.77 137.98) rotate(120.88)"><tspan x="0" y="0">e</tspan></text>
  <text class="cls-1" transform="translate(147.18 138.97) rotate(122.84)"><tspan x="0" y="0"> </tspan></text>
  <text class="cls-1" transform="translate(146.84 139.5) rotate(124.89)"><tspan x="0" y="0">a</tspan></text>
  <text class="cls-1" transform="translate(146.14 140.51) rotate(127.47)"><tspan x="0" y="0">n</tspan></text>
  <text class="cls-1" transform="translate(145.44 141.42) rotate(130.11)"><tspan x="0" y="0">d</tspan></text>
  <text class="cls-1" transform="translate(144.65 142.36) rotate(132.14)"><tspan x="0" y="0"> </tspan></text>
  <text class="cls-1" transform="translate(144.22 142.84) rotate(134.67)"><tspan x="0" y="0">m</tspan></text>
  <text class="cls-1" transform="translate(143.06 144.01) rotate(137.84)"><tspan x="0" y="0">a</tspan></text>
  <text class="cls-1" transform="translate(142.14 144.84) rotate(140.44)"><tspan x="0" y="0">n</tspan></text>
  <text class="cls-1" transform="translate(141.3 145.54) rotate(142.83)"><tspan x="0" y="0">y</tspan></text>
  <text class="cls-1" transform="translate(140.39 146.22) rotate(144.77)"><tspan x="0" y="0"> </tspan></text>
  <text class="cls-1" transform="translate(139.86 146.59) rotate(146.03)"><tspan x="0" y="0">i</tspan></text>
  <text class="cls-1" transform="translate(139.46 146.87) rotate(147.89)"><tspan x="0" y="0">g</tspan></text>
  <text class="cls-1" transform="translate(138.39 147.54) rotate(149.64)"><tspan x="0" y="0">n</tspan></text>
  <text class="cls-1" transform="translate(137.41 148.1) rotate(153.02)"><tspan x="0" y="0">o</tspan></text>
  <text class="cls-1" transform="translate(136.3 148.66) rotate(155.19)"><tspan x="0" y="0">r</tspan></text>
  <text class="cls-1" transform="translate(135.62 148.98) rotate(157.22)"><tspan x="0" y="0">e</tspan></text>
  <text class="cls-1" transform="translate(134.56 149.42) rotate(159.84)"><tspan x="0" y="0">d</tspan></text>
  <text class="cls-1" transform="translate(133.41 149.84) rotate(161.86)"><tspan x="0" y="0"> </tspan></text>
  <text class="cls-1" transform="translate(132.79 150.04) rotate(163.21)"><tspan x="0" y="0">t</tspan></text>
  <text class="cls-1" transform="translate(132.21 150.22) rotate(165.18)"><tspan x="0" y="0">h</tspan></text>
  <text class="cls-1" transform="translate(131.12 150.51) rotate(167.67)"><tspan x="0" y="0">e</tspan></text>
  <text class="cls-1" transform="translate(129.99 150.77) rotate(170.77)"><tspan x="0" y="0">m</tspan></text>
  <text class="cls-1" transform="translate(128.38 151.02) rotate(173.23)"><tspan x="0" y="0">.</tspan></text>
</svg>