<?xml version="1.0" encoding="UTF-8"?>
<svg id="Layer_23" data-name="Layer 23" xmlns="http://www.w3.org/2000/svg" viewBox="0 0 250 250">
  <defs>
    <style>
      .cls-1 {
        fill: #231f20;
        font-family: Futura-Medium, Futura;
        font-size: 4.1px;
        font-weight: 500;
      }
    </style>
  </defs>
  <text class="cls-1" transform="translate(124.99 23.74) rotate(.93)"><tspan x="0" y="0">L</tspan></text>
  <text class="cls-1" transform="translate(126.79 23.76) rotate(1.68)"><tspan x="0" y="0">a</tspan></text>
  <text class="cls-1" transform="translate(129.28 23.84) rotate(3)"><tspan x="0" y="0">y</tspan></text>
  <text class="cls-1" transform="translate(131.42 23.95) rotate(4.22)"><tspan x="0" y="0">e</tspan></text>
  <text class="cls-1" transform="translate(133.67 24.12) rotate(5.28)"><tspan x="0" y="0">r</tspan></text>
  <text class="cls-1" transform="translate(135.2 24.26) rotate(6.07)"><tspan x="0" y="0"> </tspan></text>
  <text class="cls-1" transform="translate(136.44 24.38) rotate(7.13)"><tspan x="0" y="0">2</tspan></text>
  <text class="cls-1" transform="translate(138.93 24.7) rotate(8.55)"><tspan x="0" y="0">3</tspan></text>
  <text class="cls-1" transform="translate(141.4 25.07) rotate(9.61)"><tspan x="0" y="0"> </tspan></text>
  <text class="cls-1" transform="translate(142.64 25.28) rotate(10.31)"><tspan x="0" y="0">I</tspan></text>
  <text class="cls-1" transform="translate(143.81 25.49) rotate(11.34)"><tspan x="0" y="0">p</tspan></text>
  <text class="cls-1" transform="translate(146.21 25.97) rotate(12.51)"><tspan x="0" y="0">s</tspan></text>
  <text class="cls-1" transform="translate(147.83 26.33) rotate(13.61)"><tspan x="0" y="0">u</tspan></text>
  <text class="cls-1" transform="translate(149.98 26.85) rotate(15.16)"><tspan x="0" y="0">m</tspan></text>
  <text class="cls-1" transform="translate(153.08 27.7) rotate(16.43)"><tspan x="0" y="0"> </tspan></text>
  <text class="cls-1" transform="translate(154.28 28.05) rotate(17.3)"><tspan x="0" y="0">L</tspan></text>
  <text class="cls-1" transform="translate(156.01 28.58) rotate(18.52)"><tspan x="0" y="0">o</tspan></text>
  <text class="cls-1" transform="translate(158.32 29.36) rotate(19.65)"><tspan x="0" y="0">r</tspan></text>
  <text class="cls-1" transform="translate(159.73 29.86) rotate(20.71)"><tspan x="0" y="0">e</tspan></text>
  <text class="cls-1" transform="translate(161.84 30.65) rotate(22.27)"><tspan x="0" y="0">m</tspan></text>
  <text class="cls-1" transform="translate(164.82 31.88) rotate(23.54)"><tspan x="0" y="0"> </tspan></text>
  <text class="cls-1" transform="translate(165.98 32.39) rotate(24.24)"><tspan x="0" y="0">I</tspan></text>
  <text class="cls-1" transform="translate(167.06 32.87) rotate(25.27)"><tspan x="0" y="0">p</tspan></text>
  <text class="cls-1" transform="translate(169.27 33.91) rotate(26.44)"><tspan x="0" y="0">s</tspan></text>
  <text class="cls-1" transform="translate(170.75 34.65) rotate(27.53)"><tspan x="0" y="0">u</tspan></text>
  <text class="cls-1" transform="translate(172.72 35.66) rotate(29.08)"><tspan x="0" y="0">m</tspan></text>
  <text class="cls-1" transform="translate(175.53 37.24) rotate(30.34)"><tspan x="0" y="0"> </tspan></text>
  <text class="cls-1" transform="translate(176.61 37.87) rotate(31.21)"><tspan x="0" y="0">L</tspan></text>
  <text class="cls-1" transform="translate(178.14 38.8) rotate(32.41)"><tspan x="0" y="0">o</tspan></text>
  <text class="cls-1" transform="translate(180.21 40.11) rotate(33.53)"><tspan x="0" y="0">r</tspan></text>
  <text class="cls-1" transform="translate(181.46 40.94) rotate(34.58)"><tspan x="0" y="0">e</tspan></text>
  <text class="cls-1" transform="translate(183.32 42.21) rotate(36.13)"><tspan x="0" y="0">m</tspan></text>
  <text class="cls-1" transform="translate(185.92 44.13) rotate(37.39)"><tspan x="0" y="0"> </tspan></text>
  <text class="cls-1" transform="translate(186.91 44.88) rotate(38.08)"><tspan x="0" y="0">I</tspan></text>
  <text class="cls-1" transform="translate(187.86 45.62) rotate(39.1)"><tspan x="0" y="0">p</tspan></text>
  <text class="cls-1" transform="translate(189.76 47.16) rotate(40.26)"><tspan x="0" y="0">s</tspan></text>
  <text class="cls-1" transform="translate(191.01 48.22) rotate(41.34)"><tspan x="0" y="0">u</tspan></text>
  <text class="cls-1" transform="translate(192.67 49.67) rotate(42.87)"><tspan x="0" y="0">m</tspan></text>
  <text class="cls-1" transform="translate(195.03 51.88) rotate(44.13)"><tspan x="0" y="0"> </tspan></text>
  <text class="cls-1" transform="translate(195.92 52.74) rotate(44.98)"><tspan x="0" y="0">L</tspan></text>
  <text class="cls-1" transform="translate(197.2 54.01) rotate(46.17)"><tspan x="0" y="0">o</tspan></text>
  <text class="cls-1" transform="translate(198.91 55.8) rotate(47.31)"><tspan x="0" y="0">r</tspan></text>
  <text class="cls-1" transform="translate(199.92 56.88) rotate(48.34)"><tspan x="0" y="0">e</tspan></text>
  <text class="cls-1" transform="translate(201.41 58.56) rotate(49.88)"><tspan x="0" y="0">m</tspan></text>
  <text class="cls-1" transform="translate(203.49 61.03) rotate(51.14)"><tspan x="0" y="0"> </tspan></text>
  <text class="cls-1" transform="translate(204.28 62.02) rotate(51.84)"><tspan x="0" y="0">I</tspan></text>
  <text class="cls-1" transform="translate(205.01 62.94) rotate(52.86)"><tspan x="0" y="0">p</tspan></text>
  <text class="cls-1" transform="translate(206.48 64.88) rotate(54)"><tspan x="0" y="0">s</tspan></text>
  <text class="cls-1" transform="translate(207.46 66.22) rotate(55.1)"><tspan x="0" y="0">u</tspan></text>
  <text class="cls-1" transform="translate(208.73 68.04) rotate(56.64)"><tspan x="0" y="0">m</tspan></text>
  <text class="cls-1" transform="translate(210.49 70.73) rotate(57.9)"><tspan x="0" y="0"> </tspan></text>
  <text class="cls-1" transform="translate(211.16 71.79) rotate(58.76)"><tspan x="0" y="0">L</tspan></text>
  <text class="cls-1" transform="translate(212.1 73.34) rotate(59.97)"><tspan x="0" y="0">o</tspan></text>
  <text class="cls-1" transform="translate(213.33 75.47) rotate(61.1)"><tspan x="0" y="0">r</tspan></text>
  <text class="cls-1" transform="translate(214.04 76.75) rotate(62.14)"><tspan x="0" y="0">e</tspan></text>
  <text class="cls-1" transform="translate(215.11 78.76) rotate(63.71)"><tspan x="0" y="0">m</tspan></text>
  <text class="cls-1" transform="translate(216.52 81.64) rotate(64.97)"><tspan x="0" y="0"> </tspan></text>
  <text class="cls-1" transform="translate(217.06 82.78) rotate(65.67)"><tspan x="0" y="0">I</tspan></text>
  <text class="cls-1" transform="translate(217.55 83.86) rotate(66.7)"><tspan x="0" y="0">p</tspan></text>
  <text class="cls-1" transform="translate(218.51 86.1) rotate(67.86)"><tspan x="0" y="0">s</tspan></text>
  <text class="cls-1" transform="translate(219.13 87.63) rotate(68.96)"><tspan x="0" y="0">u</tspan></text>
  <text class="cls-1" transform="translate(219.94 89.7) rotate(70.52)"><tspan x="0" y="0">m</tspan></text>
  <text class="cls-1" transform="translate(221 92.73) rotate(71.95)"><tspan x="0" y="0">L</tspan></text>
  <text class="cls-1" transform="translate(221.57 94.46) rotate(73.17)"><tspan x="0" y="0">o</tspan></text>
  <text class="cls-1" transform="translate(222.27 96.81) rotate(74.3)"><tspan x="0" y="0">r</tspan></text>
  <text class="cls-1" transform="translate(222.68 98.22) rotate(75.35)"><tspan x="0" y="0">e</tspan></text>
  <text class="cls-1" transform="translate(223.25 100.4) rotate(76.91)"><tspan x="0" y="0">m</tspan></text>
  <text class="cls-1" transform="translate(223.97 103.55) rotate(78.19)"><tspan x="0" y="0"> </tspan></text>
  <text class="cls-1" transform="translate(224.23 104.78) rotate(78.88)"><tspan x="0" y="0">I</tspan></text>
  <text class="cls-1" transform="translate(224.47 105.95) rotate(79.92)"><tspan x="0" y="0">p</tspan></text>
  <text class="cls-1" transform="translate(224.89 108.35) rotate(81.08)"><tspan x="0" y="0">s</tspan></text>
  <text class="cls-1" transform="translate(225.15 109.97) rotate(82.17)"><tspan x="0" y="0">u</tspan></text>
  <text class="cls-1" transform="translate(225.45 112.16) rotate(83.7)"><tspan x="0" y="0">m</tspan></text>
  <text class="cls-1" transform="translate(225.8 115.38) rotate(85.13)"><tspan x="0" y="0">L</tspan></text>
  <text class="cls-1" transform="translate(225.96 117.17) rotate(86.32)"><tspan x="0" y="0">o</tspan></text>
  <text class="cls-1" transform="translate(226.11 119.61) rotate(87.43)"><tspan x="0" y="0">r</tspan></text>
  <text class="cls-1" transform="translate(226.18 121.09) rotate(88.46)"><tspan x="0" y="0">e</tspan></text>
  <text class="cls-1" transform="translate(226.22 123.34) rotate(89.07)"><tspan x="0" y="0">m</tspan></text>
  <text class="cls-1" transform="translate(226.24 126.58) rotate(91.22)"><tspan x="0" y="0"> </tspan></text>
  <text class="cls-1" transform="translate(226.21 127.83) rotate(91.9)"><tspan x="0" y="0">I</tspan></text>
  <text class="cls-1" transform="translate(226.18 129.03) rotate(92.92)"><tspan x="0" y="0">p</tspan></text>
  <text class="cls-1" transform="translate(226.05 131.46) rotate(94.07)"><tspan x="0" y="0">s</tspan></text>
  <text class="cls-1" transform="translate(225.94 133.1) rotate(95.15)"><tspan x="0" y="0">u</tspan></text>
  <text class="cls-1" transform="translate(225.74 135.32) rotate(96.69)"><tspan x="0" y="0">m</tspan></text>
  <text class="cls-1" transform="translate(225.36 138.5) rotate(98.1)"><tspan x="0" y="0">L</tspan></text>
  <text class="cls-1" transform="translate(225.11 140.3) rotate(99.32)"><tspan x="0" y="0">o</tspan></text>
  <text class="cls-1" transform="translate(224.71 142.72) rotate(100.44)"><tspan x="0" y="0">r</tspan></text>
  <text class="cls-1" transform="translate(224.44 144.18) rotate(101.5)"><tspan x="0" y="0">e</tspan></text>
  <text class="cls-1" transform="translate(224 146.38) rotate(103.05)"><tspan x="0" y="0">m</tspan></text>
  <text class="cls-1" transform="translate(223.26 149.52) rotate(104.33)"><tspan x="0" y="0"> </tspan></text>
  <text class="cls-1" transform="translate(222.95 150.74) rotate(105.03)"><tspan x="0" y="0">I</tspan></text>
  <text class="cls-1" transform="translate(222.65 151.88) rotate(106.05)"><tspan x="0" y="0">p</tspan></text>
  <text class="cls-1" transform="translate(221.97 154.24) rotate(107.23)"><tspan x="0" y="0">s</tspan></text>
  <text class="cls-1" transform="translate(221.48 155.83) rotate(108.34)"><tspan x="0" y="0">u</tspan></text>
  <text class="cls-1" transform="translate(220.79 157.93) rotate(109.89)"><tspan x="0" y="0">m</tspan></text>
  <text class="cls-1" transform="translate(219.69 160.94) rotate(111.31)"><tspan x="0" y="0">L</tspan></text>
  <text class="cls-1" transform="translate(219.03 162.64) rotate(112.53)"><tspan x="0" y="0">o</tspan></text>
  <text class="cls-1" transform="translate(218.1 164.88) rotate(113.65)"><tspan x="0" y="0">r</tspan></text>
  <text class="cls-1" transform="translate(217.5 166.25) rotate(114.71)"><tspan x="0" y="0">e</tspan></text>
  <text class="cls-1" transform="translate(216.56 168.31) rotate(116.27)"><tspan x="0" y="0">m</tspan></text>
  <text class="cls-1" transform="translate(215.13 171.18) rotate(117.53)"><tspan x="0" y="0"> </tspan></text>
  <text class="cls-1" transform="translate(214.55 172.3) rotate(118.23)"><tspan x="0" y="0">I</tspan></text>
  <text class="cls-1" transform="translate(213.98 173.36) rotate(119.27)"><tspan x="0" y="0">p</tspan></text>
  <text class="cls-1" transform="translate(212.79 175.48) rotate(120.42)"><tspan x="0" y="0">s</tspan></text>
  <text class="cls-1" transform="translate(211.96 176.91) rotate(121.52)"><tspan x="0" y="0">u</tspan></text>
  <text class="cls-1" transform="translate(210.81 178.79) rotate(123.05)"><tspan x="0" y="0">m</tspan></text>
  <text class="cls-1" transform="translate(209.04 181.49) rotate(124.47)"><tspan x="0" y="0">L</tspan></text>
  <text class="cls-1" transform="translate(208.02 182.99) rotate(125.68)"><tspan x="0" y="0">o</tspan></text>
  <text class="cls-1" transform="translate(206.59 184.97) rotate(126.79)"><tspan x="0" y="0">r</tspan></text>
  <text class="cls-1" transform="translate(205.7 186.17) rotate(127.84)"><tspan x="0" y="0">e</tspan></text>
  <text class="cls-1" transform="translate(204.32 187.95) rotate(129.38)"><tspan x="0" y="0">m</tspan></text>
  <text class="cls-1" transform="translate(202.28 190.43) rotate(130.63)"><tspan x="0" y="0"> </tspan></text>
  <text class="cls-1" transform="translate(201.46 191.38) rotate(131.33)"><tspan x="0" y="0">I</tspan></text>
  <text class="cls-1" transform="translate(200.67 192.29) rotate(132.35)"><tspan x="0" y="0">p</tspan></text>
  <text class="cls-1" transform="translate(199.02 194.09) rotate(133.51)"><tspan x="0" y="0">s</tspan></text>
  <text class="cls-1" transform="translate(197.89 195.29) rotate(134.59)"><tspan x="0" y="0">u</tspan></text>
  <text class="cls-1" transform="translate(196.35 196.86) rotate(136.11)"><tspan x="0" y="0">m</tspan></text>
  <text class="cls-1" transform="translate(194.03 199.08) rotate(137.52)"><tspan x="0" y="0">L</tspan></text>
  <text class="cls-1" transform="translate(192.7 200.3) rotate(138.72)"><tspan x="0" y="0">o</tspan></text>
  <text class="cls-1" transform="translate(190.85 201.92) rotate(139.84)"><tspan x="0" y="0">r</tspan></text>
  <text class="cls-1" transform="translate(189.71 202.89) rotate(140.88)"><tspan x="0" y="0">e</tspan></text>
  <text class="cls-1" transform="translate(187.98 204.3) rotate(142.42)"><tspan x="0" y="0">m</tspan></text>
  <text class="cls-1" transform="translate(185.42 206.26) rotate(143.68)"><tspan x="0" y="0"> </tspan></text>
  <text class="cls-1" transform="translate(184.4 207.01) rotate(144.38)"><tspan x="0" y="0">I</tspan></text>
  <text class="cls-1" transform="translate(183.44 207.7) rotate(145.4)"><tspan x="0" y="0">p</tspan></text>
  <text class="cls-1" transform="translate(181.42 209.09) rotate(146.56)"><tspan x="0" y="0">s</tspan></text>
  <text class="cls-1" transform="translate(180.03 210.01) rotate(147.66)"><tspan x="0" y="0">u</tspan></text>
  <text class="cls-1" transform="translate(178.17 211.2) rotate(149.19)"><tspan x="0" y="0">m</tspan></text>
  <text class="cls-1" transform="translate(175.41 212.84) rotate(150.61)"><tspan x="0" y="0">L</tspan></text>
  <text class="cls-1" transform="translate(173.84 213.72) rotate(151.81)"><tspan x="0" y="0">o</tspan></text>
  <text class="cls-1" transform="translate(171.67 214.88) rotate(152.94)"><tspan x="0" y="0">r</tspan></text>
  <text class="cls-1" transform="translate(170.36 215.55) rotate(153.99)"><tspan x="0" y="0">e</tspan></text>
  <text class="cls-1" transform="translate(168.33 216.55) rotate(155.55)"><tspan x="0" y="0">m</tspan></text>
  <text class="cls-1" transform="translate(165.38 217.88) rotate(156.83)"><tspan x="0" y="0"> </tspan></text>
  <text class="cls-1" transform="translate(164.24 218.37) rotate(157.52)"><tspan x="0" y="0">I</tspan></text>
  <text class="cls-1" transform="translate(163.13 218.84) rotate(158.57)"><tspan x="0" y="0">p</tspan></text>
  <text class="cls-1" transform="translate(160.86 219.72) rotate(159.72)"><tspan x="0" y="0">s</tspan></text>
  <text class="cls-1" transform="translate(159.32 220.3) rotate(160.83)"><tspan x="0" y="0">u</tspan></text>
  <text class="cls-1" transform="translate(157.23 221.03) rotate(162.38)"><tspan x="0" y="0">m</tspan></text>
  <text class="cls-1" transform="translate(154.15 222) rotate(163.66)"><tspan x="0" y="0"> </tspan></text>
  <text class="cls-1" transform="translate(152.95 222.35) rotate(164.52)"><tspan x="0" y="0">L</tspan></text>
  <text class="cls-1" transform="translate(151.21 222.83) rotate(165.74)"><tspan x="0" y="0">o</tspan></text>
  <text class="cls-1" transform="translate(148.84 223.43) rotate(166.87)"><tspan x="0" y="0">r</tspan></text>
  <text class="cls-1" transform="translate(147.4 223.77) rotate(167.92)"><tspan x="0" y="0">e</tspan></text>
  <text class="cls-1" transform="translate(145.2 224.25) rotate(169.48)"><tspan x="0" y="0">m</tspan></text>
  <text class="cls-1" transform="translate(142.02 224.83) rotate(170.75)"><tspan x="0" y="0"> </tspan></text>
  <text class="cls-1" transform="translate(140.78 225.03) rotate(171.45)"><tspan x="0" y="0">I</tspan></text>
  <text class="cls-1" transform="translate(139.59 225.22) rotate(172.49)"><tspan x="0" y="0">p</tspan></text>
  <text class="cls-1" transform="translate(137.17 225.53) rotate(173.64)"><tspan x="0" y="0">s</tspan></text>
  <text class="cls-1" transform="translate(135.54 225.72) rotate(174.72)"><tspan x="0" y="0">u</tspan></text>
  <text class="cls-1" transform="translate(133.34 225.93) rotate(176.25)"><tspan x="0" y="0">m</tspan></text>
  <text class="cls-1" transform="translate(130.11 226.13) rotate(177.51)"><tspan x="0" y="0"> </tspan></text>
  <text class="cls-1" transform="translate(128.87 226.18) rotate(178.36)"><tspan x="0" y="0">L</tspan></text>
  <text class="cls-1" transform="translate(127.05 226.23) rotate(179.07)"><tspan x="0" y="0">o</tspan></text>
  <text class="cls-1" transform="translate(124.62 226.26) rotate(-179.07)"><tspan x="0" y="0">r</tspan></text>
  <text class="cls-1" transform="translate(123.11 226.24) rotate(-178.32)"><tspan x="0" y="0">e</tspan></text>
  <text class="cls-1" transform="translate(120.88 226.18) rotate(-176.8)"><tspan x="0" y="0">m</tspan></text>
  <text class="cls-1" transform="translate(117.66 225.99) rotate(-175.55)"><tspan x="0" y="0"> </tspan></text>
  <text class="cls-1" transform="translate(116.41 225.9) rotate(-174.86)"><tspan x="0" y="0">I</tspan></text>
  <text class="cls-1" transform="translate(115.23 225.8) rotate(-173.84)"><tspan x="0" y="0">p</tspan></text>
  <text class="cls-1" transform="translate(112.79 225.53) rotate(-172.68)"><tspan x="0" y="0">s</tspan></text>
  <text class="cls-1" transform="translate(111.16 225.32) rotate(-171.58)"><tspan x="0" y="0">u</tspan></text>
  <text class="cls-1" transform="translate(108.97 225) rotate(-170.04)"><tspan x="0" y="0">m</tspan></text>
  <text class="cls-1" transform="translate(105.79 224.44) rotate(-168.77)"><tspan x="0" y="0"> </tspan></text>
  <text class="cls-1" transform="translate(104.56 224.19) rotate(-167.9)"><tspan x="0" y="0">L</tspan></text>
  <text class="cls-1" transform="translate(102.8 223.82) rotate(-166.69)"><tspan x="0" y="0">o</tspan></text>
  <text class="cls-1" transform="translate(100.42 223.25) rotate(-165.56)"><tspan x="0" y="0">r</tspan></text>
  <text class="cls-1" transform="translate(98.97 222.88) rotate(-164.5)"><tspan x="0" y="0">e</tspan></text>
  <text class="cls-1" transform="translate(96.81 222.29) rotate(-162.94)"><tspan x="0" y="0">m</tspan></text>
  <text class="cls-1" transform="translate(93.71 221.33) rotate(-161.66)"><tspan x="0" y="0"> </tspan></text>
  <text class="cls-1" transform="translate(92.55 220.94) rotate(-160.97)"><tspan x="0" y="0">I</tspan></text>
  <text class="cls-1" transform="translate(91.41 220.56) rotate(-159.93)"><tspan x="0" y="0">p</tspan></text>
  <text class="cls-1" transform="translate(89.12 219.71) rotate(-158.77)"><tspan x="0" y="0">s</tspan></text>
  <text class="cls-1" transform="translate(87.58 219.12) rotate(-157.67)"><tspan x="0" y="0">u</tspan></text>
  <text class="cls-1" transform="translate(85.52 218.28) rotate(-156.11)"><tspan x="0" y="0">m</tspan></text>
  <text class="cls-1" transform="translate(82.58 216.97) rotate(-154.69)"><tspan x="0" y="0">L</tspan></text>
  <text class="cls-1" transform="translate(80.95 216.2) rotate(-153.48)"><tspan x="0" y="0">o</tspan></text>
  <text class="cls-1" transform="translate(78.77 215.11) rotate(-152.36)"><tspan x="0" y="0">r</tspan></text>
  <text class="cls-1" transform="translate(77.43 214.41) rotate(-151.29)"><tspan x="0" y="0">e</tspan></text>
  <text class="cls-1" transform="translate(75.47 213.35) rotate(-149.75)"><tspan x="0" y="0">m</tspan></text>
  <text class="cls-1" transform="translate(72.68 211.71) rotate(-148.48)"><tspan x="0" y="0"> </tspan></text>
  <text class="cls-1" transform="translate(71.61 211.05) rotate(-147.79)"><tspan x="0" y="0">I</tspan></text>
  <text class="cls-1" transform="translate(70.59 210.42) rotate(-146.75)"><tspan x="0" y="0">p</tspan></text>
  <text class="cls-1" transform="translate(68.56 209.08) rotate(-145.6)"><tspan x="0" y="0">s</tspan></text>
  <text class="cls-1" transform="translate(67.2 208.16) rotate(-144.52)"><tspan x="0" y="0">u</tspan></text>
  <text class="cls-1" transform="translate(65.38 206.86) rotate(-142.97)"><tspan x="0" y="0">m</tspan></text>
  <text class="cls-1" transform="translate(62.81 204.92) rotate(-141.56)"><tspan x="0" y="0">L</tspan></text>
  <text class="cls-1" transform="translate(61.41 203.81) rotate(-140.37)"><tspan x="0" y="0">o</tspan></text>
  <text class="cls-1" transform="translate(59.52 202.24) rotate(-139.25)"><tspan x="0" y="0">r</tspan></text>
  <text class="cls-1" transform="translate(58.39 201.26) rotate(-138.2)"><tspan x="0" y="0">e</tspan></text>
  <text class="cls-1" transform="translate(56.71 199.77) rotate(-136.67)"><tspan x="0" y="0">m</tspan></text>
  <text class="cls-1" transform="translate(54.37 197.55) rotate(-135.41)"><tspan x="0" y="0"> </tspan></text>
  <text class="cls-1" transform="translate(53.48 196.68) rotate(-134.72)"><tspan x="0" y="0">I</tspan></text>
  <text class="cls-1" transform="translate(52.64 195.83) rotate(-133.7)"><tspan x="0" y="0">p</tspan></text>
  <text class="cls-1" transform="translate(50.95 194.06) rotate(-132.55)"><tspan x="0" y="0">s</tspan></text>
  <text class="cls-1" transform="translate(49.83 192.84) rotate(-131.46)"><tspan x="0" y="0">u</tspan></text>
  <text class="cls-1" transform="translate(48.37 191.21) rotate(-129.94)"><tspan x="0" y="0">m</tspan></text>
  <text class="cls-1" transform="translate(46.31 188.72) rotate(-128.68)"><tspan x="0" y="0"> </tspan></text>
  <text class="cls-1" transform="translate(45.52 187.74) rotate(-127.97)"><tspan x="0" y="0"> </tspan></text>
  <text class="cls-1" transform="translate(44.75 186.75) rotate(-127.26)"><tspan x="0" y="0"> </tspan></text>
  <text class="cls-1" transform="translate(43.98 185.75) rotate(-126.39)"><tspan x="0" y="0">L</tspan></text>
  <text class="cls-1" transform="translate(42.92 184.31) rotate(-125.2)"><tspan x="0" y="0">o</tspan></text>
  <text class="cls-1" transform="translate(41.51 182.31) rotate(-124.08)"><tspan x="0" y="0">r</tspan></text>
  <text class="cls-1" transform="translate(40.67 181.07) rotate(-123.03)"><tspan x="0" y="0">e</tspan></text>
  <text class="cls-1" transform="translate(39.43 179.18) rotate(-121.48)"><tspan x="0" y="0">m</tspan></text>
  <text class="cls-1" transform="translate(37.77 176.44) rotate(-120.22)"><tspan x="0" y="0"> </tspan></text>
  <text class="cls-1" transform="translate(37.13 175.34) rotate(-119.52)"><tspan x="0" y="0">I</tspan></text>
  <text class="cls-1" transform="translate(36.54 174.31) rotate(-118.49)"><tspan x="0" y="0">p</tspan></text>
  <text class="cls-1" transform="translate(35.37 172.16) rotate(-117.33)"><tspan x="0" y="0">s</tspan></text>
  <text class="cls-1" transform="translate(34.61 170.69) rotate(-116.23)"><tspan x="0" y="0">u</tspan></text>
  <text class="cls-1" transform="translate(33.62 168.7) rotate(-114.68)"><tspan x="0" y="0">m</tspan></text>
  <text class="cls-1" transform="translate(32.29 165.77) rotate(-113.41)"><tspan x="0" y="0"> </tspan></text>
  <text class="cls-1" transform="translate(31.79 164.62) rotate(-112.71)"><tspan x="0" y="0">I</tspan></text>
  <text class="cls-1" transform="translate(31.32 163.52) rotate(-111.67)"><tspan x="0" y="0">p</tspan></text>
  <text class="cls-1" transform="translate(30.42 161.25) rotate(-110.51)"><tspan x="0" y="0">s</tspan></text>
  <text class="cls-1" transform="translate(29.84 159.7) rotate(-109.4)"><tspan x="0" y="0">u</tspan></text>
  <text class="cls-1" transform="translate(29.1 157.62) rotate(-107.85)"><tspan x="0" y="0">m</tspan></text>
  <text class="cls-1" transform="translate(28.13 154.56) rotate(-106.59)"><tspan x="0" y="0"> </tspan></text>
  <text class="cls-1" transform="translate(27.77 153.35) rotate(-105.71)"><tspan x="0" y="0">L</tspan></text>
  <text class="cls-1" transform="translate(27.27 151.61) rotate(-104.5)"><tspan x="0" y="0">o</tspan></text>
  <text class="cls-1" transform="translate(26.67 149.26) rotate(-103.38)"><tspan x="0" y="0">r</tspan></text>
  <text class="cls-1" transform="translate(26.32 147.79) rotate(-102.3)"><tspan x="0" y="0">e</tspan></text>
  <text class="cls-1" transform="translate(25.83 145.61) rotate(-100.76)"><tspan x="0" y="0">m</tspan></text>
  <text class="cls-1" transform="translate(25.24 142.44) rotate(-99.49)"><tspan x="0" y="0"> </tspan></text>
  <text class="cls-1" transform="translate(25.03 141.2) rotate(-98.62)"><tspan x="0" y="0">L</tspan></text>
  <text class="cls-1" transform="translate(24.76 139.42) rotate(-97.41)"><tspan x="0" y="0">o</tspan></text>
  <text class="cls-1" transform="translate(24.45 136.99) rotate(-96.3)"><tspan x="0" y="0">r</tspan></text>
  <text class="cls-1" transform="translate(24.28 135.51) rotate(-95.25)"><tspan x="0" y="0">e</tspan></text>
  <text class="cls-1" transform="translate(24.07 133.29) rotate(-93.72)"><tspan x="0" y="0">m</tspan></text>
  <text class="cls-1" transform="translate(23.87 130.06) rotate(-92.46)"><tspan x="0" y="0"> </tspan></text>
  <text class="cls-1" transform="translate(23.82 128.79) rotate(-91.77)"><tspan x="0" y="0">I</tspan></text>
  <text class="cls-1" transform="translate(23.78 127.6) rotate(-90.93)"><tspan x="0" y="0">p</tspan></text>
  <text class="cls-1" transform="translate(23.74 125.18) rotate(-89.07)"><tspan x="0" y="0">s</tspan></text>
  <text class="cls-1" transform="translate(23.75 123.51) rotate(-88.55)"><tspan x="0" y="0">u</tspan></text>
  <text class="cls-1" transform="translate(23.81 121.3) rotate(-87.59)"><tspan x="0" y="0"> </tspan></text>
  <text class="cls-1" transform="translate(23.86 120.05) rotate(-86.74)"><tspan x="0" y="0">L</tspan></text>
  <text class="cls-1" transform="translate(23.94 118.38) rotate(-85.28)"><tspan x="0" y="0">O</tspan></text>
  <text class="cls-1" transform="translate(24.25 114.74) rotate(-83.56)"><tspan x="0" y="0">o</tspan></text>
  <text class="cls-1" transform="translate(24.53 112.31) rotate(-82.44)"><tspan x="0" y="0">r</tspan></text>
  <text class="cls-1" transform="translate(24.73 110.82) rotate(-81.38)"><tspan x="0" y="0">e</tspan></text>
  <text class="cls-1" transform="translate(25.07 108.6) rotate(-80.39)"><tspan x="0" y="0"> </tspan></text>
  <text class="cls-1" transform="translate(25.27 107.37) rotate(-79.52)"><tspan x="0" y="0">L</tspan></text>
  <text class="cls-1" transform="translate(25.6 105.61) rotate(-78.32)"><tspan x="0" y="0">o</tspan></text>
  <text class="cls-1" transform="translate(26.1 103.19) rotate(-77.18)"><tspan x="0" y="0">r</tspan></text>
  <text class="cls-1" transform="translate(26.43 101.75) rotate(-76.13)"><tspan x="0" y="0">e</tspan></text>
  <text class="cls-1" transform="translate(26.97 99.55) rotate(-75.13)"><tspan x="0" y="0"> </tspan></text>
  <text class="cls-1" transform="translate(27.29 98.35) rotate(-74.26)"><tspan x="0" y="0">L</tspan></text>
  <text class="cls-1" transform="translate(27.77 96.61) rotate(-73.05)"><tspan x="0" y="0">o</tspan></text>
  <text class="cls-1" transform="translate(28.49 94.27) rotate(-71.91)"><tspan x="0" y="0">r</tspan></text>
  <text class="cls-1" transform="translate(28.95 92.87) rotate(-70.86)"><tspan x="0" y="0">e</tspan></text>
  <text class="cls-1" transform="translate(29.7 90.71) rotate(-69.85)"><tspan x="0" y="0"> </tspan></text>
  <text class="cls-1" transform="translate(30.12 89.55) rotate(-68.99)"><tspan x="0" y="0">L</tspan></text>
  <text class="cls-1" transform="translate(30.77 87.87) rotate(-67.78)"><tspan x="0" y="0">o</tspan></text>
  <text class="cls-1" transform="translate(31.7 85.59) rotate(-66.64)"><tspan x="0" y="0">r</tspan></text>
  <text class="cls-1" transform="translate(32.29 84.23) rotate(-65.58)"><tspan x="0" y="0">e</tspan></text>
  <text class="cls-1" transform="translate(33.22 82.18) rotate(-64.59)"><tspan x="0" y="0"> </tspan></text>
  <text class="cls-1" transform="translate(33.76 81.04) rotate(-63.58)"><tspan x="0" y="0">E</tspan></text>
  <text class="cls-1" transform="translate(34.78 78.99) rotate(-62.29)"><tspan x="0" y="0">n</tspan></text>
  <text class="cls-1" transform="translate(35.81 77.01) rotate(-60.97)"><tspan x="0" y="0">d</tspan></text>
  <text class="cls-1" transform="translate(37 74.89) rotate(-59.93)"><tspan x="0" y="0"> </tspan></text>
  <text class="cls-1" transform="translate(37.63 73.8) rotate(-59.21)"><tspan x="0" y="0"> </tspan></text>
  <text class="cls-1" transform="translate(38.27 72.71) rotate(-58.5)"><tspan x="0" y="0"> </tspan></text>
  <text class="cls-1" transform="translate(38.93 71.64) rotate(-57.79)"><tspan x="0" y="0"> </tspan></text>
  <text class="cls-1" transform="translate(39.6 70.58) rotate(-57.08)"><tspan x="0" y="0"> </tspan></text>
  <text class="cls-1" transform="translate(40.29 69.52) rotate(-56.37)"><tspan x="0" y="0"> </tspan></text>
  <text class="cls-1" transform="translate(40.98 68.47) rotate(-55.66)"><tspan x="0" y="0"> </tspan></text>
  <text class="cls-1" transform="translate(41.69 67.44) rotate(-54.95)"><tspan x="0" y="0"> </tspan></text>
</svg>