<?xml version="1.0" encoding="UTF-8"?>
<svg id="Layer_7" data-name="Layer 7" xmlns="http://www.w3.org/2000/svg" viewBox="0 0 250 250">
  <defs>
    <style>
      .cls-1 {
        fill: #231f20;
        font-family: Futura-Medium, Futura;
        font-size: 2.5px;
        font-weight: 500;
      }
    </style>
  </defs>
  <text class="cls-1" transform="translate(88.48 144.27) rotate(-116.85)"><tspan x="0" y="0">T</tspan></text>
  <text class="cls-1" transform="translate(87.98 143.29) rotate(-115.64)"><tspan x="0" y="0">r</tspan></text>
  <text class="cls-1" transform="translate(87.59 142.47) rotate(-114.01)"><tspan x="0" y="0">a</tspan></text>
  <text class="cls-1" transform="translate(86.98 141.11) rotate(-112.47)"><tspan x="0" y="0">f</tspan></text>
  <text class="cls-1" transform="translate(86.67 140.35) rotate(-111.35)"><tspan x="0" y="0">f</tspan></text>
  <text class="cls-1" transform="translate(86.38 139.6) rotate(-110.31)"><tspan x="0" y="0">i</tspan></text>
  <text class="cls-1" transform="translate(86.17 139.04) rotate(-109.09)"><tspan x="0" y="0">c</tspan></text>
  <text class="cls-1" transform="translate(85.79 137.93) rotate(-107.74)"><tspan x="0" y="0"> </tspan></text>
  <text class="cls-1" transform="translate(85.54 137.18) rotate(-106.35)"><tspan x="0" y="0">c</tspan></text>
  <text class="cls-1" transform="translate(85.21 136.07) rotate(-104.51)"><tspan x="0" y="0">o</tspan></text>
  <text class="cls-1" transform="translate(84.84 134.61) rotate(-102.5)"><tspan x="0" y="0">n</tspan></text>
  <text class="cls-1" transform="translate(84.54 133.28) rotate(-100.59)"><tspan x="0" y="0">e</tspan></text>
  <text class="cls-1" transform="translate(84.3 131.95) rotate(-98.95)"><tspan x="0" y="0">s</tspan></text>
  <text class="cls-1" transform="translate(84.14 130.96) rotate(-97.71)"><tspan x="0" y="0"> </tspan></text>
  <text class="cls-1" transform="translate(84.03 130.2) rotate(-96.12)"><tspan x="0" y="0">a</tspan></text>
  <text class="cls-1" transform="translate(83.88 128.73) rotate(-94.45)"><tspan x="0" y="0">r</tspan></text>
  <text class="cls-1" transform="translate(83.81 127.83) rotate(-92.88)"><tspan x="0" y="0">e</tspan></text>
  <text class="cls-1" transform="translate(83.74 126.46) rotate(-91.4)"><tspan x="0" y="0"> </tspan></text>
  <text class="cls-1" transform="translate(83.72 125.67) rotate(-90.39)"><tspan x="0" y="0">i</tspan></text>
  <text class="cls-1" transform="translate(83.71 125.07) rotate(-89.05)"><tspan x="0" y="0">n</tspan></text>
  <text class="cls-1" transform="translate(83.74 123.7) rotate(-87.62)"><tspan x="0" y="0">t</tspan></text>
  <text class="cls-1" transform="translate(83.77 123.03) rotate(-86.19)"><tspan x="0" y="0">e</tspan></text>
  <text class="cls-1" transform="translate(83.86 121.65) rotate(-84.29)"><tspan x="0" y="0">n</tspan></text>
  <text class="cls-1" transform="translate(83.99 120.3) rotate(-82.32)"><tspan x="0" y="0">d</tspan></text>
  <text class="cls-1" transform="translate(84.19 118.83) rotate(-80.34)"><tspan x="0" y="0">e</tspan></text>
  <text class="cls-1" transform="translate(84.42 117.48) rotate(-78.37)"><tspan x="0" y="0">d</tspan></text>
  <text class="cls-1" transform="translate(84.73 116) rotate(-76.79)"><tspan x="0" y="0"> </tspan></text>
  <text class="cls-1" transform="translate(84.9 115.27) rotate(-75.81)"><tspan x="0" y="0">t</tspan></text>
  <text class="cls-1" transform="translate(85.06 114.61) rotate(-74.31)"><tspan x="0" y="0">o</tspan></text>
  <text class="cls-1" transform="translate(85.47 113.16) rotate(-72.73)"><tspan x="0" y="0"> </tspan></text>
  <text class="cls-1" transform="translate(85.69 112.44) rotate(-71.2)"><tspan x="0" y="0">d</tspan></text>
  <text class="cls-1" transform="translate(86.17 111.04) rotate(-69.23)"><tspan x="0" y="0">e</tspan></text>
  <text class="cls-1" transform="translate(86.66 109.76) rotate(-67.86)"><tspan x="0" y="0">l</tspan></text>
  <text class="cls-1" transform="translate(86.89 109.19) rotate(-67.01)"><tspan x="0" y="0">i</tspan></text>
  <text class="cls-1" transform="translate(87.13 108.62) rotate(-65.64)"><tspan x="0" y="0">n</tspan></text>
  <text class="cls-1" transform="translate(87.69 107.38) rotate(-63.75)"><tspan x="0" y="0">e</tspan></text>
  <text class="cls-1" transform="translate(88.29 106.16) rotate(-61.78)"><tspan x="0" y="0">a</tspan></text>
  <text class="cls-1" transform="translate(89 104.84) rotate(-60.27)"><tspan x="0" y="0">t</tspan></text>
  <text class="cls-1" transform="translate(89.35 104.22) rotate(-58.8)"><tspan x="0" y="0">e</tspan></text>
  <text class="cls-1" transform="translate(90.06 103.06) rotate(-57.33)"><tspan x="0" y="0"> </tspan></text>
  <text class="cls-1" transform="translate(90.47 102.43) rotate(-56.11)"><tspan x="0" y="0">s</tspan></text>
  <text class="cls-1" transform="translate(91.02 101.59) rotate(-54.38)"><tspan x="0" y="0">p</tspan></text>
  <text class="cls-1" transform="translate(91.9 100.37) rotate(-52.28)"><tspan x="0" y="0">a</tspan></text>
  <text class="cls-1" transform="translate(92.8 99.21) rotate(-50.44)"><tspan x="0" y="0">c</tspan></text>
  <text class="cls-1" transform="translate(93.56 98.28) rotate(-48.64)"><tspan x="0" y="0">e</tspan></text>
  <text class="cls-1" transform="translate(94.46 97.26) rotate(-47.16)"><tspan x="0" y="0"> </tspan></text>
  <text class="cls-1" transform="translate(94.97 96.7) rotate(-45.59)"><tspan x="0" y="0">b</tspan></text>
  <text class="cls-1" transform="translate(96.02 95.63) rotate(-43.59)"><tspan x="0" y="0">u</tspan></text>
  <text class="cls-1" transform="translate(97.01 94.7) rotate(-42.16)"><tspan x="0" y="0">t</tspan></text>
  <text class="cls-1" transform="translate(97.5 94.26) rotate(-41.18)"><tspan x="0" y="0"> </tspan></text>
  <text class="cls-1" transform="translate(98.06 93.76) rotate(-39.61)"><tspan x="0" y="0">d</tspan></text>
  <text class="cls-1" transform="translate(99.2 92.81) rotate(-37.55)"><tspan x="0" y="0">o</tspan></text>
  <text class="cls-1" transform="translate(100.39 91.9) rotate(-35.97)"><tspan x="0" y="0"> </tspan></text>
  <text class="cls-1" transform="translate(101 91.46) rotate(-34.75)"><tspan x="0" y="0">s</tspan></text>
  <text class="cls-1" transform="translate(101.85 90.87) rotate(-32.99)"><tspan x="0" y="0">o</tspan></text>
  <text class="cls-1" transform="translate(103.09 90.07) rotate(-31.45)"><tspan x="0" y="0"> </tspan></text>
  <text class="cls-1" transform="translate(103.75 89.67) rotate(-30.5)"><tspan x="0" y="0">i</tspan></text>
  <text class="cls-1" transform="translate(104.28 89.35) rotate(-29.14)"><tspan x="0" y="0">n</tspan></text>
  <text class="cls-1" transform="translate(105.45 88.7) rotate(-26.85)"><tspan x="0" y="0">t</tspan></text>
  <text class="cls-1" transform="translate(106.08 88.36) rotate(-26.32)"><tspan x="0" y="0">e</tspan></text>
  <text class="cls-1" transform="translate(107.3 87.76) rotate(-24.47)"><tspan x="0" y="0">n</tspan></text>
  <text class="cls-1" transform="translate(108.55 87.2) rotate(-23.06)"><tspan x="0" y="0">t</tspan></text>
  <text class="cls-1" transform="translate(109.17 86.93) rotate(-22.16)"><tspan x="0" y="0">i</tspan></text>
  <text class="cls-1" transform="translate(109.73 86.7) rotate(-20.71)"><tspan x="0" y="0">o</tspan></text>
  <text class="cls-1" transform="translate(111.13 86.17) rotate(-18.73)"><tspan x="0" y="0">n</tspan></text>
  <text class="cls-1" transform="translate(112.41 85.73) rotate(-16.75)"><tspan x="0" y="0">a</tspan></text>
  <text class="cls-1" transform="translate(113.85 85.31) rotate(-15.27)"><tspan x="0" y="0">l</tspan></text>
  <text class="cls-1" transform="translate(114.43 85.15) rotate(-14.42)"><tspan x="0" y="0">l</tspan></text>
  <text class="cls-1" transform="translate(115.04 84.99) rotate(-13.03)"><tspan x="0" y="0">y</tspan></text>
  <text class="cls-1" transform="translate(116.35 84.69) rotate(-11.56)"><tspan x="0" y="0"> </tspan></text>
  <text class="cls-1" transform="translate(117.11 84.53) rotate(-9.97)"><tspan x="0" y="0">p</tspan></text>
  <text class="cls-1" transform="translate(118.57 84.27) rotate(-7.89)"><tspan x="0" y="0">o</tspan></text>
  <text class="cls-1" transform="translate(120.04 84.07) rotate(-5.82)"><tspan x="0" y="0">o</tspan></text>
  <text class="cls-1" transform="translate(121.51 83.92) rotate(-4.15)"><tspan x="0" y="0">r</tspan></text>
  <text class="cls-1" transform="translate(122.47 83.85) rotate(-3.01)"><tspan x="0" y="0">l</tspan></text>
  <text class="cls-1" transform="translate(123.11 83.81) rotate(-1.61)"><tspan x="0" y="0">y</tspan></text>
  <text class="cls-1" transform="translate(124.31 83.78) rotate(-.35)"><tspan x="0" y="0">.</tspan></text>
  <text class="cls-1" transform="translate(125.09 83.78) rotate(.73)"><tspan x="0" y="0"> </tspan></text>
  <text class="cls-1" transform="translate(125.84 83.78) rotate(2.3)"><tspan x="0" y="0">Y</tspan></text>
  <text class="cls-1" transform="translate(127.15 83.83) rotate(4.11)"><tspan x="0" y="0">o</tspan></text>
  <text class="cls-1" transform="translate(128.64 83.94) rotate(6.09)"><tspan x="0" y="0">u</tspan></text>
  <text class="cls-1" transform="translate(129.99 84.09) rotate(7.56)"><tspan x="0" y="0"> </tspan></text>
  <text class="cls-1" transform="translate(130.76 84.19) rotate(8.93)"><tspan x="0" y="0">c</tspan></text>
  <text class="cls-1" transform="translate(131.93 84.37) rotate(10.77)"><tspan x="0" y="0">a</tspan></text>
  <text class="cls-1" transform="translate(133.36 84.64) rotate(12.7)"><tspan x="0" y="0">n</tspan></text>
  <text class="cls-1" transform="translate(134.71 84.95) rotate(14.19)"><tspan x="0" y="0"> </tspan></text>
  <text class="cls-1" transform="translate(135.43 85.13) rotate(15.73)"><tspan x="0" y="0">d</tspan></text>
  <text class="cls-1" transform="translate(136.86 85.53) rotate(17.4)"><tspan x="0" y="0">r</tspan></text>
  <text class="cls-1" transform="translate(137.78 85.82) rotate(18.51)"><tspan x="0" y="0">i</tspan></text>
  <text class="cls-1" transform="translate(138.36 86.01) rotate(19.79)"><tspan x="0" y="0">v</tspan></text>
  <text class="cls-1" transform="translate(139.5 86.42) rotate(21.54)"><tspan x="0" y="0">e</tspan></text>
  <text class="cls-1" transform="translate(140.79 86.93) rotate(23.03)"><tspan x="0" y="0"> </tspan></text>
  <text class="cls-1" transform="translate(141.48 87.22) rotate(24.57)"><tspan x="0" y="0">o</tspan></text>
  <text class="cls-1" transform="translate(142.79 87.82) rotate(26.4)"><tspan x="0" y="0">v</tspan></text>
  <text class="cls-1" transform="translate(143.86 88.35) rotate(28.14)"><tspan x="0" y="0">e</tspan></text>
  <text class="cls-1" transform="translate(145.07 89) rotate(29.73)"><tspan x="0" y="0">r</tspan></text>
  <text class="cls-1" transform="translate(145.86 89.46) rotate(30.9)"><tspan x="0" y="0"> </tspan></text>
  <text class="cls-1" transform="translate(146.54 89.86) rotate(32.5)"><tspan x="0" y="0">a</tspan></text>
  <text class="cls-1" transform="translate(147.79 90.66) rotate(34.06)"><tspan x="0" y="0"> </tspan></text>
  <text class="cls-1" transform="translate(148.43 91.09) rotate(35.06)"><tspan x="0" y="0">t</tspan></text>
  <text class="cls-1" transform="translate(148.96 91.46) rotate(36.15)"><tspan x="0" y="0">r</tspan></text>
  <text class="cls-1" transform="translate(149.7 91.99) rotate(37.81)"><tspan x="0" y="0">a</tspan></text>
  <text class="cls-1" transform="translate(150.89 92.92) rotate(39.39)"><tspan x="0" y="0">f</tspan></text>
  <text class="cls-1" transform="translate(151.52 93.44) rotate(40.53)"><tspan x="0" y="0">f</tspan></text>
  <text class="cls-1" transform="translate(152.11 93.95) rotate(41.54)"><tspan x="0" y="0">i</tspan></text>
  <text class="cls-1" transform="translate(152.56 94.35) rotate(42.77)"><tspan x="0" y="0">c</tspan></text>
  <text class="cls-1" transform="translate(153.43 95.16) rotate(44.15)"><tspan x="0" y="0"> </tspan></text>
  <text class="cls-1" transform="translate(153.99 95.69) rotate(45.52)"><tspan x="0" y="0">c</tspan></text>
  <text class="cls-1" transform="translate(154.82 96.53) rotate(47.39)"><tspan x="0" y="0">o</tspan></text>
  <text class="cls-1" transform="translate(155.82 97.62) rotate(49.36)"><tspan x="0" y="0">n</tspan></text>
  <text class="cls-1" transform="translate(156.71 98.66) rotate(51.29)"><tspan x="0" y="0">e</tspan></text>
  <text class="cls-1" transform="translate(157.56 99.73) rotate(52.77)"><tspan x="0" y="0"> </tspan></text>
  <text class="cls-1" transform="translate(158.03 100.34) rotate(54.35)"><tspan x="0" y="0">a</tspan></text>
  <text class="cls-1" transform="translate(158.89 101.53) rotate(56.29)"><tspan x="0" y="0">n</tspan></text>
  <text class="cls-1" transform="translate(159.65 102.67) rotate(58.28)"><tspan x="0" y="0">d</tspan></text>
  <text class="cls-1" transform="translate(160.43 103.94) rotate(59.82)"><tspan x="0" y="0"> </tspan></text>
  <text class="cls-1" transform="translate(160.81 104.61) rotate(60.77)"><tspan x="0" y="0">i</tspan></text>
  <text class="cls-1" transform="translate(161.11 105.13) rotate(61.29)"><tspan x="0" y="0">t</tspan></text>
  <text class="cls-1" transform="translate(161.44 105.74) rotate(63.15)"><tspan x="0" y="0"> </tspan></text>
  <text class="cls-1" transform="translate(161.79 106.4) rotate(64.44)"><tspan x="0" y="0">w</tspan></text>
  <text class="cls-1" transform="translate(162.6 108.12) rotate(66.17)"><tspan x="0" y="0">i</tspan></text>
  <text class="cls-1" transform="translate(162.86 108.69) rotate(67.03)"><tspan x="0" y="0">l</tspan></text>
  <text class="cls-1" transform="translate(163.1 109.27) rotate(67.89)"><tspan x="0" y="0">l</tspan></text>
  <text class="cls-1" transform="translate(163.33 109.83) rotate(68.84)"><tspan x="0" y="0"> </tspan></text>
  <text class="cls-1" transform="translate(163.61 110.55) rotate(70.33)"><tspan x="0" y="0">n</tspan></text>
  <text class="cls-1" transform="translate(164.07 111.83) rotate(72.31)"><tspan x="0" y="0">o</tspan></text>
  <text class="cls-1" transform="translate(164.52 113.26) rotate(73.83)"><tspan x="0" y="0">t</tspan></text>
  <text class="cls-1" transform="translate(164.71 113.9) rotate(74.82)"><tspan x="0" y="0"> </tspan></text>
  <text class="cls-1" transform="translate(164.92 114.66) rotate(76.43)"><tspan x="0" y="0">d</tspan></text>
  <text class="cls-1" transform="translate(165.26 116.08) rotate(78.48)"><tspan x="0" y="0">a</tspan></text>
  <text class="cls-1" transform="translate(165.57 117.55) rotate(80.92)"><tspan x="0" y="0">m</tspan></text>
  <text class="cls-1" transform="translate(165.87 119.47) rotate(83.3)"><tspan x="0" y="0">a</tspan></text>
  <text class="cls-1" transform="translate(166.04 120.94) rotate(85.37)"><tspan x="0" y="0">g</tspan></text>
  <text class="cls-1" transform="translate(166.16 122.43) rotate(87.38)"><tspan x="0" y="0">e</tspan></text>
  <text class="cls-1" transform="translate(166.22 123.8) rotate(88.87)"><tspan x="0" y="0"> </tspan></text>
  <text class="cls-1" transform="translate(166.24 124.57) rotate(90.35)"><tspan x="0" y="0">y</tspan></text>
  <text class="cls-1" transform="translate(166.23 125.87) rotate(92.25)"><tspan x="0" y="0">o</tspan></text>
  <text class="cls-1" transform="translate(166.18 127.34) rotate(94.2)"><tspan x="0" y="0">u</tspan></text>
  <text class="cls-1" transform="translate(166.07 128.7) rotate(95.79)"><tspan x="0" y="0">r</tspan></text>
  <text class="cls-1" transform="translate(165.98 129.61) rotate(96.95)"><tspan x="0" y="0"> </tspan></text>
  <text class="cls-1" transform="translate(165.89 130.36) rotate(98.29)"><tspan x="0" y="0">c</tspan></text>
  <text class="cls-1" transform="translate(165.72 131.53) rotate(100.13)"><tspan x="0" y="0">a</tspan></text>
  <text class="cls-1" transform="translate(165.46 132.99) rotate(101.8)"><tspan x="0" y="0">r</tspan></text>
  <text class="cls-1" transform="translate(165.3 133.77) rotate(102.78)"><tspan x="0" y="0">.</tspan></text>
  <text class="cls-1" transform="translate(165.13 134.52) rotate(103.85)"><tspan x="0" y="0"> </tspan></text>
  <text class="cls-1" transform="translate(164.94 135.27) rotate(105.22)"><tspan x="0" y="0">T</tspan></text>
  <text class="cls-1" transform="translate(164.63 136.42) rotate(106.97)"><tspan x="0" y="0">h</tspan></text>
  <text class="cls-1" transform="translate(164.24 137.71) rotate(108.84)"><tspan x="0" y="0">e</tspan></text>
  <text class="cls-1" transform="translate(163.81 138.98) rotate(110.68)"><tspan x="0" y="0">y</tspan></text>
  <text class="cls-1" transform="translate(163.33 140.24) rotate(112.14)"><tspan x="0" y="0"> </tspan></text>
  <text class="cls-1" transform="translate(163.05 140.94) rotate(113.68)"><tspan x="0" y="0">a</tspan></text>
  <text class="cls-1" transform="translate(162.45 142.3) rotate(115.35)"><tspan x="0" y="0">r</tspan></text>
  <text class="cls-1" transform="translate(162.07 143.11) rotate(116.89)"><tspan x="0" y="0">e</tspan></text>
  <text class="cls-1" transform="translate(161.43 144.35) rotate(118.4)"><tspan x="0" y="0"> </tspan></text>
  <text class="cls-1" transform="translate(161.07 145.02) rotate(119.39)"><tspan x="0" y="0">t</tspan></text>
  <text class="cls-1" transform="translate(160.73 145.64) rotate(120.86)"><tspan x="0" y="0">h</tspan></text>
  <text class="cls-1" transform="translate(160.03 146.81) rotate(122.76)"><tspan x="0" y="0">e</tspan></text>
  <text class="cls-1" transform="translate(159.29 147.96) rotate(124.23)"><tspan x="0" y="0"> </tspan></text>
  <text class="cls-1" transform="translate(158.85 148.61) rotate(125.8)"><tspan x="0" y="0">S</tspan></text>
  <text class="cls-1" transform="translate(157.98 149.8) rotate(127.33)"><tspan x="0" y="0">t</tspan></text>
  <text class="cls-1" transform="translate(157.56 150.36) rotate(128.86)"><tspan x="0" y="0">a</tspan></text>
  <text class="cls-1" transform="translate(156.62 151.53) rotate(130.4)"><tspan x="0" y="0">t</tspan></text>
  <text class="cls-1" transform="translate(156.17 152.05) rotate(131.85)"><tspan x="0" y="0">e</tspan></text>
  <text class="cls-1" transform="translate(155.26 153.06) rotate(133.35)"><tspan x="0" y="0">’</tspan></text>
  <text class="cls-1" transform="translate(154.7 153.66) rotate(134.64)"><tspan x="0" y="0">s</tspan></text>
  <text class="cls-1" transform="translate(153.99 154.38) rotate(135.88)"><tspan x="0" y="0"> </tspan></text>
  <text class="cls-1" transform="translate(153.45 154.92) rotate(137.8)"><tspan x="0" y="0">m</tspan></text>
  <text class="cls-1" transform="translate(152 156.22) rotate(140.19)"><tspan x="0" y="0">o</tspan></text>
  <text class="cls-1" transform="translate(150.86 157.17) rotate(141.92)"><tspan x="0" y="0">s</tspan></text>
  <text class="cls-1" transform="translate(150.07 157.79) rotate(143.09)"><tspan x="0" y="0">t</tspan></text>
  <text class="cls-1" transform="translate(149.51 158.21) rotate(144.12)"><tspan x="0" y="0"> </tspan></text>
  <text class="cls-1" transform="translate(148.91 158.65) rotate(145.66)"><tspan x="0" y="0">p</tspan></text>
  <text class="cls-1" transform="translate(147.67 159.5) rotate(147.74)"><tspan x="0" y="0">a</tspan></text>
  <text class="cls-1" transform="translate(146.43 160.27) rotate(149.19)"><tspan x="0" y="0">t</tspan></text>
  <text class="cls-1" transform="translate(145.79 160.66) rotate(150.68)"><tspan x="0" y="0">h</tspan></text>
  <text class="cls-1" transform="translate(144.61 161.33) rotate(153.15)"><tspan x="0" y="0">e</tspan></text>
  <text class="cls-1" transform="translate(143.38 161.96) rotate(153.95)"><tspan x="0" y="0">t</tspan></text>
  <text class="cls-1" transform="translate(142.76 162.26) rotate(154.85)"><tspan x="0" y="0">i</tspan></text>
  <text class="cls-1" transform="translate(142.21 162.52) rotate(156.08)"><tspan x="0" y="0">c</tspan></text>
  <text class="cls-1" transform="translate(141.12 163) rotate(157.44)"><tspan x="0" y="0"> </tspan></text>
  <text class="cls-1" transform="translate(140.43 163.29) rotate(158.97)"><tspan x="0" y="0">a</tspan></text>
  <text class="cls-1" transform="translate(139.05 163.82) rotate(160.46)"><tspan x="0" y="0">t</tspan></text>
  <text class="cls-1" transform="translate(138.41 164.05) rotate(161.41)"><tspan x="0" y="0">t</tspan></text>
  <text class="cls-1" transform="translate(137.73 164.28) rotate(162.89)"><tspan x="0" y="0">e</tspan></text>
  <text class="cls-1" transform="translate(136.45 164.68) rotate(165.18)"><tspan x="0" y="0">m</tspan></text>
  <text class="cls-1" transform="translate(134.52 165.18) rotate(167.63)"><tspan x="0" y="0">p</tspan></text>
  <text class="cls-1" transform="translate(133.04 165.5) rotate(169.19)"><tspan x="0" y="0">t</tspan></text>
  <text class="cls-1" transform="translate(132.36 165.64) rotate(170.39)"><tspan x="0" y="0">s</tspan></text>
  <text class="cls-1" transform="translate(131.37 165.8) rotate(171.63)"><tspan x="0" y="0"> </tspan></text>
  <text class="cls-1" transform="translate(130.64 165.92) rotate(173.17)"><tspan x="0" y="0">a</tspan></text>
  <text class="cls-1" transform="translate(129.14 166.09) rotate(174.71)"><tspan x="0" y="0">t</tspan></text>
  <text class="cls-1" transform="translate(128.49 166.15) rotate(175.68)"><tspan x="0" y="0"> </tspan></text>
  <text class="cls-1" transform="translate(127.73 166.21) rotate(177.03)"><tspan x="0" y="0">c</tspan></text>
  <text class="cls-1" transform="translate(126.55 166.27) rotate(178.91)"><tspan x="0" y="0">o</tspan></text>
  <text class="cls-1" transform="translate(125.05 166.3) rotate(-179.09)"><tspan x="0" y="0">n</tspan></text>
  <text class="cls-1" transform="translate(123.71 166.28) rotate(-177.71)"><tspan x="0" y="0">t</tspan></text>
  <text class="cls-1" transform="translate(123.02 166.25) rotate(-176.58)"><tspan x="0" y="0">r</tspan></text>
  <text class="cls-1" transform="translate(122.13 166.2) rotate(-174.94)"><tspan x="0" y="0">o</tspan></text>
  <text class="cls-1" transform="translate(120.64 166.06) rotate(-173.48)"><tspan x="0" y="0">l</tspan></text>
  <text class="cls-1" transform="translate(120.02 165.99) rotate(-172.62)"><tspan x="0" y="0">l</tspan></text>
  <text class="cls-1" transform="translate(119.41 165.91) rotate(-171.76)"><tspan x="0" y="0">i</tspan></text>
  <text class="cls-1" transform="translate(118.79 165.83) rotate(-170.38)"><tspan x="0" y="0">n</tspan></text>
  <text class="cls-1" transform="translate(117.45 165.6) rotate(-168.42)"><tspan x="0" y="0">g</tspan></text>
  <text class="cls-1" transform="translate(116 165.3) rotate(-166.88)"><tspan x="0" y="0"> </tspan></text>
  <text class="cls-1" transform="translate(115.28 165.14) rotate(-165.34)"><tspan x="0" y="0">o</tspan></text>
  <text class="cls-1" transform="translate(113.83 164.76) rotate(-163.37)"><tspan x="0" y="0">u</tspan></text>
  <text class="cls-1" transform="translate(112.53 164.37) rotate(-161.8)"><tspan x="0" y="0">r</tspan></text>
  <text class="cls-1" transform="translate(111.66 164.08) rotate(-160.64)"><tspan x="0" y="0"> </tspan></text>
  <text class="cls-1" transform="translate(110.94 163.84) rotate(-158.76)"><tspan x="0" y="0">m</tspan></text>
  <text class="cls-1" transform="translate(109.11 163.12) rotate(-156.37)"><tspan x="0" y="0">o</tspan></text>
  <text class="cls-1" transform="translate(107.77 162.54) rotate(-154.53)"><tspan x="0" y="0">v</tspan></text>
  <text class="cls-1" transform="translate(106.71 162.03) rotate(-152.81)"><tspan x="0" y="0">e</tspan></text>
  <text class="cls-1" transform="translate(105.48 161.41) rotate(-150.48)"><tspan x="0" y="0">m</tspan></text>
  <text class="cls-1" transform="translate(103.79 160.44) rotate(-148.2)"><tspan x="0" y="0">e</tspan></text>
  <text class="cls-1" transform="translate(102.62 159.72) rotate(-146.29)"><tspan x="0" y="0">n</tspan></text>
  <text class="cls-1" transform="translate(101.48 158.95) rotate(-144.85)"><tspan x="0" y="0">t</tspan></text>
  <text class="cls-1" transform="translate(100.93 158.56) rotate(-143.85)"><tspan x="0" y="0">.</tspan></text>
</svg>