<?xml version="1.0" encoding="UTF-8"?>
<svg id="Layer_14_2" data-name="Layer 14_2" xmlns="http://www.w3.org/2000/svg" viewBox="0 0 250 250">
  <defs>
    <style>
      .cls-1 {
        font-family: Futura-CondensedExtraBold, Futura;
        font-weight: 700;
      }

      .cls-1, .cls-2 {
        fill: #231f20;
        font-size: 3.2px;
      }

      .cls-2 {
        font-family: Futura-Medium, Futura;
        font-weight: 500;
      }
    </style>
  </defs>
  <text class="cls-2" transform="translate(177.82 166.98) rotate(129.38)"><tspan x="0" y="0">T</tspan></text>
  <text class="cls-2" transform="translate(176.84 168.18) rotate(130.47)"><tspan x="0" y="0">h</tspan></text>
  <text class="cls-2" transform="translate(175.73 169.49) rotate(131.92)"><tspan x="0" y="0">e</tspan></text>
  <text class="cls-2" transform="translate(174.55 170.8) rotate(133.07)"><tspan x="0" y="0"> </tspan></text>
  <text class="cls-2" transform="translate(173.89 171.51) rotate(133.98)"><tspan x="0" y="0">r</tspan></text>
  <text class="cls-2" transform="translate(173.02 172.41) rotate(135.27)"><tspan x="0" y="0">u</tspan></text>
  <text class="cls-2" transform="translate(171.8 173.62) rotate(136.8)"><tspan x="0" y="0">b</tspan></text>
  <text class="cls-2" transform="translate(170.4 174.92) rotate(137.95)"><tspan x="0" y="0">i</tspan></text>
  <text class="cls-2" transform="translate(169.82 175.45) rotate(139.03)"><tspan x="0" y="0">n</tspan></text>
  <text class="cls-2" transform="translate(168.5 176.6) rotate(140.19)"><tspan x="0" y="0"> </tspan></text>
  <text class="cls-2" transform="translate(167.75 177.23) rotate(141.29)"><tspan x="0" y="0">v</tspan></text>
  <text class="cls-2" transform="translate(166.55 178.19) rotate(142.74)"><tspan x="0" y="0">a</tspan></text>
  <text class="cls-2" transform="translate(165.03 179.34) rotate(144.1)"><tspan x="0" y="0">s</tspan></text>
  <text class="cls-2" transform="translate(164 180.09) rotate(145.4)"><tspan x="0" y="0">e</tspan></text>
  <text class="cls-2" transform="translate(162.55 181.09) rotate(146.57)"><tspan x="0" y="0"> </tspan></text>
  <text class="cls-2" transform="translate(161.73 181.63) rotate(147.32)"><tspan x="0" y="0">i</tspan></text>
  <text class="cls-2" transform="translate(161.07 182.05) rotate(148.21)"><tspan x="0" y="0">s</tspan></text>
  <text class="cls-2" transform="translate(159.98 182.73) rotate(149.18)"><tspan x="0" y="0"> </tspan></text>
  <text class="cls-2" transform="translate(159.14 183.23) rotate(150.41)"><tspan x="0" y="0">a</tspan></text>
  <text class="cls-2" transform="translate(157.48 184.18) rotate(151.97)"><tspan x="0" y="0">n</tspan></text>
  <text class="cls-2" transform="translate(155.94 184.99) rotate(153.13)"><tspan x="0" y="0"> </tspan></text>
  <text class="cls-2" transform="translate(155.08 185.43) rotate(154.29)"><tspan x="0" y="0">e</tspan></text>
  <text class="cls-2" transform="translate(153.55 186.17) rotate(155.75)"><tspan x="0" y="0">x</tspan></text>
  <text class="cls-2" transform="translate(151.98 186.88) rotate(157.27)"><tspan x="0" y="0">a</tspan></text>
  <text class="cls-2" transform="translate(150.24 187.61) rotate(159.13)"><tspan x="0" y="0">m</tspan></text>
  <text class="cls-2" transform="translate(147.86 188.52) rotate(161.03)"><tspan x="0" y="0">p</tspan></text>
  <text class="cls-2" transform="translate(146.06 189.13) rotate(162.17)"><tspan x="0" y="0">l</tspan></text>
  <text class="cls-2" transform="translate(145.29 189.38) rotate(163.27)"><tspan x="0" y="0">e</tspan></text>
  <text class="cls-2" transform="translate(143.63 189.88) rotate(164.41)"><tspan x="0" y="0"> </tspan></text>
  <text class="cls-2" transform="translate(142.68 190.15) rotate(165.63)"><tspan x="0" y="0">o</tspan></text>
  <text class="cls-2" transform="translate(140.84 190.61) rotate(166.83)"><tspan x="0" y="0">f</tspan></text>
  <text class="cls-2" transform="translate(139.92 190.83) rotate(167.64)"><tspan x="0" y="0"> </tspan></text>
  <text class="cls-2" transform="translate(138.96 191.04) rotate(168.86)"><tspan x="0" y="0">a</tspan></text>
  <text class="cls-2" transform="translate(137.11 191.42) rotate(170.72)"><tspan x="0" y="0">m</tspan></text>
  <text class="cls-2" transform="translate(134.6 191.82) rotate(172.6)"><tspan x="0" y="0">b</tspan></text>
  <text class="cls-2" transform="translate(132.72 192.06) rotate(173.73)"><tspan x="0" y="0">i</tspan></text>
  <text class="cls-2" transform="translate(131.94 192.15) rotate(174.86)"><tspan x="0" y="0">g</tspan></text>
  <text class="cls-2" transform="translate(130.04 192.32) rotate(176.4)"><tspan x="0" y="0">u</tspan></text>
  <text class="cls-2" transform="translate(128.33 192.42) rotate(177.44)"><tspan x="0" y="0">i</tspan></text>
  <text class="cls-2" transform="translate(127.53 192.46) rotate(178.15)"><tspan x="0" y="0">t</tspan></text>
  <text class="cls-2" transform="translate(126.67 192.49) rotate(179.24)"><tspan x="0" y="0">y</tspan></text>
  <text class="cls-2" transform="translate(124.96 192.51) rotate(-179.63)"><tspan x="0" y="0"> </tspan></text>
  <text class="cls-2" transform="translate(123.98 192.51) rotate(-178.4)"><tspan x="0" y="0">b</tspan></text>
  <text class="cls-2" transform="translate(122.08 192.46) rotate(-176.86)"><tspan x="0" y="0">e</tspan></text>
  <text class="cls-2" transform="translate(120.29 192.35) rotate(-175.72)"><tspan x="0" y="0">t</tspan></text>
  <text class="cls-2" transform="translate(119.41 192.3) rotate(-174.3)"><tspan x="0" y="0">w</tspan></text>
  <text class="cls-2" transform="translate(117.04 192.06) rotate(-172.57)"><tspan x="0" y="0">e</tspan></text>
  <text class="cls-2" transform="translate(115.29 191.83) rotate(-171.08)"><tspan x="0" y="0">e</tspan></text>
  <text class="cls-2" transform="translate(113.55 191.56) rotate(-169.58)"><tspan x="0" y="0">n</tspan></text>
  <text class="cls-2" transform="translate(111.84 191.24) rotate(-168.43)"><tspan x="0" y="0"> </tspan></text>
  <text class="cls-2" transform="translate(110.89 191.04) rotate(-167.62)"><tspan x="0" y="0">f</tspan></text>
  <text class="cls-2" transform="translate(109.9 190.82) rotate(-166.82)"><tspan x="0" y="0">i</tspan></text>
  <text class="cls-2" transform="translate(109.14 190.65) rotate(-165.68)"><tspan x="0" y="0">g</tspan></text>
  <text class="cls-2" transform="translate(107.29 190.18) rotate(-164.12)"><tspan x="0" y="0">u</tspan></text>
  <text class="cls-2" transform="translate(105.62 189.7) rotate(-162.87)"><tspan x="0" y="0">r</tspan></text>
  <text class="cls-2" transform="translate(104.51 189.36) rotate(-161.64)"><tspan x="0" y="0">e</tspan></text>
  <text class="cls-2" transform="translate(102.84 188.81) rotate(-160.47)"><tspan x="0" y="0"> </tspan></text>
  <text class="cls-2" transform="translate(101.91 188.48) rotate(-159.23)"><tspan x="0" y="0">a</tspan></text>
  <text class="cls-2" transform="translate(100.14 187.81) rotate(-157.67)"><tspan x="0" y="0">n</tspan></text>
  <text class="cls-2" transform="translate(98.53 187.15) rotate(-156.11)"><tspan x="0" y="0">d</tspan></text>
  <text class="cls-2" transform="translate(96.81 186.38) rotate(-154.91)"><tspan x="0" y="0"> </tspan></text>
  <text class="cls-2" transform="translate(95.9 185.96) rotate(-153.65)"><tspan x="0" y="0">g</tspan></text>
  <text class="cls-2" transform="translate(94.22 185.12) rotate(-152.35)"><tspan x="0" y="0">r</tspan></text>
  <text class="cls-2" transform="translate(93.18 184.58) rotate(-151.05)"><tspan x="0" y="0">o</tspan></text>
  <text class="cls-2" transform="translate(91.53 183.67) rotate(-149.51)"><tspan x="0" y="0">u</tspan></text>
  <text class="cls-2" transform="translate(90.02 182.78) rotate(-148.03)"><tspan x="0" y="0">n</tspan></text>
  <text class="cls-2" transform="translate(88.54 181.86) rotate(-146.49)"><tspan x="0" y="0">d</tspan></text>
  <text class="cls-2" transform="translate(86.97 180.81) rotate(-145.29)"><tspan x="0" y="0">.</tspan></text>
  <text class="cls-2" transform="translate(86.15 180.25) rotate(-144.45)"><tspan x="0" y="0"> </tspan></text>
  <text class="cls-2" transform="translate(85.36 179.69) rotate(-143.41)"><tspan x="0" y="0">T</tspan></text>
  <text class="cls-2" transform="translate(84.14 178.77) rotate(-142.48)"><tspan x="0" y="0">h</tspan></text>
  <text class="cls-2" transform="translate(82.77 177.71) rotate(-140.6)"><tspan x="0" y="0">e</tspan></text>
  <text class="cls-2" transform="translate(81.42 176.6) rotate(-139.46)"><tspan x="0" y="0"> </tspan></text>
  <text class="cls-2" transform="translate(80.66 175.96) rotate(-138.24)"><tspan x="0" y="0">o</tspan></text>
  <text class="cls-2" transform="translate(79.23 174.68) rotate(-136.7)"><tspan x="0" y="0">u</tspan></text>
  <text class="cls-2" transform="translate(77.98 173.5) rotate(-135.62)"><tspan x="0" y="0">t</tspan></text>
  <text class="cls-2" transform="translate(77.36 172.89) rotate(-134.91)"><tspan x="0" y="0">l</tspan></text>
  <text class="cls-2" transform="translate(76.8 172.33) rotate(-134.24)"><tspan x="0" y="0">i</tspan></text>
  <text class="cls-2" transform="translate(76.26 171.78) rotate(-133.18)"><tspan x="0" y="0">n</tspan></text>
  <text class="cls-2" transform="translate(75.07 170.51) rotate(-131.69)"><tspan x="0" y="0">e</tspan></text>
  <text class="cls-2" transform="translate(73.9 169.19) rotate(-130.52)"><tspan x="0" y="0"> </tspan></text>
  <text class="cls-2" transform="translate(73.27 168.45) rotate(-129.74)"><tspan x="0" y="0">t</tspan></text>
  <text class="cls-2" transform="translate(72.66 167.72) rotate(-128.55)"><tspan x="0" y="0">h</tspan></text>
  <text class="cls-2" transform="translate(71.58 166.38) rotate(-127.01)"><tspan x="0" y="0">a</tspan></text>
  <text class="cls-2" transform="translate(70.44 164.85) rotate(-125.83)"><tspan x="0" y="0">t</tspan></text>
  <text class="cls-2" transform="translate(69.93 164.14) rotate(-125.03)"><tspan x="0" y="0"> </tspan></text>
  <text class="cls-2" transform="translate(69.37 163.36) rotate(-123.81)"><tspan x="0" y="0">d</tspan></text>
  <text class="cls-2" transform="translate(68.31 161.77) rotate(-122.65)"><tspan x="0" y="0">i</tspan></text>
  <text class="cls-2" transform="translate(67.89 161.11) rotate(-121.64)"><tspan x="0" y="0">v</tspan></text>
  <text class="cls-2" transform="translate(67.04 159.73) rotate(-120.6)"><tspan x="0" y="0">i</tspan></text>
  <text class="cls-2" transform="translate(66.64 159.07) rotate(-119.46)"><tspan x="0" y="0">d</tspan></text>
  <text class="cls-2" transform="translate(65.71 157.41) rotate(-117.9)"><tspan x="0" y="0">e</tspan></text>
  <text class="cls-2" transform="translate(64.89 155.87) rotate(-116.61)"><tspan x="0" y="0">s</tspan></text>
  <text class="cls-2" transform="translate(64.32 154.72) rotate(-115.65)"><tspan x="0" y="0"> </tspan></text>
  <text class="cls-2" transform="translate(63.89 153.81) rotate(-114.84)"><tspan x="0" y="0">t</tspan></text>
  <text class="cls-2" transform="translate(63.5 152.99) rotate(-113.69)"><tspan x="0" y="0">h</tspan></text>
  <text class="cls-2" transform="translate(62.79 151.38) rotate(-112.19)"><tspan x="0" y="0">e</tspan></text>
  <text class="cls-2" transform="translate(62.14 149.77) rotate(-111.04)"><tspan x="0" y="0"> </tspan></text>
  <text class="cls-2" transform="translate(61.78 148.84) rotate(-110.07)"><tspan x="0" y="0">s</tspan></text>
  <text class="cls-2" transform="translate(61.34 147.65) rotate(-108.8)"><tspan x="0" y="0">u</tspan></text>
  <text class="cls-2" transform="translate(60.78 146) rotate(-107.25)"><tspan x="0" y="0">b</tspan></text>
  <text class="cls-2" transform="translate(60.23 144.2) rotate(-106.13)"><tspan x="0" y="0">j</tspan></text>
  <text class="cls-2" transform="translate(60 143.43) rotate(-105.04)"><tspan x="0" y="0">e</tspan></text>
  <text class="cls-2" transform="translate(59.55 141.74) rotate(-103.67)"><tspan x="0" y="0">c</tspan></text>
  <text class="cls-2" transform="translate(59.19 140.27) rotate(-102.66)"><tspan x="0" y="0">t</tspan></text>
  <text class="cls-2" transform="translate(59 139.43) rotate(-101.89)"><tspan x="0" y="0"> </tspan></text>
  <text class="cls-2" transform="translate(58.79 138.45) rotate(-100.65)"><tspan x="0" y="0">a</tspan></text>
  <text class="cls-2" transform="translate(58.45 136.6) rotate(-99.13)"><tspan x="0" y="0">n</tspan></text>
  <text class="cls-2" transform="translate(58.17 134.89) rotate(-97.6)"><tspan x="0" y="0">d</tspan></text>
  <text class="cls-2" transform="translate(57.92 132.99) rotate(-96.38)"><tspan x="0" y="0"> </tspan></text>
  <text class="cls-2" transform="translate(57.81 132.02) rotate(-95.23)"><tspan x="0" y="0">n</tspan></text>
  <text class="cls-2" transform="translate(57.65 130.29) rotate(-93.69)"><tspan x="0" y="0">o</tspan></text>
  <text class="cls-2" transform="translate(57.53 128.38) rotate(-92.15)"><tspan x="0" y="0">n</tspan></text>
  <text class="cls-2" transform="translate(57.47 126.64) rotate(-91.13)"><tspan x="0" y="0">-</tspan></text>
  <text class="cls-2" transform="translate(57.45 125.95) rotate(-90.29)"><tspan x="0" y="0">s</tspan></text>
  <text class="cls-2" transform="translate(57.44 124.68) rotate(-89.03)"><tspan x="0" y="0">u</tspan></text>
  <text class="cls-2" transform="translate(57.47 122.94) rotate(-87.48)"><tspan x="0" y="0">b</tspan></text>
  <text class="cls-2" transform="translate(57.56 121.04) rotate(-86.34)"><tspan x="0" y="0">j</tspan></text>
  <text class="cls-2" transform="translate(57.6 120.26) rotate(-85.27)"><tspan x="0" y="0">e</tspan></text>
  <text class="cls-2" transform="translate(57.75 118.49) rotate(-83.87)"><tspan x="0" y="0">c</tspan></text>
  <text class="cls-2" transform="translate(57.91 117) rotate(-82.88)"><tspan x="0" y="0">t</tspan></text>
  <text class="cls-2" transform="translate(58.02 116.15) rotate(-82.1)"><tspan x="0" y="0"> </tspan></text>
  <text class="cls-2" transform="translate(58.15 115.17) rotate(-80.63)"><tspan x="0" y="0">w</tspan></text>
  <text class="cls-2" transform="translate(58.54 112.81) rotate(-78.82)"><tspan x="0" y="0">a</tspan></text>
  <text class="cls-2" transform="translate(58.92 110.9) rotate(-77.3)"><tspan x="0" y="0">v</tspan></text>
  <text class="cls-2" transform="translate(59.25 109.4) rotate(-75.92)"><tspan x="0" y="0">e</tspan></text>
  <text class="cls-2" transform="translate(59.68 107.71) rotate(-74.67)"><tspan x="0" y="0">r</tspan></text>
  <text class="cls-2" transform="translate(59.99 106.57) rotate(-73.62)"><tspan x="0" y="0">s</tspan></text>
  <text class="cls-2" transform="translate(60.37 105.31) rotate(-72.63)"><tspan x="0" y="0"> </tspan></text>
  <text class="cls-2" transform="translate(60.65 104.39) rotate(-71.42)"><tspan x="0" y="0">b</tspan></text>
  <text class="cls-2" transform="translate(61.25 102.58) rotate(-69.85)"><tspan x="0" y="0">e</tspan></text>
  <text class="cls-2" transform="translate(61.88 100.9) rotate(-68.69)"><tspan x="0" y="0">t</tspan></text>
  <text class="cls-2" transform="translate(62.18 100.09) rotate(-67.27)"><tspan x="0" y="0">w</tspan></text>
  <text class="cls-2" transform="translate(63.11 97.89) rotate(-65.53)"><tspan x="0" y="0">e</tspan></text>
  <text class="cls-2" transform="translate(63.84 96.27) rotate(-64.01)"><tspan x="0" y="0">e</tspan></text>
  <text class="cls-2" transform="translate(64.61 94.71) rotate(-62.53)"><tspan x="0" y="0">n</tspan></text>
  <text class="cls-2" transform="translate(65.42 93.15) rotate(-61.36)"><tspan x="0" y="0"> </tspan></text>
  <text class="cls-2" transform="translate(65.88 92.31) rotate(-60.15)"><tspan x="0" y="0">b</tspan></text>
  <text class="cls-2" transform="translate(66.83 90.65) rotate(-58.59)"><tspan x="0" y="0">e</tspan></text>
  <text class="cls-2" transform="translate(67.74 89.17) rotate(-57.53)"><tspan x="0" y="0">l</tspan></text>
  <text class="cls-2" transform="translate(68.16 88.49) rotate(-56.38)"><tspan x="0" y="0">o</tspan></text>
  <text class="cls-2" transform="translate(69.23 86.9) rotate(-54.84)"><tspan x="0" y="0">n</tspan></text>
  <text class="cls-2" transform="translate(70.22 85.48) rotate(-53.32)"><tspan x="0" y="0">g</tspan></text>
  <text class="cls-2" transform="translate(71.37 83.95) rotate(-52.48)"><tspan x="0" y="0">i</tspan></text>
  <text class="cls-2" transform="translate(71.84 83.33) rotate(-50.62)"><tspan x="0" y="0">n</tspan></text>
  <text class="cls-2" transform="translate(72.93 81.97) rotate(-49.62)"><tspan x="0" y="0">g</tspan></text>
  <text class="cls-2" transform="translate(74.17 80.53) rotate(-48.42)"><tspan x="0" y="0"> </tspan></text>
  <text class="cls-2" transform="translate(74.81 79.81) rotate(-47.65)"><tspan x="0" y="0">t</tspan></text>
  <text class="cls-2" transform="translate(75.41 79.14) rotate(-46.45)"><tspan x="0" y="0">o</tspan></text>
  <text class="cls-2" transform="translate(76.73 77.76) rotate(-45.23)"><tspan x="0" y="0"> </tspan></text>
  <text class="cls-2" transform="translate(77.41 77.06) rotate(-44.01)"><tspan x="0" y="0">o</tspan></text>
  <text class="cls-2" transform="translate(78.79 75.73) rotate(-42.46)"><tspan x="0" y="0">n</tspan></text>
  <text class="cls-2" transform="translate(80.07 74.56) rotate(-40.97)"><tspan x="0" y="0">e</tspan></text>
  <text class="cls-2" transform="translate(81.4 73.41) rotate(-39.81)"><tspan x="0" y="0"> </tspan></text>
  <text class="cls-2" transform="translate(82.15 72.78) rotate(-38.57)"><tspan x="0" y="0">a</tspan></text>
  <text class="cls-2" transform="translate(83.62 71.61) rotate(-37.03)"><tspan x="0" y="0">n</tspan></text>
  <text class="cls-2" transform="translate(85.01 70.56) rotate(-35.47)"><tspan x="0" y="0">d</tspan></text>
  <text class="cls-2" transform="translate(86.58 69.45) rotate(-34.23)"><tspan x="0" y="0"> </tspan></text>
  <text class="cls-2" transform="translate(87.38 68.91) rotate(-33.45)"><tspan x="0" y="0">t</tspan></text>
  <text class="cls-2" transform="translate(88.15 68.39) rotate(-32.28)"><tspan x="0" y="0">h</tspan></text>
  <text class="cls-2" transform="translate(89.63 67.46) rotate(-30.78)"><tspan x="0" y="0">e</tspan></text>
  <text class="cls-2" transform="translate(91.14 66.56) rotate(-29.61)"><tspan x="0" y="0"> </tspan></text>
  <text class="cls-2" transform="translate(91.98 66.07) rotate(-28.38)"><tspan x="0" y="0">o</tspan></text>
  <text class="cls-2" transform="translate(93.69 65.16) rotate(-27.18)"><tspan x="0" y="0">t</tspan></text>
  <text class="cls-2" transform="translate(94.5 64.74) rotate(-26.02)"><tspan x="0" y="0">h</tspan></text>
  <text class="cls-2" transform="translate(96.08 63.97) rotate(-24.51)"><tspan x="0" y="0">e</tspan></text>
  <text class="cls-2" transform="translate(97.67 63.25) rotate(-23.28)"><tspan x="0" y="0">r</tspan></text>
  <text class="cls-2" transform="translate(98.63 62.83) rotate(-22.47)"><tspan x="0" y="0">,</tspan></text>
  <text class="cls-2" transform="translate(99.55 62.45) rotate(-21.63)"><tspan x="0" y="0"> </tspan></text>
  <text class="cls-2" transform="translate(100.46 62.08) rotate(-20.4)"><tspan x="0" y="0">a</tspan></text>
  <text class="cls-2" transform="translate(102.23 61.43) rotate(-19.06)"><tspan x="0" y="0">s</tspan></text>
  <text class="cls-2" transform="translate(103.46 61.01) rotate(-18.09)"><tspan x="0" y="0"> </tspan></text>
  <text class="cls-1" transform="translate(104.38 60.71) rotate(-17.23)"><tspan x="0" y="0">t</tspan></text>
  <text class="cls-1" transform="translate(105.48 60.36) rotate(-15.96)"><tspan x="0" y="0">h</tspan></text>
  <text class="cls-1" transform="translate(107.15 59.88) rotate(-14.5)"><tspan x="0" y="0">e</tspan></text>
  <text class="cls-1" transform="translate(108.84 59.45) rotate(-13.24)"><tspan x="0" y="0">r</tspan></text>
  <text class="cls-1" transform="translate(110.05 59.16) rotate(-11.97)"><tspan x="0" y="0">e</tspan></text>
  <text class="cls-1" transform="translate(111.75 58.8) rotate(-10.84)"><tspan x="0" y="0"> </tspan></text>
  <text class="cls-1" transform="translate(112.69 58.62) rotate(-10.05)"><tspan x="0" y="0">i</tspan></text>
  <text class="cls-1" transform="translate(113.58 58.46) rotate(-9.07)"><tspan x="0" y="0">s</tspan></text>
  <text class="cls-1" transform="translate(114.97 58.25) rotate(-8.09)"><tspan x="0" y="0"> </tspan></text>
  <text class="cls-1" transform="translate(115.92 58.11) rotate(-6.93)"><tspan x="0" y="0">n</tspan></text>
  <text class="cls-1" transform="translate(117.68 57.89) rotate(-5.44)"><tspan x="0" y="0">o</tspan></text>
  <text class="cls-1" transform="translate(119.41 57.73) rotate(-4.31)"><tspan x="0" y="0"> </tspan></text>
  <text class="cls-1" transform="translate(120.36 57.66) rotate(-3.45)"><tspan x="0" y="0">c</tspan></text>
  <text class="cls-1" transform="translate(121.44 57.59) rotate(-2.26)"><tspan x="0" y="0">o</tspan></text>
  <text class="cls-1" transform="translate(123.18 57.52) rotate(-.78)"><tspan x="0" y="0">n</tspan></text>
  <text class="cls-1" transform="translate(124.94 57.5) rotate(.42)"><tspan x="0" y="0">t</tspan></text>
  <text class="cls-1" transform="translate(126.03 57.5) rotate(1.62)"><tspan x="0" y="0">e</tspan></text>
  <text class="cls-1" transform="translate(127.73 57.55) rotate(3.05)"><tspan x="0" y="0">x</tspan></text>
  <text class="cls-1" transform="translate(129.45 57.65) rotate(4.24)"><tspan x="0" y="0">t</tspan></text>
  <text class="cls-1" transform="translate(130.53 57.73) rotate(5.1)"><tspan x="0" y="0"> </tspan></text>
  <text class="cls-1" transform="translate(131.48 57.81) rotate(5.96)"><tspan x="0" y="0">t</tspan></text>
  <text class="cls-1" transform="translate(132.56 57.92) rotate(7.17)"><tspan x="0" y="0">o</tspan></text>
  <text class="cls-1" transform="translate(134.32 58.15) rotate(8.34)"><tspan x="0" y="0"> </tspan></text>
  <text class="cls-1" transform="translate(135.26 58.28) rotate(9.2)"><tspan x="0" y="0">c</tspan></text>
  <text class="cls-1" transform="translate(136.33 58.46) rotate(10.05)"><tspan x="0" y="0">l</tspan></text>
  <text class="cls-1" transform="translate(137.23 58.61) rotate(11.2)"><tspan x="0" y="0">u</tspan></text>
  <text class="cls-1" transform="translate(138.97 58.96) rotate(12.68)"><tspan x="0" y="0">e</tspan></text>
  <text class="cls-1" transform="translate(140.67 59.34) rotate(13.84)"><tspan x="0" y="0"> </tspan></text>
  <text class="cls-1" transform="translate(141.58 59.57) rotate(14.69)"><tspan x="0" y="0">t</tspan></text>
  <text class="cls-1" transform="translate(142.69 59.85) rotate(15.96)"><tspan x="0" y="0">h</tspan></text>
  <text class="cls-1" transform="translate(144.39 60.34) rotate(17.46)"><tspan x="0" y="0">e</tspan></text>
  <text class="cls-1" transform="translate(146.04 60.86) rotate(18.6)"><tspan x="0" y="0"> </tspan></text>
  <text class="cls-1" transform="translate(146.93 61.16) rotate(19.69)"><tspan x="0" y="0">v</tspan></text>
  <text class="cls-1" transform="translate(148.45 61.71) rotate(20.77)"><tspan x="0" y="0">i</tspan></text>
  <text class="cls-1" transform="translate(149.28 62.02) rotate(21.88)"><tspan x="0" y="0">e</tspan></text>
  <text class="cls-1" transform="translate(150.88 62.65) rotate(23.66)"><tspan x="0" y="0">w</tspan></text>
  <text class="cls-1" transform="translate(153.1 63.63) rotate(25.43)"><tspan x="0" y="0">e</tspan></text>
  <text class="cls-1" transform="translate(154.65 64.37) rotate(26.68)"><tspan x="0" y="0">r</tspan></text>
  <text class="cls-2" transform="translate(155.75 64.93) rotate(27.63)"><tspan x="0" y="0"> </tspan></text>
  <text class="cls-2" transform="translate(156.63 65.39) rotate(28.39)"><tspan x="0" y="0">i</tspan></text>
  <text class="cls-2" transform="translate(157.3 65.75) rotate(29.45)"><tspan x="0" y="0">n</tspan></text>
  <text class="cls-2" transform="translate(158.84 66.61) rotate(30.62)"><tspan x="0" y="0"> </tspan></text>
  <text class="cls-2" transform="translate(159.67 67.1) rotate(31.84)"><tspan x="0" y="0">o</tspan></text>
  <text class="cls-2" transform="translate(161.29 68.11) rotate(33.38)"><tspan x="0" y="0">n</tspan></text>
  <text class="cls-2" transform="translate(162.75 69.08) rotate(34.53)"><tspan x="0" y="0"> </tspan></text>
  <text class="cls-2" transform="translate(163.54 69.62) rotate(35.73)"><tspan x="0" y="0">o</tspan></text>
  <text class="cls-2" transform="translate(165.06 70.7) rotate(37.52)"><tspan x="0" y="0">w</tspan></text>
  <text class="cls-2" transform="translate(167.01 72.2) rotate(39.38)"><tspan x="0" y="0">n</tspan></text>
  <text class="cls-2" transform="translate(168.35 73.3) rotate(40.72)"><tspan x="0" y="0">e</tspan></text>
  <text class="cls-2" transform="translate(169.67 74.44) rotate(41.94)"><tspan x="0" y="0">r</tspan></text>
  <text class="cls-2" transform="translate(170.55 75.23) rotate(42.98)"><tspan x="0" y="0">s</tspan></text>
  <text class="cls-2" transform="translate(171.5 76.11) rotate(44.27)"><tspan x="0" y="0">h</tspan></text>
  <text class="cls-2" transform="translate(172.74 77.33) rotate(45.34)"><tspan x="0" y="0">i</tspan></text>
  <text class="cls-2" transform="translate(173.3 77.89) rotate(46.48)"><tspan x="0" y="0">p</tspan></text>
  <text class="cls-2" transform="translate(174.6 79.27) rotate(47.7)"><tspan x="0" y="0">.</tspan></text>
  <text class="cls-2" transform="translate(175.26 79.99) rotate(48.53)"><tspan x="0" y="0"> </tspan></text>
</svg>