<?xml version="1.0" encoding="UTF-8"?>
<svg id="Layer_23_2" data-name="Layer 23_2" xmlns="http://www.w3.org/2000/svg" viewBox="0 0 250 250">
  <defs>
    <style>
      .cls-1 {
        fill: #231f20;
        font-family: Futura-Medium, Futura;
        font-size: 4.1px;
        font-weight: 500;
      }
    </style>
  </defs>
  <text class="cls-1" transform="translate(124.99 23.73) rotate(1.2)"><tspan x="0" y="0">W</tspan></text>
  <text class="cls-1" transform="translate(129.33 23.84) rotate(3.04)"><tspan x="0" y="0">h</tspan></text>
  <text class="cls-1" transform="translate(131.54 23.95) rotate(4.28)"><tspan x="0" y="0">e</tspan></text>
  <text class="cls-1" transform="translate(133.79 24.12) rotate(5.55)"><tspan x="0" y="0">n</tspan></text>
  <text class="cls-1" transform="translate(136.02 24.34) rotate(6.53)"><tspan x="0" y="0"> </tspan></text>
  <text class="cls-1" transform="translate(137.27 24.48) rotate(7.58)"><tspan x="0" y="0">d</tspan></text>
  <text class="cls-1" transform="translate(139.68 24.81) rotate(8.55)"><tspan x="0" y="0">i</tspan></text>
  <text class="cls-1" transform="translate(140.68 24.95) rotate(9.53)"><tspan x="0" y="0">g</tspan></text>
  <text class="cls-1" transform="translate(143.08 25.36) rotate(10.51)"><tspan x="0" y="0">i</tspan></text>
  <text class="cls-1" transform="translate(144.08 25.55) rotate(11.12)"><tspan x="0" y="0">t</tspan></text>
  <text class="cls-1" transform="translate(145.2 25.76) rotate(12.15)"><tspan x="0" y="0">a</tspan></text>
  <text class="cls-1" transform="translate(147.6 26.28) rotate(13.13)"><tspan x="0" y="0">l</tspan></text>
  <text class="cls-1" transform="translate(148.57 26.51) rotate(13.7)"><tspan x="0" y="0">l</tspan></text>
  <text class="cls-1" transform="translate(149.6 26.76) rotate(14.65)"><tspan x="0" y="0">y</tspan></text>
  <text class="cls-1" transform="translate(151.73 27.32) rotate(15.63)"><tspan x="0" y="0"> </tspan></text>
  <text class="cls-1" transform="translate(152.92 27.64) rotate(16.9)"><tspan x="0" y="0">m</tspan></text>
  <text class="cls-1" transform="translate(156.01 28.58) rotate(18.52)"><tspan x="0" y="0">o</tspan></text>
  <text class="cls-1" transform="translate(158.33 29.36) rotate(19.91)"><tspan x="0" y="0">d</tspan></text>
  <text class="cls-1" transform="translate(160.64 30.2) rotate(21.26)"><tspan x="0" y="0">e</tspan></text>
  <text class="cls-1" transform="translate(162.73 31.01) rotate(22.18)"><tspan x="0" y="0">l</tspan></text>
  <text class="cls-1" transform="translate(163.65 31.39) rotate(22.75)"><tspan x="0" y="0">i</tspan></text>
  <text class="cls-1" transform="translate(164.58 31.78) rotate(23.67)"><tspan x="0" y="0">n</tspan></text>
  <text class="cls-1" transform="translate(166.64 32.68) rotate(25.01)"><tspan x="0" y="0">g</tspan></text>
  <text class="cls-1" transform="translate(168.84 33.71) rotate(26.05)"><tspan x="0" y="0"> </tspan></text>
  <text class="cls-1" transform="translate(169.96 34.25) rotate(27.1)"><tspan x="0" y="0">a</tspan></text>
  <text class="cls-1" transform="translate(172.14 35.36) rotate(28.42)"><tspan x="0" y="0">n</tspan></text>
  <text class="cls-1" transform="translate(174.11 36.44) rotate(29.42)"><tspan x="0" y="0"> </tspan></text>
  <text class="cls-1" transform="translate(175.19 37.04) rotate(30.46)"><tspan x="0" y="0">o</tspan></text>
  <text class="cls-1" transform="translate(177.3 38.28) rotate(31.84)"><tspan x="0" y="0">b</tspan></text>
  <text class="cls-1" transform="translate(179.38 39.58) rotate(32.83)"><tspan x="0" y="0">j</tspan></text>
  <text class="cls-1" transform="translate(180.22 40.12) rotate(33.74)"><tspan x="0" y="0">e</tspan></text>
  <text class="cls-1" transform="translate(182.09 41.37) rotate(34.92)"><tspan x="0" y="0">c</tspan></text>
  <text class="cls-1" transform="translate(183.68 42.48) rotate(35.78)"><tspan x="0" y="0">t</tspan></text>
  <text class="cls-1" transform="translate(184.6 43.14) rotate(36.46)"><tspan x="0" y="0">,</tspan></text>
  <text class="cls-1" transform="translate(185.61 43.89) rotate(37.17)"><tspan x="0" y="0"> </tspan></text>
  <text class="cls-1" transform="translate(186.6 44.63) rotate(38.21)"><tspan x="0" y="0">a</tspan></text>
  <text class="cls-1" transform="translate(188.53 46.16) rotate(39.25)"><tspan x="0" y="0"> </tspan></text>
  <text class="cls-1" transform="translate(189.5 46.95) rotate(40.15)"><tspan x="0" y="0">c</tspan></text>
  <text class="cls-1" transform="translate(190.98 48.19) rotate(41.38)"><tspan x="0" y="0">o</tspan></text>
  <text class="cls-1" transform="translate(192.81 49.8) rotate(42.97)"><tspan x="0" y="0">m</tspan></text>
  <text class="cls-1" transform="translate(195.17 52) rotate(44.79)"><tspan x="0" y="0">m</tspan></text>
  <text class="cls-1" transform="translate(197.45 54.27) rotate(46.38)"><tspan x="0" y="0">o</tspan></text>
  <text class="cls-1" transform="translate(199.14 56.04) rotate(47.69)"><tspan x="0" y="0">n</tspan></text>
  <text class="cls-1" transform="translate(200.64 57.7) rotate(48.67)"><tspan x="0" y="0"> </tspan></text>
  <text class="cls-1" transform="translate(201.47 58.63) rotate(49.71)"><tspan x="0" y="0">p</tspan></text>
  <text class="cls-1" transform="translate(203.05 60.5) rotate(50.83)"><tspan x="0" y="0">r</tspan></text>
  <text class="cls-1" transform="translate(203.99 61.64) rotate(51.92)"><tspan x="0" y="0">o</tspan></text>
  <text class="cls-1" transform="translate(205.49 63.57) rotate(53.16)"><tspan x="0" y="0">c</tspan></text>
  <text class="cls-1" transform="translate(206.66 65.13) rotate(54.35)"><tspan x="0" y="0">e</tspan></text>
  <text class="cls-1" transform="translate(207.96 66.94) rotate(55.66)"><tspan x="0" y="0">d</tspan></text>
  <text class="cls-1" transform="translate(209.34 68.95) rotate(56.97)"><tspan x="0" y="0">u</tspan></text>
  <text class="cls-1" transform="translate(210.55 70.81) rotate(58.03)"><tspan x="0" y="0">r</tspan></text>
  <text class="cls-1" transform="translate(211.34 72.08) rotate(59.14)"><tspan x="0" y="0">a</tspan></text>
  <text class="cls-1" transform="translate(212.6 74.2) rotate(60.12)"><tspan x="0" y="0">l</tspan></text>
  <text class="cls-1" transform="translate(213.09 75.05) rotate(60.75)"><tspan x="0" y="0"> </tspan></text>
  <text class="cls-1" transform="translate(213.72 76.15) rotate(61.75)"><tspan x="0" y="0">h</tspan></text>
  <text class="cls-1" transform="translate(214.76 78.11) rotate(62.66)"><tspan x="0" y="0">i</tspan></text>
  <text class="cls-1" transform="translate(215.24 79.03) rotate(63.51)"><tspan x="0" y="0">c</tspan></text>
  <text class="cls-1" transform="translate(216.09 80.74) rotate(64.6)"><tspan x="0" y="0">c</tspan></text>
  <text class="cls-1" transform="translate(216.93 82.49) rotate(65.78)"><tspan x="0" y="0">u</tspan></text>
  <text class="cls-1" transform="translate(217.84 84.53) rotate(67.12)"><tspan x="0" y="0">p</tspan></text>
  <text class="cls-1" transform="translate(218.79 86.79) rotate(68.17)"><tspan x="0" y="0"> </tspan></text>
  <text class="cls-1" transform="translate(219.25 87.94) rotate(68.81)"><tspan x="0" y="0">i</tspan></text>
  <text class="cls-1" transform="translate(219.62 88.88) rotate(69.57)"><tspan x="0" y="0">s</tspan></text>
  <text class="cls-1" transform="translate(220.19 90.43) rotate(70.4)"><tspan x="0" y="0"> </tspan></text>
  <text class="cls-1" transform="translate(220.63 91.61) rotate(71.66)"><tspan x="0" y="0">w</tspan></text>
  <text class="cls-1" transform="translate(221.61 94.6) rotate(73.19)"><tspan x="0" y="0">h</tspan></text>
  <text class="cls-1" transform="translate(222.26 96.74) rotate(74.47)"><tspan x="0" y="0">e</tspan></text>
  <text class="cls-1" transform="translate(222.86 98.91) rotate(75.75)"><tspan x="0" y="0">n</tspan></text>
  <text class="cls-1" transform="translate(223.4 101.06) rotate(76.73)"><tspan x="0" y="0"> </tspan></text>
  <text class="cls-1" transform="translate(223.69 102.28) rotate(77.4)"><tspan x="0" y="0">t</tspan></text>
  <text class="cls-1" transform="translate(223.96 103.46) rotate(78.41)"><tspan x="0" y="0">h</tspan></text>
  <text class="cls-1" transform="translate(224.4 105.63) rotate(79.68)"><tspan x="0" y="0">e</tspan></text>
  <text class="cls-1" transform="translate(224.81 107.86) rotate(80.68)"><tspan x="0" y="0"> </tspan></text>
  <text class="cls-1" transform="translate(225.01 109.07) rotate(81.72)"><tspan x="0" y="0">a</tspan></text>
  <text class="cls-1" transform="translate(225.36 111.51) rotate(83.05)"><tspan x="0" y="0">n</tspan></text>
  <text class="cls-1" transform="translate(225.63 113.72) rotate(83.96)"><tspan x="0" y="0">i</tspan></text>
  <text class="cls-1" transform="translate(225.74 114.71) rotate(85.15)"><tspan x="0" y="0">m</tspan></text>
  <text class="cls-1" transform="translate(226.01 117.92) rotate(86.74)"><tspan x="0" y="0">a</tspan></text>
  <text class="cls-1" transform="translate(226.15 120.37) rotate(87.73)"><tspan x="0" y="0">t</tspan></text>
  <text class="cls-1" transform="translate(226.2 121.5) rotate(88.74)"><tspan x="0" y="0">o</tspan></text>
  <text class="cls-1" transform="translate(226.24 123.95) rotate(89.07)"><tspan x="0" y="0">r</tspan></text>
  <text class="cls-1" transform="translate(226.25 125.47) rotate(90.93)"><tspan x="0" y="0"> </tspan></text>
  <text class="cls-1" transform="translate(226.24 126.71) rotate(91.63)"><tspan x="0" y="0">a</tspan></text>
  <text class="cls-1" transform="translate(226.17 129.16) rotate(92.86)"><tspan x="0" y="0">c</tspan></text>
  <text class="cls-1" transform="translate(226.07 131.09) rotate(93.94)"><tspan x="0" y="0">c</tspan></text>
  <text class="cls-1" transform="translate(225.94 133.05) rotate(94.78)"><tspan x="0" y="0">i</tspan></text>
  <text class="cls-1" transform="translate(225.86 134.05) rotate(95.75)"><tspan x="0" y="0">d</tspan></text>
  <text class="cls-1" transform="translate(225.61 136.48) rotate(97.08)"><tspan x="0" y="0">e</tspan></text>
  <text class="cls-1" transform="translate(225.33 138.72) rotate(98.35)"><tspan x="0" y="0">n</tspan></text>
  <text class="cls-1" transform="translate(225.01 140.93) rotate(99.3)"><tspan x="0" y="0">t</tspan></text>
  <text class="cls-1" transform="translate(224.83 142.01) rotate(99.89)"><tspan x="0" y="0">l</tspan></text>
  <text class="cls-1" transform="translate(224.65 143.04) rotate(100.82)"><tspan x="0" y="0">y</tspan></text>
  <text class="cls-1" transform="translate(224.23 145.21) rotate(101.81)"><tspan x="0" y="0"> </tspan></text>
  <text class="cls-1" transform="translate(223.98 146.44) rotate(102.86)"><tspan x="0" y="0">a</tspan></text>
  <text class="cls-1" transform="translate(223.44 148.82) rotate(104.03)"><tspan x="0" y="0">s</tspan></text>
  <text class="cls-1" transform="translate(223.04 150.41) rotate(104.96)"><tspan x="0" y="0">s</tspan></text>
  <text class="cls-1" transform="translate(222.61 152.02) rotate(105.73)"><tspan x="0" y="0">i</tspan></text>
  <text class="cls-1" transform="translate(222.33 153.01) rotate(106.72)"><tspan x="0" y="0">g</tspan></text>
  <text class="cls-1" transform="translate(221.63 155.34) rotate(108.05)"><tspan x="0" y="0">n</tspan></text>
  <text class="cls-1" transform="translate(220.94 157.44) rotate(109.15)"><tspan x="0" y="0">s</tspan></text>
  <text class="cls-1" transform="translate(220.4 159) rotate(109.98)"><tspan x="0" y="0"> </tspan></text>
  <text class="cls-1" transform="translate(219.97 160.19) rotate(111.04)"><tspan x="0" y="0">a</tspan></text>
  <text class="cls-1" transform="translate(219.09 162.47) rotate(112.09)"><tspan x="0" y="0"> </tspan></text>
  <text class="cls-1" transform="translate(218.63 163.61) rotate(112.75)"><tspan x="0" y="0">t</tspan></text>
  <text class="cls-1" transform="translate(218.18 164.68) rotate(113.74)"><tspan x="0" y="0">e</tspan></text>
  <text class="cls-1" transform="translate(217.31 166.68) rotate(114.99)"><tspan x="0" y="0">x</tspan></text>
  <text class="cls-1" transform="translate(216.34 168.74) rotate(115.94)"><tspan x="0" y="0">t</tspan></text>
  <text class="cls-1" transform="translate(215.87 169.73) rotate(116.88)"><tspan x="0" y="0">u</tspan></text>
  <text class="cls-1" transform="translate(214.86 171.71) rotate(117.95)"><tspan x="0" y="0">r</tspan></text>
  <text class="cls-1" transform="translate(214.16 173.03) rotate(119)"><tspan x="0" y="0">e</tspan></text>
  <text class="cls-1" transform="translate(213.07 174.99) rotate(119.99)"><tspan x="0" y="0"> </tspan></text>
  <text class="cls-1" transform="translate(212.45 176.07) rotate(120.66)"><tspan x="0" y="0">t</tspan></text>
  <text class="cls-1" transform="translate(211.86 177.08) rotate(121.69)"><tspan x="0" y="0">o</tspan></text>
  <text class="cls-1" transform="translate(210.58 179.14) rotate(122.73)"><tspan x="0" y="0"> </tspan></text>
  <text class="cls-1" transform="translate(209.9 180.19) rotate(123.4)"><tspan x="0" y="0">t</tspan></text>
  <text class="cls-1" transform="translate(209.25 181.19) rotate(124.39)"><tspan x="0" y="0">h</tspan></text>
  <text class="cls-1" transform="translate(207.98 183.03) rotate(125.65)"><tspan x="0" y="0">e</tspan></text>
  <text class="cls-1" transform="translate(206.67 184.86) rotate(126.64)"><tspan x="0" y="0"> </tspan></text>
  <text class="cls-1" transform="translate(205.92 185.87) rotate(127.28)"><tspan x="0" y="0">i</tspan></text>
  <text class="cls-1" transform="translate(205.3 186.69) rotate(128.21)"><tspan x="0" y="0">n</tspan></text>
  <text class="cls-1" transform="translate(203.92 188.44) rotate(129.3)"><tspan x="0" y="0">s</tspan></text>
  <text class="cls-1" transform="translate(202.87 189.72) rotate(130.05)"><tspan x="0" y="0">i</tspan></text>
  <text class="cls-1" transform="translate(202.24 190.48) rotate(131.01)"><tspan x="0" y="0">d</tspan></text>
  <text class="cls-1" transform="translate(200.63 192.33) rotate(132.33)"><tspan x="0" y="0">e</tspan></text>
  <text class="cls-1" transform="translate(199.12 193.99) rotate(133.31)"><tspan x="0" y="0"> </tspan></text>
  <text class="cls-1" transform="translate(198.26 194.91) rotate(134.36)"><tspan x="0" y="0">o</tspan></text>
  <text class="cls-1" transform="translate(196.54 196.65) rotate(135.38)"><tspan x="0" y="0">f</tspan></text>
  <text class="cls-1" transform="translate(195.68 197.5) rotate(136.08)"><tspan x="0" y="0"> </tspan></text>
  <text class="cls-1" transform="translate(194.77 198.38) rotate(136.75)"><tspan x="0" y="0">t</tspan></text>
  <text class="cls-1" transform="translate(193.91 199.19) rotate(137.73)"><tspan x="0" y="0">h</tspan></text>
  <text class="cls-1" transform="translate(192.26 200.69) rotate(138.99)"><tspan x="0" y="0">e</tspan></text>
  <text class="cls-1" transform="translate(190.56 202.17) rotate(139.98)"><tspan x="0" y="0"> </tspan></text>
  <text class="cls-1" transform="translate(189.61 202.98) rotate(141.24)"><tspan x="0" y="0">m</tspan></text>
  <text class="cls-1" transform="translate(187.09 204.99) rotate(142.78)"><tspan x="0" y="0">e</tspan></text>
  <text class="cls-1" transform="translate(185.3 206.35) rotate(143.87)"><tspan x="0" y="0">s</tspan></text>
  <text class="cls-1" transform="translate(183.97 207.32) rotate(144.97)"><tspan x="0" y="0">h</tspan></text>
  <text class="cls-1" transform="translate(182.13 208.61) rotate(145.96)"><tspan x="0" y="0"> </tspan></text>
  <text class="cls-1" transform="translate(181.08 209.31) rotate(146.6)"><tspan x="0" y="0">i</tspan></text>
  <text class="cls-1" transform="translate(180.26 209.86) rotate(147.51)"><tspan x="0" y="0">n</tspan></text>
  <text class="cls-1" transform="translate(178.37 211.07) rotate(148.5)"><tspan x="0" y="0"> </tspan></text>
  <text class="cls-1" transform="translate(177.31 211.72) rotate(149.54)"><tspan x="0" y="0">q</tspan></text>
  <text class="cls-1" transform="translate(175.18 212.97) rotate(150.88)"><tspan x="0" y="0">u</tspan></text>
  <text class="cls-1" transform="translate(173.22 214.06) rotate(152.16)"><tspan x="0" y="0">e</tspan></text>
  <text class="cls-1" transform="translate(171.22 215.11) rotate(153.27)"><tspan x="0" y="0">s</tspan></text>
  <text class="cls-1" transform="translate(169.74 215.86) rotate(154.06)"><tspan x="0" y="0">t</tspan></text>
  <text class="cls-1" transform="translate(168.77 216.33) rotate(154.64)"><tspan x="0" y="0">i</tspan></text>
  <text class="cls-1" transform="translate(167.86 216.77) rotate(155.63)"><tspan x="0" y="0">o</tspan></text>
  <text class="cls-1" transform="translate(165.62 217.78) rotate(156.96)"><tspan x="0" y="0">n</tspan></text>
  <text class="cls-1" transform="translate(163.57 218.65) rotate(157.95)"><tspan x="0" y="0">.</tspan></text>
  <text class="cls-1" transform="translate(162.39 219.13) rotate(158.68)"><tspan x="0" y="0"> </tspan></text>
  <text class="cls-1" transform="translate(161.23 219.58) rotate(159.59)"><tspan x="0" y="0">T</tspan></text>
  <text class="cls-1" transform="translate(159.4 220.27) rotate(160.78)"><tspan x="0" y="0">h</tspan></text>
  <text class="cls-1" transform="translate(157.3 221) rotate(161.7)"><tspan x="0" y="0">i</tspan></text>
  <text class="cls-1" transform="translate(156.31 221.32) rotate(162.48)"><tspan x="0" y="0">s</tspan></text>
  <text class="cls-1" transform="translate(154.74 221.82) rotate(163.3)"><tspan x="0" y="0"> </tspan></text>
  <text class="cls-1" transform="translate(153.55 222.18) rotate(164.09)"><tspan x="0" y="0">r</tspan></text>
  <text class="cls-1" transform="translate(152.12 222.59) rotate(165.15)"><tspan x="0" y="0">e</tspan></text>
  <text class="cls-1" transform="translate(149.93 223.16) rotate(166.26)"><tspan x="0" y="0">s</tspan></text>
  <text class="cls-1" transform="translate(148.34 223.55) rotate(167.36)"><tspan x="0" y="0">u</tspan></text>
  <text class="cls-1" transform="translate(146.17 224.04) rotate(168.28)"><tspan x="0" y="0">l</tspan></text>
  <text class="cls-1" transform="translate(145.18 224.24) rotate(168.88)"><tspan x="0" y="0">t</tspan></text>
  <text class="cls-1" transform="translate(144.09 224.46) rotate(169.67)"><tspan x="0" y="0">s</tspan></text>
  <text class="cls-1" transform="translate(142.45 224.76) rotate(170.5)"><tspan x="0" y="0"> </tspan></text>
  <text class="cls-1" transform="translate(141.22 224.96) rotate(171.14)"><tspan x="0" y="0">i</tspan></text>
  <text class="cls-1" transform="translate(140.23 225.12) rotate(172.06)"><tspan x="0" y="0">n</tspan></text>
  <text class="cls-1" transform="translate(138.01 225.43) rotate(173.05)"><tspan x="0" y="0"> </tspan></text>
  <text class="cls-1" transform="translate(136.77 225.58) rotate(174.09)"><tspan x="0" y="0">a</tspan></text>
  <text class="cls-1" transform="translate(134.35 225.83) rotate(175.4)"><tspan x="0" y="0">n</tspan></text>
  <text class="cls-1" transform="translate(132.11 226.01) rotate(176.38)"><tspan x="0" y="0"> </tspan></text>
  <text class="cls-1" transform="translate(130.86 226.09) rotate(177.02)"><tspan x="0" y="0">i</tspan></text>
  <text class="cls-1" transform="translate(129.85 226.14) rotate(177.93)"><tspan x="0" y="0">n</tspan></text>
  <text class="cls-1" transform="translate(127.68 226.22) rotate(179.07)"><tspan x="0" y="0">v</tspan></text>
  <text class="cls-1" transform="translate(125.72 226.27) rotate(-179.07)"><tspan x="0" y="0">e</tspan></text>
  <text class="cls-1" transform="translate(123.46 226.24) rotate(-178.72)"><tspan x="0" y="0">r</tspan></text>
  <text class="cls-1" transform="translate(121.79 226.2) rotate(-177.9)"><tspan x="0" y="0">t</tspan></text>
  <text class="cls-1" transform="translate(120.64 226.17) rotate(-176.94)"><tspan x="0" y="0">e</tspan></text>
  <text class="cls-1" transform="translate(118.39 226.05) rotate(-175.63)"><tspan x="0" y="0">d</tspan></text>
  <text class="cls-1" transform="translate(115.96 225.86) rotate(-174.59)"><tspan x="0" y="0"> </tspan></text>
  <text class="cls-1" transform="translate(114.73 225.74) rotate(-173.93)"><tspan x="0" y="0">t</tspan></text>
  <text class="cls-1" transform="translate(113.58 225.62) rotate(-172.96)"><tspan x="0" y="0">e</tspan></text>
  <text class="cls-1" transform="translate(111.42 225.36) rotate(-171.72)"><tspan x="0" y="0">x</tspan></text>
  <text class="cls-1" transform="translate(109.15 225.02) rotate(-170.75)"><tspan x="0" y="0">t</tspan></text>
  <text class="cls-1" transform="translate(108.06 224.85) rotate(-169.8)"><tspan x="0" y="0">u</tspan></text>
  <text class="cls-1" transform="translate(105.89 224.46) rotate(-168.75)"><tspan x="0" y="0">r</tspan></text>
  <text class="cls-1" transform="translate(104.43 224.17) rotate(-167.7)"><tspan x="0" y="0">e</tspan></text>
  <text class="cls-1" transform="translate(102.21 223.68) rotate(-166.69)"><tspan x="0" y="0">,</tspan></text>
  <text class="cls-1" transform="translate(100.99 223.39) rotate(-165.97)"><tspan x="0" y="0"> </tspan></text>
  <text class="cls-1" transform="translate(99.79 223.1) rotate(-164.72)"><tspan x="0" y="0">w</tspan></text>
  <text class="cls-1" transform="translate(96.75 222.27) rotate(-163.19)"><tspan x="0" y="0">h</tspan></text>
  <text class="cls-1" transform="translate(94.62 221.62) rotate(-161.91)"><tspan x="0" y="0">e</tspan></text>
  <text class="cls-1" transform="translate(92.48 220.92) rotate(-160.84)"><tspan x="0" y="0">r</tspan></text>
  <text class="cls-1" transform="translate(91.07 220.43) rotate(-159.78)"><tspan x="0" y="0">e</tspan></text>
  <text class="cls-1" transform="translate(88.95 219.65) rotate(-158.78)"><tspan x="0" y="0"> </tspan></text>
  <text class="cls-1" transform="translate(87.78 219.21) rotate(-157.52)"><tspan x="0" y="0">w</tspan></text>
  <text class="cls-1" transform="translate(84.88 218) rotate(-156)"><tspan x="0" y="0">h</tspan></text>
  <text class="cls-1" transform="translate(82.84 217.09) rotate(-154.67)"><tspan x="0" y="0">a</tspan></text>
  <text class="cls-1" transform="translate(80.64 216.05) rotate(-153.66)"><tspan x="0" y="0">t</tspan></text>
  <text class="cls-1" transform="translate(79.64 215.55) rotate(-152.99)"><tspan x="0" y="0"> </tspan></text>
  <text class="cls-1" transform="translate(78.51 214.97) rotate(-152.33)"><tspan x="0" y="0">i</tspan></text>
  <text class="cls-1" transform="translate(77.62 214.51) rotate(-151.59)"><tspan x="0" y="0">s</tspan></text>
  <text class="cls-1" transform="translate(76.17 213.72) rotate(-150.76)"><tspan x="0" y="0"> </tspan></text>
  <text class="cls-1" transform="translate(75.08 213.11) rotate(-150.12)"><tspan x="0" y="0">i</tspan></text>
  <text class="cls-1" transform="translate(74.18 212.6) rotate(-149.19)"><tspan x="0" y="0">n</tspan></text>
  <text class="cls-1" transform="translate(72.28 211.46) rotate(-148.1)"><tspan x="0" y="0">s</tspan></text>
  <text class="cls-1" transform="translate(70.87 210.59) rotate(-147.35)"><tspan x="0" y="0">i</tspan></text>
  <text class="cls-1" transform="translate(70.01 210.05) rotate(-146.37)"><tspan x="0" y="0">d</tspan></text>
  <text class="cls-1" transform="translate(68 208.71) rotate(-145.05)"><tspan x="0" y="0">e</tspan></text>
  <text class="cls-1" transform="translate(66.16 207.41) rotate(-144.07)"><tspan x="0" y="0"> </tspan></text>
  <text class="cls-1" transform="translate(65.13 206.67) rotate(-143.42)"><tspan x="0" y="0">i</tspan></text>
  <text class="cls-1" transform="translate(64.32 206.07) rotate(-142.67)"><tspan x="0" y="0">s</tspan></text>
  <text class="cls-1" transform="translate(63.01 205.07) rotate(-141.86)"><tspan x="0" y="0"> </tspan></text>
  <text class="cls-1" transform="translate(62.02 204.29) rotate(-141.19)"><tspan x="0" y="0">t</tspan></text>
  <text class="cls-1" transform="translate(61.08 203.54) rotate(-140.19)"><tspan x="0" y="0">h</tspan></text>
  <text class="cls-1" transform="translate(59.38 202.12) rotate(-139.14)"><tspan x="0" y="0">r</tspan></text>
  <text class="cls-1" transform="translate(58.17 201.08) rotate(-138.05)"><tspan x="0" y="0">u</tspan></text>
  <text class="cls-1" transform="translate(56.52 199.59) rotate(-136.96)"><tspan x="0" y="0">s</tspan></text>
  <text class="cls-1" transform="translate(55.33 198.47) rotate(-136.2)"><tspan x="0" y="0">t</tspan></text>
  <text class="cls-1" transform="translate(54.52 197.7) rotate(-135.52)"><tspan x="0" y="0"> </tspan></text>
  <text class="cls-1" transform="translate(53.63 196.83) rotate(-134.49)"><tspan x="0" y="0">o</tspan></text>
  <text class="cls-1" transform="translate(51.9 195.07) rotate(-133.16)"><tspan x="0" y="0">u</tspan></text>
  <text class="cls-1" transform="translate(50.39 193.45) rotate(-132.24)"><tspan x="0" y="0">t</tspan></text>
  <text class="cls-1" transform="translate(49.64 192.63) rotate(-131.46)"><tspan x="0" y="0">s</tspan></text>
  <text class="cls-1" transform="translate(48.55 191.39) rotate(-130.71)"><tspan x="0" y="0">i</tspan></text>
  <text class="cls-1" transform="translate(47.9 190.64) rotate(-129.75)"><tspan x="0" y="0">d</tspan></text>
  <text class="cls-1" transform="translate(46.33 188.76) rotate(-128.42)"><tspan x="0" y="0">e</tspan></text>
  <text class="cls-1" transform="translate(44.94 186.99) rotate(-127.43)"><tspan x="0" y="0">.</tspan></text>
  <text class="cls-1" transform="translate(44.17 186) rotate(-126.73)"><tspan x="0" y="0"> </tspan></text>
  <text class="cls-1" transform="translate(43.42 184.98) rotate(-126.03)"><tspan x="0" y="0">I</tspan></text>
  <text class="cls-1" transform="translate(42.71 184.01) rotate(-125.38)"><tspan x="0" y="0">t</tspan></text>
  <text class="cls-1" transform="translate(42.07 183.11) rotate(-124.71)"><tspan x="0" y="0"> </tspan></text>
  <text class="cls-1" transform="translate(41.35 182.07) rotate(-124.06)"><tspan x="0" y="0">i</tspan></text>
  <text class="cls-1" transform="translate(40.78 181.23) rotate(-123.31)"><tspan x="0" y="0">s</tspan></text>
  <text class="cls-1" transform="translate(39.87 179.85) rotate(-122.49)"><tspan x="0" y="0"> </tspan></text>
  <text class="cls-1" transform="translate(39.2 178.79) rotate(-121.82)"><tspan x="0" y="0">t</tspan></text>
  <text class="cls-1" transform="translate(38.57 177.78) rotate(-120.83)"><tspan x="0" y="0">h</tspan></text>
  <text class="cls-1" transform="translate(37.44 175.89) rotate(-119.57)"><tspan x="0" y="0">e</tspan></text>
  <text class="cls-1" transform="translate(36.33 173.92) rotate(-118.58)"><tspan x="0" y="0"> </tspan></text>
  <text class="cls-1" transform="translate(35.72 172.82) rotate(-117.52)"><tspan x="0" y="0">d</tspan></text>
  <text class="cls-1" transform="translate(34.59 170.65) rotate(-116.54)"><tspan x="0" y="0">i</tspan></text>
  <text class="cls-1" transform="translate(34.14 169.75) rotate(-115.56)"><tspan x="0" y="0">g</tspan></text>
  <text class="cls-1" transform="translate(33.1 167.56) rotate(-114.59)"><tspan x="0" y="0">i</tspan></text>
  <text class="cls-1" transform="translate(32.67 166.62) rotate(-113.98)"><tspan x="0" y="0">t</tspan></text>
  <text class="cls-1" transform="translate(32.2 165.58) rotate(-112.95)"><tspan x="0" y="0">a</tspan></text>
  <text class="cls-1" transform="translate(31.25 163.32) rotate(-111.96)"><tspan x="0" y="0">l</tspan></text>
  <text class="cls-1" transform="translate(30.87 162.39) rotate(-111.32)"><tspan x="0" y="0"> </tspan></text>
  <text class="cls-1" transform="translate(30.41 161.22) rotate(-110.32)"><tspan x="0" y="0">e</tspan></text>
  <text class="cls-1" transform="translate(29.63 159.12) rotate(-108.98)"><tspan x="0" y="0">q</tspan></text>
  <text class="cls-1" transform="translate(28.83 156.77) rotate(-107.63)"><tspan x="0" y="0">u</tspan></text>
  <text class="cls-1" transform="translate(28.15 154.63) rotate(-106.7)"><tspan x="0" y="0">i</tspan></text>
  <text class="cls-1" transform="translate(27.86 153.68) rotate(-105.83)"><tspan x="0" y="0">v</tspan></text>
  <text class="cls-1" transform="translate(27.32 151.78) rotate(-104.6)"><tspan x="0" y="0">a</tspan></text>
  <text class="cls-1" transform="translate(26.71 149.42) rotate(-103.61)"><tspan x="0" y="0">l</tspan></text>
  <text class="cls-1" transform="translate(26.47 148.44) rotate(-102.68)"><tspan x="0" y="0">e</tspan></text>
  <text class="cls-1" transform="translate(25.97 146.24) rotate(-101.41)"><tspan x="0" y="0">n</tspan></text>
  <text class="cls-1" transform="translate(25.54 144.06) rotate(-100.47)"><tspan x="0" y="0">t</tspan></text>
  <text class="cls-1" transform="translate(25.33 142.97) rotate(-99.79)"><tspan x="0" y="0"> </tspan></text>
  <text class="cls-1" transform="translate(25.11 141.72) rotate(-98.73)"><tspan x="0" y="0">o</tspan></text>
  <text class="cls-1" transform="translate(24.75 139.29) rotate(-97.7)"><tspan x="0" y="0">f</tspan></text>
  <text class="cls-1" transform="translate(24.59 138.11) rotate(-97.01)"><tspan x="0" y="0"> </tspan></text>
  <text class="cls-1" transform="translate(24.43 136.86) rotate(-95.96)"><tspan x="0" y="0">a</tspan></text>
  <text class="cls-1" transform="translate(24.18 134.43) rotate(-94.92)"><tspan x="0" y="0"> </tspan></text>
  <text class="cls-1" transform="translate(24.07 133.18) rotate(-93.88)"><tspan x="0" y="0">p</tspan></text>
  <text class="cls-1" transform="translate(23.9 130.74) rotate(-92.77)"><tspan x="0" y="0">r</tspan></text>
  <text class="cls-1" transform="translate(23.83 129.27) rotate(-91.69)"><tspan x="0" y="0">o</tspan></text>
  <text class="cls-1" transform="translate(23.77 126.82) rotate(-90.93)"><tspan x="0" y="0">l</tspan></text>
  <text class="cls-1" transform="translate(23.73 125.82) rotate(-89.07)"><tspan x="0" y="0">a</tspan></text>
  <text class="cls-1" transform="translate(23.76 123.37) rotate(-88.41)"><tspan x="0" y="0">p</tspan></text>
  <text class="cls-1" transform="translate(23.83 120.95) rotate(-87.28)"><tspan x="0" y="0">s</tspan></text>
  <text class="cls-1" transform="translate(23.9 119.27) rotate(-86.17)"><tspan x="0" y="0">e</tspan></text>
  <text class="cls-1" transform="translate(24.05 117.03) rotate(-84.86)"><tspan x="0" y="0">d</tspan></text>
  <text class="cls-1" transform="translate(24.27 114.6) rotate(-83.82)"><tspan x="0" y="0"> </tspan></text>
  <text class="cls-1" transform="translate(24.4 113.37) rotate(-82.78)"><tspan x="0" y="0">o</tspan></text>
  <text class="cls-1" transform="translate(24.72 110.93) rotate(-81.65)"><tspan x="0" y="0">r</tspan></text>
  <text class="cls-1" transform="translate(24.93 109.42) rotate(-80.53)"><tspan x="0" y="0">g</tspan></text>
  <text class="cls-1" transform="translate(25.33 107.04) rotate(-79.15)"><tspan x="0" y="0">a</tspan></text>
  <text class="cls-1" transform="translate(25.79 104.64) rotate(-77.82)"><tspan x="0" y="0">n</tspan></text>
  <text class="cls-1" transform="translate(26.27 102.45) rotate(-76.82)"><tspan x="0" y="0">.</tspan></text>
</svg>