<?xml version="1.0" encoding="UTF-8"?>
<svg id="Layer_15" data-name="Layer 15" xmlns="http://www.w3.org/2000/svg" viewBox="0 0 250 250">
  <defs>
    <style>
      .cls-1 {
        fill: #231f20;
        font-family: Futura-Medium, Futura;
        font-size: 3.3px;
        font-weight: 500;
      }
    </style>
  </defs>
  <text class="cls-1" transform="translate(55.97 142.75) rotate(-103.5)"><tspan x="0" y="0">L</tspan></text>
  <text class="cls-1" transform="translate(55.63 141.36) rotate(-102.52)"><tspan x="0" y="0">a</tspan></text>
  <text class="cls-1" transform="translate(55.19 139.4) rotate(-101)"><tspan x="0" y="0">y</tspan></text>
  <text class="cls-1" transform="translate(54.87 137.72) rotate(-99.62)"><tspan x="0" y="0">e</tspan></text>
  <text class="cls-1" transform="translate(54.56 135.92) rotate(-98.4)"><tspan x="0" y="0">r</tspan></text>
  <text class="cls-1" transform="translate(54.38 134.7) rotate(-97.5)"><tspan x="0" y="0"> </tspan></text>
  <text class="cls-1" transform="translate(54.25 133.71) rotate(-96.28)"><tspan x="0" y="0">1</tspan></text>
  <text class="cls-1" transform="translate(54.05 131.96) rotate(-94.86)"><tspan x="0" y="0">5</tspan></text>
  <text class="cls-1" transform="translate(53.89 129.95) rotate(-93.65)"><tspan x="0" y="0"> </tspan></text>
  <text class="cls-1" transform="translate(53.82 128.93) rotate(-92.84)"><tspan x="0" y="0">I</tspan></text>
  <text class="cls-1" transform="translate(53.77 127.97) rotate(-91.65)"><tspan x="0" y="0">p</tspan></text>
  <text class="cls-1" transform="translate(53.72 126.02) rotate(-90.33)"><tspan x="0" y="0">s</tspan></text>
  <text class="cls-1" transform="translate(53.7 124.68) rotate(-89.06)"><tspan x="0" y="0">u</tspan></text>
  <text class="cls-1" transform="translate(53.73 122.89) rotate(-87.28)"><tspan x="0" y="0">m</tspan></text>
  <text class="cls-1" transform="translate(53.86 120.32) rotate(-85.84)"><tspan x="0" y="0"> </tspan></text>
  <text class="cls-1" transform="translate(53.93 119.32) rotate(-84.85)"><tspan x="0" y="0">L</tspan></text>
  <text class="cls-1" transform="translate(54.06 117.87) rotate(-83.46)"><tspan x="0" y="0">o</tspan></text>
  <text class="cls-1" transform="translate(54.29 115.9) rotate(-82.16)"><tspan x="0" y="0">r</tspan></text>
  <text class="cls-1" transform="translate(54.45 114.72) rotate(-80.95)"><tspan x="0" y="0">e</tspan></text>
  <text class="cls-1" transform="translate(54.72 112.94) rotate(-79.18)"><tspan x="0" y="0">m</tspan></text>
  <text class="cls-1" transform="translate(55.22 110.38) rotate(-77.72)"><tspan x="0" y="0"> </tspan></text>
  <text class="cls-1" transform="translate(55.43 109.41) rotate(-76.93)"><tspan x="0" y="0">I</tspan></text>
  <text class="cls-1" transform="translate(55.65 108.46) rotate(-75.74)"><tspan x="0" y="0">p</tspan></text>
  <text class="cls-1" transform="translate(56.14 106.56) rotate(-74.42)"><tspan x="0" y="0">s</tspan></text>
  <text class="cls-1" transform="translate(56.49 105.28) rotate(-73.16)"><tspan x="0" y="0">u</tspan></text>
  <text class="cls-1" transform="translate(57 103.58) rotate(-71.42)"><tspan x="0" y="0">m</tspan></text>
  <text class="cls-1" transform="translate(57.83 101.13) rotate(-69.97)"><tspan x="0" y="0"> </tspan></text>
  <text class="cls-1" transform="translate(58.18 100.18) rotate(-68.99)"><tspan x="0" y="0">L</tspan></text>
  <text class="cls-1" transform="translate(58.69 98.82) rotate(-67.61)"><tspan x="0" y="0">o</tspan></text>
  <text class="cls-1" transform="translate(59.45 96.99) rotate(-66.33)"><tspan x="0" y="0">r</tspan></text>
  <text class="cls-1" transform="translate(59.93 95.89) rotate(-65.13)"><tspan x="0" y="0">e</tspan></text>
  <text class="cls-1" transform="translate(60.68 94.25) rotate(-63.38)"><tspan x="0" y="0">m</tspan></text>
  <text class="cls-1" transform="translate(61.85 91.95) rotate(-61.94)"><tspan x="0" y="0"> </tspan></text>
  <text class="cls-1" transform="translate(62.33 91.05) rotate(-61.15)"><tspan x="0" y="0">I</tspan></text>
  <text class="cls-1" transform="translate(62.79 90.2) rotate(-59.98)"><tspan x="0" y="0">p</tspan></text>
  <text class="cls-1" transform="translate(63.78 88.49) rotate(-58.66)"><tspan x="0" y="0">s</tspan></text>
  <text class="cls-1" transform="translate(64.46 87.37) rotate(-57.42)"><tspan x="0" y="0">u</tspan></text>
  <text class="cls-1" transform="translate(65.42 85.86) rotate(-55.67)"><tspan x="0" y="0">m</tspan></text>
  <text class="cls-1" transform="translate(66.89 83.73) rotate(-54.24)"><tspan x="0" y="0"> </tspan></text>
  <text class="cls-1" transform="translate(67.47 82.91) rotate(-53.25)"><tspan x="0" y="0">L</tspan></text>
  <text class="cls-1" transform="translate(68.34 81.74) rotate(-51.88)"><tspan x="0" y="0">o</tspan></text>
  <text class="cls-1" transform="translate(69.55 80.21) rotate(-50.62)"><tspan x="0" y="0">r</tspan></text>
  <text class="cls-1" transform="translate(70.31 79.28) rotate(-49.41)"><tspan x="0" y="0">e</tspan></text>
  <text class="cls-1" transform="translate(71.48 77.9) rotate(-47.65)"><tspan x="0" y="0">m</tspan></text>
  <text class="cls-1" transform="translate(73.25 75.97) rotate(-46.18)"><tspan x="0" y="0"> </tspan></text>
  <text class="cls-1" transform="translate(73.94 75.26) rotate(-45.41)"><tspan x="0" y="0">I</tspan></text>
  <text class="cls-1" transform="translate(74.62 74.56) rotate(-44.22)"><tspan x="0" y="0">p</tspan></text>
  <text class="cls-1" transform="translate(76.03 73.19) rotate(-42.9)"><tspan x="0" y="0">s</tspan></text>
  <text class="cls-1" transform="translate(77 72.28) rotate(-41.63)"><tspan x="0" y="0">u</tspan></text>
  <text class="cls-1" transform="translate(78.31 71.11) rotate(-39.89)"><tspan x="0" y="0">m</tspan></text>
  <text class="cls-1" transform="translate(80.32 69.45) rotate(-38.43)"><tspan x="0" y="0"> </tspan></text>
  <text class="cls-1" transform="translate(81.1 68.83) rotate(-37.44)"><tspan x="0" y="0">L</tspan></text>
  <text class="cls-1" transform="translate(82.24 67.94) rotate(-36.06)"><tspan x="0" y="0">o</tspan></text>
  <text class="cls-1" transform="translate(83.85 66.78) rotate(-34.76)"><tspan x="0" y="0">r</tspan></text>
  <text class="cls-1" transform="translate(84.83 66.09) rotate(-33.54)"><tspan x="0" y="0">e</tspan></text>
  <text class="cls-1" transform="translate(86.33 65.1) rotate(-31.77)"><tspan x="0" y="0">m</tspan></text>
  <text class="cls-1" transform="translate(88.55 63.73) rotate(-30.3)"><tspan x="0" y="0"> </tspan></text>
  <text class="cls-1" transform="translate(89.42 63.22) rotate(-29.5)"><tspan x="0" y="0">I</tspan></text>
  <text class="cls-1" transform="translate(90.25 62.75) rotate(-28.32)"><tspan x="0" y="0">p</tspan></text>
  <text class="cls-1" transform="translate(91.99 61.81) rotate(-26.98)"><tspan x="0" y="0">s</tspan></text>
  <text class="cls-1" transform="translate(93.17 61.21) rotate(-25.72)"><tspan x="0" y="0">u</tspan></text>
  <text class="cls-1" transform="translate(94.76 60.44) rotate(-23.97)"><tspan x="0" y="0">m</tspan></text>
  <text class="cls-1" transform="translate(97.12 59.39) rotate(-22.35)"><tspan x="0" y="0">L</tspan></text>
  <text class="cls-1" transform="translate(98.47 58.84) rotate(-20.97)"><tspan x="0" y="0">o</tspan></text>
  <text class="cls-1" transform="translate(100.32 58.13) rotate(-19.68)"><tspan x="0" y="0">r</tspan></text>
  <text class="cls-1" transform="translate(101.45 57.72) rotate(-18.48)"><tspan x="0" y="0">e</tspan></text>
  <text class="cls-1" transform="translate(103.16 57.15) rotate(-16.74)"><tspan x="0" y="0">m</tspan></text>
  <text class="cls-1" transform="translate(105.65 56.41) rotate(-15.36)"><tspan x="0" y="0"> </tspan><tspan x="1" y="0">I</tspan></text>
  <text class="cls-1" transform="translate(107.55 55.9) rotate(-13.38)"><tspan x="0" y="0">p</tspan></text>
  <text class="cls-1" transform="translate(109.48 55.44) rotate(-12.07)"><tspan x="0" y="0">s</tspan></text>
  <text class="cls-1" transform="translate(110.76 55.17) rotate(-10.85)"><tspan x="0" y="0">u</tspan></text>
  <text class="cls-1" transform="translate(112.5 54.82) rotate(-9.1)"><tspan x="0" y="0">m</tspan></text>
  <text class="cls-1" transform="translate(115.07 54.42) rotate(-7.48)"><tspan x="0" y="0">L</tspan></text>
  <text class="cls-1" transform="translate(116.51 54.23) rotate(-6.1)"><tspan x="0" y="0">o</tspan></text>
  <text class="cls-1" transform="translate(118.47 54.02) rotate(-4.82)"><tspan x="0" y="0">r</tspan></text>
  <text class="cls-1" transform="translate(119.67 53.92) rotate(-3.6)"><tspan x="0" y="0">e</tspan></text>
  <text class="cls-1" transform="translate(121.46 53.8) rotate(-1.83)"><tspan x="0" y="0">m</tspan></text>
  <text class="cls-1" transform="translate(124.05 53.73) rotate(-.38)"><tspan x="0" y="0"> </tspan></text>
  <text class="cls-1" transform="translate(125.07 53.72) rotate(.43)"><tspan x="0" y="0">I</tspan></text>
  <text class="cls-1" transform="translate(126.02 53.72) rotate(1.61)"><tspan x="0" y="0">p</tspan></text>
  <text class="cls-1" transform="translate(127.99 53.78) rotate(2.94)"><tspan x="0" y="0">s</tspan></text>
  <text class="cls-1" transform="translate(129.31 53.85) rotate(4.2)"><tspan x="0" y="0">u</tspan></text>
  <text class="cls-1" transform="translate(131.08 53.97) rotate(5.97)"><tspan x="0" y="0">m</tspan></text>
  <text class="cls-1" transform="translate(133.68 54.25) rotate(7.62)"><tspan x="0" y="0">L</tspan></text>
  <text class="cls-1" transform="translate(135.09 54.44) rotate(8.98)"><tspan x="0" y="0">o</tspan></text>
  <text class="cls-1" transform="translate(137.04 54.75) rotate(10.27)"><tspan x="0" y="0">r</tspan></text>
  <text class="cls-1" transform="translate(138.24 54.96) rotate(11.5)"><tspan x="0" y="0">e</tspan></text>
  <text class="cls-1" transform="translate(140 55.31) rotate(13.26)"><tspan x="0" y="0">m</tspan></text>
  <text class="cls-1" transform="translate(142.52 55.92) rotate(14.71)"><tspan x="0" y="0"> </tspan></text>
  <text class="cls-1" transform="translate(143.51 56.18) rotate(15.52)"><tspan x="0" y="0">I</tspan></text>
  <text class="cls-1" transform="translate(144.43 56.43) rotate(16.68)"><tspan x="0" y="0">p</tspan></text>
  <text class="cls-1" transform="translate(146.3 56.99) rotate(18)"><tspan x="0" y="0">s</tspan></text>
  <text class="cls-1" transform="translate(147.59 57.41) rotate(19.27)"><tspan x="0" y="0">u</tspan></text>
  <text class="cls-1" transform="translate(149.25 57.98) rotate(21.01)"><tspan x="0" y="0">m</tspan></text>
  <text class="cls-1" transform="translate(151.66 58.91) rotate(22.62)"><tspan x="0" y="0">L</tspan></text>
  <text class="cls-1" transform="translate(153 59.47) rotate(23.99)"><tspan x="0" y="0">o</tspan></text>
  <text class="cls-1" transform="translate(154.81 60.28) rotate(25.28)"><tspan x="0" y="0">r</tspan></text>
  <text class="cls-1" transform="translate(155.9 60.79) rotate(26.47)"><tspan x="0" y="0">e</tspan></text>
  <text class="cls-1" transform="translate(157.51 61.58) rotate(28.22)"><tspan x="0" y="0">m</tspan></text>
  <text class="cls-1" transform="translate(159.81 62.83) rotate(29.68)"><tspan x="0" y="0"> </tspan></text>
  <text class="cls-1" transform="translate(160.69 63.33) rotate(30.47)"><tspan x="0" y="0">I</tspan></text>
  <text class="cls-1" transform="translate(161.52 63.82) rotate(31.64)"><tspan x="0" y="0">p</tspan></text>
  <text class="cls-1" transform="translate(163.18 64.84) rotate(32.94)"><tspan x="0" y="0">s</tspan></text>
  <text class="cls-1" transform="translate(164.29 65.56) rotate(34.18)"><tspan x="0" y="0">u</tspan></text>
  <text class="cls-1" transform="translate(165.77 66.55) rotate(35.94)"><tspan x="0" y="0">m</tspan></text>
  <text class="cls-1" transform="translate(167.85 68.07) rotate(37.54)"><tspan x="0" y="0">L</tspan></text>
  <text class="cls-1" transform="translate(169.01 68.96) rotate(38.91)"><tspan x="0" y="0">o</tspan></text>
  <text class="cls-1" transform="translate(170.54 70.2) rotate(40.2)"><tspan x="0" y="0">r</tspan></text>
  <text class="cls-1" transform="translate(171.47 70.98) rotate(41.4)"><tspan x="0" y="0">e</tspan></text>
  <text class="cls-1" transform="translate(172.83 72.17) rotate(43.17)"><tspan x="0" y="0">m</tspan></text>
  <text class="cls-1" transform="translate(174.71 73.95) rotate(44.62)"><tspan x="0" y="0"> </tspan></text>
  <text class="cls-1" transform="translate(175.44 74.67) rotate(45.41)"><tspan x="0" y="0">I</tspan></text>
  <text class="cls-1" transform="translate(176.11 75.34) rotate(46.58)"><tspan x="0" y="0">p</tspan></text>
  <text class="cls-1" transform="translate(177.45 76.77) rotate(47.91)"><tspan x="0" y="0">s</tspan></text>
  <text class="cls-1" transform="translate(178.35 77.76) rotate(49.17)"><tspan x="0" y="0">u</tspan></text>
  <text class="cls-1" transform="translate(179.52 79.1) rotate(50.94)"><tspan x="0" y="0">m</tspan></text>
  <text class="cls-1" transform="translate(181.14 81.11) rotate(52.56)"><tspan x="0" y="0">L</tspan></text>
  <text class="cls-1" transform="translate(182.02 82.26) rotate(53.94)"><tspan x="0" y="0">o</tspan></text>
  <text class="cls-1" transform="translate(183.18 83.86) rotate(55.24)"><tspan x="0" y="0">r</tspan></text>
  <text class="cls-1" transform="translate(183.87 84.84) rotate(56.46)"><tspan x="0" y="0">e</tspan></text>
  <text class="cls-1" transform="translate(184.87 86.34) rotate(58.23)"><tspan x="0" y="0">m</tspan></text>
  <text class="cls-1" transform="translate(186.23 88.56) rotate(59.7)"><tspan x="0" y="0"> </tspan></text>
  <text class="cls-1" transform="translate(186.74 89.43) rotate(60.5)"><tspan x="0" y="0">I</tspan></text>
  <text class="cls-1" transform="translate(187.22 90.26) rotate(61.68)"><tspan x="0" y="0">p</tspan></text>
  <text class="cls-1" transform="translate(188.15 92) rotate(63.02)"><tspan x="0" y="0">s</tspan></text>
  <text class="cls-1" transform="translate(188.76 93.18) rotate(64.28)"><tspan x="0" y="0">u</tspan></text>
  <text class="cls-1" transform="translate(189.53 94.77) rotate(66.03)"><tspan x="0" y="0">m</tspan></text>
  <text class="cls-1" transform="translate(190.57 97.14) rotate(67.65)"><tspan x="0" y="0">L</tspan></text>
  <text class="cls-1" transform="translate(191.13 98.48) rotate(69.03)"><tspan x="0" y="0">o</tspan></text>
  <text class="cls-1" transform="translate(191.83 100.33) rotate(70.32)"><tspan x="0" y="0">r</tspan></text>
  <text class="cls-1" transform="translate(192.24 101.47) rotate(71.52)"><tspan x="0" y="0">e</tspan></text>
  <text class="cls-1" transform="translate(192.82 103.17) rotate(73.26)"><tspan x="0" y="0">m</tspan></text>
  <text class="cls-1" transform="translate(193.56 105.66) rotate(74.64)"><tspan x="0" y="0"> </tspan><tspan x="1" y="0">I</tspan></text>
  <text class="cls-1" transform="translate(194.07 107.56) rotate(76.62)"><tspan x="0" y="0">p</tspan></text>
  <text class="cls-1" transform="translate(194.52 109.46) rotate(77.91)"><tspan x="0" y="0">s</tspan></text>
  <text class="cls-1" transform="translate(194.8 110.77) rotate(79.15)"><tspan x="0" y="0">u</tspan></text>
  <text class="cls-1" transform="translate(195.14 112.51) rotate(80.9)"><tspan x="0" y="0">m</tspan></text>
  <text class="cls-1" transform="translate(195.54 115.08) rotate(82.34)"><tspan x="0" y="0"> </tspan></text>
  <text class="cls-1" transform="translate(195.68 116.08) rotate(83.34)"><tspan x="0" y="0">L</tspan></text>
  <text class="cls-1" transform="translate(195.85 117.52) rotate(84.71)"><tspan x="0" y="0">o</tspan></text>
  <text class="cls-1" transform="translate(196.03 119.48) rotate(85.99)"><tspan x="0" y="0">r</tspan></text>
  <text class="cls-1" transform="translate(196.12 120.68) rotate(87.21)"><tspan x="0" y="0">e</tspan></text>
  <text class="cls-1" transform="translate(196.21 122.47) rotate(88.98)"><tspan x="0" y="0">m</tspan></text>
  <text class="cls-1" transform="translate(196.25 125.08) rotate(90.45)"><tspan x="0" y="0"> </tspan></text>
  <text class="cls-1" transform="translate(196.24 126.1) rotate(91.25)"><tspan x="0" y="0">I</tspan></text>
  <text class="cls-1" transform="translate(196.22 127.05) rotate(92.43)"><tspan x="0" y="0">p</tspan></text>
  <text class="cls-1" transform="translate(196.14 129.01) rotate(93.76)"><tspan x="0" y="0">s</tspan></text>
  <text class="cls-1" transform="translate(196.05 130.33) rotate(95.02)"><tspan x="0" y="0">u</tspan></text>
  <text class="cls-1" transform="translate(195.91 132.1) rotate(96.79)"><tspan x="0" y="0">m</tspan></text>
  <text class="cls-1" transform="translate(195.59 134.67) rotate(98.24)"><tspan x="0" y="0"> </tspan></text>
  <text class="cls-1" transform="translate(195.44 135.68) rotate(99.25)"><tspan x="0" y="0">L</tspan></text>
  <text class="cls-1" transform="translate(195.21 137.11) rotate(100.62)"><tspan x="0" y="0">o</tspan></text>
  <text class="cls-1" transform="translate(194.85 139.04) rotate(101.91)"><tspan x="0" y="0">r</tspan></text>
  <text class="cls-1" transform="translate(194.6 140.23) rotate(103.13)"><tspan x="0" y="0">e</tspan></text>
  <text class="cls-1" transform="translate(194.2 141.98) rotate(104.89)"><tspan x="0" y="0">m</tspan></text>
  <text class="cls-1" transform="translate(193.52 144.48) rotate(106.34)"><tspan x="0" y="0"> </tspan></text>
  <text class="cls-1" transform="translate(193.24 145.46) rotate(107.14)"><tspan x="0" y="0">I</tspan></text>
  <text class="cls-1" transform="translate(192.96 146.36) rotate(108.3)"><tspan x="0" y="0">p</tspan></text>
  <text class="cls-1" transform="translate(192.34 148.24) rotate(109.64)"><tspan x="0" y="0">s</tspan></text>
  <text class="cls-1" transform="translate(191.9 149.49) rotate(110.88)"><tspan x="0" y="0">u</tspan></text>
  <text class="cls-1" transform="translate(191.27 151.14) rotate(112.62)"><tspan x="0" y="0">m</tspan></text>
  <text class="cls-1" transform="translate(190.26 153.55) rotate(114.08)"><tspan x="0" y="0"> </tspan></text>
  <text class="cls-1" transform="translate(189.85 154.47) rotate(115.06)"><tspan x="0" y="0">L</tspan></text>
  <text class="cls-1" transform="translate(189.24 155.79) rotate(116.43)"><tspan x="0" y="0">o</tspan></text>
  <text class="cls-1" transform="translate(188.35 157.56) rotate(117.71)"><tspan x="0" y="0">r</tspan></text>
  <text class="cls-1" transform="translate(187.81 158.6) rotate(118.89)"><tspan x="0" y="0">e</tspan></text>
  <text class="cls-1" transform="translate(186.93 160.2) rotate(120.66)"><tspan x="0" y="0">m</tspan></text>
  <text class="cls-1" transform="translate(185.61 162.42) rotate(122.09)"><tspan x="0" y="0"> </tspan></text>
  <text class="cls-1" transform="translate(185.07 163.28) rotate(122.88)"><tspan x="0" y="0">I</tspan></text>
  <text class="cls-1" transform="translate(184.55 164.09) rotate(124.05)"><tspan x="0" y="0">p</tspan></text>
  <text class="cls-1" transform="translate(183.45 165.7) rotate(125.36)"><tspan x="0" y="0">s</tspan></text>
  <text class="cls-1" transform="translate(182.69 166.78) rotate(126.6)"><tspan x="0" y="0">u</tspan></text>
  <text class="cls-1" transform="translate(181.63 168.22) rotate(128.36)"><tspan x="0" y="0">m</tspan></text>
  <text class="cls-1" transform="translate(180.01 170.26) rotate(129.98)"><tspan x="0" y="0">L</tspan></text>
  <text class="cls-1" transform="translate(179.07 171.38) rotate(131.36)"><tspan x="0" y="0">o</tspan></text>
  <text class="cls-1" transform="translate(177.78 172.84) rotate(132.63)"><tspan x="0" y="0">r</tspan></text>
  <text class="cls-1" transform="translate(176.96 173.73) rotate(133.84)"><tspan x="0" y="0">e</tspan></text>
  <text class="cls-1" transform="translate(175.71 175.04) rotate(135.61)"><tspan x="0" y="0">m</tspan></text>
  <text class="cls-1" transform="translate(173.85 176.86) rotate(137.06)"><tspan x="0" y="0"> </tspan></text>
  <text class="cls-1" transform="translate(173.12 177.53) rotate(137.84)"><tspan x="0" y="0">I</tspan></text>
  <text class="cls-1" transform="translate(172.42 178.18) rotate(139.02)"><tspan x="0" y="0">p</tspan></text>
  <text class="cls-1" transform="translate(170.93 179.46) rotate(140.35)"><tspan x="0" y="0">s</tspan></text>
  <text class="cls-1" transform="translate(169.9 180.32) rotate(141.62)"><tspan x="0" y="0">u</tspan></text>
  <text class="cls-1" transform="translate(168.52 181.42) rotate(143.37)"><tspan x="0" y="0">m</tspan></text>
  <text class="cls-1" transform="translate(166.42 182.97) rotate(145.02)"><tspan x="0" y="0">L</tspan></text>
  <text class="cls-1" transform="translate(165.26 183.8) rotate(146.39)"><tspan x="0" y="0">o</tspan></text>
  <text class="cls-1" transform="translate(163.6 184.89) rotate(147.7)"><tspan x="0" y="0">r</tspan></text>
  <text class="cls-1" transform="translate(162.6 185.53) rotate(148.9)"><tspan x="0" y="0">e</tspan></text>
  <text class="cls-1" transform="translate(161.03 186.48) rotate(150.7)"><tspan x="0" y="0">m</tspan></text>
  <text class="cls-1" transform="translate(158.77 187.74) rotate(152.15)"><tspan x="0" y="0"> </tspan></text>
  <text class="cls-1" transform="translate(157.9 188.2) rotate(152.93)"><tspan x="0" y="0">I</tspan></text>
  <text class="cls-1" transform="translate(157.04 188.64) rotate(154.12)"><tspan x="0" y="0">p</tspan></text>
  <text class="cls-1" transform="translate(155.27 189.49) rotate(155.45)"><tspan x="0" y="0">s</tspan></text>
  <text class="cls-1" transform="translate(154.06 190.05) rotate(156.71)"><tspan x="0" y="0">u</tspan></text>
  <text class="cls-1" transform="translate(152.43 190.76) rotate(158.47)"><tspan x="0" y="0">m</tspan></text>
  <text class="cls-1" transform="translate(150.01 191.7) rotate(159.91)"><tspan x="0" y="0"> </tspan></text>
  <text class="cls-1" transform="translate(149.06 192.05) rotate(160.72)"><tspan x="0" y="0"> </tspan></text>
  <text class="cls-1" transform="translate(148.09 192.39) rotate(161.54)"><tspan x="0" y="0"> </tspan></text>
  <text class="cls-1" transform="translate(147.14 192.71) rotate(162.51)"><tspan x="0" y="0">L</tspan></text>
  <text class="cls-1" transform="translate(145.76 193.15) rotate(163.87)"><tspan x="0" y="0">o</tspan></text>
  <text class="cls-1" transform="translate(143.88 193.68) rotate(164.64)"><tspan x="0" y="0">r</tspan></text>
  <text class="cls-1" transform="translate(142.72 194) rotate(166.5)"><tspan x="0" y="0">e</tspan></text>
  <text class="cls-1" transform="translate(140.96 194.44) rotate(168.05)"><tspan x="0" y="0">m</tspan></text>
  <text class="cls-1" transform="translate(138.43 194.96) rotate(169.47)"><tspan x="0" y="0"> </tspan></text>
  <text class="cls-1" transform="translate(137.43 195.15) rotate(170.27)"><tspan x="0" y="0">I</tspan></text>
  <text class="cls-1" transform="translate(136.48 195.32) rotate(171.44)"><tspan x="0" y="0">p</tspan></text>
  <text class="cls-1" transform="translate(134.54 195.6) rotate(172.75)"><tspan x="0" y="0">s</tspan></text>
  <text class="cls-1" transform="translate(133.22 195.78) rotate(174.01)"><tspan x="0" y="0">u</tspan></text>
  <text class="cls-1" transform="translate(131.45 195.97) rotate(175.77)"><tspan x="0" y="0">m</tspan></text>
  <text class="cls-1" transform="translate(128.86 196.15) rotate(177.41)"><tspan x="0" y="0">L</tspan></text>
  <text class="cls-1" transform="translate(127.41 196.22) rotate(178.79)"><tspan x="0" y="0">o</tspan></text>
  <text class="cls-1" transform="translate(125.46 196.26) rotate(-179.93)"><tspan x="0" y="0">r</tspan></text>
  <text class="cls-1" transform="translate(124.24 196.26) rotate(-178.71)"><tspan x="0" y="0">e</tspan></text>
  <text class="cls-1" transform="translate(122.44 196.23) rotate(-176.93)"><tspan x="0" y="0">m</tspan></text>
  <text class="cls-1" transform="translate(119.84 196.07) rotate(-175.46)"><tspan x="0" y="0"> </tspan></text>
  <text class="cls-1" transform="translate(118.84 196) rotate(-174.67)"><tspan x="0" y="0">I</tspan></text>
  <text class="cls-1" transform="translate(117.88 195.91) rotate(-173.48)"><tspan x="0" y="0">p</tspan></text>
  <text class="cls-1" transform="translate(115.94 195.69) rotate(-172.16)"><tspan x="0" y="0">s</tspan></text>
  <text class="cls-1" transform="translate(114.61 195.51) rotate(-170.89)"><tspan x="0" y="0">u</tspan></text>
  <text class="cls-1" transform="translate(112.87 195.23) rotate(-169.14)"><tspan x="0" y="0">m</tspan></text>
  <text class="cls-1" transform="translate(110.32 194.73) rotate(-167.67)"><tspan x="0" y="0"> </tspan></text>
  <text class="cls-1" transform="translate(109.34 194.52) rotate(-166.87)"><tspan x="0" y="0"> </tspan></text>
  <text class="cls-1" transform="translate(108.35 194.29) rotate(-166.04)"><tspan x="0" y="0"> </tspan></text>
  <text class="cls-1" transform="translate(107.36 194.04) rotate(-165.05)"><tspan x="0" y="0">L</tspan></text>
  <text class="cls-1" transform="translate(105.97 193.68) rotate(-163.68)"><tspan x="0" y="0">o</tspan></text>
  <text class="cls-1" transform="translate(104.08 193.13) rotate(-161.85)"><tspan x="0" y="0">m</tspan></text>
  <text class="cls-1" transform="translate(101.62 192.31) rotate(-160.41)"><tspan x="0" y="0"> </tspan></text>
  <text class="cls-1" transform="translate(100.68 191.98) rotate(-159.27)"><tspan x="0" y="0">E</tspan></text>
  <text class="cls-1" transform="translate(98.95 191.33) rotate(-157.81)"><tspan x="0" y="0">n</tspan></text>
  <text class="cls-1" transform="translate(97.27 190.64) rotate(-156.28)"><tspan x="0" y="0">d</tspan></text>
</svg>