<?xml version="1.0" encoding="UTF-8"?>
<svg id="Layer_20" data-name="Layer 20" xmlns="http://www.w3.org/2000/svg" viewBox="0 0 250 250">
  <defs>
    <style>
      .cls-1 {
        fill: #231f20;
        font-family: Futura-Medium, Futura;
        font-size: 3.8px;
        font-weight: 500;
      }
    </style>
  </defs>
  <text class="cls-1" transform="translate(77.87 201.64) rotate(-147.48)"><tspan x="0" y="0">L</tspan></text>
  <text class="cls-1" transform="translate(76.47 200.75) rotate(-146.66)"><tspan x="0" y="0">a</tspan></text>
  <text class="cls-1" transform="translate(74.54 199.48) rotate(-145.28)"><tspan x="0" y="0">y</tspan></text>
  <text class="cls-1" transform="translate(72.9 198.35) rotate(-144.01)"><tspan x="0" y="0">e</tspan></text>
  <text class="cls-1" transform="translate(71.21 197.12) rotate(-142.9)"><tspan x="0" y="0">r</tspan></text>
  <text class="cls-1" transform="translate(70.09 196.27) rotate(-142.09)"><tspan x="0" y="0"> </tspan></text>
  <text class="cls-1" transform="translate(69.18 195.56) rotate(-140.98)"><tspan x="0" y="0">2</tspan></text>
  <text class="cls-1" transform="translate(67.36 194.09) rotate(-139.5)"><tspan x="0" y="0">0</tspan></text>
  <text class="cls-1" transform="translate(65.58 192.57) rotate(-138.37)"><tspan x="0" y="0"> </tspan></text>
  <text class="cls-1" transform="translate(64.72 191.8) rotate(-137.65)"><tspan x="0" y="0">I</tspan></text>
  <text class="cls-1" transform="translate(63.9 191.06) rotate(-136.58)"><tspan x="0" y="0">p</tspan></text>
  <text class="cls-1" transform="translate(62.24 189.48) rotate(-135.34)"><tspan x="0" y="0">s</tspan></text>
  <text class="cls-1" transform="translate(61.16 188.42) rotate(-134.2)"><tspan x="0" y="0">u</tspan></text>
  <text class="cls-1" transform="translate(59.71 186.94) rotate(-132.58)"><tspan x="0" y="0">m</tspan></text>
  <text class="cls-1" transform="translate(57.7 184.74) rotate(-131.25)"><tspan x="0" y="0"> </tspan></text>
  <text class="cls-1" transform="translate(56.93 183.86) rotate(-130.33)"><tspan x="0" y="0">L</tspan></text>
  <text class="cls-1" transform="translate(55.84 182.59) rotate(-129.07)"><tspan x="0" y="0">o</tspan></text>
  <text class="cls-1" transform="translate(54.43 180.84) rotate(-127.9)"><tspan x="0" y="0">r</tspan></text>
  <text class="cls-1" transform="translate(53.58 179.75) rotate(-126.8)"><tspan x="0" y="0">e</tspan></text>
  <text class="cls-1" transform="translate(52.32 178.09) rotate(-125.18)"><tspan x="0" y="0">m</tspan></text>
  <text class="cls-1" transform="translate(50.6 175.63) rotate(-123.84)"><tspan x="0" y="0"> </tspan></text>
  <text class="cls-1" transform="translate(49.96 174.67) rotate(-123.12)"><tspan x="0" y="0">I</tspan></text>
  <text class="cls-1" transform="translate(49.34 173.73) rotate(-122.03)"><tspan x="0" y="0">p</tspan></text>
  <text class="cls-1" transform="translate(48.14 171.8) rotate(-120.81)"><tspan x="0" y="0">s</tspan></text>
  <text class="cls-1" transform="translate(47.36 170.5) rotate(-119.68)"><tspan x="0" y="0">u</tspan></text>
  <text class="cls-1" transform="translate(46.33 168.71) rotate(-118.07)"><tspan x="0" y="0">m</tspan></text>
  <text class="cls-1" transform="translate(44.93 166.06) rotate(-116.74)"><tspan x="0" y="0"> </tspan></text>
  <text class="cls-1" transform="translate(44.41 165.03) rotate(-115.84)"><tspan x="0" y="0">L</tspan></text>
  <text class="cls-1" transform="translate(43.67 163.52) rotate(-114.58)"><tspan x="0" y="0">o</tspan></text>
  <text class="cls-1" transform="translate(42.74 161.46) rotate(-113.42)"><tspan x="0" y="0">r</tspan></text>
  <text class="cls-1" transform="translate(42.18 160.19) rotate(-112.33)"><tspan x="0" y="0">e</tspan></text>
  <text class="cls-1" transform="translate(41.39 158.27) rotate(-110.72)"><tspan x="0" y="0">m</tspan></text>
  <text class="cls-1" transform="translate(40.33 155.45) rotate(-109.39)"><tspan x="0" y="0"> </tspan></text>
  <text class="cls-1" transform="translate(39.95 154.37) rotate(-108.68)"><tspan x="0" y="0">I</tspan></text>
  <text class="cls-1" transform="translate(39.59 153.32) rotate(-107.62)"><tspan x="0" y="0">p</tspan></text>
  <text class="cls-1" transform="translate(38.91 151.15) rotate(-106.41)"><tspan x="0" y="0">s</tspan></text>
  <text class="cls-1" transform="translate(38.47 149.68) rotate(-105.27)"><tspan x="0" y="0">u</tspan></text>
  <text class="cls-1" transform="translate(37.93 147.72) rotate(-103.69)"><tspan x="0" y="0">m</tspan></text>
  <text class="cls-1" transform="translate(37.23 144.79) rotate(-102.36)"><tspan x="0" y="0"> </tspan></text>
  <text class="cls-1" transform="translate(36.98 143.66) rotate(-101.47)"><tspan x="0" y="0">L</tspan></text>
  <text class="cls-1" transform="translate(36.64 142.04) rotate(-100.23)"><tspan x="0" y="0">o</tspan></text>
  <text class="cls-1" transform="translate(36.24 139.78) rotate(-99.05)"><tspan x="0" y="0">r</tspan></text>
  <text class="cls-1" transform="translate(36.02 138.42) rotate(-97.96)"><tspan x="0" y="0">e</tspan></text>
  <text class="cls-1" transform="translate(35.72 136.36) rotate(-96.36)"><tspan x="0" y="0">m</tspan></text>
  <text class="cls-1" transform="translate(35.4 133.37) rotate(-95.03)"><tspan x="0" y="0"> </tspan></text>
  <text class="cls-1" transform="translate(35.3 132.23) rotate(-94.32)"><tspan x="0" y="0">I</tspan></text>
  <text class="cls-1" transform="translate(35.21 131.12) rotate(-93.25)"><tspan x="0" y="0">p</tspan></text>
  <text class="cls-1" transform="translate(35.09 128.86) rotate(-92.04)"><tspan x="0" y="0">s</tspan></text>
  <text class="cls-1" transform="translate(35.03 127.33) rotate(-90.9)"><tspan x="0" y="0">u</tspan></text>
  <text class="cls-1" transform="translate(34.99 125.27) rotate(-89.29)"><tspan x="0" y="0">m</tspan></text>
  <text class="cls-1" transform="translate(35.04 122.26) rotate(-87.96)"><tspan x="0" y="0"> </tspan></text>
  <text class="cls-1" transform="translate(35.08 121.13) rotate(-87.07)"><tspan x="0" y="0">L</tspan></text>
  <text class="cls-1" transform="translate(35.16 119.45) rotate(-85.81)"><tspan x="0" y="0">o</tspan></text>
  <text class="cls-1" transform="translate(35.33 117.19) rotate(-84.64)"><tspan x="0" y="0">r</tspan></text>
  <text class="cls-1" transform="translate(35.46 115.8) rotate(-83.53)"><tspan x="0" y="0">e</tspan></text>
  <text class="cls-1" transform="translate(35.68 113.73) rotate(-81.91)"><tspan x="0" y="0">m</tspan></text>
  <text class="cls-1" transform="translate(36.12 110.76) rotate(-80.57)"><tspan x="0" y="0"> </tspan></text>
  <text class="cls-1" transform="translate(36.31 109.61) rotate(-79.84)"><tspan x="0" y="0">I</tspan></text>
  <text class="cls-1" transform="translate(36.5 108.52) rotate(-78.76)"><tspan x="0" y="0">p</tspan></text>
  <text class="cls-1" transform="translate(36.94 106.31) rotate(-77.55)"><tspan x="0" y="0">s</tspan></text>
  <text class="cls-1" transform="translate(37.27 104.81) rotate(-76.4)"><tspan x="0" y="0">u</tspan></text>
  <text class="cls-1" transform="translate(37.75 102.81) rotate(-74.78)"><tspan x="0" y="0">m</tspan></text>
  <text class="cls-1" transform="translate(38.54 99.93) rotate(-73.29)"><tspan x="0" y="0">L</tspan></text>
  <text class="cls-1" transform="translate(39.02 98.32) rotate(-72.01)"><tspan x="0" y="0">o</tspan></text>
  <text class="cls-1" transform="translate(39.72 96.18) rotate(-70.85)"><tspan x="0" y="0">r</tspan></text>
  <text class="cls-1" transform="translate(40.18 94.85) rotate(-69.73)"><tspan x="0" y="0">e</tspan></text>
  <text class="cls-1" transform="translate(40.89 92.9) rotate(-68.11)"><tspan x="0" y="0">m</tspan></text>
  <text class="cls-1" transform="translate(42.02 90.12) rotate(-66.78)"><tspan x="0" y="0"> </tspan></text>
  <text class="cls-1" transform="translate(42.47 89.05) rotate(-66.06)"><tspan x="0" y="0">I</tspan></text>
  <text class="cls-1" transform="translate(42.92 88.04) rotate(-64.99)"><tspan x="0" y="0">p</tspan></text>
  <text class="cls-1" transform="translate(43.88 85.98) rotate(-63.78)"><tspan x="0" y="0">s</tspan></text>
  <text class="cls-1" transform="translate(44.55 84.61) rotate(-62.65)"><tspan x="0" y="0">u</tspan></text>
  <text class="cls-1" transform="translate(45.49 82.79) rotate(-61.06)"><tspan x="0" y="0">m</tspan></text>
  <text class="cls-1" transform="translate(46.94 80.18) rotate(-59.6)"><tspan x="0" y="0">L</tspan></text>
  <text class="cls-1" transform="translate(47.78 78.72) rotate(-57.48)"><tspan x="0" y="0">o</tspan></text>
  <text class="cls-1" transform="translate(48.98 76.8) rotate(-57.22)"><tspan x="0" y="0">r</tspan></text>
  <text class="cls-1" transform="translate(49.73 75.64) rotate(-56.14)"><tspan x="0" y="0">e</tspan></text>
  <text class="cls-1" transform="translate(50.89 73.89) rotate(-54.53)"><tspan x="0" y="0">m</tspan></text>
  <text class="cls-1" transform="translate(52.64 71.46) rotate(-53.22)"><tspan x="0" y="0"> </tspan></text>
  <text class="cls-1" transform="translate(53.34 70.52) rotate(-52.5)"><tspan x="0" y="0">I</tspan></text>
  <text class="cls-1" transform="translate(54 69.65) rotate(-51.44)"><tspan x="0" y="0">p</tspan></text>
  <text class="cls-1" transform="translate(55.42 67.87) rotate(-50.22)"><tspan x="0" y="0">s</tspan></text>
  <text class="cls-1" transform="translate(56.39 66.7) rotate(-49.08)"><tspan x="0" y="0">u</tspan></text>
  <text class="cls-1" transform="translate(57.73 65.15) rotate(-47.47)"><tspan x="0" y="0">m</tspan></text>
  <text class="cls-1" transform="translate(59.77 62.94) rotate(-45.97)"><tspan x="0" y="0">L</tspan></text>
  <text class="cls-1" transform="translate(60.91 61.75) rotate(-44.72)"><tspan x="0" y="0">o</tspan></text>
  <text class="cls-1" transform="translate(62.53 60.15) rotate(-43.53)"><tspan x="0" y="0">r</tspan></text>
  <text class="cls-1" transform="translate(63.54 59.18) rotate(-42.42)"><tspan x="0" y="0">e</tspan></text>
  <text class="cls-1" transform="translate(65.07 57.78) rotate(-40.8)"><tspan x="0" y="0">m</tspan></text>
  <text class="cls-1" transform="translate(67.34 55.84) rotate(-39.47)"><tspan x="0" y="0"> </tspan></text>
  <text class="cls-1" transform="translate(68.24 55.1) rotate(-38.74)"><tspan x="0" y="0">I</tspan></text>
  <text class="cls-1" transform="translate(69.1 54.4) rotate(-37.66)"><tspan x="0" y="0">p</tspan></text>
  <text class="cls-1" transform="translate(70.9 53.01) rotate(-36.44)"><tspan x="0" y="0">s</tspan></text>
  <text class="cls-1" transform="translate(72.13 52.1) rotate(-35.29)"><tspan x="0" y="0">u</tspan></text>
  <text class="cls-1" transform="translate(73.81 50.9) rotate(-33.67)"><tspan x="0" y="0">m</tspan></text>
  <text class="cls-1" transform="translate(76.3 49.26) rotate(-32.18)"><tspan x="0" y="0">L</tspan></text>
  <text class="cls-1" transform="translate(77.72 48.36) rotate(-30.92)"><tspan x="0" y="0">o</tspan></text>
  <text class="cls-1" transform="translate(79.67 47.2) rotate(-29.75)"><tspan x="0" y="0">r</tspan></text>
  <text class="cls-1" transform="translate(80.85 46.52) rotate(-28.66)"><tspan x="0" y="0">e</tspan></text>
  <text class="cls-1" transform="translate(82.68 45.51) rotate(-27.04)"><tspan x="0" y="0">m</tspan></text>
  <text class="cls-1" transform="translate(85.34 44.16) rotate(-25.72)"><tspan x="0" y="0"> </tspan></text>
  <text class="cls-1" transform="translate(86.4 43.65) rotate(-24.99)"><tspan x="0" y="0">I</tspan></text>
  <text class="cls-1" transform="translate(87.41 43.17) rotate(-23.92)"><tspan x="0" y="0">p</tspan></text>
  <text class="cls-1" transform="translate(89.48 42.26) rotate(-22.71)"><tspan x="0" y="0">s</tspan></text>
  <text class="cls-1" transform="translate(90.89 41.67) rotate(-21.58)"><tspan x="0" y="0">u</tspan></text>
  <text class="cls-1" transform="translate(92.81 40.9) rotate(-19.97)"><tspan x="0" y="0">m</tspan></text>
  <text class="cls-1" transform="translate(95.62 39.89) rotate(-18.49)"><tspan x="0" y="0">L</tspan></text>
  <text class="cls-1" transform="translate(97.2 39.36) rotate(-17.25)"><tspan x="0" y="0">o</tspan></text>
  <text class="cls-1" transform="translate(99.38 38.69) rotate(-16.08)"><tspan x="0" y="0">r</tspan></text>
  <text class="cls-1" transform="translate(100.71 38.3) rotate(-14.99)"><tspan x="0" y="0">e</tspan></text>
  <text class="cls-1" transform="translate(102.71 37.75) rotate(-13.39)"><tspan x="0" y="0">m</tspan></text>
  <text class="cls-1" transform="translate(105.61 37.08) rotate(-12.09)"><tspan x="0" y="0"> </tspan></text>
  <text class="cls-1" transform="translate(106.76 36.83) rotate(-11.36)"><tspan x="0" y="0">I</tspan></text>
  <text class="cls-1" transform="translate(107.84 36.61) rotate(-10.29)"><tspan x="0" y="0">p</tspan></text>
  <text class="cls-1" transform="translate(110.07 36.21) rotate(-9.1)"><tspan x="0" y="0">s</tspan></text>
  <text class="cls-1" transform="translate(111.6 35.96) rotate(-7.94)"><tspan x="0" y="0">u</tspan></text>
  <text class="cls-1" transform="translate(113.62 35.67) rotate(-6.36)"><tspan x="0" y="0">m</tspan></text>
  <text class="cls-1" transform="translate(116.59 35.35) rotate(-4.88)"><tspan x="0" y="0">L</tspan></text>
  <text class="cls-1" transform="translate(118.25 35.2) rotate(-3.63)"><tspan x="0" y="0">o</tspan></text>
  <text class="cls-1" transform="translate(120.54 35.06) rotate(-2.45)"><tspan x="0" y="0">r</tspan></text>
  <text class="cls-1" transform="translate(121.92 35) rotate(-1.35)"><tspan x="0" y="0">e</tspan></text>
  <text class="cls-1" transform="translate(124.01 34.94) rotate(.26)"><tspan x="0" y="0">m</tspan></text>
  <text class="cls-1" transform="translate(127 34.97) rotate(1.58)"><tspan x="0" y="0"> </tspan></text>
  <text class="cls-1" transform="translate(128.15 35) rotate(2.3)"><tspan x="0" y="0">I</tspan></text>
  <text class="cls-1" transform="translate(129.27 35.04) rotate(3.38)"><tspan x="0" y="0">p</tspan></text>
  <text class="cls-1" transform="translate(131.54 35.18) rotate(4.6)"><tspan x="0" y="0">s</tspan></text>
  <text class="cls-1" transform="translate(133.04 35.29) rotate(5.73)"><tspan x="0" y="0">u</tspan></text>
  <text class="cls-1" transform="translate(135.09 35.49) rotate(7.35)"><tspan x="0" y="0">m</tspan></text>
  <text class="cls-1" transform="translate(138.05 35.88) rotate(8.84)"><tspan x="0" y="0">L</tspan></text>
  <text class="cls-1" transform="translate(139.72 36.14) rotate(10.11)"><tspan x="0" y="0">o</tspan></text>
  <text class="cls-1" transform="translate(141.94 36.54) rotate(11.28)"><tspan x="0" y="0">r</tspan></text>
  <text class="cls-1" transform="translate(143.3 36.81) rotate(12.39)"><tspan x="0" y="0">e</tspan></text>
  <text class="cls-1" transform="translate(145.35 37.25) rotate(14.02)"><tspan x="0" y="0">m</tspan></text>
  <text class="cls-1" transform="translate(148.25 37.99) rotate(15.36)"><tspan x="0" y="0"> </tspan></text>
  <text class="cls-1" transform="translate(149.38 38.3) rotate(16.09)"><tspan x="0" y="0">I</tspan></text>
  <text class="cls-1" transform="translate(150.43 38.59) rotate(17.16)"><tspan x="0" y="0">p</tspan></text>
  <text class="cls-1" transform="translate(152.61 39.27) rotate(18.39)"><tspan x="0" y="0">s</tspan></text>
  <text class="cls-1" transform="translate(154.05 39.75) rotate(19.53)"><tspan x="0" y="0">u</tspan></text>
  <text class="cls-1" transform="translate(156 40.43) rotate(21.15)"><tspan x="0" y="0">m</tspan></text>
  <text class="cls-1" transform="translate(158.78 41.52) rotate(22.47)"><tspan x="0" y="0"> </tspan></text>
  <text class="cls-1" transform="translate(159.85 41.96) rotate(23.38)"><tspan x="0" y="0">L</tspan></text>
  <text class="cls-1" transform="translate(161.4 42.62) rotate(24.64)"><tspan x="0" y="0">o</tspan></text>
  <text class="cls-1" transform="translate(163.44 43.56) rotate(25.79)"><tspan x="0" y="0">r</tspan></text>
  <text class="cls-1" transform="translate(164.71 44.17) rotate(26.9)"><tspan x="0" y="0">e</tspan></text>
  <text class="cls-1" transform="translate(166.55 45.1) rotate(28.48)"><tspan x="0" y="0">m</tspan></text>
  <text class="cls-1" transform="translate(169.19 46.54) rotate(29.8)"><tspan x="0" y="0"> </tspan></text>
  <text class="cls-1" transform="translate(170.18 47.11) rotate(30.5)"><tspan x="0" y="0">I</tspan></text>
  <text class="cls-1" transform="translate(171.15 47.7) rotate(30.66)"><tspan x="0" y="0">p</tspan></text>
  <text class="cls-1" transform="translate(173.08 48.87) rotate(32.75)"><tspan x="0" y="0">s</tspan></text>
  <text class="cls-1" transform="translate(174.38 49.7) rotate(33.88)"><tspan x="0" y="0">u</tspan></text>
  <text class="cls-1" transform="translate(176.09 50.84) rotate(35.47)"><tspan x="0" y="0">m</tspan></text>
  <text class="cls-1" transform="translate(178.52 52.58) rotate(36.78)"><tspan x="0" y="0"> </tspan></text>
  <text class="cls-1" transform="translate(179.46 53.28) rotate(37.68)"><tspan x="0" y="0">L</tspan></text>
  <text class="cls-1" transform="translate(180.77 54.29) rotate(38.92)"><tspan x="0" y="0">o</tspan></text>
  <text class="cls-1" transform="translate(182.53 55.72) rotate(40.1)"><tspan x="0" y="0">r</tspan></text>
  <text class="cls-1" transform="translate(183.6 56.61) rotate(41.2)"><tspan x="0" y="0">e</tspan></text>
  <text class="cls-1" transform="translate(185.17 57.98) rotate(42.82)"><tspan x="0" y="0">m</tspan></text>
  <text class="cls-1" transform="translate(187.35 60.01) rotate(44.14)"><tspan x="0" y="0"> </tspan></text>
  <text class="cls-1" transform="translate(188.19 60.83) rotate(44.88)"><tspan x="0" y="0">I</tspan></text>
  <text class="cls-1" transform="translate(188.98 61.61) rotate(45.96)"><tspan x="0" y="0">p</tspan></text>
  <text class="cls-1" transform="translate(190.56 63.24) rotate(47.18)"><tspan x="0" y="0">s</tspan></text>
  <text class="cls-1" transform="translate(191.6 64.37) rotate(48.34)"><tspan x="0" y="0">u</tspan></text>
  <text class="cls-1" transform="translate(192.97 65.9) rotate(49.95)"><tspan x="0" y="0">m</tspan></text>
  <text class="cls-1" transform="translate(194.89 68.19) rotate(51.28)"><tspan x="0" y="0"> </tspan></text>
  <text class="cls-1" transform="translate(195.61 69.09) rotate(52.19)"><tspan x="0" y="0">L</tspan></text>
  <text class="cls-1" transform="translate(196.65 70.43) rotate(53.46)"><tspan x="0" y="0">o</tspan></text>
  <text class="cls-1" transform="translate(197.99 72.23) rotate(54.63)"><tspan x="0" y="0">r</tspan></text>
  <text class="cls-1" transform="translate(198.8 73.38) rotate(55.74)"><tspan x="0" y="0">e</tspan></text>
  <text class="cls-1" transform="translate(199.98 75.09) rotate(57.36)"><tspan x="0" y="0">m</tspan></text>
  <text class="cls-1" transform="translate(201.58 77.62) rotate(58.69)"><tspan x="0" y="0"> </tspan></text>
  <text class="cls-1" transform="translate(202.18 78.6) rotate(59.41)"><tspan x="0" y="0">I</tspan></text>
  <text class="cls-1" transform="translate(202.76 79.56) rotate(60.49)"><tspan x="0" y="0">p</tspan></text>
  <text class="cls-1" transform="translate(203.87 81.54) rotate(61.71)"><tspan x="0" y="0">s</tspan></text>
  <text class="cls-1" transform="translate(204.6 82.89) rotate(62.85)"><tspan x="0" y="0">u</tspan></text>
  <text class="cls-1" transform="translate(205.54 84.71) rotate(64.45)"><tspan x="0" y="0">m</tspan></text>
  <text class="cls-1" transform="translate(206.82 87.41) rotate(65.93)"><tspan x="0" y="0">L</tspan></text>
  <text class="cls-1" transform="translate(207.51 88.93) rotate(67.18)"><tspan x="0" y="0">o</tspan></text>
  <text class="cls-1" transform="translate(208.38 91.03) rotate(68.35)"><tspan x="0" y="0">r</tspan></text>
  <text class="cls-1" transform="translate(208.9 92.33) rotate(69.45)"><tspan x="0" y="0">e</tspan></text>
  <text class="cls-1" transform="translate(209.64 94.27) rotate(71.06)"><tspan x="0" y="0">m</tspan></text>
  <text class="cls-1" transform="translate(210.6 97.09) rotate(72.36)"><tspan x="0" y="0"> </tspan></text>
  <text class="cls-1" transform="translate(210.95 98.21) rotate(73.09)"><tspan x="0" y="0">I</tspan></text>
  <text class="cls-1" transform="translate(211.28 99.27) rotate(74.16)"><tspan x="0" y="0">p</tspan></text>
  <text class="cls-1" transform="translate(211.89 101.44) rotate(75.35)"><tspan x="0" y="0">s</tspan></text>
  <text class="cls-1" transform="translate(212.28 102.92) rotate(76.48)"><tspan x="0" y="0">u</tspan></text>
  <text class="cls-1" transform="translate(212.77 104.92) rotate(78.08)"><tspan x="0" y="0">m</tspan></text>
  <text class="cls-1" transform="translate(213.38 107.85) rotate(79.56)"><tspan x="0" y="0">L</tspan></text>
  <text class="cls-1" transform="translate(213.68 109.48) rotate(80.8)"><tspan x="0" y="0">o</tspan></text>
  <text class="cls-1" transform="translate(214.04 111.73) rotate(81.89)"><tspan x="0" y="0"> </tspan></text>
  <text class="cls-1" transform="translate(214.21 112.89) rotate(82.61)"><tspan x="0" y="0">I</tspan></text>
  <text class="cls-1" transform="translate(214.36 113.99) rotate(83.68)"><tspan x="0" y="0">p</tspan></text>
  <text class="cls-1" transform="translate(214.6 116.24) rotate(84.88)"><tspan x="0" y="0">s</tspan></text>
  <text class="cls-1" transform="translate(214.74 117.76) rotate(86.02)"><tspan x="0" y="0">u</tspan></text>
  <text class="cls-1" transform="translate(214.89 119.83) rotate(87.63)"><tspan x="0" y="0">m</tspan></text>
  <text class="cls-1" transform="translate(215.01 122.82) rotate(89.12)"><tspan x="0" y="0">L</tspan></text>
  <text class="cls-1" transform="translate(215.03 124.49) rotate(90.37)"><tspan x="0" y="0">o</tspan></text>
  <text class="cls-1" transform="translate(215.02 126.75) rotate(91.54)"><tspan x="0" y="0">r</tspan></text>
  <text class="cls-1" transform="translate(214.98 128.14) rotate(92.64)"><tspan x="0" y="0">e</tspan></text>
  <text class="cls-1" transform="translate(214.89 130.21) rotate(94.25)"><tspan x="0" y="0">m</tspan></text>
  <text class="cls-1" transform="translate(214.66 133.2) rotate(95.58)"><tspan x="0" y="0"> </tspan></text>
  <text class="cls-1" transform="translate(214.55 134.36) rotate(96.31)"><tspan x="0" y="0">I</tspan></text>
  <text class="cls-1" transform="translate(214.43 135.47) rotate(97.39)"><tspan x="0" y="0">p</tspan></text>
  <text class="cls-1" transform="translate(214.14 137.7) rotate(98.6)"><tspan x="0" y="0">s</tspan></text>
  <text class="cls-1" transform="translate(213.91 139.23) rotate(99.76)"><tspan x="0" y="0">u</tspan></text>
  <text class="cls-1" transform="translate(213.57 141.24) rotate(101.37)"><tspan x="0" y="0">m</tspan></text>
  <text class="cls-1" transform="translate(212.97 144.19) rotate(102.87)"><tspan x="0" y="0">L</tspan></text>
  <text class="cls-1" transform="translate(212.6 145.81) rotate(104.14)"><tspan x="0" y="0">o</tspan></text>
  <text class="cls-1" transform="translate(212.04 148.01) rotate(105.31)"><tspan x="0" y="0">r</tspan></text>
  <text class="cls-1" transform="translate(211.68 149.36) rotate(106.43)"><tspan x="0" y="0">e</tspan></text>
  <text class="cls-1" transform="translate(211.09 151.36) rotate(108.05)"><tspan x="0" y="0">m</tspan></text>
  <text class="cls-1" transform="translate(210.16 154.19) rotate(109.38)"><tspan x="0" y="0"> </tspan></text>
  <text class="cls-1" transform="translate(209.77 155.29) rotate(110.1)"><tspan x="0" y="0">I</tspan></text>
  <text class="cls-1" transform="translate(209.39 156.35) rotate(111.19)"><tspan x="0" y="0">p</tspan></text>
  <text class="cls-1" transform="translate(208.58 158.44) rotate(112.4)"><tspan x="0" y="0">s</tspan></text>
  <text class="cls-1" transform="translate(208 159.85) rotate(113.53)"><tspan x="0" y="0">u</tspan></text>
  <text class="cls-1" transform="translate(207.19 161.73) rotate(115.14)"><tspan x="0" y="0">m</tspan></text>
  <text class="cls-1" transform="translate(205.89 164.46) rotate(116.47)"><tspan x="0" y="0"> </tspan></text>
  <text class="cls-1" transform="translate(205.38 165.48) rotate(117.19)"><tspan x="0" y="0"> </tspan></text>
  <text class="cls-1" transform="translate(204.84 166.54) rotate(117.94)"><tspan x="0" y="0"> </tspan></text>
  <text class="cls-1" transform="translate(204.31 167.55) rotate(118.82)"><tspan x="0" y="0">L</tspan></text>
  <text class="cls-1" transform="translate(203.5 169.03) rotate(120.07)"><tspan x="0" y="0">o</tspan></text>
  <text class="cls-1" transform="translate(202.35 171) rotate(120.66)"><tspan x="0" y="0">r</tspan></text>
  <text class="cls-1" transform="translate(201.65 172.18) rotate(122.52)"><tspan x="0" y="0">e</tspan></text>
  <text class="cls-1" transform="translate(200.54 173.94) rotate(123.88)"><tspan x="0" y="0">m</tspan></text>
  <text class="cls-1" transform="translate(198.85 176.43) rotate(125.19)"><tspan x="0" y="0"> </tspan></text>
  <text class="cls-1" transform="translate(198.19 177.37) rotate(125.91)"><tspan x="0" y="0">I</tspan></text>
  <text class="cls-1" transform="translate(197.54 178.28) rotate(126.98)"><tspan x="0" y="0">p</tspan></text>
  <text class="cls-1" transform="translate(196.18 180.08) rotate(128.18)"><tspan x="0" y="0">s</tspan></text>
  <text class="cls-1" transform="translate(195.23 181.28) rotate(129.32)"><tspan x="0" y="0">u</tspan></text>
  <text class="cls-1" transform="translate(193.93 182.88) rotate(130.93)"><tspan x="0" y="0">m</tspan></text>
  <text class="cls-1" transform="translate(191.98 185.13) rotate(132.41)"><tspan x="0" y="0">L</tspan></text>
  <text class="cls-1" transform="translate(190.86 186.36) rotate(133.67)"><tspan x="0" y="0">o</tspan></text>
  <text class="cls-1" transform="translate(189.28 188.01) rotate(134.86)"><tspan x="0" y="0">r</tspan></text>
  <text class="cls-1" transform="translate(188.3 188.99) rotate(135.96)"><tspan x="0" y="0">e</tspan></text>
  <text class="cls-1" transform="translate(186.81 190.45) rotate(137.59)"><tspan x="0" y="0">m</tspan></text>
  <text class="cls-1" transform="translate(184.59 192.46) rotate(138.92)"><tspan x="0" y="0"> </tspan></text>
  <text class="cls-1" transform="translate(183.72 193.21) rotate(139.64)"><tspan x="0" y="0">I</tspan></text>
  <text class="cls-1" transform="translate(182.88 193.94) rotate(140.73)"><tspan x="0" y="0">p</tspan></text>
  <text class="cls-1" transform="translate(181.11 195.38) rotate(141.95)"><tspan x="0" y="0">s</tspan></text>
  <text class="cls-1" transform="translate(179.9 196.33) rotate(143.11)"><tspan x="0" y="0">u</tspan></text>
  <text class="cls-1" transform="translate(178.28 197.55) rotate(144.71)"><tspan x="0" y="0">m</tspan></text>
  <text class="cls-1" transform="translate(175.84 199.27) rotate(146.2)"><tspan x="0" y="0">L</tspan></text>
  <text class="cls-1" transform="translate(174.44 200.21) rotate(147.47)"><tspan x="0" y="0">o</tspan></text>
  <text class="cls-1" transform="translate(172.52 201.43) rotate(148.64)"><tspan x="0" y="0">r</tspan></text>
  <text class="cls-1" transform="translate(171.33 202.16) rotate(149.76)"><tspan x="0" y="0">e</tspan></text>
  <text class="cls-1" transform="translate(169.55 203.2) rotate(151.36)"><tspan x="0" y="0">m</tspan></text>
  <text class="cls-1" transform="translate(166.91 204.63) rotate(152.69)"><tspan x="0" y="0"> </tspan></text>
  <text class="cls-1" transform="translate(165.88 205.17) rotate(153.41)"><tspan x="0" y="0">I</tspan></text>
  <text class="cls-1" transform="translate(164.88 205.67) rotate(154.49)"><tspan x="0" y="0">p</tspan></text>
  <text class="cls-1" transform="translate(162.84 206.64) rotate(155.7)"><tspan x="0" y="0">s</tspan></text>
  <text class="cls-1" transform="translate(161.44 207.27) rotate(156.84)"><tspan x="0" y="0">u</tspan></text>
  <text class="cls-1" transform="translate(159.58 208.08) rotate(158.42)"><tspan x="0" y="0">m</tspan></text>
  <text class="cls-1" transform="translate(156.79 209.17) rotate(159.9)"><tspan x="0" y="0">L</tspan></text>
  <text class="cls-1" transform="translate(155.2 209.76) rotate(161.17)"><tspan x="0" y="0">o</tspan></text>
  <text class="cls-1" transform="translate(153.07 210.48) rotate(162.32)"><tspan x="0" y="0">r</tspan></text>
  <text class="cls-1" transform="translate(151.75 210.91) rotate(163.41)"><tspan x="0" y="0">e</tspan></text>
  <text class="cls-1" transform="translate(149.73 211.52) rotate(165.03)"><tspan x="0" y="0">m</tspan></text>
  <text class="cls-1" transform="translate(146.85 212.27) rotate(166.33)"><tspan x="0" y="0"> </tspan></text>
  <text class="cls-1" transform="translate(145.72 212.55) rotate(167.38)"><tspan x="0" y="0">E</tspan></text>
  <text class="cls-1" transform="translate(143.65 213.02) rotate(168.7)"><tspan x="0" y="0">n</tspan></text>
  <text class="cls-1" transform="translate(141.63 213.42) rotate(170.07)"><tspan x="0" y="0">d</tspan></text>
</svg>