<?xml version="1.0" encoding="UTF-8"?>
<svg id="Layer_18_2" data-name="Layer 18_2" xmlns="http://www.w3.org/2000/svg" viewBox="0 0 250 250">
  <defs>
    <style>
      .cls-1 {
        fill: #231f20;
        font-family: Futura-CondensedExtraBold, Futura;
        font-size: 3.6px;
        font-weight: 700;
      }
    </style>
  </defs>
  <text class="cls-1" transform="translate(177.63 188.6) rotate(141.29)"><tspan x="0" y="0">I</tspan></text>
  <text class="cls-1" transform="translate(176.79 189.29) rotate(141.79)"><tspan x="0" y="0">n</tspan></text>
  <text class="cls-1" transform="translate(175.23 190.51) rotate(142.84)"><tspan x="0" y="0"> </tspan></text>
  <text class="cls-1" transform="translate(174.37 191.17) rotate(143.89)"><tspan x="0" y="0">o</tspan></text>
  <text class="cls-1" transform="translate(172.76 192.33) rotate(145.05)"><tspan x="0" y="0">r</tspan></text>
  <text class="cls-1" transform="translate(171.6 193.15) rotate(146.25)"><tspan x="0" y="0">d</tspan></text>
  <text class="cls-1" transform="translate(169.94 194.25) rotate(147.61)"><tspan x="0" y="0">e</tspan></text>
  <text class="cls-1" transform="translate(168.28 195.31) rotate(148.78)"><tspan x="0" y="0">r</tspan></text>
  <text class="cls-1" transform="translate(167.09 196.03) rotate(149.64)"><tspan x="0" y="0"> </tspan></text>
  <text class="cls-1" transform="translate(166.18 196.56) rotate(150.42)"><tspan x="0" y="0">t</tspan></text>
  <text class="cls-1" transform="translate(165.11 197.17) rotate(151.55)"><tspan x="0" y="0">o</tspan></text>
  <text class="cls-1" transform="translate(163.36 198.12) rotate(152.62)"><tspan x="0" y="0"> </tspan></text>
  <text class="cls-1" transform="translate(162.42 198.61) rotate(153.7)"><tspan x="0" y="0">u</tspan></text>
  <text class="cls-1" transform="translate(160.6 199.51) rotate(155.11)"><tspan x="0" y="0">n</tspan></text>
  <text class="cls-1" transform="translate(158.82 200.33) rotate(156.49)"><tspan x="0" y="0">d</tspan></text>
  <text class="cls-1" transform="translate(156.96 201.14) rotate(157.89)"><tspan x="0" y="0">e</tspan></text>
  <text class="cls-1" transform="translate(155.17 201.87) rotate(159.04)"><tspan x="0" y="0">r</tspan></text>
  <text class="cls-1" transform="translate(153.85 202.37) rotate(160.1)"><tspan x="0" y="0">s</tspan></text>
  <text class="cls-1" transform="translate(152.34 202.92) rotate(161.09)"><tspan x="0" y="0">t</tspan></text>
  <text class="cls-1" transform="translate(151.14 203.33) rotate(162.26)"><tspan x="0" y="0">a</tspan></text>
  <text class="cls-1" transform="translate(149.24 203.94) rotate(163.64)"><tspan x="0" y="0">n</tspan></text>
  <text class="cls-1" transform="translate(147.33 204.5) rotate(165.04)"><tspan x="0" y="0">d</tspan></text>
  <text class="cls-1" transform="translate(145.39 205.02) rotate(166.11)"><tspan x="0" y="0"> </tspan></text>
  <text class="cls-1" transform="translate(144.35 205.28) rotate(167.18)"><tspan x="0" y="0">h</tspan></text>
  <text class="cls-1" transform="translate(142.43 205.72) rotate(168.55)"><tspan x="0" y="0">o</tspan></text>
  <text class="cls-1" transform="translate(140.53 206.11) rotate(170.18)"><tspan x="0" y="0">w</tspan></text>
  <text class="cls-1" transform="translate(137.79 206.57) rotate(171.52)"><tspan x="0" y="0"> </tspan></text>
  <text class="cls-1" transform="translate(136.72 206.73) rotate(172.32)"><tspan x="0" y="0">t</tspan></text>
  <text class="cls-1" transform="translate(135.44 206.91) rotate(173.48)"><tspan x="0" y="0">h</tspan></text>
  <text class="cls-1" transform="translate(133.48 207.13) rotate(174.84)"><tspan x="0" y="0">e</tspan></text>
  <text class="cls-1" transform="translate(131.53 207.3) rotate(175.89)"><tspan x="0" y="0"> </tspan></text>
  <text class="cls-1" transform="translate(130.48 207.38) rotate(176.94)"><tspan x="0" y="0">d</tspan></text>
  <text class="cls-1" transform="translate(128.47 207.49) rotate(178.31)"><tspan x="0" y="0">e</tspan></text>
  <text class="cls-1" transform="translate(126.52 207.54) rotate(179.34)"><tspan x="0" y="0">l</tspan></text>
  <text class="cls-1" transform="translate(125.5 207.56) rotate(-179.95)"><tspan x="0" y="0">i</tspan></text>
  <text class="cls-1" transform="translate(124.47 207.56) rotate(-178.91)"><tspan x="0" y="0">n</tspan></text>
  <text class="cls-1" transform="translate(122.5 207.52) rotate(-177.56)"><tspan x="0" y="0">e</tspan></text>
  <text class="cls-1" transform="translate(120.55 207.44) rotate(-176.19)"><tspan x="0" y="0">a</tspan></text>
  <text class="cls-1" transform="translate(118.55 207.3) rotate(-175.09)"><tspan x="0" y="0">t</tspan></text>
  <text class="cls-1" transform="translate(117.34 207.2) rotate(-174.32)"><tspan x="0" y="0">i</tspan></text>
  <text class="cls-1" transform="translate(116.31 207.1) rotate(-173.27)"><tspan x="0" y="0">o</tspan></text>
  <text class="cls-1" transform="translate(114.35 206.87) rotate(-171.9)"><tspan x="0" y="0">n</tspan></text>
  <text class="cls-1" transform="translate(112.41 206.6) rotate(-170.41)"><tspan x="0" y="0">/</tspan></text>
  <text class="cls-1" transform="translate(110.03 206.19) rotate(-169.02)"><tspan x="0" y="0">s</tspan></text>
  <text class="cls-1" transform="translate(108.48 205.89) rotate(-167.78)"><tspan x="0" y="0">u</tspan></text>
  <text class="cls-1" transform="translate(106.5 205.46) rotate(-166.38)"><tspan x="0" y="0">b</tspan></text>
  <text class="cls-1" transform="translate(104.55 204.99) rotate(-165.14)"><tspan x="0" y="0">s</tspan></text>
  <text class="cls-1" transform="translate(102.99 204.57) rotate(-164.15)"><tspan x="0" y="0">t</tspan></text>
  <text class="cls-1" transform="translate(101.79 204.24) rotate(-163.01)"><tspan x="0" y="0">a</tspan></text>
  <text class="cls-1" transform="translate(99.88 203.65) rotate(-161.63)"><tspan x="0" y="0">n</tspan></text>
  <text class="cls-1" transform="translate(97.98 203.02) rotate(-160.51)"><tspan x="0" y="0">c</tspan></text>
  <text class="cls-1" transform="translate(96.83 202.61) rotate(-159.41)"><tspan x="0" y="0">e</tspan></text>
  <text class="cls-1" transform="translate(95.02 201.93) rotate(-158.36)"><tspan x="0" y="0"> </tspan></text>
  <text class="cls-1" transform="translate(94 201.53) rotate(-157.5)"><tspan x="0" y="0">r</tspan></text>
  <text class="cls-1" transform="translate(92.7 200.99) rotate(-156.32)"><tspan x="0" y="0">e</tspan></text>
  <text class="cls-1" transform="translate(90.91 200.2) rotate(-155.28)"><tspan x="0" y="0">l</tspan></text>
  <text class="cls-1" transform="translate(89.99 199.78) rotate(-154.23)"><tspan x="0" y="0">a</tspan></text>
  <text class="cls-1" transform="translate(88.17 198.9) rotate(-153.09)"><tspan x="0" y="0">t</tspan></text>
  <text class="cls-1" transform="translate(87.1 198.36) rotate(-152.32)"><tspan x="0" y="0">i</tspan></text>
  <text class="cls-1" transform="translate(86.18 197.88) rotate(-151.27)"><tspan x="0" y="0">o</tspan></text>
  <text class="cls-1" transform="translate(84.45 196.93) rotate(-149.88)"><tspan x="0" y="0">n</tspan></text>
  <text class="cls-1" transform="translate(82.75 195.94) rotate(-148.64)"><tspan x="0" y="0">s</tspan></text>
  <text class="cls-1" transform="translate(81.38 195.11) rotate(-147.38)"><tspan x="0" y="0">h</tspan></text>
  <text class="cls-1" transform="translate(79.72 194.04) rotate(-146.34)"><tspan x="0" y="0">i</tspan></text>
  <text class="cls-1" transform="translate(78.85 193.47) rotate(-145.27)"><tspan x="0" y="0">p</tspan></text>
  <text class="cls-1" transform="translate(77.22 192.34) rotate(-144.02)"><tspan x="0" y="0">s</tspan></text>
  <text class="cls-1" transform="translate(75.93 191.39) rotate(-143.08)"><tspan x="0" y="0"> </tspan></text>
  <text class="cls-1" transform="translate(75.06 190.76) rotate(-141.74)"><tspan x="0" y="0">w</tspan></text>
  <text class="cls-1" transform="translate(72.93 189.07) rotate(-140.12)"><tspan x="0" y="0">o</tspan></text>
  <text class="cls-1" transform="translate(71.43 187.81) rotate(-138.95)"><tspan x="0" y="0">r</tspan></text>
  <text class="cls-1" transform="translate(70.34 186.86) rotate(-137.74)"><tspan x="0" y="0">k</tspan></text>
  <text class="cls-1" transform="translate(68.82 185.48) rotate(-136.45)"><tspan x="0" y="0">s</tspan></text>
  <text class="cls-1" transform="translate(67.66 184.38) rotate(-135.53)"><tspan x="0" y="0">,</tspan></text>
  <text class="cls-1" transform="translate(66.91 183.64) rotate(-134.8)"><tspan x="0" y="0"> </tspan></text>
  <text class="cls-1" transform="translate(66.14 182.88) rotate(-133.47)"><tspan x="0" y="0">w</tspan></text>
  <text class="cls-1" transform="translate(64.27 180.9) rotate(-131.88)"><tspan x="0" y="0">e</tspan></text>
  <text class="cls-1" transform="translate(62.96 179.44) rotate(-130.84)"><tspan x="0" y="0"> </tspan></text>
  <text class="cls-1" transform="translate(62.28 178.63) rotate(-130.56)"><tspan x="0" y="0">d</tspan></text>
  <text class="cls-1" transform="translate(60.98 177.09) rotate(-128.43)"><tspan x="0" y="0">o</tspan></text>
  <text class="cls-1" transform="translate(59.75 175.54) rotate(-127.39)"><tspan x="0" y="0"> </tspan></text>
  <text class="cls-1" transform="translate(59.1 174.7) rotate(-126.35)"><tspan x="0" y="0">n</tspan></text>
  <text class="cls-1" transform="translate(57.92 173.09) rotate(-124.99)"><tspan x="0" y="0">e</tspan></text>
  <text class="cls-1" transform="translate(56.81 171.51) rotate(-123.66)"><tspan x="0" y="0">e</tspan></text>
  <text class="cls-1" transform="translate(55.73 169.88) rotate(-122.28)"><tspan x="0" y="0">d</tspan></text>
  <text class="cls-1" transform="translate(54.67 168.2) rotate(-121.22)"><tspan x="0" y="0"> </tspan></text>
  <text class="cls-1" transform="translate(54.1 167.26) rotate(-120.41)"><tspan x="0" y="0">t</tspan></text>
  <text class="cls-1" transform="translate(53.47 166.2) rotate(-119.28)"><tspan x="0" y="0">o</tspan></text>
  <text class="cls-1" transform="translate(52.52 164.48) rotate(-118.23)"><tspan x="0" y="0"> </tspan></text>
  <text class="cls-1" transform="translate(52.01 163.54) rotate(-117.15)"><tspan x="0" y="0">a</tspan></text>
  <text class="cls-1" transform="translate(51.1 161.77) rotate(-115.77)"><tspan x="0" y="0">n</tspan></text>
  <text class="cls-1" transform="translate(50.23 159.97) rotate(-114.36)"><tspan x="0" y="0">a</tspan></text>
  <text class="cls-1" transform="translate(49.4 158.13) rotate(-113.29)"><tspan x="0" y="0">l</tspan></text>
  <text class="cls-1" transform="translate(48.98 157.16) rotate(-112.27)"><tspan x="0" y="0">y</tspan></text>
  <text class="cls-1" transform="translate(48.28 155.46) rotate(-111.01)"><tspan x="0" y="0">z</tspan></text>
  <text class="cls-1" transform="translate(47.66 153.83) rotate(-109.72)"><tspan x="0" y="0">e</tspan></text>
  <text class="cls-1" transform="translate(47 151.99) rotate(-108.67)"><tspan x="0" y="0"> </tspan></text>
  <text class="cls-1" transform="translate(46.66 150.99) rotate(-107.74)"><tspan x="0" y="0">s</tspan></text>
  <text class="cls-1" transform="translate(46.17 149.47) rotate(-106.49)"><tspan x="0" y="0">o</tspan></text>
  <text class="cls-1" transform="translate(45.6 147.57) rotate(-104.76)"><tspan x="0" y="0">m</tspan></text>
  <text class="cls-1" transform="translate(44.86 144.72) rotate(-103.06)"><tspan x="0" y="0">e</tspan></text>
  <text class="cls-1" transform="translate(44.42 142.8) rotate(-101.99)"><tspan x="0" y="0"> </tspan></text>
  <text class="cls-1" transform="translate(44.19 141.76) rotate(-100.95)"><tspan x="0" y="0">e</tspan></text>
  <text class="cls-1" transform="translate(43.83 139.9) rotate(-99.63)"><tspan x="0" y="0">x</tspan></text>
  <text class="cls-1" transform="translate(43.5 137.96) rotate(-98.25)"><tspan x="0" y="0">a</tspan></text>
  <text class="cls-1" transform="translate(43.21 135.98) rotate(-96.52)"><tspan x="0" y="0">m</tspan></text>
  <text class="cls-1" transform="translate(42.88 133.03) rotate(-94.8)"><tspan x="0" y="0">p</tspan></text>
  <text class="cls-1" transform="translate(42.72 131.06) rotate(-93.77)"><tspan x="0" y="0">l</tspan></text>
  <text class="cls-1" transform="translate(42.64 130.04) rotate(-92.74)"><tspan x="0" y="0">e</tspan></text>
  <text class="cls-1" transform="translate(42.55 128.1) rotate(-91.52)"><tspan x="0" y="0">s</tspan></text>
  <text class="cls-1" transform="translate(42.51 126.47) rotate(-90.58)"><tspan x="0" y="0"> </tspan></text>
  <text class="cls-1" transform="translate(42.5 125.41) rotate(-89.53)"><tspan x="0" y="0">o</tspan></text>
  <text class="cls-1" transform="translate(42.52 123.45) rotate(-88.44)"><tspan x="0" y="0">f</tspan></text>
  <text class="cls-1" transform="translate(42.55 122.23) rotate(-87.65)"><tspan x="0" y="0"> </tspan></text>
  <text class="cls-1" transform="translate(42.59 121.16) rotate(-86.86)"><tspan x="0" y="0">t</tspan></text>
  <text class="cls-1" transform="translate(42.66 119.88) rotate(-85.7)"><tspan x="0" y="0">h</tspan></text>
  <text class="cls-1" transform="translate(42.81 117.89) rotate(-84.32)"><tspan x="0" y="0">a</tspan></text>
  <text class="cls-1" transform="translate(43.01 115.89) rotate(-83.21)"><tspan x="0" y="0">t</tspan></text>
  <text class="cls-1" transform="translate(43.16 114.68) rotate(-82.42)"><tspan x="0" y="0"> </tspan></text>
  <text class="cls-1" transform="translate(43.3 113.61) rotate(-81.56)"><tspan x="0" y="0">r</tspan></text>
  <text class="cls-1" transform="translate(43.5 112.24) rotate(-80.41)"><tspan x="0" y="0">e</tspan></text>
  <text class="cls-1" transform="translate(43.83 110.32) rotate(-79.38)"><tspan x="0" y="0">l</tspan></text>
  <text class="cls-1" transform="translate(44.01 109.31) rotate(-78.33)"><tspan x="0" y="0">a</tspan></text>
  <text class="cls-1" transform="translate(44.42 107.34) rotate(-77.22)"><tspan x="0" y="0">t</tspan></text>
  <text class="cls-1" transform="translate(44.7 106.13) rotate(-76.43)"><tspan x="0" y="0">i</tspan></text>
  <text class="cls-1" transform="translate(44.93 105.15) rotate(-75.4)"><tspan x="0" y="0">o</tspan></text>
  <text class="cls-1" transform="translate(45.43 103.23) rotate(-74.02)"><tspan x="0" y="0">n</tspan></text>
  <text class="cls-1" transform="translate(45.97 101.34) rotate(-72.8)"><tspan x="0" y="0">s</tspan></text>
  <text class="cls-1" transform="translate(46.45 99.81) rotate(-71.55)"><tspan x="0" y="0">h</tspan></text>
  <text class="cls-1" transform="translate(47.07 97.94) rotate(-70.51)"><tspan x="0" y="0">i</tspan></text>
  <text class="cls-1" transform="translate(47.41 96.96) rotate(-69.45)"><tspan x="0" y="0">p</tspan></text>
  <text class="cls-1" transform="translate(48.12 95.1) rotate(-68.39)"><tspan x="0" y="0">.</tspan></text>
  <text class="cls-1" transform="translate(48.52 94.08) rotate(-67.63)"><tspan x="0" y="0"> </tspan></text>
  <text class="cls-1" transform="translate(48.92 93.09) rotate(-66.5)"><tspan x="0" y="0">H</tspan></text>
  <text class="cls-1" transform="translate(49.79 91.1) rotate(-65.06)"><tspan x="0" y="0">o</tspan></text>
  <text class="cls-1" transform="translate(50.61 89.33) rotate(-63.42)"><tspan x="0" y="0">w</tspan></text>
  <text class="cls-1" transform="translate(51.83 86.89) rotate(-61.8)"><tspan x="0" y="0">e</tspan></text>
  <text class="cls-1" transform="translate(52.73 85.22) rotate(-60.52)"><tspan x="0" y="0">v</tspan></text>
  <text class="cls-1" transform="translate(53.61 83.66) rotate(-59.22)"><tspan x="0" y="0">e</tspan></text>
  <text class="cls-1" transform="translate(54.61 81.98) rotate(-58.04)"><tspan x="0" y="0">r</tspan></text>
  <text class="cls-1" transform="translate(55.26 80.93) rotate(-57.29)"><tspan x="0" y="0">,</tspan></text>
  <text class="cls-1" transform="translate(55.85 80.03) rotate(-56.54)"><tspan x="0" y="0"> </tspan></text>
  <text class="cls-1" transform="translate(56.42 79.14) rotate(-55.2)"><tspan x="0" y="0">w</tspan></text>
  <text class="cls-1" transform="translate(57.99 76.89) rotate(-53.57)"><tspan x="0" y="0">e</tspan></text>
  <text class="cls-1" transform="translate(59.14 75.34) rotate(-52.52)"><tspan x="0" y="0"> </tspan></text>
  <text class="cls-1" transform="translate(59.79 74.48) rotate(-51.45)"><tspan x="0" y="0">a</tspan></text>
  <text class="cls-1" transform="translate(61.05 72.91) rotate(-50.26)"><tspan x="0" y="0">r</tspan></text>
  <text class="cls-1" transform="translate(61.94 71.83) rotate(-49.09)"><tspan x="0" y="0">e</tspan></text>
  <text class="cls-1" transform="translate(63.23 70.36) rotate(-48.03)"><tspan x="0" y="0"> </tspan></text>
  <text class="cls-1" transform="translate(63.94 69.55) rotate(-46.97)"><tspan x="0" y="0">o</tspan></text>
  <text class="cls-1" transform="translate(65.29 68.1) rotate(-45.59)"><tspan x="0" y="0">n</tspan></text>
  <text class="cls-1" transform="translate(66.69 66.69) rotate(-44.55)"><tspan x="0" y="0">l</tspan></text>
  <text class="cls-1" transform="translate(67.42 65.96) rotate(-43.56)"><tspan x="0" y="0">y</tspan></text>
  <text class="cls-1" transform="translate(68.77 64.69) rotate(-42.55)"><tspan x="0" y="0"> </tspan></text>
  <text class="cls-1" transform="translate(69.55 63.97) rotate(-41.84)"><tspan x="0" y="0">i</tspan></text>
  <text class="cls-1" transform="translate(70.32 63.27) rotate(-40.79)"><tspan x="0" y="0">n</tspan></text>
  <text class="cls-1" transform="translate(71.81 62) rotate(-40.56)"><tspan x="0" y="0">t</tspan></text>
  <text class="cls-1" transform="translate(72.77 61.19) rotate(-38.62)"><tspan x="0" y="0">e</tspan></text>
  <text class="cls-1" transform="translate(74.29 59.98) rotate(-37.48)"><tspan x="0" y="0">r</tspan></text>
  <text class="cls-1" transform="translate(75.4 59.12) rotate(-36.33)"><tspan x="0" y="0">e</tspan></text>
  <text class="cls-1" transform="translate(76.98 57.97) rotate(-35.1)"><tspan x="0" y="0">s</tspan></text>
  <text class="cls-1" transform="translate(78.31 57.03) rotate(-34.11)"><tspan x="0" y="0">t</tspan></text>
  <text class="cls-1" transform="translate(79.33 56.34) rotate(-33)"><tspan x="0" y="0">e</tspan></text>
  <text class="cls-1" transform="translate(80.97 55.27) rotate(-31.63)"><tspan x="0" y="0">d</tspan></text>
  <text class="cls-1" transform="translate(82.67 54.23) rotate(-30.57)"><tspan x="0" y="0"> </tspan></text>
  <text class="cls-1" transform="translate(83.61 53.68) rotate(-29.82)"><tspan x="0" y="0">i</tspan></text>
  <text class="cls-1" transform="translate(84.5 53.16) rotate(-28.77)"><tspan x="0" y="0">n</tspan></text>
  <text class="cls-1" transform="translate(86.23 52.22) rotate(-27.71)"><tspan x="0" y="0"> </tspan></text>
  <text class="cls-1" transform="translate(87.18 51.71) rotate(-26.91)"><tspan x="0" y="0">t</tspan></text>
  <text class="cls-1" transform="translate(88.32 51.13) rotate(-25.74)"><tspan x="0" y="0">h</tspan></text>
  <text class="cls-1" transform="translate(90.12 50.26) rotate(-24.34)"><tspan x="0" y="0">a</tspan></text>
  <text class="cls-1" transform="translate(91.93 49.45) rotate(-23.23)"><tspan x="0" y="0">t</tspan></text>
  <text class="cls-1" transform="translate(93.05 48.97) rotate(-22.43)"><tspan x="0" y="0"> </tspan></text>
  <text class="cls-1" transform="translate(94.04 48.56) rotate(-21.56)"><tspan x="0" y="0">r</tspan></text>
  <text class="cls-1" transform="translate(95.37 48.03) rotate(-20.37)"><tspan x="0" y="0">e</tspan></text>
  <text class="cls-1" transform="translate(97.2 47.36) rotate(-19.33)"><tspan x="0" y="0">l</tspan></text>
  <text class="cls-1" transform="translate(98.15 47.02) rotate(-18.27)"><tspan x="0" y="0">a</tspan></text>
  <text class="cls-1" transform="translate(100.06 46.39) rotate(-17.15)"><tspan x="0" y="0">t</tspan></text>
  <text class="cls-1" transform="translate(101.23 46.03) rotate(-16.36)"><tspan x="0" y="0">i</tspan></text>
  <text class="cls-1" transform="translate(102.21 45.74) rotate(-15.31)"><tspan x="0" y="0">o</tspan></text>
  <text class="cls-1" transform="translate(104.11 45.22) rotate(-13.93)"><tspan x="0" y="0">n</tspan></text>
  <text class="cls-1" transform="translate(106.03 44.74) rotate(-12.69)"><tspan x="0" y="0">s</tspan></text>
  <text class="cls-1" transform="translate(107.58 44.39) rotate(-11.45)"><tspan x="0" y="0">h</tspan></text>
  <text class="cls-1" transform="translate(109.55 44) rotate(-10.39)"><tspan x="0" y="0">i</tspan></text>
  <text class="cls-1" transform="translate(110.53 43.81) rotate(-9.35)"><tspan x="0" y="0">p</tspan></text>
  <text class="cls-1" transform="translate(112.53 43.49) rotate(-8.27)"><tspan x="0" y="0">.</tspan></text>
  <text class="cls-1" transform="translate(113.57 43.34) rotate(-7.53)"><tspan x="0" y="0"> </tspan></text>
  <text class="cls-1" transform="translate(114.63 43.19) rotate(-6.63)"><tspan x="0" y="0">T</tspan></text>
  <text class="cls-1" transform="translate(116.17 43.01) rotate(-5.4)"><tspan x="0" y="0">h</tspan></text>
  <text class="cls-1" transform="translate(118.17 42.83) rotate(-4.02)"><tspan x="0" y="0">e</tspan></text>
  <text class="cls-1" transform="translate(120.09 42.69) rotate(-2.99)"><tspan x="0" y="0"> </tspan></text>
  <text class="cls-1" transform="translate(121.17 42.63) rotate(-1.92)"><tspan x="0" y="0">a</tspan></text>
  <text class="cls-1" transform="translate(123.17 42.57) rotate(-.81)"><tspan x="0" y="0">c</tspan></text>
  <text class="cls-1" transform="translate(124.41 42.55) rotate(.05)"><tspan x="0" y="0">t</tspan></text>
  <text class="cls-1" transform="translate(125.62 42.55) rotate(1.16)"><tspan x="0" y="0">u</tspan></text>
  <text class="cls-1" transform="translate(127.63 42.59) rotate(2.55)"><tspan x="0" y="0">a</tspan></text>
  <text class="cls-1" transform="translate(129.64 42.68) rotate(3.59)"><tspan x="0" y="0">l</tspan></text>
  <text class="cls-1" transform="translate(130.67 42.75) rotate(4.32)"><tspan x="0" y="0"> </tspan></text>
  <text class="cls-1" transform="translate(131.73 42.83) rotate(5.11)"><tspan x="0" y="0">c</tspan></text>
  <text class="cls-1" transform="translate(132.96 42.93) rotate(6.22)"><tspan x="0" y="0">o</tspan></text>
  <text class="cls-1" transform="translate(134.92 43.15) rotate(7.58)"><tspan x="0" y="0">n</tspan></text>
  <text class="cls-1" transform="translate(136.87 43.41) rotate(8.67)"><tspan x="0" y="0">t</tspan></text>
  <text class="cls-1" transform="translate(138.1 43.59) rotate(9.78)"><tspan x="0" y="0">e</tspan></text>
  <text class="cls-1" transform="translate(140.03 43.93) rotate(11.15)"><tspan x="0" y="0">n</tspan></text>
  <text class="cls-1" transform="translate(141.96 44.31) rotate(12.24)"><tspan x="0" y="0">t</tspan></text>
  <text class="cls-1" transform="translate(143.15 44.57) rotate(13.04)"><tspan x="0" y="0"> </tspan></text>
  <text class="cls-1" transform="translate(144.2 44.81) rotate(13.77)"><tspan x="0" y="0">i</tspan></text>
  <text class="cls-1" transform="translate(145.18 45.05) rotate(14.67)"><tspan x="0" y="0">s</tspan></text>
  <text class="cls-1" transform="translate(146.73 45.46) rotate(15.59)"><tspan x="0" y="0"> </tspan></text>
  <text class="cls-1" transform="translate(147.76 45.73) rotate(16.99)"><tspan x="0" y="0">m</tspan></text>
  <text class="cls-1" transform="translate(150.59 46.6) rotate(18.69)"><tspan x="0" y="0">e</tspan></text>
  <text class="cls-1" transform="translate(152.45 47.24) rotate(19.86)"><tspan x="0" y="0">r</tspan></text>
  <text class="cls-1" transform="translate(153.8 47.72) rotate(21.05)"><tspan x="0" y="0">e</tspan></text>
  <text class="cls-1" transform="translate(155.6 48.42) rotate(22.07)"><tspan x="0" y="0">l</tspan></text>
  <text class="cls-1" transform="translate(156.57 48.81) rotate(23.09)"><tspan x="0" y="0">y</tspan></text>
  <text class="cls-1" transform="translate(158.28 49.54) rotate(24.11)"><tspan x="0" y="0"> </tspan></text>
  <text class="cls-1" transform="translate(159.25 49.97) rotate(25.18)"><tspan x="0" y="0">a</tspan></text>
  <text class="cls-1" transform="translate(161.06 50.83) rotate(26.26)"><tspan x="0" y="0"> </tspan></text>
  <text class="cls-1" transform="translate(162.03 51.3) rotate(27.26)"><tspan x="0" y="0">v</tspan></text>
  <text class="cls-1" transform="translate(163.61 52.11) rotate(28.56)"><tspan x="0" y="0">e</tspan></text>
  <text class="cls-1" transform="translate(165.31 53.04) rotate(29.92)"><tspan x="0" y="0">h</tspan></text>
  <text class="cls-1" transform="translate(167.04 54.04) rotate(30.98)"><tspan x="0" y="0">i</tspan></text>
  <text class="cls-1" transform="translate(167.9 54.56) rotate(31.76)"><tspan x="0" y="0">c</tspan></text>
  <text class="cls-1" transform="translate(168.96 55.21) rotate(32.55)"><tspan x="0" y="0">l</tspan></text>
  <text class="cls-1" transform="translate(169.83 55.76) rotate(33.6)"><tspan x="0" y="0">e</tspan></text>
  <text class="cls-1" transform="translate(171.43 56.83) rotate(34.64)"><tspan x="0" y="0"> </tspan></text>
  <text class="cls-1" transform="translate(172.32 57.44) rotate(35.44)"><tspan x="0" y="0">f</tspan></text>
  <text class="cls-1" transform="translate(173.34 58.16) rotate(36.58)"><tspan x="0" y="0">o</tspan></text>
  <text class="cls-1" transform="translate(174.9 59.33) rotate(37.75)"><tspan x="0" y="0">r</tspan></text>
  <text class="cls-1" transform="translate(176.02 60.19) rotate(38.62)"><tspan x="0" y="0"> </tspan></text>
  <text class="cls-1" transform="translate(176.85 60.85) rotate(39.7)"><tspan x="0" y="0">u</tspan></text>
  <text class="cls-1" transform="translate(178.41 62.15) rotate(41.09)"><tspan x="0" y="0">n</tspan></text>
  <text class="cls-1" transform="translate(179.9 63.45) rotate(42.48)"><tspan x="0" y="0">d</tspan></text>
  <text class="cls-1" transform="translate(181.37 64.79) rotate(43.84)"><tspan x="0" y="0">e</tspan></text>
  <text class="cls-1" transform="translate(182.77 66.14) rotate(45)"><tspan x="0" y="0">r</tspan></text>
  <text class="cls-1" transform="translate(183.77 67.14) rotate(46.03)"><tspan x="0" y="0">s</tspan></text>
  <text class="cls-1" transform="translate(184.91 68.32) rotate(47.03)"><tspan x="0" y="0">t</tspan></text>
  <text class="cls-1" transform="translate(185.74 69.21) rotate(48.14)"><tspan x="0" y="0">a</tspan></text>
  <text class="cls-1" transform="translate(187.1 70.72) rotate(49.44)"><tspan x="0" y="0">n</tspan></text>
  <text class="cls-1" transform="translate(188.37 72.2) rotate(51.29)"><tspan x="0" y="0">d</tspan></text>
  <text class="cls-1" transform="translate(189.64 73.78) rotate(51.91)"><tspan x="0" y="0">i</tspan></text>
  <text class="cls-1" transform="translate(190.26 74.57) rotate(52.92)"><tspan x="0" y="0">n</tspan></text>
  <text class="cls-1" transform="translate(191.47 76.17) rotate(54.31)"><tspan x="0" y="0">g</tspan></text>
  <text class="cls-1" transform="translate(192.63 77.79) rotate(55.36)"><tspan x="0" y="0"> </tspan></text>
  <text class="cls-1" transform="translate(193.24 78.67) rotate(56.15)"><tspan x="0" y="0">t</tspan></text>
  <text class="cls-1" transform="translate(193.96 79.74) rotate(57.31)"><tspan x="0" y="0">h</tspan></text>
  <text class="cls-1" transform="translate(195.03 81.4) rotate(58.69)"><tspan x="0" y="0">a</tspan></text>
  <text class="cls-1" transform="translate(196.07 83.13) rotate(59.82)"><tspan x="0" y="0">t</tspan></text>
  <text class="cls-1" transform="translate(196.68 84.16) rotate(60.6)"><tspan x="0" y="0"> </tspan></text>
  <text class="cls-1" transform="translate(197.21 85.12) rotate(61.48)"><tspan x="0" y="0">r</tspan></text>
  <text class="cls-1" transform="translate(197.89 86.35) rotate(62.66)"><tspan x="0" y="0">e</tspan></text>
  <text class="cls-1" transform="translate(198.78 88.09) rotate(63.7)"><tspan x="0" y="0">l</tspan></text>
  <text class="cls-1" transform="translate(199.23 88.99) rotate(64.75)"><tspan x="0" y="0">a</tspan></text>
  <text class="cls-1" transform="translate(200.09 90.82) rotate(65.88)"><tspan x="0" y="0">t</tspan></text>
  <text class="cls-1" transform="translate(200.59 91.93) rotate(66.66)"><tspan x="0" y="0">i</tspan></text>
  <text class="cls-1" transform="translate(200.99 92.86) rotate(67.71)"><tspan x="0" y="0">o</tspan></text>
  <text class="cls-1" transform="translate(201.75 94.69) rotate(69.1)"><tspan x="0" y="0">n</tspan></text>
  <text class="cls-1" transform="translate(202.44 96.53) rotate(70.34)"><tspan x="0" y="0">s</tspan></text>
  <text class="cls-1" transform="translate(202.99 98.04) rotate(71.6)"><tspan x="0" y="0">h</tspan></text>
  <text class="cls-1" transform="translate(203.61 99.93) rotate(72.65)"><tspan x="0" y="0">i</tspan></text>
  <text class="cls-1" transform="translate(203.92 100.9) rotate(73.71)"><tspan x="0" y="0">p</tspan></text>
  <text class="cls-1" transform="translate(204.47 102.82) rotate(74.78)"><tspan x="0" y="0">,</tspan></text>
  <text class="cls-1" transform="translate(204.75 103.85) rotate(75.52)"><tspan x="0" y="0"> </tspan></text>
  <text class="cls-1" transform="translate(205.03 104.91) rotate(76.61)"><tspan x="0" y="0">a</tspan></text>
  <text class="cls-1" transform="translate(205.5 106.86) rotate(78.01)"><tspan x="0" y="0">n</tspan></text>
  <text class="cls-1" transform="translate(205.91 108.81) rotate(79.07)"><tspan x="0" y="0"> </tspan></text>
  <text class="cls-1" transform="translate(206.11 109.84) rotate(79.79)"><tspan x="0" y="0">i</tspan></text>
  <text class="cls-1" transform="translate(206.3 110.87) rotate(80.85)"><tspan x="0" y="0">n</tspan></text>
  <text class="cls-1" transform="translate(206.61 112.81) rotate(81.95)"><tspan x="0" y="0">c</tspan></text>
  <text class="cls-1" transform="translate(206.78 114.02) rotate(82.73)"><tspan x="0" y="0">i</tspan></text>
  <text class="cls-1" transform="translate(206.91 115.04) rotate(83.78)"><tspan x="0" y="0">d</tspan></text>
  <text class="cls-1" transform="translate(207.13 117.04) rotate(85.16)"><tspan x="0" y="0">e</tspan></text>
  <text class="cls-1" transform="translate(207.29 118.97) rotate(86.51)"><tspan x="0" y="0">n</tspan></text>
  <text class="cls-1" transform="translate(207.41 120.96) rotate(87.63)"><tspan x="0" y="0">t</tspan></text>
  <text class="cls-1" transform="translate(207.47 122.21) rotate(88.76)"><tspan x="0" y="0">a</tspan></text>
  <text class="cls-1" transform="translate(207.5 124.22) rotate(89.81)"><tspan x="0" y="0">l</tspan></text>
  <text class="cls-1" transform="translate(207.51 125.24) rotate(90.54)"><tspan x="0" y="0"> </tspan></text>
  <text class="cls-1" transform="translate(207.5 126.32) rotate(91.26)"><tspan x="0" y="0">i</tspan></text>
  <text class="cls-1" transform="translate(207.48 127.33) rotate(92.29)"><tspan x="0" y="0">n</tspan></text>
  <text class="cls-1" transform="translate(207.4 129.32) rotate(93.4)"><tspan x="0" y="0">t</tspan></text>
  <text class="cls-1" transform="translate(207.33 130.56) rotate(94.51)"><tspan x="0" y="0">e</tspan></text>
  <text class="cls-1" transform="translate(207.17 132.5) rotate(95.66)"><tspan x="0" y="0">r</tspan></text>
  <text class="cls-1" transform="translate(207.04 133.88) rotate(96.81)"><tspan x="0" y="0">e</tspan></text>
  <text class="cls-1" transform="translate(206.8 135.84) rotate(98.05)"><tspan x="0" y="0">s</tspan></text>
  <text class="cls-1" transform="translate(206.57 137.44) rotate(99.04)"><tspan x="0" y="0">t</tspan></text>
  <text class="cls-1" transform="translate(206.38 138.64) rotate(99.83)"><tspan x="0" y="0">.</tspan></text>
  <text class="cls-1" transform="translate(206.2 139.71) rotate(100.58)"><tspan x="0" y="0"> </tspan></text>
</svg>