<?xml version="1.0" encoding="UTF-8"?>
<svg id="Layer_12" data-name="Layer 12" xmlns="http://www.w3.org/2000/svg" viewBox="0 0 250 250">
  <defs>
    <style>
      .cls-1 {
        fill: #231f20;
        font-family: Futura-Medium, Futura;
        font-size: 3px;
        font-weight: 500;
      }
    </style>
  </defs>
  <text class="cls-1" transform="translate(100.09 179.65) rotate(-154.53)"><tspan x="0" y="0">I</tspan></text>
  <text class="cls-1" transform="translate(99.29 179.28) rotate(-153.87)"><tspan x="0" y="0">n</tspan></text>
  <text class="cls-1" transform="translate(97.83 178.55) rotate(-152.67)"><tspan x="0" y="0"> </tspan></text>
  <text class="cls-1" transform="translate(97.01 178.13) rotate(-151.86)"><tspan x="0" y="0">t</tspan></text>
  <text class="cls-1" transform="translate(96.26 177.73) rotate(-150.66)"><tspan x="0" y="0">h</tspan></text>
  <text class="cls-1" transform="translate(94.83 176.93) rotate(-149.1)"><tspan x="0" y="0">e</tspan></text>
  <text class="cls-1" transform="translate(93.41 176.07) rotate(-147.86)"><tspan x="0" y="0"> </tspan></text>
  <text class="cls-1" transform="translate(92.64 175.6) rotate(-146.55)"><tspan x="0" y="0">1</tspan></text>
  <text class="cls-1" transform="translate(91.3 174.72) rotate(-145.02)"><tspan x="0" y="0">9</tspan></text>
  <text class="cls-1" transform="translate(89.81 173.67) rotate(-143.27)"><tspan x="0" y="0">9</tspan></text>
  <text class="cls-1" transform="translate(88.54 172.73) rotate(-141.75)"><tspan x="0" y="0">4</tspan></text>
  <text class="cls-1" transform="translate(87.1 171.59) rotate(-140.43)"><tspan x="0" y="0"> </tspan></text>
  <text class="cls-1" transform="translate(86.4 171.02) rotate(-139.14)"><tspan x="0" y="0">a</tspan></text>
  <text class="cls-1" transform="translate(85.05 169.85) rotate(-137.49)"><tspan x="0" y="0">n</tspan></text>
  <text class="cls-1" transform="translate(83.86 168.75) rotate(-136.37)"><tspan x="0" y="0">i</tspan></text>
  <text class="cls-1" transform="translate(83.31 168.25) rotate(-134.86)"><tspan x="0" y="0">m</tspan></text>
  <text class="cls-1" transform="translate(81.66 166.58) rotate(-132.88)"><tspan x="0" y="0">a</tspan></text>
  <text class="cls-1" transform="translate(80.45 165.26) rotate(-131.64)"><tspan x="0" y="0">t</tspan></text>
  <text class="cls-1" transform="translate(79.89 164.64) rotate(-130.43)"><tspan x="0" y="0">e</tspan></text>
  <text class="cls-1" transform="translate(78.82 163.4) rotate(-128.8)"><tspan x="0" y="0">d</tspan></text>
  <text class="cls-1" transform="translate(77.72 162.01) rotate(-127.51)"><tspan x="0" y="0"> </tspan></text>
  <text class="cls-1" transform="translate(77.15 161.28) rotate(-126.64)"><tspan x="0" y="0">f</tspan></text>
  <text class="cls-1" transform="translate(76.58 160.51) rotate(-125.8)"><tspan x="0" y="0">i</tspan></text>
  <text class="cls-1" transform="translate(76.15 159.9) rotate(-125.08)"><tspan x="0" y="0">l</tspan></text>
  <text class="cls-1" transform="translate(75.72 159.32) rotate(-123.62)"><tspan x="0" y="0">m</tspan></text>
  <text class="cls-1" transform="translate(74.43 157.35) rotate(-122.06)"><tspan x="0" y="0"> </tspan></text>
  <text class="cls-1" transform="translate(73.94 156.58) rotate(-120.94)"><tspan x="0" y="0">T</tspan></text>
  <text class="cls-1" transform="translate(73.2 155.35) rotate(-119.48)"><tspan x="0" y="0">h</tspan></text>
  <text class="cls-1" transform="translate(72.41 153.95) rotate(-117.94)"><tspan x="0" y="0">e</tspan></text>
  <text class="cls-1" transform="translate(71.63 152.47) rotate(-116.7)"><tspan x="0" y="0"> </tspan></text>
  <text class="cls-1" transform="translate(71.22 151.66) rotate(-115.65)"><tspan x="0" y="0">L</tspan></text>
  <text class="cls-1" transform="translate(70.65 150.46) rotate(-114.67)"><tspan x="0" y="0">i</tspan></text>
  <text class="cls-1" transform="translate(70.34 149.8) rotate(-113.47)"><tspan x="0" y="0">o</tspan></text>
  <text class="cls-1" transform="translate(69.63 148.18) rotate(-111.87)"><tspan x="0" y="0">n</tspan></text>
  <text class="cls-1" transform="translate(69.02 146.66) rotate(-110.65)"><tspan x="0" y="0"> </tspan></text>
  <text class="cls-1" transform="translate(68.69 145.79) rotate(-109.26)"><tspan x="0" y="0">K</tspan></text>
  <text class="cls-1" transform="translate(68.05 143.92) rotate(-107.98)"><tspan x="0" y="0">i</tspan></text>
  <text class="cls-1" transform="translate(67.82 143.24) rotate(-106.87)"><tspan x="0" y="0">n</tspan></text>
  <text class="cls-1" transform="translate(67.34 141.68) rotate(-105.25)"><tspan x="0" y="0">g</tspan></text>
  <text class="cls-1" transform="translate(66.88 139.95) rotate(-103.97)"><tspan x="0" y="0">,</tspan></text>
  <text class="cls-1" transform="translate(66.66 139.08) rotate(-103.11)"><tspan x="0" y="0"> </tspan></text>
  <text class="cls-1" transform="translate(66.45 138.19) rotate(-101.82)"><tspan x="0" y="0">o</tspan></text>
  <text class="cls-1" transform="translate(66.08 136.43) rotate(-100.19)"><tspan x="0" y="0">n</tspan></text>
  <text class="cls-1" transform="translate(65.8 134.84) rotate(-98.64)"><tspan x="0" y="0">e</tspan></text>
  <text class="cls-1" transform="translate(65.55 133.2) rotate(-97.41)"><tspan x="0" y="0"> </tspan></text>
  <text class="cls-1" transform="translate(65.43 132.29) rotate(-96.29)"><tspan x="0" y="0">c</tspan></text>
  <text class="cls-1" transform="translate(65.26 130.8) rotate(-94.75)"><tspan x="0" y="0">h</tspan></text>
  <text class="cls-1" transform="translate(65.13 129.2) rotate(-93.15)"><tspan x="0" y="0">a</tspan></text>
  <text class="cls-1" transform="translate(65.04 127.41) rotate(-91.76)"><tspan x="0" y="0">r</tspan></text>
  <text class="cls-1" transform="translate(65 126.32) rotate(-90.38)"><tspan x="0" y="0">a</tspan></text>
  <text class="cls-1" transform="translate(64.99 124.54) rotate(-88.85)"><tspan x="0" y="0">c</tspan></text>
  <text class="cls-1" transform="translate(65.02 123.11) rotate(-87.77)"><tspan x="0" y="0">t</tspan></text>
  <text class="cls-1" transform="translate(65.05 122.3) rotate(-86.58)"><tspan x="0" y="0">e</tspan></text>
  <text class="cls-1" transform="translate(65.15 120.63) rotate(-85.24)"><tspan x="0" y="0">r</tspan></text>
  <text class="cls-1" transform="translate(65.24 119.53) rotate(-84.27)"><tspan x="0" y="0"> </tspan></text>
  <text class="cls-1" transform="translate(65.33 118.62) rotate(-83.47)"><tspan x="0" y="0">i</tspan></text>
  <text class="cls-1" transform="translate(65.42 117.89) rotate(-82.54)"><tspan x="0" y="0">s</tspan></text>
  <text class="cls-1" transform="translate(65.57 116.69) rotate(-81.52)"><tspan x="0" y="0"> </tspan></text>
  <text class="cls-1" transform="translate(65.71 115.78) rotate(-80.71)"><tspan x="0" y="0">i</tspan></text>
  <text class="cls-1" transform="translate(65.81 115.07) rotate(-79.24)"><tspan x="0" y="0">m</tspan></text>
  <text class="cls-1" transform="translate(66.27 112.7) rotate(-77.21)"><tspan x="0" y="0">p</tspan></text>
  <text class="cls-1" transform="translate(66.67 110.96) rotate(-75.81)"><tspan x="0" y="0">r</tspan></text>
  <text class="cls-1" transform="translate(66.95 109.85) rotate(-74.89)"><tspan x="0" y="0">i</tspan></text>
  <text class="cls-1" transform="translate(67.14 109.14) rotate(-73.97)"><tspan x="0" y="0">s</tspan></text>
  <text class="cls-1" transform="translate(67.48 107.97) rotate(-72.52)"><tspan x="0" y="0">o</tspan></text>
  <text class="cls-1" transform="translate(68.01 106.27) rotate(-70.9)"><tspan x="0" y="0">n</tspan></text>
  <text class="cls-1" transform="translate(68.54 104.74) rotate(-69.36)"><tspan x="0" y="0">e</tspan></text>
  <text class="cls-1" transform="translate(69.12 103.19) rotate(-67.73)"><tspan x="0" y="0">d</tspan></text>
  <text class="cls-1" transform="translate(69.8 101.56) rotate(-66.48)"><tspan x="0" y="0"> </tspan></text>
  <text class="cls-1" transform="translate(70.17 100.7) rotate(-66.39)"><tspan x="0" y="0">i</tspan></text>
  <text class="cls-1" transform="translate(70.46 100.05) rotate(-64.53)"><tspan x="0" y="0">n</tspan></text>
  <text class="cls-1" transform="translate(71.17 98.57) rotate(-63.4)"><tspan x="0" y="0"> </tspan></text>
  <text class="cls-1" transform="translate(71.58 97.73) rotate(-62.11)"><tspan x="0" y="0">a</tspan></text>
  <text class="cls-1" transform="translate(72.41 96.17) rotate(-60.84)"><tspan x="0" y="0"> </tspan></text>
  <text class="cls-1" transform="translate(72.86 95.37) rotate(-59.73)"><tspan x="0" y="0">c</tspan></text>
  <text class="cls-1" transform="translate(73.56 94.15) rotate(-58.22)"><tspan x="0" y="0">a</tspan></text>
  <text class="cls-1" transform="translate(74.51 92.63) rotate(-56.5)"><tspan x="0" y="0">g</tspan></text>
  <text class="cls-1" transform="translate(75.48 91.16) rotate(-54.88)"><tspan x="0" y="0">e</tspan></text>
  <text class="cls-1" transform="translate(76.43 89.81) rotate(-53.65)"><tspan x="0" y="0"> </tspan></text>
  <text class="cls-1" transform="translate(76.98 89.08) rotate(-52.82)"><tspan x="0" y="0">t</tspan></text>
  <text class="cls-1" transform="translate(77.5 88.38) rotate(-51.59)"><tspan x="0" y="0">h</tspan></text>
  <text class="cls-1" transform="translate(78.51 87.1) rotate(-49.94)"><tspan x="0" y="0">a</tspan></text>
  <text class="cls-1" transform="translate(79.67 85.73) rotate(-48.69)"><tspan x="0" y="0">t</tspan></text>
  <text class="cls-1" transform="translate(80.19 85.13) rotate(-47.87)"><tspan x="0" y="0"> </tspan></text>
  <text class="cls-1" transform="translate(80.81 84.45) rotate(-46.57)"><tspan x="0" y="0">a</tspan></text>
  <text class="cls-1" transform="translate(82.05 83.14) rotate(-45.31)"><tspan x="0" y="0">t</tspan></text>
  <text class="cls-1" transform="translate(82.61 82.58) rotate(-44.49)"><tspan x="0" y="0"> </tspan></text>
  <text class="cls-1" transform="translate(83.26 81.94) rotate(-43.19)"><tspan x="0" y="0">a</tspan></text>
  <text class="cls-1" transform="translate(84.56 80.72) rotate(-41.9)"><tspan x="0" y="0"> </tspan></text>
  <text class="cls-1" transform="translate(85.25 80.1) rotate(-41.09)"><tspan x="0" y="0">l</tspan></text>
  <text class="cls-1" transform="translate(85.8 79.61) rotate(-39.89)"><tspan x="0" y="0">a</tspan></text>
  <text class="cls-1" transform="translate(87.17 78.47) rotate(-38.64)"><tspan x="0" y="0">t</tspan></text>
  <text class="cls-1" transform="translate(87.82 77.95) rotate(-37.45)"><tspan x="0" y="0">e</tspan></text>
  <text class="cls-1" transform="translate(89.13 76.95) rotate(-36.12)"><tspan x="0" y="0">r</tspan></text>
  <text class="cls-1" transform="translate(90.01 76.3) rotate(-35.17)"><tspan x="0" y="0"> </tspan></text>
  <text class="cls-1" transform="translate(90.76 75.77) rotate(-33.87)"><tspan x="0" y="0">p</tspan></text>
  <text class="cls-1" transform="translate(92.24 74.78) rotate(-32.17)"><tspan x="0" y="0">o</tspan></text>
  <text class="cls-1" transform="translate(93.76 73.83) rotate(-30.97)"><tspan x="0" y="0">i</tspan></text>
  <text class="cls-1" transform="translate(94.4 73.44) rotate(-29.83)"><tspan x="0" y="0">n</tspan></text>
  <text class="cls-1" transform="translate(95.82 72.63) rotate(-28.67)"><tspan x="0" y="0">t</tspan></text>
  <text class="cls-1" transform="translate(96.52 72.24) rotate(-27.85)"><tspan x="0" y="0"> </tspan></text>
  <text class="cls-1" transform="translate(97.34 71.82) rotate(-27.06)"><tspan x="0" y="0">i</tspan></text>
  <text class="cls-1" transform="translate(98 71.47) rotate(-25.93)"><tspan x="0" y="0">n</tspan></text>
  <text class="cls-1" transform="translate(99.46 70.77) rotate(-24.73)"><tspan x="0" y="0"> </tspan></text>
  <text class="cls-1" transform="translate(100.28 70.39) rotate(-23.92)"><tspan x="0" y="0">t</tspan></text>
  <text class="cls-1" transform="translate(101.08 70.03) rotate(-22.7)"><tspan x="0" y="0">h</tspan></text>
  <text class="cls-1" transform="translate(102.58 69.4) rotate(-21.14)"><tspan x="0" y="0">e</tspan></text>
  <text class="cls-1" transform="translate(104.12 68.81) rotate(-19.93)"><tspan x="0" y="0"> </tspan></text>
  <text class="cls-1" transform="translate(104.99 68.5) rotate(-19.07)"><tspan x="0" y="0">f</tspan></text>
  <text class="cls-1" transform="translate(105.88 68.19) rotate(-18.24)"><tspan x="0" y="0">i</tspan></text>
  <text class="cls-1" transform="translate(106.57 67.96) rotate(-17.56)"><tspan x="0" y="0">l</tspan></text>
  <text class="cls-1" transform="translate(107.27 67.73) rotate(-16.08)"><tspan x="0" y="0">m</tspan></text>
  <text class="cls-1" transform="translate(109.55 67.08) rotate(-14.52)"><tspan x="0" y="0"> </tspan></text>
  <text class="cls-1" transform="translate(110.43 66.85) rotate(-13.24)"><tspan x="0" y="0">a</tspan></text>
  <text class="cls-1" transform="translate(112.15 66.45) rotate(-11.74)"><tspan x="0" y="0">c</tspan></text>
  <text class="cls-1" transform="translate(113.55 66.16) rotate(-10.66)"><tspan x="0" y="0">t</tspan></text>
  <text class="cls-1" transform="translate(114.35 66) rotate(-9.7)"><tspan x="0" y="0">s</tspan></text>
  <text class="cls-1" transform="translate(115.54 65.8) rotate(-8.69)"><tspan x="0" y="0"> </tspan></text>
  <text class="cls-1" transform="translate(116.45 65.66) rotate(-7.39)"><tspan x="0" y="0">a</tspan></text>
  <text class="cls-1" transform="translate(118.22 65.43) rotate(-5.97)"><tspan x="0" y="0">s</tspan></text>
  <text class="cls-1" transform="translate(119.4 65.31) rotate(-4.97)"><tspan x="0" y="0"> </tspan></text>
  <text class="cls-1" transform="translate(120.31 65.23) rotate(-3.76)"><tspan x="0" y="0">h</tspan></text>
  <text class="cls-1" transform="translate(121.93 65.13) rotate(-2.63)"><tspan x="0" y="0">i</tspan></text>
  <text class="cls-1" transform="translate(122.7 65.09) rotate(-1.67)"><tspan x="0" y="0">s</tspan></text>
  <text class="cls-1" transform="translate(123.89 65.05) rotate(-.66)"><tspan x="0" y="0"> </tspan></text>
  <text class="cls-1" transform="translate(124.79 65.04) rotate(.34)"><tspan x="0" y="0">s</tspan></text>
  <text class="cls-1" transform="translate(126.01 65.05) rotate(1.72)"><tspan x="0" y="0">h</tspan></text>
  <text class="cls-1" transform="translate(127.63 65.1) rotate(3.28)"><tspan x="0" y="0">e</tspan></text>
  <text class="cls-1" transform="translate(129.27 65.19) rotate(4.43)"><tspan x="0" y="0">l</tspan></text>
  <text class="cls-1" transform="translate(130.01 65.25) rotate(5.18)"><tspan x="0" y="0">t</tspan></text>
  <text class="cls-1" transform="translate(130.83 65.32) rotate(6.37)"><tspan x="0" y="0">e</tspan></text>
  <text class="cls-1" transform="translate(132.47 65.51) rotate(7.71)"><tspan x="0" y="0">r</tspan></text>
  <text class="cls-1" transform="translate(133.46 65.64) rotate(8.57)"><tspan x="0" y="0">,</tspan></text>
  <text class="cls-1" transform="translate(134.38 65.78) rotate(9.46)"><tspan x="0" y="0"> </tspan></text>
  <text class="cls-1" transform="translate(135.28 65.93) rotate(10.29)"><tspan x="0" y="0">t</tspan></text>
  <text class="cls-1" transform="translate(136.13 66.08) rotate(11.52)"><tspan x="0" y="0">h</tspan></text>
  <text class="cls-1" transform="translate(137.72 66.4) rotate(13.09)"><tspan x="0" y="0">e</tspan></text>
  <text class="cls-1" transform="translate(139.33 66.78) rotate(14.32)"><tspan x="0" y="0"> </tspan></text>
  <text class="cls-1" transform="translate(140.21 67) rotate(15.61)"><tspan x="0" y="0">b</tspan></text>
  <text class="cls-1" transform="translate(141.93 67.48) rotate(17.32)"><tspan x="0" y="0">a</tspan></text>
  <text class="cls-1" transform="translate(143.64 68.02) rotate(18.7)"><tspan x="0" y="0">r</tspan></text>
  <text class="cls-1" transform="translate(144.68 68.37) rotate(19.78)"><tspan x="0" y="0">s</tspan></text>
  <text class="cls-1" transform="translate(145.82 68.78) rotate(20.8)"><tspan x="0" y="0"> </tspan></text>
  <text class="cls-1" transform="translate(146.68 69.11) rotate(21.61)"><tspan x="0" y="0">t</tspan></text>
  <text class="cls-1" transform="translate(147.48 69.42) rotate(22.82)"><tspan x="0" y="0">h</tspan></text>
  <text class="cls-1" transform="translate(148.99 70.07) rotate(23.61)"><tspan x="0" y="0">a</tspan></text>
  <text class="cls-1" transform="translate(150.61 70.8) rotate(25.63)"><tspan x="0" y="0">t</tspan></text>
  <text class="cls-1" transform="translate(151.34 71.15) rotate(26.44)"><tspan x="0" y="0"> </tspan></text>
  <text class="cls-1" transform="translate(152.15 71.55) rotate(27.21)"><tspan x="0" y="0">i</tspan></text>
  <text class="cls-1" transform="translate(152.82 71.88) rotate(28.69)"><tspan x="0" y="0">m</tspan></text>
  <text class="cls-1" transform="translate(154.91 73.03) rotate(30.68)"><tspan x="0" y="0">p</tspan></text>
  <text class="cls-1" transform="translate(156.44 73.94) rotate(32.06)"><tspan x="0" y="0">r</tspan></text>
  <text class="cls-1" transform="translate(157.44 74.57) rotate(33)"><tspan x="0" y="0">i</tspan></text>
  <text class="cls-1" transform="translate(158.05 74.97) rotate(33.93)"><tspan x="0" y="0">s</tspan></text>
  <text class="cls-1" transform="translate(159.04 75.62) rotate(35.34)"><tspan x="0" y="0">o</tspan></text>
  <text class="cls-1" transform="translate(160.51 76.67) rotate(37)"><tspan x="0" y="0">n</tspan></text>
  <text class="cls-1" transform="translate(161.81 77.65) rotate(38.57)"><tspan x="0" y="0">e</tspan></text>
  <text class="cls-1" transform="translate(163.09 78.67) rotate(40.22)"><tspan x="0" y="0">d</tspan></text>
  <text class="cls-1" transform="translate(164.45 79.82) rotate(41.51)"><tspan x="0" y="0"> </tspan></text>
  <text class="cls-1" transform="translate(165.15 80.44) rotate(42.75)"><tspan x="0" y="0">n</tspan></text>
  <text class="cls-1" transform="translate(166.34 81.54) rotate(44.39)"><tspan x="0" y="0">o</tspan></text>
  <text class="cls-1" transform="translate(167.56 82.73) rotate(46.28)"><tspan x="0" y="0">w</tspan></text>
  <text class="cls-1" transform="translate(169.16 84.41) rotate(47.84)"><tspan x="0" y="0"> </tspan></text>
  <text class="cls-1" transform="translate(169.78 85.08) rotate(49.13)"><tspan x="0" y="0">p</tspan></text>
  <text class="cls-1" transform="translate(170.95 86.44) rotate(50.53)"><tspan x="0" y="0">r</tspan></text>
  <text class="cls-1" transform="translate(171.63 87.26) rotate(51.88)"><tspan x="0" y="0">o</tspan></text>
  <text class="cls-1" transform="translate(172.74 88.69) rotate(53.14)"><tspan x="0" y="0">t</tspan></text>
  <text class="cls-1" transform="translate(173.24 89.35) rotate(54.33)"><tspan x="0" y="0">e</tspan></text>
  <text class="cls-1" transform="translate(174.2 90.69) rotate(55.8)"><tspan x="0" y="0">c</tspan></text>
  <text class="cls-1" transform="translate(175 91.86) rotate(56.86)"><tspan x="0" y="0">t</tspan></text>
  <text class="cls-1" transform="translate(175.44 92.54) rotate(57.68)"><tspan x="0" y="0">.</tspan></text>
  <text class="cls-1" transform="translate(175.93 93.32) rotate(58.56)"><tspan x="0" y="0"> </tspan></text>
  <text class="cls-1" transform="translate(176.41 94.1) rotate(59.68)"><tspan x="0" y="0">T</tspan></text>
  <text class="cls-1" transform="translate(177.14 95.33) rotate(61.14)"><tspan x="0" y="0">h</tspan></text>
  <text class="cls-1" transform="translate(177.93 96.77) rotate(62.7)"><tspan x="0" y="0">e</tspan></text>
  <text class="cls-1" transform="translate(178.67 98.22) rotate(63.9)"><tspan x="0" y="0"> </tspan></text>
  <text class="cls-1" transform="translate(179.08 99.04) rotate(65.01)"><tspan x="0" y="0">c</tspan></text>
  <text class="cls-1" transform="translate(179.67 100.32) rotate(66.53)"><tspan x="0" y="0">a</tspan></text>
  <text class="cls-1" transform="translate(180.38 101.95) rotate(68.22)"><tspan x="0" y="0">g</tspan></text>
  <text class="cls-1" transform="translate(181.04 103.6) rotate(69.84)"><tspan x="0" y="0">e</tspan></text>
  <text class="cls-1" transform="translate(181.61 105.15) rotate(71.06)"><tspan x="0" y="0"> </tspan></text>
  <text class="cls-1" transform="translate(181.91 106.01) rotate(72.06)"><tspan x="0" y="0">s</tspan></text>
  <text class="cls-1" transform="translate(182.28 107.18) rotate(73.43)"><tspan x="0" y="0">h</tspan></text>
  <text class="cls-1" transform="translate(182.74 108.73) rotate(74.54)"><tspan x="0" y="0">i</tspan></text>
  <text class="cls-1" transform="translate(182.94 109.44) rotate(75.31)"><tspan x="0" y="0">f</tspan></text>
  <text class="cls-1" transform="translate(183.19 110.39) rotate(76.21)"><tspan x="0" y="0">t</tspan></text>
  <text class="cls-1" transform="translate(183.38 111.18) rotate(77.17)"><tspan x="0" y="0">s</tspan></text>
  <text class="cls-1" transform="translate(183.65 112.36) rotate(78.18)"><tspan x="0" y="0"> </tspan></text>
  <text class="cls-1" transform="translate(183.84 113.26) rotate(79.04)"><tspan x="0" y="0">f</tspan></text>
  <text class="cls-1" transform="translate(184.01 114.12) rotate(79.98)"><tspan x="0" y="0">r</tspan></text>
  <text class="cls-1" transform="translate(184.2 115.21) rotate(81.36)"><tspan x="0" y="0">o</tspan></text>
  <text class="cls-1" transform="translate(184.48 116.96) rotate(83.32)"><tspan x="0" y="0">m</tspan></text>
  <text class="cls-1" transform="translate(184.74 119.3) rotate(84.88)"><tspan x="0" y="0"> </tspan></text>
  <text class="cls-1" transform="translate(184.82 120.21) rotate(86.03)"><tspan x="0" y="0">k</tspan></text>
  <text class="cls-1" transform="translate(184.92 121.62) rotate(87.46)"><tspan x="0" y="0">e</tspan></text>
  <text class="cls-1" transform="translate(185 123.28) rotate(89.05)"><tspan x="0" y="0">e</tspan></text>
  <text class="cls-1" transform="translate(185.03 124.92) rotate(90.69)"><tspan x="0" y="0">p</tspan></text>
  <text class="cls-1" transform="translate(185 126.7) rotate(91.9)"><tspan x="0" y="0">i</tspan></text>
  <text class="cls-1" transform="translate(184.98 127.44) rotate(93.04)"><tspan x="0" y="0">n</tspan></text>
  <text class="cls-1" transform="translate(184.89 129.08) rotate(94.69)"><tspan x="0" y="0">g</tspan></text>
  <text class="cls-1" transform="translate(184.74 130.84) rotate(95.98)"><tspan x="0" y="0"> </tspan></text>
  <text class="cls-1" transform="translate(184.65 131.74) rotate(97.2)"><tspan x="0" y="0">h</tspan></text>
  <text class="cls-1" transform="translate(184.45 133.36) rotate(98.33)"><tspan x="0" y="0">i</tspan></text>
  <text class="cls-1" transform="translate(184.35 134.09) rotate(99.82)"><tspan x="0" y="0">m</tspan></text>
  <text class="cls-1" transform="translate(183.93 136.42) rotate(101.41)"><tspan x="0" y="0"> </tspan></text>
  <text class="cls-1" transform="translate(183.75 137.31) rotate(102.19)"><tspan x="0" y="0">i</tspan></text>
  <text class="cls-1" transform="translate(183.6 138.04) rotate(103.33)"><tspan x="0" y="0">n</tspan></text>
  <text class="cls-1" transform="translate(183.22 139.62) rotate(104.55)"><tspan x="0" y="0"> </tspan></text>
  <text class="cls-1" transform="translate(182.99 140.51) rotate(105.38)"><tspan x="0" y="0">t</tspan></text>
  <text class="cls-1" transform="translate(182.78 141.31) rotate(106.64)"><tspan x="0" y="0">o</tspan></text>
  <text class="cls-1" transform="translate(182.26 143.02) rotate(107.93)"><tspan x="0" y="0"> </tspan></text>
  <text class="cls-1" transform="translate(181.99 143.88) rotate(109.06)"><tspan x="0" y="0">k</tspan></text>
  <text class="cls-1" transform="translate(181.52 145.24) rotate(110.51)"><tspan x="0" y="0">e</tspan></text>
  <text class="cls-1" transform="translate(180.94 146.79) rotate(112.07)"><tspan x="0" y="0">e</tspan></text>
  <text class="cls-1" transform="translate(180.32 148.31) rotate(113.61)"><tspan x="0" y="0">p</tspan></text>
  <text class="cls-1" transform="translate(179.6 149.95) rotate(115.47)"><tspan x="0" y="0">i</tspan></text>
  <text class="cls-1" transform="translate(179.31 150.6) rotate(115.95)"><tspan x="0" y="0">n</tspan></text>
  <text class="cls-1" transform="translate(178.58 152.09) rotate(117.58)"><tspan x="0" y="0">g</tspan></text>
  <text class="cls-1" transform="translate(177.75 153.66) rotate(118.85)"><tspan x="0" y="0"> </tspan></text>
  <text class="cls-1" transform="translate(177.33 154.45) rotate(120.11)"><tspan x="0" y="0">o</tspan></text>
  <text class="cls-1" transform="translate(176.41 156.02) rotate(121.38)"><tspan x="0" y="0">t</tspan></text>
  <text class="cls-1" transform="translate(175.96 156.76) rotate(122.6)"><tspan x="0" y="0">h</tspan></text>
  <text class="cls-1" transform="translate(175.08 158.14) rotate(124.17)"><tspan x="0" y="0">e</tspan></text>
  <text class="cls-1" transform="translate(174.16 159.48) rotate(125.48)"><tspan x="0" y="0">r</tspan></text>
  <text class="cls-1" transform="translate(173.51 160.4) rotate(126.6)"><tspan x="0" y="0">s</tspan></text>
  <text class="cls-1" transform="translate(172.79 161.37) rotate(127.63)"><tspan x="0" y="0"> </tspan></text>
  <text class="cls-1" transform="translate(172.23 162.1) rotate(128.92)"><tspan x="0" y="0">o</tspan></text>
  <text class="cls-1" transform="translate(171.12 163.48) rotate(130.55)"><tspan x="0" y="0">u</tspan></text>
  <text class="cls-1" transform="translate(170.06 164.71) rotate(131.73)"><tspan x="0" y="0">t</tspan></text>
  <text class="cls-1" transform="translate(169.52 165.31) rotate(132.55)"><tspan x="0" y="0"> </tspan></text>
  <text class="cls-1" transform="translate(168.9 165.99) rotate(133.85)"><tspan x="0" y="0">b</tspan></text>
  <text class="cls-1" transform="translate(167.67 167.28) rotate(135.58)"><tspan x="0" y="0">a</tspan></text>
  <text class="cls-1" transform="translate(166.39 168.52) rotate(137)"><tspan x="0" y="0">s</tspan></text>
  <text class="cls-1" transform="translate(165.52 169.34) rotate(138.37)"><tspan x="0" y="0">e</tspan></text>
  <text class="cls-1" transform="translate(164.3 170.43) rotate(140)"><tspan x="0" y="0">d</tspan></text>
  <text class="cls-1" transform="translate(162.92 171.58) rotate(141.31)"><tspan x="0" y="0"> </tspan></text>
  <text class="cls-1" transform="translate(162.22 172.15) rotate(142.6)"><tspan x="0" y="0">o</tspan></text>
  <text class="cls-1" transform="translate(160.8 173.23) rotate(144.22)"><tspan x="0" y="0">n</tspan></text>
  <text class="cls-1" transform="translate(159.46 174.19) rotate(145.46)"><tspan x="0" y="0"> </tspan></text>
  <text class="cls-1" transform="translate(158.72 174.71) rotate(146.56)"><tspan x="0" y="0">c</tspan></text>
  <text class="cls-1" transform="translate(157.54 175.49) rotate(148.09)"><tspan x="0" y="0">o</tspan></text>
  <text class="cls-1" transform="translate(156.01 176.44) rotate(149.72)"><tspan x="0" y="0">n</tspan></text>
  <text class="cls-1" transform="translate(154.61 177.26) rotate(150.88)"><tspan x="0" y="0">t</tspan></text>
  <text class="cls-1" transform="translate(153.89 177.66) rotate(152.06)"><tspan x="0" y="0">e</tspan></text>
  <text class="cls-1" transform="translate(152.49 178.41) rotate(153.58)"><tspan x="0" y="0">x</tspan></text>
  <text class="cls-1" transform="translate(150.99 179.14) rotate(154.76)"><tspan x="0" y="0">t</tspan></text>
  <text class="cls-1" transform="translate(150.27 179.48) rotate(155.57)"><tspan x="0" y="0">.</tspan></text>
</svg>