<?xml version="1.0" encoding="UTF-8"?>
<svg id="Layer_28" data-name="Layer 28" xmlns="http://www.w3.org/2000/svg" viewBox="0 0 250 250">
  <defs>
    <style>
      .cls-1 {
        font-family: Futura-Medium, Futura;
        font-weight: 500;
      }

      .cls-1, .cls-2 {
        fill: #231f20;
        font-size: 4.6px;
      }

      .cls-2 {
        font-family: Futura-CondensedExtraBold, Futura;
        font-weight: 700;
      }
    </style>
  </defs>
  <text class="cls-1" transform="translate(104.18 6.81) rotate(-9.07)"><tspan x="0" y="0">S</tspan></text>
  <text class="cls-1" transform="translate(106.83 6.39) rotate(-8.21)"><tspan x="0" y="0">k</tspan></text>
  <text class="cls-1" transform="translate(109.09 6.06) rotate(-7.4)"><tspan x="0" y="0">i</tspan></text>
  <text class="cls-1" transform="translate(110.19 5.92) rotate(-6.55)"><tspan x="0" y="0">n</tspan></text>
  <text class="cls-1" transform="translate(112.7 5.63) rotate(-5.51)"><tspan x="0" y="0">s</tspan></text>
  <text class="cls-1" transform="translate(114.54 5.45) rotate(-4.74)"><tspan x="0" y="0">,</tspan></text>
  <text class="cls-1" transform="translate(115.96 5.34) rotate(-4.07)"><tspan x="0" y="0"> </tspan></text>
  <text class="cls-1" transform="translate(117.35 5.23) rotate(-2.94)"><tspan x="0" y="0">H</tspan></text>
  <text class="cls-1" transform="translate(120.71 5.06) rotate(-1.54)"><tspan x="0" y="0">u</tspan></text>
  <text class="cls-1" transform="translate(123.19 5) rotate(-.5)"><tspan x="0" y="0">s</tspan></text>
  <text class="cls-1" transform="translate(125.04 4.98) rotate(.49)"><tspan x="0" y="0">k</tspan></text>
  <text class="cls-1" transform="translate(127.31 5) rotate(1.47)"><tspan x="0" y="0">s</tspan></text>
  <text class="cls-1" transform="translate(129.17 5.05) rotate(2.26)"><tspan x="0" y="0">,</tspan></text>
  <text class="cls-1" transform="translate(130.59 5.1) rotate(2.94)"><tspan x="0" y="0"> </tspan></text>
  <text class="cls-1" transform="translate(131.98 5.17) rotate(3.91)"><tspan x="0" y="0">S</tspan></text>
  <text class="cls-1" transform="translate(134.65 5.35) rotate(5.16)"><tspan x="0" y="0">h</tspan></text>
  <text class="cls-1" transform="translate(137.13 5.58) rotate(6.37)"><tspan x="0" y="0">e</tspan></text>
  <text class="cls-1" transform="translate(139.66 5.86) rotate(7.25)"><tspan x="0" y="0">l</tspan></text>
  <text class="cls-1" transform="translate(140.8 6.01) rotate(7.81)"><tspan x="0" y="0">l</tspan></text>
  <text class="cls-1" transform="translate(141.9 6.16) rotate(8.52)"><tspan x="0" y="0">s</tspan></text>
  <text class="cls-1" transform="translate(143.76 6.44) rotate(9.31)"><tspan x="0" y="0">,</tspan></text>
  <text class="cls-1" transform="translate(145.14 6.67) rotate(9.99)"><tspan x="0" y="0"> </tspan></text>
  <text class="cls-1" transform="translate(146.51 6.9) rotate(10.97)"><tspan x="0" y="0">B</tspan></text>
  <text class="cls-1" transform="translate(149.19 7.42) rotate(12.29)"><tspan x="0" y="0">o</tspan></text>
  <text class="cls-1" transform="translate(151.86 8.01) rotate(13.35)"><tspan x="0" y="0">r</tspan></text>
  <text class="cls-1" transform="translate(153.49 8.39) rotate(14.4)"><tspan x="0" y="0">d</tspan></text>
  <text class="cls-1" transform="translate(156.15 9.07) rotate(15.67)"><tspan x="0" y="0">e</tspan></text>
  <text class="cls-1" transform="translate(158.58 9.76) rotate(16.69)"><tspan x="0" y="0">r</tspan></text>
  <text class="cls-1" transform="translate(160.21 10.24) rotate(17.53)"><tspan x="0" y="0">s</tspan></text>
  <text class="cls-1" transform="translate(161.98 10.8) rotate(18.32)"><tspan x="0" y="0">,</tspan></text>
  <text class="cls-1" transform="translate(163.33 11.25) rotate(19)"><tspan x="0" y="0"> </tspan></text>
  <text class="cls-1" transform="translate(164.67 11.71) rotate(19.98)"><tspan x="0" y="0">B</tspan></text>
  <text class="cls-1" transform="translate(167.2 12.63) rotate(21.28)"><tspan x="0" y="0">o</tspan></text>
  <text class="cls-1" transform="translate(169.76 13.63) rotate(22.53)"><tspan x="0" y="0">u</tspan></text>
  <text class="cls-1" transform="translate(172.05 14.58) rotate(23.72)"><tspan x="0" y="0">n</tspan></text>
  <text class="cls-1" transform="translate(174.34 15.58) rotate(24.97)"><tspan x="0" y="0">d</tspan></text>
  <text class="cls-1" transform="translate(176.84 16.74) rotate(26.28)"><tspan x="0" y="0">a</tspan></text>
  <text class="cls-1" transform="translate(179.28 17.95) rotate(27.33)"><tspan x="0" y="0">r</tspan></text>
  <text class="cls-1" transform="translate(180.87 18.78) rotate(28.04)"><tspan x="0" y="0">i</tspan></text>
  <text class="cls-1" transform="translate(181.87 19.3) rotate(28.91)"><tspan x="0" y="0">e</tspan></text>
  <text class="cls-1" transform="translate(184.1 20.54) rotate(29.96)"><tspan x="0" y="0">s</tspan></text>
  <text class="cls-1" transform="translate(185.69 21.46) rotate(30.73)"><tspan x="0" y="0">,</tspan></text>
  <text class="cls-1" transform="translate(186.91 22.18) rotate(31.4)"><tspan x="0" y="0"> </tspan></text>
  <text class="cls-1" transform="translate(188.11 22.91) rotate(32.52)"><tspan x="0" y="0">D</tspan></text>
  <text class="cls-1" transform="translate(190.91 24.7) rotate(33.91)"><tspan x="0" y="0">e</tspan></text>
  <text class="cls-1" transform="translate(193.01 26.11) rotate(34.83)"><tspan x="0" y="0">f</tspan></text>
  <text class="cls-1" transform="translate(194.2 26.94) rotate(35.47)"><tspan x="0" y="0">i</tspan></text>
  <text class="cls-1" transform="translate(195.13 27.6) rotate(36.33)"><tspan x="0" y="0">n</tspan></text>
  <text class="cls-1" transform="translate(197.15 29.09) rotate(37.2)"><tspan x="0" y="0">i</tspan></text>
  <text class="cls-1" transform="translate(198.05 29.78) rotate(37.76)"><tspan x="0" y="0">t</tspan></text>
  <text class="cls-1" transform="translate(199.04 30.54) rotate(38.33)"><tspan x="0" y="0">i</tspan></text>
  <text class="cls-1" transform="translate(199.93 31.23) rotate(39.25)"><tspan x="0" y="0">o</tspan></text>
  <text class="cls-1" transform="translate(202.06 32.98) rotate(40.5)"><tspan x="0" y="0">n</tspan></text>
  <text class="cls-1" transform="translate(203.97 34.61) rotate(41.54)"><tspan x="0" y="0">s</tspan></text>
  <text class="cls-1" transform="translate(205.35 35.84) rotate(42.31)"><tspan x="0" y="0">,</tspan></text>
  <text class="cls-1" transform="translate(206.4 36.79) rotate(42.98)"><tspan x="0" y="0"> </tspan></text>
  <text class="cls-1" transform="translate(207.44 37.75) rotate(43.94)"><tspan x="0" y="0">E</tspan></text>
  <text class="cls-1" transform="translate(209.3 39.55) rotate(45.16)"><tspan x="0" y="0">x</tspan></text>
  <text class="cls-1" transform="translate(211.1 41.36) rotate(46.06)"><tspan x="0" y="0">t</tspan></text>
  <text class="cls-1" transform="translate(211.98 42.27) rotate(46.98)"><tspan x="0" y="0">e</tspan></text>
  <text class="cls-1" transform="translate(213.71 44.13) rotate(47.99)"><tspan x="0" y="0">r</tspan></text>
  <text class="cls-1" transform="translate(214.9 45.45) rotate(48.71)"><tspan x="0" y="0">i</tspan></text>
  <text class="cls-1" transform="translate(215.64 46.29) rotate(49.62)"><tspan x="0" y="0">o</tspan></text>
  <text class="cls-1" transform="translate(217.43 48.4) rotate(50.7)"><tspan x="0" y="0">r</tspan></text>
  <text class="cls-1" transform="translate(218.52 49.73) rotate(51.55)"><tspan x="0" y="0">s</tspan></text>
  <text class="cls-1" transform="translate(219.67 51.18) rotate(52.33)"><tspan x="0" y="0">,</tspan></text>
  <text class="cls-1" transform="translate(220.53 52.29) rotate(53.01)"><tspan x="0" y="0"> </tspan></text>
  <text class="cls-1" transform="translate(221.38 53.4) rotate(54.11)"><tspan x="0" y="0">C</tspan></text>
  <text class="cls-1" transform="translate(223.26 56.01) rotate(55.54)"><tspan x="0" y="0">o</tspan></text>
  <text class="cls-1" transform="translate(224.81 58.27) rotate(56.8)"><tspan x="0" y="0">n</tspan></text>
  <text class="cls-1" transform="translate(226.18 60.37) rotate(57.7)"><tspan x="0" y="0">t</tspan></text>
  <text class="cls-1" transform="translate(226.87 61.45) rotate(58.68)"><tspan x="0" y="0">a</tspan></text>
  <text class="cls-1" transform="translate(228.28 63.79) rotate(59.6)"><tspan x="0" y="0">i</tspan></text>
  <text class="cls-1" transform="translate(228.87 64.77) rotate(60.48)"><tspan x="0" y="0">n</tspan></text>
  <text class="cls-1" transform="translate(230.11 66.96) rotate(61.7)"><tspan x="0" y="0">e</tspan></text>
  <text class="cls-1" transform="translate(231.31 69.19) rotate(62.72)"><tspan x="0" y="0">r</tspan></text>
  <text class="cls-1" transform="translate(232.09 70.71) rotate(63.58)"><tspan x="0" y="0">s</tspan></text>
  <text class="cls-1" transform="translate(232.92 72.38) rotate(64.37)"><tspan x="0" y="0">,</tspan></text>
  <text class="cls-1" transform="translate(233.52 73.63) rotate(65.04)"><tspan x="0" y="0"> </tspan></text>
  <text class="cls-1" transform="translate(234.12 74.91) rotate(66.15)"><tspan x="0" y="0">C</tspan></text>
  <text class="cls-1" transform="translate(235.41 77.85) rotate(67.19)"><tspan x="0" y="0">l</tspan></text>
  <text class="cls-1" transform="translate(235.85 78.88) rotate(68.12)"><tspan x="0" y="0">o</tspan></text>
  <text class="cls-1" transform="translate(236.88 81.47) rotate(69.1)"><tspan x="0" y="0">t</tspan></text>
  <text class="cls-1" transform="translate(237.37 82.72) rotate(70.04)"><tspan x="0" y="0">h</tspan></text>
  <text class="cls-1" transform="translate(238.21 85.06) rotate(70.91)"><tspan x="0" y="0">i</tspan></text>
  <text class="cls-1" transform="translate(238.59 86.15) rotate(71.78)"><tspan x="0" y="0">n</tspan></text>
  <text class="cls-1" transform="translate(239.38 88.53) rotate(73.04)"><tspan x="0" y="0">g</tspan></text>
  <text class="cls-1" transform="translate(240.17 91.14) rotate(74.02)"><tspan x="0" y="0">,</tspan></text>
  <text class="cls-1" transform="translate(240.56 92.51) rotate(74.7)"><tspan x="0" y="0"> </tspan></text>
  <text class="cls-1" transform="translate(240.94 93.86) rotate(75.67)"><tspan x="0" y="0">B</tspan></text>
  <text class="cls-1" transform="translate(241.61 96.49) rotate(76.96)"><tspan x="0" y="0">a</tspan></text>
  <text class="cls-1" transform="translate(242.22 99.15) rotate(78)"><tspan x="0" y="0">r</tspan></text>
  <text class="cls-1" transform="translate(242.59 100.89) rotate(78.84)"><tspan x="0" y="0">r</tspan></text>
  <text class="cls-1" transform="translate(242.93 102.65) rotate(79.07)"><tspan x="0" y="0">i</tspan></text>
  <text class="cls-1" transform="translate(243.15 103.74) rotate(80.93)"><tspan x="0" y="0">e</tspan></text>
  <text class="cls-1" transform="translate(243.56 106.25) rotate(81.4)"><tspan x="0" y="0">r</tspan></text>
  <text class="cls-1" transform="translate(243.82 107.94) rotate(82.23)"><tspan x="0" y="0">s</tspan></text>
  <text class="cls-1" transform="translate(244.06 109.76) rotate(82.99)"><tspan x="0" y="0">,</tspan></text>
  <text class="cls-1" transform="translate(244.24 111.19) rotate(83.67)"><tspan x="0" y="0"> </tspan></text>
  <text class="cls-1" transform="translate(244.41 112.55) rotate(85.14)"><tspan x="0" y="0">W</tspan></text>
  <text class="cls-1" transform="translate(244.79 117.2) rotate(86.61)"><tspan x="0" y="0">r</tspan></text>
  <text class="cls-1" transform="translate(244.9 118.88) rotate(87.66)"><tspan x="0" y="0">a</tspan></text>
  <text class="cls-1" transform="translate(245.01 121.61) rotate(88.97)"><tspan x="0" y="0">p</tspan></text>
  <text class="cls-1" transform="translate(245.06 124.36) rotate(90.29)"><tspan x="0" y="0">p</tspan></text>
  <text class="cls-1" transform="translate(245.04 127.08) rotate(91.54)"><tspan x="0" y="0">e</tspan></text>
  <text class="cls-1" transform="translate(244.97 129.62) rotate(92.56)"><tspan x="0" y="0">r</tspan></text>
  <text class="cls-1" transform="translate(244.89 131.34) rotate(93.42)"><tspan x="0" y="0">s</tspan></text>
  <text class="cls-1" transform="translate(244.78 133.18) rotate(94.21)"><tspan x="0" y="0">,</tspan></text>
  <text class="cls-1" transform="translate(244.68 134.57) rotate(94.88)"><tspan x="0" y="0"> </tspan></text>
  <text class="cls-1" transform="translate(244.57 135.98) rotate(95.99)"><tspan x="0" y="0">C</tspan></text>
  <text class="cls-1" transform="translate(244.23 139.17) rotate(97.42)"><tspan x="0" y="0">o</tspan></text>
  <text class="cls-1" transform="translate(243.89 141.81) rotate(98.6)"><tspan x="0" y="0">v</tspan></text>
  <text class="cls-1" transform="translate(243.56 143.99) rotate(99.71)"><tspan x="0" y="0">e</tspan></text>
  <text class="cls-1" transform="translate(243.13 146.5) rotate(100.74)"><tspan x="0" y="0">r</tspan></text>
  <text class="cls-1" transform="translate(242.79 148.24) rotate(101.46)"><tspan x="0" y="0">i</tspan></text>
  <text class="cls-1" transform="translate(242.57 149.36) rotate(102.34)"><tspan x="0" y="0">n</tspan></text>
  <text class="cls-1" transform="translate(242.04 151.79) rotate(103.59)"><tspan x="0" y="0">g</tspan></text>
  <text class="cls-1" transform="translate(241.39 154.46) rotate(104.69)"><tspan x="0" y="0">s</tspan></text>
  <text class="cls-1" transform="translate(240.93 156.24) rotate(105.47)"><tspan x="0" y="0">,</tspan></text>
  <text class="cls-1" transform="translate(240.55 157.6) rotate(106.14)"><tspan x="0" y="0"> </tspan></text>
  <text class="cls-1" transform="translate(240.18 158.96) rotate(107.64)"><tspan x="0" y="0">W</tspan></text>
  <text class="cls-1" transform="translate(238.78 163.33) rotate(109.34)"><tspan x="0" y="0">a</tspan></text>
  <text class="cls-1" transform="translate(237.87 165.91) rotate(110.26)"><tspan x="0" y="0">l</tspan></text>
  <text class="cls-1" transform="translate(237.47 166.99) rotate(110.81)"><tspan x="0" y="0">l</tspan></text>
  <text class="cls-1" transform="translate(237.07 168.05) rotate(111.52)"><tspan x="0" y="0">s</tspan></text>
  <text class="cls-1" transform="translate(236.38 169.77) rotate(112.3)"><tspan x="0" y="0">,</tspan></text>
  <text class="cls-1" transform="translate(235.85 171.07) rotate(112.97)"><tspan x="0" y="0"> </tspan></text>
  <text class="cls-1" transform="translate(235.3 172.37) rotate(113.86)"><tspan x="0" y="0">F</tspan></text>
  <text class="cls-1" transform="translate(234.38 174.47) rotate(115)"><tspan x="0" y="0">e</tspan></text>
  <text class="cls-1" transform="translate(233.32 176.75) rotate(116.19)"><tspan x="0" y="0">n</tspan></text>
  <text class="cls-1" transform="translate(232.21 179) rotate(117.31)"><tspan x="0" y="0">c</tspan></text>
  <text class="cls-1" transform="translate(231.21 180.94) rotate(118.43)"><tspan x="0" y="0">e</tspan></text>
  <text class="cls-1" transform="translate(230 183.16) rotate(119.47)"><tspan x="0" y="0">s</tspan></text>
  <text class="cls-1" transform="translate(229.08 184.78) rotate(120.25)"><tspan x="0" y="0">,</tspan></text>
  <text class="cls-1" transform="translate(228.37 186.01) rotate(120.92)"><tspan x="0" y="0"> </tspan></text>
  <text class="cls-1" transform="translate(227.66 187.21) rotate(121.88)"><tspan x="0" y="0">S</tspan></text>
  <text class="cls-1" transform="translate(226.25 189.47) rotate(123.11)"><tspan x="0" y="0">h</tspan></text>
  <text class="cls-1" transform="translate(224.88 191.57) rotate(124.31)"><tspan x="0" y="0">e</tspan></text>
  <text class="cls-1" transform="translate(223.46 193.65) rotate(125.5)"><tspan x="0" y="0">e</tspan></text>
  <text class="cls-1" transform="translate(221.99 195.72) rotate(126.7)"><tspan x="0" y="0">n</tspan></text>
  <text class="cls-1" transform="translate(220.49 197.72) rotate(127.63)"><tspan x="0" y="0">,</tspan></text>
  <text class="cls-1" transform="translate(219.62 198.85) rotate(128.3)"><tspan x="0" y="0"> </tspan></text>
  <text class="cls-1" transform="translate(218.75 199.95) rotate(129.22)"><tspan x="0" y="0">P</tspan></text>
  <text class="cls-1" transform="translate(217.07 202) rotate(130.16)"><tspan x="0" y="0">l</tspan></text>
  <text class="cls-1" transform="translate(216.34 202.88) rotate(131.09)"><tspan x="0" y="0">a</tspan></text>
  <text class="cls-1" transform="translate(214.53 204.95) rotate(132.18)"><tspan x="0" y="0">s</tspan></text>
  <text class="cls-1" transform="translate(213.29 206.31) rotate(132.91)"><tspan x="0" y="0">t</tspan></text>
  <text class="cls-1" transform="translate(212.42 207.26) rotate(133.83)"><tspan x="0" y="0">e</tspan></text>
  <text class="cls-1" transform="translate(210.66 209.08) rotate(134.84)"><tspan x="0" y="0">r</tspan></text>
  <text class="cls-1" transform="translate(209.58 210.17) rotate(135.5)"><tspan x="0" y="0">,</tspan></text>
  <text class="cls-1" transform="translate(208.59 211.15) rotate(136.16)"><tspan x="0" y="0"> </tspan></text>
  <text class="cls-1" transform="translate(207.58 212.14) rotate(137.48)"><tspan x="0" y="0">O</tspan></text>
  <text class="cls-1" transform="translate(204.56 214.89) rotate(138.86)"><tspan x="0" y="0">r</tspan></text>
  <text class="cls-1" transform="translate(203.22 216.06) rotate(139.9)"><tspan x="0" y="0">n</tspan></text>
  <text class="cls-1" transform="translate(201.31 217.67) rotate(141.15)"><tspan x="0" y="0">a</tspan></text>
  <text class="cls-1" transform="translate(199.18 219.4) rotate(142.67)"><tspan x="0" y="0">m</tspan></text>
  <text class="cls-1" transform="translate(196.3 221.58) rotate(144.14)"><tspan x="0" y="0">e</tspan></text>
  <text class="cls-1" transform="translate(194.24 223.07) rotate(145.36)"><tspan x="0" y="0">n</tspan></text>
  <text class="cls-1" transform="translate(192.18 224.49) rotate(146.25)"><tspan x="0" y="0">t</tspan></text>
  <text class="cls-1" transform="translate(191.13 225.19) rotate(146.9)"><tspan x="0" y="0">,</tspan></text>
  <text class="cls-1" transform="translate(189.96 225.95) rotate(147.57)"><tspan x="0" y="0"> </tspan></text>
  <text class="cls-1" transform="translate(188.77 226.71) rotate(148.5)"><tspan x="0" y="0">P</tspan></text>
  <text class="cls-1" transform="translate(186.79 227.93) rotate(149.69)"><tspan x="0" y="0">o</tspan></text>
  <text class="cls-1" transform="translate(184.41 229.32) rotate(150.76)"><tspan x="0" y="0">r</tspan></text>
  <text class="cls-1" transform="translate(182.78 230.23) rotate(151.55)"><tspan x="0" y="0">t</tspan></text>
  <text class="cls-1" transform="translate(181.67 230.83) rotate(152.27)"><tspan x="0" y="0">r</tspan></text>
  <text class="cls-1" transform="translate(180.19 231.61) rotate(153.32)"><tspan x="0" y="0">a</tspan></text>
  <text class="cls-1" transform="translate(177.72 232.85) rotate(154.59)"><tspan x="0" y="0">y</tspan></text>
  <text class="cls-1" transform="translate(175.54 233.89) rotate(155.82)"><tspan x="0" y="0">a</tspan></text>
  <text class="cls-1" transform="translate(173.04 235.01) rotate(156.74)"><tspan x="0" y="0">l</tspan></text>
  <text class="cls-1" transform="translate(171.99 235.46) rotate(157.36)"><tspan x="0" y="0">,</tspan></text>
  <text class="cls-1" transform="translate(170.7 236) rotate(158.03)"><tspan x="0" y="0"> </tspan></text>
  <text class="cls-1" transform="translate(169.38 236.54) rotate(159.04)"><tspan x="0" y="0">R</tspan></text>
  <text class="cls-1" transform="translate(166.89 237.49) rotate(160.27)"><tspan x="0" y="0">e</tspan></text>
  <text class="cls-1" transform="translate(164.51 238.35) rotate(161.53)"><tspan x="0" y="0">p</tspan></text>
  <text class="cls-1" transform="translate(161.91 239.21) rotate(162.59)"><tspan x="0" y="0">r</tspan></text>
  <text class="cls-1" transform="translate(160.29 239.72) rotate(163.59)"><tspan x="0" y="0">e</tspan></text>
  <text class="cls-1" transform="translate(157.87 240.43) rotate(164.63)"><tspan x="0" y="0">s</tspan></text>
  <text class="cls-1" transform="translate(156.08 240.92) rotate(165.67)"><tspan x="0" y="0">e</tspan></text>
  <text class="cls-1" transform="translate(153.64 241.55) rotate(166.86)"><tspan x="0" y="0">n</tspan></text>
  <text class="cls-1" transform="translate(151.2 242.11) rotate(167.74)"><tspan x="0" y="0">t</tspan></text>
  <text class="cls-1" transform="translate(149.93 242.4) rotate(168.71)"><tspan x="0" y="0">a</tspan></text>
  <text class="cls-1" transform="translate(147.25 242.92) rotate(169.07)"><tspan x="0" y="0">t</tspan></text>
  <text class="cls-1" transform="translate(146.02 243.16) rotate(170.93)"><tspan x="0" y="0">i</tspan></text>
  <text class="cls-1" transform="translate(144.89 243.35) rotate(171.11)"><tspan x="0" y="0">o</tspan></text>
  <text class="cls-1" transform="translate(142.2 243.77) rotate(172.34)"><tspan x="0" y="0">n</tspan></text>
  <text class="cls-1" transform="translate(139.7 244.1) rotate(173.26)"><tspan x="0" y="0">,</tspan></text>
  <text class="cls-1" transform="translate(138.3 244.27) rotate(173.93)"><tspan x="0" y="0"> </tspan></text>
  <text class="cls-1" transform="translate(136.91 244.42) rotate(174.85)"><tspan x="0" y="0">P</tspan></text>
  <text class="cls-1" transform="translate(134.44 244.64) rotate(175.71)"><tspan x="0" y="0">i</tspan></text>
  <text class="cls-1" transform="translate(133.3 244.73) rotate(176.5)"><tspan x="0" y="0">c</tspan></text>
  <text class="cls-1" transform="translate(131.13 244.86) rotate(177.31)"><tspan x="0" y="0">t</tspan></text>
  <text class="cls-1" transform="translate(129.9 244.92) rotate(178.2)"><tspan x="0" y="0">u</tspan></text>
  <text class="cls-1" transform="translate(127.41 245) rotate(179.21)"><tspan x="0" y="0">r</tspan></text>
  <text class="cls-1" transform="translate(125.73 245.02) rotate(-179.79)"><tspan x="0" y="0">e</tspan></text>
  <text class="cls-1" transform="translate(123.18 245.01) rotate(-178.84)"><tspan x="0" y="0">,</tspan></text>
  <text class="cls-1" transform="translate(121.78 244.98) rotate(-178.17)"><tspan x="0" y="0"> </tspan></text>
  <text class="cls-1" transform="translate(120.38 244.95) rotate(-177.04)"><tspan x="0" y="0">D</tspan></text>
  <text class="cls-1" transform="translate(117.06 244.76) rotate(-175.96)"><tspan x="0" y="0">i</tspan></text>
  <text class="cls-1" transform="translate(115.94 244.69) rotate(-175.04)"><tspan x="0" y="0">a</tspan></text>
  <text class="cls-1" transform="translate(113.2 244.45) rotate(-173.71)"><tspan x="0" y="0">g</tspan></text>
  <text class="cls-1" transform="translate(110.48 244.15) rotate(-172.64)"><tspan x="0" y="0">r</tspan></text>
  <text class="cls-1" transform="translate(108.82 243.94) rotate(-171.59)"><tspan x="0" y="0">a</tspan></text>
  <text class="cls-1" transform="translate(106.1 243.54) rotate(-170.06)"><tspan x="0" y="0">m</tspan></text>
  <text class="cls-1" transform="translate(102.55 242.91) rotate(-168.85)"><tspan x="0" y="0">,</tspan></text>
  <text class="cls-1" transform="translate(101.16 242.63) rotate(-168.17)"><tspan x="0" y="0"> </tspan></text>
  <text class="cls-1" transform="translate(99.78 242.35) rotate(-167.17)"><tspan x="0" y="0">R</tspan></text>
  <text class="cls-1" transform="translate(97.1 241.74) rotate(-166.24)"><tspan x="0" y="0">i</tspan></text>
  <text class="cls-1" transform="translate(96 241.47) rotate(-165.36)"><tspan x="0" y="0">n</tspan></text>
  <text class="cls-1" transform="translate(93.55 240.83) rotate(-164.1)"><tspan x="0" y="0">d</tspan></text>
  <text class="cls-1" transform="translate(90.94 240.09) rotate(-163.12)"><tspan x="0" y="0">,</tspan></text>
  <text class="cls-1" transform="translate(89.57 239.67) rotate(-162.43)"><tspan x="0" y="0"> </tspan></text>
  <text class="cls-1" transform="translate(88.23 239.25) rotate(-161.44)"><tspan x="0" y="0">B</tspan></text>
  <text class="cls-1" transform="translate(85.68 238.39) rotate(-160.21)"><tspan x="0" y="0">u</tspan></text>
  <text class="cls-1" transform="translate(83.34 237.55) rotate(-159.02)"><tspan x="0" y="0">n</tspan></text>
  <text class="cls-1" transform="translate(81 236.66) rotate(-157.77)"><tspan x="0" y="0">d</tspan></text>
  <text class="cls-1" transform="translate(78.46 235.61) rotate(-156.84)"><tspan x="0" y="0">l</tspan></text>
  <text class="cls-1" transform="translate(77.42 235.17) rotate(-155.97)"><tspan x="0" y="0">e</tspan></text>
  <text class="cls-1" transform="translate(75.11 234.14) rotate(-155.03)"><tspan x="0" y="0">,</tspan></text>
  <text class="cls-1" transform="translate(73.82 233.54) rotate(-154.36)"><tspan x="0" y="0"> </tspan></text>
  <text class="cls-1" transform="translate(72.55 232.93) rotate(-153.4)"><tspan x="0" y="0">E</tspan></text>
  <text class="cls-1" transform="translate(70.25 231.78) rotate(-152.2)"><tspan x="0" y="0">n</tspan></text>
  <text class="cls-1" transform="translate(68.04 230.61) rotate(-151.09)"><tspan x="0" y="0">c</tspan></text>
  <text class="cls-1" transform="translate(66.11 229.55) rotate(-149.91)"><tspan x="0" y="0">a</tspan></text>
  <text class="cls-1" transform="translate(63.75 228.18) rotate(-148.82)"><tspan x="0" y="0">s</tspan></text>
  <text class="cls-1" transform="translate(62.17 227.23) rotate(-147.79)"><tspan x="0" y="0">e</tspan></text>
  <text class="cls-1" transform="translate(60.02 225.88) rotate(-146.33)"><tspan x="0" y="0">m</tspan></text>
  <text class="cls-1" transform="translate(57.02 223.87) rotate(-144.87)"><tspan x="0" y="0">e</tspan></text>
  <text class="cls-1" transform="translate(54.95 222.42) rotate(-143.68)"><tspan x="0" y="0">n</tspan></text>
  <text class="cls-1" transform="translate(52.92 220.92) rotate(-142.78)"><tspan x="0" y="0">t</tspan></text>
  <text class="cls-1" transform="translate(51.93 220.17) rotate(-142.15)"><tspan x="0" y="0">,</tspan></text>
  <text class="cls-1" transform="translate(50.81 219.3) rotate(-141.48)"><tspan x="0" y="0"> </tspan></text>
  <text class="cls-1" transform="translate(49.71 218.43) rotate(-140.52)"><tspan x="0" y="0">S</tspan></text>
  <text class="cls-1" transform="translate(47.65 216.74) rotate(-139.04)"><tspan x="0" y="0">w</tspan></text>
  <text class="cls-1" transform="translate(45.04 214.47) rotate(-137.59)"><tspan x="0" y="0">a</tspan></text>
  <text class="cls-1" transform="translate(43.01 212.61) rotate(-136.28)"><tspan x="0" y="0">d</tspan></text>
  <text class="cls-1" transform="translate(41.04 210.73) rotate(-134.98)"><tspan x="0" y="0">d</tspan></text>
  <text class="cls-1" transform="translate(39.1 208.78) rotate(-134.05)"><tspan x="0" y="0">l</tspan></text>
  <text class="cls-1" transform="translate(38.31 207.97) rotate(-133.18)"><tspan x="0" y="0">e</tspan></text>
  <text class="cls-1" transform="translate(36.58 206.13) rotate(-132.25)"><tspan x="0" y="0">,</tspan></text>
  <text class="cls-1" transform="translate(35.63 205.07) rotate(-131.57)"><tspan x="0" y="0"> </tspan></text>
  <text class="cls-1" transform="translate(34.69 204.02) rotate(-130.46)"><tspan x="0" y="0">C</tspan></text>
  <text class="cls-1" transform="translate(32.63 201.61) rotate(-129.06)"><tspan x="0" y="0">a</tspan></text>
  <text class="cls-1" transform="translate(30.88 199.46) rotate(-127.73)"><tspan x="0" y="0">g</tspan></text>
  <text class="cls-1" transform="translate(29.22 197.31) rotate(-126.48)"><tspan x="0" y="0">e</tspan></text>
  <text class="cls-1" transform="translate(27.71 195.26) rotate(-125.53)"><tspan x="0" y="0">,</tspan></text>
  <text class="cls-1" transform="translate(26.89 194.11) rotate(-124.86)"><tspan x="0" y="0"> </tspan></text>
  <text class="cls-1" transform="translate(26.08 192.95) rotate(-123.89)"><tspan x="0" y="0">E</tspan></text>
  <text class="cls-1" transform="translate(24.65 190.82) rotate(-122.68)"><tspan x="0" y="0">n</tspan></text>
  <text class="cls-1" transform="translate(23.33 188.77) rotate(-121.56)"><tspan x="0" y="0">v</tspan></text>
  <text class="cls-1" transform="translate(22.17 186.88) rotate(-120.43)"><tspan x="0" y="0">e</tspan></text>
  <text class="cls-1" transform="translate(20.89 184.69) rotate(-119.55)"><tspan x="0" y="0">l</tspan></text>
  <text class="cls-1" transform="translate(20.33 183.72) rotate(-118.62)"><tspan x="0" y="0">o</tspan></text>
  <text class="cls-1" transform="translate(19.01 181.31) rotate(-117.3)"><tspan x="0" y="0">p</tspan></text>
  <text class="cls-1" transform="translate(17.76 178.88) rotate(-116.04)"><tspan x="0" y="0">e</tspan></text>
  <text class="cls-1" transform="translate(16.64 176.58) rotate(-115.08)"><tspan x="0" y="0">,</tspan></text>
  <text class="cls-1" transform="translate(16.05 175.32) rotate(-114.41)"><tspan x="0" y="0"> </tspan></text>
  <text class="cls-1" transform="translate(15.46 174.03) rotate(-113.47)"><tspan x="0" y="0">P</tspan></text>
  <text class="cls-1" transform="translate(14.53 171.89) rotate(-112.28)"><tspan x="0" y="0">a</tspan></text>
  <text class="cls-1" transform="translate(13.49 169.34) rotate(-111.09)"><tspan x="0" y="0">c</tspan></text>
  <text class="cls-1" transform="translate(12.66 167.2) rotate(-109.97)"><tspan x="0" y="0">k</tspan></text>
  <text class="cls-1" transform="translate(11.92 165.15) rotate(-108.81)"><tspan x="0" y="0">a</tspan></text>
  <text class="cls-1" transform="translate(11.02 162.53) rotate(-107.49)"><tspan x="0" y="0">g</tspan></text>
  <text class="cls-1" transform="translate(10.21 159.95) rotate(-106.25)"><tspan x="0" y="0">e</tspan></text>
  <text class="cls-1" transform="translate(9.5 157.49) rotate(-105.3)"><tspan x="0" y="0">,</tspan></text>
  <text class="cls-1" transform="translate(9.13 156.16) rotate(-104.65)"><tspan x="0" y="0"> </tspan></text>
  <text class="cls-1" transform="translate(8.77 154.79) rotate(-103.7)"><tspan x="0" y="0">E</tspan></text>
  <text class="cls-1" transform="translate(8.16 152.28) rotate(-102.49)"><tspan x="0" y="0">n</tspan></text>
  <text class="cls-1" transform="translate(7.62 149.82) rotate(-101.38)"><tspan x="0" y="0">c</tspan></text>
  <text class="cls-1" transform="translate(7.19 147.69) rotate(-100.93)"><tspan x="0" y="0">l</tspan></text>
  <text class="cls-1" transform="translate(6.96 146.58) rotate(-99.07)"><tspan x="0" y="0">o</tspan></text>
  <text class="cls-1" transform="translate(6.52 143.87) rotate(-98.63)"><tspan x="0" y="0">s</tspan></text>
  <text class="cls-1" transform="translate(6.23 142.02) rotate(-97.6)"><tspan x="0" y="0">u</tspan></text>
  <text class="cls-1" transform="translate(5.91 139.56) rotate(-96.61)"><tspan x="0" y="0">r</tspan></text>
  <text class="cls-1" transform="translate(5.71 137.91) rotate(-95.63)"><tspan x="0" y="0">e</tspan></text>
  <text class="cls-1" transform="translate(5.47 135.38) rotate(-94.69)"><tspan x="0" y="0">,</tspan></text>
  <text class="cls-1" transform="translate(5.35 133.98) rotate(-94.02)"><tspan x="0" y="0"> </tspan></text>
  <text class="cls-2" transform="translate(5.25 132.59) rotate(-93.03)"><tspan x="0" y="0">D</tspan></text>
  <text class="cls-2" transform="translate(5.1 129.8) rotate(-91.76)"><tspan x="0" y="0">e</tspan></text>
  <text class="cls-2" transform="translate(5.03 127.32) rotate(-90.86)"><tspan x="0" y="0">l</tspan></text>
  <text class="cls-2" transform="translate(5.01 126.01) rotate(-90.23)"><tspan x="0" y="0">i</tspan></text>
  <text class="cls-2" transform="translate(5 124.7) rotate(-89.31)"><tspan x="0" y="0">n</tspan></text>
  <text class="cls-2" transform="translate(5.03 122.15) rotate(-88.1)"><tspan x="0" y="0">e</tspan></text>
  <text class="cls-2" transform="translate(5.11 119.68) rotate(-86.89)"><tspan x="0" y="0">a</tspan></text>
  <text class="cls-2" transform="translate(5.26 117.1) rotate(-85.89)"><tspan x="0" y="0">t</tspan></text>
  <text class="cls-2" transform="translate(5.37 115.57) rotate(-85.21)"><tspan x="0" y="0">i</tspan></text>
  <text class="cls-2" transform="translate(5.47 114.26) rotate(-84.29)"><tspan x="0" y="0">o</tspan></text>
  <text class="cls-2" transform="translate(5.72 111.76) rotate(-83.08)"><tspan x="0" y="0">n</tspan></text>
  <text class="cls-2" transform="translate(6.04 109.21) rotate(-82.12)"><tspan x="0" y="0"> </tspan></text>
  <text class="cls-2" transform="translate(6.22 107.86) rotate(-81.13)"><tspan x="0" y="0">D</tspan></text>
  <text class="cls-2" transform="translate(6.65 105.13) rotate(-79.87)"><tspan x="0" y="0">e</tspan></text>
  <text class="cls-2" transform="translate(7.09 102.68) rotate(-78.95)"><tspan x="0" y="0">l</tspan></text>
  <text class="cls-2" transform="translate(7.34 101.39) rotate(-78.32)"><tspan x="0" y="0">i</tspan></text>
  <text class="cls-2" transform="translate(7.6 100.12) rotate(-77.4)"><tspan x="0" y="0">n</tspan></text>
  <text class="cls-2" transform="translate(8.15 97.64) rotate(-76.2)"><tspan x="0" y="0">e</tspan></text>
  <text class="cls-2" transform="translate(8.75 95.2) rotate(-74.97)"><tspan x="0" y="0">a</tspan></text>
  <text class="cls-2" transform="translate(9.42 92.74) rotate(-73.99)"><tspan x="0" y="0">t</tspan></text>
  <text class="cls-2" transform="translate(9.85 91.24) rotate(-73.3)"><tspan x="0" y="0">i</tspan></text>
  <text class="cls-2" transform="translate(10.21 89.99) rotate(-72.39)"><tspan x="0" y="0">o</tspan></text>
  <text class="cls-2" transform="translate(10.97 87.6) rotate(-71.18)"><tspan x="0" y="0">n</tspan></text>
  <text class="cls-2" transform="translate(11.8 85.19) rotate(-70.24)"><tspan x="0" y="0"> </tspan></text>
</svg>