<?xml version="1.0" encoding="UTF-8"?>
<svg id="Layer_27" data-name="Layer 27" xmlns="http://www.w3.org/2000/svg" viewBox="0 0 250 250">
  <defs>
    <style>
      .cls-1 {
        fill: #231f20;
        font-family: Futura-Medium, Futura;
        font-size: 4.5px;
        font-weight: 500;
      }
    </style>
  </defs>
  <text class="cls-1" transform="translate(42.82 42.79) rotate(-43.85)"><tspan x="0" y="0">W</tspan></text>
  <text class="cls-1" transform="translate(46.08 39.68) rotate(-42.22)"><tspan x="0" y="0">e</tspan></text>
  <text class="cls-1" transform="translate(47.91 38.02) rotate(-41.28)"><tspan x="0" y="0"> </tspan></text>
  <text class="cls-1" transform="translate(48.95 37.11) rotate(-40.42)"><tspan x="0" y="0">c</tspan></text>
  <text class="cls-1" transform="translate(50.56 35.73) rotate(-39.25)"><tspan x="0" y="0">a</tspan></text>
  <text class="cls-1" transform="translate(52.65 34.03) rotate(-37.98)"><tspan x="0" y="0">n</tspan></text>
  <text class="cls-1" transform="translate(54.57 32.53) rotate(-37.05)"><tspan x="0" y="0"> </tspan></text>
  <text class="cls-1" transform="translate(55.67 31.7) rotate(-36.04)"><tspan x="0" y="0">a</tspan></text>
  <text class="cls-1" transform="translate(57.85 30.12) rotate(-35.07)"><tspan x="0" y="0">t</tspan></text>
  <text class="cls-1" transform="translate(58.85 29.41) rotate(-34.47)"><tspan x="0" y="0">t</tspan></text>
  <text class="cls-1" transform="translate(59.88 28.7) rotate(-33.54)"><tspan x="0" y="0">e</tspan></text>
  <text class="cls-1" transform="translate(61.93 27.33) rotate(-32.05)"><tspan x="0" y="0">m</tspan></text>
  <text class="cls-1" transform="translate(64.97 25.44) rotate(-30.48)"><tspan x="0" y="0">p</tspan></text>
  <text class="cls-1" transform="translate(67.33 24.06) rotate(-29.49)"><tspan x="0" y="0">t</tspan></text>
  <text class="cls-1" transform="translate(68.39 23.46) rotate(-28.85)"><tspan x="0" y="0"> </tspan></text>
  <text class="cls-1" transform="translate(69.6 22.79) rotate(-28.2)"><tspan x="0" y="0">t</tspan></text>
  <text class="cls-1" transform="translate(70.7 22.19) rotate(-27.21)"><tspan x="0" y="0">o</tspan></text>
  <text class="cls-1" transform="translate(73.09 20.97) rotate(-26.21)"><tspan x="0" y="0"> </tspan></text>
  <text class="cls-1" transform="translate(74.32 20.36) rotate(-25.2)"><tspan x="0" y="0">g</tspan></text>
  <text class="cls-1" transform="translate(76.74 19.22) rotate(-23.92)"><tspan x="0" y="0">e</tspan></text>
  <text class="cls-1" transform="translate(79.04 18.21) rotate(-22.99)"><tspan x="0" y="0">t</tspan></text>
  <text class="cls-1" transform="translate(80.17 17.73) rotate(-22.34)"><tspan x="0" y="0"> </tspan></text>
  <text class="cls-1" transform="translate(81.45 17.2) rotate(-21.33)"><tspan x="0" y="0">a</tspan></text>
  <text class="cls-1" transform="translate(83.95 16.22) rotate(-20.32)"><tspan x="0" y="0"> </tspan></text>
  <text class="cls-1" transform="translate(85.24 15.75) rotate(-19.66)"><tspan x="0" y="0">f</tspan></text>
  <text class="cls-1" transform="translate(86.47 15.3) rotate(-18.73)"><tspan x="0" y="0">u</tspan></text>
  <text class="cls-1" transform="translate(88.8 14.52) rotate(-17.85)"><tspan x="0" y="0">l</tspan></text>
  <text class="cls-1" transform="translate(89.86 14.18) rotate(-17.29)"><tspan x="0" y="0">l</tspan></text>
  <text class="cls-1" transform="translate(90.91 13.85) rotate(-16.41)"><tspan x="0" y="0">e</tspan></text>
  <text class="cls-1" transform="translate(93.3 13.15) rotate(-15.38)"><tspan x="0" y="0">r</tspan></text>
  <text class="cls-1" transform="translate(94.9 12.71) rotate(-14.64)"><tspan x="0" y="0"> </tspan></text>
  <text class="cls-1" transform="translate(96.23 12.36) rotate(-13.85)"><tspan x="0" y="0">s</tspan></text>
  <text class="cls-1" transform="translate(98 11.92) rotate(-12.79)"><tspan x="0" y="0">e</tspan></text>
  <text class="cls-1" transform="translate(100.4 11.37) rotate(-11.58)"><tspan x="0" y="0">n</tspan></text>
  <text class="cls-1" transform="translate(102.81 10.88) rotate(-10.53)"><tspan x="0" y="0">s</tspan></text>
  <text class="cls-1" transform="translate(104.59 10.55) rotate(-9.48)"><tspan x="0" y="0">e</tspan></text>
  <text class="cls-1" transform="translate(107.03 10.15) rotate(-8.53)"><tspan x="0" y="0"> </tspan></text>
  <text class="cls-1" transform="translate(108.39 9.94) rotate(-7.53)"><tspan x="0" y="0">o</tspan></text>
  <text class="cls-1" transform="translate(111.06 9.59) rotate(-6.55)"><tspan x="0" y="0">f</tspan></text>
  <text class="cls-1" transform="translate(112.37 9.44) rotate(-5.89)"><tspan x="0" y="0"> </tspan></text>
  <text class="cls-1" transform="translate(113.73 9.3) rotate(-5.26)"><tspan x="0" y="0">t</tspan></text>
  <text class="cls-1" transform="translate(115.05 9.17) rotate(-4.3)"><tspan x="0" y="0">h</tspan></text>
  <text class="cls-1" transform="translate(117.49 8.99) rotate(-3.1)"><tspan x="0" y="0">e</tspan></text>
  <text class="cls-1" transform="translate(119.96 8.86) rotate(-2.16)"><tspan x="0" y="0"> </tspan></text>
  <text class="cls-1" transform="translate(121.34 8.8) rotate(-1.22)"><tspan x="0" y="0">n</tspan></text>
  <text class="cls-1" transform="translate(123.79 8.75) rotate(-.01)"><tspan x="0" y="0">e</tspan></text>
  <text class="cls-1" transform="translate(126.25 8.75) rotate(1.25)"><tspan x="0" y="0">b</tspan></text>
  <text class="cls-1" transform="translate(128.93 8.81) rotate(2.5)"><tspan x="0" y="0">u</tspan></text>
  <text class="cls-1" transform="translate(131.38 8.92) rotate(3.37)"><tspan x="0" y="0">l</tspan></text>
  <text class="cls-1" transform="translate(132.48 8.98) rotate(4.3)"><tspan x="0" y="0">o</tspan></text>
  <text class="cls-1" transform="translate(135.15 9.18) rotate(5.55)"><tspan x="0" y="0">u</tspan></text>
  <text class="cls-1" transform="translate(137.59 9.42) rotate(6.6)"><tspan x="0" y="0">s</tspan></text>
  <text class="cls-1" transform="translate(139.39 9.63) rotate(7.38)"><tspan x="0" y="0"> </tspan></text>
  <text class="cls-1" transform="translate(140.76 9.8) rotate(8.33)"><tspan x="0" y="0">n</tspan></text>
  <text class="cls-1" transform="translate(143.17 10.15) rotate(9.58)"><tspan x="0" y="0">a</tspan></text>
  <text class="cls-1" transform="translate(145.83 10.61) rotate(10.55)"><tspan x="0" y="0">t</tspan></text>
  <text class="cls-1" transform="translate(147.02 10.82) rotate(11.44)"><tspan x="0" y="0">u</tspan></text>
  <text class="cls-1" transform="translate(149.41 11.31) rotate(12.45)"><tspan x="0" y="0">r</tspan></text>
  <text class="cls-1" transform="translate(151.01 11.66) rotate(13.46)"><tspan x="0" y="0">e</tspan></text>
  <text class="cls-1" transform="translate(153.42 12.24) rotate(14.41)"><tspan x="0" y="0"> </tspan></text>
  <text class="cls-1" transform="translate(154.76 12.58) rotate(15.41)"><tspan x="0" y="0">o</tspan></text>
  <text class="cls-1" transform="translate(157.34 13.3) rotate(16.4)"><tspan x="0" y="0">f</tspan></text>
  <text class="cls-1" transform="translate(158.62 13.68) rotate(17.07)"><tspan x="0" y="0"> </tspan></text>
  <text class="cls-1" transform="translate(159.94 14.08) rotate(17.71)"><tspan x="0" y="0">t</tspan></text>
  <text class="cls-1" transform="translate(161.18 14.47) rotate(18.66)"><tspan x="0" y="0">h</tspan></text>
  <text class="cls-1" transform="translate(163.5 15.26) rotate(19.88)"><tspan x="0" y="0">e</tspan></text>
  <text class="cls-1" transform="translate(165.85 16.11) rotate(20.85)"><tspan x="0" y="0"> </tspan></text>
  <text class="cls-1" transform="translate(167.13 16.59) rotate(21.71)"><tspan x="0" y="0">c</tspan></text>
  <text class="cls-1" transform="translate(169.11 17.38) rotate(22.91)"><tspan x="0" y="0">a</tspan></text>
  <text class="cls-1" transform="translate(171.58 18.43) rotate(23.88)"><tspan x="0" y="0">t</tspan></text>
  <text class="cls-1" transform="translate(172.71 18.92) rotate(24.8)"><tspan x="0" y="0">e</tspan></text>
  <text class="cls-1" transform="translate(174.96 19.96) rotate(26.08)"><tspan x="0" y="0">g</tspan></text>
  <text class="cls-1" transform="translate(177.36 21.14) rotate(27.41)"><tspan x="0" y="0">o</tspan></text>
  <text class="cls-1" transform="translate(179.76 22.38) rotate(28.5)"><tspan x="0" y="0">r</tspan></text>
  <text class="cls-1" transform="translate(181.39 23.27) rotate(29.61)"><tspan x="0" y="0">y</tspan></text>
  <text class="cls-1" transform="translate(183.51 24.48) rotate(30.56)"><tspan x="0" y="0"> </tspan></text>
  <text class="cls-1" transform="translate(184.71 25.18) rotate(31.58)"><tspan x="0" y="0">a</tspan></text>
  <text class="cls-1" transform="translate(186.98 26.58) rotate(32.9)"><tspan x="0" y="0">b</tspan></text>
  <text class="cls-1" transform="translate(189.24 28.04) rotate(34.23)"><tspan x="0" y="0">o</tspan></text>
  <text class="cls-1" transform="translate(191.39 29.5) rotate(35.41)"><tspan x="0" y="0">v</tspan></text>
  <text class="cls-1" transform="translate(193.16 30.76) rotate(36.54)"><tspan x="0" y="0">e</tspan></text>
  <text class="cls-1" transform="translate(195.14 32.23) rotate(37.48)"><tspan x="0" y="0"> </tspan></text>
  <text class="cls-1" transform="translate(196.22 33.05) rotate(38.48)"><tspan x="0" y="0">b</tspan></text>
  <text class="cls-1" transform="translate(198.27 34.68) rotate(39.7)"><tspan x="0" y="0">y</tspan></text>
  <text class="cls-1" transform="translate(200.13 36.23) rotate(40.63)"><tspan x="0" y="0"> </tspan></text>
  <text class="cls-1" transform="translate(201.18 37.13) rotate(41.62)"><tspan x="0" y="0">a</tspan></text>
  <text class="cls-1" transform="translate(203.18 38.9) rotate(42.87)"><tspan x="0" y="0">n</tspan></text>
  <text class="cls-1" transform="translate(204.98 40.57) rotate(44.07)"><tspan x="0" y="0">a</tspan></text>
  <text class="cls-1" transform="translate(206.91 42.43) rotate(45.93)"><tspan x="0" y="0">a</tspan></text>
  <text class="cls-1" transform="translate(208.78 44.35) rotate(46.33)"><tspan x="0" y="0">l</tspan></text>
  <text class="cls-1" transform="translate(209.57 45.17) rotate(47.2)"><tspan x="0" y="0">y</tspan></text>
  <text class="cls-1" transform="translate(211.23 46.96) rotate(48.39)"><tspan x="0" y="0">z</tspan></text>
  <text class="cls-1" transform="translate(212.85 48.8) rotate(49.26)"><tspan x="0" y="0">i</tspan></text>
  <text class="cls-1" transform="translate(213.56 49.61) rotate(50.12)"><tspan x="0" y="0">n</tspan></text>
  <text class="cls-1" transform="translate(215.14 51.5) rotate(51.39)"><tspan x="0" y="0">g</tspan></text>
  <text class="cls-1" transform="translate(216.81 53.59) rotate(52.38)"><tspan x="0" y="0"> </tspan></text>
  <text class="cls-1" transform="translate(217.65 54.68) rotate(53.38)"><tspan x="0" y="0">a</tspan></text>
  <text class="cls-1" transform="translate(219.25 56.84) rotate(54.39)"><tspan x="0" y="0"> </tspan></text>
  <text class="cls-1" transform="translate(220.06 57.97) rotate(55.06)"><tspan x="0" y="0">f</tspan></text>
  <text class="cls-1" transform="translate(220.85 59.1) rotate(56.03)"><tspan x="0" y="0">e</tspan></text>
  <text class="cls-1" transform="translate(222.2 61.08) rotate(57.46)"><tspan x="0" y="0">w</tspan></text>
  <text class="cls-1" transform="translate(224.06 64.02) rotate(58.67)"><tspan x="0" y="0"> </tspan></text>
  <text class="cls-1" transform="translate(224.78 65.2) rotate(59.63)"><tspan x="0" y="0">e</tspan></text>
  <text class="cls-1" transform="translate(225.98 67.24) rotate(60.81)"><tspan x="0" y="0">x</tspan></text>
  <text class="cls-1" transform="translate(227.16 69.35) rotate(62.06)"><tspan x="0" y="0">a</tspan></text>
  <text class="cls-1" transform="translate(228.43 71.73) rotate(63.61)"><tspan x="0" y="0">m</tspan></text>
  <text class="cls-1" transform="translate(230.02 74.94) rotate(65.18)"><tspan x="0" y="0">p</tspan></text>
  <text class="cls-1" transform="translate(231.14 77.37) rotate(66.11)"><tspan x="0" y="0">l</tspan></text>
  <text class="cls-1" transform="translate(231.59 78.39) rotate(67.01)"><tspan x="0" y="0">e</tspan></text>
  <text class="cls-1" transform="translate(232.56 80.67) rotate(68.07)"><tspan x="0" y="0">s</tspan></text>
  <text class="cls-1" transform="translate(233.23 82.35) rotate(68.86)"><tspan x="0" y="0">.</tspan></text>
  <text class="cls-1" transform="translate(233.73 83.65) rotate(69.55)"><tspan x="0" y="0"> </tspan></text>
  <text class="cls-1" transform="translate(234.22 84.94) rotate(70.71)"><tspan x="0" y="0">H</tspan></text>
  <text class="cls-1" transform="translate(235.29 88.01) rotate(72.17)"><tspan x="0" y="0">o</tspan></text>
  <text class="cls-1" transform="translate(236.1 90.48) rotate(73.64)"><tspan x="0" y="0">w</tspan></text>
  <text class="cls-1" transform="translate(237.07 93.83) rotate(74.85)"><tspan x="0" y="0"> </tspan></text>
  <text class="cls-1" transform="translate(237.43 95.16) rotate(75.85)"><tspan x="0" y="0">d</tspan></text>
  <text class="cls-1" transform="translate(238.09 97.75) rotate(77.17)"><tspan x="0" y="0">o</tspan></text>
  <text class="cls-1" transform="translate(238.68 100.38) rotate(78.17)"><tspan x="0" y="0"> </tspan></text>
  <text class="cls-1" transform="translate(238.96 101.71) rotate(78.83)"><tspan x="0" y="0">f</tspan></text>
  <text class="cls-1" transform="translate(239.22 103.02) rotate(79.57)"><tspan x="0" y="0">r</tspan></text>
  <text class="cls-1" transform="translate(239.53 104.73) rotate(80.29)"><tspan x="0" y="0">i</tspan></text>
  <text class="cls-1" transform="translate(239.73 105.84) rotate(81.17)"><tspan x="0" y="0">n</tspan></text>
  <text class="cls-1" transform="translate(240.1 108.25) rotate(82.43)"><tspan x="0" y="0">g</tspan></text>
  <text class="cls-1" transform="translate(240.46 110.9) rotate(83.69)"><tspan x="0" y="0">e</tspan></text>
  <text class="cls-1" transform="translate(240.72 113.36) rotate(84.63)"><tspan x="0" y="0"> </tspan></text>
  <text class="cls-1" transform="translate(240.85 114.73) rotate(85.24)"><tspan x="0" y="0">i</tspan></text>
  <text class="cls-1" transform="translate(240.95 115.84) rotate(86.12)"><tspan x="0" y="0">n</tspan></text>
  <text class="cls-1" transform="translate(241.11 118.29) rotate(87.16)"><tspan x="0" y="0">s</tspan></text>
  <text class="cls-1" transform="translate(241.2 120.11) rotate(87.91)"><tspan x="0" y="0">t</tspan></text>
  <text class="cls-1" transform="translate(241.25 121.36) rotate(88.88)"><tspan x="0" y="0">a</tspan></text>
  <text class="cls-1" transform="translate(241.3 124.02) rotate(90.13)"><tspan x="0" y="0">n</tspan></text>
  <text class="cls-1" transform="translate(241.3 126.49) rotate(91.26)"><tspan x="0" y="0">c</tspan></text>
  <text class="cls-1" transform="translate(241.25 128.63) rotate(92.39)"><tspan x="0" y="0">e</tspan></text>
  <text class="cls-1" transform="translate(241.14 131.1) rotate(93.44)"><tspan x="0" y="0">s</tspan></text>
  <text class="cls-1" transform="translate(241.03 132.9) rotate(94.22)"><tspan x="0" y="0"> </tspan></text>
  <text class="cls-1" transform="translate(240.94 134.27) rotate(95.21)"><tspan x="0" y="0">o</tspan></text>
  <text class="cls-1" transform="translate(240.69 136.95) rotate(96.2)"><tspan x="0" y="0">f</tspan></text>
  <text class="cls-1" transform="translate(240.55 138.27) rotate(96.86)"><tspan x="0" y="0"> </tspan></text>
  <text class="cls-1" transform="translate(240.39 139.64) rotate(97.86)"><tspan x="0" y="0">d</tspan></text>
  <text class="cls-1" transform="translate(240.02 142.29) rotate(99.12)"><tspan x="0" y="0">e</tspan></text>
  <text class="cls-1" transform="translate(239.62 144.73) rotate(100)"><tspan x="0" y="0">l</tspan></text>
  <text class="cls-1" transform="translate(239.43 145.83) rotate(100.55)"><tspan x="0" y="0">i</tspan></text>
  <text class="cls-1" transform="translate(239.23 146.93) rotate(101.43)"><tspan x="0" y="0">n</tspan></text>
  <text class="cls-1" transform="translate(238.75 149.32) rotate(102.64)"><tspan x="0" y="0">e</tspan></text>
  <text class="cls-1" transform="translate(238.2 151.75) rotate(103.91)"><tspan x="0" y="0">a</tspan></text>
  <text class="cls-1" transform="translate(237.56 154.33) rotate(104.86)"><tspan x="0" y="0">t</tspan></text>
  <text class="cls-1" transform="translate(237.24 155.53) rotate(105.45)"><tspan x="0" y="0">i</tspan></text>
  <text class="cls-1" transform="translate(236.95 156.59) rotate(106.27)"><tspan x="0" y="0">v</tspan></text>
  <text class="cls-1" transform="translate(236.34 158.67) rotate(107.4)"><tspan x="0" y="0">e</tspan></text>
  <text class="cls-1" transform="translate(235.6 161.04) rotate(108.36)"><tspan x="0" y="0"> </tspan></text>
  <text class="cls-1" transform="translate(235.16 162.35) rotate(109)"><tspan x="0" y="0">t</tspan></text>
  <text class="cls-1" transform="translate(234.76 163.53) rotate(109.93)"><tspan x="0" y="0">e</tspan></text>
  <text class="cls-1" transform="translate(233.91 165.86) rotate(110.96)"><tspan x="0" y="0">r</tspan></text>
  <text class="cls-1" transform="translate(233.3 167.48) rotate(112.28)"><tspan x="0" y="0">m</tspan></text>
  <text class="cls-1" transform="translate(231.95 170.76) rotate(113.61)"><tspan x="0" y="0">s</tspan></text>
  <text class="cls-1" transform="translate(231.22 172.43) rotate(114.4)"><tspan x="0" y="0"> </tspan></text>
  <text class="cls-1" transform="translate(230.66 173.67) rotate(115.41)"><tspan x="0" y="0">d</tspan></text>
  <text class="cls-1" transform="translate(229.51 176.1) rotate(116.69)"><tspan x="0" y="0">e</tspan></text>
  <text class="cls-1" transform="translate(228.39 178.31) rotate(117.63)"><tspan x="0" y="0">f</tspan></text>
  <text class="cls-1" transform="translate(227.74 179.55) rotate(118.28)"><tspan x="0" y="0">i</tspan></text>
  <text class="cls-1" transform="translate(227.21 180.54) rotate(119.17)"><tspan x="0" y="0">n</tspan></text>
  <text class="cls-1" transform="translate(226.02 182.68) rotate(120.39)"><tspan x="0" y="0">e</tspan></text>
  <text class="cls-1" transform="translate(224.76 184.82) rotate(121.35)"><tspan x="0" y="0"> </tspan></text>
  <text class="cls-1" transform="translate(224.04 186) rotate(121.97)"><tspan x="0" y="0">i</tspan></text>
  <text class="cls-1" transform="translate(223.46 186.94) rotate(122.85)"><tspan x="0" y="0">n</tspan></text>
  <text class="cls-1" transform="translate(222.13 188.99) rotate(124.06)"><tspan x="0" y="0">n</tspan></text>
  <text class="cls-1" transform="translate(220.77 191.02) rotate(125.28)"><tspan x="0" y="0">e</tspan></text>
  <text class="cls-1" transform="translate(219.32 193.05) rotate(126.31)"><tspan x="0" y="0">r</tspan></text>
  <text class="cls-1" transform="translate(218.34 194.39) rotate(127.06)"><tspan x="0" y="0"> </tspan></text>
  <text class="cls-1" transform="translate(217.5 195.49) rotate(127.85)"><tspan x="0" y="0">s</tspan></text>
  <text class="cls-1" transform="translate(216.41 196.91) rotate(128.89)"><tspan x="0" y="0">u</tspan></text>
  <text class="cls-1" transform="translate(214.86 198.83) rotate(130.15)"><tspan x="0" y="0">b</tspan></text>
  <text class="cls-1" transform="translate(213.13 200.88) rotate(131.25)"><tspan x="0" y="0">s</tspan></text>
  <text class="cls-1" transform="translate(211.94 202.23) rotate(131.98)"><tspan x="0" y="0">t</tspan></text>
  <text class="cls-1" transform="translate(211.1 203.18) rotate(132.96)"><tspan x="0" y="0">a</tspan></text>
  <text class="cls-1" transform="translate(209.26 205.14) rotate(134.07)"><tspan x="0" y="0">n</tspan></text>
  <text class="cls-1" transform="translate(207.59 206.88) rotate(135.93)"><tspan x="0" y="0">c</tspan></text>
  <text class="cls-1" transform="translate(206.05 208.39) rotate(136.42)"><tspan x="0" y="0">e</tspan></text>
  <text class="cls-1" transform="translate(204.26 210.09) rotate(137.46)"><tspan x="0" y="0">s</tspan></text>
  <text class="cls-1" transform="translate(202.91 211.32) rotate(138.24)"><tspan x="0" y="0"> </tspan></text>
  <text class="cls-1" transform="translate(201.9 212.23) rotate(139.09)"><tspan x="0" y="0">c</tspan></text>
  <text class="cls-1" transform="translate(200.28 213.64) rotate(140.28)"><tspan x="0" y="0">o</tspan></text>
  <text class="cls-1" transform="translate(198.21 215.35) rotate(141.53)"><tspan x="0" y="0">u</tspan></text>
  <text class="cls-1" transform="translate(196.3 216.87) rotate(142.74)"><tspan x="0" y="0">n</tspan></text>
  <text class="cls-1" transform="translate(194.35 218.35) rotate(143.64)"><tspan x="0" y="0">t</tspan></text>
  <text class="cls-1" transform="translate(193.34 219.1) rotate(144.58)"><tspan x="0" y="0">e</tspan></text>
  <text class="cls-1" transform="translate(191.32 220.53) rotate(145.6)"><tspan x="0" y="0">r</tspan></text>
  <text class="cls-1" transform="translate(189.89 221.51) rotate(146.32)"><tspan x="0" y="0">i</tspan></text>
  <text class="cls-1" transform="translate(188.97 222.13) rotate(147.2)"><tspan x="0" y="0">n</tspan></text>
  <text class="cls-1" transform="translate(186.91 223.45) rotate(148.11)"><tspan x="0" y="0">t</tspan></text>
  <text class="cls-1" transform="translate(185.87 224.11) rotate(149.03)"><tspan x="0" y="0">u</tspan></text>
  <text class="cls-1" transform="translate(183.79 225.35) rotate(149.9)"><tspan x="0" y="0">i</tspan></text>
  <text class="cls-1" transform="translate(182.83 225.91) rotate(150.48)"><tspan x="0" y="0">t</tspan></text>
  <text class="cls-1" transform="translate(181.75 226.52) rotate(151.07)"><tspan x="0" y="0">i</tspan></text>
  <text class="cls-1" transform="translate(180.78 227.06) rotate(151.9)"><tspan x="0" y="0">v</tspan></text>
  <text class="cls-1" transform="translate(178.87 228.08) rotate(153.03)"><tspan x="0" y="0">e</tspan></text>
  <text class="cls-1" transform="translate(176.67 229.19) rotate(153.92)"><tspan x="0" y="0">l</tspan></text>
  <text class="cls-1" transform="translate(175.63 229.71) rotate(154.82)"><tspan x="0" y="0">y</tspan></text>
  <text class="cls-1" transform="translate(173.6 230.66) rotate(155.67)"><tspan x="0" y="0">,</tspan></text>
  <text class="cls-1" transform="translate(172.35 231.23) rotate(156.36)"><tspan x="0" y="0"> </tspan></text>
  <text class="cls-1" transform="translate(171.07 231.79) rotate(156.98)"><tspan x="0" y="0">i</tspan></text>
  <text class="cls-1" transform="translate(170.06 232.22) rotate(157.86)"><tspan x="0" y="0">n</tspan></text>
  <text class="cls-1" transform="translate(167.8 233.14) rotate(159.08)"><tspan x="0" y="0">e</tspan></text>
  <text class="cls-1" transform="translate(165.48 234.02) rotate(160.02)"><tspan x="0" y="0">f</tspan></text>
  <text class="cls-1" transform="translate(164.09 234.52) rotate(160.75)"><tspan x="0" y="0">f</tspan></text>
  <text class="cls-1" transform="translate(162.77 234.99) rotate(161.73)"><tspan x="0" y="0">e</tspan></text>
  <text class="cls-1" transform="translate(160.43 235.76) rotate(162.86)"><tspan x="0" y="0">c</tspan></text>
  <text class="cls-1" transform="translate(158.4 236.38) rotate(163.69)"><tspan x="0" y="0">t</tspan></text>
  <text class="cls-1" transform="translate(157.21 236.73) rotate(164.27)"><tspan x="0" y="0">i</tspan></text>
  <text class="cls-1" transform="translate(156.15 237.03) rotate(165.09)"><tspan x="0" y="0">v</tspan></text>
  <text class="cls-1" transform="translate(154.06 237.59) rotate(166.22)"><tspan x="0" y="0">e</tspan></text>
  <text class="cls-1" transform="translate(151.65 238.18) rotate(167.1)"><tspan x="0" y="0">l</tspan></text>
  <text class="cls-1" transform="translate(150.55 238.44) rotate(167.99)"><tspan x="0" y="0">y</tspan></text>
  <text class="cls-1" transform="translate(148.34 238.91) rotate(168.84)"><tspan x="0" y="0">,</tspan></text>
  <text class="cls-1" transform="translate(146.99 239.17) rotate(169.51)"><tspan x="0" y="0"> </tspan></text>
  <text class="cls-1" transform="translate(145.64 239.43) rotate(170.51)"><tspan x="0" y="0">o</tspan></text>
  <text class="cls-1" transform="translate(142.98 239.87) rotate(171.59)"><tspan x="0" y="0">r</tspan></text>
  <text class="cls-1" transform="translate(141.32 240.11) rotate(172.34)"><tspan x="0" y="0"> </tspan></text>
  <text class="cls-1" transform="translate(139.96 240.29) rotate(172.95)"><tspan x="0" y="0">i</tspan></text>
  <text class="cls-1" transform="translate(138.85 240.44) rotate(173.83)"><tspan x="0" y="0">n</tspan></text>
  <text class="cls-1" transform="translate(136.43 240.69) rotate(174.76)"><tspan x="0" y="0"> </tspan></text>
  <text class="cls-1" transform="translate(135.06 240.83) rotate(175.94)"><tspan x="0" y="0">w</tspan></text>
  <text class="cls-1" transform="translate(131.67 241.07) rotate(177.42)"><tspan x="0" y="0">a</tspan></text>
  <text class="cls-1" transform="translate(128.95 241.19) rotate(178.69)"><tspan x="0" y="0">y</tspan></text>
  <text class="cls-1" transform="translate(126.53 241.24) rotate(179.72)"><tspan x="0" y="0">s</tspan></text>
  <text class="cls-1" transform="translate(124.7 241.25) rotate(-179.49)"><tspan x="0" y="0"> </tspan></text>
  <text class="cls-1" transform="translate(123.33 241.24) rotate(-178.86)"><tspan x="0" y="0">t</tspan></text>
  <text class="cls-1" transform="translate(122.01 241.21) rotate(-177.91)"><tspan x="0" y="0">h</tspan></text>
  <text class="cls-1" transform="translate(119.58 241.13) rotate(-176.66)"><tspan x="0" y="0">a</tspan></text>
  <text class="cls-1" transform="translate(116.91 240.97) rotate(-175.71)"><tspan x="0" y="0">t</tspan></text>
  <text class="cls-1" transform="translate(115.68 240.87) rotate(-175.07)"><tspan x="0" y="0"> </tspan></text>
  <text class="cls-1" transform="translate(114.32 240.76) rotate(-174.21)"><tspan x="0" y="0">c</tspan></text>
  <text class="cls-1" transform="translate(112.07 240.53) rotate(-173.02)"><tspan x="0" y="0">h</tspan></text>
  <text class="cls-1" transform="translate(109.65 240.24) rotate(-171.77)"><tspan x="0" y="0">a</tspan></text>
  <text class="cls-1" transform="translate(106.97 239.84) rotate(-170.83)"><tspan x="0" y="0">l</tspan></text>
  <text class="cls-1" transform="translate(105.89 239.67) rotate(-170.29)"><tspan x="0" y="0">l</tspan></text>
  <text class="cls-1" transform="translate(104.8 239.49) rotate(-169.41)"><tspan x="0" y="0">e</tspan></text>
  <text class="cls-1" transform="translate(102.36 239.03) rotate(-168.19)"><tspan x="0" y="0">n</tspan></text>
  <text class="cls-1" transform="translate(99.96 238.53) rotate(-166.93)"><tspan x="0" y="0">g</tspan></text>
  <text class="cls-1" transform="translate(97.34 237.92) rotate(-165.66)"><tspan x="0" y="0">e</tspan></text>
  <text class="cls-1" transform="translate(94.94 237.3) rotate(-164.71)"><tspan x="0" y="0"> </tspan></text>
  <text class="cls-1" transform="translate(93.63 236.95) rotate(-163.71)"><tspan x="0" y="0">o</tspan></text>
  <text class="cls-1" transform="translate(91.06 236.2) rotate(-162.45)"><tspan x="0" y="0">u</tspan></text>
  <text class="cls-1" transform="translate(88.72 235.46) rotate(-161.43)"><tspan x="0" y="0">r</tspan></text>
  <text class="cls-1" transform="translate(87.14 234.92) rotate(-160.67)"><tspan x="0" y="0"> </tspan></text>
  <text class="cls-1" transform="translate(85.84 234.47) rotate(-159.72)"><tspan x="0" y="0">n</tspan></text>
  <text class="cls-1" transform="translate(83.55 233.63) rotate(-158.45)"><tspan x="0" y="0">o</tspan></text>
  <text class="cls-1" transform="translate(81.01 232.62) rotate(-157.47)"><tspan x="0" y="0">t</tspan></text>
  <text class="cls-1" transform="translate(79.9 232.16) rotate(-156.9)"><tspan x="0" y="0">i</tspan></text>
  <text class="cls-1" transform="translate(78.87 231.73) rotate(-155.95)"><tspan x="0" y="0">o</tspan></text>
  <text class="cls-1" transform="translate(76.41 230.63) rotate(-154.67)"><tspan x="0" y="0">n</tspan></text>
  <text class="cls-1" transform="translate(74.19 229.57) rotate(-153.72)"><tspan x="0" y="0"> </tspan></text>
  <text class="cls-1" transform="translate(72.96 228.97) rotate(-152.71)"><tspan x="0" y="0">o</tspan></text>
  <text class="cls-1" transform="translate(70.57 227.73) rotate(-151.71)"><tspan x="0" y="0">f</tspan></text>
  <text class="cls-1" transform="translate(69.41 227.11) rotate(-151.05)"><tspan x="0" y="0"> </tspan></text>
  <text class="cls-1" transform="translate(68.19 226.44) rotate(-150.03)"><tspan x="0" y="0">d</tspan></text>
  <text class="cls-1" transform="translate(65.89 225.11) rotate(-148.76)"><tspan x="0" y="0">e</tspan></text>
  <text class="cls-1" transform="translate(63.76 223.81) rotate(-147.87)"><tspan x="0" y="0">l</tspan></text>
  <text class="cls-1" transform="translate(62.83 223.23) rotate(-147.32)"><tspan x="0" y="0">i</tspan></text>
  <text class="cls-1" transform="translate(61.89 222.63) rotate(-146.43)"><tspan x="0" y="0">n</tspan></text>
  <text class="cls-1" transform="translate(59.85 221.28) rotate(-145.22)"><tspan x="0" y="0">e</tspan></text>
  <text class="cls-1" transform="translate(57.81 219.86) rotate(-143.94)"><tspan x="0" y="0">a</tspan></text>
  <text class="cls-1" transform="translate(55.63 218.27) rotate(-142.97)"><tspan x="0" y="0">t</tspan></text>
  <text class="cls-1" transform="translate(54.68 217.55) rotate(-142.4)"><tspan x="0" y="0">i</tspan></text>
  <text class="cls-1" transform="translate(53.79 216.88) rotate(-141.47)"><tspan x="0" y="0">o</tspan></text>
  <text class="cls-1" transform="translate(51.68 215.2) rotate(-140.2)"><tspan x="0" y="0">n</tspan></text>
  <text class="cls-1" transform="translate(49.81 213.63) rotate(-139.16)"><tspan x="0" y="0">s</tspan></text>
  <text class="cls-1" transform="translate(48.43 212.44) rotate(-138.38)"><tspan x="0" y="0"> </tspan></text>
  <text class="cls-1" transform="translate(47.39 211.51) rotate(-137.77)"><tspan x="0" y="0">i</tspan></text>
  <text class="cls-1" transform="translate(46.58 210.78) rotate(-136.91)"><tspan x="0" y="0">n</tspan></text>
  <text class="cls-1" transform="translate(44.79 209.1) rotate(-135.98)"><tspan x="0" y="0"> </tspan></text>
  <text class="cls-1" transform="translate(43.79 208.13) rotate(-135.93)"><tspan x="0" y="0">t</tspan></text>
  <text class="cls-1" transform="translate(42.85 207.22) rotate(-134.07)"><tspan x="0" y="0">h</tspan></text>
  <text class="cls-1" transform="translate(41.14 205.47) rotate(-133.22)"><tspan x="0" y="0">e</tspan></text>
  <text class="cls-1" transform="translate(39.44 203.66) rotate(-132.28)"><tspan x="0" y="0"> </tspan></text>
  <text class="cls-1" transform="translate(38.52 202.64) rotate(-131.62)"><tspan x="0" y="0">f</tspan></text>
  <text class="cls-1" transform="translate(37.59 201.59) rotate(-130.99)"><tspan x="0" y="0">i</tspan></text>
  <text class="cls-1" transform="translate(36.86 200.75) rotate(-130.31)"><tspan x="0" y="0">r</tspan></text>
  <text class="cls-1" transform="translate(35.77 199.47) rotate(-129.45)"><tspan x="0" y="0">s</tspan></text>
  <text class="cls-1" transform="translate(34.62 198.07) rotate(-128.7)"><tspan x="0" y="0">t</tspan></text>
  <text class="cls-1" transform="translate(33.85 197.11) rotate(-128.06)"><tspan x="0" y="0"> </tspan></text>
  <text class="cls-1" transform="translate(32.99 196.02) rotate(-127.06)"><tspan x="0" y="0">p</tspan></text>
  <text class="cls-1" transform="translate(31.39 193.89) rotate(-126.13)"><tspan x="0" y="0">l</tspan></text>
  <text class="cls-1" transform="translate(30.72 192.99) rotate(-125.19)"><tspan x="0" y="0">a</tspan></text>
  <text class="cls-1" transform="translate(29.18 190.8) rotate(-124)"><tspan x="0" y="0">c</tspan></text>
  <text class="cls-1" transform="translate(28 189.05) rotate(-122.86)"><tspan x="0" y="0">e</tspan></text>
  <text class="cls-1" transform="translate(26.66 186.97) rotate(-121.71)"><tspan x="0" y="0">?</tspan></text>
  <text class="cls-1" transform="translate(25.5 185.09) rotate(-120.82)"><tspan x="0" y="0"> </tspan></text>
  <text class="cls-1" transform="translate(24.8 183.92) rotate(-120.14)"><tspan x="0" y="0"> </tspan></text>
  <text class="cls-1" transform="translate(24.11 182.73) rotate(-119.46)"><tspan x="0" y="0"> </tspan></text>
</svg>