<?xml version="1.0" encoding="UTF-8"?>
<svg id="Layer_14" data-name="Layer 14" xmlns="http://www.w3.org/2000/svg" viewBox="0 0 250 250">
  <defs>
    <style>
      .cls-1 {
        font-family: Futura-CondensedExtraBold, Futura;
        font-weight: 700;
      }

      .cls-1, .cls-2 {
        fill: #231f20;
        font-size: 3.2px;
      }

      .cls-2 {
        font-family: Futura-Medium, Futura;
        font-weight: 500;
      }
    </style>
  </defs>
  <text class="cls-2" transform="translate(177.82 166.98) rotate(129.38)"><tspan x="0" y="0">L</tspan></text>
  <text class="cls-2" transform="translate(176.93 168.08) rotate(130.42)"><tspan x="0" y="0">a</tspan></text>
  <text class="cls-2" transform="translate(175.68 169.54) rotate(131.96)"><tspan x="0" y="0">y</tspan></text>
  <text class="cls-2" transform="translate(174.56 170.79) rotate(133.39)"><tspan x="0" y="0">e</tspan></text>
  <text class="cls-2" transform="translate(173.35 172.07) rotate(134.63)"><tspan x="0" y="0">r</tspan></text>
  <text class="cls-2" transform="translate(172.51 172.92) rotate(135.56)"><tspan x="0" y="0"> </tspan></text>
  <text class="cls-2" transform="translate(171.82 173.6) rotate(136.8)"><tspan x="0" y="0">1</tspan></text>
  <text class="cls-2" transform="translate(170.59 174.76) rotate(138.24)"><tspan x="0" y="0">4</tspan></text>
  <text class="cls-2" transform="translate(169.12 176.07) rotate(139.5)"><tspan x="0" y="0"> </tspan></text>
  <text class="cls-2" transform="translate(168.36 176.72) rotate(140.33)"><tspan x="0" y="0">I</tspan></text>
  <text class="cls-2" transform="translate(167.65 177.31) rotate(141.54)"><tspan x="0" y="0">p</tspan></text>
  <text class="cls-2" transform="translate(166.15 178.49) rotate(142.9)"><tspan x="0" y="0">s</tspan></text>
  <text class="cls-2" transform="translate(165.15 179.26) rotate(144.17)"><tspan x="0" y="0">u</tspan></text>
  <text class="cls-2" transform="translate(163.74 180.28) rotate(145.99)"><tspan x="0" y="0">m</tspan></text>
  <text class="cls-2" transform="translate(161.66 181.67) rotate(147.48)"><tspan x="0" y="0"> </tspan></text>
  <text class="cls-2" transform="translate(160.82 182.21) rotate(148.52)"><tspan x="0" y="0">L</tspan></text>
  <text class="cls-2" transform="translate(159.63 182.94) rotate(149.93)"><tspan x="0" y="0">o</tspan></text>
  <text class="cls-2" transform="translate(157.98 183.9) rotate(151.25)"><tspan x="0" y="0">r</tspan></text>
  <text class="cls-2" transform="translate(156.97 184.45) rotate(152.47)"><tspan x="0" y="0">e</tspan></text>
  <text class="cls-2" transform="translate(155.4 185.28) rotate(154.31)"><tspan x="0" y="0">m</tspan></text>
  <text class="cls-2" transform="translate(153.14 186.36) rotate(155.79)"><tspan x="0" y="0"> </tspan></text>
  <text class="cls-2" transform="translate(152.25 186.75) rotate(156.59)"><tspan x="0" y="0">I</tspan></text>
  <text class="cls-2" transform="translate(151.39 187.13) rotate(157.81)"><tspan x="0" y="0">p</tspan></text>
  <text class="cls-2" transform="translate(149.62 187.85) rotate(159.17)"><tspan x="0" y="0">s</tspan></text>
  <text class="cls-2" transform="translate(148.43 188.31) rotate(160.45)"><tspan x="0" y="0">u</tspan></text>
  <text class="cls-2" transform="translate(146.81 188.89) rotate(162.23)"><tspan x="0" y="0">m</tspan></text>
  <text class="cls-2" transform="translate(144.41 189.65) rotate(163.72)"><tspan x="0" y="0"> </tspan></text>
  <text class="cls-2" transform="translate(143.47 189.93) rotate(164.73)"><tspan x="0" y="0">L</tspan></text>
  <text class="cls-2" transform="translate(142.12 190.3) rotate(166.12)"><tspan x="0" y="0">o</tspan></text>
  <text class="cls-2" transform="translate(140.27 190.75) rotate(167.43)"><tspan x="0" y="0">r</tspan></text>
  <text class="cls-2" transform="translate(139.11 191.01) rotate(168.67)"><tspan x="0" y="0">e</tspan></text>
  <text class="cls-2" transform="translate(137.4 191.36) rotate(170.46)"><tspan x="0" y="0">m</tspan></text>
  <text class="cls-2" transform="translate(134.94 191.76) rotate(171.91)"><tspan x="0" y="0"> </tspan></text>
  <text class="cls-2" transform="translate(133.97 191.9) rotate(172.73)"><tspan x="0" y="0">I</tspan></text>
  <text class="cls-2" transform="translate(133.05 192.03) rotate(173.92)"><tspan x="0" y="0">p</tspan></text>
  <text class="cls-2" transform="translate(131.13 192.23) rotate(175.29)"><tspan x="0" y="0">s</tspan></text>
  <text class="cls-2" transform="translate(129.86 192.33) rotate(176.55)"><tspan x="0" y="0">u</tspan></text>
  <text class="cls-2" transform="translate(128.16 192.44) rotate(178.32)"><tspan x="0" y="0">m</tspan></text>
  <text class="cls-2" transform="translate(125.62 192.51) rotate(179.82)"><tspan x="0" y="0"> </tspan></text>
  <text class="cls-2" transform="translate(124.66 192.51) rotate(-179.2)"><tspan x="0" y="0">L</tspan></text>
  <text class="cls-2" transform="translate(123.24 192.5) rotate(-177.78)"><tspan x="0" y="0">o</tspan></text>
  <text class="cls-2" transform="translate(121.33 192.42) rotate(-176.47)"><tspan x="0" y="0">r</tspan></text>
  <text class="cls-2" transform="translate(120.18 192.35) rotate(-175.25)"><tspan x="0" y="0">e</tspan></text>
  <text class="cls-2" transform="translate(118.43 192.21) rotate(-173.44)"><tspan x="0" y="0">m</tspan></text>
  <text class="cls-2" transform="translate(115.94 191.91) rotate(-171.97)"><tspan x="0" y="0"> </tspan></text>
  <text class="cls-2" transform="translate(114.96 191.78) rotate(-171.14)"><tspan x="0" y="0">I</tspan></text>
  <text class="cls-2" transform="translate(114.03 191.64) rotate(-169.93)"><tspan x="0" y="0">p</tspan></text>
  <text class="cls-2" transform="translate(112.17 191.3) rotate(-168.58)"><tspan x="0" y="0">s</tspan></text>
  <text class="cls-2" transform="translate(110.91 191.05) rotate(-167.3)"><tspan x="0" y="0">u</tspan></text>
  <text class="cls-2" transform="translate(109.22 190.68) rotate(-165.48)"><tspan x="0" y="0">m</tspan></text>
  <text class="cls-2" transform="translate(106.78 190.03) rotate(-163.99)"><tspan x="0" y="0"> </tspan></text>
  <text class="cls-2" transform="translate(105.85 189.77) rotate(-162.98)"><tspan x="0" y="0">L</tspan></text>
  <text class="cls-2" transform="translate(104.51 189.36) rotate(-161.57)"><tspan x="0" y="0">o</tspan></text>
  <text class="cls-2" transform="translate(102.7 188.75) rotate(-160.24)"><tspan x="0" y="0">r</tspan></text>
  <text class="cls-2" transform="translate(101.6 188.37) rotate(-159)"><tspan x="0" y="0">e</tspan></text>
  <text class="cls-2" transform="translate(99.96 187.74) rotate(-157.18)"><tspan x="0" y="0">m</tspan></text>
  <text class="cls-2" transform="translate(97.65 186.76) rotate(-155.69)"><tspan x="0" y="0"> </tspan></text>
  <text class="cls-2" transform="translate(96.75 186.35) rotate(-154.86)"><tspan x="0" y="0">I</tspan></text>
  <text class="cls-2" transform="translate(95.9 185.96) rotate(-153.65)"><tspan x="0" y="0">p</tspan></text>
  <text class="cls-2" transform="translate(94.21 185.12) rotate(-152.31)"><tspan x="0" y="0">s</tspan></text>
  <text class="cls-2" transform="translate(93.08 184.53) rotate(-151.02)"><tspan x="0" y="0">u</tspan></text>
  <text class="cls-2" transform="translate(91.57 183.7) rotate(-149.22)"><tspan x="0" y="0">m</tspan></text>
  <text class="cls-2" transform="translate(89.4 182.4) rotate(-147.55)"><tspan x="0" y="0">L</tspan></text>
  <text class="cls-2" transform="translate(88.21 181.64) rotate(-146.15)"><tspan x="0" y="0">o</tspan></text>
  <text class="cls-2" transform="translate(86.63 180.59) rotate(-144.86)"><tspan x="0" y="0">r</tspan></text>
  <text class="cls-2" transform="translate(85.67 179.91) rotate(-143.64)"><tspan x="0" y="0">e</tspan></text>
  <text class="cls-2" transform="translate(84.28 178.88) rotate(-142.48)"><tspan x="0" y="0">m</tspan></text>
  <text class="cls-2" transform="translate(82.3 177.32) rotate(-140.42)"><tspan x="0" y="0"> </tspan></text>
  <text class="cls-2" transform="translate(81.53 176.69) rotate(-139.6)"><tspan x="0" y="0">I</tspan></text>
  <text class="cls-2" transform="translate(80.82 176.1) rotate(-138.42)"><tspan x="0" y="0">p</tspan></text>
  <text class="cls-2" transform="translate(79.41 174.84) rotate(-137.09)"><tspan x="0" y="0">s</tspan></text>
  <text class="cls-2" transform="translate(78.45 173.95) rotate(-135.8)"><tspan x="0" y="0">u</tspan></text>
  <text class="cls-2" transform="translate(77.22 172.76) rotate(-134.01)"><tspan x="0" y="0">m</tspan></text>
  <text class="cls-2" transform="translate(75.47 170.94) rotate(-132.35)"><tspan x="0" y="0">L</tspan></text>
  <text class="cls-2" transform="translate(74.52 169.9) rotate(-130.93)"><tspan x="0" y="0">o</tspan></text>
  <text class="cls-2" transform="translate(73.29 168.47) rotate(-129.63)"><tspan x="0" y="0">r</tspan></text>
  <text class="cls-2" transform="translate(72.53 167.57) rotate(-128.37)"><tspan x="0" y="0">e</tspan></text>
  <text class="cls-2" transform="translate(71.45 166.21) rotate(-126.56)"><tspan x="0" y="0">m</tspan></text>
  <text class="cls-2" transform="translate(69.96 164.18) rotate(-125.07)"><tspan x="0" y="0"> </tspan></text>
  <text class="cls-2" transform="translate(69.39 163.38) rotate(-124.25)"><tspan x="0" y="0">I</tspan></text>
  <text class="cls-2" transform="translate(68.86 162.61) rotate(-123.03)"><tspan x="0" y="0">p</tspan></text>
  <text class="cls-2" transform="translate(67.82 161) rotate(-121.66)"><tspan x="0" y="0">s</tspan></text>
  <text class="cls-2" transform="translate(67.15 159.92) rotate(-120.38)"><tspan x="0" y="0">u</tspan></text>
  <text class="cls-2" transform="translate(66.28 158.44) rotate(-118.58)"><tspan x="0" y="0">m</tspan></text>
  <text class="cls-2" transform="translate(65.07 156.22) rotate(-116.89)"><tspan x="0" y="0">L</tspan></text>
  <text class="cls-2" transform="translate(64.43 154.96) rotate(-115.47)"><tspan x="0" y="0">o</tspan></text>
  <text class="cls-2" transform="translate(63.62 153.24) rotate(-114.17)"><tspan x="0" y="0">r</tspan></text>
  <text class="cls-2" transform="translate(63.14 152.18) rotate(-112.93)"><tspan x="0" y="0">e</tspan></text>
  <text class="cls-2" transform="translate(62.46 150.58) rotate(-111.13)"><tspan x="0" y="0">m</tspan></text>
  <text class="cls-2" transform="translate(61.55 148.22) rotate(-109.64)"><tspan x="0" y="0"> </tspan></text>
  <text class="cls-2" transform="translate(61.23 147.32) rotate(-108.84)"><tspan x="0" y="0">I</tspan></text>
  <text class="cls-2" transform="translate(60.92 146.43) rotate(-107.64)"><tspan x="0" y="0">p</tspan></text>
  <text class="cls-2" transform="translate(60.35 144.61) rotate(-106.28)"><tspan x="0" y="0">s</tspan></text>
  <text class="cls-2" transform="translate(59.99 143.39) rotate(-105.02)"><tspan x="0" y="0">u</tspan></text>
  <text class="cls-2" transform="translate(59.53 141.71) rotate(-103.22)"><tspan x="0" y="0">m</tspan></text>
  <text class="cls-2" transform="translate(58.96 139.25) rotate(-101.55)"><tspan x="0" y="0">L</tspan></text>
  <text class="cls-2" transform="translate(58.68 137.88) rotate(-100.16)"><tspan x="0" y="0">o</tspan></text>
  <text class="cls-2" transform="translate(58.35 136) rotate(-98.86)"><tspan x="0" y="0">r</tspan></text>
  <text class="cls-2" transform="translate(58.17 134.86) rotate(-97.64)"><tspan x="0" y="0">e</tspan></text>
  <text class="cls-2" transform="translate(57.92 133.11) rotate(-95.82)"><tspan x="0" y="0">m</tspan></text>
  <text class="cls-2" transform="translate(57.68 130.63) rotate(-94.37)"><tspan x="0" y="0"> </tspan></text>
  <text class="cls-2" transform="translate(57.61 129.65) rotate(-93.56)"><tspan x="0" y="0">I</tspan></text>
  <text class="cls-2" transform="translate(57.54 128.72) rotate(-92.36)"><tspan x="0" y="0">p</tspan></text>
  <text class="cls-2" transform="translate(57.47 126.81) rotate(-91.02)"><tspan x="0" y="0">s</tspan></text>
  <text class="cls-2" transform="translate(57.44 125.52) rotate(-89.73)"><tspan x="0" y="0">u</tspan></text>
  <text class="cls-2" transform="translate(57.44 123.81) rotate(-87.96)"><tspan x="0" y="0">m</tspan></text>
  <text class="cls-2" transform="translate(57.54 121.27) rotate(-86.28)"><tspan x="0" y="0">L</tspan></text>
  <text class="cls-2" transform="translate(57.63 119.88) rotate(-84.88)"><tspan x="0" y="0">o</tspan></text>
  <text class="cls-2" transform="translate(57.8 117.97) rotate(-83.57)"><tspan x="0" y="0">r</tspan></text>
  <text class="cls-2" transform="translate(57.93 116.84) rotate(-82.36)"><tspan x="0" y="0">e</tspan></text>
  <text class="cls-2" transform="translate(58.16 115.1) rotate(-80.54)"><tspan x="0" y="0">m</tspan></text>
  <text class="cls-2" transform="translate(58.58 112.62) rotate(-79.06)"><tspan x="0" y="0"> </tspan></text>
  <text class="cls-2" transform="translate(58.76 111.65) rotate(-78.24)"><tspan x="0" y="0">I</tspan></text>
  <text class="cls-2" transform="translate(58.95 110.72) rotate(-77.02)"><tspan x="0" y="0">p</tspan></text>
  <text class="cls-2" transform="translate(59.38 108.87) rotate(-75.66)"><tspan x="0" y="0">s</tspan></text>
  <text class="cls-2" transform="translate(59.7 107.65) rotate(-74.39)"><tspan x="0" y="0">u</tspan></text>
  <text class="cls-2" transform="translate(60.16 105.97) rotate(-72.56)"><tspan x="0" y="0">m</tspan></text>
  <text class="cls-2" transform="translate(60.92 103.57) rotate(-70.89)"><tspan x="0" y="0">L</tspan></text>
  <text class="cls-2" transform="translate(61.38 102.24) rotate(-69.47)"><tspan x="0" y="0">o</tspan></text>
  <text class="cls-2" transform="translate(62.04 100.47) rotate(-68.16)"><tspan x="0" y="0">r</tspan></text>
  <text class="cls-2" transform="translate(62.47 99.38) rotate(-66.91)"><tspan x="0" y="0">e</tspan></text>
  <text class="cls-2" transform="translate(63.16 97.76) rotate(-65.08)"><tspan x="0" y="0">m</tspan></text>
  <text class="cls-2" transform="translate(64.22 95.5) rotate(-63.61)"><tspan x="0" y="0"> </tspan></text>
  <text class="cls-2" transform="translate(64.66 94.61) rotate(-62.78)"><tspan x="0" y="0">I</tspan></text>
  <text class="cls-2" transform="translate(65.08 93.8) rotate(-61.59)"><tspan x="0" y="0">p</tspan></text>
  <text class="cls-2" transform="translate(65.99 92.11) rotate(-60.21)"><tspan x="0" y="0">s</tspan></text>
  <text class="cls-2" transform="translate(66.63 90.98) rotate(-58.93)"><tspan x="0" y="0">u</tspan></text>
  <text class="cls-2" transform="translate(67.51 89.51) rotate(-57.14)"><tspan x="0" y="0">m</tspan></text>
  <text class="cls-2" transform="translate(68.88 87.41) rotate(-55.49)"><tspan x="0" y="0">L</tspan></text>
  <text class="cls-2" transform="translate(69.68 86.23) rotate(-54.09)"><tspan x="0" y="0">o</tspan></text>
  <text class="cls-2" transform="translate(70.79 84.71) rotate(-52.82)"><tspan x="0" y="0">r</tspan></text>
  <text class="cls-2" transform="translate(71.51 83.78) rotate(-52.48)"><tspan x="0" y="0">e</tspan></text>
  <text class="cls-2" transform="translate(72.58 82.4) rotate(-49.83)"><tspan x="0" y="0">m</tspan></text>
  <text class="cls-2" transform="translate(74.22 80.47) rotate(-48.35)"><tspan x="0" y="0"> </tspan></text>
  <text class="cls-2" transform="translate(74.86 79.75) rotate(-47.56)"><tspan x="0" y="0">I</tspan></text>
  <text class="cls-2" transform="translate(75.49 79.06) rotate(-46.36)"><tspan x="0" y="0">p</tspan></text>
  <text class="cls-2" transform="translate(76.81 77.68) rotate(-45.01)"><tspan x="0" y="0">s</tspan></text>
  <text class="cls-2" transform="translate(77.7 76.78) rotate(-43.74)"><tspan x="0" y="0">u</tspan></text>
  <text class="cls-2" transform="translate(78.95 75.58) rotate(-41.94)"><tspan x="0" y="0">m</tspan></text>
  <text class="cls-2" transform="translate(80.84 73.89) rotate(-40.43)"><tspan x="0" y="0"> </tspan></text>
  <text class="cls-2" transform="translate(81.58 73.26) rotate(-39.43)"><tspan x="0" y="0">L</tspan></text>
  <text class="cls-2" transform="translate(82.65 72.37) rotate(-38.01)"><tspan x="0" y="0">o</tspan></text>
  <text class="cls-2" transform="translate(84.16 71.2) rotate(-36.7)"><tspan x="0" y="0">r</tspan></text>
  <text class="cls-2" transform="translate(85.09 70.5) rotate(-35.45)"><tspan x="0" y="0">e</tspan></text>
  <text class="cls-2" transform="translate(86.51 69.48) rotate(-33.63)"><tspan x="0" y="0">m</tspan></text>
  <text class="cls-2" transform="translate(88.61 68.1) rotate(-32.15)"><tspan x="0" y="0"> </tspan></text>
  <text class="cls-2" transform="translate(89.45 67.57) rotate(-31.31)"><tspan x="0" y="0">I</tspan></text>
  <text class="cls-2" transform="translate(90.24 67.08) rotate(-30.1)"><tspan x="0" y="0">p</tspan></text>
  <text class="cls-2" transform="translate(91.87 66.14) rotate(-28.75)"><tspan x="0" y="0">s</tspan></text>
  <text class="cls-2" transform="translate(93.01 65.52) rotate(-27.46)"><tspan x="0" y="0">u</tspan></text>
  <text class="cls-2" transform="translate(94.54 64.71) rotate(-25.65)"><tspan x="0" y="0">m</tspan></text>
  <text class="cls-2" transform="translate(96.81 63.63) rotate(-24.17)"><tspan x="0" y="0"> </tspan></text>
  <text class="cls-2" transform="translate(97.7 63.23) rotate(-23.15)"><tspan x="0" y="0">L</tspan></text>
  <text class="cls-2" transform="translate(99 62.67) rotate(-21.74)"><tspan x="0" y="0">o</tspan></text>
  <text class="cls-2" transform="translate(100.78 61.97) rotate(-20.42)"><tspan x="0" y="0">r</tspan></text>
  <text class="cls-2" transform="translate(101.86 61.56) rotate(-19.19)"><tspan x="0" y="0">e</tspan></text>
  <text class="cls-2" transform="translate(103.52 60.98) rotate(-17.38)"><tspan x="0" y="0">m</tspan></text>
  <text class="cls-2" transform="translate(105.91 60.24) rotate(-15.92)"><tspan x="0" y="0"> </tspan></text>
  <text class="cls-2" transform="translate(106.85 59.97) rotate(-15.1)"><tspan x="0" y="0">I</tspan></text>
  <text class="cls-2" transform="translate(107.75 59.72) rotate(-13.9)"><tspan x="0" y="0">p</tspan></text>
  <text class="cls-2" transform="translate(109.6 59.27) rotate(-12.55)"><tspan x="0" y="0">s</tspan></text>
  <text class="cls-2" transform="translate(110.84 58.99) rotate(-11.29)"><tspan x="0" y="0">u</tspan></text>
  <text class="cls-2" transform="translate(112.54 58.64) rotate(-9.5)"><tspan x="0" y="0">m</tspan></text>
  <text class="cls-2" transform="translate(115.03 58.24) rotate(-8.02)"><tspan x="0" y="0"> </tspan></text>
  <text class="cls-2" transform="translate(115.99 58.1) rotate(-7.02)"><tspan x="0" y="0">L</tspan></text>
  <text class="cls-2" transform="translate(117.4 57.92) rotate(-5.61)"><tspan x="0" y="0">o</tspan></text>
  <text class="cls-2" transform="translate(119.3 57.74) rotate(-4.31)"><tspan x="0" y="0">r</tspan></text>
  <text class="cls-2" transform="translate(120.45 57.65) rotate(-3.09)"><tspan x="0" y="0">e</tspan></text>
  <text class="cls-2" transform="translate(122.19 57.55) rotate(-1.29)"><tspan x="0" y="0">m</tspan></text>
  <text class="cls-2" transform="translate(124.71 57.5) rotate(.18)"><tspan x="0" y="0"> </tspan></text>
  <text class="cls-2" transform="translate(125.7 57.5) rotate(.99)"><tspan x="0" y="0">I</tspan></text>
  <text class="cls-2" transform="translate(126.63 57.51) rotate(2.2)"><tspan x="0" y="0">p</tspan></text>
  <text class="cls-2" transform="translate(128.54 57.59) rotate(3.55)"><tspan x="0" y="0">s</tspan></text>
  <text class="cls-2" transform="translate(129.81 57.67) rotate(4.82)"><tspan x="0" y="0">u</tspan></text>
  <text class="cls-2" transform="translate(131.52 57.81) rotate(6.61)"><tspan x="0" y="0">m</tspan></text>
  <text class="cls-2" transform="translate(134.02 58.1) rotate(8.27)"><tspan x="0" y="0">L</tspan></text>
  <text class="cls-2" transform="translate(135.41 58.3) rotate(9.68)"><tspan x="0" y="0">o</tspan></text>
  <text class="cls-2" transform="translate(137.3 58.63) rotate(11)"><tspan x="0" y="0">r</tspan></text>
  <text class="cls-2" transform="translate(138.45 58.85) rotate(12.24)"><tspan x="0" y="0">e</tspan></text>
  <text class="cls-2" transform="translate(140.16 59.21) rotate(14.06)"><tspan x="0" y="0">m</tspan></text>
  <text class="cls-2" transform="translate(142.6 59.83) rotate(15.55)"><tspan x="0" y="0"> </tspan></text>
  <text class="cls-2" transform="translate(143.53 60.09) rotate(16.36)"><tspan x="0" y="0">I</tspan></text>
  <text class="cls-2" transform="translate(144.43 60.35) rotate(17.57)"><tspan x="0" y="0">p</tspan></text>
  <text class="cls-2" transform="translate(146.25 60.93) rotate(18.94)"><tspan x="0" y="0">s</tspan></text>
  <text class="cls-2" transform="translate(147.46 61.34) rotate(20.22)"><tspan x="0" y="0">u</tspan></text>
  <text class="cls-1" transform="translate(149.08 61.93) rotate(22.08)"><tspan x="0" y="0">m</tspan></text>
  <text class="cls-1" transform="translate(151.52 62.93) rotate(23.78)"><tspan x="0" y="0">L</tspan></text>
  <text class="cls-1" transform="translate(152.73 63.46) rotate(25.09)"><tspan x="0" y="0">o</tspan></text>
  <text class="cls-1" transform="translate(154.32 64.21) rotate(26.37)"><tspan x="0" y="0">r</tspan></text>
  <text class="cls-1" transform="translate(155.44 64.76) rotate(27.65)"><tspan x="0" y="0">e</tspan></text>
  <text class="cls-1" transform="translate(156.98 65.56) rotate(29.52)"><tspan x="0" y="0">m</tspan></text>
  <text class="cls-1" transform="translate(159.26 66.86) rotate(31.03)"><tspan x="0" y="0"> </tspan></text>
  <text class="cls-1" transform="translate(160.07 67.35) rotate(31.84)"><tspan x="0" y="0">I</tspan></text>
  <text class="cls-1" transform="translate(160.91 67.87) rotate(33.01)"><tspan x="0" y="0">p</tspan></text>
  <text class="cls-1" transform="translate(162.41 68.85) rotate(34.37)"><tspan x="0" y="0">s</tspan></text>
  <text class="cls-1" transform="translate(163.57 69.63) rotate(35.71)"><tspan x="0" y="0">u</tspan></text>
  <text class="cls-1" transform="translate(165.03 70.68) rotate(37.52)"><tspan x="0" y="0">m</tspan></text>
  <text class="cls-1" transform="translate(167.1 72.28) rotate(39.38)"><tspan x="0" y="0"> </tspan></text>
  <text class="cls-1" transform="translate(167.86 72.9) rotate(39.86)"><tspan x="0" y="0"> </tspan></text>
  <text class="cls-1" transform="translate(168.59 73.51) rotate(40.65)"><tspan x="0" y="0"> </tspan></text>
  <text class="cls-1" transform="translate(169.31 74.13) rotate(41.6)"><tspan x="0" y="0">L</tspan></text>
  <text class="cls-2" transform="translate(170.29 74.99) rotate(42.64)"><tspan x="0" y="0">r</tspan></text>
  <text class="cls-2" transform="translate(171.17 75.8) rotate(43.89)"><tspan x="0" y="0">e</tspan></text>
  <text class="cls-2" transform="translate(172.42 76.99) rotate(45.67)"><tspan x="0" y="0">m</tspan></text>
  <text class="cls-2" transform="translate(174.17 78.8) rotate(47.16)"><tspan x="0" y="0"> </tspan></text>
  <text class="cls-2" transform="translate(174.84 79.52) rotate(48.08)"><tspan x="0" y="0">r</tspan></text>
  <text class="cls-2" transform="translate(175.62 80.38) rotate(49.32)"><tspan x="0" y="0">e</tspan></text>
  <text class="cls-2" transform="translate(176.76 81.7) rotate(51.13)"><tspan x="0" y="0">m</tspan></text>
  <text class="cls-2" transform="translate(178.34 83.68) rotate(52.63)"><tspan x="0" y="0"> </tspan></text>
  <text class="cls-2" transform="translate(178.93 84.44) rotate(53.82)"><tspan x="0" y="0">E</tspan></text>
  <text class="cls-2" transform="translate(179.99 85.9) rotate(55.33)"><tspan x="0" y="0">n</tspan></text>
  <text class="cls-2" transform="translate(180.98 87.32) rotate(56.88)"><tspan x="0" y="0">d</tspan></text>
</svg>