<?xml version="1.0" encoding="UTF-8"?>
<svg id="Layer_25" data-name="Layer 25" xmlns="http://www.w3.org/2000/svg" viewBox="0 0 250 250">
  <defs>
    <style>
      .cls-1 {
        fill: #231f20;
        font-family: Futura-Medium, Futura;
        font-size: 4.3px;
        font-weight: 500;
      }
    </style>
  </defs>
  <text class="cls-1" transform="translate(221.43 74.67) rotate(63.37)"><tspan x="0" y="0">I</tspan></text>
  <text class="cls-1" transform="translate(222.01 75.8) rotate(63.7)"><tspan x="0" y="0">n</tspan></text>
  <text class="cls-1" transform="translate(223.04 77.89) rotate(64.64)"><tspan x="0" y="0"> </tspan></text>
  <text class="cls-1" transform="translate(223.61 79.09) rotate(65.81)"><tspan x="0" y="0">H</tspan></text>
  <text class="cls-1" transform="translate(224.89 81.96) rotate(66.97)"><tspan x="0" y="0">.</tspan></text>
  <text class="cls-1" transform="translate(225.41 83.14) rotate(68.25)"><tspan x="0" y="0">G</tspan></text>
  <text class="cls-1" transform="translate(226.74 86.51) rotate(69.55)"><tspan x="0" y="0">.</tspan></text>
  <text class="cls-1" transform="translate(227.2 87.73) rotate(70.24)"><tspan x="0" y="0"> </tspan></text>
  <text class="cls-1" transform="translate(227.66 88.96) rotate(71.78)"><tspan x="0" y="0">W</tspan></text>
  <text class="cls-1" transform="translate(228.99 93.02) rotate(73.47)"><tspan x="0" y="0">e</tspan></text>
  <text class="cls-1" transform="translate(229.66 95.3) rotate(74.37)"><tspan x="0" y="0">l</tspan></text>
  <text class="cls-1" transform="translate(229.95 96.33) rotate(74.95)"><tspan x="0" y="0">l</tspan></text>
  <text class="cls-1" transform="translate(230.22 97.35) rotate(75.59)"><tspan x="0" y="0">’</tspan></text>
  <text class="cls-1" transform="translate(230.57 98.7) rotate(76.42)"><tspan x="0" y="0">s</tspan></text>
  <text class="cls-1" transform="translate(230.97 100.37) rotate(77.22)"><tspan x="0" y="0"> </tspan></text>
  <text class="cls-1" transform="translate(231.27 101.65) rotate(78.27)"><tspan x="0" y="0">1</tspan></text>
  <text class="cls-1" transform="translate(231.74 103.92) rotate(79.51)"><tspan x="0" y="0">8</tspan></text>
  <text class="cls-1" transform="translate(232.23 106.53) rotate(80.91)"><tspan x="0" y="0">9</tspan></text>
  <text class="cls-1" transform="translate(232.62 109) rotate(82.24)"><tspan x="0" y="0">7</tspan></text>
  <text class="cls-1" transform="translate(232.97 111.61) rotate(83.29)"><tspan x="0" y="0"> </tspan></text>
  <text class="cls-1" transform="translate(233.13 112.91) rotate(84.31)"><tspan x="0" y="0">b</tspan></text>
  <text class="cls-1" transform="translate(233.39 115.46) rotate(85.67)"><tspan x="0" y="0">o</tspan></text>
  <text class="cls-1" transform="translate(233.58 118.01) rotate(87.03)"><tspan x="0" y="0">o</tspan></text>
  <text class="cls-1" transform="translate(233.71 120.58) rotate(88.28)"><tspan x="0" y="0">k</tspan></text>
  <text class="cls-1" transform="translate(233.77 122.72) rotate(89.19)"><tspan x="0" y="0"> </tspan></text>
  <text class="cls-1" transform="translate(233.79 124.04) rotate(89.91)"><tspan x="0" y="0">‘</tspan></text>
  <text class="cls-1" transform="translate(233.79 125.51) rotate(90.86)"><tspan x="0" y="0">T</tspan></text>
  <text class="cls-1" transform="translate(233.77 127.55) rotate(92.01)"><tspan x="0" y="0">h</tspan></text>
  <text class="cls-1" transform="translate(233.68 129.9) rotate(93.26)"><tspan x="0" y="0">e</tspan></text>
  <text class="cls-1" transform="translate(233.54 132.26) rotate(94.23)"><tspan x="0" y="0"> </tspan></text>
  <text class="cls-1" transform="translate(233.45 133.58) rotate(94.91)"><tspan x="0" y="0">I</tspan></text>
  <text class="cls-1" transform="translate(233.34 134.83) rotate(95.86)"><tspan x="0" y="0">n</tspan></text>
  <text class="cls-1" transform="translate(233.11 137.09) rotate(97)"><tspan x="0" y="0">v</tspan></text>
  <text class="cls-1" transform="translate(232.85 139.21) rotate(97.84)"><tspan x="0" y="0">i</tspan></text>
  <text class="cls-1" transform="translate(232.7 140.27) rotate(98.58)"><tspan x="0" y="0">s</tspan></text>
  <text class="cls-1" transform="translate(232.44 142) rotate(99.32)"><tspan x="0" y="0">i</tspan></text>
  <text class="cls-1" transform="translate(232.28 143.03) rotate(100.26)"><tspan x="0" y="0">b</tspan></text>
  <text class="cls-1" transform="translate(231.81 145.56) rotate(101.21)"><tspan x="0" y="0">l</tspan></text>
  <text class="cls-1" transform="translate(231.61 146.6) rotate(102.11)"><tspan x="0" y="0">e</tspan></text>
  <text class="cls-1" transform="translate(231.11 148.91) rotate(103.07)"><tspan x="0" y="0"> </tspan></text>
  <text class="cls-1" transform="translate(230.84 150.19) rotate(104.49)"><tspan x="0" y="0">M</tspan></text>
  <text class="cls-1" transform="translate(229.79 154.17) rotate(106.24)"><tspan x="0" y="0">a</tspan></text>
  <text class="cls-1" transform="translate(229.08 156.63) rotate(107.52)"><tspan x="0" y="0">n</tspan></text>
  <text class="cls-1" transform="translate(228.36 158.87) rotate(108.48)"><tspan x="0" y="0">,</tspan></text>
  <text class="cls-1" transform="translate(227.96 160.07) rotate(109.17)"><tspan x="0" y="0">’</tspan></text>
  <text class="cls-1" transform="translate(227.51 161.38) rotate(109.87)"><tspan x="0" y="0"> </tspan></text>
  <text class="cls-1" transform="translate(227.06 162.63) rotate(110.9)"><tspan x="0" y="0">a</tspan></text>
  <text class="cls-1" transform="translate(226.15 165) rotate(111.9)"><tspan x="0" y="0"> </tspan></text>
  <text class="cls-1" transform="translate(225.66 166.24) rotate(113.14)"><tspan x="0" y="0">m</tspan></text>
  <text class="cls-1" transform="translate(224.34 169.34) rotate(114.69)"><tspan x="0" y="0">a</tspan></text>
  <text class="cls-1" transform="translate(223.27 171.66) rotate(116.03)"><tspan x="0" y="0">d</tspan></text>
  <text class="cls-1" transform="translate(222.14 173.96) rotate(117.05)"><tspan x="0" y="0"> </tspan></text>
  <text class="cls-1" transform="translate(221.54 175.14) rotate(117.86)"><tspan x="0" y="0">s</tspan></text>
  <text class="cls-1" transform="translate(220.73 176.67) rotate(118.85)"><tspan x="0" y="0">c</tspan></text>
  <text class="cls-1" transform="translate(219.74 178.46) rotate(119.67)"><tspan x="0" y="0">i</tspan></text>
  <text class="cls-1" transform="translate(219.23 179.37) rotate(120.56)"><tspan x="0" y="0">e</tspan></text>
  <text class="cls-1" transform="translate(218.02 181.41) rotate(121.8)"><tspan x="0" y="0">n</tspan></text>
  <text class="cls-1" transform="translate(216.78 183.41) rotate(122.73)"><tspan x="0" y="0">t</tspan></text>
  <text class="cls-1" transform="translate(216.15 184.39) rotate(123.32)"><tspan x="0" y="0">i</tspan></text>
  <text class="cls-1" transform="translate(215.57 185.27) rotate(124.06)"><tspan x="0" y="0">s</tspan></text>
  <text class="cls-1" transform="translate(214.6 186.7) rotate(124.82)"><tspan x="0" y="0">t</tspan></text>
  <text class="cls-1" transform="translate(213.94 187.65) rotate(125.47)"><tspan x="0" y="0"> </tspan></text>
  <text class="cls-1" transform="translate(213.19 188.73) rotate(126.71)"><tspan x="0" y="0">m</tspan></text>
  <text class="cls-1" transform="translate(211.16 191.44) rotate(128.28)"><tspan x="0" y="0">a</tspan></text>
  <text class="cls-1" transform="translate(209.58 193.44) rotate(129.58)"><tspan x="0" y="0">n</tspan></text>
  <text class="cls-1" transform="translate(208.08 195.26) rotate(130.89)"><tspan x="0" y="0">a</tspan></text>
  <text class="cls-1" transform="translate(206.41 197.19) rotate(132.24)"><tspan x="0" y="0">g</tspan></text>
  <text class="cls-1" transform="translate(204.69 199.08) rotate(133.54)"><tspan x="0" y="0">e</tspan></text>
  <text class="cls-1" transform="translate(203.06 200.79) rotate(134.63)"><tspan x="0" y="0">s</tspan></text>
  <text class="cls-1" transform="translate(201.83 202.03) rotate(135.45)"><tspan x="0" y="0"> </tspan></text>
  <text class="cls-1" transform="translate(200.9 202.95) rotate(136.11)"><tspan x="0" y="0">t</tspan></text>
  <text class="cls-1" transform="translate(200.03 203.79) rotate(137.12)"><tspan x="0" y="0">o</tspan></text>
  <text class="cls-1" transform="translate(198.15 205.53) rotate(138.14)"><tspan x="0" y="0"> </tspan></text>
  <text class="cls-1" transform="translate(197.19 206.39) rotate(138.79)"><tspan x="0" y="0">t</tspan></text>
  <text class="cls-1" transform="translate(196.3 207.18) rotate(139.73)"><tspan x="0" y="0">u</tspan></text>
  <text class="cls-1" transform="translate(194.53 208.67) rotate(140.76)"><tspan x="0" y="0">r</tspan></text>
  <text class="cls-1" transform="translate(193.25 209.72) rotate(141.84)"><tspan x="0" y="0">n</tspan></text>
  <text class="cls-1" transform="translate(191.4 211.17) rotate(142.81)"><tspan x="0" y="0"> </tspan></text>
  <text class="cls-1" transform="translate(190.36 211.97) rotate(143.77)"><tspan x="0" y="0">h</tspan></text>
  <text class="cls-1" transform="translate(188.45 213.35) rotate(144.68)"><tspan x="0" y="0">i</tspan></text>
  <text class="cls-1" transform="translate(187.59 213.98) rotate(145.85)"><tspan x="0" y="0">m</tspan></text>
  <text class="cls-1" transform="translate(184.8 215.86) rotate(147.18)"><tspan x="0" y="0">s</tspan></text>
  <text class="cls-1" transform="translate(183.34 216.81) rotate(148.26)"><tspan x="0" y="0">e</tspan></text>
  <text class="cls-1" transform="translate(181.33 218.05) rotate(149.15)"><tspan x="0" y="0">l</tspan></text>
  <text class="cls-1" transform="translate(180.41 218.6) rotate(149.76)"><tspan x="0" y="0">f</tspan></text>
  <text class="cls-1" transform="translate(179.34 219.22) rotate(150.42)"><tspan x="0" y="0"> </tspan></text>
  <text class="cls-1" transform="translate(178.18 219.88) rotate(151.04)"><tspan x="0" y="0">i</tspan></text>
  <text class="cls-1" transform="translate(177.25 220.39) rotate(151.51)"><tspan x="0" y="0">n</tspan></text>
  <text class="cls-1" transform="translate(175.25 221.47) rotate(153.37)"><tspan x="0" y="0">v</tspan></text>
  <text class="cls-1" transform="translate(173.33 222.43) rotate(153.88)"><tspan x="0" y="0">i</tspan></text>
  <text class="cls-1" transform="translate(172.38 222.9) rotate(154.6)"><tspan x="0" y="0">s</tspan></text>
  <text class="cls-1" transform="translate(170.8 223.65) rotate(155.34)"><tspan x="0" y="0">i</tspan></text>
  <text class="cls-1" transform="translate(169.85 224.1) rotate(156.28)"><tspan x="0" y="0">b</tspan></text>
  <text class="cls-1" transform="translate(167.51 225.12) rotate(157.22)"><tspan x="0" y="0">l</tspan></text>
  <text class="cls-1" transform="translate(166.52 225.54) rotate(158.13)"><tspan x="0" y="0">e</tspan></text>
  <text class="cls-1" transform="translate(164.32 226.42) rotate(159.1)"><tspan x="0" y="0">.</tspan></text>
  <text class="cls-1" transform="translate(163.1 226.88) rotate(159.79)"><tspan x="0" y="0"> </tspan></text>
  <text class="cls-1" transform="translate(161.87 227.35) rotate(160.96)"><tspan x="0" y="0">H</tspan></text>
  <text class="cls-1" transform="translate(158.9 228.37) rotate(162.41)"><tspan x="0" y="0">e</tspan></text>
  <text class="cls-1" transform="translate(156.66 229.07) rotate(163.38)"><tspan x="0" y="0"> </tspan></text>
  <text class="cls-1" transform="translate(155.39 229.46) rotate(164.61)"><tspan x="0" y="0">w</tspan></text>
  <text class="cls-1" transform="translate(152.2 230.33) rotate(165.91)"><tspan x="0" y="0">r</tspan></text>
  <text class="cls-1" transform="translate(150.69 230.71) rotate(166.99)"><tspan x="0" y="0">a</tspan></text>
  <text class="cls-1" transform="translate(148.2 231.29) rotate(168.35)"><tspan x="0" y="0">p</tspan></text>
  <text class="cls-1" transform="translate(145.67 231.81) rotate(169.49)"><tspan x="0" y="0">s</tspan></text>
  <text class="cls-1" transform="translate(143.99 232.12) rotate(170.29)"><tspan x="0" y="0"> </tspan></text>
  <text class="cls-1" transform="translate(142.69 232.35) rotate(171.27)"><tspan x="0" y="0">h</tspan></text>
  <text class="cls-1" transform="translate(140.37 232.7) rotate(172.17)"><tspan x="0" y="0">i</tspan></text>
  <text class="cls-1" transform="translate(139.34 232.85) rotate(173.34)"><tspan x="0" y="0">m</tspan></text>
  <text class="cls-1" transform="translate(135.96 233.24) rotate(174.71)"><tspan x="0" y="0">s</tspan></text>
  <text class="cls-1" transform="translate(134.26 233.4) rotate(175.78)"><tspan x="0" y="0">e</tspan></text>
  <text class="cls-1" transform="translate(131.87 233.57) rotate(176.7)"><tspan x="0" y="0">l</tspan></text>
  <text class="cls-1" transform="translate(130.82 233.63) rotate(177.32)"><tspan x="0" y="0">f</tspan></text>
  <text class="cls-1" transform="translate(129.57 233.69) rotate(177.99)"><tspan x="0" y="0"> </tspan></text>
  <text class="cls-1" transform="translate(128.24 233.74) rotate(178.97)"><tspan x="0" y="0">e</tspan></text>
  <text class="cls-1" transform="translate(125.89 233.78) rotate(-179.79)"><tspan x="0" y="0">n</tspan></text>
  <text class="cls-1" transform="translate(123.53 233.77) rotate(-178.85)"><tspan x="0" y="0">t</tspan></text>
  <text class="cls-1" transform="translate(122.37 233.74) rotate(-178.27)"><tspan x="0" y="0">i</tspan></text>
  <text class="cls-1" transform="translate(121.32 233.71) rotate(-177.58)"><tspan x="0" y="0">r</tspan></text>
  <text class="cls-1" transform="translate(119.74 233.65) rotate(-176.54)"><tspan x="0" y="0">e</tspan></text>
  <text class="cls-1" transform="translate(117.39 233.5) rotate(-175.64)"><tspan x="0" y="0">l</tspan></text>
  <text class="cls-1" transform="translate(116.28 233.42) rotate(-174.72)"><tspan x="0" y="0">y</tspan></text>
  <text class="cls-1" transform="translate(113.99 233.21) rotate(-173.78)"><tspan x="0" y="0"> </tspan></text>
  <text class="cls-1" transform="translate(112.68 233.07) rotate(-173.15)"><tspan x="0" y="0">i</tspan></text>
  <text class="cls-1" transform="translate(111.61 232.94) rotate(-172.25)"><tspan x="0" y="0">n</tspan></text>
  <text class="cls-1" transform="translate(109.28 232.62) rotate(-171.28)"><tspan x="0" y="0"> </tspan></text>
  <text class="cls-1" transform="translate(107.98 232.42) rotate(-170.41)"><tspan x="0" y="0">c</tspan></text>
  <text class="cls-1" transform="translate(105.99 232.08) rotate(-169.6)"><tspan x="0" y="0">l</tspan></text>
  <text class="cls-1" transform="translate(104.95 231.9) rotate(-168.65)"><tspan x="0" y="0">o</tspan></text>
  <text class="cls-1" transform="translate(102.4 231.38) rotate(-167.65)"><tspan x="0" y="0">t</tspan></text>
  <text class="cls-1" transform="translate(101.18 231.12) rotate(-166.69)"><tspan x="0" y="0">h</tspan></text>
  <text class="cls-1" transform="translate(98.91 230.58) rotate(-165.81)"><tspan x="0" y="0">i</tspan></text>
  <text class="cls-1" transform="translate(97.87 230.32) rotate(-164.91)"><tspan x="0" y="0">n</tspan></text>
  <text class="cls-1" transform="translate(95.61 229.71) rotate(-163.63)"><tspan x="0" y="0">g</tspan></text>
  <text class="cls-1" transform="translate(93.16 228.98) rotate(-162.61)"><tspan x="0" y="0"> </tspan></text>
  <text class="cls-1" transform="translate(91.9 228.59) rotate(-161.81)"><tspan x="0" y="0">s</tspan></text>
  <text class="cls-1" transform="translate(90.26 228.06) rotate(-160.69)"><tspan x="0" y="0">o</tspan></text>
  <text class="cls-1" transform="translate(87.84 227.2) rotate(-159.68)"><tspan x="0" y="0"> </tspan></text>
  <text class="cls-1" transform="translate(86.59 226.74) rotate(-159.02)"><tspan x="0" y="0">t</tspan></text>
  <text class="cls-1" transform="translate(85.42 226.3) rotate(-158.06)"><tspan x="0" y="0">h</tspan></text>
  <text class="cls-1" transform="translate(83.25 225.42) rotate(-156.77)"><tspan x="0" y="0">a</tspan></text>
  <text class="cls-1" transform="translate(80.9 224.41) rotate(-155.8)"><tspan x="0" y="0">t</tspan></text>
  <text class="cls-1" transform="translate(79.84 223.93) rotate(-155.14)"><tspan x="0" y="0"> </tspan></text>
  <text class="cls-1" transform="translate(78.64 223.38) rotate(-154.18)"><tspan x="0" y="0">h</tspan></text>
  <text class="cls-1" transform="translate(76.55 222.37) rotate(-152.96)"><tspan x="0" y="0">e</tspan></text>
  <text class="cls-1" transform="translate(74.44 221.29) rotate(-151.99)"><tspan x="0" y="0"> </tspan></text>
  <text class="cls-1" transform="translate(73.28 220.67) rotate(-151.11)"><tspan x="0" y="0">c</tspan></text>
  <text class="cls-1" transform="translate(71.5 219.7) rotate(-149.9)"><tspan x="0" y="0">a</tspan></text>
  <text class="cls-1" transform="translate(69.28 218.41) rotate(-148.61)"><tspan x="0" y="0">n</tspan></text>
  <text class="cls-1" transform="translate(67.28 217.19) rotate(-147.64)"><tspan x="0" y="0"> </tspan></text>
  <text class="cls-1" transform="translate(66.16 216.48) rotate(-146.62)"><tspan x="0" y="0">p</tspan></text>
  <text class="cls-1" transform="translate(64.03 215.07) rotate(-145.52)"><tspan x="0" y="0">r</tspan></text>
  <text class="cls-1" transform="translate(62.73 214.18) rotate(-144.49)"><tspan x="0" y="0">e</tspan></text>
  <text class="cls-1" transform="translate(60.81 212.81) rotate(-143.41)"><tspan x="0" y="0">s</tspan></text>
  <text class="cls-1" transform="translate(59.43 211.79) rotate(-142.33)"><tspan x="0" y="0">e</tspan></text>
  <text class="cls-1" transform="translate(57.55 210.34) rotate(-141.08)"><tspan x="0" y="0">n</tspan></text>
  <text class="cls-1" transform="translate(55.75 208.87) rotate(-140.16)"><tspan x="0" y="0">t</tspan></text>
  <text class="cls-1" transform="translate(54.85 208.13) rotate(-139.5)"><tspan x="0" y="0"> </tspan></text>
  <text class="cls-1" transform="translate(53.84 207.27) rotate(-138.46)"><tspan x="0" y="0">a</tspan></text>
  <text class="cls-1" transform="translate(51.91 205.56) rotate(-137.32)"><tspan x="0" y="0">s</tspan></text>
  <text class="cls-1" transform="translate(50.66 204.4) rotate(-136.52)"><tspan x="0" y="0"> </tspan></text>
  <text class="cls-1" transform="translate(49.7 203.49) rotate(-135.75)"><tspan x="0" y="0">r</tspan></text>
  <text class="cls-1" transform="translate(48.57 202.4) rotate(-134.71)"><tspan x="0" y="0">e</tspan></text>
  <text class="cls-1" transform="translate(46.91 200.72) rotate(-133.54)"><tspan x="0" y="0">c</tspan></text>
  <text class="cls-1" transform="translate(45.51 199.25) rotate(-132.32)"><tspan x="0" y="0">o</tspan></text>
  <text class="cls-1" transform="translate(43.78 197.35) rotate(-130.96)"><tspan x="0" y="0">g</tspan></text>
  <text class="cls-1" transform="translate(42.11 195.42) rotate(-129.66)"><tspan x="0" y="0">n</tspan></text>
  <text class="cls-1" transform="translate(40.62 193.62) rotate(-128.77)"><tspan x="0" y="0">i</tspan></text>
  <text class="cls-1" transform="translate(39.95 192.79) rotate(-127.87)"><tspan x="0" y="0">z</tspan></text>
  <text class="cls-1" transform="translate(38.52 190.96) rotate(-126.58)"><tspan x="0" y="0">a</tspan></text>
  <text class="cls-1" transform="translate(36.99 188.9) rotate(-125.22)"><tspan x="0" y="0">b</tspan></text>
  <text class="cls-1" transform="translate(35.51 186.79) rotate(-124.26)"><tspan x="0" y="0">l</tspan></text>
  <text class="cls-1" transform="translate(34.89 185.9) rotate(-123.36)"><tspan x="0" y="0">y</tspan></text>
  <text class="cls-1" transform="translate(33.62 183.96) rotate(-122.41)"><tspan x="0" y="0"> </tspan></text>
  <text class="cls-1" transform="translate(32.92 182.86) rotate(-121.46)"><tspan x="0" y="0">h</tspan></text>
  <text class="cls-1" transform="translate(31.69 180.85) rotate(-120.24)"><tspan x="0" y="0">u</tspan></text>
  <text class="cls-1" transform="translate(30.53 178.86) rotate(-118.76)"><tspan x="0" y="0">m</tspan></text>
  <text class="cls-1" transform="translate(28.88 175.89) rotate(-116.63)"><tspan x="0" y="0">a</tspan></text>
  <text class="cls-1" transform="translate(27.72 173.6) rotate(-115.95)"><tspan x="0" y="0">n</tspan></text>
  <text class="cls-1" transform="translate(26.7 171.49) rotate(-115)"><tspan x="0" y="0">.</tspan></text>
  <text class="cls-1" transform="translate(26.15 170.31) rotate(-114.32)"><tspan x="0" y="0"> </tspan></text>
  <text class="cls-1" transform="translate(25.6 169.11) rotate(-113.15)"><tspan x="0" y="0">H</tspan></text>
  <text class="cls-1" transform="translate(24.37 166.23) rotate(-111.72)"><tspan x="0" y="0">e</tspan></text>
  <text class="cls-1" transform="translate(23.5 164.02) rotate(-110.74)"><tspan x="0" y="0"> </tspan></text>
  <text class="cls-1" transform="translate(23.03 162.8) rotate(-110.13)"><tspan x="0" y="0">i</tspan></text>
  <text class="cls-1" transform="translate(22.67 161.81) rotate(-109.39)"><tspan x="0" y="0">s</tspan></text>
  <text class="cls-1" transform="translate(22.09 160.16) rotate(-108.58)"><tspan x="0" y="0"> </tspan></text>
  <text class="cls-1" transform="translate(21.68 158.93) rotate(-107.91)"><tspan x="0" y="0">f</tspan></text>
  <text class="cls-1" transform="translate(21.26 157.67) rotate(-106.86)"><tspan x="0" y="0">o</tspan></text>
  <text class="cls-1" transform="translate(20.52 155.2) rotate(-105.75)"><tspan x="0" y="0">r</tspan></text>
  <text class="cls-1" transform="translate(20.09 153.7) rotate(-104.81)"><tspan x="0" y="0">c</tspan></text>
  <text class="cls-1" transform="translate(19.57 151.74) rotate(-103.65)"><tspan x="0" y="0">e</tspan></text>
  <text class="cls-1" transform="translate(19.02 149.45) rotate(-102.34)"><tspan x="0" y="0">d</tspan></text>
  <text class="cls-1" transform="translate(18.47 146.93) rotate(-101.31)"><tspan x="0" y="0"> </tspan></text>
  <text class="cls-1" transform="translate(18.22 145.67) rotate(-100.66)"><tspan x="0" y="0">t</tspan></text>
  <text class="cls-1" transform="translate(17.99 144.47) rotate(-99.64)"><tspan x="0" y="0">o</tspan></text>
  <text class="cls-1" transform="translate(17.57 141.96) rotate(-98.62)"><tspan x="0" y="0"> </tspan></text>
  <text class="cls-1" transform="translate(17.36 140.65) rotate(-97.58)"><tspan x="0" y="0">o</tspan></text>
  <text class="cls-1" transform="translate(17.02 138.11) rotate(-96.23)"><tspan x="0" y="0">b</tspan></text>
  <text class="cls-1" transform="translate(16.75 135.56) rotate(-95.08)"><tspan x="0" y="0">s</tspan></text>
  <text class="cls-1" transform="translate(16.59 133.83) rotate(-94.09)"><tspan x="0" y="0">c</tspan></text>
  <text class="cls-1" transform="translate(16.45 131.79) rotate(-92.93)"><tspan x="0" y="0">u</tspan></text>
  <text class="cls-1" transform="translate(16.33 129.49) rotate(-91.9)"><tspan x="0" y="0">r</tspan></text>
  <text class="cls-1" transform="translate(16.28 127.92) rotate(-90.86)"><tspan x="0" y="0">e</tspan></text>
  <text class="cls-1" transform="translate(16.25 125.56) rotate(-89.9)"><tspan x="0" y="0"> </tspan></text>
  <text class="cls-1" transform="translate(16.24 124.23) rotate(-88.92)"><tspan x="0" y="0">h</tspan></text>
  <text class="cls-1" transform="translate(16.29 121.9) rotate(-88.03)"><tspan x="0" y="0">i</tspan></text>
  <text class="cls-1" transform="translate(16.33 120.84) rotate(-87.29)"><tspan x="0" y="0">s</tspan></text>
  <text class="cls-1" transform="translate(16.41 119.12) rotate(-86.49)"><tspan x="0" y="0"> </tspan></text>
  <text class="cls-1" transform="translate(16.49 117.8) rotate(-85.87)"><tspan x="0" y="0">i</tspan></text>
  <text class="cls-1" transform="translate(16.56 116.74) rotate(-84.91)"><tspan x="0" y="0">d</tspan></text>
  <text class="cls-1" transform="translate(16.79 114.17) rotate(-83.6)"><tspan x="0" y="0">e</tspan></text>
  <text class="cls-1" transform="translate(17.05 111.84) rotate(-82.38)"><tspan x="0" y="0">n</tspan></text>
  <text class="cls-1" transform="translate(17.37 109.52) rotate(-81.46)"><tspan x="0" y="0">t</tspan></text>
  <text class="cls-1" transform="translate(17.54 108.35) rotate(-80.87)"><tspan x="0" y="0">i</tspan></text>
  <text class="cls-1" transform="translate(17.71 107.3) rotate(-80.28)"><tspan x="0" y="0">t</tspan></text>
  <text class="cls-1" transform="translate(17.9 106.16) rotate(-79.37)"><tspan x="0" y="0">y</tspan></text>
  <text class="cls-1" transform="translate(18.33 103.88) rotate(-78.41)"><tspan x="0" y="0"> </tspan></text>
  <text class="cls-1" transform="translate(18.6 102.59) rotate(-77.79)"><tspan x="0" y="0">i</tspan></text>
  <text class="cls-1" transform="translate(18.82 101.54) rotate(-76.9)"><tspan x="0" y="0">n</tspan></text>
  <text class="cls-1" transform="translate(19.36 99.26) rotate(-75.93)"><tspan x="0" y="0"> </tspan></text>
  <text class="cls-1" transform="translate(19.67 98) rotate(-74.93)"><tspan x="0" y="0">o</tspan></text>
  <text class="cls-1" transform="translate(20.34 95.53) rotate(-73.84)"><tspan x="0" y="0">r</tspan></text>
  <text class="cls-1" transform="translate(20.77 94.01) rotate(-72.76)"><tspan x="0" y="0">d</tspan></text>
  <text class="cls-1" transform="translate(21.53 91.56) rotate(-71.47)"><tspan x="0" y="0">e</tspan></text>
  <text class="cls-1" transform="translate(22.29 89.32) rotate(-70.44)"><tspan x="0" y="0">r</tspan></text>
  <text class="cls-1" transform="translate(22.82 87.83) rotate(-69.68)"><tspan x="0" y="0"> </tspan></text>
  <text class="cls-1" transform="translate(23.28 86.57) rotate(-69.02)"><tspan x="0" y="0">t</tspan></text>
  <text class="cls-1" transform="translate(23.7 85.47) rotate(-68.03)"><tspan x="0" y="0">o</tspan></text>
  <text class="cls-1" transform="translate(24.67 83.08) rotate(-67.01)"><tspan x="0" y="0"> </tspan></text>
  <text class="cls-1" transform="translate(25.18 81.87) rotate(-66.25)"><tspan x="0" y="0">r</tspan></text>
  <text class="cls-1" transform="translate(25.8 80.45) rotate(-65.23)"><tspan x="0" y="0">e</tspan></text>
  <text class="cls-1" transform="translate(26.76 78.37) rotate(-64.08)"><tspan x="0" y="0">v</tspan></text>
  <text class="cls-1" transform="translate(27.67 76.5) rotate(-62.94)"><tspan x="0" y="0">e</tspan></text>
  <text class="cls-1" transform="translate(28.74 74.4) rotate(-61.65)"><tspan x="0" y="0">a</tspan></text>
  <text class="cls-1" transform="translate(29.96 72.16) rotate(-60.7)"><tspan x="0" y="0">l</tspan></text>
  <text class="cls-1" transform="translate(30.49 71.21) rotate(-60.06)"><tspan x="0" y="0"> </tspan></text>
  <text class="cls-1" transform="translate(31.14 70.07) rotate(-59.44)"><tspan x="0" y="0">i</tspan></text>
  <text class="cls-1" transform="translate(31.69 69.15) rotate(-58.84)"><tspan x="0" y="0">t</tspan></text>
  <text class="cls-1" transform="translate(32.29 68.16) rotate(-58.2)"><tspan x="0" y="0">.</tspan></text>
  <text class="cls-1" transform="translate(32.98 67.04) rotate(-57.5)"><tspan x="0" y="0"> </tspan></text>
  <text class="cls-1" transform="translate(33.67 65.94) rotate(-56.33)"><tspan x="0" y="0">H</tspan></text>
  <text class="cls-1" transform="translate(35.42 63.33) rotate(-54.88)"><tspan x="0" y="0">e</tspan></text>
  <text class="cls-1" transform="translate(36.79 61.38) rotate(-53.9)"><tspan x="0" y="0"> </tspan></text>
  <text class="cls-1" transform="translate(37.55 60.34) rotate(-52.94)"><tspan x="0" y="0">e</tspan></text>
  <text class="cls-1" transform="translate(38.97 58.45) rotate(-51.69)"><tspan x="0" y="0">n</tspan></text>
  <text class="cls-1" transform="translate(40.42 56.61) rotate(-50.39)"><tspan x="0" y="0">a</tspan></text>
  <text class="cls-1" transform="translate(42.06 54.63) rotate(-49.17)"><tspan x="0" y="0">c</tspan></text>
  <text class="cls-1" transform="translate(43.39 53.1) rotate(-48.32)"><tspan x="0" y="0">t</tspan></text>
  <text class="cls-1" transform="translate(44.17 52.22) rotate(-47.55)"><tspan x="0" y="0">s</tspan></text>
  <text class="cls-1" transform="translate(45.34 50.95) rotate(-46.74)"><tspan x="0" y="0"> </tspan></text>
  <text class="cls-1" transform="translate(46.25 49.98) rotate(-46.08)"><tspan x="0" y="0">t</tspan></text>
  <text class="cls-1" transform="translate(47.11 49.08) rotate(-45.1)"><tspan x="0" y="0">h</tspan></text>
  <text class="cls-1" transform="translate(48.75 47.43) rotate(-43.86)"><tspan x="0" y="0">e</tspan></text>
  <text class="cls-1" transform="translate(50.47 45.79) rotate(-42.88)"><tspan x="0" y="0"> </tspan></text>
  <text class="cls-1" transform="translate(51.44 44.89) rotate(-42.25)"><tspan x="0" y="0">i</tspan></text>
  <text class="cls-1" transform="translate(52.2 44.18) rotate(-41.07)"><tspan x="0" y="0">m</tspan></text>
  <text class="cls-1" transform="translate(54.81 41.92) rotate(-39.46)"><tspan x="0" y="0">p</tspan></text>
  <text class="cls-1" transform="translate(56.77 40.3) rotate(-38.12)"><tspan x="0" y="0">o</tspan></text>
  <text class="cls-1" transform="translate(58.81 38.71) rotate(-36.97)"><tspan x="0" y="0">s</tspan></text>
  <text class="cls-1" transform="translate(60.17 37.68) rotate(-36.07)"><tspan x="0" y="0">s</tspan></text>
  <text class="cls-1" transform="translate(61.58 36.65) rotate(-35.32)"><tspan x="0" y="0">i</tspan></text>
  <text class="cls-1" transform="translate(62.43 36.04) rotate(-34.38)"><tspan x="0" y="0">b</tspan></text>
  <text class="cls-1" transform="translate(64.55 34.6) rotate(-33.43)"><tspan x="0" y="0">l</tspan></text>
  <text class="cls-1" transform="translate(65.44 34.01) rotate(-32.52)"><tspan x="0" y="0">e</tspan></text>
  <text class="cls-1" transform="translate(67.44 32.74) rotate(-31.56)"><tspan x="0" y="0"> </tspan></text>
  <text class="cls-1" transform="translate(68.57 32.04) rotate(-30.76)"><tspan x="0" y="0">s</tspan></text>
  <text class="cls-1" transform="translate(70.04 31.16) rotate(-29.65)"><tspan x="0" y="0">p</tspan></text>
  <text class="cls-1" transform="translate(72.28 29.9) rotate(-28.71)"><tspan x="0" y="0">l</tspan></text>
  <text class="cls-1" transform="translate(73.22 29.38) rotate(-28.49)"><tspan x="0" y="0">i</tspan><tspan x="1.04" y=".01">t</tspan></text>
  <text class="cls-1" transform="translate(75.3 28.28) rotate(-26.63)"><tspan x="0" y="0">:</tspan></text>
  <text class="cls-1" transform="translate(76.49 27.68) rotate(-26.18)"><tspan x="0" y="0"> </tspan></text>
  <text class="cls-1" transform="translate(77.65 27.1) rotate(-25.18)"><tspan x="0" y="0">a</tspan></text>
  <text class="cls-1" transform="translate(79.99 26.01) rotate(-24.16)"><tspan x="0" y="0"> </tspan></text>
  <text class="cls-1" transform="translate(81.19 25.47) rotate(-23.37)"><tspan x="0" y="0">s</tspan></text>
  <text class="cls-1" transform="translate(82.76 24.78) rotate(-22.25)"><tspan x="0" y="0">o</tspan></text>
  <text class="cls-1" transform="translate(85.15 23.81) rotate(-20.96)"><tspan x="0" y="0">u</tspan></text>
  <text class="cls-1" transform="translate(87.32 22.98) rotate(-20.07)"><tspan x="0" y="0">l</tspan></text>
  <text class="cls-1" transform="translate(88.33 22.61) rotate(-19.44)"><tspan x="0" y="0"> </tspan></text>
  <text class="cls-1" transform="translate(89.55 22.17) rotate(-18.22)"><tspan x="0" y="0">w</tspan></text>
  <text class="cls-1" transform="translate(92.69 21.15) rotate(-17.07)"><tspan x="0" y="0">i</tspan></text>
  <text class="cls-1" transform="translate(93.71 20.83) rotate(-16.48)"><tspan x="0" y="0">t</tspan></text>
  <text class="cls-1" transform="translate(94.91 20.48) rotate(-15.5)"><tspan x="0" y="0">h</tspan></text>
  <text class="cls-1" transform="translate(97.16 19.86) rotate(-14.54)"><tspan x="0" y="0"> </tspan></text>
  <text class="cls-1" transform="translate(98.46 19.52) rotate(-13.56)"><tspan x="0" y="0">n</tspan></text>
  <text class="cls-1" transform="translate(100.71 18.97) rotate(-12.26)"><tspan x="0" y="0">o</tspan></text>
  <text class="cls-1" transform="translate(103.21 18.43) rotate(-11.24)"><tspan x="0" y="0"> </tspan></text>
  <text class="cls-1" transform="translate(104.52 18.17) rotate(-10.34)"><tspan x="0" y="0">c</tspan></text>
  <text class="cls-1" transform="translate(106.52 17.8) rotate(-9.12)"><tspan x="0" y="0">o</tspan></text>
  <text class="cls-1" transform="translate(109.06 17.4) rotate(-7.82)"><tspan x="0" y="0">n</tspan></text>
  <text class="cls-1" transform="translate(111.37 17.08) rotate(-6.89)"><tspan x="0" y="0">t</tspan></text>
  <text class="cls-1" transform="translate(112.57 16.93) rotate(-5.88)"><tspan x="0" y="0">a</tspan></text>
  <text class="cls-1" transform="translate(115.11 16.68) rotate(-4.92)"><tspan x="0" y="0">i</tspan></text>
  <text class="cls-1" transform="translate(116.16 16.58) rotate(-4.02)"><tspan x="0" y="0">n</tspan></text>
  <text class="cls-1" transform="translate(118.5 16.42) rotate(-2.77)"><tspan x="0" y="0">e</tspan></text>
  <text class="cls-1" transform="translate(120.86 16.31) rotate(-1.73)"><tspan x="0" y="0">r</tspan></text>
  <text class="cls-1" transform="translate(122.24 16.26) rotate(-1.07)"><tspan x="0" y="0">.</tspan></text>
</svg>