<?xml version="1.0" encoding="UTF-8"?>
<svg id="Layer_8" data-name="Layer 8" xmlns="http://www.w3.org/2000/svg" viewBox="0 0 250 250">
  <defs>
    <style>
      .cls-1 {
        fill: #231f20;
        font-family: Futura-Medium, Futura;
        font-size: 2.6px;
        font-weight: 500;
      }
    </style>
  </defs>
  <text class="cls-1" transform="translate(140.1 167.36) rotate(161.24)"><tspan x="0" y="0">L</tspan></text>
  <text class="cls-1" transform="translate(139.03 167.73) rotate(162.71)"><tspan x="0" y="0">a</tspan></text>
  <text class="cls-1" transform="translate(137.52 168.2) rotate(164.61)"><tspan x="0" y="0">y</tspan></text>
  <text class="cls-1" transform="translate(136.22 168.56) rotate(166.33)"><tspan x="0" y="0">e</tspan></text>
  <text class="cls-1" transform="translate(134.82 168.89) rotate(167.87)"><tspan x="0" y="0">r</tspan></text>
  <text class="cls-1" transform="translate(133.91 169.09) rotate(168.95)"><tspan x="0" y="0"> </tspan></text>
  <text class="cls-1" transform="translate(133.13 169.25) rotate(170.48)"><tspan x="0" y="0">8</tspan></text>
  <text class="cls-1" transform="translate(131.55 169.51) rotate(172)"><tspan x="0" y="0"> </tspan></text>
  <text class="cls-1" transform="translate(130.76 169.62) rotate(173.01)"><tspan x="0" y="0">I</tspan></text>
  <text class="cls-1" transform="translate(130.01 169.72) rotate(174.49)"><tspan x="0" y="0">p</tspan></text>
  <text class="cls-1" transform="translate(128.46 169.86) rotate(176.16)"><tspan x="0" y="0">s</tspan></text>
  <text class="cls-1" transform="translate(127.43 169.93) rotate(177.72)"><tspan x="0" y="0">u</tspan></text>
  <text class="cls-1" transform="translate(126.03 170) rotate(179.93)"><tspan x="0" y="0">m</tspan></text>
  <text class="cls-1" transform="translate(123.99 169.99) rotate(-178.26)"><tspan x="0" y="0"> </tspan></text>
  <text class="cls-1" transform="translate(123.19 169.97) rotate(-177.01)"><tspan x="0" y="0">L</tspan></text>
  <text class="cls-1" transform="translate(122.04 169.91) rotate(-175.28)"><tspan x="0" y="0">o</tspan></text>
  <text class="cls-1" transform="translate(120.49 169.78) rotate(-173.66)"><tspan x="0" y="0">r</tspan></text>
  <text class="cls-1" transform="translate(119.57 169.68) rotate(-172.18)"><tspan x="0" y="0">e</tspan></text>
  <text class="cls-1" transform="translate(118.15 169.49) rotate(-169.97)"><tspan x="0" y="0">m</tspan></text>
  <text class="cls-1" transform="translate(116.13 169.12) rotate(-168.15)"><tspan x="0" y="0"> </tspan></text>
  <text class="cls-1" transform="translate(115.35 168.96) rotate(-167.16)"><tspan x="0" y="0">I</tspan></text>
  <text class="cls-1" transform="translate(114.62 168.8) rotate(-165.7)"><tspan x="0" y="0">p</tspan></text>
  <text class="cls-1" transform="translate(113.13 168.41) rotate(-164.06)"><tspan x="0" y="0">s</tspan></text>
  <text class="cls-1" transform="translate(112.13 168.13) rotate(-162.52)"><tspan x="0" y="0">u</tspan></text>
  <text class="cls-1" transform="translate(110.79 167.72) rotate(-160.33)"><tspan x="0" y="0">m</tspan></text>
  <text class="cls-1" transform="translate(108.87 167.02) rotate(-158.54)"><tspan x="0" y="0"> </tspan></text>
  <text class="cls-1" transform="translate(108.12 166.73) rotate(-157.3)"><tspan x="0" y="0">L</tspan></text>
  <text class="cls-1" transform="translate(107.06 166.29) rotate(-155.59)"><tspan x="0" y="0">o</tspan></text>
  <text class="cls-1" transform="translate(105.66 165.65) rotate(-154.01)"><tspan x="0" y="0">r</tspan></text>
  <text class="cls-1" transform="translate(104.8 165.23) rotate(-152.52)"><tspan x="0" y="0">e</tspan></text>
  <text class="cls-1" transform="translate(103.55 164.59) rotate(-150.34)"><tspan x="0" y="0">m</tspan></text>
  <text class="cls-1" transform="translate(101.77 163.57) rotate(-148.54)"><tspan x="0" y="0"> </tspan></text>
  <text class="cls-1" transform="translate(101.1 163.15) rotate(-147.56)"><tspan x="0" y="0">I</tspan></text>
  <text class="cls-1" transform="translate(100.46 162.75) rotate(-146.1)"><tspan x="0" y="0">p</tspan></text>
  <text class="cls-1" transform="translate(99.16 161.87) rotate(-144.43)"><tspan x="0" y="0">s</tspan></text>
  <text class="cls-1" transform="translate(98.31 161.27) rotate(-142.88)"><tspan x="0" y="0">u</tspan></text>
  <text class="cls-1" transform="translate(97.18 160.43) rotate(-140.68)"><tspan x="0" y="0">m</tspan></text>
  <text class="cls-1" transform="translate(95.63 159.14) rotate(-138.9)"><tspan x="0" y="0"> </tspan></text>
  <text class="cls-1" transform="translate(95.01 158.61) rotate(-137.64)"><tspan x="0" y="0">L</tspan></text>
  <text class="cls-1" transform="translate(94.18 157.85) rotate(-135.94)"><tspan x="0" y="0">o</tspan></text>
  <text class="cls-1" transform="translate(93.06 156.77) rotate(-134.33)"><tspan x="0" y="0">r</tspan></text>
  <text class="cls-1" transform="translate(92.39 156.08) rotate(-132.8)"><tspan x="0" y="0">e</tspan></text>
  <text class="cls-1" transform="translate(91.43 155.05) rotate(-130.6)"><tspan x="0" y="0">m</tspan></text>
  <text class="cls-1" transform="translate(90.11 153.5) rotate(-128.79)"><tspan x="0" y="0"> </tspan></text>
  <text class="cls-1" transform="translate(89.6 152.87) rotate(-127.77)"><tspan x="0" y="0">I</tspan></text>
  <text class="cls-1" transform="translate(89.14 152.28) rotate(-126.3)"><tspan x="0" y="0">p</tspan></text>
  <text class="cls-1" transform="translate(88.22 151.03) rotate(-124.64)"><tspan x="0" y="0">s</tspan></text>
  <text class="cls-1" transform="translate(87.62 150.16) rotate(-123.05)"><tspan x="0" y="0">u</tspan></text>
  <text class="cls-1" transform="translate(86.85 148.99) rotate(-120.85)"><tspan x="0" y="0">m</tspan></text>
  <text class="cls-1" transform="translate(85.82 147.24) rotate(-119.05)"><tspan x="0" y="0"> </tspan></text>
  <text class="cls-1" transform="translate(85.42 146.53) rotate(-117.79)"><tspan x="0" y="0">L</tspan></text>
  <text class="cls-1" transform="translate(84.89 145.54) rotate(-116.1)"><tspan x="0" y="0">o</tspan></text>
  <text class="cls-1" transform="translate(84.21 144.13) rotate(-114.5)"><tspan x="0" y="0">r</tspan></text>
  <text class="cls-1" transform="translate(83.81 143.27) rotate(-113)"><tspan x="0" y="0">e</tspan></text>
  <text class="cls-1" transform="translate(83.25 141.96) rotate(-110.83)"><tspan x="0" y="0">m</tspan></text>
  <text class="cls-1" transform="translate(82.54 140.07) rotate(-108.77)"><tspan x="0" y="0"> </tspan></text>
  <text class="cls-1" transform="translate(82.28 139.31) rotate(-108.11)"><tspan x="0" y="0">I</tspan></text>
  <text class="cls-1" transform="translate(82.04 138.59) rotate(-106.66)"><tspan x="0" y="0">p</tspan></text>
  <text class="cls-1" transform="translate(81.6 137.11) rotate(-105.02)"><tspan x="0" y="0">s</tspan></text>
  <text class="cls-1" transform="translate(81.33 136.1) rotate(-103.47)"><tspan x="0" y="0">u</tspan></text>
  <text class="cls-1" transform="translate(80.99 134.74) rotate(-101.28)"><tspan x="0" y="0">m</tspan></text>
  <text class="cls-1" transform="translate(80.6 132.74) rotate(-99.25)"><tspan x="0" y="0">L</tspan></text>
  <text class="cls-1" transform="translate(80.41 131.61) rotate(-97.52)"><tspan x="0" y="0">o</tspan></text>
  <text class="cls-1" transform="translate(80.22 130.07) rotate(-95.91)"><tspan x="0" y="0">r</tspan></text>
  <text class="cls-1" transform="translate(80.12 129.14) rotate(-94.42)"><tspan x="0" y="0">e</tspan></text>
  <text class="cls-1" transform="translate(80 127.72) rotate(-92.19)"><tspan x="0" y="0">m</tspan></text>
  <text class="cls-1" transform="translate(79.93 125.68) rotate(-90.38)"><tspan x="0" y="0"> </tspan></text>
  <text class="cls-1" transform="translate(79.93 124.87) rotate(-89.36)"><tspan x="0" y="0">I</tspan></text>
  <text class="cls-1" transform="translate(79.93 124.1) rotate(-87.87)"><tspan x="0" y="0">p</tspan></text>
  <text class="cls-1" transform="translate(79.99 122.58) rotate(-86.24)"><tspan x="0" y="0">s</tspan></text>
  <text class="cls-1" transform="translate(80.06 121.54) rotate(-84.66)"><tspan x="0" y="0">u</tspan></text>
  <text class="cls-1" transform="translate(80.18 120.12) rotate(-82.44)"><tspan x="0" y="0">m</tspan></text>
  <text class="cls-1" transform="translate(80.45 118.12) rotate(-80.44)"><tspan x="0" y="0">L</tspan></text>
  <text class="cls-1" transform="translate(80.64 116.98) rotate(-78.71)"><tspan x="0" y="0">o</tspan></text>
  <text class="cls-1" transform="translate(80.95 115.46) rotate(-77.12)"><tspan x="0" y="0">r</tspan></text>
  <text class="cls-1" transform="translate(81.16 114.53) rotate(-75.61)"><tspan x="0" y="0">e</tspan></text>
  <text class="cls-1" transform="translate(81.51 113.16) rotate(-73.42)"><tspan x="0" y="0">m</tspan></text>
  <text class="cls-1" transform="translate(82.1 111.2) rotate(-71.62)"><tspan x="0" y="0"> </tspan></text>
  <text class="cls-1" transform="translate(82.35 110.45) rotate(-70.63)"><tspan x="0" y="0">I</tspan></text>
  <text class="cls-1" transform="translate(82.59 109.74) rotate(-69.18)"><tspan x="0" y="0">p</tspan></text>
  <text class="cls-1" transform="translate(83.15 108.29) rotate(-67.54)"><tspan x="0" y="0">s</tspan></text>
  <text class="cls-1" transform="translate(83.55 107.32) rotate(-65.97)"><tspan x="0" y="0">u</tspan></text>
  <text class="cls-1" transform="translate(84.11 106.03) rotate(-63.8)"><tspan x="0" y="0">m</tspan></text>
  <text class="cls-1" transform="translate(85.02 104.21) rotate(-61.79)"><tspan x="0" y="0">L</tspan></text>
  <text class="cls-1" transform="translate(85.56 103.2) rotate(-60.08)"><tspan x="0" y="0">o</tspan></text>
  <text class="cls-1" transform="translate(86.33 101.86) rotate(-58.5)"><tspan x="0" y="0">r</tspan></text>
  <text class="cls-1" transform="translate(86.83 101.05) rotate(-57)"><tspan x="0" y="0">e</tspan></text>
  <text class="cls-1" transform="translate(87.59 99.86) rotate(-54.81)"><tspan x="0" y="0">m</tspan></text>
  <text class="cls-1" transform="translate(88.78 98.19) rotate(-53)"><tspan x="0" y="0"> </tspan></text>
  <text class="cls-1" transform="translate(89.26 97.55) rotate(-52.01)"><tspan x="0" y="0">I</tspan></text>
  <text class="cls-1" transform="translate(89.72 96.95) rotate(-50.55)"><tspan x="0" y="0">p</tspan></text>
  <text class="cls-1" transform="translate(90.71 95.76) rotate(-48.9)"><tspan x="0" y="0">s</tspan></text>
  <text class="cls-1" transform="translate(91.39 94.98) rotate(-47.34)"><tspan x="0" y="0">u</tspan></text>
  <text class="cls-1" transform="translate(92.35 93.93) rotate(-45.12)"><tspan x="0" y="0">m</tspan></text>
  <text class="cls-1" transform="translate(93.78 92.5) rotate(-43.1)"><tspan x="0" y="0">L</tspan></text>
  <text class="cls-1" transform="translate(94.6 91.72) rotate(-41.39)"><tspan x="0" y="0">o</tspan></text>
  <text class="cls-1" transform="translate(95.78 90.69) rotate(-39.76)"><tspan x="0" y="0">r</tspan></text>
  <text class="cls-1" transform="translate(96.5 90.09) rotate(-38.26)"><tspan x="0" y="0">e</tspan></text>
  <text class="cls-1" transform="translate(97.61 89.2) rotate(-36.04)"><tspan x="0" y="0">m</tspan></text>
  <text class="cls-1" transform="translate(99.28 88.01) rotate(-34.21)"><tspan x="0" y="0"> </tspan></text>
  <text class="cls-1" transform="translate(99.92 87.57) rotate(-33.23)"><tspan x="0" y="0">I</tspan></text>
  <text class="cls-1" transform="translate(100.55 87.15) rotate(-31.75)"><tspan x="0" y="0">p</tspan></text>
  <text class="cls-1" transform="translate(101.87 86.33) rotate(-30.09)"><tspan x="0" y="0">s</tspan></text>
  <text class="cls-1" transform="translate(102.78 85.8) rotate(-28.52)"><tspan x="0" y="0">u</tspan></text>
  <text class="cls-1" transform="translate(104.02 85.12) rotate(-26.31)"><tspan x="0" y="0">m</tspan></text>
  <text class="cls-1" transform="translate(105.84 84.23) rotate(-24.32)"><tspan x="0" y="0">L</tspan></text>
  <text class="cls-1" transform="translate(106.89 83.75) rotate(-22.6)"><tspan x="0" y="0">o</tspan></text>
  <text class="cls-1" transform="translate(108.32 83.17) rotate(-21.03)"><tspan x="0" y="0">r</tspan></text>
  <text class="cls-1" transform="translate(109.2 82.81) rotate(-18.77)"><tspan x="0" y="0">e</tspan></text>
  <text class="cls-1" transform="translate(110.55 82.34) rotate(-17.38)"><tspan x="0" y="0">m</tspan></text>
  <text class="cls-1" transform="translate(112.49 81.74) rotate(-15.61)"><tspan x="0" y="0"> </tspan></text>
  <text class="cls-1" transform="translate(113.26 81.52) rotate(-14.62)"><tspan x="0" y="0">I</tspan></text>
  <text class="cls-1" transform="translate(113.98 81.33) rotate(-13.17)"><tspan x="0" y="0">p</tspan></text>
  <text class="cls-1" transform="translate(115.5 80.98) rotate(-11.5)"><tspan x="0" y="0">s</tspan></text>
  <text class="cls-1" transform="translate(116.52 80.77) rotate(-9.95)"><tspan x="0" y="0">u</tspan></text>
  <text class="cls-1" transform="translate(117.9 80.52) rotate(-7.75)"><tspan x="0" y="0">m</tspan></text>
  <text class="cls-1" transform="translate(119.92 80.25) rotate(-5.71)"><tspan x="0" y="0">L</tspan></text>
  <text class="cls-1" transform="translate(121.07 80.13) rotate(-3.97)"><tspan x="0" y="0">o</tspan></text>
  <text class="cls-1" transform="translate(122.61 80.03) rotate(-2.37)"><tspan x="0" y="0">r</tspan></text>
  <text class="cls-1" transform="translate(123.55 79.99) rotate(-.87)"><tspan x="0" y="0">e</tspan></text>
  <text class="cls-1" transform="translate(124.96 79.96) rotate(1.34)"><tspan x="0" y="0">m</tspan></text>
  <text class="cls-1" transform="translate(127.02 80.02) rotate(3.19)"><tspan x="0" y="0"> </tspan></text>
  <text class="cls-1" transform="translate(127.79 80.06) rotate(4.15)"><tspan x="0" y="0">I</tspan></text>
  <text class="cls-1" transform="translate(128.56 80.11) rotate(5.64)"><tspan x="0" y="0">p</tspan></text>
  <text class="cls-1" transform="translate(130.1 80.27) rotate(7.3)"><tspan x="0" y="0">s</tspan></text>
  <text class="cls-1" transform="translate(131.14 80.4) rotate(8.86)"><tspan x="0" y="0">u</tspan></text>
  <text class="cls-1" transform="translate(132.53 80.61) rotate(11.07)"><tspan x="0" y="0">m</tspan></text>
  <text class="cls-1" transform="translate(134.54 81.01) rotate(13.1)"><tspan x="0" y="0">L</tspan></text>
  <text class="cls-1" transform="translate(135.63 81.26) rotate(14.78)"><tspan x="0" y="0">o</tspan></text>
  <text class="cls-1" transform="translate(137.15 81.67) rotate(16.41)"><tspan x="0" y="0">r</tspan></text>
  <text class="cls-1" transform="translate(138.03 81.92) rotate(17.87)"><tspan x="0" y="0">e</tspan></text>
  <text class="cls-1" transform="translate(139.41 82.36) rotate(20.1)"><tspan x="0" y="0">m</tspan></text>
  <text class="cls-1" transform="translate(141.33 83.07) rotate(21.89)"><tspan x="0" y="0"> </tspan></text>
  <text class="cls-1" transform="translate(142.07 83.37) rotate(22.87)"><tspan x="0" y="0">I</tspan></text>
  <text class="cls-1" transform="translate(142.76 83.66) rotate(24.32)"><tspan x="0" y="0">p</tspan></text>
  <text class="cls-1" transform="translate(144.16 84.29) rotate(25.95)"><tspan x="0" y="0">s</tspan></text>
  <text class="cls-1" transform="translate(145.12 84.76) rotate(27.53)"><tspan x="0" y="0">u</tspan></text>
  <text class="cls-1" transform="translate(146.37 85.4) rotate(29.71)"><tspan x="0" y="0">m</tspan></text>
  <text class="cls-1" transform="translate(148.12 86.41) rotate(31.48)"><tspan x="0" y="0"> </tspan></text>
  <text class="cls-1" transform="translate(148.8 86.82) rotate(32.7)"><tspan x="0" y="0">L</tspan></text>
  <text class="cls-1" transform="translate(149.76 87.44) rotate(34.42)"><tspan x="0" y="0">o</tspan></text>
  <text class="cls-1" transform="translate(151.04 88.32) rotate(36)"><tspan x="0" y="0">r</tspan></text>
  <text class="cls-1" transform="translate(151.81 88.87) rotate(37.51)"><tspan x="0" y="0">e</tspan></text>
  <text class="cls-1" transform="translate(152.94 89.73) rotate(39.71)"><tspan x="0" y="0">m</tspan></text>
  <text class="cls-1" transform="translate(154.51 91.05) rotate(41.53)"><tspan x="0" y="0"> </tspan></text>
  <text class="cls-1" transform="translate(155.11 91.58) rotate(42.53)"><tspan x="0" y="0">I</tspan></text>
  <text class="cls-1" transform="translate(155.65 92.07) rotate(43.97)"><tspan x="0" y="0">p</tspan></text>
  <text class="cls-1" transform="translate(156.77 93.15) rotate(45.63)"><tspan x="0" y="0">s</tspan></text>
  <text class="cls-1" transform="translate(157.5 93.9) rotate(47.2)"><tspan x="0" y="0">u</tspan></text>
  <text class="cls-1" transform="translate(158.46 94.92) rotate(49.4)"><tspan x="0" y="0">m</tspan></text>
  <text class="cls-1" transform="translate(159.79 96.49) rotate(51.23)"><tspan x="0" y="0"> </tspan></text>
  <text class="cls-1" transform="translate(160.29 97.12) rotate(52.5)"><tspan x="0" y="0">L</tspan></text>
  <text class="cls-1" transform="translate(160.98 98.01) rotate(54.21)"><tspan x="0" y="0">o</tspan></text>
  <text class="cls-1" transform="translate(161.89 99.28) rotate(55.83)"><tspan x="0" y="0">r</tspan></text>
  <text class="cls-1" transform="translate(162.41 100.03) rotate(57.31)"><tspan x="0" y="0">e</tspan></text>
  <text class="cls-1" transform="translate(163.2 101.25) rotate(59.55)"><tspan x="0" y="0">m</tspan></text>
  <text class="cls-1" transform="translate(164.22 103) rotate(61.35)"><tspan x="0" y="0"> </tspan></text>
  <text class="cls-1" transform="translate(164.6 103.7) rotate(62.34)"><tspan x="0" y="0">I</tspan></text>
  <text class="cls-1" transform="translate(164.96 104.39) rotate(63.83)"><tspan x="0" y="0">p</tspan></text>
  <text class="cls-1" transform="translate(165.64 105.77) rotate(65.46)"><tspan x="0" y="0">s</tspan></text>
  <text class="cls-1" transform="translate(166.07 106.71) rotate(67)"><tspan x="0" y="0">u</tspan></text>
  <text class="cls-1" transform="translate(166.63 108.01) rotate(69.17)"><tspan x="0" y="0">m</tspan></text>
  <text class="cls-1" transform="translate(167.35 109.92) rotate(71.24)"><tspan x="0" y="0"> </tspan></text>
  <text class="cls-1" transform="translate(167.61 110.68) rotate(72.16)"><tspan x="0" y="0">L</tspan></text>
  <text class="cls-1" transform="translate(167.96 111.76) rotate(73.34)"><tspan x="0" y="0">I</tspan></text>
  <text class="cls-1" transform="translate(168.18 112.48) rotate(74.79)"><tspan x="0" y="0">p</tspan></text>
  <text class="cls-1" transform="translate(168.58 113.96) rotate(76.42)"><tspan x="0" y="0">s</tspan></text>
  <text class="cls-1" transform="translate(168.83 114.99) rotate(78)"><tspan x="0" y="0">u</tspan></text>
  <text class="cls-1" transform="translate(169.13 116.37) rotate(80.21)"><tspan x="0" y="0">m</tspan></text>
  <text class="cls-1" transform="translate(169.47 118.37) rotate(82.23)"><tspan x="0" y="0">L</tspan></text>
  <text class="cls-1" transform="translate(169.62 119.5) rotate(83.95)"><tspan x="0" y="0">o</tspan></text>
  <text class="cls-1" transform="translate(169.78 121.06) rotate(85.58)"><tspan x="0" y="0">r</tspan></text>
  <text class="cls-1" transform="translate(169.86 121.99) rotate(87.07)"><tspan x="0" y="0">e</tspan></text>
  <text class="cls-1" transform="translate(169.94 123.42) rotate(89.31)"><tspan x="0" y="0">m</tspan></text>
  <text class="cls-1" transform="translate(169.95 125.46) rotate(91.12)"><tspan x="0" y="0"> </tspan></text>
  <text class="cls-1" transform="translate(169.94 126.25) rotate(92.11)"><tspan x="0" y="0">I</tspan></text>
  <text class="cls-1" transform="translate(169.92 127) rotate(93.58)"><tspan x="0" y="0">p</tspan></text>
  <text class="cls-1" transform="translate(169.81 128.55) rotate(95.25)"><tspan x="0" y="0">s</tspan></text>
  <text class="cls-1" transform="translate(169.72 129.59) rotate(96.82)"><tspan x="0" y="0">u</tspan></text>
  <text class="cls-1" transform="translate(169.55 131) rotate(98.21)"><tspan x="0" y="0">I</tspan></text>
  <text class="cls-1" transform="translate(169.44 131.74) rotate(99.17)"><tspan x="0" y="0">I</tspan></text>
  <text class="cls-1" transform="translate(169.33 132.49) rotate(100.64)"><tspan x="0" y="0">p</tspan></text>
  <text class="cls-1" transform="translate(169.04 134) rotate(102.28)"><tspan x="0" y="0">s</tspan></text>
  <text class="cls-1" transform="translate(168.82 135.02) rotate(103.83)"><tspan x="0" y="0">u</tspan></text>
  <text class="cls-1" transform="translate(168.49 136.38) rotate(106.02)"><tspan x="0" y="0">m</tspan></text>
  <text class="cls-1" transform="translate(167.92 138.34) rotate(108.04)"><tspan x="0" y="0">L</tspan></text>
  <text class="cls-1" transform="translate(167.56 139.44) rotate(109.28)"><tspan x="0" y="0"> </tspan></text>
  <text class="cls-1" transform="translate(167.3 140.19) rotate(110.27)"><tspan x="0" y="0">I</tspan></text>
  <text class="cls-1" transform="translate(167.04 140.9) rotate(111.72)"><tspan x="0" y="0">p</tspan></text>
  <text class="cls-1" transform="translate(166.47 142.32) rotate(113.34)"><tspan x="0" y="0">s</tspan></text>
  <text class="cls-1" transform="translate(166.05 143.3) rotate(114.92)"><tspan x="0" y="0">u</tspan></text>
  <text class="cls-1" transform="translate(165.47 144.58) rotate(117.1)"><tspan x="0" y="0">m</tspan></text>
  <text class="cls-1" transform="translate(164.53 146.39) rotate(118.89)"><tspan x="0" y="0"> </tspan></text>
  <text class="cls-1" transform="translate(164.15 147.07) rotate(119.88)"><tspan x="0" y="0"> </tspan></text>
  <text class="cls-1" transform="translate(163.75 147.77) rotate(120.9)"><tspan x="0" y="0"> </tspan></text>
  <text class="cls-1" transform="translate(163.34 148.45) rotate(122.12)"><tspan x="0" y="0">L</tspan></text>
  <text class="cls-1" transform="translate(162.75 149.41) rotate(123.82)"><tspan x="0" y="0">o</tspan></text>
  <text class="cls-1" transform="translate(161.87 150.71) rotate(125.42)"><tspan x="0" y="0">r</tspan></text>
  <text class="cls-1" transform="translate(161.31 151.5) rotate(126.78)"><tspan x="0" y="0">L</tspan></text>
  <text class="cls-1" transform="translate(160.64 152.4) rotate(128.46)"><tspan x="0" y="0">o</tspan></text>
  <text class="cls-1" transform="translate(159.67 153.61) rotate(130.06)"><tspan x="0" y="0">r</tspan></text>
  <text class="cls-1" transform="translate(159.06 154.35) rotate(131.58)"><tspan x="0" y="0">e</tspan></text>
  <text class="cls-1" transform="translate(158.1 155.42) rotate(133.01)"><tspan x="0" y="0"> </tspan></text>
  <text class="cls-1" transform="translate(157.56 156) rotate(133.97)"><tspan x="0" y="0">t</tspan></text>
  <text class="cls-1" transform="translate(157.05 156.53) rotate(135.37)"><tspan x="0" y="0">h</tspan></text>
  <text class="cls-1" transform="translate(156.03 157.54) rotate(137.2)"><tspan x="0" y="0">e</tspan></text>
  <text class="cls-1" transform="translate(155 158.49) rotate(139.01)"><tspan x="0" y="0">e</tspan></text>
  <text class="cls-1" transform="translate(153.92 159.43) rotate(140.84)"><tspan x="0" y="0">n</tspan></text>
  <text class="cls-1" transform="translate(152.84 160.32) rotate(142.72)"><tspan x="0" y="0">d</tspan></text>
  <text class="cls-1" transform="translate(151.6 161.26) rotate(144.23)"><tspan x="0" y="0"> </tspan></text>
  <text class="cls-1" transform="translate(150.95 161.72) rotate(145.25)"><tspan x="0" y="0"> </tspan></text>
  <text class="cls-1" transform="translate(150.29 162.18) rotate(146.28)"><tspan x="0" y="0"> </tspan></text>
  <text class="cls-1" transform="translate(149.62 162.63) rotate(147.31)"><tspan x="0" y="0"> </tspan></text>
  <text class="cls-1" transform="translate(148.96 163.05) rotate(148.32)"><tspan x="0" y="0"> </tspan></text>
  <text class="cls-1" transform="translate(148.29 163.47) rotate(149.32)"><tspan x="0" y="0"> </tspan></text>
  <text class="cls-1" transform="translate(147.6 163.88) rotate(150.36)"><tspan x="0" y="0"> </tspan></text>
</svg>