<?xml version="1.0" encoding="UTF-8"?>
<svg id="Layer_9_2" data-name="Layer 9_2" xmlns="http://www.w3.org/2000/svg" viewBox="0 0 250 250">
  <defs>
    <style>
      .cls-1 {
        font-family: Futura-CondensedExtraBold, Futura;
        font-weight: 700;
      }

      .cls-1, .cls-2 {
        fill: #231f20;
        font-size: 2.7px;
      }

      .cls-2 {
        font-family: Futura-Medium, Futura;
        font-weight: 500;
      }
    </style>
  </defs>
  <text class="cls-2" transform="translate(134.85 172.78) rotate(169.23)"><tspan x="0" y="0">T</tspan></text>
  <text class="cls-2" transform="translate(133.57 173.03) rotate(170.66)"><tspan x="0" y="0">h</tspan></text>
  <text class="cls-2" transform="translate(132.11 173.26) rotate(172.38)"><tspan x="0" y="0">e</tspan></text>
  <text class="cls-2" transform="translate(130.65 173.46) rotate(173.72)"><tspan x="0" y="0"> </tspan></text>
  <text class="cls-2" transform="translate(129.85 173.54) rotate(174.65)"><tspan x="0" y="0">f</tspan></text>
  <text class="cls-2" transform="translate(128.99 173.63) rotate(176.14)"><tspan x="0" y="0">a</tspan></text>
  <text class="cls-2" transform="translate(127.41 173.73) rotate(177.8)"><tspan x="0" y="0">c</tspan></text>
  <text class="cls-2" transform="translate(126.13 173.79) rotate(179.51)"><tspan x="0" y="0">a</tspan></text>
  <text class="cls-2" transform="translate(124.52 173.8) rotate(-178.58)"><tspan x="0" y="0">d</tspan></text>
  <text class="cls-2" transform="translate(122.91 173.76) rotate(-176.75)"><tspan x="0" y="0">e</tspan></text>
  <text class="cls-2" transform="translate(121.44 173.67) rotate(-175.4)"><tspan x="0" y="0"> </tspan></text>
  <text class="cls-2" transform="translate(120.6 173.61) rotate(-173.93)"><tspan x="0" y="0">o</tspan></text>
  <text class="cls-2" transform="translate(119 173.43) rotate(-172.51)"><tspan x="0" y="0">f</tspan></text>
  <text class="cls-2" transform="translate(118.22 173.33) rotate(-171.56)"><tspan x="0" y="0"> </tspan></text>
  <text class="cls-2" transform="translate(117.42 173.22) rotate(-170.13)"><tspan x="0" y="0">a</tspan></text>
  <text class="cls-2" transform="translate(115.82 172.93) rotate(-168.68)"><tspan x="0" y="0"> </tspan></text>
  <text class="cls-2" transform="translate(115.01 172.78) rotate(-167.23)"><tspan x="0" y="0">b</tspan></text>
  <text class="cls-2" transform="translate(113.46 172.43) rotate(-165.45)"><tspan x="0" y="0">u</tspan></text>
  <text class="cls-2" transform="translate(112.03 172.05) rotate(-164.18)"><tspan x="0" y="0">i</tspan></text>
  <text class="cls-2" transform="translate(111.39 171.87) rotate(-163.4)"><tspan x="0" y="0">l</tspan></text>
  <text class="cls-2" transform="translate(110.75 171.68) rotate(-162.06)"><tspan x="0" y="0">d</tspan></text>
  <text class="cls-2" transform="translate(109.22 171.18) rotate(-160.71)"><tspan x="0" y="0">i</tspan></text>
  <text class="cls-2" transform="translate(108.59 170.97) rotate(-159.46)"><tspan x="0" y="0">n</tspan></text>
  <text class="cls-2" transform="translate(107.21 170.45) rotate(-157.65)"><tspan x="0" y="0">g</tspan></text>
  <text class="cls-2" transform="translate(105.73 169.84) rotate(-156.24)"><tspan x="0" y="0"> </tspan></text>
  <text class="cls-2" transform="translate(104.99 169.51) rotate(-155.38)"><tspan x="0" y="0">i</tspan></text>
  <text class="cls-2" transform="translate(104.38 169.23) rotate(-154.35)"><tspan x="0" y="0">s</tspan></text>
  <text class="cls-2" transform="translate(103.41 168.76) rotate(-153.23)"><tspan x="0" y="0"> </tspan></text>
  <text class="cls-2" transform="translate(102.66 168.4) rotate(-151.5)"><tspan x="0" y="0">m</tspan></text>
  <text class="cls-2" transform="translate(100.8 167.38) rotate(-149.32)"><tspan x="0" y="0">o</tspan></text>
  <text class="cls-2" transform="translate(99.42 166.56) rotate(-147.81)"><tspan x="0" y="0">r</tspan></text>
  <text class="cls-2" transform="translate(98.57 166.03) rotate(-146.35)"><tspan x="0" y="0">e</tspan></text>
  <text class="cls-2" transform="translate(97.35 165.22) rotate(-145.03)"><tspan x="0" y="0"> </tspan></text>
  <text class="cls-2" transform="translate(96.66 164.73) rotate(-143.58)"><tspan x="0" y="0">p</tspan></text>
  <text class="cls-2" transform="translate(95.37 163.78) rotate(-141.78)"><tspan x="0" y="0">e</tspan></text>
  <text class="cls-2" transform="translate(94.2 162.86) rotate(-140.33)"><tspan x="0" y="0">r</tspan></text>
  <text class="cls-2" transform="translate(93.41 162.21) rotate(-138.47)"><tspan x="0" y="0">m</tspan></text>
  <text class="cls-2" transform="translate(91.82 160.8) rotate(-136.36)"><tspan x="0" y="0">e</tspan></text>
  <text class="cls-2" transform="translate(90.74 159.77) rotate(-134.53)"><tspan x="0" y="0">a</tspan></text>
  <text class="cls-2" transform="translate(89.63 158.65) rotate(-132.68)"><tspan x="0" y="0">b</tspan></text>
  <text class="cls-2" transform="translate(88.54 157.46) rotate(-131.33)"><tspan x="0" y="0">l</tspan></text>
  <text class="cls-2" transform="translate(88.09 156.95) rotate(-130.06)"><tspan x="0" y="0">e</tspan></text>
  <text class="cls-2" transform="translate(87.13 155.81) rotate(-128.69)"><tspan x="0" y="0"> </tspan></text>
  <text class="cls-2" transform="translate(86.62 155.16) rotate(-127.77)"><tspan x="0" y="0">t</tspan></text>
  <text class="cls-2" transform="translate(86.14 154.55) rotate(-126.42)"><tspan x="0" y="0">h</tspan></text>
  <text class="cls-2" transform="translate(85.27 153.37) rotate(-124.6)"><tspan x="0" y="0">a</tspan></text>
  <text class="cls-2" transform="translate(84.36 152.05) rotate(-122.78)"><tspan x="0" y="0">n</tspan></text>
  <text class="cls-2" transform="translate(83.56 150.8) rotate(-121.41)"><tspan x="0" y="0"> </tspan></text>
  <text class="cls-2" transform="translate(83.14 150.12) rotate(-119.99)"><tspan x="0" y="0">o</tspan></text>
  <text class="cls-2" transform="translate(82.34 148.73) rotate(-118.17)"><tspan x="0" y="0">n</tspan></text>
  <text class="cls-2" transform="translate(81.63 147.41) rotate(-116.39)"><tspan x="0" y="0">e</tspan></text>
  <text class="cls-2" transform="translate(80.98 146.1) rotate(-115.05)"><tspan x="0" y="0"> </tspan></text>
  <text class="cls-2" transform="translate(80.62 145.35) rotate(-113.31)"><tspan x="0" y="0">m</tspan></text>
  <text class="cls-2" transform="translate(79.79 143.39) rotate(-111.64)"><tspan x="0" y="0">i</tspan></text>
  <text class="cls-2" transform="translate(79.55 142.8) rotate(-110.34)"><tspan x="0" y="0">g</tspan></text>
  <text class="cls-2" transform="translate(78.99 141.29) rotate(-108.53)"><tspan x="0" y="0">h</tspan></text>
  <text class="cls-2" transform="translate(78.52 139.88) rotate(-107.22)"><tspan x="0" y="0">t</tspan></text>
  <text class="cls-2" transform="translate(78.3 139.18) rotate(-106.32)"><tspan x="0" y="0"> </tspan></text>
  <text class="cls-2" transform="translate(78.07 138.38) rotate(-104.96)"><tspan x="0" y="0">e</tspan></text>
  <text class="cls-2" transform="translate(77.7 137.01) rotate(-103.3)"><tspan x="0" y="0">x</tspan></text>
  <text class="cls-2" transform="translate(77.34 135.56) rotate(-100.77)"><tspan x="0" y="0">p</tspan></text>
  <text class="cls-2" transform="translate(77.04 133.99) rotate(-99.75)"><tspan x="0" y="0">e</tspan></text>
  <text class="cls-2" transform="translate(76.78 132.51) rotate(-98.11)"><tspan x="0" y="0">c</tspan></text>
  <text class="cls-2" transform="translate(76.61 131.26) rotate(-96.96)"><tspan x="0" y="0">t</tspan></text>
  <text class="cls-2" transform="translate(76.52 130.51) rotate(-96.03)"><tspan x="0" y="0">.</tspan></text>
  <text class="cls-2" transform="translate(76.43 129.71) rotate(-95.08)"><tspan x="0" y="0"> </tspan></text>
  <text class="cls-2" transform="translate(76.34 128.89) rotate(-92.92)"><tspan x="0" y="0">W</tspan></text>
  <text class="cls-2" transform="translate(76.21 126.02) rotate(-90.82)"><tspan x="0" y="0">i</tspan></text>
  <text class="cls-2" transform="translate(76.2 125.34) rotate(-89.55)"><tspan x="0" y="0">n</tspan></text>
  <text class="cls-2" transform="translate(76.21 123.9) rotate(-87.76)"><tspan x="0" y="0">d</tspan></text>
  <text class="cls-2" transform="translate(76.27 122.28) rotate(-85.84)"><tspan x="0" y="0">o</tspan></text>
  <text class="cls-2" transform="translate(76.38 120.72) rotate(-83.71)"><tspan x="0" y="0">w</tspan></text>
  <text class="cls-2" transform="translate(76.61 118.67) rotate(-81.85)"><tspan x="0" y="0">s</tspan></text>
  <text class="cls-2" transform="translate(76.77 117.58) rotate(-80.7)"><tspan x="0" y="0"> </tspan></text>
  <text class="cls-2" transform="translate(76.89 116.79) rotate(-79.29)"><tspan x="0" y="0">p</tspan></text>
  <text class="cls-2" transform="translate(77.2 115.2) rotate(-77.74)"><tspan x="0" y="0">r</tspan></text>
  <text class="cls-2" transform="translate(77.4 114.25) rotate(-76.23)"><tspan x="0" y="0">o</tspan></text>
  <text class="cls-2" transform="translate(77.78 112.72) rotate(-74.53)"><tspan x="0" y="0">v</tspan></text>
  <text class="cls-2" transform="translate(78.14 111.43) rotate(-73.36)"><tspan x="0" y="0">i</tspan></text>
  <text class="cls-2" transform="translate(78.32 110.79) rotate(-72.01)"><tspan x="0" y="0">d</tspan></text>
  <text class="cls-2" transform="translate(78.82 109.26) rotate(-70.2)"><tspan x="0" y="0">e</tspan></text>
  <text class="cls-2" transform="translate(79.32 107.88) rotate(-68.86)"><tspan x="0" y="0"> </tspan></text>
  <text class="cls-2" transform="translate(79.62 107.09) rotate(-67.48)"><tspan x="0" y="0">e</tspan></text>
  <text class="cls-2" transform="translate(80.18 105.73) rotate(-65.76)"><tspan x="0" y="0">n</tspan></text>
  <text class="cls-2" transform="translate(80.79 104.39) rotate(-64.48)"><tspan x="0" y="0">t</tspan></text>
  <text class="cls-2" transform="translate(81.11 103.72) rotate(-63.45)"><tspan x="0" y="0">r</tspan></text>
  <text class="cls-2" transform="translate(81.6 102.73) rotate(-61.89)"><tspan x="0" y="0">y</tspan></text>
  <text class="cls-2" transform="translate(82.3 101.44) rotate(-60.54)"><tspan x="0" y="0"> </tspan></text>
  <text class="cls-2" transform="translate(82.7 100.73) rotate(-59.13)"><tspan x="0" y="0">p</tspan></text>
  <text class="cls-2" transform="translate(83.52 99.35) rotate(-57.25)"><tspan x="0" y="0">o</tspan></text>
  <text class="cls-2" transform="translate(84.39 98) rotate(-55.93)"><tspan x="0" y="0">i</tspan></text>
  <text class="cls-2" transform="translate(84.76 97.45) rotate(-54.69)"><tspan x="0" y="0">n</tspan></text>
  <text class="cls-2" transform="translate(85.61 96.26) rotate(-53.41)"><tspan x="0" y="0">t</tspan></text>
  <text class="cls-2" transform="translate(86.05 95.67) rotate(-52.34)"><tspan x="0" y="0">s</tspan></text>
  <text class="cls-2" transform="translate(86.71 94.81) rotate(-51.23)"><tspan x="0" y="0"> </tspan></text>
  <text class="cls-2" transform="translate(87.24 94.14) rotate(-49.77)"><tspan x="0" y="0">a</tspan></text>
  <text class="cls-2" transform="translate(88.28 92.92) rotate(-47.97)"><tspan x="0" y="0">n</tspan></text>
  <text class="cls-2" transform="translate(89.25 91.84) rotate(-46.19)"><tspan x="0" y="0">d</tspan></text>
  <text class="cls-2" transform="translate(90.37 90.67) rotate(-44.75)"><tspan x="0" y="0"> </tspan></text>
  <text class="cls-2" transform="translate(90.96 90.09) rotate(-43.84)"><tspan x="0" y="0">t</tspan></text>
  <text class="cls-2" transform="translate(91.51 89.56) rotate(-42.5)"><tspan x="0" y="0">h</tspan></text>
  <text class="cls-2" transform="translate(92.6 88.56) rotate(-40.75)"><tspan x="0" y="0">e</tspan></text>
  <text class="cls-2" transform="translate(93.73 87.58) rotate(-39.38)"><tspan x="0" y="0"> </tspan></text>
  <text class="cls-2" transform="translate(94.37 87.06) rotate(-37.95)"><tspan x="0" y="0">q</tspan></text>
  <text class="cls-2" transform="translate(95.65 86.06) rotate(-36.11)"><tspan x="0" y="0">u</tspan></text>
  <text class="cls-2" transform="translate(96.82 85.2) rotate(-34.31)"><tspan x="0" y="0">a</tspan></text>
  <text class="cls-2" transform="translate(98.17 84.29) rotate(-32.95)"><tspan x="0" y="0">l</tspan></text>
  <text class="cls-2" transform="translate(98.73 83.93) rotate(-32.16)"><tspan x="0" y="0">i</tspan></text>
  <text class="cls-2" transform="translate(99.28 83.58) rotate(-31.34)"><tspan x="0" y="0">t</tspan></text>
  <text class="cls-2" transform="translate(99.91 83.19) rotate(-30.04)"><tspan x="0" y="0">y</tspan></text>
  <text class="cls-2" transform="translate(101.16 82.47) rotate(-28.71)"><tspan x="0" y="0"> </tspan></text>
  <text class="cls-2" transform="translate(101.9 82.06) rotate(-27.24)"><tspan x="0" y="0">o</tspan></text>
  <text class="cls-2" transform="translate(103.34 81.33) rotate(-25.81)"><tspan x="0" y="0">f</tspan></text>
  <text class="cls-2" transform="translate(104.04 80.99) rotate(-24.88)"><tspan x="0" y="0"> </tspan></text>
  <text class="cls-2" transform="translate(104.8 80.64) rotate(-23.93)"><tspan x="0" y="0">t</tspan></text>
  <text class="cls-2" transform="translate(105.5 80.32) rotate(-22.59)"><tspan x="0" y="0">h</tspan></text>
  <text class="cls-2" transform="translate(106.87 79.75) rotate(-20.83)"><tspan x="0" y="0">e</tspan></text>
  <text class="cls-2" transform="translate(108.25 79.23) rotate(-19.48)"><tspan x="0" y="0"> </tspan></text>
  <text class="cls-2" transform="translate(109.02 78.95) rotate(-18.06)"><tspan x="0" y="0">b</tspan></text>
  <text class="cls-2" transform="translate(110.54 78.46) rotate(-16.55)"><tspan x="0" y="0">r</tspan></text>
  <text class="cls-2" transform="translate(111.56 78.16) rotate(-15.5)"><tspan x="0" y="0">i</tspan></text>
  <text class="cls-2" transform="translate(112.2 77.98) rotate(-14.37)"><tspan x="0" y="0">c</tspan></text>
  <text class="cls-2" transform="translate(113.5 77.65) rotate(-12.79)"><tspan x="0" y="0">k</tspan></text>
  <text class="cls-2" transform="translate(114.79 77.35) rotate(-10.77)"><tspan x="0" y="0">s</tspan></text>
  <text class="cls-2" transform="translate(115.87 77.14) rotate(-10.29)"><tspan x="0" y="0"> </tspan></text>
  <text class="cls-2" transform="translate(116.67 76.99) rotate(-8.88)"><tspan x="0" y="0">a</tspan></text>
  <text class="cls-2" transform="translate(118.26 76.75) rotate(-7.57)"><tspan x="0" y="0">l</tspan></text>
  <text class="cls-2" transform="translate(118.93 76.66) rotate(-6.78)"><tspan x="0" y="0">l</tspan></text>
  <text class="cls-2" transform="translate(119.59 76.57) rotate(-5.44)"><tspan x="0" y="0">o</tspan></text>
  <text class="cls-2" transform="translate(121.13 76.42) rotate(-3.35)"><tspan x="0" y="0">w</tspan></text>
  <text class="cls-2" transform="translate(123.21 76.3) rotate(-1.48)"><tspan x="0" y="0">s</tspan></text>
  <text class="cls-2" transform="translate(124.3 76.28) rotate(-.35)"><tspan x="0" y="0"> </tspan></text>
  <text class="cls-2" transform="translate(125.11 76.27) rotate(.59)"><tspan x="0" y="0">f</tspan></text>
  <text class="cls-2" transform="translate(125.95 76.28) rotate(2.06)"><tspan x="0" y="0">o</tspan></text>
  <text class="cls-2" transform="translate(127.57 76.34) rotate(3.62)"><tspan x="0" y="0">r</tspan></text>
  <text class="cls-2" transform="translate(128.56 76.4) rotate(4.69)"><tspan x="0" y="0"> </tspan></text>
  <text class="cls-2" transform="translate(129.39 76.47) rotate(5.63)"><tspan x="0" y="0">t</tspan></text>
  <text class="cls-2" transform="translate(130.18 76.55) rotate(7)"><tspan x="0" y="0">h</tspan></text>
  <text class="cls-2" transform="translate(131.61 76.72) rotate(8.72)"><tspan x="0" y="0">e</tspan></text>
  <text class="cls-2" transform="translate(133.08 76.95) rotate(10.09)"><tspan x="0" y="0"> </tspan></text>
  <text class="cls-2" transform="translate(133.89 77.09) rotate(11.45)"><tspan x="0" y="0">e</tspan></text>
  <text class="cls-2" transform="translate(135.3 77.38) rotate(13.16)"><tspan x="0" y="0">x</tspan></text>
  <text class="cls-2" transform="translate(136.7 77.7) rotate(14.73)"><tspan x="0" y="0">c</tspan></text>
  <text class="cls-2" transform="translate(138 78.04) rotate(16.43)"><tspan x="0" y="0">h</tspan></text>
  <text class="cls-2" transform="translate(139.42 78.46) rotate(18.25)"><tspan x="0" y="0">a</tspan></text>
  <text class="cls-2" transform="translate(140.95 78.97) rotate(20.06)"><tspan x="0" y="0">n</tspan></text>
  <text class="cls-2" transform="translate(142.32 79.47) rotate(21.85)"><tspan x="0" y="0">g</tspan></text>
  <text class="cls-2" transform="translate(143.8 80.06) rotate(23.66)"><tspan x="0" y="0">e</tspan></text>
  <text class="cls-2" transform="translate(145.16 80.66) rotate(25.01)"><tspan x="0" y="0"> </tspan></text>
  <text class="cls-2" transform="translate(145.9 81) rotate(26.42)"><tspan x="0" y="0">o</tspan></text>
  <text class="cls-2" transform="translate(147.35 81.72) rotate(27.84)"><tspan x="0" y="0">f</tspan></text>
  <text class="cls-2" transform="translate(148.04 82.09) rotate(28.78)"><tspan x="0" y="0"> </tspan></text>
  <text class="cls-2" transform="translate(148.79 82.5) rotate(30.14)"><tspan x="0" y="0">h</tspan></text>
  <text class="cls-2" transform="translate(150.05 83.23) rotate(31.85)"><tspan x="0" y="0">e</tspan></text>
  <text class="cls-2" transform="translate(151.3 84) rotate(33.65)"><tspan x="0" y="0">a</tspan></text>
  <text class="cls-2" transform="translate(152.64 84.9) rotate(35.01)"><tspan x="0" y="0">t</tspan></text>
  <text class="cls-2" transform="translate(153.26 85.34) rotate(35.95)"><tspan x="0" y="0"> </tspan></text>
  <text class="cls-2" transform="translate(153.92 85.82) rotate(36.89)"><tspan x="0" y="0">f</tspan></text>
  <text class="cls-2" transform="translate(154.54 86.28) rotate(37.92)"><tspan x="0" y="0">r</tspan></text>
  <text class="cls-2" transform="translate(155.31 86.87) rotate(39.41)"><tspan x="0" y="0">o</tspan></text>
  <text class="cls-2" transform="translate(156.56 87.89) rotate(41.6)"><tspan x="0" y="0">m</tspan></text>
  <text class="cls-2" transform="translate(158.15 89.32) rotate(43.34)"><tspan x="0" y="0"> </tspan></text>
  <text class="cls-2" transform="translate(158.76 89.89) rotate(44.26)"><tspan x="0" y="0">t</tspan></text>
  <text class="cls-2" transform="translate(159.31 90.42) rotate(45.6)"><tspan x="0" y="0">h</tspan></text>
  <text class="cls-2" transform="translate(160.33 91.47) rotate(47.32)"><tspan x="0" y="0">e</tspan></text>
  <text class="cls-2" transform="translate(161.35 92.58) rotate(48.71)"><tspan x="0" y="0"> </tspan></text>
  <text class="cls-2" transform="translate(161.9 93.19) rotate(50.14)"><tspan x="0" y="0">o</tspan></text>
  <text class="cls-2" transform="translate(162.93 94.43) rotate(51.94)"><tspan x="0" y="0">u</tspan></text>
  <text class="cls-2" transform="translate(163.82 95.58) rotate(53.23)"><tspan x="0" y="0">t</tspan></text>
  <text class="cls-2" transform="translate(164.28 96.18) rotate(54.57)"><tspan x="0" y="0">e</tspan></text>
  <text class="cls-2" transform="translate(165.13 97.39) rotate(56.04)"><tspan x="0" y="0">r</tspan></text>
  <text class="cls-2" transform="translate(165.7 98.23) rotate(57.14)"><tspan x="0" y="0"> </tspan></text>
  <text class="cls-2" transform="translate(166.15 98.91) rotate(58.83)"><tspan x="0" y="0">w</tspan></text>
  <text class="cls-2" transform="translate(167.19 100.64) rotate(60.96)"><tspan x="0" y="0">o</tspan></text>
  <text class="cls-2" transform="translate(167.97 102.04) rotate(62.49)"><tspan x="0" y="0">r</tspan></text>
  <text class="cls-2" transform="translate(168.45 102.98) rotate(63.54)"><tspan x="0" y="0">l</tspan></text>
  <text class="cls-2" transform="translate(168.76 103.58) rotate(64.9)"><tspan x="0" y="0">d</tspan></text>
  <text class="cls-2" transform="translate(169.43 105.04) rotate(66.34)"><tspan x="0" y="0">.</tspan></text>
  <text class="cls-2" transform="translate(169.76 105.79) rotate(67.3)"><tspan x="0" y="0"> </tspan></text>
  <text class="cls-1" transform="translate(170.08 106.54) rotate(68.47)"><tspan x="0" y="0">T</tspan></text>
  <text class="cls-1" transform="translate(170.51 107.62) rotate(70.02)"><tspan x="0" y="0">h</tspan></text>
  <text class="cls-1" transform="translate(171.02 109.02) rotate(71.76)"><tspan x="0" y="0">e</tspan></text>
  <text class="cls-1" transform="translate(171.47 110.41) rotate(73.09)"><tspan x="0" y="0"> </tspan></text>
  <text class="cls-1" transform="translate(171.73 111.23) rotate(74.5)"><tspan x="0" y="0">p</tspan></text>
  <text class="cls-1" transform="translate(172.12 112.67) rotate(76.22)"><tspan x="0" y="0">o</tspan></text>
  <text class="cls-1" transform="translate(172.47 114.1) rotate(77.38)"><tspan x="0" y="0">r</tspan></text>
  <text class="cls-1" transform="translate(172.71 115.16) rotate(79.23)"><tspan x="0" y="0">o</tspan></text>
  <text class="cls-1" transform="translate(172.98 116.6) rotate(80.71)"><tspan x="0" y="0">s</tspan></text>
  <text class="cls-1" transform="translate(173.17 117.78) rotate(81.84)"><tspan x="0" y="0">i</tspan></text>
  <text class="cls-1" transform="translate(173.28 118.53) rotate(82.81)"><tspan x="0" y="0">t</tspan></text>
  <text class="cls-1" transform="translate(173.4 119.43) rotate(84.15)"><tspan x="0" y="0">y</tspan></text>
  <text class="cls-1" transform="translate(173.53 120.81) rotate(85.44)"><tspan x="0" y="0"> </tspan></text>
  <text class="cls-1" transform="translate(173.6 121.6) rotate(86.77)"><tspan x="0" y="0">o</tspan></text>
  <text class="cls-1" transform="translate(173.68 123.09) rotate(88.18)"><tspan x="0" y="0">f</tspan></text>
  <text class="cls-1" transform="translate(173.71 124) rotate(89.2)"><tspan x="0" y="0"> </tspan></text>
  <text class="cls-1" transform="translate(173.72 124.82) rotate(90.23)"><tspan x="0" y="0">t</tspan></text>
  <text class="cls-1" transform="translate(173.72 125.78) rotate(91.71)"><tspan x="0" y="0">h</tspan></text>
  <text class="cls-1" transform="translate(173.68 127.26) rotate(93.45)"><tspan x="0" y="0">e</tspan></text>
  <text class="cls-1" transform="translate(173.59 128.72) rotate(94.78)"><tspan x="0" y="0"> </tspan></text>
  <text class="cls-1" transform="translate(173.52 129.51) rotate(96.12)"><tspan x="0" y="0">e</tspan></text>
  <text class="cls-1" transform="translate(173.37 130.92) rotate(97.8)"><tspan x="0" y="0">x</tspan></text>
  <text class="cls-1" transform="translate(173.18 132.35) rotate(99.52)"><tspan x="0" y="0">o</tspan></text>
  <text class="cls-1" transform="translate(172.93 133.81) rotate(101.1)"><tspan x="0" y="0">s</tspan></text>
  <text class="cls-1" transform="translate(172.7 135.01) rotate(102.72)"><tspan x="0" y="0">k</tspan></text>
  <text class="cls-1" transform="translate(172.38 136.43) rotate(104.42)"><tspan x="0" y="0">e</tspan></text>
  <text class="cls-1" transform="translate(172.01 137.84) rotate(105.73)"><tspan x="0" y="0">l</tspan></text>
  <text class="cls-1" transform="translate(171.81 138.57) rotate(107.03)"><tspan x="0" y="0">e</tspan></text>
  <text class="cls-1" transform="translate(171.38 139.96) rotate(108.42)"><tspan x="0" y="0">t</tspan></text>
  <text class="cls-1" transform="translate(171.09 140.85) rotate(109.85)"><tspan x="0" y="0">o</tspan></text>
  <text class="cls-1" transform="translate(170.58 142.26) rotate(111.62)"><tspan x="0" y="0">n</tspan></text>
  <text class="cls-2" transform="translate(170.04 143.62) rotate(112.95)"><tspan x="0" y="0"> </tspan></text>
  <text class="cls-2" transform="translate(169.71 144.39) rotate(113.83)"><tspan x="0" y="0">i</tspan></text>
  <text class="cls-2" transform="translate(169.44 145) rotate(114.86)"><tspan x="0" y="0">s</tspan></text>
  <text class="cls-2" transform="translate(168.99 145.98) rotate(115.98)"><tspan x="0" y="0"> </tspan></text>
  <text class="cls-2" transform="translate(168.63 146.72) rotate(117.19)"><tspan x="0" y="0">c</tspan></text>
  <text class="cls-2" transform="translate(168.04 147.86) rotate(118.54)"><tspan x="0" y="0">r</tspan></text>
  <text class="cls-2" transform="translate(167.55 148.77) rotate(120.02)"><tspan x="0" y="0">u</tspan></text>
  <text class="cls-2" transform="translate(166.81 150.05) rotate(121.64)"><tspan x="0" y="0">c</tspan></text>
  <text class="cls-2" transform="translate(166.15 151.12) rotate(122.75)"><tspan x="0" y="0">i</tspan></text>
  <text class="cls-2" transform="translate(165.79 151.68) rotate(124.07)"><tspan x="0" y="0">a</tspan></text>
  <text class="cls-2" transform="translate(164.89 153.01) rotate(125.4)"><tspan x="0" y="0">l</tspan></text>
  <text class="cls-2" transform="translate(164.49 153.57) rotate(126.29)"><tspan x="0" y="0"> </tspan></text>
  <text class="cls-2" transform="translate(164.01 154.22) rotate(127.19)"><tspan x="0" y="0">t</tspan></text>
  <text class="cls-2" transform="translate(163.55 154.84) rotate(128.6)"><tspan x="0" y="0">o</tspan></text>
  <text class="cls-2" transform="translate(162.55 156.09) rotate(130.01)"><tspan x="0" y="0"> </tspan></text>
  <text class="cls-2" transform="translate(162.02 156.71) rotate(130.91)"><tspan x="0" y="0">t</tspan></text>
  <text class="cls-2" transform="translate(161.5 157.32) rotate(132.29)"><tspan x="0" y="0">h</tspan></text>
  <text class="cls-2" transform="translate(160.52 158.4) rotate(134)"><tspan x="0" y="0">e</tspan></text>
  <text class="cls-2" transform="translate(159.48 159.47) rotate(135.36)"><tspan x="0" y="0"> </tspan></text>
  <text class="cls-2" transform="translate(158.89 160.05) rotate(136.72)"><tspan x="0" y="0">h</tspan></text>
  <text class="cls-2" transform="translate(157.83 161.06) rotate(138.45)"><tspan x="0" y="0">e</tspan></text>
  <text class="cls-2" transform="translate(156.72 162.04) rotate(140.27)"><tspan x="0" y="0">a</tspan></text>
  <text class="cls-2" transform="translate(155.48 163.06) rotate(141.6)"><tspan x="0" y="0">l</tspan></text>
  <text class="cls-2" transform="translate(154.98 163.47) rotate(142.4)"><tspan x="0" y="0">t</tspan></text>
  <text class="cls-2" transform="translate(154.33 163.96) rotate(143.8)"><tspan x="0" y="0">h</tspan></text>
  <text class="cls-2" transform="translate(153.16 164.82) rotate(145.14)"><tspan x="0" y="0"> </tspan></text>
  <text class="cls-2" transform="translate(152.49 165.29) rotate(146.56)"><tspan x="0" y="0">o</tspan></text>
  <text class="cls-2" transform="translate(151.12 166.19) rotate(148.02)"><tspan x="0" y="0">f</tspan></text>
  <text class="cls-2" transform="translate(150.46 166.6) rotate(148.97)"><tspan x="0" y="0"> </tspan></text>
  <text class="cls-2" transform="translate(149.76 167.02) rotate(149.88)"><tspan x="0" y="0">t</tspan></text>
  <text class="cls-2" transform="translate(149.08 167.42) rotate(151.25)"><tspan x="0" y="0">h</tspan></text>
  <text class="cls-2" transform="translate(147.78 168.13) rotate(153.01)"><tspan x="0" y="0">e</tspan></text>
  <text class="cls-2" transform="translate(146.47 168.8) rotate(154.37)"><tspan x="0" y="0"> </tspan></text>
  <text class="cls-2" transform="translate(145.73 169.16) rotate(155.8)"><tspan x="0" y="0">b</tspan></text>
  <text class="cls-2" transform="translate(144.26 169.82) rotate(157.62)"><tspan x="0" y="0">u</tspan></text>
  <text class="cls-2" transform="translate(142.9 170.37) rotate(158.87)"><tspan x="0" y="0">i</tspan></text>
  <text class="cls-2" transform="translate(142.28 170.61) rotate(159.66)"><tspan x="0" y="0">l</tspan></text>
  <text class="cls-2" transform="translate(141.66 170.85) rotate(160.99)"><tspan x="0" y="0">d</tspan></text>
  <text class="cls-2" transform="translate(140.14 171.37) rotate(162.33)"><tspan x="0" y="0">i</tspan></text>
  <text class="cls-2" transform="translate(139.5 171.58) rotate(163.59)"><tspan x="0" y="0">n</tspan></text>
  <text class="cls-2" transform="translate(138.11 171.99) rotate(165.36)"><tspan x="0" y="0">g</tspan></text>
  <text class="cls-2" transform="translate(136.55 172.39) rotate(166.76)"><tspan x="0" y="0">.</tspan></text>
  <text class="cls-2" transform="translate(135.75 172.57) rotate(167.38)"><tspan x="0" y="0"> </tspan></text>
</svg>