<?xml version="1.0" encoding="UTF-8"?>
<svg id="Layer_2" data-name="Layer 2" xmlns="http://www.w3.org/2000/svg" viewBox="0 0 250 250">
  <defs>
    <style>
      .cls-1 {
        fill: #231f20;
        font-family: Futura-Medium, Futura;
        font-size: 2px;
        font-weight: 500;
      }
    </style>
  </defs>
  <text class="cls-1" transform="translate(104.54 134.41) rotate(-112.02)"><tspan x="0" y="0">W</tspan></text>
  <text class="cls-1" transform="translate(103.77 132.46) rotate(-108.03)"><tspan x="0" y="0">h</tspan></text>
  <text class="cls-1" transform="translate(103.43 131.44) rotate(-105.28)"><tspan x="0" y="0">e</tspan></text>
  <text class="cls-1" transform="translate(103.15 130.4) rotate(-102.54)"><tspan x="0" y="0">n</tspan></text>
  <text class="cls-1" transform="translate(102.92 129.34) rotate(-100.35)"><tspan x="0" y="0"> </tspan></text>
  <text class="cls-1" transform="translate(102.8 128.75) rotate(-98.08)"><tspan x="0" y="0">a</tspan></text>
  <text class="cls-1" transform="translate(102.64 127.57) rotate(-95.77)"><tspan x="0" y="0"> </tspan></text>
  <text class="cls-1" transform="translate(102.58 126.97) rotate(-93.47)"><tspan x="0" y="0">b</tspan></text>
  <text class="cls-1" transform="translate(102.5 125.81) rotate(-90.49)"><tspan x="0" y="0">o</tspan></text>
  <text class="cls-1" transform="translate(102.5 124.61) rotate(-87.56)"><tspan x="0" y="0">n</tspan></text>
  <text class="cls-1" transform="translate(102.54 123.55) rotate(-84.83)"><tspan x="0" y="0">e</tspan></text>
  <text class="cls-1" transform="translate(102.64 122.46) rotate(-82.67)"><tspan x="0" y="0"> </tspan></text>
  <text class="cls-1" transform="translate(102.72 121.86) rotate(-81.29)"><tspan x="0" y="0">i</tspan></text>
  <text class="cls-1" transform="translate(102.79 121.38) rotate(-79.65)"><tspan x="0" y="0">s</tspan></text>
  <text class="cls-1" transform="translate(102.94 120.59) rotate(-77.85)"><tspan x="0" y="0"> </tspan></text>
  <text class="cls-1" transform="translate(103.06 119.98) rotate(-75.54)"><tspan x="0" y="0">b</tspan></text>
  <text class="cls-1" transform="translate(103.36 118.84) rotate(-73.14)"><tspan x="0" y="0">r</tspan></text>
  <text class="cls-1" transform="translate(103.56 118.16) rotate(-70.75)"><tspan x="0" y="0">o</tspan></text>
  <text class="cls-1" transform="translate(103.95 117.04) rotate(-68.02)"><tspan x="0" y="0">k</tspan></text>
  <text class="cls-1" transform="translate(104.3 116.18) rotate(-65.54)"><tspan x="0" y="0">e</tspan></text>
  <text class="cls-1" transform="translate(104.75 115.18) rotate(-62.76)"><tspan x="0" y="0">n</tspan></text>
  <text class="cls-1" transform="translate(105.25 114.23) rotate(-60.66)"><tspan x="0" y="0"> </tspan></text>
  <text class="cls-1" transform="translate(105.55 113.69) rotate(-58.34)"><tspan x="0" y="0">a</tspan></text>
  <text class="cls-1" transform="translate(106.16 112.69) rotate(-55.49)"><tspan x="0" y="0">n</tspan></text>
  <text class="cls-1" transform="translate(106.78 111.8) rotate(-53.33)"><tspan x="0" y="0"> </tspan></text>
  <text class="cls-1" transform="translate(107.13 111.32) rotate(-51.07)"><tspan x="0" y="0">o</tspan></text>
  <text class="cls-1" transform="translate(107.87 110.4) rotate(-48.18)"><tspan x="0" y="0">u</tspan></text>
  <text class="cls-1" transform="translate(108.6 109.6) rotate(-46.12)"><tspan x="0" y="0">t</tspan></text>
  <text class="cls-1" transform="translate(108.98 109.19) rotate(-43.96)"><tspan x="0" y="0">e</tspan></text>
  <text class="cls-1" transform="translate(109.76 108.44) rotate(-41.66)"><tspan x="0" y="0">r</tspan></text>
  <text class="cls-1" transform="translate(110.3 107.96) rotate(-39.97)"><tspan x="0" y="0"> </tspan></text>
  <text class="cls-1" transform="translate(110.77 107.56) rotate(-37.96)"><tspan x="0" y="0">c</tspan></text>
  <text class="cls-1" transform="translate(111.52 106.98) rotate(-35.22)"><tspan x="0" y="0">a</tspan></text>
  <text class="cls-1" transform="translate(112.48 106.3) rotate(-32.7)"><tspan x="0" y="0">s</tspan></text>
  <text class="cls-1" transform="translate(113.14 105.88) rotate(-31.03)"><tspan x="0" y="0">t</tspan></text>
  <text class="cls-1" transform="translate(113.62 105.59) rotate(-29.54)"><tspan x="0" y="0"> </tspan></text>
  <text class="cls-1" transform="translate(114.14 105.3) rotate(-28.18)"><tspan x="0" y="0">i</tspan></text>
  <text class="cls-1" transform="translate(114.57 105.06) rotate(-26.55)"><tspan x="0" y="0">s</tspan></text>
  <text class="cls-1" transform="translate(115.28 104.72) rotate(-25.57)"><tspan x="0" y="0"> </tspan></text>
  <text class="cls-1" transform="translate(115.83 104.45) rotate(-22.55)"><tspan x="0" y="0">a</tspan></text>
  <text class="cls-1" transform="translate(116.91 104) rotate(-19.61)"><tspan x="0" y="0">p</tspan></text>
  <text class="cls-1" transform="translate(118.03 103.6) rotate(-16.58)"><tspan x="0" y="0">p</tspan></text>
  <text class="cls-1" transform="translate(119.15 103.27) rotate(-14.52)"><tspan x="0" y="0">l</tspan></text>
  <text class="cls-1" transform="translate(119.62 103.15) rotate(-13.26)"><tspan x="0" y="0">i</tspan></text>
  <text class="cls-1" transform="translate(120.11 103.03) rotate(-11.2)"><tspan x="0" y="0">e</tspan></text>
  <text class="cls-1" transform="translate(121.15 102.82) rotate(-8.34)"><tspan x="0" y="0">d</tspan></text>
  <text class="cls-1" transform="translate(122.33 102.65) rotate(-6.03)"><tspan x="0" y="0"> </tspan></text>
  <text class="cls-1" transform="translate(122.95 102.59) rotate(-4.53)"><tspan x="0" y="0">t</tspan></text>
  <text class="cls-1" transform="translate(123.48 102.54) rotate(-2.33)"><tspan x="0" y="0">o</tspan></text>
  <text class="cls-1" transform="translate(124.66 102.5) rotate(-.05)"><tspan x="0" y="0"> </tspan></text>
  <text class="cls-1" transform="translate(125.26 102.49) rotate(2.21)"><tspan x="0" y="0">a</tspan></text>
  <text class="cls-1" transform="translate(126.45 102.54) rotate(4.96)"><tspan x="0" y="0">c</tspan></text>
  <text class="cls-1" transform="translate(127.38 102.62) rotate(6.81)"><tspan x="0" y="0">t</tspan></text>
  <text class="cls-1" transform="translate(127.92 102.69) rotate(8.28)"><tspan x="0" y="0"> </tspan></text>
  <text class="cls-1" transform="translate(128.52 102.77) rotate(10.56)"><tspan x="0" y="0">a</tspan></text>
  <text class="cls-1" transform="translate(129.69 102.99) rotate(13.09)"><tspan x="0" y="0">s</tspan></text>
  <text class="cls-1" transform="translate(130.44 103.17) rotate(14.8)"><tspan x="0" y="0"> </tspan></text>
  <text class="cls-1" transform="translate(131.04 103.32) rotate(17.11)"><tspan x="0" y="0">a</tspan></text>
  <text class="cls-1" transform="translate(132.16 103.67) rotate(19.33)"><tspan x="0" y="0"> </tspan></text>
  <text class="cls-1" transform="translate(132.74 103.87) rotate(21.13)"><tspan x="0" y="0">s</tspan></text>
  <text class="cls-1" transform="translate(133.48 104.16) rotate(23.39)"><tspan x="0" y="0">k</tspan></text>
  <text class="cls-1" transform="translate(134.35 104.53) rotate(25.91)"><tspan x="0" y="0">e</tspan></text>
  <text class="cls-1" transform="translate(135.34 105.01) rotate(27.92)"><tspan x="0" y="0">l</tspan></text>
  <text class="cls-1" transform="translate(135.77 105.24) rotate(29.94)"><tspan x="0" y="0">e</tspan></text>
  <text class="cls-1" transform="translate(136.72 105.79) rotate(32.01)"><tspan x="0" y="0">t</tspan></text>
  <text class="cls-1" transform="translate(137.19 106.08) rotate(34.25)"><tspan x="0" y="0">o</tspan></text>
  <text class="cls-1" transform="translate(138.16 106.74) rotate(37.11)"><tspan x="0" y="0">n</tspan></text>
  <text class="cls-1" transform="translate(139.03 107.4) rotate(39.28)"><tspan x="0" y="0">,</tspan></text>
  <text class="cls-1" transform="translate(139.5 107.79) rotate(40.85)"><tspan x="0" y="0"> </tspan></text>
  <text class="cls-1" transform="translate(139.96 108.17) rotate(43.13)"><tspan x="0" y="0">b</tspan></text>
  <text class="cls-1" transform="translate(140.82 108.99) rotate(45.6)"><tspan x="0" y="0">r</tspan></text>
  <text class="cls-1" transform="translate(141.34 109.52) rotate(47.19)"><tspan x="0" y="0">i</tspan></text>
  <text class="cls-1" transform="translate(141.68 109.88) rotate(49.23)"><tspan x="0" y="0">n</tspan></text>
  <text class="cls-1" transform="translate(142.38 110.69) rotate(52.09)"><tspan x="0" y="0">g</tspan></text>
  <text class="cls-1" transform="translate(143.11 111.63) rotate(54.24)"><tspan x="0" y="0">i</tspan></text>
  <text class="cls-1" transform="translate(143.39 112.01) rotate(56.22)"><tspan x="0" y="0">n</tspan></text>
  <text class="cls-1" transform="translate(143.99 112.91) rotate(59.11)"><tspan x="0" y="0">g</tspan></text>
  <text class="cls-1" transform="translate(144.59 113.93) rotate(61.37)"><tspan x="0" y="0"> </tspan></text>
  <text class="cls-1" transform="translate(144.89 114.47) rotate(62.82)"><tspan x="0" y="0">t</tspan></text>
  <text class="cls-1" transform="translate(145.15 114.98) rotate(64.43)"><tspan x="0" y="0">h</tspan></text>
  <text class="cls-1" transform="translate(145.61 115.94) rotate(67.62)"><tspan x="0" y="0">e</tspan></text>
  <text class="cls-1" transform="translate(146.02 116.97) rotate(69.8)"><tspan x="0" y="0"> </tspan></text>
  <text class="cls-1" transform="translate(146.23 117.53) rotate(71.16)"><tspan x="0" y="0">i</tspan></text>
  <text class="cls-1" transform="translate(146.39 117.98) rotate(73.14)"><tspan x="0" y="0">n</tspan></text>
  <text class="cls-1" transform="translate(146.7 119.03) rotate(75.93)"><tspan x="0" y="0">n</tspan></text>
  <text class="cls-1" transform="translate(146.97 120.08) rotate(78.71)"><tspan x="0" y="0">e</tspan></text>
  <text class="cls-1" transform="translate(147.18 121.14) rotate(81.03)"><tspan x="0" y="0">r</tspan></text>
  <text class="cls-1" transform="translate(147.29 121.85) rotate(82.72)"><tspan x="0" y="0"> </tspan></text>
  <text class="cls-1" transform="translate(147.37 122.47) rotate(84.23)"><tspan x="0" y="0">t</tspan></text>
  <text class="cls-1" transform="translate(147.43 123) rotate(86.43)"><tspan x="0" y="0">o</tspan></text>
  <text class="cls-1" transform="translate(147.5 124.18) rotate(88.72)"><tspan x="0" y="0"> </tspan></text>
  <text class="cls-1" transform="translate(147.51 124.8) rotate(90.21)"><tspan x="0" y="0">t</tspan></text>
  <text class="cls-1" transform="translate(147.51 125.38) rotate(92.39)"><tspan x="0" y="0">h</tspan></text>
  <text class="cls-1" transform="translate(147.47 126.46) rotate(95.17)"><tspan x="0" y="0">e</tspan></text>
  <text class="cls-1" transform="translate(147.37 127.53) rotate(97.28)"><tspan x="0" y="0"> </tspan></text>
  <text class="cls-1" transform="translate(147.3 128.13) rotate(99.57)"><tspan x="0" y="0">o</tspan></text>
  <text class="cls-1" transform="translate(147.1 129.29) rotate(102.41)"><tspan x="0" y="0">u</tspan></text>
  <text class="cls-1" transform="translate(146.86 130.34) rotate(104.46)"><tspan x="0" y="0">t</tspan></text>
  <text class="cls-1" transform="translate(146.73 130.89) rotate(106.6)"><tspan x="0" y="0">e</tspan></text>
  <text class="cls-1" transform="translate(146.41 131.94) rotate(108.9)"><tspan x="0" y="0">r</tspan></text>
  <text class="cls-1" transform="translate(146.22 132.51) rotate(110.28)"><tspan x="0" y="0">.</tspan></text>
  <text class="cls-1" transform="translate(146.01 133.08) rotate(111.81)"><tspan x="0" y="0"> </tspan></text>
  <text class="cls-1" transform="translate(145.79 133.64) rotate(113.78)"><tspan x="0" y="0">T</tspan></text>
  <text class="cls-1" transform="translate(145.41 134.51) rotate(116.34)"><tspan x="0" y="0">h</tspan></text>
  <text class="cls-1" transform="translate(144.93 135.47) rotate(119.08)"><tspan x="0" y="0">e</tspan></text>
  <text class="cls-1" transform="translate(144.39 136.42) rotate(121.23)"><tspan x="0" y="0"> </tspan></text>
  <text class="cls-1" transform="translate(144.08 136.96) rotate(123.56)"><tspan x="0" y="0">p</tspan></text>
  <text class="cls-1" transform="translate(143.42 137.94) rotate(125.98)"><tspan x="0" y="0">r</tspan></text>
  <text class="cls-1" transform="translate(143 138.53) rotate(128.41)"><tspan x="0" y="0">o</tspan></text>
  <text class="cls-1" transform="translate(142.28 139.44) rotate(131.38)"><tspan x="0" y="0">b</tspan></text>
  <text class="cls-1" transform="translate(141.49 140.33) rotate(133.53)"><tspan x="0" y="0">l</tspan></text>
  <text class="cls-1" transform="translate(141.16 140.68) rotate(135.56)"><tspan x="0" y="0">e</tspan></text>
  <text class="cls-1" transform="translate(140.38 141.45) rotate(138.97)"><tspan x="0" y="0">m</tspan></text>
  <text class="cls-1" transform="translate(139.2 142.47) rotate(141.73)"><tspan x="0" y="0"> </tspan></text>
  <text class="cls-1" transform="translate(138.73 142.84) rotate(143.12)"><tspan x="0" y="0">i</tspan></text>
  <text class="cls-1" transform="translate(138.33 143.14) rotate(144.78)"><tspan x="0" y="0">s</tspan></text>
  <text class="cls-1" transform="translate(137.68 143.6) rotate(146.58)"><tspan x="0" y="0"> </tspan></text>
  <text class="cls-1" transform="translate(137.18 143.93) rotate(148.02)"><tspan x="0" y="0">t</tspan></text>
  <text class="cls-1" transform="translate(136.69 144.24) rotate(150.19)"><tspan x="0" y="0">h</tspan></text>
  <text class="cls-1" transform="translate(135.77 144.77) rotate(153)"><tspan x="0" y="0">a</tspan></text>
  <text class="cls-1" transform="translate(134.7 145.31) rotate(154.43)"><tspan x="0" y="0">t</tspan></text>
  <text class="cls-1" transform="translate(134.22 145.53) rotate(156.58)"><tspan x="0" y="0"> </tspan></text>
  <text class="cls-1" transform="translate(133.66 145.78) rotate(158.53)"><tspan x="0" y="0">c</tspan></text>
  <text class="cls-1" transform="translate(132.8 146.12) rotate(161.2)"><tspan x="0" y="0">a</tspan></text>
  <text class="cls-1" transform="translate(131.69 146.49) rotate(163.68)"><tspan x="0" y="0">s</tspan></text>
  <text class="cls-1" transform="translate(130.92 146.72) rotate(165.39)"><tspan x="0" y="0">t</tspan></text>
  <text class="cls-1" transform="translate(130.4 146.85) rotate(167.1)"><tspan x="0" y="0">s</tspan></text>
  <text class="cls-1" transform="translate(129.62 147.03) rotate(168.89)"><tspan x="0" y="0"> </tspan></text>
  <text class="cls-1" transform="translate(129.02 147.15) rotate(170.32)"><tspan x="0" y="0">i</tspan></text>
  <text class="cls-1" transform="translate(128.53 147.23) rotate(171.66)"><tspan x="0" y="0">t</tspan></text>
  <text class="cls-1" transform="translate(128.01 147.31) rotate(173.52)"><tspan x="0" y="0">c</tspan></text>
  <text class="cls-1" transform="translate(127.02 147.42) rotate(176.26)"><tspan x="0" y="0">h</tspan></text>
  <text class="cls-1" transform="translate(125.96 147.49) rotate(178.37)"><tspan x="0" y="0"> </tspan></text>
  <text class="cls-1" transform="translate(125.36 147.51) rotate(179.77)"><tspan x="0" y="0">l</tspan></text>
  <text class="cls-1" transform="translate(124.84 147.51) rotate(-178.92)"><tspan x="0" y="0">i</tspan></text>
  <text class="cls-1" transform="translate(124.38 147.51) rotate(-177.09)"><tspan x="0" y="0">k</tspan></text>
  <text class="cls-1" transform="translate(123.41 147.46) rotate(-174.48)"><tspan x="0" y="0">e</tspan></text>
  <text class="cls-1" transform="translate(122.32 147.35) rotate(-172.33)"><tspan x="0" y="0"> </tspan></text>
  <text class="cls-1" transform="translate(121.73 147.28) rotate(-169.57)"><tspan x="0" y="0">m</tspan></text>
  <text class="cls-1" transform="translate(120.21 147) rotate(-166.14)"><tspan x="0" y="0">a</tspan></text>
  <text class="cls-1" transform="translate(119.06 146.71) rotate(-163.15)"><tspan x="0" y="0">d</tspan></text>
  <text class="cls-1" transform="translate(117.94 146.37) rotate(-160.92)"><tspan x="0" y="0">.</tspan></text>
</svg>