<?xml version="1.0" encoding="UTF-8"?>
<svg id="Layer_19" data-name="Layer 19" xmlns="http://www.w3.org/2000/svg" viewBox="0 0 250 250">
  <defs>
    <style>
      .cls-1 {
        fill: #231f20;
        font-family: Futura-Medium, Futura;
        font-size: 3.7px;
        font-weight: 500;
      }
    </style>
  </defs>
  <text class="cls-1" transform="translate(48.59 164.89) rotate(-116.63)"><tspan x="0" y="0">L</tspan></text>
  <text class="cls-1" transform="translate(47.85 163.43) rotate(-115.76)"><tspan x="0" y="0">a</tspan></text>
  <text class="cls-1" transform="translate(46.87 161.4) rotate(-114.36)"><tspan x="0" y="0">y</tspan></text>
  <text class="cls-1" transform="translate(46.09 159.67) rotate(-113.09)"><tspan x="0" y="0">e</tspan></text>
  <text class="cls-1" transform="translate(45.29 157.79) rotate(-111.96)"><tspan x="0" y="0">r</tspan></text>
  <text class="cls-1" transform="translate(44.77 156.5) rotate(-111.13)"><tspan x="0" y="0"> </tspan></text>
  <text class="cls-1" transform="translate(44.36 155.45) rotate(-110)"><tspan x="0" y="0">1</tspan></text>
  <text class="cls-1" transform="translate(43.68 153.6) rotate(-108.69)"><tspan x="0" y="0">9</tspan></text>
  <text class="cls-1" transform="translate(42.96 151.46) rotate(-107.56)"><tspan x="0" y="0"> </tspan></text>
  <text class="cls-1" transform="translate(42.62 150.38) rotate(-106.82)"><tspan x="0" y="0">I</tspan></text>
  <text class="cls-1" transform="translate(42.3 149.34) rotate(-105.72)"><tspan x="0" y="0">p</tspan></text>
  <text class="cls-1" transform="translate(41.71 147.22) rotate(-104.49)"><tspan x="0" y="0">s</tspan></text>
  <text class="cls-1" transform="translate(41.33 145.76) rotate(-103.31)"><tspan x="0" y="0">u</tspan></text>
  <text class="cls-1" transform="translate(40.86 143.84) rotate(-101.68)"><tspan x="0" y="0">m</tspan></text>
  <text class="cls-1" transform="translate(40.28 140.98) rotate(-100.32)"><tspan x="0" y="0"> </tspan></text>
  <text class="cls-1" transform="translate(40.08 139.85) rotate(-99.39)"><tspan x="0" y="0">L</tspan></text>
  <text class="cls-1" transform="translate(39.81 138.25) rotate(-98.11)"><tspan x="0" y="0">o</tspan></text>
  <text class="cls-1" transform="translate(39.5 136.07) rotate(-96.92)"><tspan x="0" y="0">r</tspan></text>
  <text class="cls-1" transform="translate(39.34 134.74) rotate(-95.79)"><tspan x="0" y="0">e</tspan></text>
  <text class="cls-1" transform="translate(39.12 132.71) rotate(-94.14)"><tspan x="0" y="0">m</tspan></text>
  <text class="cls-1" transform="translate(38.93 129.81) rotate(-92.79)"><tspan x="0" y="0"> </tspan></text>
  <text class="cls-1" transform="translate(38.87 128.67) rotate(-92.05)"><tspan x="0" y="0">I</tspan></text>
  <text class="cls-1" transform="translate(38.83 127.6) rotate(-90.96)"><tspan x="0" y="0">p</tspan></text>
  <text class="cls-1" transform="translate(38.79 125.38) rotate(-89.72)"><tspan x="0" y="0">s</tspan></text>
  <text class="cls-1" transform="translate(38.8 123.91) rotate(-88.57)"><tspan x="0" y="0">u</tspan></text>
  <text class="cls-1" transform="translate(38.84 121.89) rotate(-86.92)"><tspan x="0" y="0">m</tspan></text>
  <text class="cls-1" transform="translate(39.01 118.99) rotate(-85.58)"><tspan x="0" y="0"> </tspan></text>
  <text class="cls-1" transform="translate(39.09 117.84) rotate(-84.65)"><tspan x="0" y="0">L</tspan></text>
  <text class="cls-1" transform="translate(39.24 116.23) rotate(-83.38)"><tspan x="0" y="0">o</tspan></text>
  <text class="cls-1" transform="translate(39.5 114.04) rotate(-82.2)"><tspan x="0" y="0">r</tspan></text>
  <text class="cls-1" transform="translate(39.68 112.7) rotate(-81.09)"><tspan x="0" y="0">e</tspan></text>
  <text class="cls-1" transform="translate(39.99 110.7) rotate(-79.46)"><tspan x="0" y="0">m</tspan></text>
  <text class="cls-1" transform="translate(40.53 107.85) rotate(-78.13)"><tspan x="0" y="0"> </tspan></text>
  <text class="cls-1" transform="translate(40.77 106.72) rotate(-77.38)"><tspan x="0" y="0">I</tspan></text>
  <text class="cls-1" transform="translate(40.99 105.69) rotate(-76.31)"><tspan x="0" y="0">p</tspan></text>
  <text class="cls-1" transform="translate(41.52 103.53) rotate(-75.09)"><tspan x="0" y="0">s</tspan></text>
  <text class="cls-1" transform="translate(41.9 102.09) rotate(-73.93)"><tspan x="0" y="0">u</tspan></text>
  <text class="cls-1" transform="translate(42.44 100.18) rotate(-72.32)"><tspan x="0" y="0">m</tspan></text>
  <text class="cls-1" transform="translate(43.34 97.39) rotate(-70.98)"><tspan x="0" y="0"> </tspan></text>
  <text class="cls-1" transform="translate(43.71 96.32) rotate(-70.06)"><tspan x="0" y="0">L</tspan></text>
  <text class="cls-1" transform="translate(44.26 94.79) rotate(-68.8)"><tspan x="0" y="0">o</tspan></text>
  <text class="cls-1" transform="translate(45.06 92.74) rotate(-67.62)"><tspan x="0" y="0">r</tspan></text>
  <text class="cls-1" transform="translate(45.57 91.49) rotate(-66.51)"><tspan x="0" y="0">e</tspan></text>
  <text class="cls-1" transform="translate(46.37 89.64) rotate(-64.88)"><tspan x="0" y="0">m</tspan></text>
  <text class="cls-1" transform="translate(47.63 86.98) rotate(-63.53)"><tspan x="0" y="0"> </tspan></text>
  <text class="cls-1" transform="translate(48.13 85.98) rotate(-62.8)"><tspan x="0" y="0">I</tspan></text>
  <text class="cls-1" transform="translate(48.62 85) rotate(-61.71)"><tspan x="0" y="0">p</tspan></text>
  <text class="cls-1" transform="translate(49.67 83.06) rotate(-60.48)"><tspan x="0" y="0">s</tspan></text>
  <text class="cls-1" transform="translate(50.39 81.79) rotate(-59.34)"><tspan x="0" y="0">u</tspan></text>
  <text class="cls-1" transform="translate(51.41 80.05) rotate(-57.69)"><tspan x="0" y="0">m</tspan></text>
  <text class="cls-1" transform="translate(52.98 77.59) rotate(-56.35)"><tspan x="0" y="0"> </tspan></text>
  <text class="cls-1" transform="translate(53.6 76.66) rotate(-55.44)"><tspan x="0" y="0">L</tspan></text>
  <text class="cls-1" transform="translate(54.52 75.31) rotate(-54.15)"><tspan x="0" y="0">o</tspan></text>
  <text class="cls-1" transform="translate(55.82 73.51) rotate(-52.96)"><tspan x="0" y="0">r</tspan></text>
  <text class="cls-1" transform="translate(56.63 72.44) rotate(-51.84)"><tspan x="0" y="0">e</tspan></text>
  <text class="cls-1" transform="translate(57.87 70.85) rotate(-50.2)"><tspan x="0" y="0">m</tspan></text>
  <text class="cls-1" transform="translate(59.75 68.61) rotate(-48.83)"><tspan x="0" y="0"> </tspan></text>
  <text class="cls-1" transform="translate(60.51 67.75) rotate(-48.09)"><tspan x="0" y="0">I</tspan></text>
  <text class="cls-1" transform="translate(61.21 66.96) rotate(-47)"><tspan x="0" y="0">p</tspan></text>
  <text class="cls-1" transform="translate(62.72 65.35) rotate(-45.77)"><tspan x="0" y="0">s</tspan></text>
  <text class="cls-1" transform="translate(63.76 64.27) rotate(-44.59)"><tspan x="0" y="0">u</tspan></text>
  <text class="cls-1" transform="translate(65.18 62.86) rotate(-42.94)"><tspan x="0" y="0">m</tspan></text>
  <text class="cls-1" transform="translate(67.32 60.88) rotate(-41.43)"><tspan x="0" y="0">L</tspan></text>
  <text class="cls-1" transform="translate(68.53 59.81) rotate(-40.15)"><tspan x="0" y="0">o</tspan></text>
  <text class="cls-1" transform="translate(70.23 58.38) rotate(-38.94)"><tspan x="0" y="0">r</tspan></text>
  <text class="cls-1" transform="translate(71.27 57.54) rotate(-37.83)"><tspan x="0" y="0">e</tspan></text>
  <text class="cls-1" transform="translate(72.88 56.28) rotate(-36.18)"><tspan x="0" y="0">m</tspan></text>
  <text class="cls-1" transform="translate(75.22 54.58) rotate(-34.85)"><tspan x="0" y="0"> </tspan></text>
  <text class="cls-1" transform="translate(76.16 53.92) rotate(-34.1)"><tspan x="0" y="0">I</tspan></text>
  <text class="cls-1" transform="translate(77.05 53.31) rotate(-33.02)"><tspan x="0" y="0">p</tspan></text>
  <text class="cls-1" transform="translate(78.9 52.11) rotate(-31.79)"><tspan x="0" y="0">s</tspan></text>
  <text class="cls-1" transform="translate(80.18 51.32) rotate(-30.64)"><tspan x="0" y="0">u</tspan></text>
  <text class="cls-1" transform="translate(81.89 50.3) rotate(-29.03)"><tspan x="0" y="0">m</tspan></text>
  <text class="cls-1" transform="translate(84.43 48.88) rotate(-26.63)"><tspan x="0" y="0">L</tspan></text>
  <text class="cls-1" transform="translate(85.87 48.14) rotate(-26.31)"><tspan x="0" y="0">o</tspan></text>
  <text class="cls-1" transform="translate(87.87 47.16) rotate(-25.13)"><tspan x="0" y="0">r</tspan></text>
  <text class="cls-1" transform="translate(89.06 46.6) rotate(-24.04)"><tspan x="0" y="0">e</tspan></text>
  <text class="cls-1" transform="translate(90.92 45.76) rotate(-22.41)"><tspan x="0" y="0">m</tspan></text>
  <text class="cls-1" transform="translate(93.62 44.66) rotate(-21.07)"><tspan x="0" y="0"> </tspan></text>
  <text class="cls-1" transform="translate(94.68 44.25) rotate(-20.33)"><tspan x="0" y="0">I</tspan></text>
  <text class="cls-1" transform="translate(95.68 43.87) rotate(-19.25)"><tspan x="0" y="0">p</tspan></text>
  <text class="cls-1" transform="translate(97.77 43.15) rotate(-18.01)"><tspan x="0" y="0">s</tspan></text>
  <text class="cls-1" transform="translate(99.19 42.68) rotate(-16.84)"><tspan x="0" y="0">u</tspan></text>
  <text class="cls-1" transform="translate(101.1 42.1) rotate(-15.21)"><tspan x="0" y="0">m</tspan></text>
  <text class="cls-1" transform="translate(103.92 41.34) rotate(-13.69)"><tspan x="0" y="0">L</tspan></text>
  <text class="cls-1" transform="translate(105.48 40.95) rotate(-12.41)"><tspan x="0" y="0">o</tspan></text>
  <text class="cls-1" transform="translate(107.65 40.48) rotate(-11.21)"><tspan x="0" y="0">r</tspan></text>
  <text class="cls-1" transform="translate(108.98 40.21) rotate(-10.08)"><tspan x="0" y="0">e</tspan></text>
  <text class="cls-1" transform="translate(110.96 39.86) rotate(-8.44)"><tspan x="0" y="0">m</tspan></text>
  <text class="cls-1" transform="translate(113.87 39.44) rotate(-7.07)"><tspan x="0" y="0"> </tspan></text>
  <text class="cls-1" transform="translate(114.97 39.3) rotate(-6.34)"><tspan x="0" y="0">I</tspan></text>
  <text class="cls-1" transform="translate(116.04 39.17) rotate(-5.24)"><tspan x="0" y="0">p</tspan></text>
  <text class="cls-1" transform="translate(118.25 38.98) rotate(-4.01)"><tspan x="0" y="0">s</tspan></text>
  <text class="cls-1" transform="translate(119.74 38.87) rotate(-2.83)"><tspan x="0" y="0">u</tspan></text>
  <text class="cls-1" transform="translate(121.73 38.76) rotate(-1.2)"><tspan x="0" y="0">m</tspan></text>
  <text class="cls-1" transform="translate(124.63 38.71) rotate(.3)"><tspan x="0" y="0">L</tspan></text>
  <text class="cls-1" transform="translate(126.26 38.72) rotate(1.58)"><tspan x="0" y="0">o</tspan></text>
  <text class="cls-1" transform="translate(128.47 38.78) rotate(2.78)"><tspan x="0" y="0">r</tspan></text>
  <text class="cls-1" transform="translate(129.83 38.84) rotate(3.9)"><tspan x="0" y="0">e</tspan></text>
  <text class="cls-1" transform="translate(131.85 38.97) rotate(5.54)"><tspan x="0" y="0">m</tspan></text>
  <text class="cls-1" transform="translate(134.74 39.27) rotate(6.87)"><tspan x="0" y="0"> </tspan></text>
  <text class="cls-1" transform="translate(135.86 39.4) rotate(7.6)"><tspan x="0" y="0">I</tspan></text>
  <text class="cls-1" transform="translate(136.94 39.54) rotate(8.7)"><tspan x="0" y="0">p</tspan></text>
  <text class="cls-1" transform="translate(139.12 39.88) rotate(9.92)"><tspan x="0" y="0">s</tspan></text>
  <text class="cls-1" transform="translate(140.59 40.13) rotate(11.08)"><tspan x="0" y="0">u</tspan></text>
  <text class="cls-1" transform="translate(142.56 40.51) rotate(12.7)"><tspan x="0" y="0">m</tspan></text>
  <text class="cls-1" transform="translate(145.4 41.16) rotate(14.2)"><tspan x="0" y="0">L</tspan></text>
  <text class="cls-1" transform="translate(146.96 41.55) rotate(15.46)"><tspan x="0" y="0">o</tspan></text>
  <text class="cls-1" transform="translate(149.11 42.15) rotate(16.65)"><tspan x="0" y="0">r</tspan></text>
  <text class="cls-1" transform="translate(150.41 42.53) rotate(17.76)"><tspan x="0" y="0">e</tspan></text>
  <text class="cls-1" transform="translate(152.33 43.14) rotate(19.39)"><tspan x="0" y="0">m</tspan></text>
  <text class="cls-1" transform="translate(155.06 44.11) rotate(20.71)"><tspan x="0" y="0"> </tspan></text>
  <text class="cls-1" transform="translate(156.14 44.52) rotate(21.46)"><tspan x="0" y="0">I</tspan></text>
  <text class="cls-1" transform="translate(157.16 44.91) rotate(22.55)"><tspan x="0" y="0">p</tspan></text>
  <text class="cls-1" transform="translate(159.19 45.76) rotate(23.77)"><tspan x="0" y="0">s</tspan></text>
  <text class="cls-1" transform="translate(160.56 46.36) rotate(24.92)"><tspan x="0" y="0">u</tspan></text>
  <text class="cls-1" transform="translate(162.35 47.19) rotate(26.53)"><tspan x="0" y="0">m</tspan></text>
  <text class="cls-1" transform="translate(164.95 48.5) rotate(28.04)"><tspan x="0" y="0">L</tspan></text>
  <text class="cls-1" transform="translate(166.39 49.26) rotate(29.3)"><tspan x="0" y="0">o</tspan></text>
  <text class="cls-1" transform="translate(168.31 50.34) rotate(30.49)"><tspan x="0" y="0">r</tspan></text>
  <text class="cls-1" transform="translate(169.48 51.03) rotate(31.61)"><tspan x="0" y="0">e</tspan></text>
  <text class="cls-1" transform="translate(171.22 52.09) rotate(33.26)"><tspan x="0" y="0">m</tspan></text>
  <text class="cls-1" transform="translate(173.65 53.69) rotate(34.61)"><tspan x="0" y="0"> </tspan></text>
  <text class="cls-1" transform="translate(174.58 54.34) rotate(35.34)"><tspan x="0" y="0">I</tspan></text>
  <text class="cls-1" transform="translate(175.46 54.95) rotate(36.43)"><tspan x="0" y="0">p</tspan></text>
  <text class="cls-1" transform="translate(177.24 56.28) rotate(37.68)"><tspan x="0" y="0">s</tspan></text>
  <text class="cls-1" transform="translate(178.42 57.18) rotate(38.84)"><tspan x="0" y="0">u</tspan></text>
  <text class="cls-1" transform="translate(179.98 58.43) rotate(40.48)"><tspan x="0" y="0">m</tspan></text>
  <text class="cls-1" transform="translate(182.19 60.33) rotate(42)"><tspan x="0" y="0">L</tspan></text>
  <text class="cls-1" transform="translate(183.4 61.41) rotate(43.28)"><tspan x="0" y="0">o</tspan></text>
  <text class="cls-1" transform="translate(185.01 62.93) rotate(44.48)"><tspan x="0" y="0">r</tspan></text>
  <text class="cls-1" transform="translate(185.98 63.88) rotate(45.61)"><tspan x="0" y="0">e</tspan></text>
  <text class="cls-1" transform="translate(187.4 65.32) rotate(47.26)"><tspan x="0" y="0">m</tspan></text>
  <text class="cls-1" transform="translate(189.37 67.47) rotate(48.62)"><tspan x="0" y="0"> </tspan></text>
  <text class="cls-1" transform="translate(190.12 68.32) rotate(49.36)"><tspan x="0" y="0">I</tspan></text>
  <text class="cls-1" transform="translate(190.82 69.13) rotate(50.45)"><tspan x="0" y="0">p</tspan></text>
  <text class="cls-1" transform="translate(192.23 70.84) rotate(51.69)"><tspan x="0" y="0">s</tspan></text>
  <text class="cls-1" transform="translate(193.16 72.01) rotate(52.86)"><tspan x="0" y="0">u</tspan></text>
  <text class="cls-1" transform="translate(194.36 73.58) rotate(54.48)"><tspan x="0" y="0">m</tspan></text>
  <text class="cls-1" transform="translate(196.05 75.98) rotate(55.83)"><tspan x="0" y="0"> </tspan></text>
  <text class="cls-1" transform="translate(196.68 76.9) rotate(56.74)"><tspan x="0" y="0">L</tspan></text>
  <text class="cls-1" transform="translate(197.57 78.25) rotate(58)"><tspan x="0" y="0">o</tspan></text>
  <text class="cls-1" transform="translate(198.74 80.13) rotate(59.18)"><tspan x="0" y="0">r</tspan></text>
  <text class="cls-1" transform="translate(199.44 81.3) rotate(60.29)"><tspan x="0" y="0">e</tspan></text>
  <text class="cls-1" transform="translate(200.44 83.06) rotate(61.52)"><tspan x="0" y="0">m</tspan></text>
  <text class="cls-1" transform="translate(201.82 85.62) rotate(63.37)"><tspan x="0" y="0"> </tspan></text>
  <text class="cls-1" transform="translate(202.33 86.64) rotate(63.94)"><tspan x="0" y="0">I</tspan></text>
  <text class="cls-1" transform="translate(202.8 87.59) rotate(65.01)"><tspan x="0" y="0">p</tspan></text>
  <text class="cls-1" transform="translate(203.73 89.61) rotate(66.23)"><tspan x="0" y="0">s</tspan></text>
  <text class="cls-1" transform="translate(204.34 90.97) rotate(67.38)"><tspan x="0" y="0">u</tspan></text>
  <text class="cls-1" transform="translate(205.11 92.82) rotate(69.01)"><tspan x="0" y="0">m</tspan></text>
  <text class="cls-1" transform="translate(206.14 95.53) rotate(70.34)"><tspan x="0" y="0"> </tspan></text>
  <text class="cls-1" transform="translate(206.53 96.6) rotate(71.27)"><tspan x="0" y="0">L</tspan></text>
  <text class="cls-1" transform="translate(207.06 98.15) rotate(72.55)"><tspan x="0" y="0">o</tspan></text>
  <text class="cls-1" transform="translate(207.71 100.25) rotate(73.74)"><tspan x="0" y="0">r</tspan></text>
  <text class="cls-1" transform="translate(208.09 101.54) rotate(74.86)"><tspan x="0" y="0">e</tspan></text>
  <text class="cls-1" transform="translate(208.63 103.5) rotate(76.51)"><tspan x="0" y="0">m</tspan></text>
  <text class="cls-1" transform="translate(209.3 106.33) rotate(77.86)"><tspan x="0" y="0"> </tspan></text>
  <text class="cls-1" transform="translate(209.54 107.45) rotate(78.61)"><tspan x="0" y="0">I</tspan></text>
  <text class="cls-1" transform="translate(209.75 108.49) rotate(79.7)"><tspan x="0" y="0">p</tspan></text>
  <text class="cls-1" transform="translate(210.15 110.67) rotate(80.94)"><tspan x="0" y="0">s</tspan></text>
  <text class="cls-1" transform="translate(210.38 112.14) rotate(82.11)"><tspan x="0" y="0">u</tspan></text>
  <text class="cls-1" transform="translate(210.67 114.14) rotate(83.77)"><tspan x="0" y="0">m</tspan></text>
  <text class="cls-1" transform="translate(210.97 117.02) rotate(85.11)"><tspan x="0" y="0"> </tspan></text>
  <text class="cls-1" transform="translate(211.07 118.14) rotate(86.03)"><tspan x="0" y="0">L</tspan></text>
  <text class="cls-1" transform="translate(211.19 119.78) rotate(87.32)"><tspan x="0" y="0">o</tspan></text>
  <text class="cls-1" transform="translate(211.28 121.96) rotate(88.5)"><tspan x="0" y="0">r</tspan></text>
  <text class="cls-1" transform="translate(211.32 123.33) rotate(89.63)"><tspan x="0" y="0">e</tspan></text>
  <text class="cls-1" transform="translate(211.34 125.35) rotate(91.27)"><tspan x="0" y="0">m</tspan></text>
  <text class="cls-1" transform="translate(211.27 128.28) rotate(92.62)"><tspan x="0" y="0"> </tspan></text>
  <text class="cls-1" transform="translate(211.22 129.41) rotate(93.36)"><tspan x="0" y="0">I</tspan></text>
  <text class="cls-1" transform="translate(211.16 130.47) rotate(94.44)"><tspan x="0" y="0">p</tspan></text>
  <text class="cls-1" transform="translate(210.98 132.67) rotate(95.67)"><tspan x="0" y="0">s</tspan></text>
  <text class="cls-1" transform="translate(210.84 134.16) rotate(96.83)"><tspan x="0" y="0">u</tspan></text>
  <text class="cls-1" transform="translate(210.61 136.16) rotate(98.46)"><tspan x="0" y="0">m</tspan></text>
  <text class="cls-1" transform="translate(210.17 139.04) rotate(99.96)"><tspan x="0" y="0">L</tspan></text>
  <text class="cls-1" transform="translate(209.89 140.63) rotate(101.23)"><tspan x="0" y="0">o</tspan></text>
  <text class="cls-1" transform="translate(209.46 142.79) rotate(102.4)"><tspan x="0" y="0">r</tspan></text>
  <text class="cls-1" transform="translate(209.17 144.11) rotate(103.51)"><tspan x="0" y="0">e</tspan></text>
  <text class="cls-1" transform="translate(208.71 146.07) rotate(105.14)"><tspan x="0" y="0">m</tspan></text>
  <text class="cls-1" transform="translate(207.93 148.9) rotate(106.48)"><tspan x="0" y="0"> </tspan></text>
  <text class="cls-1" transform="translate(207.62 149.98) rotate(107.21)"><tspan x="0" y="0">I</tspan></text>
  <text class="cls-1" transform="translate(207.3 151.01) rotate(108.3)"><tspan x="0" y="0">p</tspan></text>
  <text class="cls-1" transform="translate(206.61 153.1) rotate(109.51)"><tspan x="0" y="0">s</tspan></text>
  <text class="cls-1" transform="translate(206.11 154.51) rotate(110.67)"><tspan x="0" y="0">u</tspan></text>
  <text class="cls-1" transform="translate(205.41 156.39) rotate(112.29)"><tspan x="0" y="0">m</tspan></text>
  <text class="cls-1" transform="translate(204.3 159.07) rotate(113.79)"><tspan x="0" y="0">L</tspan></text>
  <text class="cls-1" transform="translate(203.65 160.56) rotate(115.05)"><tspan x="0" y="0">o</tspan></text>
  <text class="cls-1" transform="translate(202.7 162.58) rotate(116.25)"><tspan x="0" y="0">r</tspan></text>
  <text class="cls-1" transform="translate(202.11 163.78) rotate(117.36)"><tspan x="0" y="0">e</tspan></text>
  <text class="cls-1" transform="translate(201.18 165.6) rotate(119)"><tspan x="0" y="0">m</tspan></text>
  <text class="cls-1" transform="translate(199.76 168.13) rotate(120.34)"><tspan x="0" y="0"> </tspan></text>
  <text class="cls-1" transform="translate(199.19 169.11) rotate(121.07)"><tspan x="0" y="0">I</tspan></text>
  <text class="cls-1" transform="translate(198.64 170.02) rotate(122.15)"><tspan x="0" y="0">p</tspan></text>
  <text class="cls-1" transform="translate(197.46 171.89) rotate(123.39)"><tspan x="0" y="0">s</tspan></text>
  <text class="cls-1" transform="translate(196.64 173.15) rotate(124.56)"><tspan x="0" y="0">u</tspan></text>
  <text class="cls-1" transform="translate(195.51 174.8) rotate(126.19)"><tspan x="0" y="0">m</tspan></text>
  <text class="cls-1" transform="translate(193.78 177.15) rotate(127.55)"><tspan x="0" y="0"> </tspan></text>
  <text class="cls-1" transform="translate(193.1 178.03) rotate(128.29)"><tspan x="0" y="0"> </tspan></text>
  <text class="cls-1" transform="translate(192.39 178.93) rotate(129.06)"><tspan x="0" y="0"> </tspan></text>
  <text class="cls-1" transform="translate(191.68 179.81) rotate(129.98)"><tspan x="0" y="0">L</tspan></text>
  <text class="cls-1" transform="translate(190.64 181.05) rotate(131.25)"><tspan x="0" y="0">o</tspan></text>
  <text class="cls-1" transform="translate(189.17 182.72) rotate(132.47)"><tspan x="0" y="0">r</tspan></text>
  <text class="cls-1" transform="translate(188.27 183.71) rotate(133.58)"><tspan x="0" y="0">e</tspan></text>
  <text class="cls-1" transform="translate(186.88 185.18) rotate(135.23)"><tspan x="0" y="0">m</tspan></text>
  <text class="cls-1" transform="translate(184.8 187.23) rotate(136.59)"><tspan x="0" y="0"> </tspan></text>
  <text class="cls-1" transform="translate(183.98 188) rotate(137.32)"><tspan x="0" y="0">I</tspan></text>
  <text class="cls-1" transform="translate(183.18 188.75) rotate(138.44)"><tspan x="0" y="0">p</tspan></text>
  <text class="cls-1" transform="translate(181.53 190.21) rotate(139.67)"><tspan x="0" y="0">s</tspan></text>
  <text class="cls-1" transform="translate(180.4 191.17) rotate(140.83)"><tspan x="0" y="0">u</tspan></text>
  <text class="cls-1" transform="translate(178.85 192.44) rotate(142.47)"><tspan x="0" y="0">m</tspan></text>
  <text class="cls-1" transform="translate(176.54 194.21) rotate(143.98)"><tspan x="0" y="0">L</tspan></text>
  <text class="cls-1" transform="translate(175.21 195.18) rotate(145.27)"><tspan x="0" y="0">o</tspan></text>
  <text class="cls-1" transform="translate(173.41 196.42) rotate(146.44)"><tspan x="0" y="0">r</tspan></text>
  <text class="cls-1" transform="translate(172.29 197.17) rotate(147.55)"><tspan x="0" y="0">e</tspan></text>
  <text class="cls-1" transform="translate(170.58 198.26) rotate(149.18)"><tspan x="0" y="0">m</tspan></text>
  <text class="cls-1" transform="translate(168.06 199.76) rotate(150.52)"><tspan x="0" y="0"> </tspan></text>
  <text class="cls-1" transform="translate(167.07 200.32) rotate(151.24)"><tspan x="0" y="0">I</tspan></text>
  <text class="cls-1" transform="translate(166.12 200.82) rotate(151.52)"><tspan x="0" y="0">p</tspan></text>
  <text class="cls-1" transform="translate(164.18 201.86) rotate(153.51)"><tspan x="0" y="0">s</tspan></text>
  <text class="cls-1" transform="translate(162.86 202.52) rotate(154.64)"><tspan x="0" y="0">u</tspan></text>
  <text class="cls-1" transform="translate(161.06 203.38) rotate(156.25)"><tspan x="0" y="0">m</tspan></text>
  <text class="cls-1" transform="translate(158.37 204.55) rotate(157.77)"><tspan x="0" y="0">L</tspan></text>
  <text class="cls-1" transform="translate(156.87 205.17) rotate(159.03)"><tspan x="0" y="0">o</tspan></text>
  <text class="cls-1" transform="translate(154.81 205.96) rotate(160.22)"><tspan x="0" y="0">r</tspan></text>
  <text class="cls-1" transform="translate(153.54 206.41) rotate(161.33)"><tspan x="0" y="0">e</tspan></text>
  <text class="cls-1" transform="translate(151.63 207.07) rotate(162.98)"><tspan x="0" y="0">m</tspan></text>
  <text class="cls-1" transform="translate(148.84 207.91) rotate(164.32)"><tspan x="0" y="0"> </tspan></text>
  <text class="cls-1" transform="translate(147.75 208.22) rotate(165.06)"><tspan x="0" y="0">I</tspan></text>
  <text class="cls-1" transform="translate(146.7 208.5) rotate(166.17)"><tspan x="0" y="0">p</tspan></text>
  <text class="cls-1" transform="translate(144.55 209.03) rotate(167.41)"><tspan x="0" y="0">s</tspan></text>
  <text class="cls-1" transform="translate(143.12 209.35) rotate(168.57)"><tspan x="0" y="0">u</tspan></text>
  <text class="cls-1" transform="translate(141.16 209.75) rotate(170.21)"><tspan x="0" y="0">m</tspan></text>
  <text class="cls-1" transform="translate(138.27 210.24) rotate(171.74)"><tspan x="0" y="0">L</tspan></text>
  <text class="cls-1" transform="translate(136.67 210.48) rotate(173.02)"><tspan x="0" y="0">o</tspan></text>
  <text class="cls-1" transform="translate(134.46 210.75) rotate(174.23)"><tspan x="0" y="0">r</tspan></text>
  <text class="cls-1" transform="translate(133.12 210.88) rotate(175.35)"><tspan x="0" y="0">e</tspan></text>
  <text class="cls-1" transform="translate(131.11 211.05) rotate(176.99)"><tspan x="0" y="0">m</tspan></text>
  <text class="cls-1" transform="translate(128.19 211.2) rotate(178.34)"><tspan x="0" y="0"> </tspan></text>
  <text class="cls-1" transform="translate(127.05 211.23) rotate(179.09)"><tspan x="0" y="0">I</tspan></text>
  <text class="cls-1" transform="translate(125.98 211.25) rotate(-179.83)"><tspan x="0" y="0">p</tspan></text>
  <text class="cls-1" transform="translate(123.77 211.24) rotate(-178.59)"><tspan x="0" y="0">s</tspan></text>
  <text class="cls-1" transform="translate(122.3 211.21) rotate(-177.44)"><tspan x="0" y="0">u</tspan></text>
  <text class="cls-1" transform="translate(120.28 211.11) rotate(-176.4)"><tspan x="0" y="0">I</tspan></text>
  <text class="cls-1" transform="translate(119.22 211.05) rotate(-175.32)"><tspan x="0" y="0">p</tspan></text>
  <text class="cls-1" transform="translate(117.02 210.87) rotate(-174.1)"><tspan x="0" y="0">s</tspan></text>
  <text class="cls-1" transform="translate(115.53 210.72) rotate(-172.93)"><tspan x="0" y="0">u</tspan></text>
  <text class="cls-1" transform="translate(113.53 210.48) rotate(-171.3)"><tspan x="0" y="0">m</tspan></text>
  <text class="cls-1" transform="translate(110.66 210.03) rotate(-169.8)"><tspan x="0" y="0">L</tspan></text>
  <text class="cls-1" transform="translate(109.06 209.75) rotate(-168.54)"><tspan x="0" y="0">o</tspan></text>
  <text class="cls-1" transform="translate(106.91 209.3) rotate(-167.36)"><tspan x="0" y="0">r</tspan></text>
  <text class="cls-1" transform="translate(105.59 209.01) rotate(-166.25)"><tspan x="0" y="0">e</tspan></text>
  <text class="cls-1" transform="translate(103.6 208.53) rotate(-164.61)"><tspan x="0" y="0">m</tspan></text>
  <text class="cls-1" transform="translate(100.81 207.75) rotate(-163.28)"><tspan x="0" y="0"> </tspan></text>
  <text class="cls-1" transform="translate(99.71 207.43) rotate(-162.21)"><tspan x="0" y="0">E</tspan></text>
  <text class="cls-1" transform="translate(97.74 206.8) rotate(-160.87)"><tspan x="0" y="0">n</tspan></text>
  <text class="cls-1" transform="translate(95.85 206.14) rotate(-159.48)"><tspan x="0" y="0">d</tspan></text>
</svg>