<?xml version="1.0" encoding="UTF-8"?>
<svg id="Layer_24_2" data-name="Layer 24_2" xmlns="http://www.w3.org/2000/svg" viewBox="0 0 250 250">
  <defs>
    <style>
      .cls-1 {
        font-family: Futura-Medium, Futura;
        font-weight: 500;
      }

      .cls-1, .cls-2 {
        fill: #231f20;
        font-size: 4.2px;
      }

      .cls-2 {
        font-family: Futura-CondensedExtraBold, Futura;
        font-weight: 700;
      }
    </style>
  </defs>
  <text class="cls-2" transform="translate(23.92 96.43) rotate(-73.26)"><tspan x="0" y="0">T</tspan></text>
  <text class="cls-2" transform="translate(24.43 94.69) rotate(-72.6)"><tspan x="0" y="0">h</tspan></text>
  <text class="cls-2" transform="translate(25.12 92.5) rotate(-71.37)"><tspan x="0" y="0">e</tspan></text>
  <text class="cls-2" transform="translate(25.85 90.35) rotate(-70.42)"><tspan x="0" y="0"> </tspan></text>
  <text class="cls-2" transform="translate(26.28 89.16) rotate(-69.75)"><tspan x="0" y="0">l</tspan></text>
  <text class="cls-2" transform="translate(26.68 88.04) rotate(-68.81)"><tspan x="0" y="0">e</tspan></text>
  <text class="cls-2" transform="translate(27.5 85.93) rotate(-67.57)"><tspan x="0" y="0">n</tspan></text>
  <text class="cls-2" transform="translate(28.38 83.79) rotate(-66.31)"><tspan x="0" y="0">g</tspan></text>
  <text class="cls-2" transform="translate(29.32 81.65) rotate(-65.28)"><tspan x="0" y="0">t</tspan></text>
  <text class="cls-2" transform="translate(29.95 80.29) rotate(-64.21)"><tspan x="0" y="0">h</tspan></text>
  <text class="cls-2" transform="translate(30.95 78.22) rotate(-63.25)"><tspan x="0" y="0"> </tspan></text>
  <text class="cls-2" transform="translate(31.52 77.08) rotate(-62.26)"><tspan x="0" y="0">o</tspan></text>
  <text class="cls-2" transform="translate(32.58 75.07) rotate(-61.25)"><tspan x="0" y="0">f</tspan></text>
  <text class="cls-2" transform="translate(33.27 73.82) rotate(-60.52)"><tspan x="0" y="0"> </tspan></text>
  <text class="cls-2" transform="translate(33.88 72.74) rotate(-59.53)"><tspan x="0" y="0">a</tspan></text>
  <text class="cls-2" transform="translate(35.07 70.71) rotate(-58.54)"><tspan x="0" y="0"> </tspan></text>
  <text class="cls-2" transform="translate(35.73 69.63) rotate(-57.8)"><tspan x="0" y="0">c</tspan></text>
  <text class="cls-2" transform="translate(36.49 68.43) rotate(-56.77)"><tspan x="0" y="0">o</tspan></text>
  <text class="cls-2" transform="translate(37.74 66.51) rotate(-55.5)"><tspan x="0" y="0">a</tspan></text>
  <text class="cls-2" transform="translate(39.08 64.57) rotate(-54.34)"><tspan x="0" y="0">s</tspan></text>
  <text class="cls-2" transform="translate(40.17 63.05) rotate(-53.43)"><tspan x="0" y="0">t</tspan></text>
  <text class="cls-2" transform="translate(41.02 61.9) rotate(-52.71)"><tspan x="0" y="0">l</tspan></text>
  <text class="cls-2" transform="translate(41.75 60.95) rotate(-52.05)"><tspan x="0" y="0">i</tspan></text>
  <text class="cls-2" transform="translate(42.47 60.02) rotate(-51.09)"><tspan x="0" y="0">n</tspan></text>
  <text class="cls-2" transform="translate(43.93 58.21) rotate(-49.83)"><tspan x="0" y="0">e</tspan></text>
  <text class="cls-2" transform="translate(45.39 56.48) rotate(-48.87)"><tspan x="0" y="0"> </tspan></text>
  <text class="cls-2" transform="translate(46.22 55.53) rotate(-48.13)"><tspan x="0" y="0">c</tspan></text>
  <text class="cls-2" transform="translate(47.24 54.39) rotate(-47.05)"><tspan x="0" y="0">h</tspan></text>
  <text class="cls-2" transform="translate(48.81 52.7) rotate(-45.78)"><tspan x="0" y="0">a</tspan></text>
  <text class="cls-2" transform="translate(50.45 51.02) rotate(-44.5)"><tspan x="0" y="0">n</tspan></text>
  <text class="cls-2" transform="translate(52.09 49.41) rotate(-43.25)"><tspan x="0" y="0">g</tspan></text>
  <text class="cls-2" transform="translate(53.81 47.79) rotate(-41.97)"><tspan x="0" y="0">e</tspan></text>
  <text class="cls-2" transform="translate(55.49 46.28) rotate(-40.85)"><tspan x="0" y="0">s</tspan></text>
  <text class="cls-1" transform="translate(56.9 45.06) rotate(-39.99)"><tspan x="0" y="0"> </tspan></text>
  <text class="cls-1" transform="translate(57.89 44.23) rotate(-38.96)"><tspan x="0" y="0">b</tspan></text>
  <text class="cls-1" transform="translate(59.82 42.67) rotate(-37.61)"><tspan x="0" y="0">a</tspan></text>
  <text class="cls-1" transform="translate(61.81 41.13) rotate(-36.46)"><tspan x="0" y="0">s</tspan></text>
  <text class="cls-1" transform="translate(63.16 40.13) rotate(-35.38)"><tspan x="0" y="0">e</tspan></text>
  <text class="cls-1" transform="translate(65.04 38.8) rotate(-34.08)"><tspan x="0" y="0">d</tspan></text>
  <text class="cls-1" transform="translate(67.12 37.4) rotate(-33.05)"><tspan x="0" y="0"> </tspan></text>
  <text class="cls-1" transform="translate(68.2 36.69) rotate(-32.01)"><tspan x="0" y="0">o</tspan></text>
  <text class="cls-1" transform="translate(70.32 35.37) rotate(-30.72)"><tspan x="0" y="0">n</tspan></text>
  <text class="cls-1" transform="translate(72.31 34.19) rotate(-29.74)"><tspan x="0" y="0"> </tspan></text>
  <text class="cls-1" transform="translate(73.41 33.56) rotate(-28.78)"><tspan x="0" y="0">h</tspan></text>
  <text class="cls-1" transform="translate(75.41 32.45) rotate(-27.48)"><tspan x="0" y="0">o</tspan></text>
  <text class="cls-1" transform="translate(77.57 31.32) rotate(-25.96)"><tspan x="0" y="0">w</tspan></text>
  <text class="cls-1" transform="translate(80.47 29.92) rotate(-24.74)"><tspan x="0" y="0"> </tspan></text>
  <text class="cls-1" transform="translate(81.64 29.38) rotate(-24.11)"><tspan x="0" y="0">l</tspan></text>
  <text class="cls-1" transform="translate(82.56 28.96) rotate(-23.16)"><tspan x="0" y="0">o</tspan></text>
  <text class="cls-1" transform="translate(84.87 27.98) rotate(-21.85)"><tspan x="0" y="0">n</tspan></text>
  <text class="cls-1" transform="translate(87.01 27.12) rotate(-20.55)"><tspan x="0" y="0">g</tspan></text>
  <text class="cls-1" transform="translate(89.35 26.25) rotate(-19.52)"><tspan x="0" y="0"> </tspan></text>
  <text class="cls-1" transform="translate(90.56 25.81) rotate(-18.55)"><tspan x="0" y="0">y</tspan></text>
  <text class="cls-1" transform="translate(92.62 25.12) rotate(-17.3)"><tspan x="0" y="0">o</tspan></text>
  <text class="cls-1" transform="translate(95.02 24.37) rotate(-16)"><tspan x="0" y="0">u</tspan></text>
  <text class="cls-1" transform="translate(97.21 23.75) rotate(-14.95)"><tspan x="0" y="0">r</tspan></text>
  <text class="cls-1" transform="translate(98.72 23.35) rotate(-14.17)"><tspan x="0" y="0"> </tspan></text>
  <text class="cls-1" transform="translate(99.94 23.03) rotate(-12.92)"><tspan x="0" y="0">m</tspan></text>
  <text class="cls-1" transform="translate(103.16 22.29) rotate(-11.39)"><tspan x="0" y="0">e</tspan></text>
  <text class="cls-1" transform="translate(105.42 21.84) rotate(-10.07)"><tspan x="0" y="0">a</tspan></text>
  <text class="cls-1" transform="translate(107.88 21.4) rotate(-8.93)"><tspan x="0" y="0">s</tspan></text>
  <text class="cls-1" transform="translate(109.57 21.14) rotate(-7.83)"><tspan x="0" y="0">u</tspan></text>
  <text class="cls-1" transform="translate(111.82 20.83) rotate(-6.78)"><tspan x="0" y="0">r</tspan></text>
  <text class="cls-1" transform="translate(113.43 20.64) rotate(-6.04)"><tspan x="0" y="0">i</tspan></text>
  <text class="cls-1" transform="translate(114.44 20.53) rotate(-5.13)"><tspan x="0" y="0">n</tspan></text>
  <text class="cls-1" transform="translate(116.73 20.32) rotate(-3.81)"><tspan x="0" y="0">g</tspan></text>
  <text class="cls-1" transform="translate(119.23 20.16) rotate(-2.77)"><tspan x="0" y="0"> </tspan></text>
  <text class="cls-1" transform="translate(120.51 20.1) rotate(-1.95)"><tspan x="0" y="0">s</tspan></text>
  <text class="cls-1" transform="translate(122.2 20.04) rotate(-1.17)"><tspan x="0" y="0">t</tspan></text>
  <text class="cls-1" transform="translate(123.34 20.02) rotate(-.57)"><tspan x="0" y="0">i</tspan></text>
  <text class="cls-1" transform="translate(124.36 20) rotate(.25)"><tspan x="0" y="0">c</tspan></text>
  <text class="cls-1" transform="translate(126.46 20.01) rotate(1.43)"><tspan x="0" y="0">k</tspan></text>
  <text class="cls-1" transform="translate(128.53 20.07) rotate(2.35)"><tspan x="0" y="0"> </tspan></text>
  <text class="cls-1" transform="translate(129.83 20.12) rotate(3)"><tspan x="0" y="0">i</tspan></text>
  <text class="cls-1" transform="translate(130.85 20.17) rotate(3.73)"><tspan x="0" y="0">s</tspan></text>
  <text class="cls-1" transform="translate(132.56 20.29) rotate(4.56)"><tspan x="0" y="0">.</tspan></text>
  <text class="cls-1" transform="translate(133.83 20.39) rotate(5.26)"><tspan x="0" y="0"> </tspan></text>
  <text class="cls-1" transform="translate(135.1 20.5) rotate(6.16)"><tspan x="0" y="0">T</tspan></text>
  <text class="cls-1" transform="translate(137.11 20.72) rotate(7.34)"><tspan x="0" y="0">h</tspan></text>
  <text class="cls-1" transform="translate(139.39 21.02) rotate(8.26)"><tspan x="0" y="0">i</tspan></text>
  <text class="cls-1" transform="translate(140.42 21.16) rotate(9)"><tspan x="0" y="0">s</tspan></text>
  <text class="cls-1" transform="translate(142.07 21.43) rotate(9.8)"><tspan x="0" y="0"> </tspan></text>
  <text class="cls-1" transform="translate(143.34 21.64) rotate(10.83)"><tspan x="0" y="0">p</tspan></text>
  <text class="cls-1" transform="translate(145.78 22.11) rotate(12.12)"><tspan x="0" y="0">h</tspan></text>
  <text class="cls-1" transform="translate(148.03 22.59) rotate(13.37)"><tspan x="0" y="0">e</tspan></text>
  <text class="cls-1" transform="translate(150.28 23.12) rotate(14.6)"><tspan x="0" y="0">n</tspan></text>
  <text class="cls-1" transform="translate(152.49 23.68) rotate(16.74)"><tspan x="0" y="0">o</tspan></text>
  <text class="cls-1" transform="translate(154.89 24.38) rotate(17.44)"><tspan x="0" y="0">m</tspan></text>
  <text class="cls-1" transform="translate(158.04 25.37) rotate(18.94)"><tspan x="0" y="0">e</tspan></text>
  <text class="cls-1" transform="translate(160.22 26.12) rotate(20.19)"><tspan x="0" y="0">n</tspan></text>
  <text class="cls-1" transform="translate(162.37 26.91) rotate(21.49)"><tspan x="0" y="0">o</tspan></text>
  <text class="cls-1" transform="translate(164.7 27.83) rotate(22.79)"><tspan x="0" y="0">n</tspan></text>
  <text class="cls-1" transform="translate(166.82 28.72) rotate(23.77)"><tspan x="0" y="0">,</tspan></text>
  <text class="cls-1" transform="translate(167.99 29.24) rotate(24.47)"><tspan x="0" y="0"> </tspan></text>
  <text class="cls-1" transform="translate(169.15 29.76) rotate(25.36)"><tspan x="0" y="0">c</tspan></text>
  <text class="cls-1" transform="translate(170.95 30.61) rotate(26.59)"><tspan x="0" y="0">a</tspan></text>
  <text class="cls-1" transform="translate(173.18 31.74) rotate(27.56)"><tspan x="0" y="0">l</tspan></text>
  <text class="cls-1" transform="translate(174.11 32.22) rotate(28.13)"><tspan x="0" y="0">l</tspan></text>
  <text class="cls-1" transform="translate(175.04 32.71) rotate(29.06)"><tspan x="0" y="0">e</tspan></text>
  <text class="cls-1" transform="translate(177.05 33.83) rotate(30.38)"><tspan x="0" y="0">d</tspan></text>
  <text class="cls-1" transform="translate(179.2 35.09) rotate(31.41)"><tspan x="0" y="0"> </tspan></text>
  <text class="cls-1" transform="translate(180.3 35.77) rotate(32.08)"><tspan x="0" y="0">t</tspan></text>
  <text class="cls-1" transform="translate(181.33 36.41) rotate(33.07)"><tspan x="0" y="0">h</tspan></text>
  <text class="cls-1" transform="translate(183.25 37.66) rotate(34.33)"><tspan x="0" y="0">e</tspan></text>
  <text class="cls-1" transform="translate(185.15 38.96) rotate(35.32)"><tspan x="0" y="0"> </tspan></text>
  <text class="cls-1" transform="translate(186.19 39.69) rotate(36.21)"><tspan x="0" y="0">c</tspan></text>
  <text class="cls-1" transform="translate(187.79 40.86) rotate(37.45)"><tspan x="0" y="0">o</tspan></text>
  <text class="cls-1" transform="translate(189.8 42.4) rotate(38.83)"><tspan x="0" y="0">a</tspan></text>
  <text class="cls-1" transform="translate(191.73 43.96) rotate(39.97)"><tspan x="0" y="0">s</tspan></text>
  <text class="cls-1" transform="translate(193.04 45.06) rotate(40.76)"><tspan x="0" y="0">t</tspan></text>
  <text class="cls-1" transform="translate(193.89 45.8) rotate(41.35)"><tspan x="0" y="0">l</tspan></text>
  <text class="cls-1" transform="translate(194.67 46.48) rotate(41.91)"><tspan x="0" y="0">i</tspan></text>
  <text class="cls-1" transform="translate(195.45 47.17) rotate(42.83)"><tspan x="0" y="0">n</tspan></text>
  <text class="cls-1" transform="translate(197.13 48.73) rotate(44.09)"><tspan x="0" y="0">e</tspan></text>
  <text class="cls-1" transform="translate(198.78 50.33) rotate(45.07)"><tspan x="0" y="0"> </tspan></text>
  <text class="cls-1" transform="translate(199.7 51.24) rotate(46.1)"><tspan x="0" y="0">p</tspan></text>
  <text class="cls-1" transform="translate(201.42 53.04) rotate(47.47)"><tspan x="0" y="0">a</tspan></text>
  <text class="cls-1" transform="translate(203.11 54.88) rotate(48.57)"><tspan x="0" y="0">r</tspan></text>
  <text class="cls-1" transform="translate(204.13 56.03) rotate(49.66)"><tspan x="0" y="0">a</tspan></text>
  <text class="cls-1" transform="translate(205.74 57.93) rotate(51.02)"><tspan x="0" y="0">d</tspan></text>
  <text class="cls-1" transform="translate(207.33 59.89) rotate(52.39)"><tspan x="0" y="0">o</tspan></text>
  <text class="cls-1" transform="translate(208.78 61.77) rotate(53.63)"><tspan x="0" y="0">x</tspan></text>
  <text class="cls-1" transform="translate(210.16 63.66) rotate(54.62)"><tspan x="0" y="0">,</tspan></text>
  <text class="cls-1" transform="translate(210.91 64.72) rotate(55.33)"><tspan x="0" y="0"> </tspan></text>
  <text class="cls-1" transform="translate(211.64 65.75) rotate(56.54)"><tspan x="0" y="0">w</tspan></text>
  <text class="cls-1" transform="translate(213.38 68.39) rotate(58.06)"><tspan x="0" y="0">a</tspan></text>
  <text class="cls-1" transform="translate(214.7 70.51) rotate(59.19)"><tspan x="0" y="0">s</tspan></text>
  <text class="cls-1" transform="translate(215.57 71.97) rotate(60)"><tspan x="0" y="0"> </tspan></text>
  <text class="cls-1" transform="translate(216.22 73.09) rotate(60.99)"><tspan x="0" y="0">e</tspan></text>
  <text class="cls-1" transform="translate(217.3 75.03) rotate(62.19)"><tspan x="0" y="0">x</tspan></text>
  <text class="cls-1" transform="translate(218.39 77.09) rotate(63.51)"><tspan x="0" y="0">p</tspan></text>
  <text class="cls-1" transform="translate(219.5 79.34) rotate(64.47)"><tspan x="0" y="0">l</tspan></text>
  <text class="cls-1" transform="translate(219.95 80.27) rotate(65.43)"><tspan x="0" y="0">o</tspan></text>
  <text class="cls-1" transform="translate(220.99 82.55) rotate(66.53)"><tspan x="0" y="0">r</tspan></text>
  <text class="cls-1" transform="translate(221.6 83.96) rotate(67.57)"><tspan x="0" y="0">e</tspan></text>
  <text class="cls-1" transform="translate(222.48 86.09) rotate(68.87)"><tspan x="0" y="0">d</tspan></text>
  <text class="cls-1" transform="translate(223.38 88.43) rotate(69.9)"><tspan x="0" y="0"> </tspan></text>
  <text class="cls-1" transform="translate(223.83 89.63) rotate(70.93)"><tspan x="0" y="0">b</tspan></text>
  <text class="cls-1" transform="translate(224.61 91.91) rotate(72.18)"><tspan x="0" y="0">y</tspan></text>
  <text class="cls-1" transform="translate(225.31 94.07) rotate(73.15)"><tspan x="0" y="0"> </tspan></text>
  <text class="cls-1" transform="translate(225.68 95.3) rotate(74.17)"><tspan x="0" y="0">B</tspan></text>
  <text class="cls-1" transform="translate(226.36 97.68) rotate(75.48)"><tspan x="0" y="0">e</tspan></text>
  <text class="cls-1" transform="translate(226.93 99.9) rotate(76.73)"><tspan x="0" y="0">n</tspan></text>
  <text class="cls-1" transform="translate(227.46 102.12) rotate(78.04)"><tspan x="0" y="0">o</tspan></text>
  <text class="cls-1" transform="translate(227.97 104.58) rotate(79.01)"><tspan x="0" y="0">i</tspan></text>
  <text class="cls-1" transform="translate(228.17 105.6) rotate(79.61)"><tspan x="0" y="0">t</tspan></text>
  <text class="cls-1" transform="translate(228.38 106.71) rotate(80.26)"><tspan x="0" y="0"> </tspan></text>
  <text class="cls-1" transform="translate(228.61 107.98) rotate(81.73)"><tspan x="0" y="0">M</tspan></text>
  <text class="cls-1" transform="translate(229.18 111.94) rotate(83.5)"><tspan x="0" y="0">a</tspan></text>
  <text class="cls-1" transform="translate(229.46 114.43) rotate(84.82)"><tspan x="0" y="0">n</tspan></text>
  <text class="cls-1" transform="translate(229.67 116.7) rotate(86.14)"><tspan x="0" y="0">d</tspan></text>
  <text class="cls-1" transform="translate(229.83 119.19) rotate(87.45)"><tspan x="0" y="0">e</tspan></text>
  <text class="cls-1" transform="translate(229.93 121.52) rotate(88.38)"><tspan x="0" y="0">l</tspan></text>
  <text class="cls-1" transform="translate(229.97 122.54) rotate(89.35)"><tspan x="0" y="0">b</tspan></text>
  <text class="cls-1" transform="translate(229.99 125.05) rotate(90.47)"><tspan x="0" y="0">r</tspan></text>
  <text class="cls-1" transform="translate(229.98 126.56) rotate(91.57)"><tspan x="0" y="0">o</tspan></text>
  <text class="cls-1" transform="translate(229.91 129.08) rotate(92.57)"><tspan x="0" y="0">t</tspan></text>
  <text class="cls-1" transform="translate(229.86 130.23) rotate(93.24)"><tspan x="0" y="0"> </tspan></text>
  <text class="cls-1" transform="translate(229.78 131.51) rotate(93.88)"><tspan x="0" y="0">i</tspan></text>
  <text class="cls-1" transform="translate(229.72 132.54) rotate(94.79)"><tspan x="0" y="0">n</tspan></text>
  <text class="cls-1" transform="translate(229.52 134.84) rotate(95.78)"><tspan x="0" y="0"> </tspan></text>
  <text class="cls-1" transform="translate(229.39 136.1) rotate(96.43)"><tspan x="0" y="0">t</tspan></text>
  <text class="cls-1" transform="translate(229.26 137.32) rotate(97.42)"><tspan x="0" y="0">h</tspan></text>
  <text class="cls-1" transform="translate(228.97 139.59) rotate(98.67)"><tspan x="0" y="0">e</tspan></text>
  <text class="cls-1" transform="translate(228.61 141.88) rotate(99.65)"><tspan x="0" y="0"> </tspan></text>
  <text class="cls-1" transform="translate(228.4 143.13) rotate(100.7)"><tspan x="0" y="0">7</tspan></text>
  <text class="cls-1" transform="translate(227.93 145.67) rotate(102.1)"><tspan x="0" y="0">0</tspan></text>
  <text class="cls-1" transform="translate(227.38 148.2) rotate(103.25)"><tspan x="0" y="0">s</tspan></text>
  <text class="cls-1" transform="translate(226.99 149.83) rotate(104.05)"><tspan x="0" y="0">.</tspan></text>
  <text class="cls-1" transform="translate(226.68 151.08) rotate(104.74)"><tspan x="0" y="0"> </tspan></text>
  <text class="cls-1" transform="translate(226.39 152.33) rotate(106.74)"><tspan x="0" y="0">M</tspan></text>
  <text class="cls-1" transform="translate(225.24 156.18) rotate(107.9)"><tspan x="0" y="0">a</tspan></text>
  <text class="cls-1" transform="translate(224.47 158.56) rotate(109.19)"><tspan x="0" y="0">n</tspan></text>
  <text class="cls-1" transform="translate(223.73 160.71) rotate(110.48)"><tspan x="0" y="0">d</tspan></text>
  <text class="cls-1" transform="translate(222.85 163.06) rotate(111.8)"><tspan x="0" y="0">e</tspan></text>
  <text class="cls-1" transform="translate(221.99 165.19) rotate(112.7)"><tspan x="0" y="0">l</tspan></text>
  <text class="cls-1" transform="translate(221.59 166.16) rotate(113.67)"><tspan x="0" y="0">b</tspan></text>
  <text class="cls-1" transform="translate(220.59 168.44) rotate(114.77)"><tspan x="0" y="0">r</tspan></text>
  <text class="cls-1" transform="translate(219.96 169.82) rotate(115.86)"><tspan x="0" y="0">o</tspan></text>
  <text class="cls-1" transform="translate(218.84 172.1) rotate(116.87)"><tspan x="0" y="0">t</tspan></text>
  <text class="cls-1" transform="translate(218.33 173.11) rotate(117.54)"><tspan x="0" y="0"> </tspan></text>
  <text class="cls-1" transform="translate(217.75 174.26) rotate(118.78)"><tspan x="0" y="0">w</tspan></text>
  <text class="cls-1" transform="translate(216.19 177.07) rotate(120.09)"><tspan x="0" y="0">r</tspan></text>
  <text class="cls-1" transform="translate(215.43 178.4) rotate(121.19)"><tspan x="0" y="0">o</tspan></text>
  <text class="cls-1" transform="translate(214.11 180.56) rotate(122.2)"><tspan x="0" y="0">t</tspan></text>
  <text class="cls-1" transform="translate(213.48 181.57) rotate(123.18)"><tspan x="0" y="0">e</tspan></text>
  <text class="cls-1" transform="translate(212.23 183.48) rotate(124.16)"><tspan x="0" y="0"> </tspan></text>
  <text class="cls-1" transform="translate(211.5 184.56) rotate(125.15)"><tspan x="0" y="0">e</tspan></text>
  <text class="cls-1" transform="translate(210.21 186.39) rotate(126.39)"><tspan x="0" y="0">x</tspan></text>
  <text class="cls-1" transform="translate(208.83 188.25) rotate(127.34)"><tspan x="0" y="0">t</tspan></text>
  <text class="cls-1" transform="translate(208.13 189.19) rotate(128.3)"><tspan x="0" y="0">e</tspan></text>
  <text class="cls-1" transform="translate(206.71 190.98) rotate(129.55)"><tspan x="0" y="0">n</tspan></text>
  <text class="cls-1" transform="translate(205.25 192.75) rotate(130.65)"><tspan x="0" y="0">s</tspan></text>
  <text class="cls-1" transform="translate(204.13 194.04) rotate(131.4)"><tspan x="0" y="0">i</tspan></text>
  <text class="cls-1" transform="translate(203.45 194.82) rotate(132.26)"><tspan x="0" y="0">v</tspan></text>
  <text class="cls-1" transform="translate(202.11 196.3) rotate(133.42)"><tspan x="0" y="0">e</tspan></text>
  <text class="cls-1" transform="translate(200.5 197.99) rotate(134.34)"><tspan x="0" y="0">l</tspan></text>
  <text class="cls-1" transform="translate(199.76 198.76) rotate(135.26)"><tspan x="0" y="0">y</tspan></text>
  <text class="cls-1" transform="translate(198.14 200.36) rotate(136.23)"><tspan x="0" y="0"> </tspan></text>
  <text class="cls-1" transform="translate(197.23 201.24) rotate(137.26)"><tspan x="0" y="0">a</tspan></text>
  <text class="cls-1" transform="translate(195.38 202.94) rotate(138.63)"><tspan x="0" y="0">b</tspan></text>
  <text class="cls-1" transform="translate(193.52 204.59) rotate(139.99)"><tspan x="0" y="0">o</tspan></text>
  <text class="cls-1" transform="translate(191.58 206.21) rotate(141.3)"><tspan x="0" y="0">u</tspan></text>
  <text class="cls-1" transform="translate(189.81 207.62) rotate(142.22)"><tspan x="0" y="0">t</tspan></text>
  <text class="cls-1" transform="translate(188.9 208.33) rotate(142.88)"><tspan x="0" y="0"> </tspan></text>
  <text class="cls-1" transform="translate(187.89 209.1) rotate(143.85)"><tspan x="0" y="0">h</tspan></text>
  <text class="cls-1" transform="translate(186.04 210.45) rotate(145.15)"><tspan x="0" y="0">o</tspan></text>
  <text class="cls-1" transform="translate(184.06 211.84) rotate(146.66)"><tspan x="0" y="0">w</tspan></text>
  <text class="cls-1" transform="translate(181.35 213.61) rotate(147.89)"><tspan x="0" y="0"> </tspan></text>
  <text class="cls-1" transform="translate(180.27 214.29) rotate(148.92)"><tspan x="0" y="0">o</tspan></text>
  <text class="cls-1" transform="translate(178.11 215.59) rotate(150.22)"><tspan x="0" y="0">u</tspan></text>
  <text class="cls-1" transform="translate(176.16 216.71) rotate(151.24)"><tspan x="0" y="0">r</tspan></text>
  <text class="cls-1" transform="translate(174.8 217.45) rotate(152.01)"><tspan x="0" y="0"> </tspan></text>
  <text class="cls-1" transform="translate(173.64 218.07) rotate(152.65)"><tspan x="0" y="0">i</tspan></text>
  <text class="cls-1" transform="translate(172.74 218.55) rotate(153.82)"><tspan x="0" y="0">m</tspan></text>
  <text class="cls-1" transform="translate(169.72 220.03) rotate(155.43)"><tspan x="0" y="0">p</tspan></text>
  <text class="cls-1" transform="translate(167.45 221.06) rotate(156.53)"><tspan x="0" y="0">r</tspan></text>
  <text class="cls-1" transform="translate(166.04 221.68) rotate(157.57)"><tspan x="0" y="0">e</tspan></text>
  <text class="cls-1" transform="translate(163.93 222.54) rotate(158.64)"><tspan x="0" y="0">s</tspan></text>
  <text class="cls-1" transform="translate(162.35 223.16) rotate(159.56)"><tspan x="0" y="0">s</tspan></text>
  <text class="cls-1" transform="translate(160.75 223.76) rotate(160.31)"><tspan x="0" y="0">i</tspan></text>
  <text class="cls-1" transform="translate(159.77 224.11) rotate(161.28)"><tspan x="0" y="0">o</tspan></text>
  <text class="cls-1" transform="translate(157.42 224.91) rotate(162.57)"><tspan x="0" y="0">n</tspan></text>
  <text class="cls-1" transform="translate(155.22 225.59) rotate(163.55)"><tspan x="0" y="0"> </tspan></text>
  <text class="cls-1" transform="translate(153.99 225.96) rotate(164.59)"><tspan x="0" y="0">o</tspan></text>
  <text class="cls-1" transform="translate(151.56 226.63) rotate(165.61)"><tspan x="0" y="0">f</tspan></text>
  <text class="cls-1" transform="translate(150.38 226.93) rotate(166.3)"><tspan x="0" y="0"> </tspan></text>
  <text class="cls-1" transform="translate(149.14 227.24) rotate(167.33)"><tspan x="0" y="0">a</tspan></text>
  <text class="cls-1" transform="translate(146.69 227.79) rotate(168.64)"><tspan x="0" y="0">n</tspan></text>
  <text class="cls-1" transform="translate(144.44 228.24) rotate(169.62)"><tspan x="0" y="0"> </tspan></text>
  <text class="cls-1" transform="translate(143.19 228.47) rotate(170.66)"><tspan x="0" y="0">o</tspan></text>
  <text class="cls-1" transform="translate(140.71 228.88) rotate(171.97)"><tspan x="0" y="0">u</tspan></text>
  <text class="cls-1" transform="translate(138.45 229.19) rotate(172.91)"><tspan x="0" y="0">t</tspan></text>
  <text class="cls-1" transform="translate(137.32 229.33) rotate(173.5)"><tspan x="0" y="0">l</tspan></text>
  <text class="cls-1" transform="translate(136.29 229.45) rotate(174.07)"><tspan x="0" y="0">i</tspan></text>
  <text class="cls-1" transform="translate(135.28 229.56) rotate(174.98)"><tspan x="0" y="0">n</tspan></text>
  <text class="cls-1" transform="translate(132.99 229.76) rotate(176.25)"><tspan x="0" y="0">e</tspan></text>
  <text class="cls-1" transform="translate(130.69 229.91) rotate(177.23)"><tspan x="0" y="0"> </tspan></text>
  <text class="cls-1" transform="translate(129.41 229.97) rotate(178.27)"><tspan x="0" y="0">a</tspan></text>
  <text class="cls-1" transform="translate(126.91 230.05) rotate(179.43)"><tspan x="0" y="0">s</tspan></text>
  <text class="cls-1" transform="translate(125.21 230.06) rotate(-179.75)"><tspan x="0" y="0"> </tspan></text>
  <text class="cls-1" transform="translate(123.93 230.06) rotate(-178.71)"><tspan x="0" y="0">a</tspan></text>
  <text class="cls-1" transform="translate(121.43 230) rotate(-177.68)"><tspan x="0" y="0"> </tspan></text>
  <text class="cls-1" transform="translate(120.15 229.96) rotate(-176.61)"><tspan x="0" y="0">2</tspan></text>
  <text class="cls-1" transform="translate(117.58 229.81) rotate(-175.08)"><tspan x="0" y="0">D</tspan></text>
  <text class="cls-1" transform="translate(114.56 229.54) rotate(-173.9)"><tspan x="0" y="0"> </tspan></text>
  <text class="cls-1" transform="translate(113.27 229.4) rotate(-173.26)"><tspan x="0" y="0">l</tspan></text>
  <text class="cls-1" transform="translate(112.25 229.28) rotate(-172.69)"><tspan x="0" y="0">i</tspan></text>
  <text class="cls-1" transform="translate(111.24 229.15) rotate(-171.79)"><tspan x="0" y="0">n</tspan></text>
  <text class="cls-1" transform="translate(108.95 228.82) rotate(-170.53)"><tspan x="0" y="0">e</tspan></text>
  <text class="cls-1" transform="translate(106.68 228.44) rotate(-169.55)"><tspan x="0" y="0"> </tspan></text>
  <text class="cls-1" transform="translate(105.42 228.21) rotate(-168.9)"><tspan x="0" y="0">t</tspan></text>
  <text class="cls-1" transform="translate(104.22 227.98) rotate(-167.92)"><tspan x="0" y="0">h</tspan></text>
  <text class="cls-1" transform="translate(101.99 227.5) rotate(-166.63)"><tspan x="0" y="0">a</tspan></text>
  <text class="cls-1" transform="translate(99.56 226.92) rotate(-165.66)"><tspan x="0" y="0">t</tspan></text>
  <text class="cls-1" transform="translate(98.44 226.63) rotate(-165.11)"><tspan x="0" y="0"> </tspan></text>
  <text class="cls-1" transform="translate(97.21 226.33) rotate(-163.26)"><tspan x="0" y="0">w</tspan></text>
  <text class="cls-1" transform="translate(94.09 225.4) rotate(-162.51)"><tspan x="0" y="0">r</tspan></text>
  <text class="cls-1" transform="translate(92.66 224.95) rotate(-161.44)"><tspan x="0" y="0">a</tspan></text>
  <text class="cls-1" transform="translate(90.27 224.15) rotate(-160.08)"><tspan x="0" y="0">p</tspan></text>
  <text class="cls-1" transform="translate(87.93 223.29) rotate(-158.95)"><tspan x="0" y="0">s</tspan></text>
  <text class="cls-1" transform="translate(86.34 222.68) rotate(-158.14)"><tspan x="0" y="0"> </tspan></text>
  <text class="cls-1" transform="translate(85.15 222.21) rotate(-157.11)"><tspan x="0" y="0">a</tspan></text>
  <text class="cls-1" transform="translate(82.86 221.25) rotate(-155.81)"><tspan x="0" y="0">n</tspan></text>
  <text class="cls-1" transform="translate(80.75 220.29) rotate(-154.82)"><tspan x="0" y="0"> </tspan></text>
  <text class="cls-1" transform="translate(79.6 219.76) rotate(-153.79)"><tspan x="0" y="0">o</tspan></text>
  <text class="cls-1" transform="translate(77.36 218.65) rotate(-152.42)"><tspan x="0" y="0">b</tspan></text>
  <text class="cls-1" transform="translate(75.15 217.49) rotate(-151.45)"><tspan x="0" y="0">j</tspan></text>
  <text class="cls-1" transform="translate(74.22 217) rotate(-150.53)"><tspan x="0" y="0">e</tspan></text>
  <text class="cls-1" transform="translate(72.23 215.87) rotate(-149.35)"><tspan x="0" y="0">c</tspan></text>
  <text class="cls-1" transform="translate(70.5 214.84) rotate(-148.49)"><tspan x="0" y="0">t</tspan></text>
  <text class="cls-1" transform="translate(69.53 214.25) rotate(-147.82)"><tspan x="0" y="0"> </tspan></text>
  <text class="cls-1" transform="translate(68.44 213.56) rotate(-146.77)"><tspan x="0" y="0">d</tspan></text>
  <text class="cls-1" transform="translate(66.36 212.19) rotate(-145.81)"><tspan x="0" y="0">i</tspan></text>
  <text class="cls-1" transform="translate(65.5 211.61) rotate(-145.06)"><tspan x="0" y="0">s</tspan></text>
  <text class="cls-1" transform="translate(64.12 210.65) rotate(-144.13)"><tspan x="0" y="0">s</tspan></text>
  <text class="cls-1" transform="translate(62.74 209.66) rotate(-142.97)"><tspan x="0" y="0">o</tspan></text>
  <text class="cls-1" transform="translate(60.75 208.15) rotate(-142)"><tspan x="0" y="0">l</tspan></text>
  <text class="cls-1" transform="translate(59.91 207.49) rotate(-141.13)"><tspan x="0" y="0">v</tspan></text>
  <text class="cls-1" transform="translate(58.32 206.22) rotate(-139.95)"><tspan x="0" y="0">e</tspan></text>
  <text class="cls-1" transform="translate(56.55 204.73) rotate(-138.85)"><tspan x="0" y="0">s</tspan></text>
  <text class="cls-1" transform="translate(55.29 203.62) rotate(-138.04)"><tspan x="0" y="0"> </tspan></text>
  <text class="cls-1" transform="translate(54.32 202.76) rotate(-137.06)"><tspan x="0" y="0">u</tspan></text>
  <text class="cls-1" transform="translate(52.67 201.22) rotate(-135.82)"><tspan x="0" y="0">n</tspan></text>
  <text class="cls-1" transform="translate(51.02 199.63) rotate(-134.51)"><tspan x="0" y="0">d</tspan></text>
  <text class="cls-1" transform="translate(49.28 197.85) rotate(-133.2)"><tspan x="0" y="0">e</tspan></text>
  <text class="cls-1" transform="translate(47.69 196.16) rotate(-132.15)"><tspan x="0" y="0">r</tspan></text>
  <text class="cls-1" transform="translate(46.65 195) rotate(-131.37)"><tspan x="0" y="0"> </tspan></text>
  <text class="cls-1" transform="translate(45.81 194.05) rotate(-130.49)"><tspan x="0" y="0">c</tspan></text>
  <text class="cls-1" transform="translate(44.5 192.51) rotate(-129.65)"><tspan x="0" y="0">l</tspan></text>
  <text class="cls-1" transform="translate(43.84 191.73) rotate(-128.69)"><tspan x="0" y="0">o</tspan></text>
  <text class="cls-1" transform="translate(42.27 189.76) rotate(-127.54)"><tspan x="0" y="0">s</tspan></text>
  <text class="cls-1" transform="translate(41.24 188.43) rotate(-126.46)"><tspan x="0" y="0">e</tspan></text>
  <text class="cls-1" transform="translate(39.88 186.57) rotate(-125.41)"><tspan x="0" y="0">r</tspan></text>
  <text class="cls-1" transform="translate(38.98 185.3) rotate(-124.64)"><tspan x="0" y="0"> </tspan></text>
  <text class="cls-1" transform="translate(38.24 184.25) rotate(-123.62)"><tspan x="0" y="0">a</tspan></text>
  <text class="cls-1" transform="translate(36.87 182.18) rotate(-122.32)"><tspan x="0" y="0">n</tspan></text>
  <text class="cls-1" transform="translate(35.64 180.24) rotate(-121.02)"><tspan x="0" y="0">a</tspan></text>
  <text class="cls-1" transform="translate(34.35 178.09) rotate(-120.06)"><tspan x="0" y="0">l</tspan></text>
  <text class="cls-1" transform="translate(33.81 177.16) rotate(-119.14)"><tspan x="0" y="0">y</tspan></text>
  <text class="cls-1" transform="translate(32.71 175.19) rotate(-118.07)"><tspan x="0" y="0">s</tspan></text>
  <text class="cls-1" transform="translate(31.91 173.68) rotate(-117.33)"><tspan x="0" y="0">i</tspan></text>
  <text class="cls-1" transform="translate(31.44 172.77) rotate(-116.59)"><tspan x="0" y="0">s</tspan></text>
  <text class="cls-1" transform="translate(30.68 171.27) rotate(-115.79)"><tspan x="0" y="0">.</tspan></text>
</svg>