<?xml version="1.0" encoding="UTF-8"?>
<svg id="Layer_4" data-name="Layer 4" xmlns="http://www.w3.org/2000/svg" viewBox="0 0 150 150">
  <defs>
    <style>
      .cls-1 {
        fill: #231f20;
        font-family: MyriadPro-Regular, 'Myriad Pro';
        font-size: 2px;
      }
    </style>
  </defs>
  <text class="cls-1" transform="translate(75.01 47.49) rotate(1.18)"><tspan x="0" y="0">X</tspan></text>
  <text class="cls-1" transform="translate(76.09 47.52) rotate(2.86)"><tspan x="0" y="0">-</tspan></text>
  <text class="cls-1" transform="translate(76.7 47.55) rotate(4.17)"><tspan x="0" y="0">r</tspan></text>
  <text class="cls-1" transform="translate(77.33 47.59) rotate(5.8)"><tspan x="0" y="0">a</tspan></text>
  <text class="cls-1" transform="translate(78.25 47.69) rotate(7.7)"><tspan x="0" y="0">y</tspan></text>
  <text class="cls-1" transform="translate(79.17 47.81) rotate(9.09)"><tspan x="0" y="0"> </tspan></text>
  <text class="cls-1" transform="translate(79.6 47.88) rotate(10.49)"><tspan x="0" y="0">c</tspan></text>
  <text class="cls-1" transform="translate(80.45 48.04) rotate(12.06)"><tspan x="0" y="0">r</tspan></text>
  <text class="cls-1" transform="translate(81.13 48.18) rotate(13.8)"><tspan x="0" y="0">y</tspan></text>
  <text class="cls-1" transform="translate(82.02 48.4) rotate(15.59)"><tspan x="0" y="0">s</tspan></text>
  <text class="cls-1" transform="translate(82.78 48.61) rotate(17.1)"><tspan x="0" y="0">t</tspan></text>
  <text class="cls-1" transform="translate(83.4 48.8) rotate(18.79)"><tspan x="0" y="0">a</tspan></text>
  <text class="cls-1" transform="translate(84.29 49.11) rotate(20.24)"><tspan x="0" y="0">l</tspan></text>
  <text class="cls-1" transform="translate(84.73 49.27) rotate(21.87)"><tspan x="0" y="0">o</tspan></text>
  <text class="cls-1" transform="translate(85.73 49.67) rotate(24.15)"><tspan x="0" y="0">g</tspan></text>
  <text class="cls-1" transform="translate(86.74 50.12) rotate(25.99)"><tspan x="0" y="0">r</tspan></text>
  <text class="cls-1" transform="translate(87.31 50.4) rotate(27.64)"><tspan x="0" y="0">a</tspan></text>
  <text class="cls-1" transform="translate(88.14 50.83) rotate(29.77)"><tspan x="0" y="0">p</tspan></text>
  <text class="cls-1" transform="translate(89.11 51.38) rotate(32.06)"><tspan x="0" y="0">h</tspan></text>
  <text class="cls-1" transform="translate(90.02 51.96) rotate(34.13)"><tspan x="0" y="0">y</tspan></text>
  <text class="cls-1" transform="translate(90.8 52.49) rotate(35.55)"><tspan x="0" y="0"> </tspan></text>
  <text class="cls-1" transform="translate(91.12 52.71) rotate(36.96)"><tspan x="0" y="0">e</tspan></text>
  <text class="cls-1" transform="translate(91.91 53.31) rotate(38.93)"><tspan x="0" y="0">x</tspan></text>
  <text class="cls-1" transform="translate(92.65 53.91) rotate(40.64)"><tspan x="0" y="0">t</tspan></text>
  <text class="cls-1" transform="translate(93.14 54.33) rotate(41.97)"><tspan x="0" y="0">r</tspan></text>
  <text class="cls-1" transform="translate(93.62 54.76) rotate(43.63)"><tspan x="0" y="0">a</tspan></text>
  <text class="cls-1" transform="translate(94.31 55.41) rotate(45.77)"><tspan x="0" y="0">p</tspan></text>
  <text class="cls-1" transform="translate(95.09 56.21) rotate(48.03)"><tspan x="0" y="0">o</tspan></text>
  <text class="cls-1" transform="translate(95.8 57.01) rotate(49.61)"><tspan x="0" y="0">l</tspan></text>
  <text class="cls-1" transform="translate(96.11 57.37) rotate(51.11)"><tspan x="0" y="0">a</tspan></text>
  <text class="cls-1" transform="translate(96.7 58.1) rotate(52.73)"><tspan x="0" y="0">t</tspan></text>
  <text class="cls-1" transform="translate(97.09 58.61) rotate(54.41)"><tspan x="0" y="0">e</tspan></text>
  <text class="cls-1" transform="translate(97.66 59.41) rotate(56.26)"><tspan x="0" y="0">s</tspan></text>
  <text class="cls-1" transform="translate(98.1 60.07) rotate(57.51)"><tspan x="0" y="0"> </tspan></text>
  <text class="cls-1" transform="translate(98.32 60.42) rotate(58.94)"><tspan x="0" y="0">a</tspan></text>
  <text class="cls-1" transform="translate(98.81 61.24) rotate(60.36)"><tspan x="0" y="0"> </tspan></text>
  <text class="cls-1" transform="translate(99.02 61.59) rotate(61.84)"><tspan x="0" y="0">3</tspan></text>
  <text class="cls-1" transform="translate(99.5 62.48) rotate(64.27)"><tspan x="0" y="0">D</tspan></text>
  <text class="cls-1" transform="translate(100.07 63.68) rotate(66.11)"><tspan x="0" y="0"> </tspan></text>
  <text class="cls-1" transform="translate(100.24 64.05) rotate(67.34)"><tspan x="0" y="0">s</tspan></text>
  <text class="cls-1" transform="translate(100.54 64.77) rotate(69.32)"><tspan x="0" y="0">h</tspan></text>
  <text class="cls-1" transform="translate(100.93 65.8) rotate(71.48)"><tspan x="0" y="0">a</tspan></text>
  <text class="cls-1" transform="translate(101.23 66.68) rotate(73.61)"><tspan x="0" y="0">p</tspan></text>
  <text class="cls-1" transform="translate(101.54 67.77) rotate(75.84)"><tspan x="0" y="0">e</tspan></text>
  <text class="cls-1" transform="translate(101.78 68.73) rotate(77.31)"><tspan x="0" y="0"> </tspan></text>
  <text class="cls-1" transform="translate(101.87 69.13) rotate(78.35)"><tspan x="0" y="0">f</tspan></text>
  <text class="cls-1" transform="translate(101.99 69.7) rotate(79.65)"><tspan x="0" y="0">r</tspan></text>
  <text class="cls-1" transform="translate(102.11 70.31) rotate(81.4)"><tspan x="0" y="0">o</tspan></text>
  <text class="cls-1" transform="translate(102.28 71.38) rotate(84.24)"><tspan x="0" y="0">m</tspan></text>
  <text class="cls-1" transform="translate(102.43 73.02) rotate(86.37)"><tspan x="0" y="0"> </tspan></text>
  <text class="cls-1" transform="translate(102.47 73.43) rotate(88.5)"><tspan x="0" y="0">m</tspan></text>
  <text class="cls-1" transform="translate(102.51 75.07) rotate(91.27)"><tspan x="0" y="0">u</tspan></text>
  <text class="cls-1" transform="translate(102.48 76.18) rotate(92.9)"><tspan x="0" y="0">l</tspan></text>
  <text class="cls-1" transform="translate(102.45 76.63) rotate(94.03)"><tspan x="0" y="0">t</tspan></text>
  <text class="cls-1" transform="translate(102.41 77.28) rotate(95.84)"><tspan x="0" y="0">u</tspan></text>
  <text class="cls-1" transform="translate(102.3 78.37) rotate(98.15)"><tspan x="0" y="0">p</tspan></text>
  <text class="cls-1" transform="translate(102.14 79.47) rotate(99.77)"><tspan x="0" y="0">l</tspan></text>
  <text class="cls-1" transform="translate(102.07 79.92) rotate(101.29)"><tspan x="0" y="0">e</tspan></text>
  <text class="cls-1" transform="translate(101.86 80.92) rotate(102.82)"><tspan x="0" y="0"> </tspan></text>
  <text class="cls-1" transform="translate(101.78 81.31) rotate(103.89)"><tspan x="0" y="0">r</tspan></text>
  <text class="cls-1" transform="translate(101.63 81.92) rotate(105.68)"><tspan x="0" y="0">o</tspan></text>
  <text class="cls-1" transform="translate(101.33 82.96) rotate(107.5)"><tspan x="0" y="0">t</tspan></text>
  <text class="cls-1" transform="translate(101.14 83.58) rotate(109.19)"><tspan x="0" y="0">a</tspan></text>
  <text class="cls-1" transform="translate(100.83 84.46) rotate(110.82)"><tspan x="0" y="0">t</tspan></text>
  <text class="cls-1" transform="translate(100.6 85.07) rotate(112.53)"><tspan x="0" y="0">e</tspan></text>
  <text class="cls-1" transform="translate(100.22 86) rotate(114.77)"><tspan x="0" y="0">d</tspan></text>
  <text class="cls-1" transform="translate(99.76 87) rotate(116.34)"><tspan x="0" y="0"> </tspan></text>
  <text class="cls-1" transform="translate(99.58 87.36) rotate(117.81)"><tspan x="0" y="0">2</tspan></text>
  <text class="cls-1" transform="translate(99.11 88.26) rotate(120.25)"><tspan x="0" y="0">D</tspan></text>
  <text class="cls-1" transform="translate(98.43 89.4) rotate(122.06)"><tspan x="0" y="0"> </tspan></text>
  <text class="cls-1" transform="translate(98.22 89.75) rotate(123.31)"><tspan x="0" y="0">s</tspan></text>
  <text class="cls-1" transform="translate(97.8 90.4) rotate(125.25)"><tspan x="0" y="0">h</tspan></text>
  <text class="cls-1" transform="translate(97.15 91.3) rotate(127.39)"><tspan x="0" y="0">a</tspan></text>
  <text class="cls-1" transform="translate(96.58 92.06) rotate(129.54)"><tspan x="0" y="0">d</tspan></text>
  <text class="cls-1" transform="translate(95.87 92.91) rotate(131.79)"><tspan x="0" y="0">o</tspan></text>
  <text class="cls-1" transform="translate(95.16 93.71) rotate(134.41)"><tspan x="0" y="0">w</tspan></text>
  <text class="cls-1" transform="translate(94.16 94.73) rotate(136.66)"><tspan x="0" y="0">s</tspan></text>
  <text class="cls-1" transform="translate(93.59 95.27) rotate(137.9)"><tspan x="0" y="0">	</tspan></text>
  <text class="cls-1" transform="translate(83.23 101.25) rotate(163.97)"><tspan x="0" y="0">U</tspan></text>
  <text class="cls-1" transform="translate(82 101.61) rotate(166.47)"><tspan x="0" y="0">V</tspan></text>
  <text class="cls-1" transform="translate(80.95 101.86) rotate(168.21)"><tspan x="0" y="0">-</tspan></text>
  <text class="cls-1" transform="translate(80.37 101.98) rotate(169.96)"><tspan x="0" y="0">u</tspan></text>
  <text class="cls-1" transform="translate(79.29 102.17) rotate(172.26)"><tspan x="0" y="0">n</tspan></text>
  <text class="cls-1" transform="translate(78.24 102.32) rotate(174.83)"><tspan x="0" y="0">w</tspan></text>
  <text class="cls-1" transform="translate(76.79 102.44) rotate(177.01)"><tspan x="0" y="0">r</tspan></text>
  <text class="cls-1" transform="translate(76.15 102.48) rotate(178.64)"><tspan x="0" y="0">a</tspan></text>
  <text class="cls-1" transform="translate(75.21 102.51) rotate(-179.07)"><tspan x="0" y="0">p</tspan></text>
  <text class="cls-1" transform="translate(74.07 102.49) rotate(-176.92)"><tspan x="0" y="0">p</tspan></text>
  <text class="cls-1" transform="translate(72.94 102.43) rotate(-175.28)"><tspan x="0" y="0">i</tspan></text>
  <text class="cls-1" transform="translate(72.5 102.39) rotate(-173.7)"><tspan x="0" y="0">n</tspan></text>
  <text class="cls-1" transform="translate(71.41 102.27) rotate(-171.4)"><tspan x="0" y="0">g</tspan></text>
  <text class="cls-1" transform="translate(70.32 102.1) rotate(-169.83)"><tspan x="0" y="0"> </tspan></text>
  <text class="cls-1" transform="translate(69.91 102.03) rotate(-168.71)"><tspan x="0" y="0">r</tspan></text>
  <text class="cls-1" transform="translate(69.3 101.91) rotate(-167.05)"><tspan x="0" y="0">e</tspan></text>
  <text class="cls-1" transform="translate(68.35 101.69) rotate(-165.21)"><tspan x="0" y="0">s</tspan></text>
  <text class="cls-1" transform="translate(67.59 101.5) rotate(-163.26)"><tspan x="0" y="0">u</tspan></text>
  <text class="cls-1" transform="translate(66.52 101.17) rotate(-161.57)"><tspan x="0" y="0">l</tspan></text>
  <text class="cls-1" transform="translate(66.09 101.03) rotate(-160.42)"><tspan x="0" y="0">t</tspan></text>
  <text class="cls-1" transform="translate(65.48 100.81) rotate(-158.92)"><tspan x="0" y="0">s</tspan></text>
  <text class="cls-1" transform="translate(64.76 100.53) rotate(-157.69)"><tspan x="0" y="0"> </tspan></text>
  <text class="cls-1" transform="translate(64.36 100.37) rotate(-156.72)"><tspan x="0" y="0">i</tspan></text>
  <text class="cls-1" transform="translate(63.96 100.2) rotate(-155.14)"><tspan x="0" y="0">n</tspan></text>
  <text class="cls-1" transform="translate(62.95 99.73) rotate(-153.54)"><tspan x="0" y="0"> </tspan></text>
  <text class="cls-1" transform="translate(62.57 99.54) rotate(-152.09)"><tspan x="0" y="0">a</tspan></text>
  <text class="cls-1" transform="translate(61.73 99.09) rotate(-150.66)"><tspan x="0" y="0"> </tspan></text>
  <text class="cls-1" transform="translate(61.37 98.89) rotate(-149.41)"><tspan x="0" y="0">s</tspan></text>
  <text class="cls-1" transform="translate(60.71 98.5) rotate(-147.6)"><tspan x="0" y="0">e</tspan></text>
  <text class="cls-1" transform="translate(59.87 97.97) rotate(-145.57)"><tspan x="0" y="0">a</tspan></text>
  <text class="cls-1" transform="translate(59.08 97.44) rotate(-142.87)"><tspan x="0" y="0">m</tspan></text>
  <text class="cls-1" transform="translate(57.77 96.43) rotate(-140.73)"><tspan x="0" y="0"> </tspan></text>
  <text class="cls-1" transform="translate(57.45 96.18) rotate(-139.14)"><tspan x="0" y="0">d</tspan></text>
  <text class="cls-1" transform="translate(56.61 95.45) rotate(-136.88)"><tspan x="0" y="0">o</tspan></text>
  <text class="cls-1" transform="translate(55.82 94.72) rotate(-134.27)"><tspan x="0" y="0">w</tspan></text>
  <text class="cls-1" transform="translate(54.82 93.69) rotate(-131.67)"><tspan x="0" y="0">n</tspan></text>
  <text class="cls-1" transform="translate(54.09 92.86) rotate(-130.09)"><tspan x="0" y="0"> </tspan></text>
  <text class="cls-1" transform="translate(53.82 92.55) rotate(-128.68)"><tspan x="0" y="0">a</tspan></text>
  <text class="cls-1" transform="translate(53.22 91.79) rotate(-127.22)"><tspan x="0" y="0"> </tspan></text>
  <text class="cls-1" transform="translate(52.97 91.47) rotate(-125.89)"><tspan x="0" y="0">c</tspan></text>
  <text class="cls-1" transform="translate(52.46 90.77) rotate(-123.87)"><tspan x="0" y="0">h</tspan></text>
  <text class="cls-1" transform="translate(51.84 89.85) rotate(-121.71)"><tspan x="0" y="0">a</tspan></text>
  <text class="cls-1" transform="translate(51.35 89.04) rotate(-120.07)"><tspan x="0" y="0">r</tspan></text>
  <text class="cls-1" transform="translate(51.03 88.5) rotate(-118.43)"><tspan x="0" y="0">a</tspan></text>
  <text class="cls-1" transform="translate(50.58 87.66) rotate(-116.51)"><tspan x="0" y="0">c</tspan></text>
  <text class="cls-1" transform="translate(50.17 86.84) rotate(-114.85)"><tspan x="0" y="0">t</tspan></text>
  <text class="cls-1" transform="translate(49.9 86.26) rotate(-113.15)"><tspan x="0" y="0">e</tspan></text>
  <text class="cls-1" transform="translate(49.51 85.35) rotate(-111.43)"><tspan x="0" y="0">r</tspan></text>
  <text class="cls-1" transform="translate(49.26 84.69) rotate(-110.2)"><tspan x="0" y="0">’</tspan></text>
  <text class="cls-1" transform="translate(49.16 84.43) rotate(-109.23)"><tspan x="0" y="0">s</tspan></text>
  <text class="cls-1" transform="translate(48.9 83.7) rotate(-107.99)"><tspan x="0" y="0"> </tspan></text>
  <text class="cls-1" transform="translate(48.77 83.29) rotate(-106.92)"><tspan x="0" y="0">f</tspan></text>
  <text class="cls-1" transform="translate(48.6 82.75) rotate(-105.32)"><tspan x="0" y="0">a</tspan></text>
  <text class="cls-1" transform="translate(48.36 81.85) rotate(-103.45)"><tspan x="0" y="0">c</tspan></text>
  <text class="cls-1" transform="translate(48.15 80.98) rotate(-101.56)"><tspan x="0" y="0">c</tspan></text>
  <text class="cls-1" transform="translate(47.98 80.15) rotate(-99.68)"><tspan x="0" y="0">e</tspan></text>
  <text class="cls-1" transform="translate(47.82 79.18) rotate(-98.24)"><tspan x="0" y="0">,</tspan></text>
  <text class="cls-1" transform="translate(47.76 78.8) rotate(-97.42)"><tspan x="0" y="0"> </tspan></text>
  <text class="cls-1" transform="translate(47.7 78.36) rotate(-95.8)"><tspan x="0" y="0">u</tspan></text>
  <text class="cls-1" transform="translate(47.59 77.29) rotate(-93.9)"><tspan x="0" y="0">s</tspan></text>
  <text class="cls-1" transform="translate(47.54 76.53) rotate(-91.99)"><tspan x="0" y="0">u</tspan></text>
  <text class="cls-1" transform="translate(47.49 75.44) rotate(-89.07)"><tspan x="0" y="0">a</tspan></text>
  <text class="cls-1" transform="translate(47.5 74.48) rotate(-88.46)"><tspan x="0" y="0">l</tspan></text>
  <text class="cls-1" transform="translate(47.52 74) rotate(-87.46)"><tspan x="0" y="0">l</tspan></text>
  <text class="cls-1" transform="translate(47.53 73.55) rotate(-86.06)"><tspan x="0" y="0">y</tspan></text>
  <text class="cls-1" transform="translate(47.6 72.62) rotate(-84.65)"><tspan x="0" y="0"> </tspan></text>
  <text class="cls-1" transform="translate(47.64 72.21) rotate(-83.57)"><tspan x="0" y="0">r</tspan></text>
  <text class="cls-1" transform="translate(47.71 71.56) rotate(-82.4)"><tspan x="0" y="0">i</tspan></text>
  <text class="cls-1" transform="translate(47.77 71.11) rotate(-80.77)"><tspan x="0" y="0">g</tspan></text>
  <text class="cls-1" transform="translate(47.95 70) rotate(-78.44)"><tspan x="0" y="0">h</tspan></text>
  <text class="cls-1" transform="translate(48.17 68.94) rotate(-76.65)"><tspan x="0" y="0">t</tspan></text>
  <text class="cls-1" transform="translate(48.32 68.31) rotate(-75.53)"><tspan x="0" y="0"> </tspan></text>
  <text class="cls-1" transform="translate(48.42 67.91) rotate(-73.92)"><tspan x="0" y="0">d</tspan></text>
  <text class="cls-1" transform="translate(48.72 66.84) rotate(-71.62)"><tspan x="0" y="0">o</tspan></text>
  <text class="cls-1" transform="translate(49.05 65.84) rotate(-69.01)"><tspan x="0" y="0">w</tspan></text>
  <text class="cls-1" transform="translate(49.59 64.46) rotate(-66.29)"><tspan x="0" y="0">n</tspan></text>
  <text class="cls-1" transform="translate(50.03 63.46) rotate(-64.71)"><tspan x="0" y="0"> </tspan></text>
  <text class="cls-1" transform="translate(50.2 63.09) rotate(-63.62)"><tspan x="0" y="0">t</tspan></text>
  <text class="cls-1" transform="translate(50.49 62.51) rotate(-61.79)"><tspan x="0" y="0">h</tspan></text>
  <text class="cls-1" transform="translate(51.02 61.53) rotate(-59.58)"><tspan x="0" y="0">e</tspan></text>
  <text class="cls-1" transform="translate(51.51 60.69) rotate(-58.15)"><tspan x="0" y="0"> </tspan></text>
  <text class="cls-1" transform="translate(51.72 60.33) rotate(-56)"><tspan x="0" y="0">m</tspan></text>
  <text class="cls-1" transform="translate(52.65 58.97) rotate(-53.81)"><tspan x="0" y="0">i</tspan></text>
  <text class="cls-1" transform="translate(52.92 58.6) rotate(-52.18)"><tspan x="0" y="0">d</tspan></text>
  <text class="cls-1" transform="translate(53.6 57.72) rotate(-49.87)"><tspan x="0" y="0">d</tspan></text>
  <text class="cls-1" transform="translate(54.32 56.87) rotate(-48.25)"><tspan x="0" y="0">l</tspan></text>
  <text class="cls-1" transform="translate(54.64 56.51) rotate(-46.71)"><tspan x="0" y="0">e</tspan></text>
</svg>