<?xml version="1.0" encoding="UTF-8"?>
<svg id="Layer_2" data-name="Layer 2" xmlns="http://www.w3.org/2000/svg" viewBox="0 0 150 150">
  <defs>
    <style>
      .cls-1 {
        fill: #231f20;
        font-family: MyriadPro-Regular, 'Myriad Pro';
        font-size: 2px;
      }
    </style>
  </defs>
  <text class="cls-1" transform="translate(74.99 37.5) rotate(.93)"><tspan x="0" y="0">T</tspan></text>
  <text class="cls-1" transform="translate(75.96 37.51) rotate(2.27)"><tspan x="0" y="0">h</tspan></text>
  <text class="cls-1" transform="translate(77.05 37.55) rotate(3.45)"><tspan x="0" y="0">i</tspan></text>
  <text class="cls-1" transform="translate(77.52 37.58) rotate(4.4)"><tspan x="0" y="0">s</tspan></text>
  <text class="cls-1" transform="translate(78.3 37.64) rotate(5.3)"><tspan x="0" y="0"> </tspan></text>
  <text class="cls-1" transform="translate(78.72 37.68) rotate(5.98)"><tspan x="0" y="0">i</tspan></text>
  <text class="cls-1" transform="translate(79.18 37.73) rotate(6.93)"><tspan x="0" y="0">s</tspan></text>
  <text class="cls-1" transform="translate(79.98 37.83) rotate(7.88)"><tspan x="0" y="0"> </tspan></text>
  <text class="cls-1" transform="translate(80.38 37.88) rotate(8.91)"><tspan x="0" y="0">a</tspan></text>
  <text class="cls-1" transform="translate(81.31 38.03) rotate(9.95)"><tspan x="0" y="0"> </tspan></text>
  <text class="cls-1" transform="translate(81.71 38.1) rotate(11.12)"><tspan x="0" y="0">p</tspan></text>
  <text class="cls-1" transform="translate(82.84 38.32) rotate(12.51)"><tspan x="0" y="0">r</tspan></text>
  <text class="cls-1" transform="translate(83.47 38.46) rotate(13.36)"><tspan x="0" y="0">i</tspan></text>
  <text class="cls-1" transform="translate(83.93 38.56) rotate(15.01)"><tspan x="0" y="0">m</tspan></text>
  <text class="cls-1" transform="translate(85.51 38.99) rotate(17.01)"><tspan x="0" y="0">e</tspan></text>
  <text class="cls-1" transform="translate(86.47 39.29) rotate(18.12)"><tspan x="0" y="0"> </tspan></text>
  <text class="cls-1" transform="translate(86.85 39.41) rotate(19.18)"><tspan x="0" y="0">e</tspan></text>
  <text class="cls-1" transform="translate(87.78 39.73) rotate(20.64)"><tspan x="0" y="0">x</tspan></text>
  <text class="cls-1" transform="translate(88.65 40.06) rotate(22.09)"><tspan x="0" y="0">a</tspan></text>
  <text class="cls-1" transform="translate(89.54 40.41) rotate(24.11)"><tspan x="0" y="0">m</tspan></text>
  <text class="cls-1" transform="translate(91.05 41.1) rotate(26.25)"><tspan x="0" y="0">p</tspan></text>
  <text class="cls-1" transform="translate(92.06 41.6) rotate(27.47)"><tspan x="0" y="0">l</tspan></text>
  <text class="cls-1" transform="translate(92.46 41.8) rotate(28.56)"><tspan x="0" y="0">e</tspan></text>
  <text class="cls-1" transform="translate(93.33 42.28) rotate(29.64)"><tspan x="0" y="0"> </tspan></text>
  <text class="cls-1" transform="translate(93.71 42.49) rotate(30.81)"><tspan x="0" y="0">o</tspan></text>
  <text class="cls-1" transform="translate(94.63 43.04) rotate(32.06)"><tspan x="0" y="0">f</tspan></text>
  <text class="cls-1" transform="translate(95.13 43.35) rotate(32.84)"><tspan x="0" y="0"> </tspan></text>
  <text class="cls-1" transform="translate(95.47 43.57) rotate(33.87)"><tspan x="0" y="0">a</tspan></text>
  <text class="cls-1" transform="translate(96.28 44.11) rotate(35.46)"><tspan x="0" y="0">n</tspan></text>
  <text class="cls-1" transform="translate(97.18 44.76) rotate(36.62)"><tspan x="0" y="0"> </tspan></text>
  <text class="cls-1" transform="translate(97.5 44.99) rotate(37.73)"><tspan x="0" y="0">o</tspan></text>
  <text class="cls-1" transform="translate(98.36 45.66) rotate(39.4)"><tspan x="0" y="0">u</tspan></text>
  <text class="cls-1" transform="translate(99.21 46.35) rotate(40.73)"><tspan x="0" y="0">t</tspan></text>
  <text class="cls-1" transform="translate(99.7 46.77) rotate(41.97)"><tspan x="0" y="0">e</tspan></text>
  <text class="cls-1" transform="translate(100.43 47.44) rotate(43.21)"><tspan x="0" y="0">r</tspan></text>
  <text class="cls-1" transform="translate(100.9 47.88) rotate(44.02)"><tspan x="0" y="0"> </tspan></text>
  <text class="cls-1" transform="translate(101.21 48.18) rotate(44.7)"><tspan x="0" y="0">l</tspan></text>
  <text class="cls-1" transform="translate(101.54 48.5) rotate(45.77)"><tspan x="0" y="0">a</tspan></text>
  <text class="cls-1" transform="translate(102.19 49.17) rotate(47.18)"><tspan x="0" y="0">y</tspan></text>
  <text class="cls-1" transform="translate(102.8 49.83) rotate(48.59)"><tspan x="0" y="0">e</tspan></text>
  <text class="cls-1" transform="translate(103.47 50.59) rotate(49.87)"><tspan x="0" y="0">r</tspan></text>
  <text class="cls-1" transform="translate(103.88 51.07) rotate(50.64)"><tspan x="0" y="0">	</tspan></text>
  <text class="cls-1" transform="translate(105.49 53.16) rotate(54.67)"><tspan x="0" y="0">	</tspan></text>
  <text class="cls-1" transform="translate(110.51 87.1) rotate(109.76)"><tspan x="0" y="0">A</tspan></text>
  <text class="cls-1" transform="translate(110.1 88.23) rotate(110.99)"><tspan x="0" y="0"> </tspan></text>
  <text class="cls-1" transform="translate(109.95 88.63) rotate(112.01)"><tspan x="0" y="0">c</tspan></text>
  <text class="cls-1" transform="translate(109.61 89.46) rotate(113.06)"><tspan x="0" y="0">l</tspan></text>
  <text class="cls-1" transform="translate(109.44 89.87) rotate(114.15)"><tspan x="0" y="0">e</tspan></text>
  <text class="cls-1" transform="translate(109.03 90.79) rotate(116.21)"><tspan x="0" y="0">m</tspan></text>
  <text class="cls-1" transform="translate(108.3 92.26) rotate(118.21)"><tspan x="0" y="0">e</tspan></text>
  <text class="cls-1" transform="translate(107.84 93.13) rotate(119.81)"><tspan x="0" y="0">n</tspan></text>
  <text class="cls-1" transform="translate(107.29 94.09) rotate(121.16)"><tspan x="0" y="0">t</tspan></text>
  <text class="cls-1" transform="translate(106.94 94.66) rotate(122.01)"><tspan x="0" y="0">i</tspan></text>
  <text class="cls-1" transform="translate(106.71 95.03) rotate(123.18)"><tspan x="0" y="0">n</tspan></text>
  <text class="cls-1" transform="translate(106.11 95.95) rotate(124.77)"><tspan x="0" y="0">e</tspan></text>
  <text class="cls-1" transform="translate(105.54 96.77) rotate(125.85)"><tspan x="0" y="0"> </tspan></text>
  <text class="cls-1" transform="translate(105.29 97.12) rotate(126.88)"><tspan x="0" y="0">c</tspan></text>
  <text class="cls-1" transform="translate(104.77 97.82) rotate(128.25)"><tspan x="0" y="0">a</tspan></text>
  <text class="cls-1" transform="translate(104.17 98.58) rotate(129.83)"><tspan x="0" y="0">n</tspan></text>
  <text class="cls-1" transform="translate(103.46 99.42) rotate(130.99)"><tspan x="0" y="0"> </tspan></text>
  <text class="cls-1" transform="translate(103.19 99.74) rotate(132.14)"><tspan x="0" y="0">g</tspan></text>
  <text class="cls-1" transform="translate(102.45 100.55) rotate(133.72)"><tspan x="0" y="0">e</tspan></text>
  <text class="cls-1" transform="translate(101.75 101.28) rotate(135)"><tspan x="0" y="0">t</tspan></text>
  <text class="cls-1" transform="translate(101.29 101.74) rotate(135.81)"><tspan x="0" y="0"> </tspan></text>
  <text class="cls-1" transform="translate(101 102.03) rotate(136.96)"><tspan x="0" y="0">p</tspan></text>
  <text class="cls-1" transform="translate(100.17 102.8) rotate(138.59)"><tspan x="0" y="0">e</tspan></text>
  <text class="cls-1" transform="translate(99.43 103.45) rotate(140.08)"><tspan x="0" y="0">e</tspan></text>
  <text class="cls-1" transform="translate(98.67 104.09) rotate(141.2)"><tspan x="0" y="0">l</tspan></text>
  <text class="cls-1" transform="translate(98.3 104.38) rotate(142.31)"><tspan x="0" y="0">e</tspan></text>
  <text class="cls-1" transform="translate(97.53 104.99) rotate(143.9)"><tspan x="0" y="0">d</tspan></text>
  <text class="cls-1" transform="translate(96.63 105.64) rotate(145.06)"><tspan x="0" y="0"> </tspan></text>
  <text class="cls-1" transform="translate(96.28 105.88) rotate(145.74)"><tspan x="0" y="0">i</tspan></text>
  <text class="cls-1" transform="translate(95.89 106.15) rotate(146.95)"><tspan x="0" y="0">n</tspan></text>
  <text class="cls-1" transform="translate(94.96 106.75) rotate(148.11)"><tspan x="0" y="0"> </tspan></text>
  <text class="cls-1" transform="translate(94.62 106.97) rotate(149.15)"><tspan x="0" y="0">a</tspan></text>
  <text class="cls-1" transform="translate(93.81 107.46) rotate(150.71)"><tspan x="0" y="0">n</tspan></text>
  <text class="cls-1" transform="translate(92.87 107.98) rotate(152.23)"><tspan x="0" y="0">y</tspan></text>
  <text class="cls-1" transform="translate(92.03 108.42) rotate(153.27)"><tspan x="0" y="0"> </tspan></text>
  <text class="cls-1" transform="translate(91.66 108.61) rotate(154.45)"><tspan x="0" y="0">n</tspan></text>
  <text class="cls-1" transform="translate(90.68 109.08) rotate(156.11)"><tspan x="0" y="0">u</tspan></text>
  <text class="cls-1" transform="translate(89.68 109.53) rotate(158.21)"><tspan x="0" y="0">m</tspan></text>
  <text class="cls-1" transform="translate(88.16 110.13) rotate(160.33)"><tspan x="0" y="0">b</tspan></text>
  <text class="cls-1" transform="translate(87.09 110.51) rotate(161.97)"><tspan x="0" y="0">e</tspan></text>
  <text class="cls-1" transform="translate(86.13 110.82) rotate(163.26)"><tspan x="0" y="0">r</tspan></text>
  <text class="cls-1" transform="translate(85.53 111) rotate(164.06)"><tspan x="0" y="0"> </tspan></text>
  <text class="cls-1" transform="translate(85.13 111.12) rotate(165.21)"><tspan x="0" y="0">o</tspan></text>
  <text class="cls-1" transform="translate(84.06 111.4) rotate(166.51)"><tspan x="0" y="0">f</tspan></text>
  <text class="cls-1" transform="translate(83.51 111.53) rotate(167.27)"><tspan x="0" y="0"> </tspan></text>
  <text class="cls-1" transform="translate(83.11 111.63) rotate(168.7)"><tspan x="0" y="0">w</tspan></text>
  <text class="cls-1" transform="translate(81.68 111.91) rotate(170.55)"><tspan x="0" y="0">a</tspan></text>
  <text class="cls-1" transform="translate(80.77 112.06) rotate(171.94)"><tspan x="0" y="0">y</tspan></text>
  <text class="cls-1" transform="translate(79.85 112.19) rotate(173.25)"><tspan x="0" y="0">s</tspan></text>
  <text class="cls-1" transform="translate(79.08 112.28) rotate(174.15)"><tspan x="0" y="0">	</tspan></text>
  <text class="cls-1" transform="translate(52.08 104.69) rotate(-141.37)"><tspan x="0" y="0">A</tspan></text>
  <text class="cls-1" transform="translate(51.14 103.94) rotate(-139.61)"><tspan x="0" y="0">n</tspan></text>
  <text class="cls-1" transform="translate(50.32 103.24) rotate(-138.5)"><tspan x="0" y="0"> </tspan></text>
  <text class="cls-1" transform="translate(49.99 102.95) rotate(-137.39)"><tspan x="0" y="0">e</tspan></text>
  <text class="cls-1" transform="translate(49.27 102.28) rotate(-135.81)"><tspan x="0" y="0">g</tspan></text>
  <text class="cls-1" transform="translate(48.48 101.52) rotate(-134.15)"><tspan x="0" y="0">g</tspan></text>
  <text class="cls-1" transform="translate(47.71 100.72) rotate(-132.99)"><tspan x="0" y="0"> </tspan></text>
  <text class="cls-1" transform="translate(47.41 100.41) rotate(-131.54)"><tspan x="0" y="0">w</tspan></text>
  <text class="cls-1" transform="translate(46.45 99.31) rotate(-130.09)"><tspan x="0" y="0">i</tspan></text>
  <text class="cls-1" transform="translate(46.15 98.96) rotate(-129.23)"><tspan x="0" y="0">t</tspan></text>
  <text class="cls-1" transform="translate(45.73 98.46) rotate(-127.9)"><tspan x="0" y="0">h</tspan></text>
  <text class="cls-1" transform="translate(45.06 97.58) rotate(-126.75)"><tspan x="0" y="0"> </tspan></text>
  <text class="cls-1" transform="translate(44.81 97.25) rotate(-126.1)"><tspan x="0" y="0"> </tspan></text>
  <text class="cls-1" transform="translate(44.57 96.92) rotate(-125.46)"><tspan x="0" y="0">l</tspan></text>
  <text class="cls-1" transform="translate(44.29 96.54) rotate(-124.26)"><tspan x="0" y="0">o</tspan></text>
  <text class="cls-1" transform="translate(43.68 95.64) rotate(-122.32)"><tspan x="0" y="0">w</tspan></text>
  <text class="cls-1" transform="translate(42.91 94.41) rotate(-120.9)"><tspan x="0" y="0"> </tspan></text>
  <text class="cls-1" transform="translate(42.69 94.05) rotate(-119.9)"><tspan x="0" y="0">c</tspan></text>
  <text class="cls-1" transform="translate(42.26 93.3) rotate(-118.51)"><tspan x="0" y="0">a</tspan></text>
  <text class="cls-1" transform="translate(41.8 92.46) rotate(-117.43)"><tspan x="0" y="0">l</tspan></text>
  <text class="cls-1" transform="translate(41.58 92.04) rotate(-116.38)"><tspan x="0" y="0">c</tspan></text>
  <text class="cls-1" transform="translate(41.19 91.24) rotate(-115.33)"><tspan x="0" y="0">i</tspan></text>
  <text class="cls-1" transform="translate(40.99 90.83) rotate(-114.15)"><tspan x="0" y="0">u</tspan></text>
  <text class="cls-1" transform="translate(40.54 89.84) rotate(-112.05)"><tspan x="0" y="0">m</tspan></text>
  <text class="cls-1" transform="translate(39.93 88.31) rotate(-110.46)"><tspan x="0" y="0"> </tspan></text>
  <text class="cls-1" transform="translate(39.78 87.9) rotate(-109.76)"><tspan x="0" y="0">i</tspan></text>
  <text class="cls-1" transform="translate(39.63 87.48) rotate(-108.83)"><tspan x="0" y="0">s</tspan></text>
  <text class="cls-1" transform="translate(39.37 86.74) rotate(-107.9)"><tspan x="0" y="0"> </tspan></text>
  <text class="cls-1" transform="translate(39.24 86.33) rotate(-106.79)"><tspan x="0" y="0">e</tspan></text>
  <text class="cls-1" transform="translate(38.96 85.4) rotate(-105.32)"><tspan x="0" y="0">a</tspan></text>
  <text class="cls-1" transform="translate(38.71 84.47) rotate(-103.98)"><tspan x="0" y="0">s</tspan></text>
  <text class="cls-1" transform="translate(38.51 83.7) rotate(-103)"><tspan x="0" y="0">i</tspan></text>
  <text class="cls-1" transform="translate(38.41 83.25) rotate(-102.28)"><tspan x="0" y="0">l</tspan></text>
  <text class="cls-1" transform="translate(38.31 82.79) rotate(-101.21)"><tspan x="0" y="0">y</tspan></text>
  <text class="cls-1" transform="translate(38.13 81.88) rotate(-100.17)"><tspan x="0" y="0"> </tspan></text>
  <text class="cls-1" transform="translate(38.05 81.47) rotate(-99.18)"><tspan x="0" y="0">c</tspan></text>
  <text class="cls-1" transform="translate(37.91 80.6) rotate(-98.01)"><tspan x="0" y="0">r</tspan></text>
  <text class="cls-1" transform="translate(37.82 79.94) rotate(-96.66)"><tspan x="0" y="0">u</tspan></text>
  <text class="cls-1" transform="translate(37.7 78.87) rotate(-95.26)"><tspan x="0" y="0">s</tspan></text>
  <text class="cls-1" transform="translate(37.62 78.08) rotate(-93.81)"><tspan x="0" y="0">h</tspan></text>
  <text class="cls-1" transform="translate(37.55 76.98) rotate(-92.22)"><tspan x="0" y="0">e</tspan></text>
  <text class="cls-1" transform="translate(37.51 75.99) rotate(-90.93)"><tspan x="0" y="0">d</tspan></text>
  <text class="cls-1" transform="translate(37.5 74.88) rotate(-89.07)"><tspan x="0" y="0">	</tspan></text>
  <text class="cls-1" transform="translate(37.52 73.64) rotate(-87.64)"><tspan x="0" y="0"> </tspan></text>
  <text class="cls-1" transform="translate(37.54 73.22) rotate(-87.01)"><tspan x="0" y="0"> </tspan></text>
  <text class="cls-1" transform="translate(37.56 72.8) rotate(-86.37)"><tspan x="0" y="0"> </tspan></text>
  <text class="cls-1" transform="translate(37.59 72.39) rotate(-85.74)"><tspan x="0" y="0"> </tspan></text>
  <text class="cls-1" transform="translate(37.62 71.97) rotate(-85.11)"><tspan x="0" y="0"> </tspan></text>
  <text class="cls-1" transform="translate(37.66 71.55) rotate(-84.47)"><tspan x="0" y="0"> </tspan></text>
  <text class="cls-1" transform="translate(37.7 71.14) rotate(-83.84)"><tspan x="0" y="0"> </tspan></text>
  <text class="cls-1" transform="translate(37.74 70.73) rotate(-83.21)"><tspan x="0" y="0"> </tspan></text>
  <text class="cls-1" transform="translate(37.79 70.29) rotate(-82.53)"><tspan x="0" y="0"> </tspan></text>
  <text class="cls-1" transform="translate(37.85 69.88) rotate(-81.9)"><tspan x="0" y="0"> </tspan></text>
  <text class="cls-1" transform="translate(37.9 69.47) rotate(-81.27)"><tspan x="0" y="0"> </tspan></text>
  <text class="cls-1" transform="translate(37.97 69.06) rotate(-80.64)"><tspan x="0" y="0"> </tspan></text>
  <text class="cls-1" transform="translate(38.04 68.63) rotate(-79.96)"><tspan x="0" y="0"> </tspan></text>
  <text class="cls-1" transform="translate(38.11 68.22) rotate(-79.33)"><tspan x="0" y="0"> </tspan></text>
  <text class="cls-1" transform="translate(38.19 67.82) rotate(-78.7)"><tspan x="0" y="0"> </tspan></text>
  <text class="cls-1" transform="translate(38.27 67.39) rotate(-78.03)"><tspan x="0" y="0"> </tspan></text>
  <text class="cls-1" transform="translate(38.36 66.99) rotate(-77.4)"><tspan x="0" y="0"> </tspan></text>
  <text class="cls-1" transform="translate(38.44 66.6) rotate(-76.78)"><tspan x="0" y="0"> </tspan></text>
  <text class="cls-1" transform="translate(38.54 66.17) rotate(-76.11)"><tspan x="0" y="0"> </tspan></text>
  <text class="cls-1" transform="translate(38.64 65.78) rotate(-75.48)"><tspan x="0" y="0"> </tspan></text>
  <text class="cls-1" transform="translate(38.75 65.36) rotate(-74.81)"><tspan x="0" y="0"> </tspan></text>
  <text class="cls-1" transform="translate(38.86 64.97) rotate(-74.19)"><tspan x="0" y="0"> </tspan></text>
  <text class="cls-1" transform="translate(38.98 64.55) rotate(-73.52)"><tspan x="0" y="0"> </tspan></text>
  <text class="cls-1" transform="translate(39.09 64.16) rotate(-72.9)"><tspan x="0" y="0"> </tspan></text>
  <text class="cls-1" transform="translate(39.22 63.75) rotate(-72.23)"><tspan x="0" y="0"> </tspan></text>
  <text class="cls-1" transform="translate(39.35 63.34) rotate(-71.57)"><tspan x="0" y="0"> </tspan></text>
  <text class="cls-1" transform="translate(39.48 62.96) rotate(-70.95)"><tspan x="0" y="0"> </tspan></text>
  <text class="cls-1" transform="translate(39.62 62.55) rotate(-70.29)"><tspan x="0" y="0"> </tspan></text>
  <text class="cls-1" transform="translate(39.75 62.17) rotate(-69.67)"><tspan x="0" y="0"> </tspan></text>
  <text class="cls-1" transform="translate(39.9 61.77) rotate(-69.01)"><tspan x="0" y="0"> </tspan></text>
  <text class="cls-1" transform="translate(40.05 61.37) rotate(-68.35)"><tspan x="0" y="0"> </tspan></text>
  <text class="cls-1" transform="translate(40.2 61) rotate(-67.73)"><tspan x="0" y="0"> </tspan></text>
  <text class="cls-1" transform="translate(40.36 60.6) rotate(-67.07)"><tspan x="0" y="0"> </tspan></text>
  <text class="cls-1" transform="translate(40.52 60.22) rotate(-66.02)"><tspan x="0" y="0">F</tspan></text>
  <text class="cls-1" transform="translate(40.89 59.39) rotate(-64.54)"><tspan x="0" y="0">o</tspan></text>
  <text class="cls-1" transform="translate(41.35 58.42) rotate(-63.23)"><tspan x="0" y="0">r</tspan></text>
  <text class="cls-1" transform="translate(41.65 57.84) rotate(-62.4)"><tspan x="0" y="0"> </tspan></text>
  <text class="cls-1" transform="translate(41.84 57.47) rotate(-61.49)"><tspan x="0" y="0">s</tspan></text>
  <text class="cls-1" transform="translate(42.22 56.76) rotate(-60.01)"><tspan x="0" y="0">o</tspan></text>
  <text class="cls-1" transform="translate(42.75 55.83) rotate(-57.94)"><tspan x="0" y="0">m</tspan></text>
  <text class="cls-1" transform="translate(43.64 54.42) rotate(-55.92)"><tspan x="0" y="0">e</tspan></text>
  <text class="cls-1" transform="translate(44.2 53.6) rotate(-54.84)"><tspan x="0" y="0"> </tspan></text>
  <text class="cls-1" transform="translate(44.42 53.28) rotate(-53.72)"><tspan x="0" y="0">o</tspan></text>
  <text class="cls-1" transform="translate(45.07 52.39) rotate(-52.05)"><tspan x="0" y="0">u</tspan></text>
  <text class="cls-1" transform="translate(45.75 51.53) rotate(-50.73)"><tspan x="0" y="0">t</tspan></text>
  <text class="cls-1" transform="translate(46.16 51.02) rotate(-49.87)"><tspan x="0" y="0">l</tspan></text>
  <text class="cls-1" transform="translate(46.47 50.66) rotate(-49.14)"><tspan x="0" y="0">i</tspan></text>
  <text class="cls-1" transform="translate(46.76 50.33) rotate(-48.08)"><tspan x="0" y="0">e</tspan></text>
  <text class="cls-1" transform="translate(47.44 49.57) rotate(-46.79)"><tspan x="0" y="0">r</tspan></text>
  <text class="cls-1" transform="translate(47.86 49.12) rotate(-46.02)"><tspan x="0" y="0"> </tspan></text>
  <text class="cls-1" transform="translate(48.17 48.8) rotate(-45.17)"><tspan x="0" y="0">t</tspan></text>
  <text class="cls-1" transform="translate(48.63 48.34) rotate(-43.85)"><tspan x="0" y="0">h</tspan></text>
  <text class="cls-1" transform="translate(49.43 47.57) rotate(-42.65)"><tspan x="0" y="0">i</tspan></text>
  <text class="cls-1" transform="translate(49.76 47.26) rotate(-41.71)"><tspan x="0" y="0">s</tspan></text>
  <text class="cls-1" transform="translate(50.34 46.75) rotate(-40.81)"><tspan x="0" y="0"> </tspan></text>
  <text class="cls-1" transform="translate(50.67 46.47) rotate(-40.13)"><tspan x="0" y="0">i</tspan></text>
  <text class="cls-1" transform="translate(51.01 46.17) rotate(-39.19)"><tspan x="0" y="0">s</tspan></text>
  <text class="cls-1" transform="translate(51.62 45.68) rotate(-38.29)"><tspan x="0" y="0"> </tspan></text>
  <text class="cls-1" transform="translate(51.95 45.42) rotate(-37.61)"><tspan x="0" y="0">i</tspan></text>
  <text class="cls-1" transform="translate(52.32 45.13) rotate(-36.41)"><tspan x="0" y="0">n</tspan></text>
  <text class="cls-1" transform="translate(53.2 44.48) rotate(-34.99)"><tspan x="0" y="0">s</tspan></text>
  <text class="cls-1" transform="translate(53.84 44.04) rotate(-34.04)"><tspan x="0" y="0">i</tspan></text>
  <text class="cls-1" transform="translate(54.22 43.77) rotate(-32.84)"><tspan x="0" y="0">d</tspan></text>
  <text class="cls-1" transform="translate(55.17 43.16) rotate(-31.2)"><tspan x="0" y="0">e</tspan></text>
</svg>