<?xml version="1.0" encoding="UTF-8"?>
<svg id="Layer_3" data-name="Layer 3" xmlns="http://www.w3.org/2000/svg" viewBox="0 0 150 150">
  <defs>
    <style>
      .cls-1 {
        fill: #231f20;
        font-family: MyriadPro-Regular, 'Myriad Pro';
        font-size: 2px;
      }
    </style>
  </defs>
  <text class="cls-1" transform="translate(107.5 75.62) rotate(92.13)"><tspan x="0" y="0">A</tspan></text>
  <text class="cls-1" transform="translate(107.45 76.82) rotate(93.53)"><tspan x="0" y="0"> </tspan></text>
  <text class="cls-1" transform="translate(107.42 77.25) rotate(94.48)"><tspan x="0" y="0">t</tspan></text>
  <text class="cls-1" transform="translate(107.37 77.9) rotate(95.62)"><tspan x="0" y="0">r</tspan></text>
  <text class="cls-1" transform="translate(107.31 78.53) rotate(97.02)"><tspan x="0" y="0">a</tspan></text>
  <text class="cls-1" transform="translate(107.21 79.47) rotate(99.27)"><tspan x="0" y="0">ffi</tspan></text>
  <text class="cls-1" transform="translate(106.94 81.06) rotate(101.48)"><tspan x="0" y="0">c</tspan></text>
  <text class="cls-1" transform="translate(106.76 81.94) rotate(102.64)"><tspan x="0" y="0"> </tspan></text>
  <text class="cls-1" transform="translate(106.67 82.35) rotate(103.8)"><tspan x="0" y="0">c</tspan></text>
  <text class="cls-1" transform="translate(106.46 83.2) rotate(105.54)"><tspan x="0" y="0">o</tspan></text>
  <text class="cls-1" transform="translate(106.17 84.23) rotate(107.46)"><tspan x="0" y="0">n</tspan></text>
  <text class="cls-1" transform="translate(105.84 85.28) rotate(109.31)"><tspan x="0" y="0">e</tspan></text>
  <text class="cls-1" transform="translate(105.52 86.21) rotate(110.55)"><tspan x="0" y="0"> </tspan></text>
  <text class="cls-1" transform="translate(105.37 86.62) rotate(111.92)"><tspan x="0" y="0">o</tspan></text>
  <text class="cls-1" transform="translate(104.96 87.62) rotate(113.85)"><tspan x="0" y="0">n</tspan></text>
  <text class="cls-1" transform="translate(104.52 88.61) rotate(115.2)"><tspan x="0" y="0">l</tspan></text>
  <text class="cls-1" transform="translate(104.32 89.04) rotate(116.47)"><tspan x="0" y="0">y</tspan></text>
  <text class="cls-1" transform="translate(103.91 89.87) rotate(117.64)"><tspan x="0" y="0"> </tspan></text>
  <text class="cls-1" transform="translate(103.72 90.24) rotate(119.29)"><tspan x="0" y="0">w</tspan></text>
  <text class="cls-1" transform="translate(103.02 91.49) rotate(121.5)"><tspan x="0" y="0">o</tspan></text>
  <text class="cls-1" transform="translate(102.44 92.43) rotate(123.05)"><tspan x="0" y="0">r</tspan></text>
  <text class="cls-1" transform="translate(102.09 92.97) rotate(124.43)"><tspan x="0" y="0">k</tspan></text>
  <text class="cls-1" transform="translate(101.57 93.73) rotate(125.93)"><tspan x="0" y="0">s</tspan></text>
  <text class="cls-1" transform="translate(101.11 94.35) rotate(126.96)"><tspan x="0" y="0"> </tspan></text>
  <text class="cls-1" transform="translate(100.85 94.71) rotate(127.78)"><tspan x="0" y="0">i</tspan></text>
  <text class="cls-1" transform="translate(100.57 95.07) rotate(128.68)"><tspan x="0" y="0">f</tspan></text>
  <text class="cls-1" transform="translate(100.21 95.51) rotate(129.53)"><tspan x="0" y="0"> </tspan></text>
  <text class="cls-1" transform="translate(99.95 95.84) rotate(130.73)"><tspan x="0" y="0">y</tspan></text>
  <text class="cls-1" transform="translate(99.36 96.52) rotate(132.44)"><tspan x="0" y="0">o</tspan></text>
  <text class="cls-1" transform="translate(98.62 97.33) rotate(134.36)"><tspan x="0" y="0">u</tspan></text>
  <text class="cls-1" transform="translate(97.86 98.11) rotate(135.69)"><tspan x="0" y="0"> </tspan></text>
  <text class="cls-1" transform="translate(97.56 98.39) rotate(136.54)"><tspan x="0" y="0">f</tspan></text>
  <text class="cls-1" transform="translate(97.15 98.79) rotate(137.99)"><tspan x="0" y="0">o</tspan></text>
  <text class="cls-1" transform="translate(96.34 99.52) rotate(139.36)"><tspan x="0" y="0">l</tspan></text>
  <text class="cls-1" transform="translate(96 99.8) rotate(140.13)"><tspan x="0" y="0">l</tspan></text>
  <text class="cls-1" transform="translate(95.65 100.11) rotate(141.49)"><tspan x="0" y="0">o</tspan></text>
  <text class="cls-1" transform="translate(94.8 100.78) rotate(143.72)"><tspan x="0" y="0">w</tspan></text>
  <text class="cls-1" transform="translate(93.63 101.64) rotate(145.35)"><tspan x="0" y="0"> </tspan></text>
  <text class="cls-1" transform="translate(93.28 101.88) rotate(146.3)"><tspan x="0" y="0">t</tspan></text>
  <text class="cls-1" transform="translate(92.74 102.24) rotate(147.85)"><tspan x="0" y="0">h</tspan></text>
  <text class="cls-1" transform="translate(91.82 102.82) rotate(149.66)"><tspan x="0" y="0">e</tspan></text>
  <text class="cls-1" transform="translate(90.96 103.32) rotate(150.93)"><tspan x="0" y="0"> </tspan></text>
  <text class="cls-1" transform="translate(90.58 103.53) rotate(151.88)"><tspan x="0" y="0">r</tspan></text>
  <text class="cls-1" transform="translate(90.02 103.83) rotate(153.4)"><tspan x="0" y="0">u</tspan></text>
  <text class="cls-1" transform="translate(89.04 104.32) rotate(154.8)"><tspan x="0" y="0">l</tspan></text>
  <text class="cls-1" transform="translate(88.63 104.52) rotate(156.07)"><tspan x="0" y="0">e</tspan></text>
  <text class="cls-1" transform="translate(87.72 104.92) rotate(157.64)"><tspan x="0" y="0">s</tspan></text>
  <text class="cls-1" transform="translate(87 105.21) rotate(158.7)"><tspan x="0" y="0">	</tspan></text>
  <text class="cls-1" transform="translate(64.03 105.61) rotate(-159.19)"><tspan x="0" y="0">A</tspan></text>
  <text class="cls-1" transform="translate(62.89 105.17) rotate(-157.73)"><tspan x="0" y="0"> </tspan></text>
  <text class="cls-1" transform="translate(62.49 105.01) rotate(-156.55)"><tspan x="0" y="0">c</tspan></text>
  <text class="cls-1" transform="translate(61.68 104.66) rotate(-154.93)"><tspan x="0" y="0">a</tspan></text>
  <text class="cls-1" transform="translate(60.82 104.25) rotate(-153.4)"><tspan x="0" y="0">s</tspan></text>
  <text class="cls-1" transform="translate(60.13 103.91) rotate(-152.14)"><tspan x="0" y="0">t</tspan></text>
  <text class="cls-1" transform="translate(59.54 103.6) rotate(-151.18)"><tspan x="0" y="0"> </tspan></text>
  <text class="cls-1" transform="translate(59.17 103.39) rotate(-150.01)"><tspan x="0" y="0">c</tspan></text>
  <text class="cls-1" transform="translate(58.41 102.96) rotate(-148.42)"><tspan x="0" y="0">a</tspan></text>
  <text class="cls-1" transform="translate(57.6 102.46) rotate(-146.6)"><tspan x="0" y="0">n</tspan></text>
  <text class="cls-1" transform="translate(56.68 101.85) rotate(-145.27)"><tspan x="0" y="0"> </tspan></text>
  <text class="cls-1" transform="translate(56.33 101.61) rotate(-143.9)"><tspan x="0" y="0">p</tspan></text>
  <text class="cls-1" transform="translate(55.42 100.95) rotate(-142.35)"><tspan x="0" y="0">r</tspan></text>
  <text class="cls-1" transform="translate(54.94 100.58) rotate(-140.9)"><tspan x="0" y="0">o</tspan></text>
  <text class="cls-1" transform="translate(54.09 99.89) rotate(-139.1)"><tspan x="0" y="0">v</tspan></text>
  <text class="cls-1" transform="translate(53.39 99.28) rotate(-137.9)"><tspan x="0" y="0">i</tspan></text>
  <text class="cls-1" transform="translate(53.04 98.96) rotate(-136.49)"><tspan x="0" y="0">d</tspan></text>
  <text class="cls-1" transform="translate(52.23 98.2) rotate(-134.66)"><tspan x="0" y="0">e</tspan></text>
  <text class="cls-1" transform="translate(51.54 97.49) rotate(-133.42)"><tspan x="0" y="0"> </tspan></text>
  <text class="cls-1" transform="translate(51.25 97.19) rotate(-132.22)"><tspan x="0" y="0">a</tspan></text>
  <text class="cls-1" transform="translate(50.61 96.48) rotate(-131.03)"><tspan x="0" y="0"> </tspan></text>
  <text class="cls-1" transform="translate(50.34 96.17) rotate(-130.09)"><tspan x="0" y="0">t</tspan></text>
  <text class="cls-1" transform="translate(49.93 95.68) rotate(-128.68)"><tspan x="0" y="0">e</tspan></text>
  <text class="cls-1" transform="translate(49.31 94.92) rotate(-126.36)"><tspan x="0" y="0">m</tspan></text>
  <text class="cls-1" transform="translate(48.33 93.58) rotate(-123.91)"><tspan x="0" y="0">p</tspan></text>
  <text class="cls-1" transform="translate(47.7 92.65) rotate(-121.97)"><tspan x="0" y="0">o</tspan></text>
  <text class="cls-1" transform="translate(47.12 91.71) rotate(-120.42)"><tspan x="0" y="0">r</tspan></text>
  <text class="cls-1" transform="translate(46.8 91.17) rotate(-119.03)"><tspan x="0" y="0">a</tspan></text>
  <text class="cls-1" transform="translate(46.34 90.35) rotate(-117.64)"><tspan x="0" y="0">r</tspan></text>
  <text class="cls-1" transform="translate(46.05 89.79) rotate(-116.25)"><tspan x="0" y="0">a</tspan></text>
  <text class="cls-1" transform="translate(45.63 88.94) rotate(-114.59)"><tspan x="0" y="0">y</tspan></text>
  <text class="cls-1" transform="translate(45.25 88.09) rotate(-113.41)"><tspan x="0" y="0"> </tspan></text>
  <text class="cls-1" transform="translate(45.07 87.7) rotate(-112.14)"><tspan x="0" y="0">e</tspan></text>
  <text class="cls-1" transform="translate(44.7 86.79) rotate(-110.46)"><tspan x="0" y="0">x</tspan></text>
  <text class="cls-1" transform="translate(44.39 85.97) rotate(-108.74)"><tspan x="0" y="0">o</tspan></text>
  <text class="cls-1" transform="translate(44.05 84.95) rotate(-107.1)"><tspan x="0" y="0">s</tspan></text>
  <text class="cls-1" transform="translate(43.82 84.2) rotate(-105.59)"><tspan x="0" y="0">k</tspan></text>
  <text class="cls-1" transform="translate(43.57 83.32) rotate(-103.89)"><tspan x="0" y="0">e</tspan></text>
  <text class="cls-1" transform="translate(43.33 82.32) rotate(-102.55)"><tspan x="0" y="0">l</tspan></text>
  <text class="cls-1" transform="translate(43.23 81.89) rotate(-101.3)"><tspan x="0" y="0">e</tspan></text>
  <text class="cls-1" transform="translate(43.03 80.9) rotate(-99.81)"><tspan x="0" y="0">t</tspan></text>
  <text class="cls-1" transform="translate(42.92 80.29) rotate(-98.33)"><tspan x="0" y="0">o</tspan></text>
  <text class="cls-1" transform="translate(42.76 79.21) rotate(-96.39)"><tspan x="0" y="0">n</tspan></text>
  <text class="cls-1" transform="translate(42.65 78.12) rotate(-95.08)"><tspan x="0" y="0"> </tspan></text>
  <text class="cls-1" transform="translate(42.61 77.71) rotate(-93.72)"><tspan x="0" y="0">b</tspan></text>
  <text class="cls-1" transform="translate(42.53 76.57) rotate(-91.77)"><tspan x="0" y="0">u</tspan></text>
  <text class="cls-1" transform="translate(42.51 75.49) rotate(-90.93)"><tspan x="0" y="0">t</tspan></text>
  <text class="cls-1" transform="translate(42.5 74.84) rotate(-89.07)"><tspan x="0" y="0"> </tspan></text>
  <text class="cls-1" transform="translate(42.5 74.42) rotate(-88.59)"><tspan x="0" y="0">i</tspan></text>
  <text class="cls-1" transform="translate(42.51 73.97) rotate(-87.64)"><tspan x="0" y="0">t</tspan></text>
  <text class="cls-1" transform="translate(42.55 73.25) rotate(-86.6)"><tspan x="0" y="0">’</tspan></text>
  <text class="cls-1" transform="translate(42.56 73) rotate(-85.83)"><tspan x="0" y="0">s</tspan></text>
  <text class="cls-1" transform="translate(42.62 72.22) rotate(-84.79)"><tspan x="0" y="0"> </tspan></text>
  <text class="cls-1" transform="translate(42.65 71.81) rotate(-84.02)"><tspan x="0" y="0">i</tspan></text>
  <text class="cls-1" transform="translate(42.7 71.34) rotate(-83.03)"><tspan x="0" y="0">t</tspan></text>
  <text class="cls-1" transform="translate(42.78 70.7) rotate(-81.67)"><tspan x="0" y="0">c</tspan></text>
  <text class="cls-1" transform="translate(42.91 69.82) rotate(-79.92)"><tspan x="0" y="0">h</tspan></text>
  <text class="cls-1" transform="translate(43.09 68.76) rotate(-78.17)"><tspan x="0" y="0">y</tspan></text>
  <text class="cls-1" transform="translate(43.29 67.86) rotate(-76.96)"><tspan x="0" y="0">!</tspan></text>
  <text class="cls-1" transform="translate(43.39 67.43) rotate(-76.2)"><tspan x="0" y="0">	</tspan></text>
  <text class="cls-1" transform="translate(49.53 54.8) rotate(-50.68)"><tspan x="0" y="0">S</tspan></text>
  <text class="cls-1" transform="translate(50.15 54.06) rotate(-49.44)"><tspan x="0" y="0">i</tspan></text>
  <text class="cls-1" transform="translate(50.44 53.71) rotate(-48.07)"><tspan x="0" y="0">n</tspan></text>
  <text class="cls-1" transform="translate(51.18 52.88) rotate(-46.32)"><tspan x="0" y="0">c</tspan></text>
  <text class="cls-1" transform="translate(51.78 52.25) rotate(-44.7)"><tspan x="0" y="0">e</tspan></text>
  <text class="cls-1" transform="translate(52.49 51.55) rotate(-43.46)"><tspan x="0" y="0"> </tspan></text>
  <text class="cls-1" transform="translate(52.78 51.27) rotate(-41.67)"><tspan x="0" y="0">m</tspan></text>
  <text class="cls-1" transform="translate(54.01 50.18) rotate(-39.27)"><tspan x="0" y="0">o</tspan></text>
  <text class="cls-1" transform="translate(54.87 49.48) rotate(-37.73)"><tspan x="0" y="0">t</tspan></text>
  <text class="cls-1" transform="translate(55.37 49.1) rotate(-36.79)"><tspan x="0" y="0">i</tspan></text>
  <text class="cls-1" transform="translate(55.74 48.81) rotate(-35.42)"><tspan x="0" y="0">o</tspan></text>
  <text class="cls-1" transform="translate(56.63 48.18) rotate(-33.48)"><tspan x="0" y="0">n</tspan></text>
  <text class="cls-1" transform="translate(57.55 47.58) rotate(-32.15)"><tspan x="0" y="0"> </tspan></text>
  <text class="cls-1" transform="translate(57.91 47.35) rotate(-31.37)"><tspan x="0" y="0">i</tspan></text>
  <text class="cls-1" transform="translate(58.29 47.12) rotate(-30.29)"><tspan x="0" y="0">s</tspan></text>
  <text class="cls-1" transform="translate(58.98 46.72) rotate(-29.21)"><tspan x="0" y="0"> </tspan></text>
  <text class="cls-1" transform="translate(59.33 46.52) rotate(-28.3)"><tspan x="0" y="0">r</tspan></text>
  <text class="cls-1" transform="translate(59.89 46.22) rotate(-26.86)"><tspan x="0" y="0">e</tspan></text>
  <text class="cls-1" transform="translate(60.79 45.76) rotate(-25.55)"><tspan x="0" y="0">l</tspan></text>
  <text class="cls-1" transform="translate(61.19 45.57) rotate(-24.33)"><tspan x="0" y="0">a</tspan></text>
  <text class="cls-1" transform="translate(62.04 45.18) rotate(-22.93)"><tspan x="0" y="0">t</tspan></text>
  <text class="cls-1" transform="translate(62.66 44.92) rotate(-21.92)"><tspan x="0" y="0">i</tspan></text>
  <text class="cls-1" transform="translate(63.07 44.75) rotate(-20.68)"><tspan x="0" y="0">v</tspan></text>
  <text class="cls-1" transform="translate(63.96 44.42) rotate(-18.96)"><tspan x="0" y="0">e</tspan></text>
  <text class="cls-1" transform="translate(64.9 44.1) rotate(-17.72)"><tspan x="0" y="0"> </tspan></text>
  <text class="cls-1" transform="translate(65.28 43.98) rotate(-16.79)"><tspan x="0" y="0">t</tspan></text>
  <text class="cls-1" transform="translate(65.91 43.78) rotate(-15.23)"><tspan x="0" y="0">h</tspan></text>
  <text class="cls-1" transform="translate(66.98 43.49) rotate(-13.36)"><tspan x="0" y="0">e</tspan></text>
  <text class="cls-1" transform="translate(67.95 43.27) rotate(-12.1)"><tspan x="0" y="0"> </tspan></text>
  <text class="cls-1" transform="translate(68.33 43.18) rotate(-11.07)"><tspan x="0" y="0">s</tspan></text>
  <text class="cls-1" transform="translate(69.1 43.03) rotate(-9.41)"><tspan x="0" y="0">u</tspan></text>
  <text class="cls-1" transform="translate(70.18 42.85) rotate(-7.47)"><tspan x="0" y="0">n</tspan></text>
  <text class="cls-1" transform="translate(71.26 42.71) rotate(-6.16)"><tspan x="0" y="0"> </tspan></text>
  <text class="cls-1" transform="translate(71.69 42.66) rotate(-4.99)"><tspan x="0" y="0">c</tspan></text>
  <text class="cls-1" transform="translate(72.57 42.58) rotate(-3.26)"><tspan x="0" y="0">o</tspan></text>
  <text class="cls-1" transform="translate(73.64 42.52) rotate(-1.41)"><tspan x="0" y="0">u</tspan></text>
  <text class="cls-1" transform="translate(74.71 42.5) rotate(-.93)"><tspan x="0" y="0">l</tspan></text>
  <text class="cls-1" transform="translate(75.2 42.5) rotate(1.31)"><tspan x="0" y="0">d</tspan></text>
  <text class="cls-1" transform="translate(76.3 42.52) rotate(2.63)"><tspan x="0" y="0"> </tspan></text>
  <text class="cls-1" transform="translate(76.73 42.54) rotate(3.99)"><tspan x="0" y="0">b</tspan></text>
  <text class="cls-1" transform="translate(77.85 42.62) rotate(5.84)"><tspan x="0" y="0">e</tspan></text>
  <text class="cls-1" transform="translate(78.83 42.72) rotate(7.06)"><tspan x="0" y="0"> </tspan></text>
  <text class="cls-1" transform="translate(79.25 42.77) rotate(8.15)"><tspan x="0" y="0">s</tspan></text>
  <text class="cls-1" transform="translate(80.03 42.88) rotate(9.68)"><tspan x="0" y="0">a</tspan></text>
  <text class="cls-1" transform="translate(80.97 43.05) rotate(10.94)"><tspan x="0" y="0">i</tspan></text>
  <text class="cls-1" transform="translate(81.42 43.13) rotate(12.33)"><tspan x="0" y="0">d</tspan></text>
  <text class="cls-1" transform="translate(82.5 43.37) rotate(13.67)"><tspan x="0" y="0"> </tspan></text>
  <text class="cls-1" transform="translate(82.92 43.47) rotate(14.65)"><tspan x="0" y="0">t</tspan></text>
  <text class="cls-1" transform="translate(83.54 43.63) rotate(16.17)"><tspan x="0" y="0">o</tspan></text>
  <text class="cls-1" transform="translate(84.58 43.94) rotate(17.5)"><tspan x="0" y="0"> </tspan></text>
  <text class="cls-1" transform="translate(84.97 44.06) rotate(18.43)"><tspan x="0" y="0">r</tspan></text>
  <text class="cls-1" transform="translate(85.56 44.25) rotate(19.85)"><tspan x="0" y="0">e</tspan></text>
  <text class="cls-1" transform="translate(86.52 44.6) rotate(21.61)"><tspan x="0" y="0">v</tspan></text>
  <text class="cls-1" transform="translate(87.37 44.93) rotate(23.37)"><tspan x="0" y="0">o</tspan></text>
  <text class="cls-1" transform="translate(88.36 45.36) rotate(24.72)"><tspan x="0" y="0">l</tspan></text>
  <text class="cls-1" transform="translate(88.79 45.56) rotate(25.99)"><tspan x="0" y="0">v</tspan></text>
  <text class="cls-1" transform="translate(89.61 45.96) rotate(27.64)"><tspan x="0" y="0">e</tspan></text>
  <text class="cls-1" transform="translate(90.5 46.43) rotate(28.9)"><tspan x="0" y="0"> </tspan></text>
  <text class="cls-1" transform="translate(90.87 46.63) rotate(30.12)"><tspan x="0" y="0">a</tspan></text>
  <text class="cls-1" transform="translate(91.7 47.11) rotate(31.54)"><tspan x="0" y="0">r</tspan></text>
  <text class="cls-1" transform="translate(92.22 47.43) rotate(33.01)"><tspan x="0" y="0">o</tspan></text>
  <text class="cls-1" transform="translate(93.12 48.01) rotate(34.9)"><tspan x="0" y="0">u</tspan></text>
  <text class="cls-1" transform="translate(94.02 48.64) rotate(36.83)"><tspan x="0" y="0">n</tspan></text>
  <text class="cls-1" transform="translate(94.89 49.29) rotate(38.76)"><tspan x="0" y="0">d</tspan></text>
  <text class="cls-1" transform="translate(95.77 50) rotate(40.13)"><tspan x="0" y="0"> </tspan></text>
  <text class="cls-1" transform="translate(96.09 50.27) rotate(41.07)"><tspan x="0" y="0">t</tspan></text>
  <text class="cls-1" transform="translate(96.59 50.7) rotate(42.61)"><tspan x="0" y="0">h</tspan></text>
  <text class="cls-1" transform="translate(97.4 51.45) rotate(44.44)"><tspan x="0" y="0">e</tspan></text>
  <text class="cls-1" transform="translate(98.11 52.15) rotate(45.68)"><tspan x="0" y="0"> </tspan></text>
  <text class="cls-1" transform="translate(98.4 52.44) rotate(46.41)"><tspan x="0" y="0"> </tspan></text>
  <text class="cls-1" transform="translate(98.68 52.74) rotate(47.6)"><tspan x="0" y="0">a</tspan></text>
  <text class="cls-1" transform="translate(99.33 53.45) rotate(49.01)"><tspan x="0" y="0">r</tspan></text>
  <text class="cls-1" transform="translate(99.73 53.9) rotate(50.47)"><tspan x="0" y="0">o</tspan></text>
  <text class="cls-1" transform="translate(100.43 54.75) rotate(52.4)"><tspan x="0" y="0">u</tspan></text>
  <text class="cls-1" transform="translate(101.1 55.62) rotate(54.32)"><tspan x="0" y="0">n</tspan></text>
  <text class="cls-1" transform="translate(101.73 56.5) rotate(56.26)"><tspan x="0" y="0">d</tspan></text>
  <text class="cls-1" transform="translate(102.35 57.43) rotate(57.59)"><tspan x="0" y="0"> </tspan></text>
  <text class="cls-1" transform="translate(102.57 57.78) rotate(58.54)"><tspan x="0" y="0">t</tspan></text>
  <text class="cls-1" transform="translate(102.92 58.34) rotate(60.1)"><tspan x="0" y="0">h</tspan></text>
  <text class="cls-1" transform="translate(103.46 59.28) rotate(61.92)"><tspan x="0" y="0">e</tspan></text>
  <text class="cls-1" transform="translate(103.93 60.17) rotate(63.18)"><tspan x="0" y="0"> </tspan></text>
  <text class="cls-1" transform="translate(104.12 60.55) rotate(64.44)"><tspan x="0" y="0">e</tspan></text>
  <text class="cls-1" transform="translate(104.54 61.43) rotate(66.15)"><tspan x="0" y="0">a</tspan></text>
  <text class="cls-1" transform="translate(104.93 62.3) rotate(67.56)"><tspan x="0" y="0">r</tspan></text>
  <text class="cls-1" transform="translate(105.2 62.96) rotate(68.83)"><tspan x="0" y="0">t</tspan></text>
  <text class="cls-1" transform="translate(105.43 63.56) rotate(70.37)"><tspan x="0" y="0">h</tspan></text>
</svg>