<?xml version="1.0" encoding="UTF-8"?>
<svg id="Layer_1" data-name="Layer 1" xmlns="http://www.w3.org/2000/svg" viewBox="0 0 150 150">
  <defs>
    <style>
      .cls-1 {
        fill: #231f20;
        font-family: MyriadPro-Regular, 'Myriad Pro';
        font-size: 2px;
      }
    </style>
  </defs>
  <text class="cls-1" transform="translate(74.98 52.49) rotate(1.18)"><tspan x="0" y="0">T</tspan></text>
  <text class="cls-1" transform="translate(75.96 52.51) rotate(3.81)"><tspan x="0" y="0">h</tspan></text>
  <text class="cls-1" transform="translate(77.05 52.59) rotate(6.43)"><tspan x="0" y="0">e</tspan></text>
  <text class="cls-1" transform="translate(78.04 52.7) rotate(8.24)"><tspan x="0" y="0"> </tspan></text>
  <text class="cls-1" transform="translate(78.44 52.76) rotate(9.86)"><tspan x="0" y="0">c</tspan></text>
  <text class="cls-1" transform="translate(79.29 52.9) rotate(12.19)"><tspan x="0" y="0">e</tspan></text>
  <text class="cls-1" transform="translate(80.26 53.11) rotate(14.87)"><tspan x="0" y="0">n</tspan></text>
  <text class="cls-1" transform="translate(81.31 53.39) rotate(17.1)"><tspan x="0" y="0">t</tspan></text>
  <text class="cls-1" transform="translate(81.91 53.57) rotate(19.14)"><tspan x="0" y="0">e</tspan></text>
  <text class="cls-1" transform="translate(82.85 53.9) rotate(21.26)"><tspan x="0" y="0">r</tspan></text>
  <text class="cls-1" transform="translate(83.44 54.13) rotate(22.58)"><tspan x="0" y="0"> </tspan></text>
  <text class="cls-1" transform="translate(83.82 54.29) rotate(24.5)"><tspan x="0" y="0">o</tspan></text>
  <text class="cls-1" transform="translate(84.8 54.74) rotate(26.6)"><tspan x="0" y="0">f</tspan></text>
  <text class="cls-1" transform="translate(85.33 55) rotate(27.9)"><tspan x="0" y="0"> </tspan></text>
  <text class="cls-1" transform="translate(85.69 55.19) rotate(29.64)"><tspan x="0" y="0">a</tspan></text>
  <text class="cls-1" transform="translate(86.51 55.66) rotate(31.37)"><tspan x="0" y="0"> </tspan></text>
  <text class="cls-1" transform="translate(86.87 55.87) rotate(33.01)"><tspan x="0" y="0">c</tspan></text>
  <text class="cls-1" transform="translate(87.6 56.35) rotate(35.33)"><tspan x="0" y="0">a</tspan></text>
  <text class="cls-1" transform="translate(88.37 56.89) rotate(37.91)"><tspan x="0" y="0">d</tspan></text>
  <text class="cls-1" transform="translate(89.24 57.57) rotate(40.73)"><tspan x="0" y="0">b</tspan></text>
  <text class="cls-1" transform="translate(90.1 58.31) rotate(43.55)"><tspan x="0" y="0">u</tspan></text>
  <text class="cls-1" transform="translate(90.9 59.07) rotate(45.77)"><tspan x="0" y="0">r</tspan></text>
  <text class="cls-1" transform="translate(91.36 59.55) rotate(47.82)"><tspan x="0" y="0">y</tspan></text>
  <text class="cls-1" transform="translate(91.99 60.24) rotate(49.53)"><tspan x="0" y="0"> </tspan></text>
  <text class="cls-1" transform="translate(92.25 60.55) rotate(51.15)"><tspan x="0" y="0">c</tspan></text>
  <text class="cls-1" transform="translate(92.81 61.25) rotate(53.12)"><tspan x="0" y="0">r</tspan></text>
  <text class="cls-1" transform="translate(93.18 61.73) rotate(55.1)"><tspan x="0" y="0">e</tspan></text>
  <text class="cls-1" transform="translate(93.75 62.53) rotate(58.46)"><tspan x="0" y="0">m</tspan></text>
  <text class="cls-1" transform="translate(94.61 63.95) rotate(61.83)"><tspan x="0" y="0">e</tspan></text>
  <text class="cls-1" transform="translate(95.07 64.81) rotate(63.57)"><tspan x="0" y="0"> </tspan></text>
  <text class="cls-1" transform="translate(95.26 65.19) rotate(65.41)"><tspan x="0" y="0">e</tspan></text>
  <text class="cls-1" transform="translate(95.67 66.07) rotate(68.04)"><tspan x="0" y="0">g</tspan></text>
  <text class="cls-1" transform="translate(96.08 67.09) rotate(70.86)"><tspan x="0" y="0">g</tspan></text>
  <text class="cls-1" transform="translate(96.44 68.14) rotate(72.81)"><tspan x="0" y="0">	</tspan></text>
  <text class="cls-1" transform="translate(96.4 81.99) rotate(109.32)"><tspan x="0" y="0">a</tspan></text>
  <text class="cls-1" transform="translate(96.09 82.87) rotate(111.69)"><tspan x="0" y="0">a</tspan></text>
  <text class="cls-1" transform="translate(95.74 83.75) rotate(114.33)"><tspan x="0" y="0">n</tspan></text>
  <text class="cls-1" transform="translate(95.29 84.75) rotate(116.25)"><tspan x="0" y="0"> </tspan></text>
  <text class="cls-1" transform="translate(95.1 85.13) rotate(117.39)"><tspan x="0" y="0">i</tspan></text>
  <text class="cls-1" transform="translate(94.89 85.54) rotate(119.38)"><tspan x="0" y="0">n</tspan></text>
  <text class="cls-1" transform="translate(94.36 86.49) rotate(122.15)"><tspan x="0" y="0">n</tspan></text>
  <text class="cls-1" transform="translate(93.79 87.39) rotate(124.73)"><tspan x="0" y="0">e</tspan></text>
  <text class="cls-1" transform="translate(93.23 88.2) rotate(126.79)"><tspan x="0" y="0">r</tspan></text>
  <text class="cls-1" transform="translate(92.83 88.72) rotate(128.16)"><tspan x="0" y="0"> </tspan></text>
  <text class="cls-1" transform="translate(92.58 89.06) rotate(129.96)"><tspan x="0" y="0">e</tspan></text>
  <text class="cls-1" transform="translate(91.94 89.81) rotate(132.36)"><tspan x="0" y="0">x</tspan></text>
  <text class="cls-1" transform="translate(91.34 90.47) rotate(134.66)"><tspan x="0" y="0">a</tspan></text>
  <text class="cls-1" transform="translate(90.67 91.16) rotate(137.99)"><tspan x="0" y="0">m</tspan></text>
  <text class="cls-1" transform="translate(89.47 92.24) rotate(141.41)"><tspan x="0" y="0">p</tspan></text>
  <text class="cls-1" transform="translate(88.57 92.95) rotate(143.47)"><tspan x="0" y="0">l</tspan></text>
  <text class="cls-1" transform="translate(88.21 93.22) rotate(145.27)"><tspan x="0" y="0">e</tspan></text>
  <text class="cls-1" transform="translate(87.39 93.79) rotate(147.08)"><tspan x="0" y="0"> </tspan></text>
  <text class="cls-1" transform="translate(87.04 94.02) rotate(148.46)"><tspan x="0" y="0">t</tspan></text>
  <text class="cls-1" transform="translate(86.5 94.35) rotate(150.62)"><tspan x="0" y="0">o</tspan></text>
  <text class="cls-1" transform="translate(85.55 94.88) rotate(152.53)"><tspan x="0" y="0"> </tspan></text>
  <text class="cls-1" transform="translate(85.2 95.06) rotate(153.83)"><tspan x="0" y="0">r</tspan></text>
  <text class="cls-1" transform="translate(84.63 95.35) rotate(156.02)"><tspan x="0" y="0">o</tspan></text>
  <text class="cls-1" transform="translate(83.67 95.78) rotate(158.74)"><tspan x="0" y="0">u</tspan></text>
  <text class="cls-1" transform="translate(82.64 96.18) rotate(161.57)"><tspan x="0" y="0">n</tspan></text>
  <text class="cls-1" transform="translate(81.6 96.52) rotate(164.41)"><tspan x="0" y="0">d</tspan></text>
  <text class="cls-1" transform="translate(80.52 96.82) rotate(166.38)"><tspan x="0" y="0"> </tspan></text>
  <text class="cls-1" transform="translate(80.14 96.92) rotate(168.25)"><tspan x="0" y="0">o</tspan></text>
  <text class="cls-1" transform="translate(79.08 97.14) rotate(171.04)"><tspan x="0" y="0">u</tspan></text>
  <text class="cls-1" transform="translate(78.02 97.3) rotate(173.21)"><tspan x="0" y="0">t</tspan></text>
  <text class="cls-1" transform="translate(77.37 97.38) rotate(174.56)"><tspan x="0" y="0">	</tspan></text>
  <text class="cls-1" transform="translate(61.72 93.18) rotate(-142.44)"><tspan x="0" y="0">Y</tspan></text>
  <text class="cls-1" transform="translate(61.01 92.63) rotate(-140.13)"><tspan x="0" y="0">o</tspan></text>
  <text class="cls-1" transform="translate(60.18 91.94) rotate(-137.39)"><tspan x="0" y="0">u</tspan></text>
  <text class="cls-1" transform="translate(59.39 91.2) rotate(-135.51)"><tspan x="0" y="0"> </tspan></text>
  <text class="cls-1" transform="translate(59.08 90.91) rotate(-133.85)"><tspan x="0" y="0">c</tspan></text>
  <text class="cls-1" transform="translate(58.46 90.26) rotate(-131.5)"><tspan x="0" y="0">a</tspan></text>
  <text class="cls-1" transform="translate(57.84 89.56) rotate(-128.93)"><tspan x="0" y="0">n</tspan></text>
  <text class="cls-1" transform="translate(57.16 88.71) rotate(-127.05)"><tspan x="0" y="0"> </tspan></text>
  <text class="cls-1" transform="translate(56.9 88.37) rotate(-125.5)"><tspan x="0" y="0">s</tspan></text>
  <text class="cls-1" transform="translate(56.45 87.75) rotate(-123.27)"><tspan x="0" y="0">e</tspan></text>
  <text class="cls-1" transform="translate(55.91 86.92) rotate(-120.77)"><tspan x="0" y="0">e</tspan></text>
  <text class="cls-1" transform="translate(55.42 86.09) rotate(-119.03)"><tspan x="0" y="0"> </tspan></text>
  <text class="cls-1" transform="translate(55.21 85.72) rotate(-117.64)"><tspan x="0" y="0">t</tspan></text>
  <text class="cls-1" transform="translate(54.9 85.13) rotate(-115.38)"><tspan x="0" y="0">h</tspan></text>
  <text class="cls-1" transform="translate(54.44 84.16) rotate(-113.45)"><tspan x="0" y="0">i</tspan></text>
  <text class="cls-1" transform="translate(54.26 83.75) rotate(-111.87)"><tspan x="0" y="0">s</tspan></text>
  <text class="cls-1" transform="translate(53.96 83) rotate(-110.28)"><tspan x="0" y="0"> </tspan></text>
  <text class="cls-1" transform="translate(53.82 82.62) rotate(-108.56)"><tspan x="0" y="0">a</tspan></text>
  <text class="cls-1" transform="translate(53.52 81.72) rotate(-106.35)"><tspan x="0" y="0">s</tspan></text>
  <text class="cls-1" transform="translate(53.3 80.96) rotate(-104.79)"><tspan x="0" y="0"> </tspan></text>
  <text class="cls-1" transform="translate(53.19 80.57) rotate(-103.44)"><tspan x="0" y="0">t</tspan></text>
  <text class="cls-1" transform="translate(53.04 79.94) rotate(-101.21)"><tspan x="0" y="0">h</tspan></text>
  <text class="cls-1" transform="translate(52.83 78.89) rotate(-98.6)"><tspan x="0" y="0">e</tspan></text>
  <text class="cls-1" transform="translate(52.68 77.9) rotate(-96.79)"><tspan x="0" y="0"> </tspan></text>
  <text class="cls-1" transform="translate(52.63 77.5) rotate(-95.16)"><tspan x="0" y="0">c</tspan></text>
  <text class="cls-1" transform="translate(52.55 76.62) rotate(-92.81)"><tspan x="0" y="0">e</tspan></text>
  <text class="cls-1" transform="translate(52.51 75.65) rotate(-90.93)"><tspan x="0" y="0">n</tspan></text>
  <text class="cls-1" transform="translate(52.5 74.55) rotate(-88.05)"><tspan x="0" y="0">t</tspan></text>
  <text class="cls-1" transform="translate(52.52 73.91) rotate(-86.01)"><tspan x="0" y="0">e</tspan></text>
  <text class="cls-1" transform="translate(52.59 72.92) rotate(-83.93)"><tspan x="0" y="0">r</tspan></text>
</svg>