<?xml version="1.0" encoding="UTF-8"?>
<svg id="Layer_2" data-name="Layer 2" xmlns="http://www.w3.org/2000/svg" viewBox="0 0 144.69 144.7">
  <defs>
    <style>
      .cls-1 {
        fill: #231f20;
        font-family: Futura-Medium, Futura;
        font-size: 3.1px;
        font-weight: 500;
      }
    </style>
  </defs>
  <g id="Layer_13" data-name="Layer 13">
    <text class="cls-1" transform="translate(8.88 78.28) rotate(-94.38)"><tspan x="0" y="0">C</tspan></text>
    <text class="cls-1" transform="translate(8.72 76.14) rotate(-92.61)"><tspan x="0" y="0">o</tspan></text>
    <text class="cls-1" transform="translate(8.63 74.29) rotate(-90.71)"><tspan x="0" y="0">m</tspan></text>
    <text class="cls-1" transform="translate(8.61 71.83) rotate(-88.76)"><tspan x="0" y="0">p</tspan></text>
    <text class="cls-1" transform="translate(8.65 69.98) rotate(-87.18)"><tspan x="0" y="0">u</tspan></text>
    <text class="cls-1" transform="translate(8.73 68.31) rotate(-86.06)"><tspan x="0" y="0">t</tspan></text>
    <text class="cls-1" transform="translate(8.79 67.45) rotate(-84.89)"><tspan x="0" y="0">e</tspan></text>
    <text class="cls-1" transform="translate(8.94 65.74) rotate(-83.58)"><tspan x="0" y="0">r</tspan></text>
    <text class="cls-1" transform="translate(9.07 64.61) rotate(-82.51)"><tspan x="0" y="0">s</tspan></text>
    <text class="cls-1" transform="translate(9.23 63.38) rotate(-81.52)"><tspan x="0" y="0"> </tspan></text>
    <text class="cls-1" transform="translate(9.37 62.42) rotate(-80.32)"><tspan x="0" y="0">u</tspan></text>
    <text class="cls-1" transform="translate(9.65 60.78) rotate(-78.81)"><tspan x="0" y="0">n</tspan></text>
    <text class="cls-1" transform="translate(9.98 59.13) rotate(-77.21)"><tspan x="0" y="0">d</tspan></text>
    <text class="cls-1" transform="translate(10.38 57.34) rotate(-75.62)"><tspan x="0" y="0">e</tspan></text>
    <text class="cls-1" transform="translate(10.81 55.69) rotate(-74.31)"><tspan x="0" y="0">r</tspan></text>
    <text class="cls-1" transform="translate(11.12 54.59) rotate(-73.24)"><tspan x="0" y="0">s</tspan></text>
    <text class="cls-1" transform="translate(11.48 53.39) rotate(-72.29)"><tspan x="0" y="0">t</tspan></text>
    <text class="cls-1" transform="translate(11.74 52.58) rotate(-71.07)"><tspan x="0" y="0">a</tspan></text>
    <text class="cls-1" transform="translate(12.34 50.83) rotate(-69.47)"><tspan x="0" y="0">n</tspan></text>
    <text class="cls-1" transform="translate(12.92 49.25) rotate(-67.88)"><tspan x="0" y="0">d</tspan></text>
    <text class="cls-1" transform="translate(13.63 47.54) rotate(-66.62)"><tspan x="0" y="0"> </tspan></text>
    <text class="cls-1" transform="translate(13.99 46.68) rotate(-65.34)"><tspan x="0" y="0">3</tspan></text>
    <text class="cls-1" transform="translate(14.78 44.95) rotate(-63.48)"><tspan x="0" y="0">D</tspan></text>
    <text class="cls-1" transform="translate(15.79 42.96) rotate(-62.06)"><tspan x="0" y="0"> </tspan></text>
    <text class="cls-1" transform="translate(16.23 42.11) rotate(-61.22)"><tspan x="0" y="0">f</tspan></text>
    <text class="cls-1" transform="translate(16.7 41.27) rotate(-60.43)"><tspan x="0" y="0">i</tspan></text>
    <text class="cls-1" transform="translate(17.08 40.6) rotate(-59.74)"><tspan x="0" y="0">l</tspan></text>
    <text class="cls-1" transform="translate(17.46 39.93) rotate(-58.62)"><tspan x="0" y="0">e</tspan></text>
    <text class="cls-1" transform="translate(18.36 38.47) rotate(-57.3)"><tspan x="0" y="0">s</tspan></text>
    <text class="cls-1" transform="translate(19.02 37.44) rotate(-56.33)"><tspan x="0" y="0"> </tspan></text>
    <text class="cls-1" transform="translate(19.55 36.64) rotate(-55.07)"><tspan x="0" y="0">a</tspan></text>
    <text class="cls-1" transform="translate(20.6 35.14) rotate(-53.7)"><tspan x="0" y="0">s</tspan></text>
    <text class="cls-1" transform="translate(21.34 34.13) rotate(-52.72)"><tspan x="0" y="0"> </tspan></text>
    <text class="cls-1" transform="translate(21.9 33.39) rotate(-51.48)"><tspan x="0" y="0">a</tspan></text>
    <text class="cls-1" transform="translate(23.07 31.93) rotate(-50.22)"><tspan x="0" y="0"> </tspan></text>
    <text class="cls-1" transform="translate(23.67 31.2) rotate(-49.39)"><tspan x="0" y="0">f</tspan></text>
    <text class="cls-1" transform="translate(24.28 30.49) rotate(-48.13)"><tspan x="0" y="0">o</tspan></text>
    <text class="cls-1" transform="translate(25.53 29.11) rotate(-46.96)"><tspan x="0" y="0">l</tspan></text>
    <text class="cls-1" transform="translate(26.03 28.55) rotate(-45.8)"><tspan x="0" y="0">d</tspan></text>
    <text class="cls-1" transform="translate(27.32 27.24) rotate(-44.22)"><tspan x="0" y="0">e</tspan></text>
    <text class="cls-1" transform="translate(28.54 26.05) rotate(-42.63)"><tspan x="0" y="0">d</tspan></text>
    <text class="cls-1" transform="translate(29.89 24.81) rotate(-41.39)"><tspan x="0" y="0"> </tspan></text>
    <text class="cls-1" transform="translate(30.6 24.17) rotate(-40.21)"><tspan x="0" y="0">u</tspan></text>
    <text class="cls-1" transform="translate(31.87 23.1) rotate(-38.64)"><tspan x="0" y="0">p</tspan></text>
    <text class="cls-1" transform="translate(33.32 21.95) rotate(-37.39)"><tspan x="0" y="0"> </tspan></text>
    <text class="cls-1" transform="translate(34.08 21.36) rotate(-36.09)"><tspan x="0" y="0">2</tspan></text>
    <text class="cls-1" transform="translate(35.59 20.25) rotate(-34.25)"><tspan x="0" y="0">D</tspan></text>
    <text class="cls-1" transform="translate(37.45 19) rotate(-32.82)"><tspan x="0" y="0"> </tspan></text>
    <text class="cls-1" transform="translate(38.23 18.48) rotate(-31.3)"><tspan x="0" y="0">m</tspan></text>
    <text class="cls-1" transform="translate(40.31 17.23) rotate(-29.44)"><tspan x="0" y="0">e</tspan></text>
    <text class="cls-1" transform="translate(41.8 16.39) rotate(-28.1)"><tspan x="0" y="0">s</tspan></text>
    <text class="cls-1" transform="translate(42.91 15.79) rotate(-26.76)"><tspan x="0" y="0">h</tspan></text>
    <text class="cls-1" transform="translate(44.42 15.03) rotate(-25.57)"><tspan x="0" y="0">.</tspan></text>
    <text class="cls-1" transform="translate(45.25 14.64) rotate(-24.73)"><tspan x="0" y="0"> </tspan></text>
    <text class="cls-1" transform="translate(46.11 14.24) rotate(-23.63)"><tspan x="0" y="0">T</tspan></text>
    <text class="cls-1" transform="translate(47.48 13.64) rotate(-22.18)"><tspan x="0" y="0">h</tspan></text>
    <text class="cls-1" transform="translate(49.04 13) rotate(-20.65)"><tspan x="0" y="0">e</tspan></text>
    <text class="cls-1" transform="translate(50.64 12.4) rotate(-19.35)"><tspan x="0" y="0">r</tspan></text>
    <text class="cls-1" transform="translate(51.68 12.03) rotate(-18.1)"><tspan x="0" y="0">e</tspan></text>
    <text class="cls-1" transform="translate(53.32 11.5) rotate(-16.89)"><tspan x="0" y="0"> </tspan></text>
    <text class="cls-1" transform="translate(54.21 11.22) rotate(-15.64)"><tspan x="0" y="0">a</tspan></text>
    <text class="cls-1" transform="translate(55.99 10.73) rotate(-14.29)"><tspan x="0" y="0">r</tspan></text>
    <text class="cls-1" transform="translate(57.08 10.45) rotate(-13.02)"><tspan x="0" y="0">e</tspan></text>
    <text class="cls-1" transform="translate(58.73 10.07) rotate(-11.85)"><tspan x="0" y="0"> </tspan></text>
    <text class="cls-1" transform="translate(59.67 9.87) rotate(-10.85)"><tspan x="0" y="0">s</tspan></text>
    <text class="cls-1" transform="translate(60.88 9.64) rotate(-9.54)"><tspan x="0" y="0">e</tspan></text>
    <text class="cls-1" transform="translate(62.52 9.36) rotate(-8.14)"><tspan x="0" y="0">v</tspan></text>
    <text class="cls-1" transform="translate(63.98 9.15) rotate(-6.76)"><tspan x="0" y="0">e</tspan></text>
    <text class="cls-1" transform="translate(65.66 8.96) rotate(-6.26)"><tspan x="0" y="0">r</tspan></text>
    <text class="cls-1" transform="translate(66.8 8.84) rotate(-4.19)"><tspan x="0" y="0">a</tspan></text>
    <text class="cls-1" transform="translate(68.62 8.71) rotate(-3.06)"><tspan x="0" y="0">l</tspan></text>
    <text class="cls-1" transform="translate(69.39 8.67) rotate(-2.29)"><tspan x="0" y="0"> </tspan></text>
    <text class="cls-1" transform="translate(70.34 8.63) rotate(-1.04)"><tspan x="0" y="0">p</tspan></text>
    <text class="cls-1" transform="translate(72.18 8.6) rotate(.29)"><tspan x="0" y="0">r</tspan></text>
    <text class="cls-1" transform="translate(73.29 8.6) rotate(1.6)"><tspan x="0" y="0">o</tspan></text>
    <text class="cls-1" transform="translate(75.14 8.65) rotate(3.09)"><tspan x="0" y="0">c</tspan></text>
    <text class="cls-1" transform="translate(76.62 8.73) rotate(4.53)"><tspan x="0" y="0">e</tspan></text>
    <text class="cls-1" transform="translate(78.31 8.86) rotate(6.12)"><tspan x="0" y="0">d</tspan></text>
    <text class="cls-1" transform="translate(80.14 9.06) rotate(7.71)"><tspan x="0" y="0">u</tspan></text>
    <text class="cls-1" transform="translate(81.8 9.29) rotate(8.99)"><tspan x="0" y="0">r</tspan></text>
    <text class="cls-1" transform="translate(82.89 9.46) rotate(10.3)"><tspan x="0" y="0">a</tspan></text>
    <text class="cls-1" transform="translate(84.73 9.8) rotate(11.5)"><tspan x="0" y="0">l</tspan></text>
    <text class="cls-1" transform="translate(85.45 9.94) rotate(12.26)"><tspan x="0" y="0"> </tspan></text>
    <text class="cls-1" transform="translate(86.4 10.14) rotate(13.55)"><tspan x="0" y="0">p</tspan></text>
    <text class="cls-1" transform="translate(88.19 10.58) rotate(14.89)"><tspan x="0" y="0">r</tspan></text>
    <text class="cls-1" transform="translate(89.26 10.86) rotate(16.21)"><tspan x="0" y="0">o</tspan></text>
    <text class="cls-1" transform="translate(91.03 11.37) rotate(17.88)"><tspan x="0" y="0">b</tspan></text>
    <text class="cls-1" transform="translate(92.79 11.95) rotate(19.07)"><tspan x="0" y="0">l</tspan></text>
    <text class="cls-1" transform="translate(93.51 12.19) rotate(20.18)"><tspan x="0" y="0">e</tspan></text>
    <text class="cls-1" transform="translate(95.12 12.78) rotate(22.05)"><tspan x="0" y="0">m</tspan></text>
    <text class="cls-1" transform="translate(97.37 13.7) rotate(23.71)"><tspan x="0" y="0">s</tspan></text>
    <text class="cls-1" transform="translate(98.5 14.19) rotate(24.68)"><tspan x="0" y="0"> </tspan></text>
    <text class="cls-1" transform="translate(99.36 14.59) rotate(25.48)"><tspan x="0" y="0">t</tspan></text>
    <text class="cls-1" transform="translate(100.19 14.98) rotate(26.69)"><tspan x="0" y="0">h</tspan></text>
    <text class="cls-1" transform="translate(101.68 15.73) rotate(28.26)"><tspan x="0" y="0">a</tspan></text>
    <text class="cls-1" transform="translate(103.31 16.61) rotate(29.47)"><tspan x="0" y="0">t</tspan></text>
    <text class="cls-1" transform="translate(104.03 17.02) rotate(30.26)"><tspan x="0" y="0"> </tspan></text>
    <text class="cls-1" transform="translate(104.85 17.49) rotate(31.51)"><tspan x="0" y="0">a</tspan></text>
    <text class="cls-1" transform="translate(106.43 18.46) rotate(32.86)"><tspan x="0" y="0">r</tspan></text>
    <text class="cls-1" transform="translate(107.43 19.11) rotate(33.75)"><tspan x="0" y="0">i</tspan></text>
    <text class="cls-1" transform="translate(108.07 19.54) rotate(34.65)"><tspan x="0" y="0">s</tspan></text>
    <text class="cls-1" transform="translate(109.08 20.23) rotate(35.96)"><tspan x="0" y="0">e</tspan></text>
    <text class="cls-1" transform="translate(110.47 21.24) rotate(37.15)"><tspan x="0" y="0"> </tspan></text>
    <text class="cls-1" transform="translate(111.21 21.8) rotate(37.96)"><tspan x="0" y="0">f</tspan></text>
    <text class="cls-1" transform="translate(111.95 22.38) rotate(38.91)"><tspan x="0" y="0">r</tspan></text>
    <text class="cls-1" transform="translate(112.81 23.07) rotate(40.21)"><tspan x="0" y="0">o</tspan></text>
    <text class="cls-1" transform="translate(114.23 24.26) rotate(42.13)"><tspan x="0" y="0">m</tspan></text>
    <text class="cls-1" transform="translate(116.02 25.89) rotate(43.62)"><tspan x="0" y="0"> </tspan></text>
    <text class="cls-1" transform="translate(116.72 26.55) rotate(44.71)"><tspan x="0" y="0">c</tspan></text>
    <text class="cls-1" transform="translate(117.75 27.58) rotate(46.19)"><tspan x="0" y="0">o</tspan></text>
    <text class="cls-1" transform="translate(119.02 28.9) rotate(47.75)"><tspan x="0" y="0">n</tspan></text>
    <text class="cls-1" transform="translate(120.16 30.15) rotate(49.17)"><tspan x="0" y="0">c</tspan></text>
    <text class="cls-1" transform="translate(121.11 31.26) rotate(50.59)"><tspan x="0" y="0">e</tspan></text>
    <text class="cls-1" transform="translate(122.2 32.59) rotate(51.71)"><tspan x="0" y="0">i</tspan></text>
    <text class="cls-1" transform="translate(122.68 33.18) rotate(52.74)"><tspan x="0" y="0">v</tspan></text>
    <text class="cls-1" transform="translate(123.61 34.42) rotate(53.78)"><tspan x="0" y="0">i</tspan></text>
    <text class="cls-1" transform="translate(124.05 35.01) rotate(54.86)"><tspan x="0" y="0">n</tspan></text>
    <text class="cls-1" transform="translate(125.03 36.4) rotate(56.46)"><tspan x="0" y="0">g</tspan></text>
    <text class="cls-1" transform="translate(126.05 37.94) rotate(57.72)"><tspan x="0" y="0"> </tspan></text>
    <text class="cls-1" transform="translate(126.56 38.74) rotate(58.99)"><tspan x="0" y="0">o</tspan></text>
    <text class="cls-1" transform="translate(127.5 40.31) rotate(60.21)"><tspan x="0" y="0">f</tspan></text>
    <text class="cls-1" transform="translate(127.96 41.11) rotate(61.07)"><tspan x="0" y="0"> </tspan></text>
    <text class="cls-1" transform="translate(128.41 41.93) rotate(62.32)"><tspan x="0" y="0">a</tspan></text>
    <text class="cls-1" transform="translate(129.27 43.58) rotate(63.59)"><tspan x="0" y="0"> </tspan></text>
    <text class="cls-1" transform="translate(129.69 44.41) rotate(64.87)"><tspan x="0" y="0">3</tspan></text>
    <text class="cls-1" transform="translate(130.49 46.12) rotate(66.73)"><tspan x="0" y="0">D</tspan></text>
    <text class="cls-1" transform="translate(131.37 48.18) rotate(68.17)"><tspan x="0" y="0"> </tspan></text>
    <text class="cls-1" transform="translate(131.73 49.05) rotate(69.44)"><tspan x="0" y="0">o</tspan></text>
    <text class="cls-1" transform="translate(132.38 50.79) rotate(71.11)"><tspan x="0" y="0">b</tspan></text>
    <text class="cls-1" transform="translate(132.97 52.54) rotate(72.3)"><tspan x="0" y="0">j</tspan></text>
    <text class="cls-1" transform="translate(133.2 53.25) rotate(73.4)"><tspan x="0" y="0">e</tspan></text>
    <text class="cls-1" transform="translate(133.69 54.89) rotate(74.84)"><tspan x="0" y="0">c</tspan></text>
    <text class="cls-1" transform="translate(134.07 56.3) rotate(75.87)"><tspan x="0" y="0">t</tspan></text>
    <text class="cls-1" transform="translate(134.27 57.1) rotate(76.66)"><tspan x="0" y="0"> </tspan></text>
    <text class="cls-1" transform="translate(134.5 58.03) rotate(77.92)"><tspan x="0" y="0">a</tspan></text>
    <text class="cls-1" transform="translate(134.88 59.83) rotate(79.3)"><tspan x="0" y="0">s</tspan></text>
    <text class="cls-1" transform="translate(135.11 61.07) rotate(80.3)"><tspan x="0" y="0"> </tspan></text>
    <text class="cls-1" transform="translate(135.27 61.98) rotate(81.45)"><tspan x="0" y="0">n</tspan></text>
    <text class="cls-1" transform="translate(135.53 63.67) rotate(83.04)"><tspan x="0" y="0">o</tspan></text>
    <text class="cls-1" transform="translate(135.75 65.53) rotate(83.74)"><tspan x="0" y="0">t</tspan></text>
    <text class="cls-1" transform="translate(135.84 66.41) rotate(85.6)"><tspan x="0" y="0">h</tspan></text>
    <text class="cls-1" transform="translate(135.97 68.1) rotate(86.49)"><tspan x="0" y="0">i</tspan></text>
    <text class="cls-1" transform="translate(136.03 68.86) rotate(87.57)"><tspan x="0" y="0">n</tspan></text>
    <text class="cls-1" transform="translate(136.1 70.53) rotate(89.14)"><tspan x="0" y="0">g</tspan></text>
    <text class="cls-1" transform="translate(136.12 72.37) rotate(90.38)"><tspan x="0" y="0"> </tspan></text>
    <text class="cls-1" transform="translate(136.12 73.32) rotate(91.89)"><tspan x="0" y="0">m</tspan></text>
    <text class="cls-1" transform="translate(136.04 75.74) rotate(93.81)"><tspan x="0" y="0">o</tspan></text>
    <text class="cls-1" transform="translate(135.91 77.58) rotate(95.16)"><tspan x="0" y="0">r</tspan></text>
    <text class="cls-1" transform="translate(135.81 78.72) rotate(96.44)"><tspan x="0" y="0">e</tspan></text>
    <text class="cls-1" transform="translate(135.62 80.4) rotate(97.63)"><tspan x="0" y="0"> </tspan></text>
    <text class="cls-1" transform="translate(135.5 81.33) rotate(98.43)"><tspan x="0" y="0">t</tspan></text>
    <text class="cls-1" transform="translate(135.37 82.23) rotate(99.64)"><tspan x="0" y="0">h</tspan></text>
    <text class="cls-1" transform="translate(135.08 83.9) rotate(101.24)"><tspan x="0" y="0">a</tspan></text>
    <text class="cls-1" transform="translate(134.72 85.7) rotate(102.84)"><tspan x="0" y="0">n</tspan></text>
    <text class="cls-1" transform="translate(134.35 87.35) rotate(104.03)"><tspan x="0" y="0"> </tspan></text>
    <text class="cls-1" transform="translate(134.12 88.26) rotate(105.29)"><tspan x="0" y="0">a</tspan></text>
    <text class="cls-1" transform="translate(133.63 90.03) rotate(106.54)"><tspan x="0" y="0"> </tspan></text>
    <text class="cls-1" transform="translate(133.38 90.93) rotate(108.04)"><tspan x="0" y="0">w</tspan></text>
    <text class="cls-1" transform="translate(132.63 93.2) rotate(109.64)"><tspan x="0" y="0">r</tspan></text>
    <text class="cls-1" transform="translate(132.26 94.26) rotate(110.97)"><tspan x="0" y="0">a</tspan></text>
    <text class="cls-1" transform="translate(131.6 95.97) rotate(112.62)"><tspan x="0" y="0">p</tspan></text>
    <text class="cls-1" transform="translate(130.89 97.68) rotate(114.29)"><tspan x="0" y="0">p</tspan></text>
    <text class="cls-1" transform="translate(130.12 99.37) rotate(115.89)"><tspan x="0" y="0">e</tspan></text>
    <text class="cls-1" transform="translate(129.39 100.88) rotate(117.47)"><tspan x="0" y="0">d</tspan></text>
    <text class="cls-1" transform="translate(128.54 102.52) rotate(118.71)"><tspan x="0" y="0"> </tspan></text>
    <text class="cls-1" transform="translate(128.08 103.36) rotate(120.01)"><tspan x="0" y="0">2</tspan></text>
    <text class="cls-1" transform="translate(127.14 105) rotate(121.85)"><tspan x="0" y="0">D</tspan></text>
    <text class="cls-1" transform="translate(125.96 106.89) rotate(123.26)"><tspan x="0" y="0"> </tspan></text>
    <text class="cls-1" transform="translate(125.44 107.68) rotate(124.25)"><tspan x="0" y="0">s</tspan></text>
    <text class="cls-1" transform="translate(124.74 108.71) rotate(125.49)"><tspan x="0" y="0">k</tspan></text>
    <text class="cls-1" transform="translate(123.85 109.96) rotate(126.51)"><tspan x="0" y="0">i</tspan></text>
    <text class="cls-1" transform="translate(123.39 110.59) rotate(127.62)"><tspan x="0" y="0">n</tspan></text>
    <text class="cls-1" transform="translate(122.37 111.9) rotate(128.78)"><tspan x="0" y="0">,</tspan></text>
    <text class="cls-1" transform="translate(121.77 112.65) rotate(129.63)"><tspan x="0" y="0"> </tspan></text>
    <text class="cls-1" transform="translate(121.16 113.38) rotate(130.46)"><tspan x="0" y="0">f</tspan></text>
    <text class="cls-1" transform="translate(120.56 114.1) rotate(131.72)"><tspan x="0" y="0">o</tspan></text>
    <text class="cls-1" transform="translate(119.32 115.48) rotate(133.07)"><tspan x="0" y="0">r</tspan></text>
    <text class="cls-1" transform="translate(118.53 116.32) rotate(134.01)"><tspan x="0" y="0"> </tspan></text>
    <text class="cls-1" transform="translate(117.88 116.99) rotate(134.76)"><tspan x="0" y="0">i</tspan></text>
    <text class="cls-1" transform="translate(117.34 117.55) rotate(135.87)"><tspan x="0" y="0">n</tspan></text>
    <text class="cls-1" transform="translate(116.13 118.72) rotate(137.17)"><tspan x="0" y="0">s</tspan></text>
    <text class="cls-1" transform="translate(115.22 119.55) rotate(138.1)"><tspan x="0" y="0">t</tspan></text>
    <text class="cls-1" transform="translate(114.57 120.15) rotate(139.34)"><tspan x="0" y="0">a</tspan></text>
    <text class="cls-1" transform="translate(113.18 121.34) rotate(140.91)"><tspan x="0" y="0">n</tspan></text>
    <text class="cls-1" transform="translate(111.86 122.41) rotate(142.33)"><tspan x="0" y="0">c</tspan></text>
    <text class="cls-1" transform="translate(110.72 123.29) rotate(143.73)"><tspan x="0" y="0">e</tspan></text>
    <text class="cls-1" transform="translate(109.33 124.31) rotate(144.95)"><tspan x="0" y="0">,</tspan></text>
    <text class="cls-1" transform="translate(108.56 124.85) rotate(145.79)"><tspan x="0" y="0"> </tspan></text>
    <text class="cls-1" transform="translate(107.78 125.38) rotate(146.59)"><tspan x="0" y="0">t</tspan></text>
    <text class="cls-1" transform="translate(107.03 125.88) rotate(147.79)"><tspan x="0" y="0">h</tspan></text>
    <text class="cls-1" transform="translate(105.6 126.78) rotate(149.32)"><tspan x="0" y="0">e</tspan></text>
    <text class="cls-1" transform="translate(104.13 127.65) rotate(150.52)"><tspan x="0" y="0"> </tspan></text>
    <text class="cls-1" transform="translate(103.33 128.11) rotate(152.01)"><tspan x="0" y="0">w</tspan></text>
    <text class="cls-1" transform="translate(101.21 129.23) rotate(153.61)"><tspan x="0" y="0">r</tspan></text>
    <text class="cls-1" transform="translate(100.22 129.72) rotate(154.94)"><tspan x="0" y="0">a</tspan></text>
    <text class="cls-1" transform="translate(98.53 130.51) rotate(156.62)"><tspan x="0" y="0">p</tspan></text>
    <text class="cls-1" transform="translate(96.85 131.24) rotate(158.28)"><tspan x="0" y="0">p</tspan></text>
    <text class="cls-1" transform="translate(95.14 131.92) rotate(159.89)"><tspan x="0" y="0">e</tspan></text>
    <text class="cls-1" transform="translate(93.54 132.51) rotate(161.49)"><tspan x="0" y="0">d</tspan></text>
    <text class="cls-1" transform="translate(91.79 133.09) rotate(162.75)"><tspan x="0" y="0"> </tspan></text>
    <text class="cls-1" transform="translate(90.9 133.37) rotate(164.03)"><tspan x="0" y="0">2</tspan></text>
    <text class="cls-1" transform="translate(89.07 133.9) rotate(165.89)"><tspan x="0" y="0">D</tspan></text>
    <text class="cls-1" transform="translate(86.91 134.43) rotate(167.31)"><tspan x="0" y="0"> </tspan></text>
    <text class="cls-1" transform="translate(85.98 134.64) rotate(168.31)"><tspan x="0" y="0">s</tspan></text>
    <text class="cls-1" transform="translate(84.76 134.9) rotate(169.55)"><tspan x="0" y="0">k</tspan></text>
    <text class="cls-1" transform="translate(83.26 135.17) rotate(170.57)"><tspan x="0" y="0">i</tspan></text>
    <text class="cls-1" transform="translate(82.51 135.3) rotate(171.66)"><tspan x="0" y="0">n</tspan></text>
    <text class="cls-1" transform="translate(80.83 135.54) rotate(172.83)"><tspan x="0" y="0"> </tspan></text>
    <text class="cls-1" transform="translate(79.89 135.66) rotate(173.74)"><tspan x="0" y="0">w</tspan></text>
    <text class="cls-1" transform="translate(77.54 135.9) rotate(175.67)"><tspan x="0" y="0">i</tspan></text>
    <text class="cls-1" transform="translate(76.77 135.95) rotate(176.35)"><tspan x="0" y="0">l</tspan></text>
    <text class="cls-1" transform="translate(76.01 136) rotate(177.03)"><tspan x="0" y="0">l</tspan></text>
    <text class="cls-1" transform="translate(75.23 136.04) rotate(177.8)"><tspan x="0" y="0"> </tspan></text>
    <text class="cls-1" transform="translate(74.29 136.08) rotate(179.04)"><tspan x="0" y="0">o</tspan></text>
    <text class="cls-1" transform="translate(72.45 136.11) rotate(-179.73)"><tspan x="0" y="0">f</tspan></text>
    <text class="cls-1" transform="translate(71.43 136.1) rotate(-178.85)"><tspan x="0" y="0">t</tspan></text>
    <text class="cls-1" transform="translate(70.56 136.09) rotate(-177.68)"><tspan x="0" y="0">e</tspan></text>
    <text class="cls-1" transform="translate(68.87 136.02) rotate(-176.17)"><tspan x="0" y="0">n</tspan></text>
    <text class="cls-1" transform="translate(67.18 135.91) rotate(-174.98)"><tspan x="0" y="0"> </tspan></text>
    <text class="cls-1" transform="translate(66.24 135.83) rotate(-173.79)"><tspan x="0" y="0">h</tspan></text>
    <text class="cls-1" transform="translate(64.57 135.65) rotate(-172.19)"><tspan x="0" y="0">a</tspan></text>
    <text class="cls-1" transform="translate(62.71 135.39) rotate(-170.63)"><tspan x="0" y="0">v</tspan></text>
    <text class="cls-1" transform="translate(61.24 135.15) rotate(-169.21)"><tspan x="0" y="0">e</tspan></text>
    <text class="cls-1" transform="translate(59.56 134.82) rotate(-168.01)"><tspan x="0" y="0"> </tspan></text>
    <text class="cls-1" transform="translate(58.66 134.64) rotate(-166.77)"><tspan x="0" y="0">a</tspan></text>
    <text class="cls-1" transform="translate(56.85 134.21) rotate(-165.15)"><tspan x="0" y="0">n</tspan></text>
    <text class="cls-1" transform="translate(55.22 133.78) rotate(-163.96)"><tspan x="0" y="0"> </tspan></text>
    <text class="cls-1" transform="translate(54.32 133.52) rotate(-162.71)"><tspan x="0" y="0">a</tspan></text>
    <text class="cls-1" transform="translate(52.54 132.97) rotate(-160.78)"><tspan x="0" y="0">w</tspan></text>
    <text class="cls-1" transform="translate(50.29 132.18) rotate(-159.01)"><tspan x="0" y="0">k</tspan></text>
    <text class="cls-1" transform="translate(48.86 131.64) rotate(-157.25)"><tspan x="0" y="0">w</tspan></text>
    <text class="cls-1" transform="translate(46.71 130.73) rotate(-155.39)"><tspan x="0" y="0">a</tspan></text>
    <text class="cls-1" transform="translate(45.03 129.96) rotate(-154.05)"><tspan x="0" y="0">r</tspan></text>
    <text class="cls-1" transform="translate(44.03 129.48) rotate(-152.73)"><tspan x="0" y="0">d</tspan></text>
    <text class="cls-1" transform="translate(42.39 128.63) rotate(-151.48)"><tspan x="0" y="0"> </tspan></text>
    <text class="cls-1" transform="translate(41.56 128.18) rotate(-150.49)"><tspan x="0" y="0">s</tspan></text>
    <text class="cls-1" transform="translate(40.48 127.57) rotate(-149.18)"><tspan x="0" y="0">e</tspan></text>
    <text class="cls-1" transform="translate(39.02 126.7) rotate(-147.59)"><tspan x="0" y="0">a</tspan></text>
    <text class="cls-1" transform="translate(37.45 125.71) rotate(-145.67)"><tspan x="0" y="0">m</tspan></text>
    <text class="cls-1" transform="translate(35.46 124.34) rotate(-144.17)"><tspan x="0" y="0"> </tspan></text>
    <text class="cls-1" transform="translate(34.68 123.78) rotate(-143.4)"><tspan x="0" y="0">l</tspan></text>
    <text class="cls-1" transform="translate(34.07 123.32) rotate(-142.72)"><tspan x="0" y="0">i</tspan></text>
    <text class="cls-1" transform="translate(33.45 122.85) rotate(-141.61)"><tspan x="0" y="0">n</tspan></text>
    <text class="cls-1" transform="translate(32.14 121.82) rotate(-140.11)"><tspan x="0" y="0">e</tspan></text>
    <text class="cls-1" transform="translate(30.83 120.72) rotate(-138.92)"><tspan x="0" y="0"> </tspan></text>
  </g>
</svg>