<?xml version="1.0" encoding="UTF-8"?>
<svg id="Layer_2" data-name="Layer 2" xmlns="http://www.w3.org/2000/svg" viewBox="0 0 180.57 180.54">
  <defs>
    <style>
      .cls-1 {
        fill: #231f20;
        font-family: Futura-Medium, Futura;
        font-size: 3.3px;
        font-weight: 500;
      }
    </style>
  </defs>
  <g id="Layer_15" data-name="Layer 15">
    <text class="cls-1" transform="translate(21.28 108.02) rotate(-103.5)"><tspan x="0" y="0">L</tspan></text>
    <text class="cls-1" transform="translate(20.93 106.63) rotate(-102.52)"><tspan x="0" y="0">a</tspan></text>
    <text class="cls-1" transform="translate(20.5 104.67) rotate(-101)"><tspan x="0" y="0">y</tspan></text>
    <text class="cls-1" transform="translate(20.17 102.99) rotate(-99.62)"><tspan x="0" y="0">e</tspan></text>
    <text class="cls-1" transform="translate(19.87 101.19) rotate(-98.4)"><tspan x="0" y="0">r</tspan></text>
    <text class="cls-1" transform="translate(19.69 99.98) rotate(-97.5)"><tspan x="0" y="0"> </tspan></text>
    <text class="cls-1" transform="translate(19.55 98.98) rotate(-96.28)"><tspan x="0" y="0">1</tspan></text>
    <text class="cls-1" transform="translate(19.36 97.23) rotate(-94.86)"><tspan x="0" y="0">5</tspan></text>
    <text class="cls-1" transform="translate(19.19 95.22) rotate(-93.65)"><tspan x="0" y="0"> </tspan></text>
    <text class="cls-1" transform="translate(19.13 94.2) rotate(-92.84)"><tspan x="0" y="0">I</tspan></text>
    <text class="cls-1" transform="translate(19.08 93.24) rotate(-91.65)"><tspan x="0" y="0">p</tspan></text>
    <text class="cls-1" transform="translate(19.02 91.29) rotate(-90.33)"><tspan x="0" y="0">s</tspan></text>
    <text class="cls-1" transform="translate(19.01 89.95) rotate(-89.06)"><tspan x="0" y="0">u</tspan></text>
    <text class="cls-1" transform="translate(19.03 88.16) rotate(-87.28)"><tspan x="0" y="0">m</tspan></text>
    <text class="cls-1" transform="translate(19.17 85.59) rotate(-85.84)"><tspan x="0" y="0"> </tspan></text>
    <text class="cls-1" transform="translate(19.24 84.59) rotate(-84.85)"><tspan x="0" y="0">L</tspan></text>
    <text class="cls-1" transform="translate(19.36 83.14) rotate(-83.46)"><tspan x="0" y="0">o</tspan></text>
    <text class="cls-1" transform="translate(19.59 81.17) rotate(-82.16)"><tspan x="0" y="0">r</tspan></text>
    <text class="cls-1" transform="translate(19.75 79.99) rotate(-80.95)"><tspan x="0" y="0">e</tspan></text>
    <text class="cls-1" transform="translate(20.03 78.21) rotate(-79.18)"><tspan x="0" y="0">m</tspan></text>
    <text class="cls-1" transform="translate(20.53 75.65) rotate(-77.72)"><tspan x="0" y="0"> </tspan></text>
    <text class="cls-1" transform="translate(20.74 74.68) rotate(-76.93)"><tspan x="0" y="0">I</tspan></text>
    <text class="cls-1" transform="translate(20.96 73.73) rotate(-75.74)"><tspan x="0" y="0">p</tspan></text>
    <text class="cls-1" transform="translate(21.44 71.83) rotate(-74.42)"><tspan x="0" y="0">s</tspan></text>
    <text class="cls-1" transform="translate(21.8 70.55) rotate(-73.16)"><tspan x="0" y="0">u</tspan></text>
    <text class="cls-1" transform="translate(22.3 68.85) rotate(-71.42)"><tspan x="0" y="0">m</tspan></text>
    <text class="cls-1" transform="translate(23.14 66.4) rotate(-69.97)"><tspan x="0" y="0"> </tspan></text>
    <text class="cls-1" transform="translate(23.48 65.45) rotate(-68.99)"><tspan x="0" y="0">L</tspan></text>
    <text class="cls-1" transform="translate(24 64.09) rotate(-67.61)"><tspan x="0" y="0">o</tspan></text>
    <text class="cls-1" transform="translate(24.76 62.26) rotate(-66.33)"><tspan x="0" y="0">r</tspan></text>
    <text class="cls-1" transform="translate(25.24 61.16) rotate(-65.13)"><tspan x="0" y="0">e</tspan></text>
    <text class="cls-1" transform="translate(25.99 59.52) rotate(-63.38)"><tspan x="0" y="0">m</tspan></text>
    <text class="cls-1" transform="translate(27.16 57.22) rotate(-61.94)"><tspan x="0" y="0"> </tspan></text>
    <text class="cls-1" transform="translate(27.63 56.32) rotate(-61.15)"><tspan x="0" y="0">I</tspan></text>
    <text class="cls-1" transform="translate(28.1 55.48) rotate(-59.98)"><tspan x="0" y="0">p</tspan></text>
    <text class="cls-1" transform="translate(29.09 53.77) rotate(-58.66)"><tspan x="0" y="0">s</tspan></text>
    <text class="cls-1" transform="translate(29.77 52.64) rotate(-57.42)"><tspan x="0" y="0">u</tspan></text>
    <text class="cls-1" transform="translate(30.73 51.13) rotate(-55.67)"><tspan x="0" y="0">m</tspan></text>
    <text class="cls-1" transform="translate(32.19 49) rotate(-54.24)"><tspan x="0" y="0"> </tspan></text>
    <text class="cls-1" transform="translate(32.78 48.18) rotate(-53.25)"><tspan x="0" y="0">L</tspan></text>
    <text class="cls-1" transform="translate(33.65 47.02) rotate(-51.88)"><tspan x="0" y="0">o</tspan></text>
    <text class="cls-1" transform="translate(34.86 45.48) rotate(-50.62)"><tspan x="0" y="0">r</tspan></text>
    <text class="cls-1" transform="translate(35.62 44.55) rotate(-49.41)"><tspan x="0" y="0">e</tspan></text>
    <text class="cls-1" transform="translate(36.79 43.17) rotate(-47.65)"><tspan x="0" y="0">m</tspan></text>
    <text class="cls-1" transform="translate(38.56 41.24) rotate(-46.18)"><tspan x="0" y="0"> </tspan></text>
    <text class="cls-1" transform="translate(39.24 40.53) rotate(-45.41)"><tspan x="0" y="0">I</tspan></text>
    <text class="cls-1" transform="translate(39.93 39.83) rotate(-44.22)"><tspan x="0" y="0">p</tspan></text>
    <text class="cls-1" transform="translate(41.33 38.46) rotate(-42.9)"><tspan x="0" y="0">s</tspan></text>
    <text class="cls-1" transform="translate(42.31 37.56) rotate(-41.63)"><tspan x="0" y="0">u</tspan></text>
    <text class="cls-1" transform="translate(43.61 36.39) rotate(-39.89)"><tspan x="0" y="0">m</tspan></text>
    <text class="cls-1" transform="translate(45.62 34.72) rotate(-38.43)"><tspan x="0" y="0"> </tspan></text>
    <text class="cls-1" transform="translate(46.4 34.1) rotate(-37.44)"><tspan x="0" y="0">L</tspan></text>
    <text class="cls-1" transform="translate(47.55 33.22) rotate(-36.06)"><tspan x="0" y="0">o</tspan></text>
    <text class="cls-1" transform="translate(49.15 32.05) rotate(-34.76)"><tspan x="0" y="0">r</tspan></text>
    <text class="cls-1" transform="translate(50.14 31.37) rotate(-33.54)"><tspan x="0" y="0">e</tspan></text>
    <text class="cls-1" transform="translate(51.63 30.37) rotate(-31.77)"><tspan x="0" y="0">m</tspan></text>
    <text class="cls-1" transform="translate(53.85 29.01) rotate(-30.3)"><tspan x="0" y="0"> </tspan></text>
    <text class="cls-1" transform="translate(54.73 28.49) rotate(-29.5)"><tspan x="0" y="0">I</tspan></text>
    <text class="cls-1" transform="translate(55.56 28.02) rotate(-28.32)"><tspan x="0" y="0">p</tspan></text>
    <text class="cls-1" transform="translate(57.3 27.08) rotate(-26.98)"><tspan x="0" y="0">s</tspan></text>
    <text class="cls-1" transform="translate(58.48 26.48) rotate(-25.72)"><tspan x="0" y="0">u</tspan></text>
    <text class="cls-1" transform="translate(60.06 25.71) rotate(-23.97)"><tspan x="0" y="0">m</tspan></text>
    <text class="cls-1" transform="translate(62.43 24.66) rotate(-22.35)"><tspan x="0" y="0">L</tspan></text>
    <text class="cls-1" transform="translate(63.77 24.11) rotate(-20.97)"><tspan x="0" y="0">o</tspan></text>
    <text class="cls-1" transform="translate(65.63 23.41) rotate(-19.68)"><tspan x="0" y="0">r</tspan></text>
    <text class="cls-1" transform="translate(66.76 23) rotate(-18.48)"><tspan x="0" y="0">e</tspan></text>
    <text class="cls-1" transform="translate(68.47 22.42) rotate(-16.74)"><tspan x="0" y="0">m</tspan></text>
    <text class="cls-1" transform="translate(70.96 21.68) rotate(-15.36)"><tspan x="0" y="0"> </tspan><tspan x="1" y="0">I</tspan></text>
    <text class="cls-1" transform="translate(72.86 21.17) rotate(-13.38)"><tspan x="0" y="0">p</tspan></text>
    <text class="cls-1" transform="translate(74.78 20.71) rotate(-12.07)"><tspan x="0" y="0">s</tspan></text>
    <text class="cls-1" transform="translate(76.06 20.44) rotate(-10.85)"><tspan x="0" y="0">u</tspan></text>
    <text class="cls-1" transform="translate(77.81 20.1) rotate(-9.1)"><tspan x="0" y="0">m</tspan></text>
    <text class="cls-1" transform="translate(80.38 19.69) rotate(-7.48)"><tspan x="0" y="0">L</tspan></text>
    <text class="cls-1" transform="translate(81.82 19.5) rotate(-6.1)"><tspan x="0" y="0">o</tspan></text>
    <text class="cls-1" transform="translate(83.77 19.3) rotate(-4.82)"><tspan x="0" y="0">r</tspan></text>
    <text class="cls-1" transform="translate(84.98 19.19) rotate(-3.6)"><tspan x="0" y="0">e</tspan></text>
    <text class="cls-1" transform="translate(86.77 19.07) rotate(-1.83)"><tspan x="0" y="0">m</tspan></text>
    <text class="cls-1" transform="translate(89.36 19) rotate(-.38)"><tspan x="0" y="0"> </tspan></text>
    <text class="cls-1" transform="translate(90.37 18.99) rotate(.43)"><tspan x="0" y="0">I</tspan></text>
    <text class="cls-1" transform="translate(91.33 18.99) rotate(1.61)"><tspan x="0" y="0">p</tspan></text>
    <text class="cls-1" transform="translate(93.29 19.05) rotate(2.94)"><tspan x="0" y="0">s</tspan></text>
    <text class="cls-1" transform="translate(94.62 19.12) rotate(4.2)"><tspan x="0" y="0">u</tspan></text>
    <text class="cls-1" transform="translate(96.39 19.24) rotate(5.97)"><tspan x="0" y="0">m</tspan></text>
    <text class="cls-1" transform="translate(98.99 19.52) rotate(7.62)"><tspan x="0" y="0">L</tspan></text>
    <text class="cls-1" transform="translate(100.4 19.71) rotate(8.98)"><tspan x="0" y="0">o</tspan></text>
    <text class="cls-1" transform="translate(102.34 20.02) rotate(10.27)"><tspan x="0" y="0">r</tspan></text>
    <text class="cls-1" transform="translate(103.54 20.23) rotate(11.5)"><tspan x="0" y="0">e</tspan></text>
    <text class="cls-1" transform="translate(105.3 20.58) rotate(13.26)"><tspan x="0" y="0">m</tspan></text>
    <text class="cls-1" transform="translate(107.83 21.19) rotate(14.71)"><tspan x="0" y="0"> </tspan></text>
    <text class="cls-1" transform="translate(108.82 21.45) rotate(15.52)"><tspan x="0" y="0">I</tspan></text>
    <text class="cls-1" transform="translate(109.73 21.7) rotate(16.68)"><tspan x="0" y="0">p</tspan></text>
    <text class="cls-1" transform="translate(111.61 22.26) rotate(18)"><tspan x="0" y="0">s</tspan></text>
    <text class="cls-1" transform="translate(112.89 22.68) rotate(19.27)"><tspan x="0" y="0">u</tspan></text>
    <text class="cls-1" transform="translate(114.56 23.25) rotate(21.01)"><tspan x="0" y="0">m</tspan></text>
    <text class="cls-1" transform="translate(116.97 24.19) rotate(22.62)"><tspan x="0" y="0">L</tspan></text>
    <text class="cls-1" transform="translate(118.31 24.74) rotate(23.99)"><tspan x="0" y="0">o</tspan></text>
    <text class="cls-1" transform="translate(120.12 25.55) rotate(25.28)"><tspan x="0" y="0">r</tspan></text>
    <text class="cls-1" transform="translate(121.2 26.06) rotate(26.47)"><tspan x="0" y="0">e</tspan></text>
    <text class="cls-1" transform="translate(122.82 26.85) rotate(28.22)"><tspan x="0" y="0">m</tspan></text>
    <text class="cls-1" transform="translate(125.11 28.1) rotate(29.68)"><tspan x="0" y="0"> </tspan></text>
    <text class="cls-1" transform="translate(125.99 28.6) rotate(30.47)"><tspan x="0" y="0">I</tspan></text>
    <text class="cls-1" transform="translate(126.83 29.09) rotate(31.64)"><tspan x="0" y="0">p</tspan></text>
    <text class="cls-1" transform="translate(128.48 30.11) rotate(32.94)"><tspan x="0" y="0">s</tspan></text>
    <text class="cls-1" transform="translate(129.59 30.83) rotate(34.18)"><tspan x="0" y="0">u</tspan></text>
    <text class="cls-1" transform="translate(131.08 31.83) rotate(35.94)"><tspan x="0" y="0">m</tspan></text>
    <text class="cls-1" transform="translate(133.16 33.35) rotate(37.54)"><tspan x="0" y="0">L</tspan></text>
    <text class="cls-1" transform="translate(134.31 34.23) rotate(38.91)"><tspan x="0" y="0">o</tspan></text>
    <text class="cls-1" transform="translate(135.85 35.48) rotate(40.2)"><tspan x="0" y="0">r</tspan></text>
    <text class="cls-1" transform="translate(136.77 36.25) rotate(41.4)"><tspan x="0" y="0">e</tspan></text>
    <text class="cls-1" transform="translate(138.13 37.44) rotate(43.17)"><tspan x="0" y="0">m</tspan></text>
    <text class="cls-1" transform="translate(140.02 39.22) rotate(44.62)"><tspan x="0" y="0"> </tspan></text>
    <text class="cls-1" transform="translate(140.74 39.94) rotate(45.41)"><tspan x="0" y="0">I</tspan></text>
    <text class="cls-1" transform="translate(141.41 40.61) rotate(46.58)"><tspan x="0" y="0">p</tspan></text>
    <text class="cls-1" transform="translate(142.76 42.04) rotate(47.91)"><tspan x="0" y="0">s</tspan></text>
    <text class="cls-1" transform="translate(143.66 43.03) rotate(49.17)"><tspan x="0" y="0">u</tspan></text>
    <text class="cls-1" transform="translate(144.83 44.37) rotate(50.94)"><tspan x="0" y="0">m</tspan></text>
    <text class="cls-1" transform="translate(146.45 46.38) rotate(52.56)"><tspan x="0" y="0">L</tspan></text>
    <text class="cls-1" transform="translate(147.33 47.53) rotate(53.94)"><tspan x="0" y="0">o</tspan></text>
    <text class="cls-1" transform="translate(148.49 49.13) rotate(55.24)"><tspan x="0" y="0">r</tspan></text>
    <text class="cls-1" transform="translate(149.18 50.12) rotate(56.46)"><tspan x="0" y="0">e</tspan></text>
    <text class="cls-1" transform="translate(150.18 51.61) rotate(58.23)"><tspan x="0" y="0">m</tspan></text>
    <text class="cls-1" transform="translate(151.54 53.83) rotate(59.7)"><tspan x="0" y="0"> </tspan></text>
    <text class="cls-1" transform="translate(152.05 54.7) rotate(60.5)"><tspan x="0" y="0">I</tspan></text>
    <text class="cls-1" transform="translate(152.53 55.53) rotate(61.68)"><tspan x="0" y="0">p</tspan></text>
    <text class="cls-1" transform="translate(153.46 57.28) rotate(63.02)"><tspan x="0" y="0">s</tspan></text>
    <text class="cls-1" transform="translate(154.06 58.45) rotate(64.28)"><tspan x="0" y="0">u</tspan></text>
    <text class="cls-1" transform="translate(154.84 60.04) rotate(66.03)"><tspan x="0" y="0">m</tspan></text>
    <text class="cls-1" transform="translate(155.88 62.41) rotate(67.65)"><tspan x="0" y="0">L</tspan></text>
    <text class="cls-1" transform="translate(156.43 63.75) rotate(69.03)"><tspan x="0" y="0">o</tspan></text>
    <text class="cls-1" transform="translate(157.14 65.6) rotate(70.32)"><tspan x="0" y="0">r</tspan></text>
    <text class="cls-1" transform="translate(157.55 66.74) rotate(71.52)"><tspan x="0" y="0">e</tspan></text>
    <text class="cls-1" transform="translate(158.13 68.44) rotate(73.26)"><tspan x="0" y="0">m</tspan></text>
    <text class="cls-1" transform="translate(158.87 70.93) rotate(74.64)"><tspan x="0" y="0"> </tspan><tspan x="1" y="0">I</tspan></text>
    <text class="cls-1" transform="translate(159.38 72.83) rotate(76.62)"><tspan x="0" y="0">p</tspan></text>
    <text class="cls-1" transform="translate(159.82 74.73) rotate(77.91)"><tspan x="0" y="0">s</tspan></text>
    <text class="cls-1" transform="translate(160.11 76.04) rotate(79.15)"><tspan x="0" y="0">u</tspan></text>
    <text class="cls-1" transform="translate(160.45 77.78) rotate(80.9)"><tspan x="0" y="0">m</tspan></text>
    <text class="cls-1" transform="translate(160.85 80.35) rotate(82.34)"><tspan x="0" y="0"> </tspan></text>
    <text class="cls-1" transform="translate(160.99 81.36) rotate(83.34)"><tspan x="0" y="0">L</tspan></text>
    <text class="cls-1" transform="translate(161.16 82.79) rotate(84.71)"><tspan x="0" y="0">o</tspan></text>
    <text class="cls-1" transform="translate(161.33 84.75) rotate(85.99)"><tspan x="0" y="0">r</tspan></text>
    <text class="cls-1" transform="translate(161.42 85.95) rotate(87.21)"><tspan x="0" y="0">e</tspan></text>
    <text class="cls-1" transform="translate(161.52 87.74) rotate(88.98)"><tspan x="0" y="0">m</tspan></text>
    <text class="cls-1" transform="translate(161.55 90.36) rotate(90.45)"><tspan x="0" y="0"> </tspan></text>
    <text class="cls-1" transform="translate(161.55 91.37) rotate(91.25)"><tspan x="0" y="0">I</tspan></text>
    <text class="cls-1" transform="translate(161.53 92.32) rotate(92.43)"><tspan x="0" y="0">p</tspan></text>
    <text class="cls-1" transform="translate(161.44 94.28) rotate(93.76)"><tspan x="0" y="0">s</tspan></text>
    <text class="cls-1" transform="translate(161.36 95.6) rotate(95.02)"><tspan x="0" y="0">u</tspan></text>
    <text class="cls-1" transform="translate(161.21 97.37) rotate(96.79)"><tspan x="0" y="0">m</tspan></text>
    <text class="cls-1" transform="translate(160.9 99.94) rotate(98.24)"><tspan x="0" y="0"> </tspan></text>
    <text class="cls-1" transform="translate(160.75 100.95) rotate(99.25)"><tspan x="0" y="0">L</tspan></text>
    <text class="cls-1" transform="translate(160.52 102.38) rotate(100.62)"><tspan x="0" y="0">o</tspan></text>
    <text class="cls-1" transform="translate(160.16 104.31) rotate(101.91)"><tspan x="0" y="0">r</tspan></text>
    <text class="cls-1" transform="translate(159.91 105.5) rotate(103.13)"><tspan x="0" y="0">e</tspan></text>
    <text class="cls-1" transform="translate(159.51 107.25) rotate(104.89)"><tspan x="0" y="0">m</tspan></text>
    <text class="cls-1" transform="translate(158.83 109.75) rotate(106.34)"><tspan x="0" y="0"> </tspan></text>
    <text class="cls-1" transform="translate(158.54 110.73) rotate(107.14)"><tspan x="0" y="0">I</tspan></text>
    <text class="cls-1" transform="translate(158.27 111.63) rotate(108.3)"><tspan x="0" y="0">p</tspan></text>
    <text class="cls-1" transform="translate(157.64 113.52) rotate(109.64)"><tspan x="0" y="0">s</tspan></text>
    <text class="cls-1" transform="translate(157.2 114.76) rotate(110.88)"><tspan x="0" y="0">u</tspan></text>
    <text class="cls-1" transform="translate(156.58 116.41) rotate(112.62)"><tspan x="0" y="0">m</tspan></text>
    <text class="cls-1" transform="translate(155.56 118.82) rotate(114.08)"><tspan x="0" y="0"> </tspan></text>
    <text class="cls-1" transform="translate(155.16 119.74) rotate(115.06)"><tspan x="0" y="0">L</tspan></text>
    <text class="cls-1" transform="translate(154.54 121.06) rotate(116.43)"><tspan x="0" y="0">o</tspan></text>
    <text class="cls-1" transform="translate(153.66 122.83) rotate(117.71)"><tspan x="0" y="0">r</tspan></text>
    <text class="cls-1" transform="translate(153.12 123.87) rotate(118.89)"><tspan x="0" y="0">e</tspan></text>
    <text class="cls-1" transform="translate(152.24 125.47) rotate(120.66)"><tspan x="0" y="0">m</tspan></text>
    <text class="cls-1" transform="translate(150.91 127.69) rotate(122.09)"><tspan x="0" y="0"> </tspan></text>
    <text class="cls-1" transform="translate(150.38 128.55) rotate(122.88)"><tspan x="0" y="0">I</tspan></text>
    <text class="cls-1" transform="translate(149.86 129.36) rotate(124.05)"><tspan x="0" y="0">p</tspan></text>
    <text class="cls-1" transform="translate(148.76 130.97) rotate(125.36)"><tspan x="0" y="0">s</tspan></text>
    <text class="cls-1" transform="translate(148 132.05) rotate(126.6)"><tspan x="0" y="0">u</tspan></text>
    <text class="cls-1" transform="translate(146.94 133.49) rotate(128.36)"><tspan x="0" y="0">m</tspan></text>
    <text class="cls-1" transform="translate(145.31 135.53) rotate(129.98)"><tspan x="0" y="0">L</tspan></text>
    <text class="cls-1" transform="translate(144.38 136.65) rotate(131.36)"><tspan x="0" y="0">o</tspan></text>
    <text class="cls-1" transform="translate(143.09 138.12) rotate(132.63)"><tspan x="0" y="0">r</tspan></text>
    <text class="cls-1" transform="translate(142.27 139.01) rotate(133.84)"><tspan x="0" y="0">e</tspan></text>
    <text class="cls-1" transform="translate(141.02 140.32) rotate(135.61)"><tspan x="0" y="0">m</tspan></text>
    <text class="cls-1" transform="translate(139.16 142.13) rotate(137.06)"><tspan x="0" y="0"> </tspan></text>
    <text class="cls-1" transform="translate(138.43 142.8) rotate(137.84)"><tspan x="0" y="0">I</tspan></text>
    <text class="cls-1" transform="translate(137.73 143.45) rotate(139.02)"><tspan x="0" y="0">p</tspan></text>
    <text class="cls-1" transform="translate(136.24 144.74) rotate(140.35)"><tspan x="0" y="0">s</tspan></text>
    <text class="cls-1" transform="translate(135.21 145.59) rotate(141.62)"><tspan x="0" y="0">u</tspan></text>
    <text class="cls-1" transform="translate(133.83 146.69) rotate(143.37)"><tspan x="0" y="0">m</tspan></text>
    <text class="cls-1" transform="translate(131.73 148.24) rotate(145.02)"><tspan x="0" y="0">L</tspan></text>
    <text class="cls-1" transform="translate(130.56 149.07) rotate(146.39)"><tspan x="0" y="0">o</tspan></text>
    <text class="cls-1" transform="translate(128.9 150.16) rotate(147.7)"><tspan x="0" y="0">r</tspan></text>
    <text class="cls-1" transform="translate(127.91 150.8) rotate(148.9)"><tspan x="0" y="0">e</tspan></text>
    <text class="cls-1" transform="translate(126.34 151.75) rotate(150.7)"><tspan x="0" y="0">m</tspan></text>
    <text class="cls-1" transform="translate(124.08 153.01) rotate(152.15)"><tspan x="0" y="0"> </tspan></text>
    <text class="cls-1" transform="translate(123.2 153.47) rotate(152.93)"><tspan x="0" y="0">I</tspan></text>
    <text class="cls-1" transform="translate(122.35 153.91) rotate(154.12)"><tspan x="0" y="0">p</tspan></text>
    <text class="cls-1" transform="translate(120.58 154.76) rotate(155.45)"><tspan x="0" y="0">s</tspan></text>
    <text class="cls-1" transform="translate(119.37 155.32) rotate(156.71)"><tspan x="0" y="0">u</tspan></text>
    <text class="cls-1" transform="translate(117.74 156.03) rotate(158.47)"><tspan x="0" y="0">m</tspan></text>
    <text class="cls-1" transform="translate(115.32 156.98) rotate(159.91)"><tspan x="0" y="0"> </tspan></text>
    <text class="cls-1" transform="translate(114.36 157.33) rotate(160.72)"><tspan x="0" y="0"> </tspan></text>
    <text class="cls-1" transform="translate(113.4 157.66) rotate(161.54)"><tspan x="0" y="0"> </tspan></text>
    <text class="cls-1" transform="translate(112.45 157.98) rotate(162.51)"><tspan x="0" y="0">L</tspan></text>
    <text class="cls-1" transform="translate(111.07 158.42) rotate(163.87)"><tspan x="0" y="0">o</tspan></text>
    <text class="cls-1" transform="translate(109.19 158.95) rotate(164.64)"><tspan x="0" y="0">r</tspan></text>
    <text class="cls-1" transform="translate(108.03 159.27) rotate(166.5)"><tspan x="0" y="0">e</tspan></text>
    <text class="cls-1" transform="translate(106.27 159.71) rotate(168.05)"><tspan x="0" y="0">m</tspan></text>
    <text class="cls-1" transform="translate(103.73 160.23) rotate(169.47)"><tspan x="0" y="0"> </tspan></text>
    <text class="cls-1" transform="translate(102.73 160.42) rotate(170.27)"><tspan x="0" y="0">I</tspan></text>
    <text class="cls-1" transform="translate(101.78 160.59) rotate(171.44)"><tspan x="0" y="0">p</tspan></text>
    <text class="cls-1" transform="translate(99.85 160.88) rotate(172.75)"><tspan x="0" y="0">s</tspan></text>
    <text class="cls-1" transform="translate(98.52 161.05) rotate(174.01)"><tspan x="0" y="0">u</tspan></text>
    <text class="cls-1" transform="translate(96.76 161.24) rotate(175.77)"><tspan x="0" y="0">m</tspan></text>
    <text class="cls-1" transform="translate(94.17 161.42) rotate(177.41)"><tspan x="0" y="0">L</tspan></text>
    <text class="cls-1" transform="translate(92.71 161.49) rotate(178.79)"><tspan x="0" y="0">o</tspan></text>
    <text class="cls-1" transform="translate(90.77 161.53) rotate(-179.93)"><tspan x="0" y="0">r</tspan></text>
    <text class="cls-1" transform="translate(89.55 161.53) rotate(-178.71)"><tspan x="0" y="0">e</tspan></text>
    <text class="cls-1" transform="translate(87.75 161.5) rotate(-176.93)"><tspan x="0" y="0">m</tspan></text>
    <text class="cls-1" transform="translate(85.15 161.35) rotate(-175.46)"><tspan x="0" y="0"> </tspan></text>
    <text class="cls-1" transform="translate(84.15 161.27) rotate(-174.67)"><tspan x="0" y="0">I</tspan></text>
    <text class="cls-1" transform="translate(83.19 161.18) rotate(-173.48)"><tspan x="0" y="0">p</tspan></text>
    <text class="cls-1" transform="translate(81.25 160.96) rotate(-172.16)"><tspan x="0" y="0">s</tspan></text>
    <text class="cls-1" transform="translate(79.92 160.78) rotate(-170.89)"><tspan x="0" y="0">u</tspan></text>
    <text class="cls-1" transform="translate(78.18 160.51) rotate(-169.14)"><tspan x="0" y="0">m</tspan></text>
    <text class="cls-1" transform="translate(75.62 160) rotate(-167.67)"><tspan x="0" y="0"> </tspan></text>
    <text class="cls-1" transform="translate(74.65 159.79) rotate(-166.87)"><tspan x="0" y="0"> </tspan></text>
    <text class="cls-1" transform="translate(73.65 159.56) rotate(-166.04)"><tspan x="0" y="0"> </tspan></text>
    <text class="cls-1" transform="translate(72.67 159.32) rotate(-165.05)"><tspan x="0" y="0">L</tspan></text>
    <text class="cls-1" transform="translate(71.28 158.95) rotate(-163.68)"><tspan x="0" y="0">o</tspan></text>
    <text class="cls-1" transform="translate(69.39 158.4) rotate(-161.85)"><tspan x="0" y="0">m</tspan></text>
    <text class="cls-1" transform="translate(66.93 157.58) rotate(-160.41)"><tspan x="0" y="0"> </tspan></text>
    <text class="cls-1" transform="translate(65.99 157.25) rotate(-159.27)"><tspan x="0" y="0">E</tspan></text>
    <text class="cls-1" transform="translate(64.26 156.6) rotate(-157.81)"><tspan x="0" y="0">n</tspan></text>
    <text class="cls-1" transform="translate(62.58 155.91) rotate(-156.28)"><tspan x="0" y="0">d</tspan></text>
  </g>
</svg>