<?xml version="1.0" encoding="UTF-8"?>
<svg id="Layer_2" data-name="Layer 2" xmlns="http://www.w3.org/2000/svg" viewBox="0 0 155.97 155.94">
  <defs>
    <style>
      .cls-1 {
        fill: #231f20;
        font-family: Futura-Medium, Futura;
        font-size: 3.4px;
        font-weight: 500;
      }
    </style>
  </defs>
  <g id="Layer_16" data-name="Layer 16">
    <text class="cls-1" transform="translate(77.97 2.99) rotate(.93)"><tspan x="0" y="0">I</tspan></text>
    <text class="cls-1" transform="translate(78.96 2.99) rotate(1.43)"><tspan x="0" y="0">n</tspan></text>
    <text class="cls-1" transform="translate(80.81 3.04) rotate(2.52)"><tspan x="0" y="0"> </tspan></text>
    <text class="cls-1" transform="translate(81.87 3.09) rotate(3.72)"><tspan x="0" y="0">X</tspan></text>
    <text class="cls-1" transform="translate(84.04 3.23) rotate(4.85)"><tspan x="0" y="0">-</tspan></text>
    <text class="cls-1" transform="translate(84.78 3.29) rotate(5.91)"><tspan x="0" y="0">R</tspan></text>
    <text class="cls-1" transform="translate(86.73 3.49) rotate(7.4)"><tspan x="0" y="0">a</tspan></text>
    <text class="cls-1" transform="translate(88.78 3.76) rotate(8.91)"><tspan x="0" y="0">y</tspan></text>
    <text class="cls-1" transform="translate(90.6 4.05) rotate(10.01)"><tspan x="0" y="0"> </tspan></text>
    <text class="cls-1" transform="translate(91.61 4.23) rotate(11.03)"><tspan x="0" y="0">c</tspan></text>
    <text class="cls-1" transform="translate(93.19 4.53) rotate(12.12)"><tspan x="0" y="0">r</tspan></text>
    <text class="cls-1" transform="translate(94.56 4.83) rotate(13.42)"><tspan x="0" y="0">y</tspan></text>
    <text class="cls-1" transform="translate(96.34 5.25) rotate(14.65)"><tspan x="0" y="0">s</tspan></text>
    <text class="cls-1" transform="translate(97.68 5.6) rotate(15.54)"><tspan x="0" y="0">t</tspan></text>
    <text class="cls-1" transform="translate(98.59 5.85) rotate(16.7)"><tspan x="0" y="0">a</tspan></text>
    <text class="cls-1" transform="translate(100.54 6.44) rotate(17.81)"><tspan x="0" y="0">l</tspan></text>
    <text class="cls-1" transform="translate(101.34 6.7) rotate(18.92)"><tspan x="0" y="0">o</tspan></text>
    <text class="cls-1" transform="translate(103.25 7.35) rotate(20.46)"><tspan x="0" y="0">g</tspan></text>
    <text class="cls-1" transform="translate(105.13 8.06) rotate(21.72)"><tspan x="0" y="0">r</tspan></text>
    <text class="cls-1" transform="translate(106.29 8.51) rotate(22.97)"><tspan x="0" y="0">a</tspan></text>
    <text class="cls-1" transform="translate(108.15 9.3) rotate(24.53)"><tspan x="0" y="0">p</tspan></text>
    <text class="cls-1" transform="translate(109.99 10.14) rotate(26.01)"><tspan x="0" y="0">h</tspan></text>
    <text class="cls-1" transform="translate(111.61 10.93) rotate(27.38)"><tspan x="0" y="0">y</tspan></text>
    <text class="cls-1" transform="translate(113.12 11.71) rotate(28.38)"><tspan x="0" y="0">,</tspan></text>
    <text class="cls-1" transform="translate(114.02 12.2) rotate(29.16)"><tspan x="0" y="0"> </tspan></text>
    <text class="cls-1" transform="translate(114.93 12.71) rotate(30.18)"><tspan x="0" y="0">c</tspan></text>
    <text class="cls-1" transform="translate(116.33 13.52) rotate(31.28)"><tspan x="0" y="0">r</tspan></text>
    <text class="cls-1" transform="translate(117.53 14.25) rotate(32.58)"><tspan x="0" y="0">y</tspan></text>
    <text class="cls-1" transform="translate(119.06 15.23) rotate(33.78)"><tspan x="0" y="0">s</tspan></text>
    <text class="cls-1" transform="translate(120.21 16) rotate(34.66)"><tspan x="0" y="0">t</tspan></text>
    <text class="cls-1" transform="translate(120.99 16.53) rotate(35.8)"><tspan x="0" y="0">a</tspan></text>
    <text class="cls-1" transform="translate(122.63 17.72) rotate(36.9)"><tspan x="0" y="0">l</tspan></text>
    <text class="cls-1" transform="translate(123.3 18.22) rotate(37.73)"><tspan x="0" y="0">s</tspan></text>
    <text class="cls-1" transform="translate(124.39 19.06) rotate(38.65)"><tspan x="0" y="0"> </tspan></text>
    <text class="cls-1" transform="translate(125.2 19.72) rotate(39.4)"><tspan x="0" y="0">t</tspan></text>
    <text class="cls-1" transform="translate(125.97 20.35) rotate(40.51)"><tspan x="0" y="0">h</tspan></text>
    <text class="cls-1" transform="translate(127.36 21.53) rotate(41.97)"><tspan x="0" y="0">a</tspan></text>
    <text class="cls-1" transform="translate(128.88 22.9) rotate(43.1)"><tspan x="0" y="0">t</tspan></text>
    <text class="cls-1" transform="translate(129.55 23.53) rotate(43.85)"><tspan x="0" y="0"> </tspan></text>
    <text class="cls-1" transform="translate(130.3 24.25) rotate(44.85)"><tspan x="0" y="0">c</tspan></text>
    <text class="cls-1" transform="translate(131.43 25.37) rotate(46.22)"><tspan x="0" y="0">a</tspan></text>
    <text class="cls-1" transform="translate(132.84 26.83) rotate(47.69)"><tspan x="0" y="0">n</tspan></text>
    <text class="cls-1" transform="translate(134.09 28.22) rotate(48.82)"><tspan x="0" y="0">’</tspan></text>
    <text class="cls-1" transform="translate(134.81 29.05) rotate(49.59)"><tspan x="0" y="0">t</tspan></text>
    <text class="cls-1" transform="translate(135.42 29.75) rotate(50.34)"><tspan x="0" y="0"> </tspan></text>
    <text class="cls-1" transform="translate(136.07 30.54) rotate(51.49)"><tspan x="0" y="0">b</tspan></text>
    <text class="cls-1" transform="translate(137.35 32.14) rotate(52.99)"><tspan x="0" y="0">e</tspan></text>
    <text class="cls-1" transform="translate(138.46 33.62) rotate(54.09)"><tspan x="0" y="0"> </tspan></text>
    <text class="cls-1" transform="translate(139.07 34.45) rotate(55.25)"><tspan x="0" y="0">a</tspan></text>
    <text class="cls-1" transform="translate(140.23 36.13) rotate(56.73)"><tspan x="0" y="0">n</tspan></text>
    <text class="cls-1" transform="translate(141.25 37.68) rotate(58.22)"><tspan x="0" y="0">a</tspan></text>
    <text class="cls-1" transform="translate(142.33 39.42) rotate(59.71)"><tspan x="0" y="0">y</tspan></text>
    <text class="cls-1" transform="translate(143.26 41.03) rotate(60.75)"><tspan x="0" y="0">l</tspan></text>
    <text class="cls-1" transform="translate(143.67 41.75) rotate(61.77)"><tspan x="0" y="0">z</tspan></text>
    <text class="cls-1" transform="translate(144.54 43.36) rotate(63.18)"><tspan x="0" y="0">e</tspan></text>
    <text class="cls-1" transform="translate(145.39 45.04) rotate(64.69)"><tspan x="0" y="0">d</tspan></text>
    <text class="cls-1" transform="translate(146.25 46.88) rotate(65.87)"><tspan x="0" y="0"> </tspan></text>
    <text class="cls-1" transform="translate(146.67 47.81) rotate(67.03)"><tspan x="0" y="0">d</tspan></text>
    <text class="cls-1" transform="translate(147.46 49.67) rotate(68.13)"><tspan x="0" y="0">i</tspan></text>
    <text class="cls-1" transform="translate(147.77 50.46) rotate(68.94)"><tspan x="0" y="0">r</tspan></text>
    <text class="cls-1" transform="translate(148.22 51.62) rotate(70.13)"><tspan x="0" y="0">e</tspan></text>
    <text class="cls-1" transform="translate(148.85 53.36) rotate(71.46)"><tspan x="0" y="0">c</tspan></text>
    <text class="cls-1" transform="translate(149.36 54.89) rotate(72.43)"><tspan x="0" y="0">t</tspan></text>
    <text class="cls-1" transform="translate(149.64 55.78) rotate(73.12)"><tspan x="0" y="0">l</tspan></text>
    <text class="cls-1" transform="translate(149.89 56.6) rotate(74.17)"><tspan x="0" y="0">y</tspan></text>
    <text class="cls-1" transform="translate(150.4 58.38) rotate(75.28)"><tspan x="0" y="0"> </tspan></text>
    <text class="cls-1" transform="translate(150.66 59.39) rotate(76.47)"><tspan x="0" y="0">a</tspan></text>
    <text class="cls-1" transform="translate(151.13 61.34) rotate(77.72)"><tspan x="0" y="0">r</tspan></text>
    <text class="cls-1" transform="translate(151.4 62.56) rotate(78.91)"><tspan x="0" y="0">e</tspan></text>
    <text class="cls-1" transform="translate(151.75 64.37) rotate(80.01)"><tspan x="0" y="0"> </tspan></text>
    <text class="cls-1" transform="translate(151.94 65.42) rotate(80.91)"><tspan x="0" y="0">r</tspan></text>
    <text class="cls-1" transform="translate(152.13 66.61) rotate(82.12)"><tspan x="0" y="0">o</tspan></text>
    <text class="cls-1" transform="translate(152.41 68.66) rotate(83.27)"><tspan x="0" y="0">t</tspan></text>
    <text class="cls-1" transform="translate(152.53 69.61) rotate(84.43)"><tspan x="0" y="0">a</tspan></text>
    <text class="cls-1" transform="translate(152.72 71.61) rotate(85.54)"><tspan x="0" y="0">t</tspan></text>
    <text class="cls-1" transform="translate(152.8 72.57) rotate(86.62)"><tspan x="0" y="0">e</tspan></text>
    <text class="cls-1" transform="translate(152.91 74.44) rotate(88.09)"><tspan x="0" y="0">d</tspan></text>
    <text class="cls-1" transform="translate(152.97 76.44) rotate(89.07)"><tspan x="0" y="0"> </tspan></text>
    <text class="cls-1" transform="translate(153 77.49) rotate(90.93)"><tspan x="0" y="0">a</tspan></text>
    <text class="cls-1" transform="translate(152.97 79.51) rotate(91.84)"><tspan x="0" y="0">n</tspan></text>
    <text class="cls-1" transform="translate(152.92 81.34) rotate(93.29)"><tspan x="0" y="0">d</tspan></text>
    <text class="cls-1" transform="translate(152.8 83.39) rotate(94.46)"><tspan x="0" y="0"> </tspan></text>
    <text class="cls-1" transform="translate(152.72 84.41) rotate(95.37)"><tspan x="0" y="0">s</tspan></text>
    <text class="cls-1" transform="translate(152.59 85.77) rotate(96.59)"><tspan x="0" y="0">n</tspan></text>
    <text class="cls-1" transform="translate(152.38 87.62) rotate(98.08)"><tspan x="0" y="0">a</tspan></text>
    <text class="cls-1" transform="translate(152.09 89.63) rotate(99.63)"><tspan x="0" y="0">p</tspan></text>
    <text class="cls-1" transform="translate(151.75 91.63) rotate(100.94)"><tspan x="0" y="0">s</tspan></text>
    <text class="cls-1" transform="translate(151.5 92.97) rotate(102.17)"><tspan x="0" y="0">h</tspan></text>
    <text class="cls-1" transform="translate(151.11 94.76) rotate(103.65)"><tspan x="0" y="0">o</tspan></text>
    <text class="cls-1" transform="translate(150.62 96.76) rotate(104.81)"><tspan x="0" y="0">t</tspan></text>
    <text class="cls-1" transform="translate(150.39 97.64) rotate(105.68)"><tspan x="0" y="0">s</tspan></text>
    <text class="cls-1" transform="translate(150.01 98.96) rotate(106.61)"><tspan x="0" y="0"> </tspan></text>
    <text class="cls-1" transform="translate(149.72 99.96) rotate(107.79)"><tspan x="0" y="0">a</tspan></text>
    <text class="cls-1" transform="translate(149.1 101.88) rotate(109.05)"><tspan x="0" y="0">r</tspan></text>
    <text class="cls-1" transform="translate(148.7 103.06) rotate(110.25)"><tspan x="0" y="0">e</tspan></text>
    <text class="cls-1" transform="translate(148.05 104.82) rotate(111.37)"><tspan x="0" y="0"> </tspan></text>
    <text class="cls-1" transform="translate(147.67 105.78) rotate(112.12)"><tspan x="0" y="0">t</tspan></text>
    <text class="cls-1" transform="translate(147.31 106.67) rotate(113.28)"><tspan x="0" y="0">a</tspan></text>
    <text class="cls-1" transform="translate(146.51 108.53) rotate(114.7)"><tspan x="0" y="0">k</tspan></text>
    <text class="cls-1" transform="translate(145.84 109.99) rotate(116.01)"><tspan x="0" y="0">e</tspan></text>
    <text class="cls-1" transform="translate(145.03 111.66) rotate(117.43)"><tspan x="0" y="0">n</tspan></text>
    <text class="cls-1" transform="translate(144.17 113.31) rotate(118.54)"><tspan x="0" y="0"> </tspan></text>
    <text class="cls-1" transform="translate(143.67 114.24) rotate(119.73)"><tspan x="0" y="0">o</tspan></text>
    <text class="cls-1" transform="translate(142.66 115.99) rotate(120.88)"><tspan x="0" y="0">f</tspan></text>
    <text class="cls-1" transform="translate(142.15 116.84) rotate(121.65)"><tspan x="0" y="0"> </tspan></text>
    <text class="cls-1" transform="translate(141.6 117.74) rotate(122.41)"><tspan x="0" y="0">t</tspan></text>
    <text class="cls-1" transform="translate(141.08 118.56) rotate(123.51)"><tspan x="0" y="0">h</tspan></text>
    <text class="cls-1" transform="translate(140.06 120.11) rotate(124.93)"><tspan x="0" y="0">e</tspan></text>
    <text class="cls-1" transform="translate(138.98 121.64) rotate(125.96)"><tspan x="0" y="0">i</tspan></text>
    <text class="cls-1" transform="translate(138.5 122.31) rotate(126.75)"><tspan x="0" y="0">r</tspan></text>
    <text class="cls-1" transform="translate(137.74 123.32) rotate(127.63)"><tspan x="0" y="0"> </tspan></text>
    <text class="cls-1" transform="translate(137.1 124.15) rotate(128.55)"><tspan x="0" y="0">s</tspan></text>
    <text class="cls-1" transform="translate(136.26 125.22) rotate(129.77)"><tspan x="0" y="0">h</tspan></text>
    <text class="cls-1" transform="translate(135.07 126.65) rotate(131.24)"><tspan x="0" y="0">a</tspan></text>
    <text class="cls-1" transform="translate(133.74 128.17) rotate(132.78)"><tspan x="0" y="0">d</tspan></text>
    <text class="cls-1" transform="translate(132.36 129.65) rotate(134.32)"><tspan x="0" y="0">o</tspan></text>
    <text class="cls-1" transform="translate(131 131.06) rotate(136.03)"><tspan x="0" y="0">w</tspan></text>
    <text class="cls-1" transform="translate(129.23 132.75) rotate(137.29)"><tspan x="0" y="0">.</tspan></text>
    <text class="cls-1" transform="translate(128.47 133.46) rotate(138.08)"><tspan x="0" y="0"> </tspan></text>
    <text class="cls-1" transform="translate(127.7 134.15) rotate(139.12)"><tspan x="0" y="0">F</tspan></text>
    <text class="cls-1" transform="translate(126.42 135.26) rotate(140.23)"><tspan x="0" y="0">r</tspan></text>
    <text class="cls-1" transform="translate(125.49 136.04) rotate(141.45)"><tspan x="0" y="0">o</tspan></text>
    <text class="cls-1" transform="translate(123.91 137.3) rotate(143.23)"><tspan x="0" y="0">m</tspan></text>
    <text class="cls-1" transform="translate(121.76 138.9) rotate(144.65)"><tspan x="0" y="0"> </tspan></text>
    <text class="cls-1" transform="translate(120.9 139.51) rotate(145.83)"><tspan x="0" y="0">p</tspan></text>
    <text class="cls-1" transform="translate(119.24 140.64) rotate(146.91)"><tspan x="0" y="0">i</tspan></text>
    <text class="cls-1" transform="translate(118.54 141.1) rotate(147.94)"><tspan x="0" y="0">e</tspan></text>
    <text class="cls-1" transform="translate(116.94 142.1) rotate(149.28)"><tspan x="0" y="0">c</tspan></text>
    <text class="cls-1" transform="translate(115.56 142.91) rotate(150.21)"><tspan x="0" y="0">i</tspan></text>
    <text class="cls-1" transform="translate(114.85 143.33) rotate(151.23)"><tspan x="0" y="0">n</tspan></text>
    <text class="cls-1" transform="translate(113.23 144.22) rotate(152.71)"><tspan x="0" y="0">g</tspan></text>
    <text class="cls-1" transform="translate(111.43 145.14) rotate(153.88)"><tspan x="0" y="0"> </tspan></text>
    <text class="cls-1" transform="translate(110.48 145.6) rotate(154.64)"><tspan x="0" y="0">t</tspan></text>
    <text class="cls-1" transform="translate(109.65 146) rotate(155.78)"><tspan x="0" y="0">o</tspan></text>
    <text class="cls-1" transform="translate(107.8 146.84) rotate(157.34)"><tspan x="0" y="0">g</tspan></text>
    <text class="cls-1" transform="translate(105.94 147.62) rotate(158.83)"><tspan x="0" y="0">e</tspan></text>
    <text class="cls-1" transform="translate(104.15 148.3) rotate(159.93)"><tspan x="0" y="0">t</tspan></text>
    <text class="cls-1" transform="translate(103.22 148.65) rotate(161.06)"><tspan x="0" y="0">h</tspan></text>
    <text class="cls-1" transform="translate(101.48 149.24) rotate(162.48)"><tspan x="0" y="0">e</tspan></text>
    <text class="cls-1" transform="translate(99.71 149.8) rotate(163.68)"><tspan x="0" y="0">r</tspan></text>
    <text class="cls-1" transform="translate(98.49 150.15) rotate(164.57)"><tspan x="0" y="0"> </tspan></text>
    <text class="cls-1" transform="translate(97.49 150.43) rotate(165.33)"><tspan x="0" y="0">t</tspan></text>
    <text class="cls-1" transform="translate(96.53 150.69) rotate(166.44)"><tspan x="0" y="0">h</tspan></text>
    <text class="cls-1" transform="translate(94.73 151.12) rotate(167.87)"><tspan x="0" y="0">e</tspan></text>
    <text class="cls-1" transform="translate(92.9 151.51) rotate(169)"><tspan x="0" y="0"> </tspan></text>
    <text class="cls-1" transform="translate(91.89 151.71) rotate(170.16)"><tspan x="0" y="0">a</tspan></text>
    <text class="cls-1" transform="translate(89.89 152.06) rotate(171.72)"><tspan x="0" y="0">b</tspan></text>
    <text class="cls-1" transform="translate(87.9 152.34) rotate(173)"><tspan x="0" y="0">s</tspan></text>
    <text class="cls-1" transform="translate(86.53 152.51) rotate(173.88)"><tspan x="0" y="0">t</tspan></text>
    <text class="cls-1" transform="translate(85.6 152.61) rotate(174.72)"><tspan x="0" y="0">r</tspan></text>
    <text class="cls-1" transform="translate(84.38 152.73) rotate(175.94)"><tspan x="0" y="0">a</tspan></text>
    <text class="cls-1" transform="translate(82.35 152.87) rotate(177.33)"><tspan x="0" y="0">c</tspan></text>
    <text class="cls-1" transform="translate(80.74 152.94) rotate(178.28)"><tspan x="0" y="0">t</tspan></text>
    <text class="cls-1" transform="translate(79.8 152.97) rotate(179.07)"><tspan x="0" y="0">e</tspan></text>
    <text class="cls-1" transform="translate(77.94 153) rotate(-179.07)"><tspan x="0" y="0">d</tspan></text>
    <text class="cls-1" transform="translate(75.91 152.96) rotate(-178.05)"><tspan x="0" y="0"> </tspan></text>
    <text class="cls-1" transform="translate(74.87 152.93) rotate(-176.89)"><tspan x="0" y="0">o</tspan></text>
    <text class="cls-1" transform="translate(72.84 152.82) rotate(-175.42)"><tspan x="0" y="0">u</tspan></text>
    <text class="cls-1" transform="translate(71.01 152.67) rotate(-174.38)"><tspan x="0" y="0">t</tspan></text>
    <text class="cls-1" transform="translate(70.09 152.58) rotate(-173.7)"><tspan x="0" y="0">l</tspan></text>
    <text class="cls-1" transform="translate(69.26 152.49) rotate(-173.07)"><tspan x="0" y="0">i</tspan></text>
    <text class="cls-1" transform="translate(68.42 152.39) rotate(-172.03)"><tspan x="0" y="0">n</tspan></text>
    <text class="cls-1" transform="translate(66.59 152.14) rotate(-170.61)"><tspan x="0" y="0">e</tspan></text>
    <text class="cls-1" transform="translate(64.75 151.83) rotate(-169.38)"><tspan x="0" y="0">s</tspan></text>
    <text class="cls-1" transform="translate(63.41 151.58) rotate(-168.46)"><tspan x="0" y="0">,</tspan></text>
    <text class="cls-1" transform="translate(62.38 151.37) rotate(-167.65)"><tspan x="0" y="0"> </tspan></text>
    <text class="cls-1" transform="translate(61.37 151.15) rotate(-166.53)"><tspan x="0" y="0">e</tspan></text>
    <text class="cls-1" transform="translate(59.62 150.73) rotate(-165.21)"><tspan x="0" y="0">v</tspan></text>
    <text class="cls-1" transform="translate(58.02 150.31) rotate(-163.88)"><tspan x="0" y="0">e</tspan></text>
    <text class="cls-1" transform="translate(56.24 149.8) rotate(-162.46)"><tspan x="0" y="0">n</tspan></text>
    <text class="cls-1" transform="translate(54.48 149.23) rotate(-161.39)"><tspan x="0" y="0">t</tspan></text>
    <text class="cls-1" transform="translate(53.61 148.95) rotate(-160.33)"><tspan x="0" y="0">u</tspan></text>
    <text class="cls-1" transform="translate(51.86 148.32) rotate(-158.83)"><tspan x="0" y="0">a</tspan></text>
    <text class="cls-1" transform="translate(49.97 147.59) rotate(-157.73)"><tspan x="0" y="0">l</tspan></text>
    <text class="cls-1" transform="translate(49.21 147.27) rotate(-157.09)"><tspan x="0" y="0">l</tspan></text>
    <text class="cls-1" transform="translate(48.41 146.94) rotate(-156.04)"><tspan x="0" y="0">y</tspan></text>
    <text class="cls-1" transform="translate(46.74 146.19) rotate(-154.95)"><tspan x="0" y="0"> </tspan></text>
    <text class="cls-1" transform="translate(45.8 145.76) rotate(-153.77)"><tspan x="0" y="0">o</tspan></text>
    <text class="cls-1" transform="translate(43.96 144.85) rotate(-152.27)"><tspan x="0" y="0">n</tspan></text>
    <text class="cls-1" transform="translate(42.34 144) rotate(-150.86)"><tspan x="0" y="0">e</tspan></text>
    <text class="cls-1" transform="translate(40.71 143.09) rotate(-149.75)"><tspan x="0" y="0"> </tspan></text>
    <text class="cls-1" transform="translate(39.81 142.57) rotate(-148.74)"><tspan x="0" y="0">c</tspan></text>
    <text class="cls-1" transform="translate(38.42 141.73) rotate(-147.34)"><tspan x="0" y="0">a</tspan></text>
    <text class="cls-1" transform="translate(36.73 140.64) rotate(-145.87)"><tspan x="0" y="0">n</tspan></text>
    <text class="cls-1" transform="translate(35.2 139.6) rotate(-144.78)"><tspan x="0" y="0"> </tspan></text>
    <text class="cls-1" transform="translate(34.34 139) rotate(-143.66)"><tspan x="0" y="0">e</tspan></text>
    <text class="cls-1" transform="translate(32.9 137.94) rotate(-142.29)"><tspan x="0" y="0">x</tspan></text>
    <text class="cls-1" transform="translate(31.4 136.78) rotate(-141.22)"><tspan x="0" y="0">t</tspan></text>
    <text class="cls-1" transform="translate(30.68 136.2) rotate(-140.38)"><tspan x="0" y="0">r</tspan></text>
    <text class="cls-1" transform="translate(29.74 135.42) rotate(-139.16)"><tspan x="0" y="0">a</tspan></text>
    <text class="cls-1" transform="translate(28.2 134.1) rotate(-137.63)"><tspan x="0" y="0">p</tspan></text>
    <text class="cls-1" transform="translate(26.71 132.74) rotate(-136.09)"><tspan x="0" y="0">o</tspan></text>
    <text class="cls-1" transform="translate(25.25 131.32) rotate(-135)"><tspan x="0" y="0">l</tspan></text>
    <text class="cls-1" transform="translate(24.65 130.73) rotate(-133.91)"><tspan x="0" y="0">a</tspan></text>
    <text class="cls-1" transform="translate(23.24 129.26) rotate(-132.78)"><tspan x="0" y="0">t</tspan></text>
    <text class="cls-1" transform="translate(22.6 128.58) rotate(-131.71)"><tspan x="0" y="0">e</tspan></text>
    <text class="cls-1" transform="translate(21.36 127.17) rotate(-130.6)"><tspan x="0" y="0"> </tspan></text>
    <text class="cls-1" transform="translate(20.68 126.38) rotate(-129.85)"><tspan x="0" y="0">t</tspan></text>
    <text class="cls-1" transform="translate(20.05 125.64) rotate(-128.76)"><tspan x="0" y="0">h</tspan></text>
    <text class="cls-1" transform="translate(18.9 124.2) rotate(-127.35)"><tspan x="0" y="0">e</tspan></text>
    <text class="cls-1" transform="translate(17.76 122.7) rotate(-126.23)"><tspan x="0" y="0"> </tspan></text>
    <text class="cls-1" transform="translate(17.14 121.85) rotate(-125.48)"><tspan x="0" y="0">t</tspan></text>
    <text class="cls-1" transform="translate(16.57 121.07) rotate(-124.39)"><tspan x="0" y="0">h</tspan></text>
    <text class="cls-1" transform="translate(15.52 119.54) rotate(-122.97)"><tspan x="0" y="0">e</tspan></text>
    <text class="cls-1" transform="translate(14.5 117.95) rotate(-121.85)"><tspan x="0" y="0"> </tspan></text>
    <text class="cls-1" transform="translate(13.96 117.09) rotate(-120.94)"><tspan x="0" y="0">s</tspan></text>
    <text class="cls-1" transform="translate(13.26 115.91) rotate(-119.71)"><tspan x="0" y="0">h</tspan></text>
    <text class="cls-1" transform="translate(12.33 114.29) rotate(-118.21)"><tspan x="0" y="0">a</tspan></text>
    <text class="cls-1" transform="translate(11.38 112.51) rotate(-116.67)"><tspan x="0" y="0">p</tspan></text>
    <text class="cls-1" transform="translate(10.47 110.72) rotate(-115.18)"><tspan x="0" y="0">e</tspan></text>
    <text class="cls-1" transform="translate(9.68 109.02) rotate(-114.07)"><tspan x="0" y="0"> </tspan></text>
    <text class="cls-1" transform="translate(9.25 108.07) rotate(-112.89)"><tspan x="0" y="0">o</tspan></text>
    <text class="cls-1" transform="translate(8.47 106.2) rotate(-111.72)"><tspan x="0" y="0">f</tspan></text>
    <text class="cls-1" transform="translate(8.09 105.26) rotate(-110.93)"><tspan x="0" y="0"> </tspan></text>
    <text class="cls-1" transform="translate(7.72 104.3) rotate(-110.18)"><tspan x="0" y="0">t</tspan></text>
    <text class="cls-1" transform="translate(7.38 103.36) rotate(-109.05)"><tspan x="0" y="0">h</tspan></text>
    <text class="cls-1" transform="translate(6.78 101.63) rotate(-107.63)"><tspan x="0" y="0">e</tspan></text>
    <text class="cls-1" transform="translate(6.22 99.86) rotate(-106.52)"><tspan x="0" y="0"> </tspan></text>
    <text class="cls-1" transform="translate(5.92 98.85) rotate(-105.59)"><tspan x="0" y="0">s</tspan></text>
    <text class="cls-1" transform="translate(5.54 97.52) rotate(-104.34)"><tspan x="0" y="0">u</tspan></text>
    <text class="cls-1" transform="translate(5.09 95.75) rotate(-102.87)"><tspan x="0" y="0">b</tspan></text>
    <text class="cls-1" transform="translate(4.64 93.78) rotate(-101.57)"><tspan x="0" y="0">s</tspan></text>
    <text class="cls-1" transform="translate(4.37 92.45) rotate(-100.69)"><tspan x="0" y="0">t</tspan></text>
    <text class="cls-1" transform="translate(4.19 91.49) rotate(-99.52)"><tspan x="0" y="0">a</tspan></text>
    <text class="cls-1" transform="translate(3.86 89.52) rotate(-98.06)"><tspan x="0" y="0">n</tspan></text>
    <text class="cls-1" transform="translate(3.6 87.67) rotate(-96.73)"><tspan x="0" y="0">c</tspan></text>
    <text class="cls-1" transform="translate(3.41 86.09) rotate(-95.42)"><tspan x="0" y="0">e</tspan></text>
    <text class="cls-1" transform="translate(3.24 84.23) rotate(-94.31)"><tspan x="0" y="0"> </tspan></text>
    <text class="cls-1" transform="translate(3.16 83.17) rotate(-93.58)"><tspan x="0" y="0">i</tspan></text>
    <text class="cls-1" transform="translate(3.11 82.35) rotate(-92.93)"><tspan x="0" y="0">t</tspan></text>
    <text class="cls-1" transform="translate(3.06 81.43) rotate(-92.06)"><tspan x="0" y="0">s</tspan></text>
    <text class="cls-1" transform="translate(3.01 80.05) rotate(-90.93)"><tspan x="0" y="0">e</tspan></text>
    <text class="cls-1" transform="translate(2.98 78.2) rotate(-89.07)"><tspan x="0" y="0">l</tspan><tspan x=".86" y="0">f</tspan></text>
    <text class="cls-1" transform="translate(3 76.34) rotate(-88.37)"><tspan x="0" y="0">.</tspan></text>
  </g>
</svg>