<?xml version="1.0" encoding="UTF-8"?>
<svg id="Layer_2" data-name="Layer 2" xmlns="http://www.w3.org/2000/svg" viewBox="0 0 209.72 209.72">
  <defs>
    <style>
      .cls-1 {
        fill: #231f20;
        font-family: Futura-Medium, Futura;
        font-size: 4.1px;
        font-weight: 500;
      }
    </style>
  </defs>
  <g id="Layer_23" data-name="Layer 23">
    <text class="cls-1" transform="translate(104.85 3.6) rotate(.93)"><tspan x="0" y="0">L</tspan></text>
    <text class="cls-1" transform="translate(106.65 3.62) rotate(1.68)"><tspan x="0" y="0">a</tspan></text>
    <text class="cls-1" transform="translate(109.14 3.69) rotate(3)"><tspan x="0" y="0">y</tspan></text>
    <text class="cls-1" transform="translate(111.27 3.8) rotate(4.22)"><tspan x="0" y="0">e</tspan></text>
    <text class="cls-1" transform="translate(113.53 3.97) rotate(5.28)"><tspan x="0" y="0">r</tspan></text>
    <text class="cls-1" transform="translate(115.06 4.12) rotate(6.07)"><tspan x="0" y="0"> </tspan></text>
    <text class="cls-1" transform="translate(116.3 4.24) rotate(7.13)"><tspan x="0" y="0">2</tspan></text>
    <text class="cls-1" transform="translate(118.79 4.55) rotate(8.55)"><tspan x="0" y="0">3</tspan></text>
    <text class="cls-1" transform="translate(121.26 4.93) rotate(9.61)"><tspan x="0" y="0"> </tspan></text>
    <text class="cls-1" transform="translate(122.5 5.14) rotate(10.31)"><tspan x="0" y="0">I</tspan></text>
    <text class="cls-1" transform="translate(123.67 5.35) rotate(11.34)"><tspan x="0" y="0">p</tspan></text>
    <text class="cls-1" transform="translate(126.07 5.83) rotate(12.51)"><tspan x="0" y="0">s</tspan></text>
    <text class="cls-1" transform="translate(127.69 6.19) rotate(13.61)"><tspan x="0" y="0">u</tspan></text>
    <text class="cls-1" transform="translate(129.84 6.7) rotate(15.16)"><tspan x="0" y="0">m</tspan></text>
    <text class="cls-1" transform="translate(132.94 7.55) rotate(16.43)"><tspan x="0" y="0"> </tspan></text>
    <text class="cls-1" transform="translate(134.13 7.9) rotate(17.3)"><tspan x="0" y="0">L</tspan></text>
    <text class="cls-1" transform="translate(135.87 8.44) rotate(18.52)"><tspan x="0" y="0">o</tspan></text>
    <text class="cls-1" transform="translate(138.18 9.22) rotate(19.65)"><tspan x="0" y="0">r</tspan></text>
    <text class="cls-1" transform="translate(139.59 9.72) rotate(20.71)"><tspan x="0" y="0">e</tspan></text>
    <text class="cls-1" transform="translate(141.7 10.51) rotate(22.27)"><tspan x="0" y="0">m</tspan></text>
    <text class="cls-1" transform="translate(144.68 11.74) rotate(23.54)"><tspan x="0" y="0"> </tspan></text>
    <text class="cls-1" transform="translate(145.83 12.24) rotate(24.24)"><tspan x="0" y="0">I</tspan></text>
    <text class="cls-1" transform="translate(146.91 12.72) rotate(25.27)"><tspan x="0" y="0">p</tspan></text>
    <text class="cls-1" transform="translate(149.13 13.77) rotate(26.44)"><tspan x="0" y="0">s</tspan></text>
    <text class="cls-1" transform="translate(150.61 14.5) rotate(27.53)"><tspan x="0" y="0">u</tspan></text>
    <text class="cls-1" transform="translate(152.57 15.52) rotate(29.08)"><tspan x="0" y="0">m</tspan></text>
    <text class="cls-1" transform="translate(155.39 17.1) rotate(30.34)"><tspan x="0" y="0"> </tspan></text>
    <text class="cls-1" transform="translate(156.47 17.73) rotate(31.21)"><tspan x="0" y="0">L</tspan></text>
    <text class="cls-1" transform="translate(158 18.65) rotate(32.41)"><tspan x="0" y="0">o</tspan></text>
    <text class="cls-1" transform="translate(160.07 19.97) rotate(33.53)"><tspan x="0" y="0">r</tspan></text>
    <text class="cls-1" transform="translate(161.32 20.8) rotate(34.58)"><tspan x="0" y="0">e</tspan></text>
    <text class="cls-1" transform="translate(163.18 22.07) rotate(36.13)"><tspan x="0" y="0">m</tspan></text>
    <text class="cls-1" transform="translate(165.78 23.98) rotate(37.39)"><tspan x="0" y="0"> </tspan></text>
    <text class="cls-1" transform="translate(166.77 24.74) rotate(38.08)"><tspan x="0" y="0">I</tspan></text>
    <text class="cls-1" transform="translate(167.72 25.47) rotate(39.1)"><tspan x="0" y="0">p</tspan></text>
    <text class="cls-1" transform="translate(169.62 27.02) rotate(40.26)"><tspan x="0" y="0">s</tspan></text>
    <text class="cls-1" transform="translate(170.86 28.07) rotate(41.34)"><tspan x="0" y="0">u</tspan></text>
    <text class="cls-1" transform="translate(172.53 29.53) rotate(42.87)"><tspan x="0" y="0">m</tspan></text>
    <text class="cls-1" transform="translate(174.89 31.73) rotate(44.13)"><tspan x="0" y="0"> </tspan></text>
    <text class="cls-1" transform="translate(175.78 32.6) rotate(44.98)"><tspan x="0" y="0">L</tspan></text>
    <text class="cls-1" transform="translate(177.06 33.87) rotate(46.17)"><tspan x="0" y="0">o</tspan></text>
    <text class="cls-1" transform="translate(178.77 35.66) rotate(47.31)"><tspan x="0" y="0">r</tspan></text>
    <text class="cls-1" transform="translate(179.77 36.74) rotate(48.34)"><tspan x="0" y="0">e</tspan></text>
    <text class="cls-1" transform="translate(181.27 38.41) rotate(49.88)"><tspan x="0" y="0">m</tspan></text>
    <text class="cls-1" transform="translate(183.35 40.89) rotate(51.14)"><tspan x="0" y="0"> </tspan></text>
    <text class="cls-1" transform="translate(184.14 41.87) rotate(51.84)"><tspan x="0" y="0">I</tspan></text>
    <text class="cls-1" transform="translate(184.87 42.8) rotate(52.86)"><tspan x="0" y="0">p</tspan></text>
    <text class="cls-1" transform="translate(186.34 44.74) rotate(54)"><tspan x="0" y="0">s</tspan></text>
    <text class="cls-1" transform="translate(187.31 46.08) rotate(55.1)"><tspan x="0" y="0">u</tspan></text>
    <text class="cls-1" transform="translate(188.59 47.89) rotate(56.64)"><tspan x="0" y="0">m</tspan></text>
    <text class="cls-1" transform="translate(190.35 50.59) rotate(57.9)"><tspan x="0" y="0"> </tspan></text>
    <text class="cls-1" transform="translate(191.02 51.65) rotate(58.76)"><tspan x="0" y="0">L</tspan></text>
    <text class="cls-1" transform="translate(191.96 53.2) rotate(59.97)"><tspan x="0" y="0">o</tspan></text>
    <text class="cls-1" transform="translate(193.18 55.32) rotate(61.1)"><tspan x="0" y="0">r</tspan></text>
    <text class="cls-1" transform="translate(193.9 56.61) rotate(62.14)"><tspan x="0" y="0">e</tspan></text>
    <text class="cls-1" transform="translate(194.97 58.61) rotate(63.71)"><tspan x="0" y="0">m</tspan></text>
    <text class="cls-1" transform="translate(196.38 61.5) rotate(64.97)"><tspan x="0" y="0"> </tspan></text>
    <text class="cls-1" transform="translate(196.91 62.64) rotate(65.67)"><tspan x="0" y="0">I</tspan></text>
    <text class="cls-1" transform="translate(197.41 63.72) rotate(66.7)"><tspan x="0" y="0">p</tspan></text>
    <text class="cls-1" transform="translate(198.37 65.96) rotate(67.86)"><tspan x="0" y="0">s</tspan></text>
    <text class="cls-1" transform="translate(198.99 67.48) rotate(68.96)"><tspan x="0" y="0">u</tspan></text>
    <text class="cls-1" transform="translate(199.8 69.56) rotate(70.52)"><tspan x="0" y="0">m</tspan></text>
    <text class="cls-1" transform="translate(200.86 72.59) rotate(71.95)"><tspan x="0" y="0">L</tspan></text>
    <text class="cls-1" transform="translate(201.43 74.32) rotate(73.17)"><tspan x="0" y="0">o</tspan></text>
    <text class="cls-1" transform="translate(202.13 76.67) rotate(74.3)"><tspan x="0" y="0">r</tspan></text>
    <text class="cls-1" transform="translate(202.53 78.08) rotate(75.35)"><tspan x="0" y="0">e</tspan></text>
    <text class="cls-1" transform="translate(203.11 80.26) rotate(76.91)"><tspan x="0" y="0">m</tspan></text>
    <text class="cls-1" transform="translate(203.83 83.41) rotate(78.19)"><tspan x="0" y="0"> </tspan></text>
    <text class="cls-1" transform="translate(204.09 84.64) rotate(78.88)"><tspan x="0" y="0">I</tspan></text>
    <text class="cls-1" transform="translate(204.32 85.8) rotate(79.92)"><tspan x="0" y="0">p</tspan></text>
    <text class="cls-1" transform="translate(204.75 88.21) rotate(81.08)"><tspan x="0" y="0">s</tspan></text>
    <text class="cls-1" transform="translate(205.01 89.83) rotate(82.17)"><tspan x="0" y="0">u</tspan></text>
    <text class="cls-1" transform="translate(205.31 92.02) rotate(83.7)"><tspan x="0" y="0">m</tspan></text>
    <text class="cls-1" transform="translate(205.66 95.24) rotate(85.13)"><tspan x="0" y="0">L</tspan></text>
    <text class="cls-1" transform="translate(205.82 97.03) rotate(86.32)"><tspan x="0" y="0">o</tspan></text>
    <text class="cls-1" transform="translate(205.97 99.47) rotate(87.43)"><tspan x="0" y="0">r</tspan></text>
    <text class="cls-1" transform="translate(206.04 100.95) rotate(88.46)"><tspan x="0" y="0">e</tspan></text>
    <text class="cls-1" transform="translate(206.08 103.2) rotate(89.07)"><tspan x="0" y="0">m</tspan></text>
    <text class="cls-1" transform="translate(206.1 106.43) rotate(91.22)"><tspan x="0" y="0"> </tspan></text>
    <text class="cls-1" transform="translate(206.07 107.68) rotate(91.9)"><tspan x="0" y="0">I</tspan></text>
    <text class="cls-1" transform="translate(206.04 108.88) rotate(92.92)"><tspan x="0" y="0">p</tspan></text>
    <text class="cls-1" transform="translate(205.91 111.32) rotate(94.07)"><tspan x="0" y="0">s</tspan></text>
    <text class="cls-1" transform="translate(205.79 112.96) rotate(95.15)"><tspan x="0" y="0">u</tspan></text>
    <text class="cls-1" transform="translate(205.6 115.18) rotate(96.69)"><tspan x="0" y="0">m</tspan></text>
    <text class="cls-1" transform="translate(205.22 118.36) rotate(98.1)"><tspan x="0" y="0">L</tspan></text>
    <text class="cls-1" transform="translate(204.97 120.16) rotate(99.32)"><tspan x="0" y="0">o</tspan></text>
    <text class="cls-1" transform="translate(204.57 122.58) rotate(100.44)"><tspan x="0" y="0">r</tspan></text>
    <text class="cls-1" transform="translate(204.3 124.04) rotate(101.5)"><tspan x="0" y="0">e</tspan></text>
    <text class="cls-1" transform="translate(203.86 126.24) rotate(103.05)"><tspan x="0" y="0">m</tspan></text>
    <text class="cls-1" transform="translate(203.12 129.38) rotate(104.33)"><tspan x="0" y="0"> </tspan></text>
    <text class="cls-1" transform="translate(202.81 130.6) rotate(105.03)"><tspan x="0" y="0">I</tspan></text>
    <text class="cls-1" transform="translate(202.51 131.74) rotate(106.05)"><tspan x="0" y="0">p</tspan></text>
    <text class="cls-1" transform="translate(201.82 134.1) rotate(107.23)"><tspan x="0" y="0">s</tspan></text>
    <text class="cls-1" transform="translate(201.34 135.68) rotate(108.34)"><tspan x="0" y="0">u</tspan></text>
    <text class="cls-1" transform="translate(200.65 137.79) rotate(109.89)"><tspan x="0" y="0">m</tspan></text>
    <text class="cls-1" transform="translate(199.55 140.8) rotate(111.31)"><tspan x="0" y="0">L</tspan></text>
    <text class="cls-1" transform="translate(198.89 142.49) rotate(112.53)"><tspan x="0" y="0">o</tspan></text>
    <text class="cls-1" transform="translate(197.96 144.74) rotate(113.65)"><tspan x="0" y="0">r</tspan></text>
    <text class="cls-1" transform="translate(197.36 146.11) rotate(114.71)"><tspan x="0" y="0">e</tspan></text>
    <text class="cls-1" transform="translate(196.42 148.17) rotate(116.27)"><tspan x="0" y="0">m</tspan></text>
    <text class="cls-1" transform="translate(194.99 151.04) rotate(117.53)"><tspan x="0" y="0"> </tspan></text>
    <text class="cls-1" transform="translate(194.41 152.15) rotate(118.23)"><tspan x="0" y="0">I</tspan></text>
    <text class="cls-1" transform="translate(193.84 153.22) rotate(119.27)"><tspan x="0" y="0">p</tspan></text>
    <text class="cls-1" transform="translate(192.65 155.33) rotate(120.42)"><tspan x="0" y="0">s</tspan></text>
    <text class="cls-1" transform="translate(191.81 156.77) rotate(121.52)"><tspan x="0" y="0">u</tspan></text>
    <text class="cls-1" transform="translate(190.67 158.65) rotate(123.05)"><tspan x="0" y="0">m</tspan></text>
    <text class="cls-1" transform="translate(188.9 161.35) rotate(124.47)"><tspan x="0" y="0">L</tspan></text>
    <text class="cls-1" transform="translate(187.88 162.84) rotate(125.68)"><tspan x="0" y="0">o</tspan></text>
    <text class="cls-1" transform="translate(186.45 164.83) rotate(126.79)"><tspan x="0" y="0">r</tspan></text>
    <text class="cls-1" transform="translate(185.56 166.03) rotate(127.84)"><tspan x="0" y="0">e</tspan></text>
    <text class="cls-1" transform="translate(184.18 167.81) rotate(129.38)"><tspan x="0" y="0">m</tspan></text>
    <text class="cls-1" transform="translate(182.14 170.28) rotate(130.63)"><tspan x="0" y="0"> </tspan></text>
    <text class="cls-1" transform="translate(181.32 171.24) rotate(131.33)"><tspan x="0" y="0">I</tspan></text>
    <text class="cls-1" transform="translate(180.53 172.14) rotate(132.35)"><tspan x="0" y="0">p</tspan></text>
    <text class="cls-1" transform="translate(178.88 173.95) rotate(133.51)"><tspan x="0" y="0">s</tspan></text>
    <text class="cls-1" transform="translate(177.74 175.15) rotate(134.59)"><tspan x="0" y="0">u</tspan></text>
    <text class="cls-1" transform="translate(176.21 176.71) rotate(136.11)"><tspan x="0" y="0">m</tspan></text>
    <text class="cls-1" transform="translate(173.89 178.94) rotate(137.52)"><tspan x="0" y="0">L</tspan></text>
    <text class="cls-1" transform="translate(172.56 180.16) rotate(138.72)"><tspan x="0" y="0">o</tspan></text>
    <text class="cls-1" transform="translate(170.71 181.78) rotate(139.84)"><tspan x="0" y="0">r</tspan></text>
    <text class="cls-1" transform="translate(169.57 182.75) rotate(140.88)"><tspan x="0" y="0">e</tspan></text>
    <text class="cls-1" transform="translate(167.84 184.16) rotate(142.42)"><tspan x="0" y="0">m</tspan></text>
    <text class="cls-1" transform="translate(165.27 186.12) rotate(143.68)"><tspan x="0" y="0"> </tspan></text>
    <text class="cls-1" transform="translate(164.26 186.87) rotate(144.38)"><tspan x="0" y="0">I</tspan></text>
    <text class="cls-1" transform="translate(163.3 187.56) rotate(145.4)"><tspan x="0" y="0">p</tspan></text>
    <text class="cls-1" transform="translate(161.27 188.95) rotate(146.56)"><tspan x="0" y="0">s</tspan></text>
    <text class="cls-1" transform="translate(159.89 189.87) rotate(147.66)"><tspan x="0" y="0">u</tspan></text>
    <text class="cls-1" transform="translate(158.03 191.05) rotate(149.19)"><tspan x="0" y="0">m</tspan></text>
    <text class="cls-1" transform="translate(155.27 192.69) rotate(150.61)"><tspan x="0" y="0">L</tspan></text>
    <text class="cls-1" transform="translate(153.7 193.58) rotate(151.81)"><tspan x="0" y="0">o</tspan></text>
    <text class="cls-1" transform="translate(151.53 194.74) rotate(152.94)"><tspan x="0" y="0">r</tspan></text>
    <text class="cls-1" transform="translate(150.22 195.41) rotate(153.99)"><tspan x="0" y="0">e</tspan></text>
    <text class="cls-1" transform="translate(148.19 196.41) rotate(155.55)"><tspan x="0" y="0">m</tspan></text>
    <text class="cls-1" transform="translate(145.24 197.74) rotate(156.83)"><tspan x="0" y="0"> </tspan></text>
    <text class="cls-1" transform="translate(144.1 198.23) rotate(157.52)"><tspan x="0" y="0">I</tspan></text>
    <text class="cls-1" transform="translate(142.98 198.69) rotate(158.57)"><tspan x="0" y="0">p</tspan></text>
    <text class="cls-1" transform="translate(140.72 199.58) rotate(159.72)"><tspan x="0" y="0">s</tspan></text>
    <text class="cls-1" transform="translate(139.18 200.15) rotate(160.83)"><tspan x="0" y="0">u</tspan></text>
    <text class="cls-1" transform="translate(137.09 200.89) rotate(162.38)"><tspan x="0" y="0">m</tspan></text>
    <text class="cls-1" transform="translate(134.01 201.85) rotate(163.66)"><tspan x="0" y="0"> </tspan></text>
    <text class="cls-1" transform="translate(132.81 202.21) rotate(164.52)"><tspan x="0" y="0">L</tspan></text>
    <text class="cls-1" transform="translate(131.07 202.69) rotate(165.74)"><tspan x="0" y="0">o</tspan></text>
    <text class="cls-1" transform="translate(128.7 203.29) rotate(166.87)"><tspan x="0" y="0">r</tspan></text>
    <text class="cls-1" transform="translate(127.26 203.63) rotate(167.92)"><tspan x="0" y="0">e</tspan></text>
    <text class="cls-1" transform="translate(125.06 204.11) rotate(169.48)"><tspan x="0" y="0">m</tspan></text>
    <text class="cls-1" transform="translate(121.88 204.69) rotate(170.75)"><tspan x="0" y="0"> </tspan></text>
    <text class="cls-1" transform="translate(120.64 204.89) rotate(171.45)"><tspan x="0" y="0">I</tspan></text>
    <text class="cls-1" transform="translate(119.45 205.07) rotate(172.49)"><tspan x="0" y="0">p</tspan></text>
    <text class="cls-1" transform="translate(117.03 205.39) rotate(173.64)"><tspan x="0" y="0">s</tspan></text>
    <text class="cls-1" transform="translate(115.4 205.57) rotate(174.72)"><tspan x="0" y="0">u</tspan></text>
    <text class="cls-1" transform="translate(113.2 205.79) rotate(176.25)"><tspan x="0" y="0">m</tspan></text>
    <text class="cls-1" transform="translate(109.97 205.99) rotate(177.51)"><tspan x="0" y="0"> </tspan></text>
    <text class="cls-1" transform="translate(108.73 206.04) rotate(178.36)"><tspan x="0" y="0">L</tspan></text>
    <text class="cls-1" transform="translate(106.91 206.09) rotate(179.07)"><tspan x="0" y="0">o</tspan></text>
    <text class="cls-1" transform="translate(104.48 206.12) rotate(-179.07)"><tspan x="0" y="0">r</tspan></text>
    <text class="cls-1" transform="translate(102.97 206.1) rotate(-178.32)"><tspan x="0" y="0">e</tspan></text>
    <text class="cls-1" transform="translate(100.74 206.04) rotate(-176.8)"><tspan x="0" y="0">m</tspan></text>
    <text class="cls-1" transform="translate(97.52 205.85) rotate(-175.55)"><tspan x="0" y="0"> </tspan></text>
    <text class="cls-1" transform="translate(96.27 205.75) rotate(-174.86)"><tspan x="0" y="0">I</tspan></text>
    <text class="cls-1" transform="translate(95.09 205.65) rotate(-173.84)"><tspan x="0" y="0">p</tspan></text>
    <text class="cls-1" transform="translate(92.65 205.38) rotate(-172.68)"><tspan x="0" y="0">s</tspan></text>
    <text class="cls-1" transform="translate(91.01 205.18) rotate(-171.58)"><tspan x="0" y="0">u</tspan></text>
    <text class="cls-1" transform="translate(88.82 204.86) rotate(-170.04)"><tspan x="0" y="0">m</tspan></text>
    <text class="cls-1" transform="translate(85.65 204.29) rotate(-168.77)"><tspan x="0" y="0"> </tspan></text>
    <text class="cls-1" transform="translate(84.42 204.05) rotate(-167.9)"><tspan x="0" y="0">L</tspan></text>
    <text class="cls-1" transform="translate(82.65 203.68) rotate(-166.69)"><tspan x="0" y="0">o</tspan></text>
    <text class="cls-1" transform="translate(80.28 203.11) rotate(-165.56)"><tspan x="0" y="0">r</tspan></text>
    <text class="cls-1" transform="translate(78.83 202.74) rotate(-164.5)"><tspan x="0" y="0">e</tspan></text>
    <text class="cls-1" transform="translate(76.67 202.15) rotate(-162.94)"><tspan x="0" y="0">m</tspan></text>
    <text class="cls-1" transform="translate(73.57 201.19) rotate(-161.66)"><tspan x="0" y="0"> </tspan></text>
    <text class="cls-1" transform="translate(72.4 200.8) rotate(-160.97)"><tspan x="0" y="0">I</tspan></text>
    <text class="cls-1" transform="translate(71.27 200.42) rotate(-159.93)"><tspan x="0" y="0">p</tspan></text>
    <text class="cls-1" transform="translate(68.97 199.57) rotate(-158.77)"><tspan x="0" y="0">s</tspan></text>
    <text class="cls-1" transform="translate(67.44 198.98) rotate(-157.67)"><tspan x="0" y="0">u</tspan></text>
    <text class="cls-1" transform="translate(65.37 198.14) rotate(-156.11)"><tspan x="0" y="0">m</tspan></text>
    <text class="cls-1" transform="translate(62.44 196.83) rotate(-154.69)"><tspan x="0" y="0">L</tspan></text>
    <text class="cls-1" transform="translate(60.81 196.06) rotate(-153.48)"><tspan x="0" y="0">o</tspan></text>
    <text class="cls-1" transform="translate(58.63 194.97) rotate(-152.36)"><tspan x="0" y="0">r</tspan></text>
    <text class="cls-1" transform="translate(57.29 194.27) rotate(-151.29)"><tspan x="0" y="0">e</tspan></text>
    <text class="cls-1" transform="translate(55.33 193.21) rotate(-149.75)"><tspan x="0" y="0">m</tspan></text>
    <text class="cls-1" transform="translate(52.54 191.56) rotate(-148.48)"><tspan x="0" y="0"> </tspan></text>
    <text class="cls-1" transform="translate(51.47 190.91) rotate(-147.79)"><tspan x="0" y="0">I</tspan></text>
    <text class="cls-1" transform="translate(50.45 190.27) rotate(-146.75)"><tspan x="0" y="0">p</tspan></text>
    <text class="cls-1" transform="translate(48.41 188.94) rotate(-145.6)"><tspan x="0" y="0">s</tspan></text>
    <text class="cls-1" transform="translate(47.06 188.01) rotate(-144.52)"><tspan x="0" y="0">u</tspan></text>
    <text class="cls-1" transform="translate(45.24 186.72) rotate(-142.97)"><tspan x="0" y="0">m</tspan></text>
    <text class="cls-1" transform="translate(42.67 184.77) rotate(-141.56)"><tspan x="0" y="0">L</tspan></text>
    <text class="cls-1" transform="translate(41.27 183.67) rotate(-140.37)"><tspan x="0" y="0">o</tspan></text>
    <text class="cls-1" transform="translate(39.38 182.09) rotate(-139.25)"><tspan x="0" y="0">r</tspan></text>
    <text class="cls-1" transform="translate(38.24 181.12) rotate(-138.2)"><tspan x="0" y="0">e</tspan></text>
    <text class="cls-1" transform="translate(36.56 179.63) rotate(-136.67)"><tspan x="0" y="0">m</tspan></text>
    <text class="cls-1" transform="translate(34.22 177.41) rotate(-135.41)"><tspan x="0" y="0"> </tspan></text>
    <text class="cls-1" transform="translate(33.34 176.53) rotate(-134.72)"><tspan x="0" y="0">I</tspan></text>
    <text class="cls-1" transform="translate(32.49 175.69) rotate(-133.7)"><tspan x="0" y="0">p</tspan></text>
    <text class="cls-1" transform="translate(30.81 173.92) rotate(-132.55)"><tspan x="0" y="0">s</tspan></text>
    <text class="cls-1" transform="translate(29.69 172.7) rotate(-131.46)"><tspan x="0" y="0">u</tspan></text>
    <text class="cls-1" transform="translate(28.23 171.06) rotate(-129.94)"><tspan x="0" y="0">m</tspan></text>
    <text class="cls-1" transform="translate(26.16 168.58) rotate(-128.68)"><tspan x="0" y="0"> </tspan></text>
    <text class="cls-1" transform="translate(25.38 167.6) rotate(-127.97)"><tspan x="0" y="0"> </tspan></text>
    <text class="cls-1" transform="translate(24.61 166.61) rotate(-127.26)"><tspan x="0" y="0"> </tspan></text>
    <text class="cls-1" transform="translate(23.84 165.61) rotate(-126.39)"><tspan x="0" y="0">L</tspan></text>
    <text class="cls-1" transform="translate(22.78 164.17) rotate(-125.2)"><tspan x="0" y="0">o</tspan></text>
    <text class="cls-1" transform="translate(21.37 162.17) rotate(-124.08)"><tspan x="0" y="0">r</tspan></text>
    <text class="cls-1" transform="translate(20.53 160.93) rotate(-123.03)"><tspan x="0" y="0">e</tspan></text>
    <text class="cls-1" transform="translate(19.29 159.04) rotate(-121.48)"><tspan x="0" y="0">m</tspan></text>
    <text class="cls-1" transform="translate(17.63 156.3) rotate(-120.22)"><tspan x="0" y="0"> </tspan></text>
    <text class="cls-1" transform="translate(16.99 155.2) rotate(-119.52)"><tspan x="0" y="0">I</tspan></text>
    <text class="cls-1" transform="translate(16.4 154.17) rotate(-118.49)"><tspan x="0" y="0">p</tspan></text>
    <text class="cls-1" transform="translate(15.23 152.02) rotate(-117.33)"><tspan x="0" y="0">s</tspan></text>
    <text class="cls-1" transform="translate(14.47 150.55) rotate(-116.23)"><tspan x="0" y="0">u</tspan></text>
    <text class="cls-1" transform="translate(13.48 148.56) rotate(-114.68)"><tspan x="0" y="0">m</tspan></text>
    <text class="cls-1" transform="translate(12.15 145.63) rotate(-113.41)"><tspan x="0" y="0"> </tspan></text>
    <text class="cls-1" transform="translate(11.65 144.47) rotate(-112.71)"><tspan x="0" y="0">I</tspan></text>
    <text class="cls-1" transform="translate(11.18 143.38) rotate(-111.67)"><tspan x="0" y="0">p</tspan></text>
    <text class="cls-1" transform="translate(10.28 141.11) rotate(-110.51)"><tspan x="0" y="0">s</tspan></text>
    <text class="cls-1" transform="translate(9.7 139.56) rotate(-109.4)"><tspan x="0" y="0">u</tspan></text>
    <text class="cls-1" transform="translate(8.96 137.48) rotate(-107.85)"><tspan x="0" y="0">m</tspan></text>
    <text class="cls-1" transform="translate(7.99 134.42) rotate(-106.59)"><tspan x="0" y="0"> </tspan></text>
    <text class="cls-1" transform="translate(7.63 133.21) rotate(-105.71)"><tspan x="0" y="0">L</tspan></text>
    <text class="cls-1" transform="translate(7.13 131.47) rotate(-104.5)"><tspan x="0" y="0">o</tspan></text>
    <text class="cls-1" transform="translate(6.53 129.12) rotate(-103.38)"><tspan x="0" y="0">r</tspan></text>
    <text class="cls-1" transform="translate(6.18 127.65) rotate(-102.3)"><tspan x="0" y="0">e</tspan></text>
    <text class="cls-1" transform="translate(5.69 125.47) rotate(-100.76)"><tspan x="0" y="0">m</tspan></text>
    <text class="cls-1" transform="translate(5.1 122.3) rotate(-99.49)"><tspan x="0" y="0"> </tspan></text>
    <text class="cls-1" transform="translate(4.89 121.06) rotate(-98.62)"><tspan x="0" y="0">L</tspan></text>
    <text class="cls-1" transform="translate(4.62 119.27) rotate(-97.41)"><tspan x="0" y="0">o</tspan></text>
    <text class="cls-1" transform="translate(4.31 116.85) rotate(-96.3)"><tspan x="0" y="0">r</tspan></text>
    <text class="cls-1" transform="translate(4.14 115.36) rotate(-95.25)"><tspan x="0" y="0">e</tspan></text>
    <text class="cls-1" transform="translate(3.93 113.14) rotate(-93.72)"><tspan x="0" y="0">m</tspan></text>
    <text class="cls-1" transform="translate(3.73 109.91) rotate(-92.46)"><tspan x="0" y="0"> </tspan></text>
    <text class="cls-1" transform="translate(3.67 108.65) rotate(-91.77)"><tspan x="0" y="0">I</tspan></text>
    <text class="cls-1" transform="translate(3.64 107.46) rotate(-90.93)"><tspan x="0" y="0">p</tspan></text>
    <text class="cls-1" transform="translate(3.6 105.04) rotate(-89.07)"><tspan x="0" y="0">s</tspan></text>
    <text class="cls-1" transform="translate(3.61 103.36) rotate(-88.55)"><tspan x="0" y="0">u</tspan></text>
    <text class="cls-1" transform="translate(3.67 101.15) rotate(-87.59)"><tspan x="0" y="0"> </tspan></text>
    <text class="cls-1" transform="translate(3.72 99.91) rotate(-86.74)"><tspan x="0" y="0">L</tspan></text>
    <text class="cls-1" transform="translate(3.8 98.23) rotate(-85.28)"><tspan x="0" y="0">O</tspan></text>
    <text class="cls-1" transform="translate(4.11 94.6) rotate(-83.56)"><tspan x="0" y="0">o</tspan></text>
    <text class="cls-1" transform="translate(4.39 92.17) rotate(-82.44)"><tspan x="0" y="0">r</tspan></text>
    <text class="cls-1" transform="translate(4.59 90.68) rotate(-81.38)"><tspan x="0" y="0">e</tspan></text>
    <text class="cls-1" transform="translate(4.93 88.46) rotate(-80.39)"><tspan x="0" y="0"> </tspan></text>
    <text class="cls-1" transform="translate(5.13 87.23) rotate(-79.52)"><tspan x="0" y="0">L</tspan></text>
    <text class="cls-1" transform="translate(5.45 85.47) rotate(-78.32)"><tspan x="0" y="0">o</tspan></text>
    <text class="cls-1" transform="translate(5.96 83.05) rotate(-77.18)"><tspan x="0" y="0">r</tspan></text>
    <text class="cls-1" transform="translate(6.28 81.61) rotate(-76.13)"><tspan x="0" y="0">e</tspan></text>
    <text class="cls-1" transform="translate(6.83 79.41) rotate(-75.13)"><tspan x="0" y="0"> </tspan></text>
    <text class="cls-1" transform="translate(7.15 78.2) rotate(-74.26)"><tspan x="0" y="0">L</tspan></text>
    <text class="cls-1" transform="translate(7.63 76.47) rotate(-73.05)"><tspan x="0" y="0">o</tspan></text>
    <text class="cls-1" transform="translate(8.35 74.13) rotate(-71.91)"><tspan x="0" y="0">r</tspan></text>
    <text class="cls-1" transform="translate(8.81 72.72) rotate(-70.86)"><tspan x="0" y="0">e</tspan></text>
    <text class="cls-1" transform="translate(9.56 70.57) rotate(-69.85)"><tspan x="0" y="0"> </tspan></text>
    <text class="cls-1" transform="translate(9.98 69.41) rotate(-68.99)"><tspan x="0" y="0">L</tspan></text>
    <text class="cls-1" transform="translate(10.62 67.73) rotate(-67.78)"><tspan x="0" y="0">o</tspan></text>
    <text class="cls-1" transform="translate(11.56 65.45) rotate(-66.64)"><tspan x="0" y="0">r</tspan></text>
    <text class="cls-1" transform="translate(12.14 64.08) rotate(-65.58)"><tspan x="0" y="0">e</tspan></text>
    <text class="cls-1" transform="translate(13.08 62.04) rotate(-64.59)"><tspan x="0" y="0"> </tspan></text>
    <text class="cls-1" transform="translate(13.62 60.9) rotate(-63.58)"><tspan x="0" y="0">E</tspan></text>
    <text class="cls-1" transform="translate(14.64 58.84) rotate(-62.29)"><tspan x="0" y="0">n</tspan></text>
    <text class="cls-1" transform="translate(15.67 56.87) rotate(-60.97)"><tspan x="0" y="0">d</tspan></text>
    <text class="cls-1" transform="translate(16.86 54.75) rotate(-59.93)"><tspan x="0" y="0"> </tspan></text>
    <text class="cls-1" transform="translate(17.49 53.65) rotate(-59.21)"><tspan x="0" y="0"> </tspan></text>
    <text class="cls-1" transform="translate(18.13 52.57) rotate(-58.5)"><tspan x="0" y="0"> </tspan></text>
    <text class="cls-1" transform="translate(18.79 51.5) rotate(-57.79)"><tspan x="0" y="0"> </tspan></text>
    <text class="cls-1" transform="translate(19.46 50.43) rotate(-57.08)"><tspan x="0" y="0"> </tspan></text>
    <text class="cls-1" transform="translate(20.15 49.38) rotate(-56.37)"><tspan x="0" y="0"> </tspan></text>
    <text class="cls-1" transform="translate(20.84 48.33) rotate(-55.66)"><tspan x="0" y="0"> </tspan></text>
    <text class="cls-1" transform="translate(21.55 47.29) rotate(-54.95)"><tspan x="0" y="0"> </tspan></text>
  </g>
</svg>