<?xml version="1.0" encoding="UTF-8"?>
<svg id="Layer_2" data-name="Layer 2" xmlns="http://www.w3.org/2000/svg" viewBox="0 0 163.91 163.92">
  <defs>
    <style>
      .cls-1 {
        font-family: Futura-CondensedExtraBold, Futura;
        font-weight: 700;
      }

      .cls-1, .cls-2 {
        fill: #231f20;
        font-size: 2.9px;
      }

      .cls-2 {
        font-family: Futura-Medium, Futura;
        font-weight: 500;
      }
    </style>
  </defs>
  <g id="Layer_11" data-name="Layer 11">
    <text class="cls-2" transform="translate(114.53 36.13) rotate(36.35)"><tspan x="0" y="0">I</tspan></text>
    <text class="cls-2" transform="translate(115.23 36.63) rotate(37.05)"><tspan x="0" y="0">n</tspan></text>
    <text class="cls-2" transform="translate(116.48 37.57) rotate(38.28)"><tspan x="0" y="0"> </tspan></text>
    <text class="cls-2" transform="translate(117.17 38.12) rotate(39.59)"><tspan x="0" y="0">p</tspan></text>
    <text class="cls-2" transform="translate(118.5 39.22) rotate(41.02)"><tspan x="0" y="0">r</tspan></text>
    <text class="cls-2" transform="translate(119.3 39.91) rotate(42.42)"><tspan x="0" y="0">o</tspan></text>
    <text class="cls-2" transform="translate(120.57 41.08) rotate(43.73)"><tspan x="0" y="0">f</tspan></text>
    <text class="cls-2" transform="translate(121.21 41.69) rotate(45.01)"><tspan x="0" y="0">e</tspan></text>
    <text class="cls-2" transform="translate(122.34 42.82) rotate(46.43)"><tspan x="0" y="0">s</tspan></text>
    <text class="cls-2" transform="translate(123.14 43.66) rotate(47.61)"><tspan x="0" y="0">s</tspan></text>
    <text class="cls-2" transform="translate(123.93 44.52) rotate(48.58)"><tspan x="0" y="0">i</tspan></text>
    <text class="cls-2" transform="translate(124.4 45.05) rotate(49.83)"><tspan x="0" y="0">o</tspan></text>
    <text class="cls-2" transform="translate(125.51 46.37) rotate(51.52)"><tspan x="0" y="0">n</tspan></text>
    <text class="cls-2" transform="translate(126.49 47.6) rotate(53.21)"><tspan x="0" y="0">a</tspan></text>
    <text class="cls-2" transform="translate(127.53 48.99) rotate(54.47)"><tspan x="0" y="0">l</tspan></text>
    <text class="cls-2" transform="translate(127.94 49.57) rotate(55.29)"><tspan x="0" y="0"> </tspan></text>
    <text class="cls-2" transform="translate(128.45 50.3) rotate(56.63)"><tspan x="0" y="0">a</tspan></text>
    <text class="cls-2" transform="translate(129.39 51.71) rotate(58.66)"><tspan x="0" y="0">m</tspan></text>
    <text class="cls-2" transform="translate(130.57 53.67) rotate(60.65)"><tspan x="0" y="0">e</tspan></text>
    <text class="cls-2" transform="translate(131.35 55.05) rotate(62)"><tspan x="0" y="0">r</tspan></text>
    <text class="cls-2" transform="translate(131.87 56.04) rotate(62.96)"><tspan x="0" y="0">i</tspan></text>
    <text class="cls-2" transform="translate(132.2 56.67) rotate(64.02)"><tspan x="0" y="0">c</tspan></text>
    <text class="cls-2" transform="translate(132.8 57.9) rotate(65.6)"><tspan x="0" y="0">a</tspan></text>
    <text class="cls-2" transform="translate(133.5 59.46) rotate(67.27)"><tspan x="0" y="0">n</tspan></text>
    <text class="cls-2" transform="translate(134.11 60.91) rotate(68.52)"><tspan x="0" y="0"> </tspan></text>
    <text class="cls-2" transform="translate(134.44 61.74) rotate(69.85)"><tspan x="0" y="0">b</tspan></text>
    <text class="cls-2" transform="translate(135.04 63.37) rotate(71.61)"><tspan x="0" y="0">a</tspan></text>
    <text class="cls-2" transform="translate(135.58 65) rotate(73.03)"><tspan x="0" y="0">r</tspan></text>
    <text class="cls-2" transform="translate(135.89 66.02) rotate(74.44)"><tspan x="0" y="0">b</tspan></text>
    <text class="cls-2" transform="translate(136.35 67.67) rotate(76.11)"><tspan x="0" y="0">e</tspan></text>
    <text class="cls-2" transform="translate(136.73 69.2) rotate(77.77)"><tspan x="0" y="0">q</tspan></text>
    <text class="cls-2" transform="translate(137.1 70.93) rotate(79.48)"><tspan x="0" y="0">u</tspan></text>
    <text class="cls-2" transform="translate(137.39 72.45) rotate(81.06)"><tspan x="0" y="0">e</tspan></text>
    <text class="cls-2" transform="translate(137.63 74.03) rotate(82.32)"><tspan x="0" y="0"> </tspan></text>
    <text class="cls-2" transform="translate(137.75 74.9) rotate(83.45)"><tspan x="0" y="0">c</tspan></text>
    <text class="cls-2" transform="translate(137.91 76.27) rotate(85.03)"><tspan x="0" y="0">o</tspan></text>
    <text class="cls-2" transform="translate(138.07 77.97) rotate(87.04)"><tspan x="0" y="0">m</tspan></text>
    <text class="cls-2" transform="translate(138.18 80.28) rotate(89.1)"><tspan x="0" y="0">p</tspan></text>
    <text class="cls-2" transform="translate(138.2 82.01) rotate(90.8)"><tspan x="0" y="0">e</tspan></text>
    <text class="cls-2" transform="translate(138.18 83.62) rotate(92.02)"><tspan x="0" y="0">t</tspan></text>
    <text class="cls-2" transform="translate(138.15 84.45) rotate(93.27)"><tspan x="0" y="0">e</tspan></text>
    <text class="cls-2" transform="translate(138.06 86.04) rotate(94.48)"><tspan x="0" y="0">t</tspan></text>
    <text class="cls-2" transform="translate(137.99 86.83) rotate(95.26)"><tspan x="0" y="0">i</tspan></text>
    <text class="cls-2" transform="translate(137.94 87.53) rotate(96.5)"><tspan x="0" y="0">o</tspan></text>
    <text class="cls-2" transform="translate(137.74 89.25) rotate(98.19)"><tspan x="0" y="0">n</tspan></text>
    <text class="cls-2" transform="translate(137.51 90.81) rotate(99.59)"><tspan x="0" y="0">s</tspan></text>
    <text class="cls-2" transform="translate(137.32 91.96) rotate(100.63)"><tspan x="0" y="0">,</tspan></text>
    <text class="cls-2" transform="translate(137.16 92.82) rotate(101.53)"><tspan x="0" y="0"> </tspan></text>
    <text class="cls-2" transform="translate(136.98 93.69) rotate(102.69)"><tspan x="0" y="0">c</tspan></text>
    <text class="cls-2" transform="translate(136.68 95.02) rotate(104.27)"><tspan x="0" y="0">o</tspan></text>
    <text class="cls-2" transform="translate(136.26 96.7) rotate(105.97)"><tspan x="0" y="0">n</tspan></text>
    <text class="cls-2" transform="translate(135.82 98.2) rotate(107.17)"><tspan x="0" y="0">t</tspan></text>
    <text class="cls-2" transform="translate(135.58 98.99) rotate(108.43)"><tspan x="0" y="0">e</tspan></text>
    <text class="cls-2" transform="translate(135.08 100.49) rotate(109.83)"><tspan x="0" y="0">s</tspan></text>
    <text class="cls-2" transform="translate(134.68 101.59) rotate(110.84)"><tspan x="0" y="0">t</tspan></text>
    <text class="cls-2" transform="translate(134.4 102.35) rotate(112.15)"><tspan x="0" y="0">a</tspan></text>
    <text class="cls-2" transform="translate(133.75 103.93) rotate(113.84)"><tspan x="0" y="0">n</tspan></text>
    <text class="cls-2" transform="translate(133.11 105.38) rotate(115.05)"><tspan x="0" y="0">t</tspan></text>
    <text class="cls-2" transform="translate(132.78 106.08) rotate(116.04)"><tspan x="0" y="0">s</tspan></text>
    <text class="cls-2" transform="translate(132.26 107.14) rotate(117.09)"><tspan x="0" y="0"> </tspan></text>
    <text class="cls-1" transform="translate(131.87 107.92) rotate(118.36)"><tspan x="0" y="0">p</tspan></text>
    <text class="cls-1" transform="translate(131.11 109.33) rotate(119.96)"><tspan x="0" y="0">e</tspan></text>
    <text class="cls-1" transform="translate(130.33 110.69) rotate(121.54)"><tspan x="0" y="0">e</tspan></text>
    <text class="cls-1" transform="translate(129.51 112.02) rotate(122.74)"><tspan x="0" y="0">l</tspan></text>
    <text class="cls-1" transform="translate(129.05 112.72) rotate(123.61)"><tspan x="0" y="0"> </tspan></text>
    <text class="cls-1" transform="translate(128.58 113.44) rotate(124.49)"><tspan x="0" y="0">o</tspan></text>
    <text class="cls-1" transform="translate(127.68 114.74) rotate(126.35)"><tspan x="0" y="0">f</tspan></text>
    <text class="cls-1" transform="translate(127.11 115.51) rotate(127.01)"><tspan x="0" y="0"> </tspan></text>
    <text class="cls-1" transform="translate(126.59 116.21) rotate(127.94)"><tspan x="0" y="0">t</tspan></text>
    <text class="cls-1" transform="translate(125.97 117.01) rotate(129.28)"><tspan x="0" y="0">h</tspan></text>
    <text class="cls-1" transform="translate(124.95 118.25) rotate(130.88)"><tspan x="0" y="0">e</tspan></text>
    <text class="cls-1" transform="translate(123.91 119.44) rotate(132.12)"><tspan x="0" y="0"> </tspan></text>
    <text class="cls-1" transform="translate(123.34 120.08) rotate(133.21)"><tspan x="0" y="0">s</tspan></text>
    <text class="cls-1" transform="translate(122.46 121.02) rotate(134.69)"><tspan x="0" y="0">k</tspan></text>
    <text class="cls-1" transform="translate(121.34 122.14) rotate(135.91)"><tspan x="0" y="0">i</tspan></text>
    <text class="cls-1" transform="translate(120.74 122.73) rotate(137.17)"><tspan x="0" y="0">n</tspan></text>
    <text class="cls-1" transform="translate(119.57 123.81) rotate(138.42)"><tspan x="0" y="0"> </tspan></text>
    <text class="cls-1" transform="translate(118.94 124.38) rotate(139.67)"><tspan x="0" y="0">o</tspan></text>
    <text class="cls-1" transform="translate(117.74 125.39) rotate(140.96)"><tspan x="0" y="0">f</tspan></text>
    <text class="cls-1" transform="translate(116.97 126.02) rotate(141.92)"><tspan x="0" y="0"> </tspan></text>
    <text class="cls-1" transform="translate(116.29 126.55) rotate(142.88)"><tspan x="0" y="0">c</tspan></text>
    <text class="cls-1" transform="translate(115.47 127.18) rotate(144.25)"><tspan x="0" y="0">h</tspan></text>
    <text class="cls-1" transform="translate(114.15 128.12) rotate(145.51)"><tspan x="0" y="0">i</tspan></text>
    <text class="cls-1" transform="translate(113.48 128.58) rotate(146.44)"><tspan x="0" y="0">c</tspan></text>
    <text class="cls-1" transform="translate(112.61 129.16) rotate(147.82)"><tspan x="0" y="0">k</tspan></text>
    <text class="cls-1" transform="translate(111.27 130) rotate(149.42)"><tspan x="0" y="0">e</tspan></text>
    <text class="cls-1" transform="translate(109.95 130.79) rotate(151.02)"><tspan x="0" y="0">n</tspan></text>
    <text class="cls-1" transform="translate(108.54 131.56) rotate(152.28)"><tspan x="0" y="0"> </tspan></text>
    <text class="cls-1" transform="translate(107.76 131.97) rotate(153.24)"><tspan x="0" y="0">t</tspan></text>
    <text class="cls-1" transform="translate(106.86 132.43) rotate(154.58)"><tspan x="0" y="0">h</tspan></text>
    <text class="cls-1" transform="translate(105.4 133.12) rotate(155.84)"><tspan x="0" y="0">i</tspan></text>
    <text class="cls-1" transform="translate(104.67 133.45) rotate(157.05)"><tspan x="0" y="0">g</tspan></text>
    <text class="cls-1" transform="translate(103.19 134.08) rotate(158.69)"><tspan x="0" y="0">h</tspan></text>
    <text class="cls-1" transform="translate(101.72 134.65) rotate(160.28)"><tspan x="0" y="0">e</tspan></text>
    <text class="cls-1" transform="translate(100.23 135.18) rotate(161.74)"><tspan x="0" y="0">s</tspan></text>
    <text class="cls-2" transform="translate(99.03 135.58) rotate(162.81)"><tspan x="0" y="0">,</tspan></text>
    <text class="cls-2" transform="translate(98.19 135.84) rotate(163.71)"><tspan x="0" y="0"> </tspan></text>
    <text class="cls-2" transform="translate(97.33 136.09) rotate(164.76)"><tspan x="0" y="0">s</tspan></text>
    <text class="cls-2" transform="translate(96.21 136.4) rotate(166.04)"><tspan x="0" y="0">c</tspan></text>
    <text class="cls-2" transform="translate(94.88 136.73) rotate(167.28)"><tspan x="0" y="0">r</tspan></text>
    <text class="cls-2" transform="translate(93.86 136.96) rotate(168.67)"><tspan x="0" y="0">a</tspan></text>
    <text class="cls-2" transform="translate(92.16 137.3) rotate(170.42)"><tspan x="0" y="0">p</tspan></text>
    <text class="cls-2" transform="translate(90.47 137.59) rotate(172.09)"><tspan x="0" y="0">e</tspan></text>
    <text class="cls-2" transform="translate(88.89 137.8) rotate(173.35)"><tspan x="0" y="0"> </tspan></text>
    <text class="cls-2" transform="translate(88.02 137.9) rotate(174.18)"><tspan x="0" y="0">t</tspan></text>
    <text class="cls-2" transform="translate(87.18 137.99) rotate(175.44)"><tspan x="0" y="0">h</tspan></text>
    <text class="cls-2" transform="translate(85.61 138.12) rotate(177.04)"><tspan x="0" y="0">e</tspan></text>
    <text class="cls-2" transform="translate(84.01 138.21) rotate(179.02)"><tspan x="0" y="0">m</tspan></text>
    <text class="cls-2" transform="translate(81.75 138.24) rotate(-179.39)"><tspan x="0" y="0"> </tspan></text>
    <text class="cls-2" transform="translate(80.86 138.23) rotate(-178.06)"><tspan x="0" y="0">o</tspan></text>
    <text class="cls-2" transform="translate(79.15 138.17) rotate(-176.77)"><tspan x="0" y="0">f</tspan></text>
    <text class="cls-2" transform="translate(78.28 138.12) rotate(-175.86)"><tspan x="0" y="0"> </tspan></text>
    <text class="cls-2" transform="translate(77.4 138.06) rotate(-175.02)"><tspan x="0" y="0">t</tspan></text>
    <text class="cls-2" transform="translate(76.57 137.99) rotate(-173.76)"><tspan x="0" y="0">h</tspan></text>
    <text class="cls-2" transform="translate(74.99 137.82) rotate(-172.14)"><tspan x="0" y="0">e</tspan></text>
    <text class="cls-2" transform="translate(73.42 137.59) rotate(-170.87)"><tspan x="0" y="0"> </tspan></text>
    <text class="cls-2" transform="translate(72.56 137.46) rotate(-170)"><tspan x="0" y="0">f</tspan></text>
    <text class="cls-2" transform="translate(71.69 137.31) rotate(-168.65)"><tspan x="0" y="0">a</tspan></text>
    <text class="cls-2" transform="translate(69.99 136.96) rotate(-167.35)"><tspan x="0" y="0">t</tspan></text>
    <text class="cls-2" transform="translate(69.22 136.79) rotate(-166.49)"><tspan x="0" y="0">,</tspan></text>
    <text class="cls-2" transform="translate(68.37 136.58) rotate(-165.59)"><tspan x="0" y="0"> </tspan></text>
    <text class="cls-2" transform="translate(67.5 136.37) rotate(-164.25)"><tspan x="0" y="0">a</tspan></text>
    <text class="cls-2" transform="translate(65.86 135.9) rotate(-162.56)"><tspan x="0" y="0">n</tspan></text>
    <text class="cls-2" transform="translate(64.36 135.43) rotate(-160.88)"><tspan x="0" y="0">d</tspan></text>
    <text class="cls-2" transform="translate(62.73 134.87) rotate(-159.54)"><tspan x="0" y="0"> </tspan></text>
    <text class="cls-2" transform="translate(61.88 134.55) rotate(-158.52)"><tspan x="0" y="0">r</tspan></text>
    <text class="cls-2" transform="translate(60.91 134.17) rotate(-157.17)"><tspan x="0" y="0">e</tspan></text>
    <text class="cls-2" transform="translate(59.45 133.55) rotate(-156.05)"><tspan x="0" y="0">-</tspan></text>
    <text class="cls-2" transform="translate(58.87 133.3) rotate(-154.84)"><tspan x="0" y="0">a</tspan></text>
    <text class="cls-2" transform="translate(57.33 132.57) rotate(-153.58)"><tspan x="0" y="0">t</tspan></text>
    <text class="cls-2" transform="translate(56.62 132.22) rotate(-152.77)"><tspan x="0" y="0">t</tspan></text>
    <text class="cls-2" transform="translate(55.89 131.85) rotate(-151.46)"><tspan x="0" y="0">a</tspan></text>
    <text class="cls-2" transform="translate(54.39 131.03) rotate(-149.9)"><tspan x="0" y="0">c</tspan></text>
    <text class="cls-2" transform="translate(53.14 130.31) rotate(-148.34)"><tspan x="0" y="0">h</tspan></text>
    <text class="cls-2" transform="translate(51.8 129.47) rotate(-147.1)"><tspan x="0" y="0"> </tspan></text>
    <text class="cls-2" transform="translate(51.06 129) rotate(-146.3)"><tspan x="0" y="0">i</tspan></text>
    <text class="cls-2" transform="translate(50.45 128.59) rotate(-145.53)"><tspan x="0" y="0">t</tspan></text>
    <text class="cls-2" transform="translate(49.82 128.15) rotate(-145.51)"><tspan x="0" y="0"> </tspan></text>
    <text class="cls-2" transform="translate(49.09 127.64) rotate(-143.65)"><tspan x="0" y="0">t</tspan></text>
    <text class="cls-2" transform="translate(48.43 127.16) rotate(-142.58)"><tspan x="0" y="0">o</tspan></text>
    <text class="cls-2" transform="translate(47.08 126.12) rotate(-141.29)"><tspan x="0" y="0"> </tspan></text>
    <text class="cls-2" transform="translate(46.39 125.57) rotate(-140.45)"><tspan x="0" y="0">t</tspan></text>
    <text class="cls-2" transform="translate(45.73 125.03) rotate(-139.19)"><tspan x="0" y="0">h</tspan></text>
    <text class="cls-2" transform="translate(44.54 124) rotate(-137.58)"><tspan x="0" y="0">e</tspan></text>
    <text class="cls-2" transform="translate(43.38 122.94) rotate(-136.34)"><tspan x="0" y="0"> </tspan></text>
    <text class="cls-2" transform="translate(42.73 122.32) rotate(-135.44)"><tspan x="0" y="0">f</tspan></text>
    <text class="cls-2" transform="translate(42.08 121.68) rotate(-134.59)"><tspan x="0" y="0">l</tspan></text>
    <text class="cls-2" transform="translate(41.59 121.19) rotate(-133.42)"><tspan x="0" y="0">e</tspan></text>
    <text class="cls-2" transform="translate(40.5 120.03) rotate(-132.01)"><tspan x="0" y="0">s</tspan></text>
    <text class="cls-2" transform="translate(39.71 119.16) rotate(-130.6)"><tspan x="0" y="0">h</tspan></text>
    <text class="cls-2" transform="translate(38.7 117.97) rotate(-129.35)"><tspan x="0" y="0"> </tspan></text>
    <text class="cls-2" transform="translate(38.13 117.29) rotate(-128.08)"><tspan x="0" y="0">u</tspan></text>
    <text class="cls-2" transform="translate(37.17 116.05) rotate(-126.68)"><tspan x="0" y="0">s</tspan></text>
    <text class="cls-2" transform="translate(36.46 115.11) rotate(-125.71)"><tspan x="0" y="0">i</tspan></text>
    <text class="cls-2" transform="translate(36.06 114.55) rotate(-124.56)"><tspan x="0" y="0">n</tspan></text>
    <text class="cls-2" transform="translate(35.16 113.25) rotate(-122.86)"><tspan x="0" y="0">g</tspan></text>
    <text class="cls-2" transform="translate(34.23 111.8) rotate(-121.52)"><tspan x="0" y="0"> </tspan></text>
    <text class="cls-2" transform="translate(33.77 111.04) rotate(-120.67)"><tspan x="0" y="0">t</tspan></text>
    <text class="cls-2" transform="translate(33.36 110.37) rotate(-119.38)"><tspan x="0" y="0">o</tspan></text>
    <text class="cls-2" transform="translate(32.5 108.85) rotate(-117.59)"><tspan x="0" y="0">o</tspan></text>
    <text class="cls-2" transform="translate(31.71 107.31) rotate(-116.31)"><tspan x="0" y="0">t</tspan></text>
    <text class="cls-2" transform="translate(31.33 106.55) rotate(-115.03)"><tspan x="0" y="0">h</tspan></text>
    <text class="cls-2" transform="translate(30.66 105.13) rotate(-113.36)"><tspan x="0" y="0">p</tspan></text>
    <text class="cls-2" transform="translate(29.99 103.56) rotate(-112.13)"><tspan x="0" y="0">i</tspan></text>
    <text class="cls-2" transform="translate(29.71 102.88) rotate(-111.05)"><tspan x="0" y="0">c</tspan></text>
    <text class="cls-2" transform="translate(29.2 101.55) rotate(-109.57)"><tspan x="0" y="0">k</tspan></text>
    <text class="cls-2" transform="translate(28.72 100.21) rotate(-108.26)"><tspan x="0" y="0">s</tspan></text>
    <text class="cls-2" transform="translate(28.35 99.09) rotate(-107.21)"><tspan x="0" y="0">.</tspan></text>
    <text class="cls-2" transform="translate(28.09 98.24) rotate(-106.31)"><tspan x="0" y="0"> </tspan></text>
    <text class="cls-2" transform="translate(27.84 97.39) rotate(-105.15)"><tspan x="0" y="0">T</tspan></text>
    <text class="cls-2" transform="translate(27.48 96.06) rotate(-103.66)"><tspan x="0" y="0">h</tspan></text>
    <text class="cls-2" transform="translate(27.11 94.53) rotate(-102.06)"><tspan x="0" y="0">e</tspan></text>
    <text class="cls-2" transform="translate(26.79 93.03) rotate(-100.52)"><tspan x="0" y="0">y</tspan></text>
    <text class="cls-2" transform="translate(26.5 91.49) rotate(-99.28)"><tspan x="0" y="0"> </tspan></text>
    <text class="cls-2" transform="translate(26.36 90.62) rotate(-97.96)"><tspan x="0" y="0">d</tspan></text>
    <text class="cls-2" transform="translate(26.12 88.91) rotate(-96.21)"><tspan x="0" y="0">o</tspan></text>
    <text class="cls-2" transform="translate(25.93 87.18) rotate(-94.88)"><tspan x="0" y="0"> </tspan></text>
    <text class="cls-2" transform="translate(25.86 86.32) rotate(-93.86)"><tspan x="0" y="0">s</tspan></text>
    <text class="cls-2" transform="translate(25.78 85.17) rotate(-92.4)"><tspan x="0" y="0">o</tspan></text>
    <text class="cls-2" transform="translate(25.71 83.43) rotate(-91.07)"><tspan x="0" y="0"> </tspan></text>
    <text class="cls-2" transform="translate(25.69 82.54) rotate(-90.25)"><tspan x="0" y="0">i</tspan></text>
    <text class="cls-2" transform="translate(25.68 81.84) rotate(-89.09)"><tspan x="0" y="0">n</tspan></text>
    <text class="cls-2" transform="translate(25.71 80.26) rotate(-87.85)"><tspan x="0" y="0"> </tspan></text>
    <text class="cls-2" transform="translate(25.74 79.37) rotate(-86.51)"><tspan x="0" y="0">o</tspan></text>
    <text class="cls-2" transform="translate(25.85 77.65) rotate(-85.08)"><tspan x="0" y="0">r</tspan></text>
    <text class="cls-2" transform="translate(25.93 76.62) rotate(-83.7)"><tspan x="0" y="0">d</tspan></text>
    <text class="cls-2" transform="translate(26.13 74.9) rotate(-82.01)"><tspan x="0" y="0">e</tspan></text>
    <text class="cls-2" transform="translate(26.35 73.32) rotate(-80.63)"><tspan x="0" y="0">r</tspan></text>
    <text class="cls-2" transform="translate(26.53 72.26) rotate(-79.63)"><tspan x="0" y="0"> </tspan></text>
    <text class="cls-2" transform="translate(26.69 71.39) rotate(-78.78)"><tspan x="0" y="0">t</tspan></text>
    <text class="cls-2" transform="translate(26.84 70.59) rotate(-77.46)"><tspan x="0" y="0">o</tspan></text>
    <text class="cls-2" transform="translate(27.21 68.92) rotate(-76.14)"><tspan x="0" y="0"> </tspan></text>
    <text class="cls-2" transform="translate(27.42 68.06) rotate(-74.8)"><tspan x="0" y="0">g</tspan></text>
    <text class="cls-2" transform="translate(27.87 66.4) rotate(-73.1)"><tspan x="0" y="0">e</tspan></text>
    <text class="cls-2" transform="translate(28.35 64.85) rotate(-71.86)"><tspan x="0" y="0">t</tspan></text>
    <text class="cls-2" transform="translate(28.59 64.12) rotate(-71.01)"><tspan x="0" y="0"> </tspan></text>
    <text class="cls-2" transform="translate(28.87 63.28) rotate(-69.85)"><tspan x="0" y="0">c</tspan></text>
    <text class="cls-2" transform="translate(29.34 62) rotate(-68.61)"><tspan x="0" y="0">r</tspan></text>
    <text class="cls-2" transform="translate(29.76 60.94) rotate(-67.62)"><tspan x="0" y="0">i</tspan></text>
    <text class="cls-2" transform="translate(30.02 60.3) rotate(-66.68)"><tspan x="0" y="0">s</tspan></text>
    <text class="cls-2" transform="translate(30.48 59.23) rotate(-65.2)"><tspan x="0" y="0">p</tspan></text>
    <text class="cls-2" transform="translate(31.18 57.72) rotate(-63.58)"><tspan x="0" y="0">y</tspan></text>
    <text class="cls-2" transform="translate(31.89 56.31) rotate(-62.32)"><tspan x="0" y="0"> </tspan></text>
    <text class="cls-2" transform="translate(32.29 55.53) rotate(-61.28)"><tspan x="0" y="0">s</tspan></text>
    <text class="cls-2" transform="translate(32.85 54.51) rotate(-59.97)"><tspan x="0" y="0">k</tspan></text>
    <text class="cls-2" transform="translate(33.57 53.27) rotate(-58.88)"><tspan x="0" y="0">i</tspan></text>
    <text class="cls-2" transform="translate(33.93 52.66) rotate(-57.73)"><tspan x="0" y="0">n</tspan></text>
    <text class="cls-2" transform="translate(34.78 51.32) rotate(-56.48)"><tspan x="0" y="0"> </tspan></text>
    <text class="cls-2" transform="translate(35.26 50.6) rotate(-55.67)"><tspan x="0" y="0">t</tspan></text>
    <text class="cls-2" transform="translate(35.71 49.91) rotate(-53.65)"><tspan x="0" y="0">h</tspan></text>
    <text class="cls-2" transform="translate(36.65 48.61) rotate(-52.77)"><tspan x="0" y="0">a</tspan></text>
    <text class="cls-2" transform="translate(37.69 47.25) rotate(-51.52)"><tspan x="0" y="0">t</tspan></text>
    <text class="cls-2" transform="translate(38.18 46.64) rotate(-50.68)"><tspan x="0" y="0"> </tspan></text>
    <text class="cls-2" transform="translate(38.74 45.94) rotate(-49.1)"><tspan x="0" y="0">w</tspan></text>
    <text class="cls-2" transform="translate(40.2 44.27) rotate(-47.61)"><tspan x="0" y="0">i</tspan></text>
    <text class="cls-2" transform="translate(40.68 43.74) rotate(-46.88)"><tspan x="0" y="0">l</tspan></text>
    <text class="cls-2" transform="translate(41.17 43.22) rotate(-46.16)"><tspan x="0" y="0">l</tspan></text>
    <text class="cls-2" transform="translate(41.65 42.71) rotate(-45.35)"><tspan x="0" y="0"> </tspan></text>
    <text class="cls-2" transform="translate(42.27 42.08) rotate(-44.09)"><tspan x="0" y="0">n</tspan></text>
    <text class="cls-2" transform="translate(43.41 40.98) rotate(-42.39)"><tspan x="0" y="0">o</tspan></text>
    <text class="cls-2" transform="translate(44.7 39.81) rotate(-41.09)"><tspan x="0" y="0">t</tspan></text>
    <text class="cls-2" transform="translate(45.29 39.29) rotate(-40.24)"><tspan x="0" y="0"> </tspan></text>
    <text class="cls-2" transform="translate(45.96 38.72) rotate(-38.9)"><tspan x="0" y="0">p</tspan></text>
    <text class="cls-2" transform="translate(47.3 37.64) rotate(-37.21)"><tspan x="0" y="0">u</tspan></text>
    <text class="cls-2" transform="translate(48.56 36.69) rotate(-36.04)"><tspan x="0" y="0">l</tspan></text>
    <text class="cls-2" transform="translate(49.13 36.27) rotate(-35.31)"><tspan x="0" y="0">l</tspan></text>
    <text class="cls-2" transform="translate(49.71 35.86) rotate(-34.49)"><tspan x="0" y="0"> </tspan></text>
    <text class="cls-2" transform="translate(50.44 35.36) rotate(-33.15)"><tspan x="0" y="0">a</tspan></text>
    <text class="cls-2" transform="translate(51.89 34.4) rotate(-31.1)"><tspan x="0" y="0">w</tspan></text>
    <text class="cls-2" transform="translate(53.76 33.28) rotate(-29.14)"><tspan x="0" y="0">a</tspan></text>
    <text class="cls-2" transform="translate(55.28 32.43) rotate(-27.44)"><tspan x="0" y="0">y</tspan></text>
    <text class="cls-2" transform="translate(56.66 31.72) rotate(-26.2)"><tspan x="0" y="0"> </tspan></text>
    <text class="cls-2" transform="translate(57.46 31.31) rotate(-24.59)"><tspan x="0" y="0">w</tspan></text>
    <text class="cls-2" transform="translate(59.48 30.4) rotate(-22.67)"><tspan x="0" y="0">h</tspan></text>
    <text class="cls-2" transform="translate(60.94 29.79) rotate(-21.05)"><tspan x="0" y="0">e</tspan></text>
    <text class="cls-2" transform="translate(62.41 29.22) rotate(-19.46)"><tspan x="0" y="0">n</tspan></text>
    <text class="cls-2" transform="translate(63.89 28.7) rotate(-18.22)"><tspan x="0" y="0"> </tspan></text>
    <text class="cls-2" transform="translate(64.74 28.42) rotate(-17.06)"><tspan x="0" y="0">c</tspan></text>
    <text class="cls-2" transform="translate(66.04 28.02) rotate(-15.5)"><tspan x="0" y="0">o</tspan></text>
    <text class="cls-2" transform="translate(67.71 27.55) rotate(-13.74)"><tspan x="0" y="0">o</tspan></text>
    <text class="cls-2" transform="translate(69.39 27.14) rotate(-12.14)"><tspan x="0" y="0">k</tspan></text>
    <text class="cls-2" transform="translate(70.74 26.85) rotate(-10.67)"><tspan x="0" y="0">e</tspan></text>
    <text class="cls-2" transform="translate(72.31 26.56) rotate(-8.98)"><tspan x="0" y="0">d</tspan></text>
    <text class="cls-2" transform="translate(74.02 26.29) rotate(-7.66)"><tspan x="0" y="0">.</tspan></text>
  </g>
</svg>