<?xml version="1.0" encoding="UTF-8"?>
<svg id="Layer_2" data-name="Layer 2" xmlns="http://www.w3.org/2000/svg" viewBox="0 0 212.89 212.89">
  <defs>
    <style>
      .cls-1 {
        fill: #231f20;
        font-family: Futura-Medium, Futura;
        font-size: 3.5px;
        font-weight: 500;
      }
    </style>
  </defs>
  <g id="Layer_17" data-name="Layer 17">
    <text class="cls-1" transform="translate(33.37 135.82) rotate(-110.97)"><tspan x="0" y="0">A</tspan></text>
    <text class="cls-1" transform="translate(32.46 133.43) rotate(-109.38)"><tspan x="0" y="0">n</tspan></text>
    <text class="cls-1" transform="translate(31.83 131.63) rotate(-108.39)"><tspan x="0" y="0">i</tspan></text>
    <text class="cls-1" transform="translate(31.55 130.81) rotate(-107.07)"><tspan x="0" y="0">m</tspan></text>
    <text class="cls-1" transform="translate(30.75 128.19) rotate(-105.33)"><tspan x="0" y="0">a</tspan></text>
    <text class="cls-1" transform="translate(30.2 126.17) rotate(-104.23)"><tspan x="0" y="0">t</tspan></text>
    <text class="cls-1" transform="translate(29.95 125.23) rotate(-103.1)"><tspan x="0" y="0">o</tspan></text>
    <text class="cls-1" transform="translate(29.48 123.19) rotate(-101.86)"><tspan x="0" y="0">r</tspan></text>
    <text class="cls-1" transform="translate(29.22 121.92) rotate(-100.87)"><tspan x="0" y="0">s</tspan></text>
    <text class="cls-1" transform="translate(28.95 120.52) rotate(-99.95)"><tspan x="0" y="0"> </tspan></text>
    <text class="cls-1" transform="translate(28.76 119.49) rotate(-98.81)"><tspan x="0" y="0">o</tspan></text>
    <text class="cls-1" transform="translate(28.45 117.42) rotate(-97.67)"><tspan x="0" y="0">f</tspan></text>
    <text class="cls-1" transform="translate(28.29 116.26) rotate(-96.85)"><tspan x="0" y="0">t</tspan></text>
    <text class="cls-1" transform="translate(28.17 115.3) rotate(-95.78)"><tspan x="0" y="0">e</tspan></text>
    <text class="cls-1" transform="translate(27.98 113.4) rotate(-94.38)"><tspan x="0" y="0">n</tspan></text>
    <text class="cls-1" transform="translate(27.84 111.47) rotate(-93.27)"><tspan x="0" y="0"> </tspan></text>
    <text class="cls-1" transform="translate(27.77 110.42) rotate(-92.12)"><tspan x="0" y="0">a</tspan></text>
    <text class="cls-1" transform="translate(27.7 108.34) rotate(-90.75)"><tspan x="0" y="0">c</tspan></text>
    <text class="cls-1" transform="translate(27.67 106.68) rotate(-89.54)"><tspan x="0" y="0">c</tspan></text>
    <text class="cls-1" transform="translate(27.69 105.03) rotate(-88.62)"><tspan x="0" y="0">i</tspan></text>
    <text class="cls-1" transform="translate(27.7 104.17) rotate(-87.55)"><tspan x="0" y="0">d</tspan></text>
    <text class="cls-1" transform="translate(27.79 102.09) rotate(-86.09)"><tspan x="0" y="0">e</tspan></text>
    <text class="cls-1" transform="translate(27.93 100.15) rotate(-84.67)"><tspan x="0" y="0">n</tspan></text>
    <text class="cls-1" transform="translate(28.11 98.28) rotate(-83.65)"><tspan x="0" y="0">t</tspan></text>
    <text class="cls-1" transform="translate(28.21 97.32) rotate(-82.98)"><tspan x="0" y="0">l</tspan></text>
    <text class="cls-1" transform="translate(28.32 96.44) rotate(-81.96)"><tspan x="0" y="0">y</tspan></text>
    <text class="cls-1" transform="translate(28.59 94.57) rotate(-80.88)"><tspan x="0" y="0"> </tspan></text>
    <text class="cls-1" transform="translate(28.75 93.51) rotate(-79.73)"><tspan x="0" y="0">a</tspan></text>
    <text class="cls-1" transform="translate(29.12 91.46) rotate(-78.46)"><tspan x="0" y="0">s</tspan></text>
    <text class="cls-1" transform="translate(29.41 90.07) rotate(-77.43)"><tspan x="0" y="0">s</tspan></text>
    <text class="cls-1" transform="translate(29.72 88.7) rotate(-76.61)"><tspan x="0" y="0">i</tspan></text>
    <text class="cls-1" transform="translate(29.91 87.85) rotate(-75.54)"><tspan x="0" y="0">g</tspan></text>
    <text class="cls-1" transform="translate(30.43 85.85) rotate(-74.1)"><tspan x="0" y="0">n</tspan></text>
    <text class="cls-1" transform="translate(30.96 84) rotate(-73.01)"><tspan x="0" y="0"> </tspan></text>
    <text class="cls-1" transform="translate(31.27 82.98) rotate(-72.28)"><tspan x="0" y="0">t</tspan></text>
    <text class="cls-1" transform="translate(31.57 82.04) rotate(-71.21)"><tspan x="0" y="0">e</tspan></text>
    <text class="cls-1" transform="translate(32.16 80.28) rotate(-69.87)"><tspan x="0" y="0">x</tspan></text>
    <text class="cls-1" transform="translate(32.84 78.46) rotate(-68.82)"><tspan x="0" y="0">t</tspan></text>
    <text class="cls-1" transform="translate(33.17 77.58) rotate(-67.8)"><tspan x="0" y="0">u</tspan></text>
    <text class="cls-1" transform="translate(33.89 75.83) rotate(-66.64)"><tspan x="0" y="0">r</tspan></text>
    <text class="cls-1" transform="translate(34.4 74.65) rotate(-65.49)"><tspan x="0" y="0">e</tspan></text>
    <text class="cls-1" transform="translate(35.19 72.91) rotate(-64.3)"><tspan x="0" y="0">s</tspan></text>
    <text class="cls-1" transform="translate(35.8 71.64) rotate(-63.4)"><tspan x="0" y="0"> </tspan></text>
    <text class="cls-1" transform="translate(36.28 70.69) rotate(-62.67)"><tspan x="0" y="0">t</tspan></text>
    <text class="cls-1" transform="translate(36.72 69.83) rotate(-61.56)"><tspan x="0" y="0">o</tspan></text>
    <text class="cls-1" transform="translate(37.73 67.98) rotate(-60.4)"><tspan x="0" y="0"> </tspan></text>
    <text class="cls-1" transform="translate(38.26 67.05) rotate(-59.68)"><tspan x="0" y="0">t</tspan></text>
    <text class="cls-1" transform="translate(38.77 66.16) rotate(-58.58)"><tspan x="0" y="0">h</tspan></text>
    <text class="cls-1" transform="translate(39.75 64.55) rotate(-57.21)"><tspan x="0" y="0">e</tspan></text>
    <text class="cls-1" transform="translate(40.81 62.93) rotate(-56.11)"><tspan x="0" y="0"> </tspan></text>
    <text class="cls-1" transform="translate(41.41 62.03) rotate(-55.4)"><tspan x="0" y="0">i</tspan></text>
    <text class="cls-1" transform="translate(41.88 61.33) rotate(-54.41)"><tspan x="0" y="0">n</tspan></text>
    <text class="cls-1" transform="translate(43 59.78) rotate(-53.21)"><tspan x="0" y="0">s</tspan></text>
    <text class="cls-1" transform="translate(43.84 58.66) rotate(-52.38)"><tspan x="0" y="0">i</tspan></text>
    <text class="cls-1" transform="translate(44.37 57.96) rotate(-51.3)"><tspan x="0" y="0">d</tspan></text>
    <text class="cls-1" transform="translate(45.66 56.35) rotate(-49.85)"><tspan x="0" y="0">e</tspan></text>
    <text class="cls-1" transform="translate(46.9 54.88) rotate(-48.76)"><tspan x="0" y="0"> </tspan></text>
    <text class="cls-1" transform="translate(47.61 54.07) rotate(-47.6)"><tspan x="0" y="0">o</tspan></text>
    <text class="cls-1" transform="translate(49.04 52.52) rotate(-46.45)"><tspan x="0" y="0">f</tspan></text>
    <text class="cls-1" transform="translate(49.74 51.77) rotate(-45.68)"><tspan x="0" y="0"> </tspan></text>
    <text class="cls-1" transform="translate(50.48 51.02) rotate(-44.96)"><tspan x="0" y="0">t</tspan></text>
    <text class="cls-1" transform="translate(51.2 50.3) rotate(-43.86)"><tspan x="0" y="0">h</tspan></text>
    <text class="cls-1" transform="translate(52.58 48.97) rotate(-42.45)"><tspan x="0" y="0">e</tspan></text>
    <text class="cls-1" transform="translate(54 47.67) rotate(-41.35)"><tspan x="0" y="0"> </tspan></text>
    <text class="cls-1" transform="translate(54.79 46.97) rotate(-40.2)"><tspan x="0" y="0">o</tspan></text>
    <text class="cls-1" transform="translate(56.39 45.62) rotate(-38.67)"><tspan x="0" y="0">b</tspan></text>
    <text class="cls-1" transform="translate(58.03 44.31) rotate(-37.58)"><tspan x="0" y="0">j</tspan></text>
    <text class="cls-1" transform="translate(58.72 43.78) rotate(-36.55)"><tspan x="0" y="0">e</tspan></text>
    <text class="cls-1" transform="translate(60.25 42.65) rotate(-35.26)"><tspan x="0" y="0">c</tspan></text>
    <text class="cls-1" transform="translate(61.61 41.69) rotate(-34.29)"><tspan x="0" y="0">t</tspan></text>
    <text class="cls-1" transform="translate(62.4 41.15) rotate(-33.55)"><tspan x="0" y="0"> </tspan></text>
    <text class="cls-1" transform="translate(63.29 40.56) rotate(-32.81)"><tspan x="0" y="0">t</tspan></text>
    <text class="cls-1" transform="translate(64.12 40.01) rotate(-31.73)"><tspan x="0" y="0">h</tspan></text>
    <text class="cls-1" transform="translate(65.74 39.01) rotate(-30.34)"><tspan x="0" y="0">e</tspan></text>
    <text class="cls-1" transform="translate(67.36 38.06) rotate(-28.99)"><tspan x="0" y="0">y</tspan></text>
    <text class="cls-1" transform="translate(69.03 37.14) rotate(-27.88)"><tspan x="0" y="0">’</tspan></text>
    <text class="cls-1" transform="translate(69.98 36.64) rotate(-27.04)"><tspan x="0" y="0">r</tspan></text>
    <text class="cls-1" transform="translate(71.12 36.06) rotate(-25.89)"><tspan x="0" y="0">e</tspan></text>
    <text class="cls-1" transform="translate(72.86 35.21) rotate(-24.8)"><tspan x="0" y="0"> </tspan></text>
    <text class="cls-1" transform="translate(73.81 34.76) rotate(-23.44)"><tspan x="0" y="0">m</tspan></text>
    <text class="cls-1" transform="translate(76.33 33.66) rotate(-20.97)"><tspan x="0" y="0">o</tspan></text>
    <text class="cls-1" transform="translate(78.28 32.9) rotate(-20.22)"><tspan x="0" y="0">d</tspan></text>
    <text class="cls-1" transform="translate(80.22 32.18) rotate(-18.79)"><tspan x="0" y="0">e</tspan></text>
    <text class="cls-1" transform="translate(82.07 31.56) rotate(-17.77)"><tspan x="0" y="0">l</tspan></text>
    <text class="cls-1" transform="translate(82.88 31.3) rotate(-17.16)"><tspan x="0" y="0">i</tspan></text>
    <text class="cls-1" transform="translate(83.72 31.04) rotate(-16.15)"><tspan x="0" y="0">n</tspan></text>
    <text class="cls-1" transform="translate(85.54 30.51) rotate(-14.7)"><tspan x="0" y="0">g</tspan></text>
    <text class="cls-1" transform="translate(87.56 29.98) rotate(-13.55)"><tspan x="0" y="0"> </tspan></text>
    <text class="cls-1" transform="translate(88.6 29.73) rotate(-12.4)"><tspan x="0" y="0">a</tspan></text>
    <text class="cls-1" transform="translate(90.62 29.29) rotate(-11.14)"><tspan x="0" y="0">s</tspan></text>
    <text class="cls-1" transform="translate(92.02 29.01) rotate(-10.22)"><tspan x="0" y="0"> </tspan></text>
    <text class="cls-1" transform="translate(93.05 28.82) rotate(-9.08)"><tspan x="0" y="0">o</tspan></text>
    <text class="cls-1" transform="translate(95.13 28.49) rotate(-7.54)"><tspan x="0" y="0">p</tspan></text>
    <text class="cls-1" transform="translate(97.18 28.22) rotate(-6.02)"><tspan x="0" y="0">p</tspan></text>
    <text class="cls-1" transform="translate(99.26 28) rotate(-4.49)"><tspan x="0" y="0">o</tspan></text>
    <text class="cls-1" transform="translate(101.34 27.84) rotate(-3.2)"><tspan x="0" y="0">s</tspan></text>
    <text class="cls-1" transform="translate(102.74 27.76) rotate(-1.99)"><tspan x="0" y="0">e</tspan></text>
    <text class="cls-1" transform="translate(104.67 27.69) rotate(-.51)"><tspan x="0" y="0">d</tspan></text>
    <text class="cls-1" transform="translate(106.75 27.68) rotate(.63)"><tspan x="0" y="0"> </tspan></text>
    <text class="cls-1" transform="translate(107.83 27.69) rotate(1.38)"><tspan x="0" y="0">t</tspan></text>
    <text class="cls-1" transform="translate(108.81 27.71) rotate(2.52)"><tspan x="0" y="0">o</tspan></text>
    <text class="cls-1" transform="translate(110.87 27.8) rotate(3.65)"><tspan x="0" y="0"> </tspan></text>
    <text class="cls-1" transform="translate(111.95 27.87) rotate(4.39)"><tspan x="0" y="0">t</tspan></text>
    <text class="cls-1" transform="translate(112.95 27.94) rotate(5.48)"><tspan x="0" y="0">h</tspan></text>
    <text class="cls-1" transform="translate(114.87 28.13) rotate(6.89)"><tspan x="0" y="0">e</tspan></text>
    <text class="cls-1" transform="translate(116.77 28.36) rotate(7.98)"><tspan x="0" y="0"> </tspan></text>
    <text class="cls-1" transform="translate(117.83 28.5) rotate(9.12)"><tspan x="0" y="0">o</tspan></text>
    <text class="cls-1" transform="translate(119.89 28.84) rotate(10.57)"><tspan x="0" y="0">u</tspan></text>
    <text class="cls-1" transform="translate(121.75 29.19) rotate(11.61)"><tspan x="0" y="0">t</tspan></text>
    <text class="cls-1" transform="translate(122.69 29.38) rotate(12.46)"><tspan x="0" y="0">s</tspan></text>
    <text class="cls-1" transform="translate(124.05 29.68) rotate(13.28)"><tspan x="0" y="0">i</tspan></text>
    <text class="cls-1" transform="translate(124.9 29.88) rotate(14.36)"><tspan x="0" y="0">d</tspan></text>
    <text class="cls-1" transform="translate(126.92 30.4) rotate(15.81)"><tspan x="0" y="0">e</tspan></text>
    <text class="cls-1" transform="translate(128.78 30.93) rotate(16.9)"><tspan x="0" y="0">.</tspan></text>
    <text class="cls-1" transform="translate(129.8 31.24) rotate(17.68)"><tspan x="0" y="0"> </tspan></text>
    <text class="cls-1" transform="translate(130.81 31.55) rotate(18.66)"><tspan x="0" y="0">T</tspan></text>
    <text class="cls-1" transform="translate(132.41 32.09) rotate(19.96)"><tspan x="0" y="0">h</tspan></text>
    <text class="cls-1" transform="translate(134.2 32.74) rotate(21.35)"><tspan x="0" y="0">e</tspan></text>
    <text class="cls-1" transform="translate(135.97 33.44) rotate(22.42)"><tspan x="0" y="0"> </tspan></text>
    <text class="cls-1" transform="translate(136.99 33.86) rotate(23.29)"><tspan x="0" y="0">r</tspan></text>
    <text class="cls-1" transform="translate(138.14 34.35) rotate(24.42)"><tspan x="0" y="0">e</tspan></text>
    <text class="cls-1" transform="translate(139.9 35.15) rotate(25.64)"><tspan x="0" y="0">s</tspan></text>
    <text class="cls-1" transform="translate(141.18 35.76) rotate(26.84)"><tspan x="0" y="0">u</tspan></text>
    <text class="cls-1" transform="translate(142.85 36.61) rotate(27.82)"><tspan x="0" y="0">l</tspan></text>
    <text class="cls-1" transform="translate(143.62 37.02) rotate(28.48)"><tspan x="0" y="0">t</tspan></text>
    <text class="cls-1" transform="translate(144.45 37.47) rotate(29.21)"><tspan x="0" y="0"> </tspan></text>
    <text class="cls-1" transform="translate(145.39 38) rotate(29.92)"><tspan x="0" y="0">i</tspan></text>
    <text class="cls-1" transform="translate(146.16 38.43) rotate(30.75)"><tspan x="0" y="0">s</tspan></text>
    <text class="cls-1" transform="translate(147.37 39.16) rotate(31.65)"><tspan x="0" y="0"> </tspan></text>
    <text class="cls-1" transform="translate(148.27 39.71) rotate(32.79)"><tspan x="0" y="0">a</tspan></text>
    <text class="cls-1" transform="translate(150.02 40.83) rotate(34.23)"><tspan x="0" y="0">n</tspan></text>
    <text class="cls-1" transform="translate(151.59 41.9) rotate(35.31)"><tspan x="0" y="0"> </tspan></text>
    <text class="cls-1" transform="translate(152.47 42.53) rotate(36.02)"><tspan x="0" y="0">i</tspan></text>
    <text class="cls-1" transform="translate(153.18 43.04) rotate(37.03)"><tspan x="0" y="0">n</tspan></text>
    <text class="cls-1" transform="translate(154.64 44.14) rotate(38.31)"><tspan x="0" y="0">v</tspan></text>
    <text class="cls-1" transform="translate(155.97 45.19) rotate(39.61)"><tspan x="0" y="0">e</tspan></text>
    <text class="cls-1" transform="translate(157.45 46.42) rotate(40.78)"><tspan x="0" y="0">r</tspan></text>
    <text class="cls-1" transform="translate(158.53 47.36) rotate(41.7)"><tspan x="0" y="0">t</tspan></text>
    <text class="cls-1" transform="translate(159.26 48) rotate(42.76)"><tspan x="0" y="0">e</tspan></text>
    <text class="cls-1" transform="translate(160.67 49.3) rotate(44.23)"><tspan x="0" y="0">d</tspan></text>
    <text class="cls-1" transform="translate(162.17 50.77) rotate(45.39)"><tspan x="0" y="0"> </tspan></text>
    <text class="cls-1" transform="translate(162.92 51.53) rotate(46.1)"><tspan x="0" y="0">i</tspan></text>
    <text class="cls-1" transform="translate(163.52 52.14) rotate(47.42)"><tspan x="0" y="0">m</tspan></text>
    <text class="cls-1" transform="translate(165.37 54.16) rotate(49.18)"><tspan x="0" y="0">a</tspan></text>
    <text class="cls-1" transform="translate(166.74 55.74) rotate(50.71)"><tspan x="0" y="0">g</tspan></text>
    <text class="cls-1" transform="translate(168.05 57.35) rotate(52.18)"><tspan x="0" y="0">e</tspan></text>
    <text class="cls-1" transform="translate(169.23 58.87) rotate(53.27)"><tspan x="0" y="0">,</tspan></text>
    <text class="cls-1" transform="translate(169.88 59.74) rotate(54.07)"><tspan x="0" y="0"> </tspan></text>
    <text class="cls-1" transform="translate(170.5 60.59) rotate(55.44)"><tspan x="0" y="0">w</tspan></text>
    <text class="cls-1" transform="translate(172.03 62.81) rotate(57.12)"><tspan x="0" y="0">h</tspan></text>
    <text class="cls-1" transform="translate(173.06 64.4) rotate(58.51)"><tspan x="0" y="0">e</tspan></text>
    <text class="cls-1" transform="translate(174.07 66.07) rotate(59.71)"><tspan x="0" y="0">r</tspan></text>
    <text class="cls-1" transform="translate(174.72 67.16) rotate(60.85)"><tspan x="0" y="0">e</tspan></text>
    <text class="cls-1" transform="translate(175.65 68.84) rotate(61.94)"><tspan x="0" y="0"> </tspan></text>
    <text class="cls-1" transform="translate(176.15 69.77) rotate(63.3)"><tspan x="0" y="0">w</tspan></text>
    <text class="cls-1" transform="translate(177.36 72.17) rotate(64.95)"><tspan x="0" y="0">h</tspan></text>
    <text class="cls-1" transform="translate(178.16 73.89) rotate(66.38)"><tspan x="0" y="0">a</tspan></text>
    <text class="cls-1" transform="translate(178.99 75.81) rotate(67.17)"><tspan x="0" y="0">t</tspan></text>
    <text class="cls-1" transform="translate(179.37 76.69) rotate(69.03)"><tspan x="0" y="0"> </tspan></text>
    <text class="cls-1" transform="translate(179.77 77.67) rotate(69.53)"><tspan x="0" y="0">w</tspan></text>
    <text class="cls-1" transform="translate(180.69 80.15) rotate(71.21)"><tspan x="0" y="0">a</tspan></text>
    <text class="cls-1" transform="translate(181.36 82.13) rotate(72.47)"><tspan x="0" y="0">s</tspan></text>
    <text class="cls-1" transform="translate(181.77 83.46) rotate(73.36)"><tspan x="0" y="0"> </tspan></text>
    <text class="cls-1" transform="translate(182.1 84.5) rotate(74.76)"><tspan x="0" y="0">m</tspan></text>
    <text class="cls-1" transform="translate(182.81 87.15) rotate(76.45)"><tspan x="0" y="0">e</tspan></text>
    <text class="cls-1" transform="translate(183.27 89.02) rotate(77.91)"><tspan x="0" y="0">a</tspan></text>
    <text class="cls-1" transform="translate(183.7 91.06) rotate(79.37)"><tspan x="0" y="0">n</tspan></text>
    <text class="cls-1" transform="translate(184.05 92.92) rotate(80.4)"><tspan x="0" y="0">t</tspan></text>
    <text class="cls-1" transform="translate(184.2 93.86) rotate(81.14)"><tspan x="0" y="0"> </tspan></text>
    <text class="cls-1" transform="translate(184.37 94.91) rotate(81.88)"><tspan x="0" y="0">t</tspan></text>
    <text class="cls-1" transform="translate(184.51 95.88) rotate(83.02)"><tspan x="0" y="0">o</tspan></text>
    <text class="cls-1" transform="translate(184.76 97.96) rotate(84.18)"><tspan x="0" y="0"> </tspan></text>
    <text class="cls-1" transform="translate(184.88 99.02) rotate(85.33)"><tspan x="0" y="0">b</tspan></text>
    <text class="cls-1" transform="translate(185.04 101.09) rotate(86.8)"><tspan x="0" y="0">e</tspan></text>
    <text class="cls-1" transform="translate(185.15 103.02) rotate(87.9)"><tspan x="0" y="0"> </tspan></text>
    <text class="cls-1" transform="translate(185.19 104.09) rotate(88.61)"><tspan x="0" y="0">i</tspan></text>
    <text class="cls-1" transform="translate(185.21 104.94) rotate(89.62)"><tspan x="0" y="0">n</tspan></text>
    <text class="cls-1" transform="translate(185.22 106.84) rotate(90.83)"><tspan x="0" y="0">s</tspan></text>
    <text class="cls-1" transform="translate(185.2 108.26) rotate(91.66)"><tspan x="0" y="0">i</tspan></text>
    <text class="cls-1" transform="translate(185.18 109.14) rotate(92.76)"><tspan x="0" y="0">d</tspan></text>
    <text class="cls-1" transform="translate(185.08 111.22) rotate(94.22)"><tspan x="0" y="0">e</tspan></text>
    <text class="cls-1" transform="translate(184.93 113.13) rotate(95.31)"><tspan x="0" y="0"> </tspan></text>
    <text class="cls-1" transform="translate(184.84 114.2) rotate(96.39)"><tspan x="0" y="0">n</tspan></text>
    <text class="cls-1" transform="translate(184.63 116.09) rotate(97.85)"><tspan x="0" y="0">o</tspan></text>
    <text class="cls-1" transform="translate(184.36 118.08) rotate(99.53)"><tspan x="0" y="0">w</tspan></text>
    <text class="cls-1" transform="translate(183.91 120.73) rotate(100.89)"><tspan x="0" y="0"> </tspan></text>
    <text class="cls-1" transform="translate(183.71 121.78) rotate(101.97)"><tspan x="0" y="0">u</tspan></text>
    <text class="cls-1" transform="translate(183.31 123.66) rotate(103.37)"><tspan x="0" y="0">n</tspan></text>
    <text class="cls-1" transform="translate(182.87 125.49) rotate(104.42)"><tspan x="0" y="0">f</tspan></text>
    <text class="cls-1" transform="translate(182.61 126.53) rotate(105.58)"><tspan x="0" y="0">o</tspan></text>
    <text class="cls-1" transform="translate(182.04 128.56) rotate(106.82)"><tspan x="0" y="0">r</tspan></text>
    <text class="cls-1" transform="translate(181.62 129.92) rotate(107.72)"><tspan x="0" y="0">t</tspan></text>
    <text class="cls-1" transform="translate(181.34 130.82) rotate(108.74)"><tspan x="0" y="0">u</tspan></text>
    <text class="cls-1" transform="translate(180.74 132.6) rotate(110.11)"><tspan x="0" y="0">n</tspan></text>
    <text class="cls-1" transform="translate(180.08 134.4) rotate(111.56)"><tspan x="0" y="0">a</tspan></text>
    <text class="cls-1" transform="translate(179.31 136.33) rotate(112.65)"><tspan x="0" y="0">t</tspan></text>
    <text class="cls-1" transform="translate(178.93 137.24) rotate(113.72)"><tspan x="0" y="0">e</tspan></text>
    <text class="cls-1" transform="translate(178.16 139) rotate(114.72)"><tspan x="0" y="0">l</tspan></text>
    <text class="cls-1" transform="translate(177.78 139.82) rotate(115.75)"><tspan x="0" y="0">y</tspan></text>
    <text class="cls-1" transform="translate(176.96 141.52) rotate(116.82)"><tspan x="0" y="0"> </tspan></text>
    <text class="cls-1" transform="translate(176.48 142.48) rotate(117.71)"><tspan x="0" y="0">s</tspan></text>
    <text class="cls-1" transform="translate(175.83 143.71) rotate(118.52)"><tspan x="0" y="0">l</tspan></text>
    <text class="cls-1" transform="translate(175.4 144.49) rotate(119.17)"><tspan x="0" y="0">i</tspan></text>
    <text class="cls-1" transform="translate(174.99 145.25) rotate(120.24)"><tspan x="0" y="0">p</tspan></text>
    <text class="cls-1" transform="translate(173.93 147.05) rotate(121.5)"><tspan x="0" y="0">s</tspan></text>
    <text class="cls-1" transform="translate(173.21 148.23) rotate(122.38)"><tspan x="0" y="0"> </tspan></text>
    <text class="cls-1" transform="translate(172.63 149.15) rotate(123.54)"><tspan x="0" y="0">o</tspan></text>
    <text class="cls-1" transform="translate(171.48 150.88) rotate(124.98)"><tspan x="0" y="0">u</tspan></text>
    <text class="cls-1" transform="translate(170.39 152.44) rotate(126.02)"><tspan x="0" y="0">t</tspan></text>
    <text class="cls-1" transform="translate(169.83 153.2) rotate(126.75)"><tspan x="0" y="0">.</tspan></text>
    <text class="cls-1" transform="translate(169.19 154.06) rotate(127.53)"><tspan x="0" y="0"> </tspan></text>
    <text class="cls-1" transform="translate(168.55 154.9) rotate(128.29)"><tspan x="0" y="0">I</tspan></text>
    <text class="cls-1" transform="translate(167.9 155.72) rotate(129.02)"><tspan x="0" y="0">t</tspan></text>
    <text class="cls-1" transform="translate(167.3 156.46) rotate(129.76)"><tspan x="0" y="0"> </tspan></text>
    <text class="cls-1" transform="translate(166.62 157.28) rotate(130.46)"><tspan x="0" y="0">i</tspan></text>
    <text class="cls-1" transform="translate(166.07 157.93) rotate(131.28)"><tspan x="0" y="0">s</tspan></text>
    <text class="cls-1" transform="translate(165.13 159) rotate(132.2)"><tspan x="0" y="0"> </tspan></text>
    <text class="cls-1" transform="translate(164.4 159.8) rotate(132.94)"><tspan x="0" y="0">t</tspan></text>
    <text class="cls-1" transform="translate(163.71 160.54) rotate(134.03)"><tspan x="0" y="0">h</tspan></text>
    <text class="cls-1" transform="translate(162.39 161.91) rotate(135.44)"><tspan x="0" y="0">e</tspan></text>
    <text class="cls-1" transform="translate(161.01 163.26) rotate(136.53)"><tspan x="0" y="0"> </tspan></text>
    <text class="cls-1" transform="translate(160.25 163.99) rotate(137.68)"><tspan x="0" y="0">d</tspan></text>
    <text class="cls-1" transform="translate(158.7 165.4) rotate(138.76)"><tspan x="0" y="0">i</tspan></text>
    <text class="cls-1" transform="translate(158.05 165.97) rotate(139.85)"><tspan x="0" y="0">g</tspan></text>
    <text class="cls-1" transform="translate(156.47 167.3) rotate(140.91)"><tspan x="0" y="0">i</tspan></text>
    <text class="cls-1" transform="translate(155.8 167.84) rotate(141.58)"><tspan x="0" y="0">t</tspan></text>
    <text class="cls-1" transform="translate(155.04 168.46) rotate(142.71)"><tspan x="0" y="0">a</tspan></text>
    <text class="cls-1" transform="translate(153.36 169.73) rotate(143.8)"><tspan x="0" y="0">l</tspan></text>
    <text class="cls-1" transform="translate(152.66 170.24) rotate(144.52)"><tspan x="0" y="0"> </tspan></text>
    <text class="cls-1" transform="translate(151.8 170.86) rotate(145.6)"><tspan x="0" y="0">e</tspan></text>
    <text class="cls-1" transform="translate(150.22 171.94) rotate(147.07)"><tspan x="0" y="0">q</tspan></text>
    <text class="cls-1" transform="translate(148.43 173.1) rotate(148.56)"><tspan x="0" y="0">u</tspan></text>
    <text class="cls-1" transform="translate(146.83 174.07) rotate(149.55)"><tspan x="0" y="0">i</tspan></text>
    <text class="cls-1" transform="translate(146.06 174.53) rotate(150.52)"><tspan x="0" y="0">v</tspan></text>
    <text class="cls-1" transform="translate(144.62 175.35) rotate(151.85)"><tspan x="0" y="0">a</tspan></text>
    <text class="cls-1" transform="translate(142.75 176.34) rotate(152.93)"><tspan x="0" y="0">l</tspan></text>
    <text class="cls-1" transform="translate(142 176.73) rotate(153.93)"><tspan x="0" y="0">e</tspan></text>
    <text class="cls-1" transform="translate(140.27 177.57) rotate(155.31)"><tspan x="0" y="0">n</tspan></text>
    <text class="cls-1" transform="translate(138.54 178.36) rotate(156.33)"><tspan x="0" y="0">t</tspan></text>
    <text class="cls-1" transform="translate(137.67 178.75) rotate(157.06)"><tspan x="0" y="0"> </tspan></text>
    <text class="cls-1" transform="translate(136.69 179.19) rotate(159.03)"><tspan x="0" y="0">o</tspan></text>
    <text class="cls-1" transform="translate(134.74 179.94) rotate(159.3)"><tspan x="0" y="0">f</tspan></text>
    <text class="cls-1" transform="translate(133.78 180.3) rotate(160.05)"><tspan x="0" y="0"> </tspan></text>
    <text class="cls-1" transform="translate(132.78 180.67) rotate(161.18)"><tspan x="0" y="0">a</tspan></text>
    <text class="cls-1" transform="translate(130.81 181.34) rotate(162.32)"><tspan x="0" y="0"> </tspan></text>
    <text class="cls-1" transform="translate(129.77 181.68) rotate(163.47)"><tspan x="0" y="0">p</tspan></text>
    <text class="cls-1" transform="translate(127.78 182.26) rotate(164.69)"><tspan x="0" y="0">r</tspan></text>
    <text class="cls-1" transform="translate(126.55 182.61) rotate(165.91)"><tspan x="0" y="0">o</tspan></text>
    <text class="cls-1" transform="translate(124.54 183.1) rotate(166.97)"><tspan x="0" y="0">l</tspan></text>
    <text class="cls-1" transform="translate(123.7 183.31) rotate(168.05)"><tspan x="0" y="0">a</tspan></text>
    <text class="cls-1" transform="translate(121.65 183.74) rotate(169.58)"><tspan x="0" y="0">p</tspan></text>
    <text class="cls-1" transform="translate(119.6 184.11) rotate(170.85)"><tspan x="0" y="0">s</tspan></text>
    <text class="cls-1" transform="translate(118.23 184.34) rotate(172.06)"><tspan x="0" y="0">e</tspan></text>
    <text class="cls-1" transform="translate(116.32 184.6) rotate(173.53)"><tspan x="0" y="0">d</tspan></text>
    <text class="cls-1" transform="translate(114.25 184.83) rotate(174.69)"><tspan x="0" y="0"> </tspan></text>
    <text class="cls-1" transform="translate(113.19 184.94) rotate(175.84)"><tspan x="0" y="0">o</tspan></text>
    <text class="cls-1" transform="translate(111.11 185.08) rotate(177.08)"><tspan x="0" y="0">r</tspan></text>
    <text class="cls-1" transform="translate(109.78 185.16) rotate(178.34)"><tspan x="0" y="0">g</tspan></text>
    <text class="cls-1" transform="translate(107.71 185.22) rotate(179.86)"><tspan x="0" y="0">a</tspan></text>
    <text class="cls-1" transform="translate(105.64 185.22) rotate(-178.69)"><tspan x="0" y="0">n</tspan></text>
    <text class="cls-1" transform="translate(103.73 185.17) rotate(-177.59)"><tspan x="0" y="0">.</tspan></text>
  </g>
</svg>