<?xml version="1.0" encoding="UTF-8"?>
<svg id="Layer_2" data-name="Layer 2" xmlns="http://www.w3.org/2000/svg" viewBox="0 0 303.65 303.64">
  <defs>
    <style>
      .cls-1 {
        fill: #231f20;
        font-family: Futura-Medium, Futura;
        font-size: 4.3px;
        font-weight: 500;
      }
    </style>
  </defs>
  <g id="Layer_25" data-name="Layer 25">
    <text class="cls-1" transform="translate(248.24 101.49) rotate(63.37)"><tspan x="0" y="0">I</tspan></text>
    <text class="cls-1" transform="translate(248.82 102.62) rotate(63.7)"><tspan x="0" y="0">n</tspan></text>
    <text class="cls-1" transform="translate(249.85 104.71) rotate(64.64)"><tspan x="0" y="0"> </tspan></text>
    <text class="cls-1" transform="translate(250.42 105.91) rotate(65.81)"><tspan x="0" y="0">H</tspan></text>
    <text class="cls-1" transform="translate(251.7 108.78) rotate(66.97)"><tspan x="0" y="0">.</tspan></text>
    <text class="cls-1" transform="translate(252.22 109.97) rotate(68.25)"><tspan x="0" y="0">G</tspan></text>
    <text class="cls-1" transform="translate(253.55 113.33) rotate(69.55)"><tspan x="0" y="0">.</tspan></text>
    <text class="cls-1" transform="translate(254.01 114.55) rotate(70.24)"><tspan x="0" y="0"> </tspan></text>
    <text class="cls-1" transform="translate(254.47 115.78) rotate(71.78)"><tspan x="0" y="0">W</tspan></text>
    <text class="cls-1" transform="translate(255.8 119.85) rotate(73.47)"><tspan x="0" y="0">e</tspan></text>
    <text class="cls-1" transform="translate(256.47 122.12) rotate(74.37)"><tspan x="0" y="0">l</tspan></text>
    <text class="cls-1" transform="translate(256.76 123.16) rotate(74.95)"><tspan x="0" y="0">l</tspan></text>
    <text class="cls-1" transform="translate(257.03 124.18) rotate(75.59)"><tspan x="0" y="0">’</tspan></text>
    <text class="cls-1" transform="translate(257.38 125.52) rotate(76.42)"><tspan x="0" y="0">s</tspan></text>
    <text class="cls-1" transform="translate(257.78 127.2) rotate(77.22)"><tspan x="0" y="0"> </tspan></text>
    <text class="cls-1" transform="translate(258.08 128.47) rotate(78.27)"><tspan x="0" y="0">1</tspan></text>
    <text class="cls-1" transform="translate(258.55 130.75) rotate(79.51)"><tspan x="0" y="0">8</tspan></text>
    <text class="cls-1" transform="translate(259.04 133.35) rotate(80.91)"><tspan x="0" y="0">9</tspan></text>
    <text class="cls-1" transform="translate(259.43 135.82) rotate(82.24)"><tspan x="0" y="0">7</tspan></text>
    <text class="cls-1" transform="translate(259.78 138.44) rotate(83.29)"><tspan x="0" y="0"> </tspan></text>
    <text class="cls-1" transform="translate(259.94 139.73) rotate(84.31)"><tspan x="0" y="0">b</tspan></text>
    <text class="cls-1" transform="translate(260.19 142.28) rotate(85.67)"><tspan x="0" y="0">o</tspan></text>
    <text class="cls-1" transform="translate(260.39 144.84) rotate(87.03)"><tspan x="0" y="0">o</tspan></text>
    <text class="cls-1" transform="translate(260.52 147.4) rotate(88.28)"><tspan x="0" y="0">k</tspan></text>
    <text class="cls-1" transform="translate(260.58 149.54) rotate(89.19)"><tspan x="0" y="0"> </tspan></text>
    <text class="cls-1" transform="translate(260.6 150.86) rotate(89.91)"><tspan x="0" y="0">‘</tspan></text>
    <text class="cls-1" transform="translate(260.6 152.34) rotate(90.86)"><tspan x="0" y="0">T</tspan></text>
    <text class="cls-1" transform="translate(260.57 154.37) rotate(92.01)"><tspan x="0" y="0">h</tspan></text>
    <text class="cls-1" transform="translate(260.49 156.72) rotate(93.26)"><tspan x="0" y="0">e</tspan></text>
    <text class="cls-1" transform="translate(260.35 159.09) rotate(94.23)"><tspan x="0" y="0"> </tspan></text>
    <text class="cls-1" transform="translate(260.26 160.4) rotate(94.91)"><tspan x="0" y="0">I</tspan></text>
    <text class="cls-1" transform="translate(260.15 161.65) rotate(95.86)"><tspan x="0" y="0">n</tspan></text>
    <text class="cls-1" transform="translate(259.92 163.91) rotate(97)"><tspan x="0" y="0">v</tspan></text>
    <text class="cls-1" transform="translate(259.66 166.03) rotate(97.84)"><tspan x="0" y="0">i</tspan></text>
    <text class="cls-1" transform="translate(259.51 167.1) rotate(98.58)"><tspan x="0" y="0">s</tspan></text>
    <text class="cls-1" transform="translate(259.25 168.82) rotate(99.32)"><tspan x="0" y="0">i</tspan></text>
    <text class="cls-1" transform="translate(259.09 169.85) rotate(100.26)"><tspan x="0" y="0">b</tspan></text>
    <text class="cls-1" transform="translate(258.62 172.38) rotate(101.21)"><tspan x="0" y="0">l</tspan></text>
    <text class="cls-1" transform="translate(258.42 173.42) rotate(102.11)"><tspan x="0" y="0">e</tspan></text>
    <text class="cls-1" transform="translate(257.92 175.73) rotate(103.07)"><tspan x="0" y="0"> </tspan></text>
    <text class="cls-1" transform="translate(257.64 177.01) rotate(104.49)"><tspan x="0" y="0">M</tspan></text>
    <text class="cls-1" transform="translate(256.6 181) rotate(106.24)"><tspan x="0" y="0">a</tspan></text>
    <text class="cls-1" transform="translate(255.89 183.45) rotate(107.52)"><tspan x="0" y="0">n</tspan></text>
    <text class="cls-1" transform="translate(255.17 185.69) rotate(108.48)"><tspan x="0" y="0">,</tspan></text>
    <text class="cls-1" transform="translate(254.77 186.89) rotate(109.17)"><tspan x="0" y="0">’</tspan></text>
    <text class="cls-1" transform="translate(254.32 188.2) rotate(109.87)"><tspan x="0" y="0"> </tspan></text>
    <text class="cls-1" transform="translate(253.87 189.45) rotate(110.9)"><tspan x="0" y="0">a</tspan></text>
    <text class="cls-1" transform="translate(252.96 191.83) rotate(111.9)"><tspan x="0" y="0"> </tspan></text>
    <text class="cls-1" transform="translate(252.47 193.06) rotate(113.14)"><tspan x="0" y="0">m</tspan></text>
    <text class="cls-1" transform="translate(251.14 196.16) rotate(114.69)"><tspan x="0" y="0">a</tspan></text>
    <text class="cls-1" transform="translate(250.08 198.48) rotate(116.03)"><tspan x="0" y="0">d</tspan></text>
    <text class="cls-1" transform="translate(248.95 200.78) rotate(117.05)"><tspan x="0" y="0"> </tspan></text>
    <text class="cls-1" transform="translate(248.35 201.97) rotate(117.86)"><tspan x="0" y="0">s</tspan></text>
    <text class="cls-1" transform="translate(247.54 203.49) rotate(118.85)"><tspan x="0" y="0">c</tspan></text>
    <text class="cls-1" transform="translate(246.55 205.28) rotate(119.67)"><tspan x="0" y="0">i</tspan></text>
    <text class="cls-1" transform="translate(246.04 206.2) rotate(120.56)"><tspan x="0" y="0">e</tspan></text>
    <text class="cls-1" transform="translate(244.83 208.24) rotate(121.8)"><tspan x="0" y="0">n</tspan></text>
    <text class="cls-1" transform="translate(243.59 210.23) rotate(122.73)"><tspan x="0" y="0">t</tspan></text>
    <text class="cls-1" transform="translate(242.96 211.21) rotate(123.32)"><tspan x="0" y="0">i</tspan></text>
    <text class="cls-1" transform="translate(242.38 212.1) rotate(124.06)"><tspan x="0" y="0">s</tspan></text>
    <text class="cls-1" transform="translate(241.41 213.52) rotate(124.82)"><tspan x="0" y="0">t</tspan></text>
    <text class="cls-1" transform="translate(240.75 214.48) rotate(125.47)"><tspan x="0" y="0"> </tspan></text>
    <text class="cls-1" transform="translate(240 215.55) rotate(126.71)"><tspan x="0" y="0">m</tspan></text>
    <text class="cls-1" transform="translate(237.97 218.26) rotate(128.28)"><tspan x="0" y="0">a</tspan></text>
    <text class="cls-1" transform="translate(236.39 220.26) rotate(129.58)"><tspan x="0" y="0">n</tspan></text>
    <text class="cls-1" transform="translate(234.89 222.08) rotate(130.89)"><tspan x="0" y="0">a</tspan></text>
    <text class="cls-1" transform="translate(233.22 224.01) rotate(132.24)"><tspan x="0" y="0">g</tspan></text>
    <text class="cls-1" transform="translate(231.5 225.9) rotate(133.54)"><tspan x="0" y="0">e</tspan></text>
    <text class="cls-1" transform="translate(229.87 227.61) rotate(134.63)"><tspan x="0" y="0">s</tspan></text>
    <text class="cls-1" transform="translate(228.64 228.86) rotate(135.45)"><tspan x="0" y="0"> </tspan></text>
    <text class="cls-1" transform="translate(227.71 229.77) rotate(136.11)"><tspan x="0" y="0">t</tspan></text>
    <text class="cls-1" transform="translate(226.84 230.61) rotate(137.12)"><tspan x="0" y="0">o</tspan></text>
    <text class="cls-1" transform="translate(224.96 232.35) rotate(138.14)"><tspan x="0" y="0"> </tspan></text>
    <text class="cls-1" transform="translate(224 233.22) rotate(138.79)"><tspan x="0" y="0">t</tspan></text>
    <text class="cls-1" transform="translate(223.11 234) rotate(139.73)"><tspan x="0" y="0">u</tspan></text>
    <text class="cls-1" transform="translate(221.34 235.49) rotate(140.76)"><tspan x="0" y="0">r</tspan></text>
    <text class="cls-1" transform="translate(220.06 236.55) rotate(141.84)"><tspan x="0" y="0">n</tspan></text>
    <text class="cls-1" transform="translate(218.21 237.99) rotate(142.81)"><tspan x="0" y="0"> </tspan></text>
    <text class="cls-1" transform="translate(217.16 238.79) rotate(143.77)"><tspan x="0" y="0">h</tspan></text>
    <text class="cls-1" transform="translate(215.26 240.18) rotate(144.68)"><tspan x="0" y="0">i</tspan></text>
    <text class="cls-1" transform="translate(214.4 240.8) rotate(145.85)"><tspan x="0" y="0">m</tspan></text>
    <text class="cls-1" transform="translate(211.61 242.69) rotate(147.18)"><tspan x="0" y="0">s</tspan></text>
    <text class="cls-1" transform="translate(210.15 243.63) rotate(148.26)"><tspan x="0" y="0">e</tspan></text>
    <text class="cls-1" transform="translate(208.14 244.87) rotate(149.15)"><tspan x="0" y="0">l</tspan></text>
    <text class="cls-1" transform="translate(207.22 245.42) rotate(149.76)"><tspan x="0" y="0">f</tspan></text>
    <text class="cls-1" transform="translate(206.15 246.04) rotate(150.42)"><tspan x="0" y="0"> </tspan></text>
    <text class="cls-1" transform="translate(204.99 246.7) rotate(151.04)"><tspan x="0" y="0">i</tspan></text>
    <text class="cls-1" transform="translate(204.06 247.21) rotate(151.51)"><tspan x="0" y="0">n</tspan></text>
    <text class="cls-1" transform="translate(202.06 248.3) rotate(153.37)"><tspan x="0" y="0">v</tspan></text>
    <text class="cls-1" transform="translate(200.14 249.26) rotate(153.88)"><tspan x="0" y="0">i</tspan></text>
    <text class="cls-1" transform="translate(199.19 249.73) rotate(154.6)"><tspan x="0" y="0">s</tspan></text>
    <text class="cls-1" transform="translate(197.6 250.48) rotate(155.34)"><tspan x="0" y="0">i</tspan></text>
    <text class="cls-1" transform="translate(196.66 250.92) rotate(156.28)"><tspan x="0" y="0">b</tspan></text>
    <text class="cls-1" transform="translate(194.32 251.94) rotate(157.22)"><tspan x="0" y="0">l</tspan></text>
    <text class="cls-1" transform="translate(193.33 252.36) rotate(158.13)"><tspan x="0" y="0">e</tspan></text>
    <text class="cls-1" transform="translate(191.13 253.24) rotate(159.1)"><tspan x="0" y="0">.</tspan></text>
    <text class="cls-1" transform="translate(189.91 253.71) rotate(159.79)"><tspan x="0" y="0"> </tspan></text>
    <text class="cls-1" transform="translate(188.68 254.17) rotate(160.96)"><tspan x="0" y="0">H</tspan></text>
    <text class="cls-1" transform="translate(185.71 255.19) rotate(162.41)"><tspan x="0" y="0">e</tspan></text>
    <text class="cls-1" transform="translate(183.47 255.9) rotate(163.38)"><tspan x="0" y="0"> </tspan></text>
    <text class="cls-1" transform="translate(182.2 256.29) rotate(164.61)"><tspan x="0" y="0">w</tspan></text>
    <text class="cls-1" transform="translate(179.01 257.16) rotate(165.91)"><tspan x="0" y="0">r</tspan></text>
    <text class="cls-1" transform="translate(177.5 257.54) rotate(166.99)"><tspan x="0" y="0">a</tspan></text>
    <text class="cls-1" transform="translate(175 258.12) rotate(168.35)"><tspan x="0" y="0">p</tspan></text>
    <text class="cls-1" transform="translate(172.48 258.63) rotate(169.49)"><tspan x="0" y="0">s</tspan></text>
    <text class="cls-1" transform="translate(170.8 258.94) rotate(170.29)"><tspan x="0" y="0"> </tspan></text>
    <text class="cls-1" transform="translate(169.5 259.17) rotate(171.27)"><tspan x="0" y="0">h</tspan></text>
    <text class="cls-1" transform="translate(167.18 259.52) rotate(172.17)"><tspan x="0" y="0">i</tspan></text>
    <text class="cls-1" transform="translate(166.15 259.67) rotate(173.34)"><tspan x="0" y="0">m</tspan></text>
    <text class="cls-1" transform="translate(162.77 260.06) rotate(174.71)"><tspan x="0" y="0">s</tspan></text>
    <text class="cls-1" transform="translate(161.07 260.22) rotate(175.78)"><tspan x="0" y="0">e</tspan></text>
    <text class="cls-1" transform="translate(158.68 260.39) rotate(176.7)"><tspan x="0" y="0">l</tspan></text>
    <text class="cls-1" transform="translate(157.63 260.45) rotate(177.32)"><tspan x="0" y="0">f</tspan></text>
    <text class="cls-1" transform="translate(156.38 260.51) rotate(177.99)"><tspan x="0" y="0"> </tspan></text>
    <text class="cls-1" transform="translate(155.05 260.56) rotate(178.97)"><tspan x="0" y="0">e</tspan></text>
    <text class="cls-1" transform="translate(152.7 260.6) rotate(-179.79)"><tspan x="0" y="0">n</tspan></text>
    <text class="cls-1" transform="translate(150.34 260.59) rotate(-178.85)"><tspan x="0" y="0">t</tspan></text>
    <text class="cls-1" transform="translate(149.17 260.57) rotate(-178.27)"><tspan x="0" y="0">i</tspan></text>
    <text class="cls-1" transform="translate(148.13 260.54) rotate(-177.58)"><tspan x="0" y="0">r</tspan></text>
    <text class="cls-1" transform="translate(146.55 260.47) rotate(-176.54)"><tspan x="0" y="0">e</tspan></text>
    <text class="cls-1" transform="translate(144.2 260.33) rotate(-175.64)"><tspan x="0" y="0">l</tspan></text>
    <text class="cls-1" transform="translate(143.09 260.25) rotate(-174.72)"><tspan x="0" y="0">y</tspan></text>
    <text class="cls-1" transform="translate(140.8 260.03) rotate(-173.78)"><tspan x="0" y="0"> </tspan></text>
    <text class="cls-1" transform="translate(139.49 259.89) rotate(-173.15)"><tspan x="0" y="0">i</tspan></text>
    <text class="cls-1" transform="translate(138.42 259.77) rotate(-172.25)"><tspan x="0" y="0">n</tspan></text>
    <text class="cls-1" transform="translate(136.09 259.44) rotate(-171.28)"><tspan x="0" y="0"> </tspan></text>
    <text class="cls-1" transform="translate(134.79 259.25) rotate(-170.41)"><tspan x="0" y="0">c</tspan></text>
    <text class="cls-1" transform="translate(132.8 258.91) rotate(-169.6)"><tspan x="0" y="0">l</tspan></text>
    <text class="cls-1" transform="translate(131.76 258.72) rotate(-168.65)"><tspan x="0" y="0">o</tspan></text>
    <text class="cls-1" transform="translate(129.21 258.2) rotate(-167.65)"><tspan x="0" y="0">t</tspan></text>
    <text class="cls-1" transform="translate(127.99 257.94) rotate(-166.69)"><tspan x="0" y="0">h</tspan></text>
    <text class="cls-1" transform="translate(125.72 257.4) rotate(-165.81)"><tspan x="0" y="0">i</tspan></text>
    <text class="cls-1" transform="translate(124.68 257.14) rotate(-164.91)"><tspan x="0" y="0">n</tspan></text>
    <text class="cls-1" transform="translate(122.42 256.53) rotate(-163.63)"><tspan x="0" y="0">g</tspan></text>
    <text class="cls-1" transform="translate(119.97 255.81) rotate(-162.61)"><tspan x="0" y="0"> </tspan></text>
    <text class="cls-1" transform="translate(118.71 255.41) rotate(-161.81)"><tspan x="0" y="0">s</tspan></text>
    <text class="cls-1" transform="translate(117.07 254.88) rotate(-160.69)"><tspan x="0" y="0">o</tspan></text>
    <text class="cls-1" transform="translate(114.65 254.03) rotate(-159.68)"><tspan x="0" y="0"> </tspan></text>
    <text class="cls-1" transform="translate(113.4 253.56) rotate(-159.02)"><tspan x="0" y="0">t</tspan></text>
    <text class="cls-1" transform="translate(112.23 253.12) rotate(-158.06)"><tspan x="0" y="0">h</tspan></text>
    <text class="cls-1" transform="translate(110.06 252.25) rotate(-156.77)"><tspan x="0" y="0">a</tspan></text>
    <text class="cls-1" transform="translate(107.71 251.23) rotate(-155.8)"><tspan x="0" y="0">t</tspan></text>
    <text class="cls-1" transform="translate(106.65 250.76) rotate(-155.14)"><tspan x="0" y="0"> </tspan></text>
    <text class="cls-1" transform="translate(105.44 250.2) rotate(-154.18)"><tspan x="0" y="0">h</tspan></text>
    <text class="cls-1" transform="translate(103.36 249.19) rotate(-152.96)"><tspan x="0" y="0">e</tspan></text>
    <text class="cls-1" transform="translate(101.25 248.12) rotate(-151.99)"><tspan x="0" y="0"> </tspan></text>
    <text class="cls-1" transform="translate(100.09 247.5) rotate(-151.11)"><tspan x="0" y="0">c</tspan></text>
    <text class="cls-1" transform="translate(98.31 246.52) rotate(-149.9)"><tspan x="0" y="0">a</tspan></text>
    <text class="cls-1" transform="translate(96.09 245.23) rotate(-148.61)"><tspan x="0" y="0">n</tspan></text>
    <text class="cls-1" transform="translate(94.09 244.01) rotate(-147.64)"><tspan x="0" y="0"> </tspan></text>
    <text class="cls-1" transform="translate(92.97 243.31) rotate(-146.62)"><tspan x="0" y="0">p</tspan></text>
    <text class="cls-1" transform="translate(90.84 241.89) rotate(-145.52)"><tspan x="0" y="0">r</tspan></text>
    <text class="cls-1" transform="translate(89.54 241.01) rotate(-144.49)"><tspan x="0" y="0">e</tspan></text>
    <text class="cls-1" transform="translate(87.62 239.64) rotate(-143.41)"><tspan x="0" y="0">s</tspan></text>
    <text class="cls-1" transform="translate(86.24 238.61) rotate(-142.33)"><tspan x="0" y="0">e</tspan></text>
    <text class="cls-1" transform="translate(84.36 237.16) rotate(-141.08)"><tspan x="0" y="0">n</tspan></text>
    <text class="cls-1" transform="translate(82.56 235.7) rotate(-140.16)"><tspan x="0" y="0">t</tspan></text>
    <text class="cls-1" transform="translate(81.66 234.95) rotate(-139.5)"><tspan x="0" y="0"> </tspan></text>
    <text class="cls-1" transform="translate(80.65 234.09) rotate(-138.46)"><tspan x="0" y="0">a</tspan></text>
    <text class="cls-1" transform="translate(78.72 232.38) rotate(-137.32)"><tspan x="0" y="0">s</tspan></text>
    <text class="cls-1" transform="translate(77.47 231.22) rotate(-136.52)"><tspan x="0" y="0"> </tspan></text>
    <text class="cls-1" transform="translate(76.51 230.32) rotate(-135.75)"><tspan x="0" y="0">r</tspan></text>
    <text class="cls-1" transform="translate(75.38 229.22) rotate(-134.71)"><tspan x="0" y="0">e</tspan></text>
    <text class="cls-1" transform="translate(73.72 227.54) rotate(-133.54)"><tspan x="0" y="0">c</tspan></text>
    <text class="cls-1" transform="translate(72.32 226.08) rotate(-132.32)"><tspan x="0" y="0">o</tspan></text>
    <text class="cls-1" transform="translate(70.59 224.18) rotate(-130.96)"><tspan x="0" y="0">g</tspan></text>
    <text class="cls-1" transform="translate(68.92 222.25) rotate(-129.66)"><tspan x="0" y="0">n</tspan></text>
    <text class="cls-1" transform="translate(67.43 220.44) rotate(-128.77)"><tspan x="0" y="0">i</tspan></text>
    <text class="cls-1" transform="translate(66.76 219.62) rotate(-127.87)"><tspan x="0" y="0">z</tspan></text>
    <text class="cls-1" transform="translate(65.33 217.78) rotate(-126.58)"><tspan x="0" y="0">a</tspan></text>
    <text class="cls-1" transform="translate(63.8 215.72) rotate(-125.22)"><tspan x="0" y="0">b</tspan></text>
    <text class="cls-1" transform="translate(62.32 213.61) rotate(-124.26)"><tspan x="0" y="0">l</tspan></text>
    <text class="cls-1" transform="translate(61.7 212.72) rotate(-123.36)"><tspan x="0" y="0">y</tspan></text>
    <text class="cls-1" transform="translate(60.43 210.78) rotate(-122.41)"><tspan x="0" y="0"> </tspan></text>
    <text class="cls-1" transform="translate(59.73 209.69) rotate(-121.46)"><tspan x="0" y="0">h</tspan></text>
    <text class="cls-1" transform="translate(58.5 207.68) rotate(-120.24)"><tspan x="0" y="0">u</tspan></text>
    <text class="cls-1" transform="translate(57.34 205.69) rotate(-118.76)"><tspan x="0" y="0">m</tspan></text>
    <text class="cls-1" transform="translate(55.69 202.71) rotate(-116.63)"><tspan x="0" y="0">a</tspan></text>
    <text class="cls-1" transform="translate(54.53 200.43) rotate(-115.95)"><tspan x="0" y="0">n</tspan></text>
    <text class="cls-1" transform="translate(53.51 198.31) rotate(-115)"><tspan x="0" y="0">.</tspan></text>
    <text class="cls-1" transform="translate(52.96 197.13) rotate(-114.32)"><tspan x="0" y="0"> </tspan></text>
    <text class="cls-1" transform="translate(52.41 195.93) rotate(-113.15)"><tspan x="0" y="0">H</tspan></text>
    <text class="cls-1" transform="translate(51.18 193.05) rotate(-111.72)"><tspan x="0" y="0">e</tspan></text>
    <text class="cls-1" transform="translate(50.3 190.84) rotate(-110.74)"><tspan x="0" y="0"> </tspan></text>
    <text class="cls-1" transform="translate(49.84 189.62) rotate(-110.13)"><tspan x="0" y="0">i</tspan></text>
    <text class="cls-1" transform="translate(49.48 188.63) rotate(-109.39)"><tspan x="0" y="0">s</tspan></text>
    <text class="cls-1" transform="translate(48.9 186.99) rotate(-108.58)"><tspan x="0" y="0"> </tspan></text>
    <text class="cls-1" transform="translate(48.49 185.75) rotate(-107.91)"><tspan x="0" y="0">f</tspan></text>
    <text class="cls-1" transform="translate(48.07 184.5) rotate(-106.86)"><tspan x="0" y="0">o</tspan></text>
    <text class="cls-1" transform="translate(47.33 182.02) rotate(-105.75)"><tspan x="0" y="0">r</tspan></text>
    <text class="cls-1" transform="translate(46.9 180.52) rotate(-104.81)"><tspan x="0" y="0">c</tspan></text>
    <text class="cls-1" transform="translate(46.38 178.57) rotate(-103.65)"><tspan x="0" y="0">e</tspan></text>
    <text class="cls-1" transform="translate(45.83 176.27) rotate(-102.34)"><tspan x="0" y="0">d</tspan></text>
    <text class="cls-1" transform="translate(45.28 173.76) rotate(-101.31)"><tspan x="0" y="0"> </tspan></text>
    <text class="cls-1" transform="translate(45.03 172.49) rotate(-100.66)"><tspan x="0" y="0">t</tspan></text>
    <text class="cls-1" transform="translate(44.8 171.3) rotate(-99.64)"><tspan x="0" y="0">o</tspan></text>
    <text class="cls-1" transform="translate(44.38 168.78) rotate(-98.62)"><tspan x="0" y="0"> </tspan></text>
    <text class="cls-1" transform="translate(44.17 167.47) rotate(-97.58)"><tspan x="0" y="0">o</tspan></text>
    <text class="cls-1" transform="translate(43.83 164.94) rotate(-96.23)"><tspan x="0" y="0">b</tspan></text>
    <text class="cls-1" transform="translate(43.56 162.38) rotate(-95.08)"><tspan x="0" y="0">s</tspan></text>
    <text class="cls-1" transform="translate(43.4 160.65) rotate(-94.09)"><tspan x="0" y="0">c</tspan></text>
    <text class="cls-1" transform="translate(43.26 158.62) rotate(-92.93)"><tspan x="0" y="0">u</tspan></text>
    <text class="cls-1" transform="translate(43.14 156.31) rotate(-91.9)"><tspan x="0" y="0">r</tspan></text>
    <text class="cls-1" transform="translate(43.09 154.74) rotate(-90.86)"><tspan x="0" y="0">e</tspan></text>
    <text class="cls-1" transform="translate(43.06 152.38) rotate(-89.9)"><tspan x="0" y="0"> </tspan></text>
    <text class="cls-1" transform="translate(43.05 151.05) rotate(-88.92)"><tspan x="0" y="0">h</tspan></text>
    <text class="cls-1" transform="translate(43.1 148.72) rotate(-88.03)"><tspan x="0" y="0">i</tspan></text>
    <text class="cls-1" transform="translate(43.14 147.66) rotate(-87.29)"><tspan x="0" y="0">s</tspan></text>
    <text class="cls-1" transform="translate(43.22 145.94) rotate(-86.49)"><tspan x="0" y="0"> </tspan></text>
    <text class="cls-1" transform="translate(43.3 144.63) rotate(-85.87)"><tspan x="0" y="0">i</tspan></text>
    <text class="cls-1" transform="translate(43.37 143.56) rotate(-84.91)"><tspan x="0" y="0">d</tspan></text>
    <text class="cls-1" transform="translate(43.6 140.99) rotate(-83.6)"><tspan x="0" y="0">e</tspan></text>
    <text class="cls-1" transform="translate(43.86 138.67) rotate(-82.38)"><tspan x="0" y="0">n</tspan></text>
    <text class="cls-1" transform="translate(44.18 136.34) rotate(-81.46)"><tspan x="0" y="0">t</tspan></text>
    <text class="cls-1" transform="translate(44.35 135.18) rotate(-80.87)"><tspan x="0" y="0">i</tspan></text>
    <text class="cls-1" transform="translate(44.52 134.12) rotate(-80.28)"><tspan x="0" y="0">t</tspan></text>
    <text class="cls-1" transform="translate(44.71 132.98) rotate(-79.37)"><tspan x="0" y="0">y</tspan></text>
    <text class="cls-1" transform="translate(45.14 130.7) rotate(-78.41)"><tspan x="0" y="0"> </tspan></text>
    <text class="cls-1" transform="translate(45.41 129.41) rotate(-77.79)"><tspan x="0" y="0">i</tspan></text>
    <text class="cls-1" transform="translate(45.63 128.37) rotate(-76.9)"><tspan x="0" y="0">n</tspan></text>
    <text class="cls-1" transform="translate(46.17 126.08) rotate(-75.93)"><tspan x="0" y="0"> </tspan></text>
    <text class="cls-1" transform="translate(46.48 124.83) rotate(-74.93)"><tspan x="0" y="0">o</tspan></text>
    <text class="cls-1" transform="translate(47.15 122.35) rotate(-73.84)"><tspan x="0" y="0">r</tspan></text>
    <text class="cls-1" transform="translate(47.58 120.84) rotate(-72.76)"><tspan x="0" y="0">d</tspan></text>
    <text class="cls-1" transform="translate(48.34 118.39) rotate(-71.47)"><tspan x="0" y="0">e</tspan></text>
    <text class="cls-1" transform="translate(49.1 116.15) rotate(-70.44)"><tspan x="0" y="0">r</tspan></text>
    <text class="cls-1" transform="translate(49.63 114.65) rotate(-69.68)"><tspan x="0" y="0"> </tspan></text>
    <text class="cls-1" transform="translate(50.09 113.4) rotate(-69.02)"><tspan x="0" y="0">t</tspan></text>
    <text class="cls-1" transform="translate(50.51 112.3) rotate(-68.03)"><tspan x="0" y="0">o</tspan></text>
    <text class="cls-1" transform="translate(51.48 109.9) rotate(-67.01)"><tspan x="0" y="0"> </tspan></text>
    <text class="cls-1" transform="translate(51.99 108.7) rotate(-66.25)"><tspan x="0" y="0">r</tspan></text>
    <text class="cls-1" transform="translate(52.61 107.27) rotate(-65.23)"><tspan x="0" y="0">e</tspan></text>
    <text class="cls-1" transform="translate(53.57 105.19) rotate(-64.08)"><tspan x="0" y="0">v</tspan></text>
    <text class="cls-1" transform="translate(54.48 103.32) rotate(-62.94)"><tspan x="0" y="0">e</tspan></text>
    <text class="cls-1" transform="translate(55.55 101.22) rotate(-61.65)"><tspan x="0" y="0">a</tspan></text>
    <text class="cls-1" transform="translate(56.77 98.98) rotate(-60.7)"><tspan x="0" y="0">l</tspan></text>
    <text class="cls-1" transform="translate(57.3 98.04) rotate(-60.06)"><tspan x="0" y="0"> </tspan></text>
    <text class="cls-1" transform="translate(57.95 96.9) rotate(-59.44)"><tspan x="0" y="0">i</tspan></text>
    <text class="cls-1" transform="translate(58.5 95.97) rotate(-58.84)"><tspan x="0" y="0">t</tspan></text>
    <text class="cls-1" transform="translate(59.1 94.98) rotate(-58.2)"><tspan x="0" y="0">.</tspan></text>
    <text class="cls-1" transform="translate(59.79 93.87) rotate(-57.5)"><tspan x="0" y="0"> </tspan></text>
    <text class="cls-1" transform="translate(60.48 92.76) rotate(-56.33)"><tspan x="0" y="0">H</tspan></text>
    <text class="cls-1" transform="translate(62.23 90.15) rotate(-54.88)"><tspan x="0" y="0">e</tspan></text>
    <text class="cls-1" transform="translate(63.6 88.21) rotate(-53.9)"><tspan x="0" y="0"> </tspan></text>
    <text class="cls-1" transform="translate(64.35 87.16) rotate(-52.94)"><tspan x="0" y="0">e</tspan></text>
    <text class="cls-1" transform="translate(65.78 85.28) rotate(-51.69)"><tspan x="0" y="0">n</tspan></text>
    <text class="cls-1" transform="translate(67.23 83.43) rotate(-50.39)"><tspan x="0" y="0">a</tspan></text>
    <text class="cls-1" transform="translate(68.87 81.46) rotate(-49.17)"><tspan x="0" y="0">c</tspan></text>
    <text class="cls-1" transform="translate(70.2 79.92) rotate(-48.32)"><tspan x="0" y="0">t</tspan></text>
    <text class="cls-1" transform="translate(70.98 79.04) rotate(-47.55)"><tspan x="0" y="0">s</tspan></text>
    <text class="cls-1" transform="translate(72.15 77.77) rotate(-46.74)"><tspan x="0" y="0"> </tspan></text>
    <text class="cls-1" transform="translate(73.06 76.81) rotate(-46.08)"><tspan x="0" y="0">t</tspan></text>
    <text class="cls-1" transform="translate(73.92 75.91) rotate(-45.1)"><tspan x="0" y="0">h</tspan></text>
    <text class="cls-1" transform="translate(75.56 74.25) rotate(-43.86)"><tspan x="0" y="0">e</tspan></text>
    <text class="cls-1" transform="translate(77.28 72.61) rotate(-42.88)"><tspan x="0" y="0"> </tspan></text>
    <text class="cls-1" transform="translate(78.25 71.71) rotate(-42.25)"><tspan x="0" y="0">i</tspan></text>
    <text class="cls-1" transform="translate(79.01 71) rotate(-41.07)"><tspan x="0" y="0">m</tspan></text>
    <text class="cls-1" transform="translate(81.62 68.74) rotate(-39.46)"><tspan x="0" y="0">p</tspan></text>
    <text class="cls-1" transform="translate(83.58 67.13) rotate(-38.12)"><tspan x="0" y="0">o</tspan></text>
    <text class="cls-1" transform="translate(85.62 65.53) rotate(-36.97)"><tspan x="0" y="0">s</tspan></text>
    <text class="cls-1" transform="translate(86.98 64.51) rotate(-36.07)"><tspan x="0" y="0">s</tspan></text>
    <text class="cls-1" transform="translate(88.39 63.48) rotate(-35.32)"><tspan x="0" y="0">i</tspan></text>
    <text class="cls-1" transform="translate(89.24 62.87) rotate(-34.38)"><tspan x="0" y="0">b</tspan></text>
    <text class="cls-1" transform="translate(91.36 61.43) rotate(-33.43)"><tspan x="0" y="0">l</tspan></text>
    <text class="cls-1" transform="translate(92.25 60.83) rotate(-32.52)"><tspan x="0" y="0">e</tspan></text>
    <text class="cls-1" transform="translate(94.24 59.57) rotate(-31.56)"><tspan x="0" y="0"> </tspan></text>
    <text class="cls-1" transform="translate(95.38 58.87) rotate(-30.76)"><tspan x="0" y="0">s</tspan></text>
    <text class="cls-1" transform="translate(96.85 57.99) rotate(-29.65)"><tspan x="0" y="0">p</tspan></text>
    <text class="cls-1" transform="translate(99.09 56.72) rotate(-28.71)"><tspan x="0" y="0">l</tspan></text>
    <text class="cls-1" transform="translate(100.03 56.21) rotate(-28.49)"><tspan x="0" y="0">i</tspan><tspan x="1.04" y=".01">t</tspan></text>
    <text class="cls-1" transform="translate(102.11 55.1) rotate(-26.63)"><tspan x="0" y="0">:</tspan></text>
    <text class="cls-1" transform="translate(103.3 54.5) rotate(-26.18)"><tspan x="0" y="0"> </tspan></text>
    <text class="cls-1" transform="translate(104.46 53.93) rotate(-25.18)"><tspan x="0" y="0">a</tspan></text>
    <text class="cls-1" transform="translate(106.8 52.83) rotate(-24.16)"><tspan x="0" y="0"> </tspan></text>
    <text class="cls-1" transform="translate(108 52.29) rotate(-23.37)"><tspan x="0" y="0">s</tspan></text>
    <text class="cls-1" transform="translate(109.57 51.61) rotate(-22.25)"><tspan x="0" y="0">o</tspan></text>
    <text class="cls-1" transform="translate(111.96 50.64) rotate(-20.96)"><tspan x="0" y="0">u</tspan></text>
    <text class="cls-1" transform="translate(114.13 49.81) rotate(-20.07)"><tspan x="0" y="0">l</tspan></text>
    <text class="cls-1" transform="translate(115.14 49.44) rotate(-19.44)"><tspan x="0" y="0"> </tspan></text>
    <text class="cls-1" transform="translate(116.36 48.99) rotate(-18.22)"><tspan x="0" y="0">w</tspan></text>
    <text class="cls-1" transform="translate(119.5 47.97) rotate(-17.07)"><tspan x="0" y="0">i</tspan></text>
    <text class="cls-1" transform="translate(120.52 47.66) rotate(-16.48)"><tspan x="0" y="0">t</tspan></text>
    <text class="cls-1" transform="translate(121.72 47.3) rotate(-15.5)"><tspan x="0" y="0">h</tspan></text>
    <text class="cls-1" transform="translate(123.97 46.68) rotate(-14.54)"><tspan x="0" y="0"> </tspan></text>
    <text class="cls-1" transform="translate(125.27 46.34) rotate(-13.56)"><tspan x="0" y="0">n</tspan></text>
    <text class="cls-1" transform="translate(127.52 45.79) rotate(-12.26)"><tspan x="0" y="0">o</tspan></text>
    <text class="cls-1" transform="translate(130.02 45.26) rotate(-11.24)"><tspan x="0" y="0"> </tspan></text>
    <text class="cls-1" transform="translate(131.33 44.99) rotate(-10.34)"><tspan x="0" y="0">c</tspan></text>
    <text class="cls-1" transform="translate(133.33 44.63) rotate(-9.12)"><tspan x="0" y="0">o</tspan></text>
    <text class="cls-1" transform="translate(135.87 44.22) rotate(-7.82)"><tspan x="0" y="0">n</tspan></text>
    <text class="cls-1" transform="translate(138.18 43.91) rotate(-6.89)"><tspan x="0" y="0">t</tspan></text>
    <text class="cls-1" transform="translate(139.38 43.76) rotate(-5.88)"><tspan x="0" y="0">a</tspan></text>
    <text class="cls-1" transform="translate(141.92 43.5) rotate(-4.92)"><tspan x="0" y="0">i</tspan></text>
    <text class="cls-1" transform="translate(142.97 43.4) rotate(-4.02)"><tspan x="0" y="0">n</tspan></text>
    <text class="cls-1" transform="translate(145.31 43.24) rotate(-2.77)"><tspan x="0" y="0">e</tspan></text>
    <text class="cls-1" transform="translate(147.67 43.13) rotate(-1.73)"><tspan x="0" y="0">r</tspan></text>
    <text class="cls-1" transform="translate(149.05 43.09) rotate(-1.07)"><tspan x="0" y="0">.</tspan></text>
  </g>
</svg>