<?xml version="1.0" encoding="UTF-8"?>
<svg id="Layer_2" data-name="Layer 2" xmlns="http://www.w3.org/2000/svg" viewBox="0 0 256.78 256.8">
  <defs>
    <style>
      .cls-1 {
        fill: #231f20;
        font-family: Futura-Medium, Futura;
        font-size: 3.8px;
        font-weight: 500;
      }
    </style>
  </defs>
  <g id="Layer_20" data-name="Layer 20">
    <text class="cls-1" transform="translate(81.24 205.07) rotate(-147.48)"><tspan x="0" y="0">L</tspan></text>
    <text class="cls-1" transform="translate(79.84 204.19) rotate(-146.66)"><tspan x="0" y="0">a</tspan></text>
    <text class="cls-1" transform="translate(77.91 202.92) rotate(-145.28)"><tspan x="0" y="0">y</tspan></text>
    <text class="cls-1" transform="translate(76.27 201.78) rotate(-144.01)"><tspan x="0" y="0">e</tspan></text>
    <text class="cls-1" transform="translate(74.58 200.55) rotate(-142.9)"><tspan x="0" y="0">r</tspan></text>
    <text class="cls-1" transform="translate(73.46 199.7) rotate(-142.09)"><tspan x="0" y="0"> </tspan></text>
    <text class="cls-1" transform="translate(72.55 199) rotate(-140.98)"><tspan x="0" y="0">2</tspan></text>
    <text class="cls-1" transform="translate(70.73 197.53) rotate(-139.5)"><tspan x="0" y="0">0</tspan></text>
    <text class="cls-1" transform="translate(68.95 196) rotate(-138.37)"><tspan x="0" y="0"> </tspan></text>
    <text class="cls-1" transform="translate(68.09 195.24) rotate(-137.65)"><tspan x="0" y="0">I</tspan></text>
    <text class="cls-1" transform="translate(67.27 194.5) rotate(-136.58)"><tspan x="0" y="0">p</tspan></text>
    <text class="cls-1" transform="translate(65.61 192.92) rotate(-135.34)"><tspan x="0" y="0">s</tspan></text>
    <text class="cls-1" transform="translate(64.53 191.86) rotate(-134.2)"><tspan x="0" y="0">u</tspan></text>
    <text class="cls-1" transform="translate(63.08 190.38) rotate(-132.58)"><tspan x="0" y="0">m</tspan></text>
    <text class="cls-1" transform="translate(61.08 188.18) rotate(-131.25)"><tspan x="0" y="0"> </tspan></text>
    <text class="cls-1" transform="translate(60.3 187.29) rotate(-130.33)"><tspan x="0" y="0">L</tspan></text>
    <text class="cls-1" transform="translate(59.22 186.03) rotate(-129.07)"><tspan x="0" y="0">o</tspan></text>
    <text class="cls-1" transform="translate(57.8 184.27) rotate(-127.9)"><tspan x="0" y="0">r</tspan></text>
    <text class="cls-1" transform="translate(56.95 183.19) rotate(-126.8)"><tspan x="0" y="0">e</tspan></text>
    <text class="cls-1" transform="translate(55.69 181.52) rotate(-125.18)"><tspan x="0" y="0">m</tspan></text>
    <text class="cls-1" transform="translate(53.97 179.06) rotate(-123.84)"><tspan x="0" y="0"> </tspan></text>
    <text class="cls-1" transform="translate(53.33 178.1) rotate(-123.12)"><tspan x="0" y="0">I</tspan></text>
    <text class="cls-1" transform="translate(52.71 177.16) rotate(-122.03)"><tspan x="0" y="0">p</tspan></text>
    <text class="cls-1" transform="translate(51.51 175.23) rotate(-120.81)"><tspan x="0" y="0">s</tspan></text>
    <text class="cls-1" transform="translate(50.73 173.94) rotate(-119.68)"><tspan x="0" y="0">u</tspan></text>
    <text class="cls-1" transform="translate(49.71 172.15) rotate(-118.07)"><tspan x="0" y="0">m</tspan></text>
    <text class="cls-1" transform="translate(48.3 169.49) rotate(-116.74)"><tspan x="0" y="0"> </tspan></text>
    <text class="cls-1" transform="translate(47.78 168.47) rotate(-115.84)"><tspan x="0" y="0">L</tspan></text>
    <text class="cls-1" transform="translate(47.05 166.96) rotate(-114.58)"><tspan x="0" y="0">o</tspan></text>
    <text class="cls-1" transform="translate(46.11 164.9) rotate(-113.42)"><tspan x="0" y="0">r</tspan></text>
    <text class="cls-1" transform="translate(45.56 163.63) rotate(-112.33)"><tspan x="0" y="0">e</tspan></text>
    <text class="cls-1" transform="translate(44.76 161.7) rotate(-110.72)"><tspan x="0" y="0">m</tspan></text>
    <text class="cls-1" transform="translate(43.7 158.88) rotate(-109.39)"><tspan x="0" y="0"> </tspan></text>
    <text class="cls-1" transform="translate(43.32 157.81) rotate(-108.68)"><tspan x="0" y="0">I</tspan></text>
    <text class="cls-1" transform="translate(42.96 156.76) rotate(-107.62)"><tspan x="0" y="0">p</tspan></text>
    <text class="cls-1" transform="translate(42.28 154.59) rotate(-106.41)"><tspan x="0" y="0">s</tspan></text>
    <text class="cls-1" transform="translate(41.84 153.11) rotate(-105.27)"><tspan x="0" y="0">u</tspan></text>
    <text class="cls-1" transform="translate(41.3 151.16) rotate(-103.69)"><tspan x="0" y="0">m</tspan></text>
    <text class="cls-1" transform="translate(40.6 148.23) rotate(-102.36)"><tspan x="0" y="0"> </tspan></text>
    <text class="cls-1" transform="translate(40.35 147.1) rotate(-101.47)"><tspan x="0" y="0">L</tspan></text>
    <text class="cls-1" transform="translate(40.01 145.47) rotate(-100.23)"><tspan x="0" y="0">o</tspan></text>
    <text class="cls-1" transform="translate(39.61 143.22) rotate(-99.05)"><tspan x="0" y="0">r</tspan></text>
    <text class="cls-1" transform="translate(39.39 141.86) rotate(-97.96)"><tspan x="0" y="0">e</tspan></text>
    <text class="cls-1" transform="translate(39.1 139.8) rotate(-96.36)"><tspan x="0" y="0">m</tspan></text>
    <text class="cls-1" transform="translate(38.77 136.8) rotate(-95.03)"><tspan x="0" y="0"> </tspan></text>
    <text class="cls-1" transform="translate(38.67 135.66) rotate(-94.32)"><tspan x="0" y="0">I</tspan></text>
    <text class="cls-1" transform="translate(38.58 134.55) rotate(-93.25)"><tspan x="0" y="0">p</tspan></text>
    <text class="cls-1" transform="translate(38.46 132.29) rotate(-92.04)"><tspan x="0" y="0">s</tspan></text>
    <text class="cls-1" transform="translate(38.4 130.76) rotate(-90.9)"><tspan x="0" y="0">u</tspan></text>
    <text class="cls-1" transform="translate(38.36 128.7) rotate(-89.29)"><tspan x="0" y="0">m</tspan></text>
    <text class="cls-1" transform="translate(38.41 125.7) rotate(-87.96)"><tspan x="0" y="0"> </tspan></text>
    <text class="cls-1" transform="translate(38.45 124.56) rotate(-87.07)"><tspan x="0" y="0">L</tspan></text>
    <text class="cls-1" transform="translate(38.53 122.89) rotate(-85.81)"><tspan x="0" y="0">o</tspan></text>
    <text class="cls-1" transform="translate(38.7 120.63) rotate(-84.64)"><tspan x="0" y="0">r</tspan></text>
    <text class="cls-1" transform="translate(38.83 119.23) rotate(-83.53)"><tspan x="0" y="0">e</tspan></text>
    <text class="cls-1" transform="translate(39.06 117.17) rotate(-81.91)"><tspan x="0" y="0">m</tspan></text>
    <text class="cls-1" transform="translate(39.49 114.19) rotate(-80.57)"><tspan x="0" y="0"> </tspan></text>
    <text class="cls-1" transform="translate(39.68 113.05) rotate(-79.84)"><tspan x="0" y="0">I</tspan></text>
    <text class="cls-1" transform="translate(39.87 111.96) rotate(-78.76)"><tspan x="0" y="0">p</tspan></text>
    <text class="cls-1" transform="translate(40.31 109.74) rotate(-77.55)"><tspan x="0" y="0">s</tspan></text>
    <text class="cls-1" transform="translate(40.64 108.25) rotate(-76.4)"><tspan x="0" y="0">u</tspan></text>
    <text class="cls-1" transform="translate(41.12 106.25) rotate(-74.78)"><tspan x="0" y="0">m</tspan></text>
    <text class="cls-1" transform="translate(41.91 103.37) rotate(-73.29)"><tspan x="0" y="0">L</tspan></text>
    <text class="cls-1" transform="translate(42.39 101.75) rotate(-72.01)"><tspan x="0" y="0">o</tspan></text>
    <text class="cls-1" transform="translate(43.09 99.62) rotate(-70.85)"><tspan x="0" y="0">r</tspan></text>
    <text class="cls-1" transform="translate(43.55 98.28) rotate(-69.73)"><tspan x="0" y="0">e</tspan></text>
    <text class="cls-1" transform="translate(44.26 96.33) rotate(-68.11)"><tspan x="0" y="0">m</tspan></text>
    <text class="cls-1" transform="translate(45.39 93.55) rotate(-66.78)"><tspan x="0" y="0"> </tspan></text>
    <text class="cls-1" transform="translate(45.85 92.49) rotate(-66.06)"><tspan x="0" y="0">I</tspan></text>
    <text class="cls-1" transform="translate(46.29 91.48) rotate(-64.99)"><tspan x="0" y="0">p</tspan></text>
    <text class="cls-1" transform="translate(47.25 89.42) rotate(-63.78)"><tspan x="0" y="0">s</tspan></text>
    <text class="cls-1" transform="translate(47.93 88.05) rotate(-62.65)"><tspan x="0" y="0">u</tspan></text>
    <text class="cls-1" transform="translate(48.86 86.23) rotate(-61.06)"><tspan x="0" y="0">m</tspan></text>
    <text class="cls-1" transform="translate(50.32 83.61) rotate(-59.6)"><tspan x="0" y="0">L</tspan></text>
    <text class="cls-1" transform="translate(51.15 82.15) rotate(-57.48)"><tspan x="0" y="0">o</tspan></text>
    <text class="cls-1" transform="translate(52.35 80.23) rotate(-57.22)"><tspan x="0" y="0">r</tspan></text>
    <text class="cls-1" transform="translate(53.1 79.07) rotate(-56.14)"><tspan x="0" y="0">e</tspan></text>
    <text class="cls-1" transform="translate(54.26 77.33) rotate(-54.53)"><tspan x="0" y="0">m</tspan></text>
    <text class="cls-1" transform="translate(56.01 74.89) rotate(-53.22)"><tspan x="0" y="0"> </tspan></text>
    <text class="cls-1" transform="translate(56.71 73.96) rotate(-52.5)"><tspan x="0" y="0">I</tspan></text>
    <text class="cls-1" transform="translate(57.37 73.09) rotate(-51.44)"><tspan x="0" y="0">p</tspan></text>
    <text class="cls-1" transform="translate(58.79 71.31) rotate(-50.22)"><tspan x="0" y="0">s</tspan></text>
    <text class="cls-1" transform="translate(59.76 70.14) rotate(-49.08)"><tspan x="0" y="0">u</tspan></text>
    <text class="cls-1" transform="translate(61.1 68.59) rotate(-47.47)"><tspan x="0" y="0">m</tspan></text>
    <text class="cls-1" transform="translate(63.14 66.37) rotate(-45.97)"><tspan x="0" y="0">L</tspan></text>
    <text class="cls-1" transform="translate(64.29 65.18) rotate(-44.72)"><tspan x="0" y="0">o</tspan></text>
    <text class="cls-1" transform="translate(65.91 63.59) rotate(-43.53)"><tspan x="0" y="0">r</tspan></text>
    <text class="cls-1" transform="translate(66.92 62.62) rotate(-42.42)"><tspan x="0" y="0">e</tspan></text>
    <text class="cls-1" transform="translate(68.44 61.21) rotate(-40.8)"><tspan x="0" y="0">m</tspan></text>
    <text class="cls-1" transform="translate(70.71 59.27) rotate(-39.47)"><tspan x="0" y="0"> </tspan></text>
    <text class="cls-1" transform="translate(71.61 58.53) rotate(-38.74)"><tspan x="0" y="0">I</tspan></text>
    <text class="cls-1" transform="translate(72.47 57.83) rotate(-37.66)"><tspan x="0" y="0">p</tspan></text>
    <text class="cls-1" transform="translate(74.27 56.45) rotate(-36.44)"><tspan x="0" y="0">s</tspan></text>
    <text class="cls-1" transform="translate(75.51 55.54) rotate(-35.29)"><tspan x="0" y="0">u</tspan></text>
    <text class="cls-1" transform="translate(77.19 54.34) rotate(-33.67)"><tspan x="0" y="0">m</tspan></text>
    <text class="cls-1" transform="translate(79.67 52.69) rotate(-32.18)"><tspan x="0" y="0">L</tspan></text>
    <text class="cls-1" transform="translate(81.09 51.79) rotate(-30.92)"><tspan x="0" y="0">o</tspan></text>
    <text class="cls-1" transform="translate(83.04 50.63) rotate(-29.75)"><tspan x="0" y="0">r</tspan></text>
    <text class="cls-1" transform="translate(84.22 49.95) rotate(-28.66)"><tspan x="0" y="0">e</tspan></text>
    <text class="cls-1" transform="translate(86.05 48.94) rotate(-27.04)"><tspan x="0" y="0">m</tspan></text>
    <text class="cls-1" transform="translate(88.72 47.6) rotate(-25.72)"><tspan x="0" y="0"> </tspan></text>
    <text class="cls-1" transform="translate(89.78 47.09) rotate(-24.99)"><tspan x="0" y="0">I</tspan></text>
    <text class="cls-1" transform="translate(90.78 46.61) rotate(-23.92)"><tspan x="0" y="0">p</tspan></text>
    <text class="cls-1" transform="translate(92.85 45.7) rotate(-22.71)"><tspan x="0" y="0">s</tspan></text>
    <text class="cls-1" transform="translate(94.26 45.1) rotate(-21.58)"><tspan x="0" y="0">u</tspan></text>
    <text class="cls-1" transform="translate(96.18 44.34) rotate(-19.97)"><tspan x="0" y="0">m</tspan></text>
    <text class="cls-1" transform="translate(98.99 43.32) rotate(-18.49)"><tspan x="0" y="0">L</tspan></text>
    <text class="cls-1" transform="translate(100.57 42.79) rotate(-17.25)"><tspan x="0" y="0">o</tspan></text>
    <text class="cls-1" transform="translate(102.75 42.12) rotate(-16.08)"><tspan x="0" y="0">r</tspan></text>
    <text class="cls-1" transform="translate(104.08 41.74) rotate(-14.99)"><tspan x="0" y="0">e</tspan></text>
    <text class="cls-1" transform="translate(106.09 41.19) rotate(-13.39)"><tspan x="0" y="0">m</tspan></text>
    <text class="cls-1" transform="translate(108.98 40.51) rotate(-12.09)"><tspan x="0" y="0"> </tspan></text>
    <text class="cls-1" transform="translate(110.13 40.27) rotate(-11.36)"><tspan x="0" y="0">I</tspan></text>
    <text class="cls-1" transform="translate(111.22 40.04) rotate(-10.29)"><tspan x="0" y="0">p</tspan></text>
    <text class="cls-1" transform="translate(113.44 39.64) rotate(-9.1)"><tspan x="0" y="0">s</tspan></text>
    <text class="cls-1" transform="translate(114.98 39.39) rotate(-7.94)"><tspan x="0" y="0">u</tspan></text>
    <text class="cls-1" transform="translate(116.99 39.1) rotate(-6.36)"><tspan x="0" y="0">m</tspan></text>
    <text class="cls-1" transform="translate(119.96 38.78) rotate(-4.88)"><tspan x="0" y="0">L</tspan></text>
    <text class="cls-1" transform="translate(121.62 38.64) rotate(-3.63)"><tspan x="0" y="0">o</tspan></text>
    <text class="cls-1" transform="translate(123.91 38.5) rotate(-2.45)"><tspan x="0" y="0">r</tspan></text>
    <text class="cls-1" transform="translate(125.29 38.43) rotate(-1.35)"><tspan x="0" y="0">e</tspan></text>
    <text class="cls-1" transform="translate(127.38 38.38) rotate(.26)"><tspan x="0" y="0">m</tspan></text>
    <text class="cls-1" transform="translate(130.37 38.4) rotate(1.58)"><tspan x="0" y="0"> </tspan></text>
    <text class="cls-1" transform="translate(131.52 38.43) rotate(2.3)"><tspan x="0" y="0">I</tspan></text>
    <text class="cls-1" transform="translate(132.64 38.47) rotate(3.38)"><tspan x="0" y="0">p</tspan></text>
    <text class="cls-1" transform="translate(134.91 38.61) rotate(4.6)"><tspan x="0" y="0">s</tspan></text>
    <text class="cls-1" transform="translate(136.41 38.73) rotate(5.73)"><tspan x="0" y="0">u</tspan></text>
    <text class="cls-1" transform="translate(138.46 38.93) rotate(7.35)"><tspan x="0" y="0">m</tspan></text>
    <text class="cls-1" transform="translate(141.43 39.32) rotate(8.84)"><tspan x="0" y="0">L</tspan></text>
    <text class="cls-1" transform="translate(143.1 39.58) rotate(10.11)"><tspan x="0" y="0">o</tspan></text>
    <text class="cls-1" transform="translate(145.31 39.98) rotate(11.28)"><tspan x="0" y="0">r</tspan></text>
    <text class="cls-1" transform="translate(146.67 40.24) rotate(12.39)"><tspan x="0" y="0">e</tspan></text>
    <text class="cls-1" transform="translate(148.72 40.69) rotate(14.02)"><tspan x="0" y="0">m</tspan></text>
    <text class="cls-1" transform="translate(151.62 41.42) rotate(15.36)"><tspan x="0" y="0"> </tspan></text>
    <text class="cls-1" transform="translate(152.75 41.73) rotate(16.09)"><tspan x="0" y="0">I</tspan></text>
    <text class="cls-1" transform="translate(153.8 42.03) rotate(17.16)"><tspan x="0" y="0">p</tspan></text>
    <text class="cls-1" transform="translate(155.98 42.71) rotate(18.39)"><tspan x="0" y="0">s</tspan></text>
    <text class="cls-1" transform="translate(157.42 43.18) rotate(19.53)"><tspan x="0" y="0">u</tspan></text>
    <text class="cls-1" transform="translate(159.37 43.86) rotate(21.15)"><tspan x="0" y="0">m</tspan></text>
    <text class="cls-1" transform="translate(162.15 44.95) rotate(22.47)"><tspan x="0" y="0"> </tspan></text>
    <text class="cls-1" transform="translate(163.22 45.39) rotate(23.38)"><tspan x="0" y="0">L</tspan></text>
    <text class="cls-1" transform="translate(164.77 46.06) rotate(24.64)"><tspan x="0" y="0">o</tspan></text>
    <text class="cls-1" transform="translate(166.81 47) rotate(25.79)"><tspan x="0" y="0">r</tspan></text>
    <text class="cls-1" transform="translate(168.08 47.61) rotate(26.9)"><tspan x="0" y="0">e</tspan></text>
    <text class="cls-1" transform="translate(169.92 48.53) rotate(28.48)"><tspan x="0" y="0">m</tspan></text>
    <text class="cls-1" transform="translate(172.56 49.98) rotate(29.8)"><tspan x="0" y="0"> </tspan></text>
    <text class="cls-1" transform="translate(173.56 50.55) rotate(30.5)"><tspan x="0" y="0">I</tspan></text>
    <text class="cls-1" transform="translate(174.52 51.13) rotate(30.66)"><tspan x="0" y="0">p</tspan></text>
    <text class="cls-1" transform="translate(176.45 52.3) rotate(32.75)"><tspan x="0" y="0">s</tspan></text>
    <text class="cls-1" transform="translate(177.75 53.13) rotate(33.88)"><tspan x="0" y="0">u</tspan></text>
    <text class="cls-1" transform="translate(179.46 54.27) rotate(35.47)"><tspan x="0" y="0">m</tspan></text>
    <text class="cls-1" transform="translate(181.89 56.02) rotate(36.78)"><tspan x="0" y="0"> </tspan></text>
    <text class="cls-1" transform="translate(182.83 56.72) rotate(37.68)"><tspan x="0" y="0">L</tspan></text>
    <text class="cls-1" transform="translate(184.14 57.73) rotate(38.92)"><tspan x="0" y="0">o</tspan></text>
    <text class="cls-1" transform="translate(185.91 59.16) rotate(40.1)"><tspan x="0" y="0">r</tspan></text>
    <text class="cls-1" transform="translate(186.97 60.05) rotate(41.2)"><tspan x="0" y="0">e</tspan></text>
    <text class="cls-1" transform="translate(188.54 61.41) rotate(42.82)"><tspan x="0" y="0">m</tspan></text>
    <text class="cls-1" transform="translate(190.72 63.45) rotate(44.14)"><tspan x="0" y="0"> </tspan></text>
    <text class="cls-1" transform="translate(191.56 64.27) rotate(44.88)"><tspan x="0" y="0">I</tspan></text>
    <text class="cls-1" transform="translate(192.36 65.05) rotate(45.96)"><tspan x="0" y="0">p</tspan></text>
    <text class="cls-1" transform="translate(193.93 66.68) rotate(47.18)"><tspan x="0" y="0">s</tspan></text>
    <text class="cls-1" transform="translate(194.97 67.8) rotate(48.34)"><tspan x="0" y="0">u</tspan></text>
    <text class="cls-1" transform="translate(196.35 69.33) rotate(49.95)"><tspan x="0" y="0">m</tspan></text>
    <text class="cls-1" transform="translate(198.26 71.63) rotate(51.28)"><tspan x="0" y="0"> </tspan></text>
    <text class="cls-1" transform="translate(198.98 72.53) rotate(52.19)"><tspan x="0" y="0">L</tspan></text>
    <text class="cls-1" transform="translate(200.02 73.86) rotate(53.46)"><tspan x="0" y="0">o</tspan></text>
    <text class="cls-1" transform="translate(201.36 75.67) rotate(54.63)"><tspan x="0" y="0">r</tspan></text>
    <text class="cls-1" transform="translate(202.17 76.81) rotate(55.74)"><tspan x="0" y="0">e</tspan></text>
    <text class="cls-1" transform="translate(203.35 78.52) rotate(57.36)"><tspan x="0" y="0">m</tspan></text>
    <text class="cls-1" transform="translate(204.95 81.05) rotate(58.69)"><tspan x="0" y="0"> </tspan></text>
    <text class="cls-1" transform="translate(205.55 82.03) rotate(59.41)"><tspan x="0" y="0">I</tspan></text>
    <text class="cls-1" transform="translate(206.13 83) rotate(60.49)"><tspan x="0" y="0">p</tspan></text>
    <text class="cls-1" transform="translate(207.24 84.98) rotate(61.71)"><tspan x="0" y="0">s</tspan></text>
    <text class="cls-1" transform="translate(207.97 86.33) rotate(62.85)"><tspan x="0" y="0">u</tspan></text>
    <text class="cls-1" transform="translate(208.91 88.14) rotate(64.45)"><tspan x="0" y="0">m</tspan></text>
    <text class="cls-1" transform="translate(210.2 90.85) rotate(65.93)"><tspan x="0" y="0">L</tspan></text>
    <text class="cls-1" transform="translate(210.88 92.37) rotate(67.18)"><tspan x="0" y="0">o</tspan></text>
    <text class="cls-1" transform="translate(211.76 94.46) rotate(68.35)"><tspan x="0" y="0">r</tspan></text>
    <text class="cls-1" transform="translate(212.27 95.76) rotate(69.45)"><tspan x="0" y="0">e</tspan></text>
    <text class="cls-1" transform="translate(213.01 97.71) rotate(71.06)"><tspan x="0" y="0">m</tspan></text>
    <text class="cls-1" transform="translate(213.97 100.53) rotate(72.36)"><tspan x="0" y="0"> </tspan></text>
    <text class="cls-1" transform="translate(214.32 101.65) rotate(73.09)"><tspan x="0" y="0">I</tspan></text>
    <text class="cls-1" transform="translate(214.65 102.71) rotate(74.16)"><tspan x="0" y="0">p</tspan></text>
    <text class="cls-1" transform="translate(215.26 104.88) rotate(75.35)"><tspan x="0" y="0">s</tspan></text>
    <text class="cls-1" transform="translate(215.65 106.35) rotate(76.48)"><tspan x="0" y="0">u</tspan></text>
    <text class="cls-1" transform="translate(216.14 108.36) rotate(78.08)"><tspan x="0" y="0">m</tspan></text>
    <text class="cls-1" transform="translate(216.75 111.28) rotate(79.56)"><tspan x="0" y="0">L</tspan></text>
    <text class="cls-1" transform="translate(217.06 112.91) rotate(80.8)"><tspan x="0" y="0">o</tspan></text>
    <text class="cls-1" transform="translate(217.41 115.16) rotate(81.89)"><tspan x="0" y="0"> </tspan></text>
    <text class="cls-1" transform="translate(217.58 116.32) rotate(82.61)"><tspan x="0" y="0">I</tspan></text>
    <text class="cls-1" transform="translate(217.73 117.43) rotate(83.68)"><tspan x="0" y="0">p</tspan></text>
    <text class="cls-1" transform="translate(217.97 119.67) rotate(84.88)"><tspan x="0" y="0">s</tspan></text>
    <text class="cls-1" transform="translate(218.11 121.2) rotate(86.02)"><tspan x="0" y="0">u</tspan></text>
    <text class="cls-1" transform="translate(218.26 123.26) rotate(87.63)"><tspan x="0" y="0">m</tspan></text>
    <text class="cls-1" transform="translate(218.38 126.26) rotate(89.12)"><tspan x="0" y="0">L</tspan></text>
    <text class="cls-1" transform="translate(218.41 127.92) rotate(90.37)"><tspan x="0" y="0">o</tspan></text>
    <text class="cls-1" transform="translate(218.39 130.19) rotate(91.54)"><tspan x="0" y="0">r</tspan></text>
    <text class="cls-1" transform="translate(218.35 131.58) rotate(92.64)"><tspan x="0" y="0">e</tspan></text>
    <text class="cls-1" transform="translate(218.27 133.65) rotate(94.25)"><tspan x="0" y="0">m</tspan></text>
    <text class="cls-1" transform="translate(218.03 136.63) rotate(95.58)"><tspan x="0" y="0"> </tspan></text>
    <text class="cls-1" transform="translate(217.92 137.8) rotate(96.31)"><tspan x="0" y="0">I</tspan></text>
    <text class="cls-1" transform="translate(217.8 138.9) rotate(97.39)"><tspan x="0" y="0">p</tspan></text>
    <text class="cls-1" transform="translate(217.51 141.13) rotate(98.6)"><tspan x="0" y="0">s</tspan></text>
    <text class="cls-1" transform="translate(217.28 142.67) rotate(99.76)"><tspan x="0" y="0">u</tspan></text>
    <text class="cls-1" transform="translate(216.94 144.68) rotate(101.37)"><tspan x="0" y="0">m</tspan></text>
    <text class="cls-1" transform="translate(216.34 147.62) rotate(102.87)"><tspan x="0" y="0">L</tspan></text>
    <text class="cls-1" transform="translate(215.97 149.25) rotate(104.14)"><tspan x="0" y="0">o</tspan></text>
    <text class="cls-1" transform="translate(215.41 151.45) rotate(105.31)"><tspan x="0" y="0">r</tspan></text>
    <text class="cls-1" transform="translate(215.05 152.79) rotate(106.43)"><tspan x="0" y="0">e</tspan></text>
    <text class="cls-1" transform="translate(214.47 154.8) rotate(108.05)"><tspan x="0" y="0">m</tspan></text>
    <text class="cls-1" transform="translate(213.53 157.62) rotate(109.38)"><tspan x="0" y="0"> </tspan></text>
    <text class="cls-1" transform="translate(213.15 158.72) rotate(110.1)"><tspan x="0" y="0">I</tspan></text>
    <text class="cls-1" transform="translate(212.77 159.78) rotate(111.19)"><tspan x="0" y="0">p</tspan></text>
    <text class="cls-1" transform="translate(211.95 161.88) rotate(112.4)"><tspan x="0" y="0">s</tspan></text>
    <text class="cls-1" transform="translate(211.37 163.28) rotate(113.53)"><tspan x="0" y="0">u</tspan></text>
    <text class="cls-1" transform="translate(210.56 165.17) rotate(115.14)"><tspan x="0" y="0">m</tspan></text>
    <text class="cls-1" transform="translate(209.26 167.9) rotate(116.47)"><tspan x="0" y="0"> </tspan></text>
    <text class="cls-1" transform="translate(208.76 168.92) rotate(117.19)"><tspan x="0" y="0"> </tspan></text>
    <text class="cls-1" transform="translate(208.22 169.97) rotate(117.94)"><tspan x="0" y="0"> </tspan></text>
    <text class="cls-1" transform="translate(207.68 170.99) rotate(118.82)"><tspan x="0" y="0">L</tspan></text>
    <text class="cls-1" transform="translate(206.87 172.47) rotate(120.07)"><tspan x="0" y="0">o</tspan></text>
    <text class="cls-1" transform="translate(205.72 174.43) rotate(120.66)"><tspan x="0" y="0">r</tspan></text>
    <text class="cls-1" transform="translate(205.02 175.61) rotate(122.52)"><tspan x="0" y="0">e</tspan></text>
    <text class="cls-1" transform="translate(203.91 177.37) rotate(123.88)"><tspan x="0" y="0">m</tspan></text>
    <text class="cls-1" transform="translate(202.23 179.86) rotate(125.19)"><tspan x="0" y="0"> </tspan></text>
    <text class="cls-1" transform="translate(201.56 180.81) rotate(125.91)"><tspan x="0" y="0">I</tspan></text>
    <text class="cls-1" transform="translate(200.91 181.72) rotate(126.98)"><tspan x="0" y="0">p</tspan></text>
    <text class="cls-1" transform="translate(199.55 183.52) rotate(128.18)"><tspan x="0" y="0">s</tspan></text>
    <text class="cls-1" transform="translate(198.61 184.72) rotate(129.32)"><tspan x="0" y="0">u</tspan></text>
    <text class="cls-1" transform="translate(197.31 186.32) rotate(130.93)"><tspan x="0" y="0">m</tspan></text>
    <text class="cls-1" transform="translate(195.35 188.56) rotate(132.41)"><tspan x="0" y="0">L</tspan></text>
    <text class="cls-1" transform="translate(194.23 189.79) rotate(133.67)"><tspan x="0" y="0">o</tspan></text>
    <text class="cls-1" transform="translate(192.65 191.44) rotate(134.86)"><tspan x="0" y="0">r</tspan></text>
    <text class="cls-1" transform="translate(191.67 192.43) rotate(135.96)"><tspan x="0" y="0">e</tspan></text>
    <text class="cls-1" transform="translate(190.18 193.88) rotate(137.59)"><tspan x="0" y="0">m</tspan></text>
    <text class="cls-1" transform="translate(187.96 195.89) rotate(138.92)"><tspan x="0" y="0"> </tspan></text>
    <text class="cls-1" transform="translate(187.1 196.65) rotate(139.64)"><tspan x="0" y="0">I</tspan></text>
    <text class="cls-1" transform="translate(186.25 197.37) rotate(140.73)"><tspan x="0" y="0">p</tspan></text>
    <text class="cls-1" transform="translate(184.48 198.81) rotate(141.95)"><tspan x="0" y="0">s</tspan></text>
    <text class="cls-1" transform="translate(183.27 199.76) rotate(143.11)"><tspan x="0" y="0">u</tspan></text>
    <text class="cls-1" transform="translate(181.65 200.99) rotate(144.71)"><tspan x="0" y="0">m</tspan></text>
    <text class="cls-1" transform="translate(179.21 202.71) rotate(146.2)"><tspan x="0" y="0">L</tspan></text>
    <text class="cls-1" transform="translate(177.81 203.64) rotate(147.47)"><tspan x="0" y="0">o</tspan></text>
    <text class="cls-1" transform="translate(175.9 204.86) rotate(148.64)"><tspan x="0" y="0">r</tspan></text>
    <text class="cls-1" transform="translate(174.71 205.59) rotate(149.76)"><tspan x="0" y="0">e</tspan></text>
    <text class="cls-1" transform="translate(172.93 206.64) rotate(151.36)"><tspan x="0" y="0">m</tspan></text>
    <text class="cls-1" transform="translate(170.28 208.07) rotate(152.69)"><tspan x="0" y="0"> </tspan></text>
    <text class="cls-1" transform="translate(169.25 208.6) rotate(153.41)"><tspan x="0" y="0">I</tspan></text>
    <text class="cls-1" transform="translate(168.25 209.11) rotate(154.49)"><tspan x="0" y="0">p</tspan></text>
    <text class="cls-1" transform="translate(166.21 210.08) rotate(155.7)"><tspan x="0" y="0">s</tspan></text>
    <text class="cls-1" transform="translate(164.82 210.71) rotate(156.84)"><tspan x="0" y="0">u</tspan></text>
    <text class="cls-1" transform="translate(162.95 211.52) rotate(158.42)"><tspan x="0" y="0">m</tspan></text>
    <text class="cls-1" transform="translate(160.16 212.61) rotate(159.9)"><tspan x="0" y="0">L</tspan></text>
    <text class="cls-1" transform="translate(158.57 213.19) rotate(161.17)"><tspan x="0" y="0">o</tspan></text>
    <text class="cls-1" transform="translate(156.44 213.92) rotate(162.32)"><tspan x="0" y="0">r</tspan></text>
    <text class="cls-1" transform="translate(155.12 214.34) rotate(163.41)"><tspan x="0" y="0">e</tspan></text>
    <text class="cls-1" transform="translate(153.1 214.95) rotate(165.03)"><tspan x="0" y="0">m</tspan></text>
    <text class="cls-1" transform="translate(150.22 215.71) rotate(166.33)"><tspan x="0" y="0"> </tspan></text>
    <text class="cls-1" transform="translate(149.09 215.99) rotate(167.38)"><tspan x="0" y="0">E</tspan></text>
    <text class="cls-1" transform="translate(147.02 216.45) rotate(168.7)"><tspan x="0" y="0">n</tspan></text>
    <text class="cls-1" transform="translate(145 216.86) rotate(170.07)"><tspan x="0" y="0">d</tspan></text>
  </g>
</svg>