<?xml version="1.0" encoding="UTF-8"?>
<svg id="Layer_2" data-name="Layer 2" xmlns="http://www.w3.org/2000/svg" viewBox="0 0 64.21 64.19">
  <defs>
    <style>
      .cls-1 {
        fill: #231f20;
        font-family: Futura-Medium, Futura;
        font-size: 2px;
        font-weight: 500;
      }
    </style>
  </defs>
  <g id="Layer_2-2" data-name="Layer 2">
    <text class="cls-1" transform="translate(11.69 41.51) rotate(-112.02)"><tspan x="0" y="0">W</tspan></text>
    <text class="cls-1" transform="translate(10.92 39.57) rotate(-108.03)"><tspan x="0" y="0">h</tspan></text>
    <text class="cls-1" transform="translate(10.59 38.55) rotate(-105.28)"><tspan x="0" y="0">e</tspan></text>
    <text class="cls-1" transform="translate(10.31 37.51) rotate(-102.54)"><tspan x="0" y="0">n</tspan></text>
    <text class="cls-1" transform="translate(10.07 36.44) rotate(-100.35)"><tspan x="0" y="0"> </tspan></text>
    <text class="cls-1" transform="translate(9.96 35.86) rotate(-98.08)"><tspan x="0" y="0">a</tspan></text>
    <text class="cls-1" transform="translate(9.8 34.68) rotate(-95.77)"><tspan x="0" y="0"> </tspan></text>
    <text class="cls-1" transform="translate(9.73 34.08) rotate(-93.47)"><tspan x="0" y="0">b</tspan></text>
    <text class="cls-1" transform="translate(9.66 32.92) rotate(-90.49)"><tspan x="0" y="0">o</tspan></text>
    <text class="cls-1" transform="translate(9.65 31.72) rotate(-87.56)"><tspan x="0" y="0">n</tspan></text>
    <text class="cls-1" transform="translate(9.69 30.66) rotate(-84.83)"><tspan x="0" y="0">e</tspan></text>
    <text class="cls-1" transform="translate(9.8 29.57) rotate(-82.67)"><tspan x="0" y="0"> </tspan></text>
    <text class="cls-1" transform="translate(9.87 28.97) rotate(-81.29)"><tspan x="0" y="0">i</tspan></text>
    <text class="cls-1" transform="translate(9.95 28.49) rotate(-79.65)"><tspan x="0" y="0">s</tspan></text>
    <text class="cls-1" transform="translate(10.09 27.7) rotate(-77.85)"><tspan x="0" y="0"> </tspan></text>
    <text class="cls-1" transform="translate(10.22 27.09) rotate(-75.54)"><tspan x="0" y="0">b</tspan></text>
    <text class="cls-1" transform="translate(10.51 25.95) rotate(-73.14)"><tspan x="0" y="0">r</tspan></text>
    <text class="cls-1" transform="translate(10.72 25.27) rotate(-70.75)"><tspan x="0" y="0">o</tspan></text>
    <text class="cls-1" transform="translate(11.11 24.15) rotate(-68.02)"><tspan x="0" y="0">k</tspan></text>
    <text class="cls-1" transform="translate(11.45 23.29) rotate(-65.54)"><tspan x="0" y="0">e</tspan></text>
    <text class="cls-1" transform="translate(11.91 22.29) rotate(-62.76)"><tspan x="0" y="0">n</tspan></text>
    <text class="cls-1" transform="translate(12.4 21.34) rotate(-60.66)"><tspan x="0" y="0"> </tspan></text>
    <text class="cls-1" transform="translate(12.7 20.8) rotate(-58.34)"><tspan x="0" y="0">a</tspan></text>
    <text class="cls-1" transform="translate(13.32 19.8) rotate(-55.49)"><tspan x="0" y="0">n</tspan></text>
    <text class="cls-1" transform="translate(13.94 18.9) rotate(-53.33)"><tspan x="0" y="0"> </tspan></text>
    <text class="cls-1" transform="translate(14.29 18.43) rotate(-51.07)"><tspan x="0" y="0">o</tspan></text>
    <text class="cls-1" transform="translate(15.03 17.5) rotate(-48.18)"><tspan x="0" y="0">u</tspan></text>
    <text class="cls-1" transform="translate(15.75 16.71) rotate(-46.12)"><tspan x="0" y="0">t</tspan></text>
    <text class="cls-1" transform="translate(16.14 16.3) rotate(-43.96)"><tspan x="0" y="0">e</tspan></text>
    <text class="cls-1" transform="translate(16.92 15.55) rotate(-41.66)"><tspan x="0" y="0">r</tspan></text>
    <text class="cls-1" transform="translate(17.46 15.07) rotate(-39.97)"><tspan x="0" y="0"> </tspan></text>
    <text class="cls-1" transform="translate(17.93 14.67) rotate(-37.96)"><tspan x="0" y="0">c</tspan></text>
    <text class="cls-1" transform="translate(18.67 14.09) rotate(-35.22)"><tspan x="0" y="0">a</tspan></text>
    <text class="cls-1" transform="translate(19.64 13.41) rotate(-32.7)"><tspan x="0" y="0">s</tspan></text>
    <text class="cls-1" transform="translate(20.3 12.99) rotate(-31.03)"><tspan x="0" y="0">t</tspan></text>
    <text class="cls-1" transform="translate(20.78 12.7) rotate(-29.54)"><tspan x="0" y="0"> </tspan></text>
    <text class="cls-1" transform="translate(21.29 12.41) rotate(-28.18)"><tspan x="0" y="0">i</tspan></text>
    <text class="cls-1" transform="translate(21.73 12.17) rotate(-26.55)"><tspan x="0" y="0">s</tspan></text>
    <text class="cls-1" transform="translate(22.43 11.83) rotate(-25.57)"><tspan x="0" y="0"> </tspan></text>
    <text class="cls-1" transform="translate(22.99 11.56) rotate(-22.55)"><tspan x="0" y="0">a</tspan></text>
    <text class="cls-1" transform="translate(24.07 11.11) rotate(-19.61)"><tspan x="0" y="0">p</tspan></text>
    <text class="cls-1" transform="translate(25.19 10.71) rotate(-16.58)"><tspan x="0" y="0">p</tspan></text>
    <text class="cls-1" transform="translate(26.3 10.38) rotate(-14.52)"><tspan x="0" y="0">l</tspan></text>
    <text class="cls-1" transform="translate(26.78 10.26) rotate(-13.26)"><tspan x="0" y="0">i</tspan></text>
    <text class="cls-1" transform="translate(27.26 10.14) rotate(-11.2)"><tspan x="0" y="0">e</tspan></text>
    <text class="cls-1" transform="translate(28.31 9.93) rotate(-8.34)"><tspan x="0" y="0">d</tspan></text>
    <text class="cls-1" transform="translate(29.49 9.76) rotate(-6.03)"><tspan x="0" y="0"> </tspan></text>
    <text class="cls-1" transform="translate(30.11 9.7) rotate(-4.53)"><tspan x="0" y="0">t</tspan></text>
    <text class="cls-1" transform="translate(30.63 9.65) rotate(-2.33)"><tspan x="0" y="0">o</tspan></text>
    <text class="cls-1" transform="translate(31.82 9.61) rotate(-.05)"><tspan x="0" y="0"> </tspan></text>
    <text class="cls-1" transform="translate(32.41 9.6) rotate(2.21)"><tspan x="0" y="0">a</tspan></text>
    <text class="cls-1" transform="translate(33.61 9.65) rotate(4.96)"><tspan x="0" y="0">c</tspan></text>
    <text class="cls-1" transform="translate(34.53 9.73) rotate(6.81)"><tspan x="0" y="0">t</tspan></text>
    <text class="cls-1" transform="translate(35.07 9.8) rotate(8.28)"><tspan x="0" y="0"> </tspan></text>
    <text class="cls-1" transform="translate(35.67 9.88) rotate(10.56)"><tspan x="0" y="0">a</tspan></text>
    <text class="cls-1" transform="translate(36.84 10.1) rotate(13.09)"><tspan x="0" y="0">s</tspan></text>
    <text class="cls-1" transform="translate(37.6 10.28) rotate(14.8)"><tspan x="0" y="0"> </tspan></text>
    <text class="cls-1" transform="translate(38.2 10.43) rotate(17.11)"><tspan x="0" y="0">a</tspan></text>
    <text class="cls-1" transform="translate(39.31 10.78) rotate(19.33)"><tspan x="0" y="0"> </tspan></text>
    <text class="cls-1" transform="translate(39.89 10.98) rotate(21.13)"><tspan x="0" y="0">s</tspan></text>
    <text class="cls-1" transform="translate(40.64 11.27) rotate(23.39)"><tspan x="0" y="0">k</tspan></text>
    <text class="cls-1" transform="translate(41.5 11.64) rotate(25.91)"><tspan x="0" y="0">e</tspan></text>
    <text class="cls-1" transform="translate(42.49 12.12) rotate(27.92)"><tspan x="0" y="0">l</tspan></text>
    <text class="cls-1" transform="translate(42.93 12.35) rotate(29.94)"><tspan x="0" y="0">e</tspan></text>
    <text class="cls-1" transform="translate(43.87 12.9) rotate(32.01)"><tspan x="0" y="0">t</tspan></text>
    <text class="cls-1" transform="translate(44.34 13.18) rotate(34.25)"><tspan x="0" y="0">o</tspan></text>
    <text class="cls-1" transform="translate(45.31 13.85) rotate(37.11)"><tspan x="0" y="0">n</tspan></text>
    <text class="cls-1" transform="translate(46.18 14.51) rotate(39.28)"><tspan x="0" y="0">,</tspan></text>
    <text class="cls-1" transform="translate(46.66 14.9) rotate(40.85)"><tspan x="0" y="0"> </tspan></text>
    <text class="cls-1" transform="translate(47.11 15.28) rotate(43.13)"><tspan x="0" y="0">b</tspan></text>
    <text class="cls-1" transform="translate(47.98 16.1) rotate(45.6)"><tspan x="0" y="0">r</tspan></text>
    <text class="cls-1" transform="translate(48.5 16.63) rotate(47.19)"><tspan x="0" y="0">i</tspan></text>
    <text class="cls-1" transform="translate(48.84 16.99) rotate(49.23)"><tspan x="0" y="0">n</tspan></text>
    <text class="cls-1" transform="translate(49.53 17.8) rotate(52.09)"><tspan x="0" y="0">g</tspan></text>
    <text class="cls-1" transform="translate(50.26 18.74) rotate(54.24)"><tspan x="0" y="0">i</tspan></text>
    <text class="cls-1" transform="translate(50.54 19.12) rotate(56.22)"><tspan x="0" y="0">n</tspan></text>
    <text class="cls-1" transform="translate(51.15 20.02) rotate(59.11)"><tspan x="0" y="0">g</tspan></text>
    <text class="cls-1" transform="translate(51.75 21.04) rotate(61.37)"><tspan x="0" y="0"> </tspan></text>
    <text class="cls-1" transform="translate(52.04 21.58) rotate(62.82)"><tspan x="0" y="0">t</tspan></text>
    <text class="cls-1" transform="translate(52.3 22.09) rotate(64.43)"><tspan x="0" y="0">h</tspan></text>
    <text class="cls-1" transform="translate(52.76 23.05) rotate(67.62)"><tspan x="0" y="0">e</tspan></text>
    <text class="cls-1" transform="translate(53.18 24.08) rotate(69.8)"><tspan x="0" y="0"> </tspan></text>
    <text class="cls-1" transform="translate(53.38 24.64) rotate(71.16)"><tspan x="0" y="0">i</tspan></text>
    <text class="cls-1" transform="translate(53.54 25.09) rotate(73.14)"><tspan x="0" y="0">n</tspan></text>
    <text class="cls-1" transform="translate(53.86 26.14) rotate(75.93)"><tspan x="0" y="0">n</tspan></text>
    <text class="cls-1" transform="translate(54.12 27.18) rotate(78.71)"><tspan x="0" y="0">e</tspan></text>
    <text class="cls-1" transform="translate(54.33 28.25) rotate(81.03)"><tspan x="0" y="0">r</tspan></text>
    <text class="cls-1" transform="translate(54.45 28.96) rotate(82.72)"><tspan x="0" y="0"> </tspan></text>
    <text class="cls-1" transform="translate(54.52 29.58) rotate(84.23)"><tspan x="0" y="0">t</tspan></text>
    <text class="cls-1" transform="translate(54.58 30.11) rotate(86.43)"><tspan x="0" y="0">o</tspan></text>
    <text class="cls-1" transform="translate(54.65 31.29) rotate(88.72)"><tspan x="0" y="0"> </tspan></text>
    <text class="cls-1" transform="translate(54.67 31.91) rotate(90.21)"><tspan x="0" y="0">t</tspan></text>
    <text class="cls-1" transform="translate(54.67 32.49) rotate(92.39)"><tspan x="0" y="0">h</tspan></text>
    <text class="cls-1" transform="translate(54.62 33.57) rotate(95.17)"><tspan x="0" y="0">e</tspan></text>
    <text class="cls-1" transform="translate(54.52 34.64) rotate(97.28)"><tspan x="0" y="0"> </tspan></text>
    <text class="cls-1" transform="translate(54.45 35.24) rotate(99.57)"><tspan x="0" y="0">o</tspan></text>
    <text class="cls-1" transform="translate(54.25 36.4) rotate(102.41)"><tspan x="0" y="0">u</tspan></text>
    <text class="cls-1" transform="translate(54.02 37.45) rotate(104.46)"><tspan x="0" y="0">t</tspan></text>
    <text class="cls-1" transform="translate(53.88 38) rotate(106.6)"><tspan x="0" y="0">e</tspan></text>
    <text class="cls-1" transform="translate(53.57 39.05) rotate(108.9)"><tspan x="0" y="0">r</tspan></text>
    <text class="cls-1" transform="translate(53.37 39.62) rotate(110.28)"><tspan x="0" y="0">.</tspan></text>
    <text class="cls-1" transform="translate(53.16 40.19) rotate(111.81)"><tspan x="0" y="0"> </tspan></text>
    <text class="cls-1" transform="translate(52.94 40.75) rotate(113.78)"><tspan x="0" y="0">T</tspan></text>
    <text class="cls-1" transform="translate(52.56 41.62) rotate(116.34)"><tspan x="0" y="0">h</tspan></text>
    <text class="cls-1" transform="translate(52.08 42.58) rotate(119.08)"><tspan x="0" y="0">e</tspan></text>
    <text class="cls-1" transform="translate(51.55 43.53) rotate(121.23)"><tspan x="0" y="0"> </tspan></text>
    <text class="cls-1" transform="translate(51.23 44.07) rotate(123.56)"><tspan x="0" y="0">p</tspan></text>
    <text class="cls-1" transform="translate(50.58 45.05) rotate(125.98)"><tspan x="0" y="0">r</tspan></text>
    <text class="cls-1" transform="translate(50.15 45.64) rotate(128.41)"><tspan x="0" y="0">o</tspan></text>
    <text class="cls-1" transform="translate(49.43 46.55) rotate(131.38)"><tspan x="0" y="0">b</tspan></text>
    <text class="cls-1" transform="translate(48.64 47.44) rotate(133.53)"><tspan x="0" y="0">l</tspan></text>
    <text class="cls-1" transform="translate(48.31 47.79) rotate(135.56)"><tspan x="0" y="0">e</tspan></text>
    <text class="cls-1" transform="translate(47.54 48.56) rotate(138.97)"><tspan x="0" y="0">m</tspan></text>
    <text class="cls-1" transform="translate(46.35 49.58) rotate(141.73)"><tspan x="0" y="0"> </tspan></text>
    <text class="cls-1" transform="translate(45.88 49.95) rotate(143.12)"><tspan x="0" y="0">i</tspan></text>
    <text class="cls-1" transform="translate(45.49 50.25) rotate(144.78)"><tspan x="0" y="0">s</tspan></text>
    <text class="cls-1" transform="translate(44.83 50.71) rotate(146.58)"><tspan x="0" y="0"> </tspan></text>
    <text class="cls-1" transform="translate(44.33 51.04) rotate(148.02)"><tspan x="0" y="0">t</tspan></text>
    <text class="cls-1" transform="translate(43.84 51.35) rotate(150.19)"><tspan x="0" y="0">h</tspan></text>
    <text class="cls-1" transform="translate(42.92 51.88) rotate(153)"><tspan x="0" y="0">a</tspan></text>
    <text class="cls-1" transform="translate(41.85 52.41) rotate(154.43)"><tspan x="0" y="0">t</tspan></text>
    <text class="cls-1" transform="translate(41.38 52.64) rotate(156.58)"><tspan x="0" y="0"> </tspan></text>
    <text class="cls-1" transform="translate(40.82 52.88) rotate(158.53)"><tspan x="0" y="0">c</tspan></text>
    <text class="cls-1" transform="translate(39.95 53.23) rotate(161.2)"><tspan x="0" y="0">a</tspan></text>
    <text class="cls-1" transform="translate(38.84 53.6) rotate(163.68)"><tspan x="0" y="0">s</tspan></text>
    <text class="cls-1" transform="translate(38.07 53.83) rotate(165.39)"><tspan x="0" y="0">t</tspan></text>
    <text class="cls-1" transform="translate(37.56 53.96) rotate(167.1)"><tspan x="0" y="0">s</tspan></text>
    <text class="cls-1" transform="translate(36.78 54.14) rotate(168.89)"><tspan x="0" y="0"> </tspan></text>
    <text class="cls-1" transform="translate(36.17 54.26) rotate(170.32)"><tspan x="0" y="0">i</tspan></text>
    <text class="cls-1" transform="translate(35.68 54.34) rotate(171.66)"><tspan x="0" y="0">t</tspan></text>
    <text class="cls-1" transform="translate(35.17 54.42) rotate(173.52)"><tspan x="0" y="0">c</tspan></text>
    <text class="cls-1" transform="translate(34.18 54.53) rotate(176.26)"><tspan x="0" y="0">h</tspan></text>
    <text class="cls-1" transform="translate(33.12 54.6) rotate(178.37)"><tspan x="0" y="0"> </tspan></text>
    <text class="cls-1" transform="translate(32.51 54.62) rotate(179.77)"><tspan x="0" y="0">l</tspan></text>
    <text class="cls-1" transform="translate(32 54.62) rotate(-178.92)"><tspan x="0" y="0">i</tspan></text>
    <text class="cls-1" transform="translate(31.53 54.61) rotate(-177.09)"><tspan x="0" y="0">k</tspan></text>
    <text class="cls-1" transform="translate(30.57 54.57) rotate(-174.48)"><tspan x="0" y="0">e</tspan></text>
    <text class="cls-1" transform="translate(29.48 54.46) rotate(-172.33)"><tspan x="0" y="0"> </tspan></text>
    <text class="cls-1" transform="translate(28.88 54.39) rotate(-169.57)"><tspan x="0" y="0">m</tspan></text>
    <text class="cls-1" transform="translate(27.36 54.11) rotate(-166.14)"><tspan x="0" y="0">a</tspan></text>
    <text class="cls-1" transform="translate(26.22 53.82) rotate(-163.15)"><tspan x="0" y="0">d</tspan></text>
    <text class="cls-1" transform="translate(25.1 53.48) rotate(-160.92)"><tspan x="0" y="0">.</tspan></text>
  </g>
</svg>