<?xml version="1.0" encoding="UTF-8"?>
<svg id="Layer_2" data-name="Layer 2" xmlns="http://www.w3.org/2000/svg" viewBox="0 0 106.42 106.43">
  <defs>
    <style>
      .cls-1 {
        fill: #231f20;
        font-family: Futura-Medium, Futura;
        font-size: 2.4px;
        font-weight: 500;
      }
    </style>
  </defs>
  <g id="Layer_6" data-name="Layer 6">
    <text class="cls-1" transform="translate(70.16 86.68) rotate(154.76)"><tspan x="0" y="0">O</tspan></text>
    <text class="cls-1" transform="translate(68.24 87.58) rotate(157.43)"><tspan x="0" y="0">p</tspan></text>
    <text class="cls-1" transform="translate(66.92 88.12) rotate(159.51)"><tspan x="0" y="0">e</tspan></text>
    <text class="cls-1" transform="translate(65.7 88.58) rotate(161.5)"><tspan x="0" y="0">n</tspan></text>
    <text class="cls-1" transform="translate(64.44 89) rotate(162.99)"><tspan x="0" y="0">i</tspan></text>
    <text class="cls-1" transform="translate(63.89 89.17) rotate(164.43)"><tspan x="0" y="0">n</tspan></text>
    <text class="cls-1" transform="translate(62.63 89.52) rotate(166.53)"><tspan x="0" y="0">g</tspan></text>
    <text class="cls-1" transform="translate(61.24 89.85) rotate(168.18)"><tspan x="0" y="0"> </tspan></text>
    <text class="cls-1" transform="translate(60.53 90) rotate(169.74)"><tspan x="0" y="0">u</tspan></text>
    <text class="cls-1" transform="translate(59.26 90.23) rotate(171.83)"><tspan x="0" y="0">p</tspan></text>
    <text class="cls-1" transform="translate(57.86 90.43) rotate(173.46)"><tspan x="0" y="0"> </tspan></text>
    <text class="cls-1" transform="translate(57.13 90.52) rotate(175.13)"><tspan x="0" y="0">a</tspan></text>
    <text class="cls-1" transform="translate(55.71 90.64) rotate(177.24)"><tspan x="0" y="0">n</tspan></text>
    <text class="cls-1" transform="translate(54.39 90.7) rotate(178.81)"><tspan x="0" y="0"> </tspan></text>
    <text class="cls-1" transform="translate(53.66 90.72) rotate(-179.53)"><tspan x="0" y="0">o</tspan></text>
    <text class="cls-1" transform="translate(52.29 90.71) rotate(-177.53)"><tspan x="0" y="0">y</tspan></text>
    <text class="cls-1" transform="translate(51 90.65) rotate(-175.8)"><tspan x="0" y="0">s</tspan></text>
    <text class="cls-1" transform="translate(50.05 90.58) rotate(-174.59)"><tspan x="0" y="0">t</tspan></text>
    <text class="cls-1" transform="translate(49.37 90.52) rotate(-173.04)"><tspan x="0" y="0">e</tspan></text>
    <text class="cls-1" transform="translate(48.06 90.36) rotate(-171.37)"><tspan x="0" y="0">r</tspan></text>
    <text class="cls-1" transform="translate(47.21 90.23) rotate(-170.16)"><tspan x="0" y="0"> </tspan></text>
    <text class="cls-1" transform="translate(46.47 90.1) rotate(-169.09)"><tspan x="0" y="0">t</tspan></text>
    <text class="cls-1" transform="translate(45.83 89.98) rotate(-167.51)"><tspan x="0" y="0">o</tspan></text>
    <text class="cls-1" transform="translate(44.42 89.66) rotate(-165.84)"><tspan x="0" y="0"> </tspan></text>
    <text class="cls-1" transform="translate(43.71 89.48) rotate(-164.6)"><tspan x="0" y="0">r</tspan></text>
    <text class="cls-1" transform="translate(42.88 89.26) rotate(-162.98)"><tspan x="0" y="0">e</tspan></text>
    <text class="cls-1" transform="translate(41.59 88.86) rotate(-161.44)"><tspan x="0" y="0">t</tspan></text>
    <text class="cls-1" transform="translate(40.99 88.66) rotate(-160.29)"><tspan x="0" y="0">r</tspan></text>
    <text class="cls-1" transform="translate(40.11 88.34) rotate(-159.09)"><tspan x="0" y="0">i</tspan></text>
    <text class="cls-1" transform="translate(39.55 88.13) rotate(-157.64)"><tspan x="0" y="0">e</tspan></text>
    <text class="cls-1" transform="translate(38.38 87.65) rotate(-155.8)"><tspan x="0" y="0">v</tspan></text>
    <text class="cls-1" transform="translate(37.33 87.18) rotate(-153.96)"><tspan x="0" y="0">e</tspan></text>
    <text class="cls-1" transform="translate(36.15 86.6) rotate(-152.41)"><tspan x="0" y="0"> </tspan></text>
    <text class="cls-1" transform="translate(35.49 86.26) rotate(-151.34)"><tspan x="0" y="0">t</tspan></text>
    <text class="cls-1" transform="translate(34.89 85.93) rotate(-149.79)"><tspan x="0" y="0">h</tspan></text>
    <text class="cls-1" transform="translate(33.77 85.28) rotate(-147.81)"><tspan x="0" y="0">e</tspan></text>
    <text class="cls-1" transform="translate(32.66 84.58) rotate(-146.25)"><tspan x="0" y="0"> </tspan></text>
    <text class="cls-1" transform="translate(32.04 84.16) rotate(-145.21)"><tspan x="0" y="0">i</tspan></text>
    <text class="cls-1" transform="translate(31.56 83.83) rotate(-143.77)"><tspan x="0" y="0">n</tspan></text>
    <text class="cls-1" transform="translate(30.5 83.06) rotate(-141.77)"><tspan x="0" y="0">n</tspan></text>
    <text class="cls-1" transform="translate(29.48 82.25) rotate(-139.75)"><tspan x="0" y="0">e</tspan></text>
    <text class="cls-1" transform="translate(28.49 81.41) rotate(-138.08)"><tspan x="0" y="0">r</tspan></text>
    <text class="cls-1" transform="translate(27.81 80.8) rotate(-136.8)"><tspan x="0" y="0"> </tspan></text>
    <text class="cls-1" transform="translate(27.29 80.32) rotate(-135.17)"><tspan x="0" y="0">p</tspan></text>
    <text class="cls-1" transform="translate(26.27 79.3) rotate(-133.04)"><tspan x="0" y="0">e</tspan></text>
    <text class="cls-1" transform="translate(25.38 78.35) rotate(-130.94)"><tspan x="0" y="0">a</tspan></text>
    <text class="cls-1" transform="translate(24.44 77.26) rotate(-129.15)"><tspan x="0" y="0">r</tspan></text>
    <text class="cls-1" transform="translate(23.87 76.56) rotate(-127.99)"><tspan x="0" y="0">l</tspan></text>
    <text class="cls-1" transform="translate(23.5 76.09) rotate(-126.95)"><tspan x="0" y="0"> </tspan></text>
    <text class="cls-1" transform="translate(23.07 75.51) rotate(-125.92)"><tspan x="0" y="0">t</tspan></text>
    <text class="cls-1" transform="translate(22.68 74.99) rotate(-124.43)"><tspan x="0" y="0">y</tspan></text>
    <text class="cls-1" transform="translate(21.95 73.92) rotate(-122.35)"><tspan x="0" y="0">p</tspan></text>
    <text class="cls-1" transform="translate(21.19 72.71) rotate(-120.82)"><tspan x="0" y="0">i</tspan></text>
    <text class="cls-1" transform="translate(20.88 72.2) rotate(-119.5)"><tspan x="0" y="0">c</tspan></text>
    <text class="cls-1" transform="translate(20.33 71.22) rotate(-117.75)"><tspan x="0" y="0">a</tspan></text>
    <text class="cls-1" transform="translate(19.67 69.96) rotate(-115.9)"><tspan x="0" y="0">l</tspan></text>
    <text class="cls-1" transform="translate(19.41 69.42) rotate(-115.19)"><tspan x="0" y="0">l</tspan></text>
    <text class="cls-1" transform="translate(19.14 68.87) rotate(-113.74)"><tspan x="0" y="0">y</tspan></text>
    <text class="cls-1" transform="translate(18.62 67.68) rotate(-112.21)"><tspan x="0" y="0"> </tspan></text>
    <text class="cls-1" transform="translate(18.35 67.02) rotate(-110.67)"><tspan x="0" y="0">e</tspan></text>
    <text class="cls-1" transform="translate(17.89 65.8) rotate(-108.68)"><tspan x="0" y="0">n</tspan></text>
    <text class="cls-1" transform="translate(17.46 64.55) rotate(-106.56)"><tspan x="0" y="0">d</tspan></text>
    <text class="cls-1" transform="translate(17.06 63.18) rotate(-104.72)"><tspan x="0" y="0">s</tspan></text>
    <text class="cls-1" transform="translate(16.82 62.24) rotate(-103.43)"><tspan x="0" y="0"> </tspan></text>
    <text class="cls-1" transform="translate(16.64 61.52) rotate(-102.4)"><tspan x="0" y="0">i</tspan></text>
    <text class="cls-1" transform="translate(16.52 60.97) rotate(-100.97)"><tspan x="0" y="0">n</tspan></text>
    <text class="cls-1" transform="translate(16.27 59.67) rotate(-99.37)"><tspan x="0" y="0"> </tspan></text>
    <text class="cls-1" transform="translate(16.15 58.95) rotate(-98.31)"><tspan x="0" y="0">t</tspan></text>
    <text class="cls-1" transform="translate(16.05 58.28) rotate(-96.76)"><tspan x="0" y="0">h</tspan></text>
    <text class="cls-1" transform="translate(15.89 56.98) rotate(-94.73)"><tspan x="0" y="0">e</tspan></text>
    <text class="cls-1" transform="translate(15.79 55.66) rotate(-93.15)"><tspan x="0" y="0"> </tspan></text>
    <text class="cls-1" transform="translate(15.74 54.96) rotate(-91.54)"><tspan x="0" y="0">d</tspan></text>
    <text class="cls-1" transform="translate(15.71 53.51) rotate(-89.4)"><tspan x="0" y="0">e</tspan></text>
    <text class="cls-1" transform="translate(15.72 52.2) rotate(-87.32)"><tspan x="0" y="0">a</tspan></text>
    <text class="cls-1" transform="translate(15.78 50.79) rotate(-85.16)"><tspan x="0" y="0">a</tspan></text>
    <text class="cls-1" transform="translate(15.91 49.36) rotate(-83.56)"><tspan x="0" y="0">t</tspan></text>
    <text class="cls-1" transform="translate(15.98 48.68) rotate(-82.01)"><tspan x="0" y="0">h</tspan></text>
    <text class="cls-1" transform="translate(16.17 47.39) rotate(-80.46)"><tspan x="0" y="0"> </tspan></text>
    <text class="cls-1" transform="translate(16.29 46.65) rotate(-78.79)"><tspan x="0" y="0">o</tspan></text>
    <text class="cls-1" transform="translate(16.57 45.24) rotate(-77.16)"><tspan x="0" y="0">f</tspan></text>
    <text class="cls-1" transform="translate(16.72 44.57) rotate(-76.1)"><tspan x="0" y="0"> </tspan></text>
    <text class="cls-1" transform="translate(16.9 43.85) rotate(-75.03)"><tspan x="0" y="0">t</tspan></text>
    <text class="cls-1" transform="translate(17.08 43.19) rotate(-73.49)"><tspan x="0" y="0">h</tspan></text>
    <text class="cls-1" transform="translate(17.45 41.93) rotate(-71.48)"><tspan x="0" y="0">e</tspan></text>
    <text class="cls-1" transform="translate(17.87 40.69) rotate(-69.95)"><tspan x="0" y="0"> </tspan></text>
    <text class="cls-1" transform="translate(18.11 40.01) rotate(-68.33)"><tspan x="0" y="0">o</tspan></text>
    <text class="cls-1" transform="translate(18.62 38.72) rotate(-66.32)"><tspan x="0" y="0">y</tspan></text>
    <text class="cls-1" transform="translate(19.15 37.54) rotate(-64.6)"><tspan x="0" y="0">s</tspan></text>
    <text class="cls-1" transform="translate(19.56 36.66) rotate(-63.36)"><tspan x="0" y="0">t</tspan></text>
    <text class="cls-1" transform="translate(19.85 36.07) rotate(-61.85)"><tspan x="0" y="0">e</tspan></text>
    <text class="cls-1" transform="translate(20.48 34.92) rotate(-60.18)"><tspan x="0" y="0">r</tspan></text>
    <text class="cls-1" transform="translate(20.85 34.26) rotate(-59.15)"><tspan x="0" y="0">.</tspan></text>
    <text class="cls-1" transform="translate(21.23 33.63) rotate(-58.02)"><tspan x="0" y="0"> </tspan></text>
    <text class="cls-1" transform="translate(21.61 33.01) rotate(-56.6)"><tspan x="0" y="0">T</tspan></text>
    <text class="cls-1" transform="translate(22.25 32.04) rotate(-54.69)"><tspan x="0" y="0">h</tspan></text>
    <text class="cls-1" transform="translate(23 30.97) rotate(-52.69)"><tspan x="0" y="0">e</tspan></text>
    <text class="cls-1" transform="translate(23.8 29.93) rotate(-51.11)"><tspan x="0" y="0"> </tspan></text>
    <text class="cls-1" transform="translate(24.26 29.37) rotate(-49.88)"><tspan x="0" y="0">r</tspan></text>
    <text class="cls-1" transform="translate(24.81 28.7) rotate(-48.21)"><tspan x="0" y="0">e</tspan></text>
    <text class="cls-1" transform="translate(25.7 27.71) rotate(-46.45)"><tspan x="0" y="0">s</tspan></text>
    <text class="cls-1" transform="translate(26.35 27.02) rotate(-44.73)"><tspan x="0" y="0">u</tspan></text>
    <text class="cls-1" transform="translate(27.28 26.11) rotate(-43.26)"><tspan x="0" y="0">l</tspan></text>
    <text class="cls-1" transform="translate(27.71 25.71) rotate(-42.33)"><tspan x="0" y="0">t</tspan></text>
    <text class="cls-1" transform="translate(28.2 25.26) rotate(-41.34)"><tspan x="0" y="0">i</tspan></text>
    <text class="cls-1" transform="translate(28.62 24.88) rotate(-39.91)"><tspan x="0" y="0">n</tspan></text>
    <text class="cls-1" transform="translate(29.63 24.04) rotate(-37.81)"><tspan x="0" y="0">g</tspan></text>
    <text class="cls-1" transform="translate(30.76 23.16) rotate(-36.14)"><tspan x="0" y="0"> </tspan></text>
    <text class="cls-1" transform="translate(31.34 22.74) rotate(-35.06)"><tspan x="0" y="0">f</tspan></text>
    <text class="cls-1" transform="translate(31.95 22.32) rotate(-34.03)"><tspan x="0" y="0">l</tspan></text>
    <text class="cls-1" transform="translate(32.43 21.98) rotate(-32.49)"><tspan x="0" y="0">a</tspan></text>
    <text class="cls-1" transform="translate(33.67 21.2) rotate(-30.36)"><tspan x="0" y="0">y</tspan></text>
    <text class="cls-1" transform="translate(34.75 20.56) rotate(-28.46)"><tspan x="0" y="0">e</tspan></text>
    <text class="cls-1" transform="translate(35.89 19.93) rotate(-25.9)"><tspan x="0" y="0">d</tspan></text>
    <text class="cls-1" transform="translate(37.18 19.3) rotate(-24.78)"><tspan x="0" y="0"> </tspan></text>
    <text class="cls-1" transform="translate(37.85 19) rotate(-23.38)"><tspan x="0" y="0">c</tspan></text>
    <text class="cls-1" transform="translate(38.86 18.56) rotate(-21.48)"><tspan x="0" y="0">a</tspan></text>
    <text class="cls-1" transform="translate(40.19 18.04) rotate(-19.72)"><tspan x="0" y="0">r</tspan></text>
    <text class="cls-1" transform="translate(41.02 17.74) rotate(-18.18)"><tspan x="0" y="0">c</tspan></text>
    <text class="cls-1" transform="translate(42.07 17.39) rotate(-16.25)"><tspan x="0" y="0">a</tspan></text>
    <text class="cls-1" transform="translate(43.45 16.99) rotate(-14.41)"><tspan x="0" y="0">s</tspan></text>
    <text class="cls-1" transform="translate(44.38 16.75) rotate(-12.93)"><tspan x="0" y="0">s</tspan></text>
    <text class="cls-1" transform="translate(45.34 16.53) rotate(-11.59)"><tspan x="0" y="0"> </tspan></text>
    <text class="cls-1" transform="translate(46.04 16.38) rotate(-9.95)"><tspan x="0" y="0">p</tspan></text>
    <text class="cls-1" transform="translate(47.45 16.14) rotate(-8.17)"><tspan x="0" y="0">r</tspan></text>
    <text class="cls-1" transform="translate(48.31 16.01) rotate(-6.41)"><tspan x="0" y="0">o</tspan></text>
    <text class="cls-1" transform="translate(49.68 15.86) rotate(-4.47)"><tspan x="0" y="0">v</tspan></text>
    <text class="cls-1" transform="translate(50.87 15.77) rotate(-3.11)"><tspan x="0" y="0">i</tspan></text>
    <text class="cls-1" transform="translate(51.47 15.73) rotate(-1.54)"><tspan x="0" y="0">d</tspan></text>
    <text class="cls-1" transform="translate(52.89 15.69) rotate(.56)"><tspan x="0" y="0">e</tspan></text>
    <text class="cls-1" transform="translate(54.2 15.71) rotate(2.29)"><tspan x="0" y="0">s</tspan></text>
    <text class="cls-1" transform="translate(55.17 15.75) rotate(3.59)"><tspan x="0" y="0"> </tspan></text>
    <text class="cls-1" transform="translate(55.89 15.79) rotate(5.23)"><tspan x="0" y="0">o</tspan></text>
    <text class="cls-1" transform="translate(57.3 15.92) rotate(7.3)"><tspan x="0" y="0">n</tspan></text>
    <text class="cls-1" transform="translate(58.61 16.09) rotate(8.76)"><tspan x="0" y="0">l</tspan></text>
    <text class="cls-1" transform="translate(59.21 16.18) rotate(10.22)"><tspan x="0" y="0">y</tspan></text>
    <text class="cls-1" transform="translate(60.48 16.41) rotate(11.76)"><tspan x="0" y="0"> </tspan></text>
    <text class="cls-1" transform="translate(61.21 16.56) rotate(12.79)"><tspan x="0" y="0">l</tspan></text>
    <text class="cls-1" transform="translate(61.79 16.7) rotate(13.69)"><tspan x="0" y="0">i</tspan></text>
    <text class="cls-1" transform="translate(62.33 16.82) rotate(15.52)"><tspan x="0" y="0">m</tspan></text>
    <text class="cls-1" transform="translate(64.15 17.33) rotate(17.41)"><tspan x="0" y="0">i</tspan></text>
    <text class="cls-1" transform="translate(64.71 17.51) rotate(18.34)"><tspan x="0" y="0">t</tspan></text>
    <text class="cls-1" transform="translate(65.36 17.72) rotate(19.88)"><tspan x="0" y="0">e</tspan></text>
    <text class="cls-1" transform="translate(66.6 18.17) rotate(21.97)"><tspan x="0" y="0">d</tspan></text>
    <text class="cls-1" transform="translate(67.91 18.7) rotate(23.6)"><tspan x="0" y="0"> </tspan></text>
    <text class="cls-1" transform="translate(68.6 19) rotate(24.63)"><tspan x="0" y="0">i</tspan></text>
    <text class="cls-1" transform="translate(69.12 19.23) rotate(26.04)"><tspan x="0" y="0">n</tspan></text>
    <text class="cls-1" transform="translate(70.3 19.82) rotate(27.58)"><tspan x="0" y="0">f</tspan></text>
    <text class="cls-1" transform="translate(70.95 20.15) rotate(29.26)"><tspan x="0" y="0">o</tspan></text>
    <text class="cls-1" transform="translate(72.2 20.85) rotate(31.03)"><tspan x="0" y="0">r</tspan></text>
    <text class="cls-1" transform="translate(72.98 21.32) rotate(33.19)"><tspan x="0" y="0">m</tspan></text>
    <text class="cls-1" transform="translate(74.55 22.35) rotate(35.7)"><tspan x="0" y="0">a</tspan></text>
    <text class="cls-1" transform="translate(75.72 23.19) rotate(37.31)"><tspan x="0" y="0">t</tspan></text>
    <text class="cls-1" transform="translate(76.24 23.59) rotate(38.28)"><tspan x="0" y="0">i</tspan></text>
    <text class="cls-1" transform="translate(76.69 23.94) rotate(39.81)"><tspan x="0" y="0">o</tspan></text>
    <text class="cls-1" transform="translate(77.8 24.86) rotate(41.92)"><tspan x="0" y="0">n</tspan></text>
    <text class="cls-1" transform="translate(78.75 25.73) rotate(43.46)"><tspan x="0" y="0"> </tspan></text>
    <text class="cls-1" transform="translate(79.3 26.23) rotate(45.14)"><tspan x="0" y="0">a</tspan></text>
    <text class="cls-1" transform="translate(80.29 27.24) rotate(46.96)"><tspan x="0" y="0">s</tspan></text>
    <text class="cls-1" transform="translate(80.96 27.96) rotate(48.3)"><tspan x="0" y="0"> </tspan></text>
    <text class="cls-1" transform="translate(81.44 28.49) rotate(49.33)"><tspan x="0" y="0">t</tspan></text>
    <text class="cls-1" transform="translate(81.88 29) rotate(50.98)"><tspan x="0" y="0">o</tspan></text>
    <text class="cls-1" transform="translate(82.78 30.12) rotate(52.64)"><tspan x="0" y="0"> </tspan></text>
    <text class="cls-1" transform="translate(83.22 30.68) rotate(54.17)"><tspan x="0" y="0">h</tspan></text>
    <text class="cls-1" transform="translate(83.98 31.73) rotate(56.24)"><tspan x="0" y="0">o</tspan></text>
    <text class="cls-1" transform="translate(84.76 32.89) rotate(58.69)"><tspan x="0" y="0">w</tspan></text>
    <text class="cls-1" transform="translate(85.71 34.47) rotate(60.64)"><tspan x="0" y="0"> </tspan></text>
    <text class="cls-1" transform="translate(86.07 35.11) rotate(61.68)"><tspan x="0" y="0">t</tspan></text>
    <text class="cls-1" transform="translate(86.41 35.72) rotate(64.1)"><tspan x="0" y="0">h</tspan></text>
    <text class="cls-1" transform="translate(86.99 36.88) rotate(65.17)"><tspan x="0" y="0">e</tspan></text>
    <text class="cls-1" transform="translate(87.53 38.07) rotate(66.71)"><tspan x="0" y="0"> </tspan></text>
    <text class="cls-1" transform="translate(87.82 38.74) rotate(67.71)"><tspan x="0" y="0">i</tspan></text>
    <text class="cls-1" transform="translate(88.05 39.29) rotate(69.15)"><tspan x="0" y="0">n</tspan></text>
    <text class="cls-1" transform="translate(88.51 40.51) rotate(70.64)"><tspan x="0" y="0">t</tspan></text>
    <text class="cls-1" transform="translate(88.74 41.14) rotate(72.27)"><tspan x="0" y="0">a</tspan></text>
    <text class="cls-1" transform="translate(89.17 42.48) rotate(74.2)"><tspan x="0" y="0">c</tspan></text>
    <text class="cls-1" transform="translate(89.48 43.59) rotate(75.59)"><tspan x="0" y="0">t</tspan></text>
    <text class="cls-1" transform="translate(89.64 44.22) rotate(76.66)"><tspan x="0" y="0"> </tspan></text>
    <text class="cls-1" transform="translate(89.81 44.93) rotate(78.32)"><tspan x="0" y="0">o</tspan></text>
    <text class="cls-1" transform="translate(90.1 46.33) rotate(80.1)"><tspan x="0" y="0">r</tspan></text>
    <text class="cls-1" transform="translate(90.25 47.19) rotate(81.87)"><tspan x="0" y="0">g</tspan></text>
    <text class="cls-1" transform="translate(90.46 48.61) rotate(84.08)"><tspan x="0" y="0">a</tspan></text>
    <text class="cls-1" transform="translate(90.6 50.01) rotate(86.14)"><tspan x="0" y="0">n</tspan></text>
    <text class="cls-1" transform="translate(90.68 51.34) rotate(87.63)"><tspan x="0" y="0">i</tspan></text>
    <text class="cls-1" transform="translate(90.71 51.92) rotate(88.81)"><tspan x="0" y="0">s</tspan></text>
    <text class="cls-1" transform="translate(90.74 52.87) rotate(90.99)"><tspan x="0" y="0">m</tspan></text>
    <text class="cls-1" transform="translate(90.7 54.76) rotate(92.99)"><tspan x="0" y="0"> </tspan></text>
    <text class="cls-1" transform="translate(90.66 55.48) rotate(94.07)"><tspan x="0" y="0">f</tspan></text>
    <text class="cls-1" transform="translate(90.61 56.19) rotate(95.62)"><tspan x="0" y="0">u</tspan></text>
    <text class="cls-1" transform="translate(90.49 57.48) rotate(97.6)"><tspan x="0" y="0">n</tspan></text>
    <text class="cls-1" transform="translate(90.31 58.77) rotate(99.45)"><tspan x="0" y="0">c</tspan></text>
    <text class="cls-1" transform="translate(90.12 59.9) rotate(100.82)"><tspan x="0" y="0">t</tspan></text>
    <text class="cls-1" transform="translate(90 60.54) rotate(101.76)"><tspan x="0" y="0">i</tspan></text>
    <text class="cls-1" transform="translate(89.89 61.09) rotate(103.26)"><tspan x="0" y="0">o</tspan></text>
    <text class="cls-1" transform="translate(89.56 62.49) rotate(105.35)"><tspan x="0" y="0">n</tspan></text>
    <text class="cls-1" transform="translate(89.21 63.74) rotate(107.06)"><tspan x="0" y="0">s</tspan></text>
    <text class="cls-1" transform="translate(88.93 64.66) rotate(108.34)"><tspan x="0" y="0">.</tspan></text>
    <text class="cls-1" transform="translate(88.7 65.35) rotate(109.45)"><tspan x="0" y="0"> </tspan></text>
  </g>
</svg>