<?xml version="1.0" encoding="UTF-8"?>
<svg id="Layer_2" data-name="Layer 2" xmlns="http://www.w3.org/2000/svg" viewBox="0 0 166 166">
  <defs>
    <style>
      .cls-1 {
        fill: #231f20;
        font-family: Futura-Medium, Futura;
        font-size: 3px;
        font-weight: 500;
      }
    </style>
  </defs>
  <g id="Layer_12" data-name="Layer 12">
    <text class="cls-1" transform="translate(58.08 137.59) rotate(-154.53)"><tspan x="0" y="0">I</tspan></text>
    <text class="cls-1" transform="translate(57.29 137.22) rotate(-153.87)"><tspan x="0" y="0">n</tspan></text>
    <text class="cls-1" transform="translate(55.82 136.49) rotate(-152.67)"><tspan x="0" y="0"> </tspan></text>
    <text class="cls-1" transform="translate(55.01 136.07) rotate(-151.86)"><tspan x="0" y="0">t</tspan></text>
    <text class="cls-1" transform="translate(54.25 135.67) rotate(-150.66)"><tspan x="0" y="0">h</tspan></text>
    <text class="cls-1" transform="translate(52.83 134.87) rotate(-149.1)"><tspan x="0" y="0">e</tspan></text>
    <text class="cls-1" transform="translate(51.4 134.01) rotate(-147.86)"><tspan x="0" y="0"> </tspan></text>
    <text class="cls-1" transform="translate(50.63 133.54) rotate(-146.55)"><tspan x="0" y="0">1</tspan></text>
    <text class="cls-1" transform="translate(49.3 132.66) rotate(-145.02)"><tspan x="0" y="0">9</tspan></text>
    <text class="cls-1" transform="translate(47.8 131.61) rotate(-143.27)"><tspan x="0" y="0">9</tspan></text>
    <text class="cls-1" transform="translate(46.53 130.67) rotate(-141.75)"><tspan x="0" y="0">4</tspan></text>
    <text class="cls-1" transform="translate(45.1 129.53) rotate(-140.43)"><tspan x="0" y="0"> </tspan></text>
    <text class="cls-1" transform="translate(44.39 128.96) rotate(-139.14)"><tspan x="0" y="0">a</tspan></text>
    <text class="cls-1" transform="translate(43.05 127.79) rotate(-137.49)"><tspan x="0" y="0">n</tspan></text>
    <text class="cls-1" transform="translate(41.85 126.69) rotate(-136.37)"><tspan x="0" y="0">i</tspan></text>
    <text class="cls-1" transform="translate(41.31 126.18) rotate(-134.86)"><tspan x="0" y="0">m</tspan></text>
    <text class="cls-1" transform="translate(39.65 124.52) rotate(-132.88)"><tspan x="0" y="0">a</tspan></text>
    <text class="cls-1" transform="translate(38.44 123.2) rotate(-131.64)"><tspan x="0" y="0">t</tspan></text>
    <text class="cls-1" transform="translate(37.88 122.58) rotate(-130.43)"><tspan x="0" y="0">e</tspan></text>
    <text class="cls-1" transform="translate(36.82 121.34) rotate(-128.8)"><tspan x="0" y="0">d</tspan></text>
    <text class="cls-1" transform="translate(35.71 119.95) rotate(-127.51)"><tspan x="0" y="0"> </tspan></text>
    <text class="cls-1" transform="translate(35.15 119.22) rotate(-126.64)"><tspan x="0" y="0">f</tspan></text>
    <text class="cls-1" transform="translate(34.58 118.45) rotate(-125.8)"><tspan x="0" y="0">i</tspan></text>
    <text class="cls-1" transform="translate(34.14 117.84) rotate(-125.08)"><tspan x="0" y="0">l</tspan></text>
    <text class="cls-1" transform="translate(33.72 117.26) rotate(-123.62)"><tspan x="0" y="0">m</tspan></text>
    <text class="cls-1" transform="translate(32.42 115.29) rotate(-122.06)"><tspan x="0" y="0"> </tspan></text>
    <text class="cls-1" transform="translate(31.94 114.52) rotate(-120.94)"><tspan x="0" y="0">T</tspan></text>
    <text class="cls-1" transform="translate(31.2 113.29) rotate(-119.48)"><tspan x="0" y="0">h</tspan></text>
    <text class="cls-1" transform="translate(30.4 111.88) rotate(-117.94)"><tspan x="0" y="0">e</tspan></text>
    <text class="cls-1" transform="translate(29.62 110.4) rotate(-116.7)"><tspan x="0" y="0"> </tspan></text>
    <text class="cls-1" transform="translate(29.21 109.6) rotate(-115.65)"><tspan x="0" y="0">L</tspan></text>
    <text class="cls-1" transform="translate(28.64 108.4) rotate(-114.67)"><tspan x="0" y="0">i</tspan></text>
    <text class="cls-1" transform="translate(28.33 107.74) rotate(-113.47)"><tspan x="0" y="0">o</tspan></text>
    <text class="cls-1" transform="translate(27.63 106.12) rotate(-111.87)"><tspan x="0" y="0">n</tspan></text>
    <text class="cls-1" transform="translate(27.02 104.59) rotate(-110.65)"><tspan x="0" y="0"> </tspan></text>
    <text class="cls-1" transform="translate(26.68 103.73) rotate(-109.26)"><tspan x="0" y="0">K</tspan></text>
    <text class="cls-1" transform="translate(26.04 101.86) rotate(-107.98)"><tspan x="0" y="0">i</tspan></text>
    <text class="cls-1" transform="translate(25.81 101.18) rotate(-106.87)"><tspan x="0" y="0">n</tspan></text>
    <text class="cls-1" transform="translate(25.34 99.62) rotate(-105.25)"><tspan x="0" y="0">g</tspan></text>
    <text class="cls-1" transform="translate(24.87 97.89) rotate(-103.97)"><tspan x="0" y="0">,</tspan></text>
    <text class="cls-1" transform="translate(24.66 97.02) rotate(-103.11)"><tspan x="0" y="0"> </tspan></text>
    <text class="cls-1" transform="translate(24.44 96.13) rotate(-101.82)"><tspan x="0" y="0">o</tspan></text>
    <text class="cls-1" transform="translate(24.08 94.37) rotate(-100.19)"><tspan x="0" y="0">n</tspan></text>
    <text class="cls-1" transform="translate(23.79 92.78) rotate(-98.64)"><tspan x="0" y="0">e</tspan></text>
    <text class="cls-1" transform="translate(23.55 91.14) rotate(-97.41)"><tspan x="0" y="0"> </tspan></text>
    <text class="cls-1" transform="translate(23.42 90.23) rotate(-96.29)"><tspan x="0" y="0">c</tspan></text>
    <text class="cls-1" transform="translate(23.26 88.74) rotate(-94.75)"><tspan x="0" y="0">h</tspan></text>
    <text class="cls-1" transform="translate(23.13 87.14) rotate(-93.15)"><tspan x="0" y="0">a</tspan></text>
    <text class="cls-1" transform="translate(23.03 85.35) rotate(-91.76)"><tspan x="0" y="0">r</tspan></text>
    <text class="cls-1" transform="translate(22.99 84.26) rotate(-90.38)"><tspan x="0" y="0">a</tspan></text>
    <text class="cls-1" transform="translate(22.98 82.48) rotate(-88.85)"><tspan x="0" y="0">c</tspan></text>
    <text class="cls-1" transform="translate(23.01 81.05) rotate(-87.77)"><tspan x="0" y="0">t</tspan></text>
    <text class="cls-1" transform="translate(23.04 80.24) rotate(-86.58)"><tspan x="0" y="0">e</tspan></text>
    <text class="cls-1" transform="translate(23.14 78.57) rotate(-85.24)"><tspan x="0" y="0">r</tspan></text>
    <text class="cls-1" transform="translate(23.24 77.47) rotate(-84.27)"><tspan x="0" y="0"> </tspan></text>
    <text class="cls-1" transform="translate(23.33 76.56) rotate(-83.47)"><tspan x="0" y="0">i</tspan></text>
    <text class="cls-1" transform="translate(23.41 75.83) rotate(-82.54)"><tspan x="0" y="0">s</tspan></text>
    <text class="cls-1" transform="translate(23.57 74.63) rotate(-81.52)"><tspan x="0" y="0"> </tspan></text>
    <text class="cls-1" transform="translate(23.71 73.72) rotate(-80.71)"><tspan x="0" y="0">i</tspan></text>
    <text class="cls-1" transform="translate(23.81 73.01) rotate(-79.24)"><tspan x="0" y="0">m</tspan></text>
    <text class="cls-1" transform="translate(24.27 70.64) rotate(-77.21)"><tspan x="0" y="0">p</tspan></text>
    <text class="cls-1" transform="translate(24.67 68.9) rotate(-75.81)"><tspan x="0" y="0">r</tspan></text>
    <text class="cls-1" transform="translate(24.95 67.79) rotate(-74.89)"><tspan x="0" y="0">i</tspan></text>
    <text class="cls-1" transform="translate(25.14 67.08) rotate(-73.97)"><tspan x="0" y="0">s</tspan></text>
    <text class="cls-1" transform="translate(25.47 65.91) rotate(-72.52)"><tspan x="0" y="0">o</tspan></text>
    <text class="cls-1" transform="translate(26.01 64.21) rotate(-70.9)"><tspan x="0" y="0">n</tspan></text>
    <text class="cls-1" transform="translate(26.53 62.68) rotate(-69.36)"><tspan x="0" y="0">e</tspan></text>
    <text class="cls-1" transform="translate(27.12 61.13) rotate(-67.73)"><tspan x="0" y="0">d</tspan></text>
    <text class="cls-1" transform="translate(27.79 59.5) rotate(-66.48)"><tspan x="0" y="0"> </tspan></text>
    <text class="cls-1" transform="translate(28.17 58.64) rotate(-66.39)"><tspan x="0" y="0">i</tspan></text>
    <text class="cls-1" transform="translate(28.45 57.99) rotate(-64.53)"><tspan x="0" y="0">n</tspan></text>
    <text class="cls-1" transform="translate(29.16 56.51) rotate(-63.4)"><tspan x="0" y="0"> </tspan></text>
    <text class="cls-1" transform="translate(29.57 55.67) rotate(-62.11)"><tspan x="0" y="0">a</tspan></text>
    <text class="cls-1" transform="translate(30.41 54.11) rotate(-60.84)"><tspan x="0" y="0"> </tspan></text>
    <text class="cls-1" transform="translate(30.85 53.31) rotate(-59.73)"><tspan x="0" y="0">c</tspan></text>
    <text class="cls-1" transform="translate(31.56 52.09) rotate(-58.22)"><tspan x="0" y="0">a</tspan></text>
    <text class="cls-1" transform="translate(32.5 50.57) rotate(-56.5)"><tspan x="0" y="0">g</tspan></text>
    <text class="cls-1" transform="translate(33.47 49.1) rotate(-54.88)"><tspan x="0" y="0">e</tspan></text>
    <text class="cls-1" transform="translate(34.43 47.75) rotate(-53.65)"><tspan x="0" y="0"> </tspan></text>
    <text class="cls-1" transform="translate(34.97 47.01) rotate(-52.82)"><tspan x="0" y="0">t</tspan></text>
    <text class="cls-1" transform="translate(35.49 46.32) rotate(-51.59)"><tspan x="0" y="0">h</tspan></text>
    <text class="cls-1" transform="translate(36.51 45.04) rotate(-49.94)"><tspan x="0" y="0">a</tspan></text>
    <text class="cls-1" transform="translate(37.66 43.67) rotate(-48.69)"><tspan x="0" y="0">t</tspan></text>
    <text class="cls-1" transform="translate(38.19 43.07) rotate(-47.87)"><tspan x="0" y="0"> </tspan></text>
    <text class="cls-1" transform="translate(38.8 42.39) rotate(-46.57)"><tspan x="0" y="0">a</tspan></text>
    <text class="cls-1" transform="translate(40.04 41.08) rotate(-45.31)"><tspan x="0" y="0">t</tspan></text>
    <text class="cls-1" transform="translate(40.6 40.52) rotate(-44.49)"><tspan x="0" y="0"> </tspan></text>
    <text class="cls-1" transform="translate(41.25 39.87) rotate(-43.19)"><tspan x="0" y="0">a</tspan></text>
    <text class="cls-1" transform="translate(42.55 38.66) rotate(-41.9)"><tspan x="0" y="0"> </tspan></text>
    <text class="cls-1" transform="translate(43.25 38.03) rotate(-41.09)"><tspan x="0" y="0">l</tspan></text>
    <text class="cls-1" transform="translate(43.79 37.55) rotate(-39.89)"><tspan x="0" y="0">a</tspan></text>
    <text class="cls-1" transform="translate(45.17 36.41) rotate(-38.64)"><tspan x="0" y="0">t</tspan></text>
    <text class="cls-1" transform="translate(45.81 35.89) rotate(-37.45)"><tspan x="0" y="0">e</tspan></text>
    <text class="cls-1" transform="translate(47.12 34.89) rotate(-36.12)"><tspan x="0" y="0">r</tspan></text>
    <text class="cls-1" transform="translate(48.01 34.24) rotate(-35.17)"><tspan x="0" y="0"> </tspan></text>
    <text class="cls-1" transform="translate(48.76 33.71) rotate(-33.87)"><tspan x="0" y="0">p</tspan></text>
    <text class="cls-1" transform="translate(50.24 32.72) rotate(-32.17)"><tspan x="0" y="0">o</tspan></text>
    <text class="cls-1" transform="translate(51.76 31.77) rotate(-30.97)"><tspan x="0" y="0">i</tspan></text>
    <text class="cls-1" transform="translate(52.4 31.38) rotate(-29.83)"><tspan x="0" y="0">n</tspan></text>
    <text class="cls-1" transform="translate(53.81 30.57) rotate(-28.67)"><tspan x="0" y="0">t</tspan></text>
    <text class="cls-1" transform="translate(54.52 30.18) rotate(-27.85)"><tspan x="0" y="0"> </tspan></text>
    <text class="cls-1" transform="translate(55.33 29.76) rotate(-27.06)"><tspan x="0" y="0">i</tspan></text>
    <text class="cls-1" transform="translate(55.99 29.41) rotate(-25.93)"><tspan x="0" y="0">n</tspan></text>
    <text class="cls-1" transform="translate(57.45 28.71) rotate(-24.73)"><tspan x="0" y="0"> </tspan></text>
    <text class="cls-1" transform="translate(58.28 28.33) rotate(-23.92)"><tspan x="0" y="0">t</tspan></text>
    <text class="cls-1" transform="translate(59.07 27.97) rotate(-22.7)"><tspan x="0" y="0">h</tspan></text>
    <text class="cls-1" transform="translate(60.58 27.34) rotate(-21.14)"><tspan x="0" y="0">e</tspan></text>
    <text class="cls-1" transform="translate(62.12 26.75) rotate(-19.93)"><tspan x="0" y="0"> </tspan></text>
    <text class="cls-1" transform="translate(62.98 26.43) rotate(-19.07)"><tspan x="0" y="0">f</tspan></text>
    <text class="cls-1" transform="translate(63.88 26.13) rotate(-18.24)"><tspan x="0" y="0">i</tspan></text>
    <text class="cls-1" transform="translate(64.56 25.9) rotate(-17.56)"><tspan x="0" y="0">l</tspan></text>
    <text class="cls-1" transform="translate(65.26 25.67) rotate(-16.08)"><tspan x="0" y="0">m</tspan></text>
    <text class="cls-1" transform="translate(67.54 25.02) rotate(-14.52)"><tspan x="0" y="0"> </tspan></text>
    <text class="cls-1" transform="translate(68.43 24.79) rotate(-13.24)"><tspan x="0" y="0">a</tspan></text>
    <text class="cls-1" transform="translate(70.14 24.39) rotate(-11.74)"><tspan x="0" y="0">c</tspan></text>
    <text class="cls-1" transform="translate(71.54 24.1) rotate(-10.66)"><tspan x="0" y="0">t</tspan></text>
    <text class="cls-1" transform="translate(72.35 23.94) rotate(-9.7)"><tspan x="0" y="0">s</tspan></text>
    <text class="cls-1" transform="translate(73.54 23.74) rotate(-8.69)"><tspan x="0" y="0"> </tspan></text>
    <text class="cls-1" transform="translate(74.44 23.6) rotate(-7.39)"><tspan x="0" y="0">a</tspan></text>
    <text class="cls-1" transform="translate(76.21 23.37) rotate(-5.97)"><tspan x="0" y="0">s</tspan></text>
    <text class="cls-1" transform="translate(77.39 23.25) rotate(-4.97)"><tspan x="0" y="0"> </tspan></text>
    <text class="cls-1" transform="translate(78.3 23.17) rotate(-3.76)"><tspan x="0" y="0">h</tspan></text>
    <text class="cls-1" transform="translate(79.93 23.06) rotate(-2.63)"><tspan x="0" y="0">i</tspan></text>
    <text class="cls-1" transform="translate(80.69 23.03) rotate(-1.67)"><tspan x="0" y="0">s</tspan></text>
    <text class="cls-1" transform="translate(81.88 22.99) rotate(-.66)"><tspan x="0" y="0"> </tspan></text>
    <text class="cls-1" transform="translate(82.78 22.98) rotate(.34)"><tspan x="0" y="0">s</tspan></text>
    <text class="cls-1" transform="translate(84.01 22.99) rotate(1.72)"><tspan x="0" y="0">h</tspan></text>
    <text class="cls-1" transform="translate(85.62 23.04) rotate(3.28)"><tspan x="0" y="0">e</tspan></text>
    <text class="cls-1" transform="translate(87.27 23.13) rotate(4.43)"><tspan x="0" y="0">l</tspan></text>
    <text class="cls-1" transform="translate(88.01 23.19) rotate(5.18)"><tspan x="0" y="0">t</tspan></text>
    <text class="cls-1" transform="translate(88.83 23.26) rotate(6.37)"><tspan x="0" y="0">e</tspan></text>
    <text class="cls-1" transform="translate(90.47 23.45) rotate(7.71)"><tspan x="0" y="0">r</tspan></text>
    <text class="cls-1" transform="translate(91.46 23.58) rotate(8.57)"><tspan x="0" y="0">,</tspan></text>
    <text class="cls-1" transform="translate(92.38 23.72) rotate(9.46)"><tspan x="0" y="0"> </tspan></text>
    <text class="cls-1" transform="translate(93.27 23.87) rotate(10.29)"><tspan x="0" y="0">t</tspan></text>
    <text class="cls-1" transform="translate(94.13 24.02) rotate(11.52)"><tspan x="0" y="0">h</tspan></text>
    <text class="cls-1" transform="translate(95.72 24.34) rotate(13.09)"><tspan x="0" y="0">e</tspan></text>
    <text class="cls-1" transform="translate(97.33 24.72) rotate(14.32)"><tspan x="0" y="0"> </tspan></text>
    <text class="cls-1" transform="translate(98.2 24.94) rotate(15.61)"><tspan x="0" y="0">b</tspan></text>
    <text class="cls-1" transform="translate(99.93 25.42) rotate(17.32)"><tspan x="0" y="0">a</tspan></text>
    <text class="cls-1" transform="translate(101.63 25.96) rotate(18.7)"><tspan x="0" y="0">r</tspan></text>
    <text class="cls-1" transform="translate(102.67 26.31) rotate(19.78)"><tspan x="0" y="0">s</tspan></text>
    <text class="cls-1" transform="translate(103.82 26.72) rotate(20.8)"><tspan x="0" y="0"> </tspan></text>
    <text class="cls-1" transform="translate(104.67 27.05) rotate(21.61)"><tspan x="0" y="0">t</tspan></text>
    <text class="cls-1" transform="translate(105.48 27.36) rotate(22.82)"><tspan x="0" y="0">h</tspan></text>
    <text class="cls-1" transform="translate(106.99 28.01) rotate(23.61)"><tspan x="0" y="0">a</tspan></text>
    <text class="cls-1" transform="translate(108.6 28.73) rotate(25.63)"><tspan x="0" y="0">t</tspan></text>
    <text class="cls-1" transform="translate(109.34 29.09) rotate(26.44)"><tspan x="0" y="0"> </tspan></text>
    <text class="cls-1" transform="translate(110.15 29.49) rotate(27.21)"><tspan x="0" y="0">i</tspan></text>
    <text class="cls-1" transform="translate(110.82 29.82) rotate(28.69)"><tspan x="0" y="0">m</tspan></text>
    <text class="cls-1" transform="translate(112.9 30.97) rotate(30.68)"><tspan x="0" y="0">p</tspan></text>
    <text class="cls-1" transform="translate(114.44 31.88) rotate(32.06)"><tspan x="0" y="0">r</tspan></text>
    <text class="cls-1" transform="translate(115.43 32.51) rotate(33)"><tspan x="0" y="0">i</tspan></text>
    <text class="cls-1" transform="translate(116.05 32.91) rotate(33.93)"><tspan x="0" y="0">s</tspan></text>
    <text class="cls-1" transform="translate(117.03 33.56) rotate(35.34)"><tspan x="0" y="0">o</tspan></text>
    <text class="cls-1" transform="translate(118.51 34.61) rotate(37)"><tspan x="0" y="0">n</tspan></text>
    <text class="cls-1" transform="translate(119.8 35.59) rotate(38.57)"><tspan x="0" y="0">e</tspan></text>
    <text class="cls-1" transform="translate(121.09 36.61) rotate(40.22)"><tspan x="0" y="0">d</tspan></text>
    <text class="cls-1" transform="translate(122.44 37.76) rotate(41.51)"><tspan x="0" y="0"> </tspan></text>
    <text class="cls-1" transform="translate(123.14 38.38) rotate(42.75)"><tspan x="0" y="0">n</tspan></text>
    <text class="cls-1" transform="translate(124.33 39.47) rotate(44.39)"><tspan x="0" y="0">o</tspan></text>
    <text class="cls-1" transform="translate(125.56 40.67) rotate(46.28)"><tspan x="0" y="0">w</tspan></text>
    <text class="cls-1" transform="translate(127.16 42.35) rotate(47.84)"><tspan x="0" y="0"> </tspan></text>
    <text class="cls-1" transform="translate(127.77 43.02) rotate(49.13)"><tspan x="0" y="0">p</tspan></text>
    <text class="cls-1" transform="translate(128.94 44.38) rotate(50.53)"><tspan x="0" y="0">r</tspan></text>
    <text class="cls-1" transform="translate(129.62 45.2) rotate(51.88)"><tspan x="0" y="0">o</tspan></text>
    <text class="cls-1" transform="translate(130.74 46.63) rotate(53.14)"><tspan x="0" y="0">t</tspan></text>
    <text class="cls-1" transform="translate(131.24 47.29) rotate(54.33)"><tspan x="0" y="0">e</tspan></text>
    <text class="cls-1" transform="translate(132.2 48.63) rotate(55.8)"><tspan x="0" y="0">c</tspan></text>
    <text class="cls-1" transform="translate(132.99 49.8) rotate(56.86)"><tspan x="0" y="0">t</tspan></text>
    <text class="cls-1" transform="translate(133.43 50.48) rotate(57.68)"><tspan x="0" y="0">.</tspan></text>
    <text class="cls-1" transform="translate(133.93 51.26) rotate(58.56)"><tspan x="0" y="0"> </tspan></text>
    <text class="cls-1" transform="translate(134.4 52.04) rotate(59.68)"><tspan x="0" y="0">T</tspan></text>
    <text class="cls-1" transform="translate(135.13 53.27) rotate(61.14)"><tspan x="0" y="0">h</tspan></text>
    <text class="cls-1" transform="translate(135.92 54.71) rotate(62.7)"><tspan x="0" y="0">e</tspan></text>
    <text class="cls-1" transform="translate(136.66 56.16) rotate(63.9)"><tspan x="0" y="0"> </tspan></text>
    <text class="cls-1" transform="translate(137.07 56.98) rotate(65.01)"><tspan x="0" y="0">c</tspan></text>
    <text class="cls-1" transform="translate(137.67 58.26) rotate(66.53)"><tspan x="0" y="0">a</tspan></text>
    <text class="cls-1" transform="translate(138.38 59.89) rotate(68.22)"><tspan x="0" y="0">g</tspan></text>
    <text class="cls-1" transform="translate(139.04 61.54) rotate(69.84)"><tspan x="0" y="0">e</tspan></text>
    <text class="cls-1" transform="translate(139.6 63.09) rotate(71.06)"><tspan x="0" y="0"> </tspan></text>
    <text class="cls-1" transform="translate(139.9 63.95) rotate(72.06)"><tspan x="0" y="0">s</tspan></text>
    <text class="cls-1" transform="translate(140.28 65.12) rotate(73.43)"><tspan x="0" y="0">h</tspan></text>
    <text class="cls-1" transform="translate(140.74 66.67) rotate(74.54)"><tspan x="0" y="0">i</tspan></text>
    <text class="cls-1" transform="translate(140.94 67.38) rotate(75.31)"><tspan x="0" y="0">f</tspan></text>
    <text class="cls-1" transform="translate(141.18 68.33) rotate(76.21)"><tspan x="0" y="0">t</tspan></text>
    <text class="cls-1" transform="translate(141.38 69.12) rotate(77.17)"><tspan x="0" y="0">s</tspan></text>
    <text class="cls-1" transform="translate(141.64 70.3) rotate(78.18)"><tspan x="0" y="0"> </tspan></text>
    <text class="cls-1" transform="translate(141.83 71.2) rotate(79.04)"><tspan x="0" y="0">f</tspan></text>
    <text class="cls-1" transform="translate(142 72.06) rotate(79.98)"><tspan x="0" y="0">r</tspan></text>
    <text class="cls-1" transform="translate(142.2 73.15) rotate(81.36)"><tspan x="0" y="0">o</tspan></text>
    <text class="cls-1" transform="translate(142.47 74.9) rotate(83.32)"><tspan x="0" y="0">m</tspan></text>
    <text class="cls-1" transform="translate(142.73 77.24) rotate(84.88)"><tspan x="0" y="0"> </tspan></text>
    <text class="cls-1" transform="translate(142.82 78.15) rotate(86.03)"><tspan x="0" y="0">k</tspan></text>
    <text class="cls-1" transform="translate(142.92 79.56) rotate(87.46)"><tspan x="0" y="0">e</tspan></text>
    <text class="cls-1" transform="translate(142.99 81.22) rotate(89.05)"><tspan x="0" y="0">e</tspan></text>
    <text class="cls-1" transform="translate(143.02 82.86) rotate(90.69)"><tspan x="0" y="0">p</tspan></text>
    <text class="cls-1" transform="translate(142.99 84.64) rotate(91.9)"><tspan x="0" y="0">i</tspan></text>
    <text class="cls-1" transform="translate(142.97 85.38) rotate(93.04)"><tspan x="0" y="0">n</tspan></text>
    <text class="cls-1" transform="translate(142.89 87.02) rotate(94.69)"><tspan x="0" y="0">g</tspan></text>
    <text class="cls-1" transform="translate(142.74 88.78) rotate(95.98)"><tspan x="0" y="0"> </tspan></text>
    <text class="cls-1" transform="translate(142.65 89.68) rotate(97.2)"><tspan x="0" y="0">h</tspan></text>
    <text class="cls-1" transform="translate(142.44 91.3) rotate(98.33)"><tspan x="0" y="0">i</tspan></text>
    <text class="cls-1" transform="translate(142.34 92.03) rotate(99.82)"><tspan x="0" y="0">m</tspan></text>
    <text class="cls-1" transform="translate(141.93 94.36) rotate(101.41)"><tspan x="0" y="0"> </tspan></text>
    <text class="cls-1" transform="translate(141.75 95.25) rotate(102.19)"><tspan x="0" y="0">i</tspan></text>
    <text class="cls-1" transform="translate(141.6 95.98) rotate(103.33)"><tspan x="0" y="0">n</tspan></text>
    <text class="cls-1" transform="translate(141.22 97.56) rotate(104.55)"><tspan x="0" y="0"> </tspan></text>
    <text class="cls-1" transform="translate(140.99 98.45) rotate(105.38)"><tspan x="0" y="0">t</tspan></text>
    <text class="cls-1" transform="translate(140.77 99.25) rotate(106.64)"><tspan x="0" y="0">o</tspan></text>
    <text class="cls-1" transform="translate(140.26 100.96) rotate(107.93)"><tspan x="0" y="0"> </tspan></text>
    <text class="cls-1" transform="translate(139.98 101.82) rotate(109.06)"><tspan x="0" y="0">k</tspan></text>
    <text class="cls-1" transform="translate(139.51 103.18) rotate(110.51)"><tspan x="0" y="0">e</tspan></text>
    <text class="cls-1" transform="translate(138.93 104.73) rotate(112.07)"><tspan x="0" y="0">e</tspan></text>
    <text class="cls-1" transform="translate(138.32 106.25) rotate(113.61)"><tspan x="0" y="0">p</tspan></text>
    <text class="cls-1" transform="translate(137.6 107.89) rotate(115.47)"><tspan x="0" y="0">i</tspan></text>
    <text class="cls-1" transform="translate(137.3 108.54) rotate(115.95)"><tspan x="0" y="0">n</tspan></text>
    <text class="cls-1" transform="translate(136.58 110.03) rotate(117.58)"><tspan x="0" y="0">g</tspan></text>
    <text class="cls-1" transform="translate(135.75 111.6) rotate(118.85)"><tspan x="0" y="0"> </tspan></text>
    <text class="cls-1" transform="translate(135.32 112.38) rotate(120.11)"><tspan x="0" y="0">o</tspan></text>
    <text class="cls-1" transform="translate(134.4 113.96) rotate(121.38)"><tspan x="0" y="0">t</tspan></text>
    <text class="cls-1" transform="translate(133.96 114.7) rotate(122.6)"><tspan x="0" y="0">h</tspan></text>
    <text class="cls-1" transform="translate(133.07 116.08) rotate(124.17)"><tspan x="0" y="0">e</tspan></text>
    <text class="cls-1" transform="translate(132.16 117.42) rotate(125.48)"><tspan x="0" y="0">r</tspan></text>
    <text class="cls-1" transform="translate(131.51 118.34) rotate(126.6)"><tspan x="0" y="0">s</tspan></text>
    <text class="cls-1" transform="translate(130.78 119.31) rotate(127.63)"><tspan x="0" y="0"> </tspan></text>
    <text class="cls-1" transform="translate(130.23 120.04) rotate(128.92)"><tspan x="0" y="0">o</tspan></text>
    <text class="cls-1" transform="translate(129.11 121.42) rotate(130.55)"><tspan x="0" y="0">u</tspan></text>
    <text class="cls-1" transform="translate(128.05 122.65) rotate(131.73)"><tspan x="0" y="0">t</tspan></text>
    <text class="cls-1" transform="translate(127.52 123.25) rotate(132.55)"><tspan x="0" y="0"> </tspan></text>
    <text class="cls-1" transform="translate(126.9 123.93) rotate(133.85)"><tspan x="0" y="0">b</tspan></text>
    <text class="cls-1" transform="translate(125.66 125.22) rotate(135.58)"><tspan x="0" y="0">a</tspan></text>
    <text class="cls-1" transform="translate(124.39 126.46) rotate(137)"><tspan x="0" y="0">s</tspan></text>
    <text class="cls-1" transform="translate(123.52 127.28) rotate(138.37)"><tspan x="0" y="0">e</tspan></text>
    <text class="cls-1" transform="translate(122.29 128.37) rotate(140)"><tspan x="0" y="0">d</tspan></text>
    <text class="cls-1" transform="translate(120.91 129.52) rotate(141.31)"><tspan x="0" y="0"> </tspan></text>
    <text class="cls-1" transform="translate(120.21 130.09) rotate(142.6)"><tspan x="0" y="0">o</tspan></text>
    <text class="cls-1" transform="translate(118.8 131.17) rotate(144.22)"><tspan x="0" y="0">n</tspan></text>
    <text class="cls-1" transform="translate(117.46 132.13) rotate(145.46)"><tspan x="0" y="0"> </tspan></text>
    <text class="cls-1" transform="translate(116.71 132.65) rotate(146.56)"><tspan x="0" y="0">c</tspan></text>
    <text class="cls-1" transform="translate(115.53 133.43) rotate(148.09)"><tspan x="0" y="0">o</tspan></text>
    <text class="cls-1" transform="translate(114.01 134.38) rotate(149.72)"><tspan x="0" y="0">n</tspan></text>
    <text class="cls-1" transform="translate(112.6 135.2) rotate(150.88)"><tspan x="0" y="0">t</tspan></text>
    <text class="cls-1" transform="translate(111.89 135.6) rotate(152.06)"><tspan x="0" y="0">e</tspan></text>
    <text class="cls-1" transform="translate(110.48 136.34) rotate(153.58)"><tspan x="0" y="0">x</tspan></text>
    <text class="cls-1" transform="translate(108.99 137.08) rotate(154.76)"><tspan x="0" y="0">t</tspan></text>
    <text class="cls-1" transform="translate(108.26 137.42) rotate(155.57)"><tspan x="0" y="0">.</tspan></text>
  </g>
</svg>