<?xml version="1.0" encoding="UTF-8"?>
<svg id="Layer_2" data-name="Layer 2" xmlns="http://www.w3.org/2000/svg" viewBox="0 0 339.98 339.98">
  <defs>
    <style>
      .cls-1 {
        fill: #231f20;
        font-family: Futura-Medium, Futura;
        font-size: 4.5px;
        font-weight: 500;
      }
    </style>
  </defs>
  <g id="Layer_27" data-name="Layer 27">
    <text class="cls-1" transform="translate(87.77 87.8) rotate(-43.85)"><tspan x="0" y="0">W</tspan></text>
    <text class="cls-1" transform="translate(91.02 84.69) rotate(-42.22)"><tspan x="0" y="0">e</tspan></text>
    <text class="cls-1" transform="translate(92.86 83.03) rotate(-41.28)"><tspan x="0" y="0"> </tspan></text>
    <text class="cls-1" transform="translate(93.9 82.11) rotate(-40.42)"><tspan x="0" y="0">c</tspan></text>
    <text class="cls-1" transform="translate(95.51 80.73) rotate(-39.25)"><tspan x="0" y="0">a</tspan></text>
    <text class="cls-1" transform="translate(97.59 79.03) rotate(-37.98)"><tspan x="0" y="0">n</tspan></text>
    <text class="cls-1" transform="translate(99.52 77.54) rotate(-37.05)"><tspan x="0" y="0"> </tspan></text>
    <text class="cls-1" transform="translate(100.61 76.7) rotate(-36.04)"><tspan x="0" y="0">a</tspan></text>
    <text class="cls-1" transform="translate(102.79 75.12) rotate(-35.07)"><tspan x="0" y="0">t</tspan></text>
    <text class="cls-1" transform="translate(103.8 74.42) rotate(-34.47)"><tspan x="0" y="0">t</tspan></text>
    <text class="cls-1" transform="translate(104.83 73.71) rotate(-33.54)"><tspan x="0" y="0">e</tspan></text>
    <text class="cls-1" transform="translate(106.88 72.34) rotate(-32.05)"><tspan x="0" y="0">m</tspan></text>
    <text class="cls-1" transform="translate(109.92 70.44) rotate(-30.48)"><tspan x="0" y="0">p</tspan></text>
    <text class="cls-1" transform="translate(112.28 69.06) rotate(-29.49)"><tspan x="0" y="0">t</tspan></text>
    <text class="cls-1" transform="translate(113.34 68.46) rotate(-28.85)"><tspan x="0" y="0"> </tspan></text>
    <text class="cls-1" transform="translate(114.55 67.8) rotate(-28.2)"><tspan x="0" y="0">t</tspan></text>
    <text class="cls-1" transform="translate(115.65 67.2) rotate(-27.21)"><tspan x="0" y="0">o</tspan></text>
    <text class="cls-1" transform="translate(118.04 65.97) rotate(-26.21)"><tspan x="0" y="0"> </tspan></text>
    <text class="cls-1" transform="translate(119.27 65.36) rotate(-25.2)"><tspan x="0" y="0">g</tspan></text>
    <text class="cls-1" transform="translate(121.69 64.22) rotate(-23.92)"><tspan x="0" y="0">e</tspan></text>
    <text class="cls-1" transform="translate(123.99 63.21) rotate(-22.99)"><tspan x="0" y="0">t</tspan></text>
    <text class="cls-1" transform="translate(125.12 62.73) rotate(-22.34)"><tspan x="0" y="0"> </tspan></text>
    <text class="cls-1" transform="translate(126.39 62.2) rotate(-21.33)"><tspan x="0" y="0">a</tspan></text>
    <text class="cls-1" transform="translate(128.9 61.23) rotate(-20.32)"><tspan x="0" y="0"> </tspan></text>
    <text class="cls-1" transform="translate(130.18 60.75) rotate(-19.66)"><tspan x="0" y="0">f</tspan></text>
    <text class="cls-1" transform="translate(131.42 60.31) rotate(-18.73)"><tspan x="0" y="0">u</tspan></text>
    <text class="cls-1" transform="translate(133.74 59.52) rotate(-17.85)"><tspan x="0" y="0">l</tspan></text>
    <text class="cls-1" transform="translate(134.81 59.18) rotate(-17.29)"><tspan x="0" y="0">l</tspan></text>
    <text class="cls-1" transform="translate(135.85 58.85) rotate(-16.41)"><tspan x="0" y="0">e</tspan></text>
    <text class="cls-1" transform="translate(138.24 58.15) rotate(-15.38)"><tspan x="0" y="0">r</tspan></text>
    <text class="cls-1" transform="translate(139.84 57.71) rotate(-14.64)"><tspan x="0" y="0"> </tspan></text>
    <text class="cls-1" transform="translate(141.18 57.36) rotate(-13.85)"><tspan x="0" y="0">s</tspan></text>
    <text class="cls-1" transform="translate(142.94 56.92) rotate(-12.79)"><tspan x="0" y="0">e</tspan></text>
    <text class="cls-1" transform="translate(145.34 56.38) rotate(-11.58)"><tspan x="0" y="0">n</tspan></text>
    <text class="cls-1" transform="translate(147.76 55.88) rotate(-10.53)"><tspan x="0" y="0">s</tspan></text>
    <text class="cls-1" transform="translate(149.54 55.55) rotate(-9.48)"><tspan x="0" y="0">e</tspan></text>
    <text class="cls-1" transform="translate(151.98 55.15) rotate(-8.53)"><tspan x="0" y="0"> </tspan></text>
    <text class="cls-1" transform="translate(153.33 54.94) rotate(-7.53)"><tspan x="0" y="0">o</tspan></text>
    <text class="cls-1" transform="translate(156 54.59) rotate(-6.55)"><tspan x="0" y="0">f</tspan></text>
    <text class="cls-1" transform="translate(157.32 54.44) rotate(-5.89)"><tspan x="0" y="0"> </tspan></text>
    <text class="cls-1" transform="translate(158.68 54.3) rotate(-5.26)"><tspan x="0" y="0">t</tspan></text>
    <text class="cls-1" transform="translate(159.99 54.17) rotate(-4.3)"><tspan x="0" y="0">h</tspan></text>
    <text class="cls-1" transform="translate(162.44 53.99) rotate(-3.1)"><tspan x="0" y="0">e</tspan></text>
    <text class="cls-1" transform="translate(164.9 53.86) rotate(-2.16)"><tspan x="0" y="0"> </tspan></text>
    <text class="cls-1" transform="translate(166.28 53.8) rotate(-1.22)"><tspan x="0" y="0">n</tspan></text>
    <text class="cls-1" transform="translate(168.73 53.75) rotate(-.01)"><tspan x="0" y="0">e</tspan></text>
    <text class="cls-1" transform="translate(171.2 53.75) rotate(1.25)"><tspan x="0" y="0">b</tspan></text>
    <text class="cls-1" transform="translate(173.87 53.81) rotate(2.5)"><tspan x="0" y="0">u</tspan></text>
    <text class="cls-1" transform="translate(176.32 53.92) rotate(3.37)"><tspan x="0" y="0">l</tspan></text>
    <text class="cls-1" transform="translate(177.42 53.98) rotate(4.3)"><tspan x="0" y="0">o</tspan></text>
    <text class="cls-1" transform="translate(180.09 54.18) rotate(5.55)"><tspan x="0" y="0">u</tspan></text>
    <text class="cls-1" transform="translate(182.53 54.42) rotate(6.6)"><tspan x="0" y="0">s</tspan></text>
    <text class="cls-1" transform="translate(184.33 54.63) rotate(7.38)"><tspan x="0" y="0"> </tspan></text>
    <text class="cls-1" transform="translate(185.71 54.8) rotate(8.33)"><tspan x="0" y="0">n</tspan></text>
    <text class="cls-1" transform="translate(188.12 55.16) rotate(9.58)"><tspan x="0" y="0">a</tspan></text>
    <text class="cls-1" transform="translate(190.78 55.61) rotate(10.55)"><tspan x="0" y="0">t</tspan></text>
    <text class="cls-1" transform="translate(191.97 55.83) rotate(11.44)"><tspan x="0" y="0">u</tspan></text>
    <text class="cls-1" transform="translate(194.36 56.32) rotate(12.45)"><tspan x="0" y="0">r</tspan></text>
    <text class="cls-1" transform="translate(195.95 56.66) rotate(13.46)"><tspan x="0" y="0">e</tspan></text>
    <text class="cls-1" transform="translate(198.36 57.25) rotate(14.41)"><tspan x="0" y="0"> </tspan></text>
    <text class="cls-1" transform="translate(199.7 57.58) rotate(15.41)"><tspan x="0" y="0">o</tspan></text>
    <text class="cls-1" transform="translate(202.29 58.3) rotate(16.4)"><tspan x="0" y="0">f</tspan></text>
    <text class="cls-1" transform="translate(203.57 58.68) rotate(17.07)"><tspan x="0" y="0"> </tspan></text>
    <text class="cls-1" transform="translate(204.89 59.08) rotate(17.71)"><tspan x="0" y="0">t</tspan></text>
    <text class="cls-1" transform="translate(206.12 59.47) rotate(18.66)"><tspan x="0" y="0">h</tspan></text>
    <text class="cls-1" transform="translate(208.45 60.26) rotate(19.88)"><tspan x="0" y="0">e</tspan></text>
    <text class="cls-1" transform="translate(210.79 61.11) rotate(20.85)"><tspan x="0" y="0"> </tspan></text>
    <text class="cls-1" transform="translate(212.07 61.6) rotate(21.71)"><tspan x="0" y="0">c</tspan></text>
    <text class="cls-1" transform="translate(214.06 62.38) rotate(22.91)"><tspan x="0" y="0">a</tspan></text>
    <text class="cls-1" transform="translate(216.53 63.43) rotate(23.88)"><tspan x="0" y="0">t</tspan></text>
    <text class="cls-1" transform="translate(217.66 63.93) rotate(24.8)"><tspan x="0" y="0">e</tspan></text>
    <text class="cls-1" transform="translate(219.91 64.97) rotate(26.08)"><tspan x="0" y="0">g</tspan></text>
    <text class="cls-1" transform="translate(222.31 66.14) rotate(27.41)"><tspan x="0" y="0">o</tspan></text>
    <text class="cls-1" transform="translate(224.7 67.39) rotate(28.5)"><tspan x="0" y="0">r</tspan></text>
    <text class="cls-1" transform="translate(226.34 68.27) rotate(29.61)"><tspan x="0" y="0">y</tspan></text>
    <text class="cls-1" transform="translate(228.45 69.48) rotate(30.56)"><tspan x="0" y="0"> </tspan></text>
    <text class="cls-1" transform="translate(229.65 70.18) rotate(31.58)"><tspan x="0" y="0">a</tspan></text>
    <text class="cls-1" transform="translate(231.92 71.58) rotate(32.9)"><tspan x="0" y="0">b</tspan></text>
    <text class="cls-1" transform="translate(234.18 73.04) rotate(34.23)"><tspan x="0" y="0">o</tspan></text>
    <text class="cls-1" transform="translate(236.34 74.51) rotate(35.41)"><tspan x="0" y="0">v</tspan></text>
    <text class="cls-1" transform="translate(238.1 75.76) rotate(36.54)"><tspan x="0" y="0">e</tspan></text>
    <text class="cls-1" transform="translate(240.08 77.23) rotate(37.48)"><tspan x="0" y="0"> </tspan></text>
    <text class="cls-1" transform="translate(241.17 78.06) rotate(38.48)"><tspan x="0" y="0">b</tspan></text>
    <text class="cls-1" transform="translate(243.21 79.68) rotate(39.7)"><tspan x="0" y="0">y</tspan></text>
    <text class="cls-1" transform="translate(245.08 81.23) rotate(40.63)"><tspan x="0" y="0"> </tspan></text>
    <text class="cls-1" transform="translate(246.13 82.13) rotate(41.62)"><tspan x="0" y="0">a</tspan></text>
    <text class="cls-1" transform="translate(248.13 83.91) rotate(42.87)"><tspan x="0" y="0">n</tspan></text>
    <text class="cls-1" transform="translate(249.93 85.58) rotate(44.07)"><tspan x="0" y="0">a</tspan></text>
    <text class="cls-1" transform="translate(251.86 87.43) rotate(45.93)"><tspan x="0" y="0">a</tspan></text>
    <text class="cls-1" transform="translate(253.73 89.36) rotate(46.33)"><tspan x="0" y="0">l</tspan></text>
    <text class="cls-1" transform="translate(254.52 90.18) rotate(47.2)"><tspan x="0" y="0">y</tspan></text>
    <text class="cls-1" transform="translate(256.18 91.97) rotate(48.39)"><tspan x="0" y="0">z</tspan></text>
    <text class="cls-1" transform="translate(257.8 93.8) rotate(49.26)"><tspan x="0" y="0">i</tspan></text>
    <text class="cls-1" transform="translate(258.51 94.62) rotate(50.12)"><tspan x="0" y="0">n</tspan></text>
    <text class="cls-1" transform="translate(260.09 96.51) rotate(51.39)"><tspan x="0" y="0">g</tspan></text>
    <text class="cls-1" transform="translate(261.75 98.6) rotate(52.38)"><tspan x="0" y="0"> </tspan></text>
    <text class="cls-1" transform="translate(262.6 99.69) rotate(53.38)"><tspan x="0" y="0">a</tspan></text>
    <text class="cls-1" transform="translate(264.2 101.84) rotate(54.39)"><tspan x="0" y="0"> </tspan></text>
    <text class="cls-1" transform="translate(265.01 102.97) rotate(55.06)"><tspan x="0" y="0">f</tspan></text>
    <text class="cls-1" transform="translate(265.8 104.1) rotate(56.03)"><tspan x="0" y="0">e</tspan></text>
    <text class="cls-1" transform="translate(267.14 106.08) rotate(57.46)"><tspan x="0" y="0">w</tspan></text>
    <text class="cls-1" transform="translate(269.01 109.03) rotate(58.67)"><tspan x="0" y="0"> </tspan></text>
    <text class="cls-1" transform="translate(269.73 110.21) rotate(59.63)"><tspan x="0" y="0">e</tspan></text>
    <text class="cls-1" transform="translate(270.93 112.25) rotate(60.81)"><tspan x="0" y="0">x</tspan></text>
    <text class="cls-1" transform="translate(272.11 114.35) rotate(62.06)"><tspan x="0" y="0">a</tspan></text>
    <text class="cls-1" transform="translate(273.37 116.73) rotate(63.61)"><tspan x="0" y="0">m</tspan></text>
    <text class="cls-1" transform="translate(274.96 119.95) rotate(65.18)"><tspan x="0" y="0">p</tspan></text>
    <text class="cls-1" transform="translate(276.08 122.38) rotate(66.11)"><tspan x="0" y="0">l</tspan></text>
    <text class="cls-1" transform="translate(276.54 123.39) rotate(67.01)"><tspan x="0" y="0">e</tspan></text>
    <text class="cls-1" transform="translate(277.5 125.67) rotate(68.07)"><tspan x="0" y="0">s</tspan></text>
    <text class="cls-1" transform="translate(278.18 127.35) rotate(68.86)"><tspan x="0" y="0">.</tspan></text>
    <text class="cls-1" transform="translate(278.68 128.65) rotate(69.55)"><tspan x="0" y="0"> </tspan></text>
    <text class="cls-1" transform="translate(279.17 129.94) rotate(70.71)"><tspan x="0" y="0">H</tspan></text>
    <text class="cls-1" transform="translate(280.24 133.01) rotate(72.17)"><tspan x="0" y="0">o</tspan></text>
    <text class="cls-1" transform="translate(281.04 135.48) rotate(73.64)"><tspan x="0" y="0">w</tspan></text>
    <text class="cls-1" transform="translate(282.01 138.83) rotate(74.85)"><tspan x="0" y="0"> </tspan></text>
    <text class="cls-1" transform="translate(282.38 140.16) rotate(75.85)"><tspan x="0" y="0">d</tspan></text>
    <text class="cls-1" transform="translate(283.03 142.75) rotate(77.17)"><tspan x="0" y="0">o</tspan></text>
    <text class="cls-1" transform="translate(283.63 145.38) rotate(78.17)"><tspan x="0" y="0"> </tspan></text>
    <text class="cls-1" transform="translate(283.91 146.71) rotate(78.83)"><tspan x="0" y="0">f</tspan></text>
    <text class="cls-1" transform="translate(284.16 148.02) rotate(79.57)"><tspan x="0" y="0">r</tspan></text>
    <text class="cls-1" transform="translate(284.48 149.74) rotate(80.29)"><tspan x="0" y="0">i</tspan></text>
    <text class="cls-1" transform="translate(284.67 150.84) rotate(81.17)"><tspan x="0" y="0">n</tspan></text>
    <text class="cls-1" transform="translate(285.05 153.25) rotate(82.43)"><tspan x="0" y="0">g</tspan></text>
    <text class="cls-1" transform="translate(285.4 155.91) rotate(83.69)"><tspan x="0" y="0">e</tspan></text>
    <text class="cls-1" transform="translate(285.67 158.36) rotate(84.63)"><tspan x="0" y="0"> </tspan></text>
    <text class="cls-1" transform="translate(285.8 159.73) rotate(85.24)"><tspan x="0" y="0">i</tspan></text>
    <text class="cls-1" transform="translate(285.89 160.84) rotate(86.12)"><tspan x="0" y="0">n</tspan></text>
    <text class="cls-1" transform="translate(286.06 163.29) rotate(87.16)"><tspan x="0" y="0">s</tspan></text>
    <text class="cls-1" transform="translate(286.15 165.11) rotate(87.91)"><tspan x="0" y="0">t</tspan></text>
    <text class="cls-1" transform="translate(286.2 166.36) rotate(88.88)"><tspan x="0" y="0">a</tspan></text>
    <text class="cls-1" transform="translate(286.25 169.03) rotate(90.13)"><tspan x="0" y="0">n</tspan></text>
    <text class="cls-1" transform="translate(286.24 171.5) rotate(91.26)"><tspan x="0" y="0">c</tspan></text>
    <text class="cls-1" transform="translate(286.2 173.64) rotate(92.39)"><tspan x="0" y="0">e</tspan></text>
    <text class="cls-1" transform="translate(286.09 176.1) rotate(93.44)"><tspan x="0" y="0">s</tspan></text>
    <text class="cls-1" transform="translate(285.98 177.91) rotate(94.22)"><tspan x="0" y="0"> </tspan></text>
    <text class="cls-1" transform="translate(285.89 179.28) rotate(95.21)"><tspan x="0" y="0">o</tspan></text>
    <text class="cls-1" transform="translate(285.64 181.95) rotate(96.2)"><tspan x="0" y="0">f</tspan></text>
    <text class="cls-1" transform="translate(285.49 183.27) rotate(96.86)"><tspan x="0" y="0"> </tspan></text>
    <text class="cls-1" transform="translate(285.33 184.64) rotate(97.86)"><tspan x="0" y="0">d</tspan></text>
    <text class="cls-1" transform="translate(284.97 187.29) rotate(99.12)"><tspan x="0" y="0">e</tspan></text>
    <text class="cls-1" transform="translate(284.57 189.74) rotate(100)"><tspan x="0" y="0">l</tspan></text>
    <text class="cls-1" transform="translate(284.37 190.83) rotate(100.55)"><tspan x="0" y="0">i</tspan></text>
    <text class="cls-1" transform="translate(284.18 191.94) rotate(101.43)"><tspan x="0" y="0">n</tspan></text>
    <text class="cls-1" transform="translate(283.69 194.33) rotate(102.64)"><tspan x="0" y="0">e</tspan></text>
    <text class="cls-1" transform="translate(283.15 196.75) rotate(103.91)"><tspan x="0" y="0">a</tspan></text>
    <text class="cls-1" transform="translate(282.5 199.33) rotate(104.86)"><tspan x="0" y="0">t</tspan></text>
    <text class="cls-1" transform="translate(282.19 200.53) rotate(105.45)"><tspan x="0" y="0">i</tspan></text>
    <text class="cls-1" transform="translate(281.9 201.59) rotate(106.27)"><tspan x="0" y="0">v</tspan></text>
    <text class="cls-1" transform="translate(281.29 203.68) rotate(107.4)"><tspan x="0" y="0">e</tspan></text>
    <text class="cls-1" transform="translate(280.54 206.05) rotate(108.36)"><tspan x="0" y="0"> </tspan></text>
    <text class="cls-1" transform="translate(280.11 207.35) rotate(109)"><tspan x="0" y="0">t</tspan></text>
    <text class="cls-1" transform="translate(279.71 208.53) rotate(109.93)"><tspan x="0" y="0">e</tspan></text>
    <text class="cls-1" transform="translate(278.86 210.86) rotate(110.96)"><tspan x="0" y="0">r</tspan></text>
    <text class="cls-1" transform="translate(278.25 212.49) rotate(112.28)"><tspan x="0" y="0">m</tspan></text>
    <text class="cls-1" transform="translate(276.89 215.77) rotate(113.61)"><tspan x="0" y="0">s</tspan></text>
    <text class="cls-1" transform="translate(276.17 217.43) rotate(114.4)"><tspan x="0" y="0"> </tspan></text>
    <text class="cls-1" transform="translate(275.61 218.68) rotate(115.41)"><tspan x="0" y="0">d</tspan></text>
    <text class="cls-1" transform="translate(274.45 221.1) rotate(116.69)"><tspan x="0" y="0">e</tspan></text>
    <text class="cls-1" transform="translate(273.34 223.31) rotate(117.63)"><tspan x="0" y="0">f</tspan></text>
    <text class="cls-1" transform="translate(272.68 224.55) rotate(118.28)"><tspan x="0" y="0">i</tspan></text>
    <text class="cls-1" transform="translate(272.16 225.54) rotate(119.17)"><tspan x="0" y="0">n</tspan></text>
    <text class="cls-1" transform="translate(270.96 227.69) rotate(120.39)"><tspan x="0" y="0">e</tspan></text>
    <text class="cls-1" transform="translate(269.7 229.83) rotate(121.35)"><tspan x="0" y="0"> </tspan></text>
    <text class="cls-1" transform="translate(268.99 231) rotate(121.97)"><tspan x="0" y="0">i</tspan></text>
    <text class="cls-1" transform="translate(268.41 231.95) rotate(122.85)"><tspan x="0" y="0">n</tspan></text>
    <text class="cls-1" transform="translate(267.08 234) rotate(124.06)"><tspan x="0" y="0">n</tspan></text>
    <text class="cls-1" transform="translate(265.71 236.02) rotate(125.28)"><tspan x="0" y="0">e</tspan></text>
    <text class="cls-1" transform="translate(264.27 238.06) rotate(126.31)"><tspan x="0" y="0">r</tspan></text>
    <text class="cls-1" transform="translate(263.28 239.39) rotate(127.06)"><tspan x="0" y="0"> </tspan></text>
    <text class="cls-1" transform="translate(262.45 240.5) rotate(127.85)"><tspan x="0" y="0">s</tspan></text>
    <text class="cls-1" transform="translate(261.35 241.92) rotate(128.89)"><tspan x="0" y="0">u</tspan></text>
    <text class="cls-1" transform="translate(259.81 243.83) rotate(130.15)"><tspan x="0" y="0">b</tspan></text>
    <text class="cls-1" transform="translate(258.08 245.88) rotate(131.25)"><tspan x="0" y="0">s</tspan></text>
    <text class="cls-1" transform="translate(256.89 247.23) rotate(131.98)"><tspan x="0" y="0">t</tspan></text>
    <text class="cls-1" transform="translate(256.04 248.18) rotate(132.96)"><tspan x="0" y="0">a</tspan></text>
    <text class="cls-1" transform="translate(254.21 250.15) rotate(134.07)"><tspan x="0" y="0">n</tspan></text>
    <text class="cls-1" transform="translate(252.53 251.89) rotate(135.93)"><tspan x="0" y="0">c</tspan></text>
    <text class="cls-1" transform="translate(251 253.39) rotate(136.42)"><tspan x="0" y="0">e</tspan></text>
    <text class="cls-1" transform="translate(249.2 255.1) rotate(137.46)"><tspan x="0" y="0">s</tspan></text>
    <text class="cls-1" transform="translate(247.86 256.33) rotate(138.24)"><tspan x="0" y="0"> </tspan></text>
    <text class="cls-1" transform="translate(246.84 257.24) rotate(139.09)"><tspan x="0" y="0">c</tspan></text>
    <text class="cls-1" transform="translate(245.22 258.64) rotate(140.28)"><tspan x="0" y="0">o</tspan></text>
    <text class="cls-1" transform="translate(243.16 260.36) rotate(141.53)"><tspan x="0" y="0">u</tspan></text>
    <text class="cls-1" transform="translate(241.25 261.88) rotate(142.74)"><tspan x="0" y="0">n</tspan></text>
    <text class="cls-1" transform="translate(239.3 263.35) rotate(143.64)"><tspan x="0" y="0">t</tspan></text>
    <text class="cls-1" transform="translate(238.29 264.11) rotate(144.58)"><tspan x="0" y="0">e</tspan></text>
    <text class="cls-1" transform="translate(236.27 265.54) rotate(145.6)"><tspan x="0" y="0">r</tspan></text>
    <text class="cls-1" transform="translate(234.84 266.51) rotate(146.32)"><tspan x="0" y="0">i</tspan></text>
    <text class="cls-1" transform="translate(233.92 267.13) rotate(147.2)"><tspan x="0" y="0">n</tspan></text>
    <text class="cls-1" transform="translate(231.86 268.46) rotate(148.11)"><tspan x="0" y="0">t</tspan></text>
    <text class="cls-1" transform="translate(230.81 269.11) rotate(149.03)"><tspan x="0" y="0">u</tspan></text>
    <text class="cls-1" transform="translate(228.74 270.35) rotate(149.9)"><tspan x="0" y="0">i</tspan></text>
    <text class="cls-1" transform="translate(227.77 270.91) rotate(150.48)"><tspan x="0" y="0">t</tspan></text>
    <text class="cls-1" transform="translate(226.69 271.52) rotate(151.07)"><tspan x="0" y="0">i</tspan></text>
    <text class="cls-1" transform="translate(225.72 272.06) rotate(151.9)"><tspan x="0" y="0">v</tspan></text>
    <text class="cls-1" transform="translate(223.82 273.08) rotate(153.03)"><tspan x="0" y="0">e</tspan></text>
    <text class="cls-1" transform="translate(221.61 274.2) rotate(153.92)"><tspan x="0" y="0">l</tspan></text>
    <text class="cls-1" transform="translate(220.57 274.71) rotate(154.82)"><tspan x="0" y="0">y</tspan></text>
    <text class="cls-1" transform="translate(218.55 275.66) rotate(155.67)"><tspan x="0" y="0">,</tspan></text>
    <text class="cls-1" transform="translate(217.29 276.23) rotate(156.36)"><tspan x="0" y="0"> </tspan></text>
    <text class="cls-1" transform="translate(216.01 276.79) rotate(156.98)"><tspan x="0" y="0">i</tspan></text>
    <text class="cls-1" transform="translate(215.01 277.22) rotate(157.86)"><tspan x="0" y="0">n</tspan></text>
    <text class="cls-1" transform="translate(212.74 278.14) rotate(159.08)"><tspan x="0" y="0">e</tspan></text>
    <text class="cls-1" transform="translate(210.43 279.02) rotate(160.02)"><tspan x="0" y="0">f</tspan></text>
    <text class="cls-1" transform="translate(209.04 279.53) rotate(160.75)"><tspan x="0" y="0">f</tspan></text>
    <text class="cls-1" transform="translate(207.72 280) rotate(161.73)"><tspan x="0" y="0">e</tspan></text>
    <text class="cls-1" transform="translate(205.38 280.77) rotate(162.86)"><tspan x="0" y="0">c</tspan></text>
    <text class="cls-1" transform="translate(203.35 281.39) rotate(163.69)"><tspan x="0" y="0">t</tspan></text>
    <text class="cls-1" transform="translate(202.15 281.74) rotate(164.27)"><tspan x="0" y="0">i</tspan></text>
    <text class="cls-1" transform="translate(201.1 282.04) rotate(165.09)"><tspan x="0" y="0">v</tspan></text>
    <text class="cls-1" transform="translate(199.01 282.6) rotate(166.22)"><tspan x="0" y="0">e</tspan></text>
    <text class="cls-1" transform="translate(196.6 283.18) rotate(167.1)"><tspan x="0" y="0">l</tspan></text>
    <text class="cls-1" transform="translate(195.49 283.44) rotate(167.99)"><tspan x="0" y="0">y</tspan></text>
    <text class="cls-1" transform="translate(193.29 283.91) rotate(168.84)"><tspan x="0" y="0">,</tspan></text>
    <text class="cls-1" transform="translate(191.94 284.17) rotate(169.51)"><tspan x="0" y="0"> </tspan></text>
    <text class="cls-1" transform="translate(190.58 284.43) rotate(170.51)"><tspan x="0" y="0">o</tspan></text>
    <text class="cls-1" transform="translate(187.93 284.87) rotate(171.59)"><tspan x="0" y="0">r</tspan></text>
    <text class="cls-1" transform="translate(186.27 285.11) rotate(172.34)"><tspan x="0" y="0"> </tspan></text>
    <text class="cls-1" transform="translate(184.9 285.3) rotate(172.95)"><tspan x="0" y="0">i</tspan></text>
    <text class="cls-1" transform="translate(183.8 285.44) rotate(173.83)"><tspan x="0" y="0">n</tspan></text>
    <text class="cls-1" transform="translate(181.37 285.7) rotate(174.76)"><tspan x="0" y="0"> </tspan></text>
    <text class="cls-1" transform="translate(180.01 285.83) rotate(175.94)"><tspan x="0" y="0">w</tspan></text>
    <text class="cls-1" transform="translate(176.61 286.07) rotate(177.42)"><tspan x="0" y="0">a</tspan></text>
    <text class="cls-1" transform="translate(173.9 286.19) rotate(178.69)"><tspan x="0" y="0">y</tspan></text>
    <text class="cls-1" transform="translate(171.47 286.25) rotate(179.72)"><tspan x="0" y="0">s</tspan></text>
    <text class="cls-1" transform="translate(169.64 286.25) rotate(-179.49)"><tspan x="0" y="0"> </tspan></text>
    <text class="cls-1" transform="translate(168.28 286.24) rotate(-178.86)"><tspan x="0" y="0">t</tspan></text>
    <text class="cls-1" transform="translate(166.96 286.22) rotate(-177.91)"><tspan x="0" y="0">h</tspan></text>
    <text class="cls-1" transform="translate(164.53 286.13) rotate(-176.66)"><tspan x="0" y="0">a</tspan></text>
    <text class="cls-1" transform="translate(161.86 285.97) rotate(-175.71)"><tspan x="0" y="0">t</tspan></text>
    <text class="cls-1" transform="translate(160.63 285.88) rotate(-175.07)"><tspan x="0" y="0"> </tspan></text>
    <text class="cls-1" transform="translate(159.27 285.76) rotate(-174.21)"><tspan x="0" y="0">c</tspan></text>
    <text class="cls-1" transform="translate(157.02 285.53) rotate(-173.02)"><tspan x="0" y="0">h</tspan></text>
    <text class="cls-1" transform="translate(154.6 285.24) rotate(-171.77)"><tspan x="0" y="0">a</tspan></text>
    <text class="cls-1" transform="translate(151.92 284.85) rotate(-170.83)"><tspan x="0" y="0">l</tspan></text>
    <text class="cls-1" transform="translate(150.84 284.67) rotate(-170.29)"><tspan x="0" y="0">l</tspan></text>
    <text class="cls-1" transform="translate(149.75 284.49) rotate(-169.41)"><tspan x="0" y="0">e</tspan></text>
    <text class="cls-1" transform="translate(147.31 284.03) rotate(-168.19)"><tspan x="0" y="0">n</tspan></text>
    <text class="cls-1" transform="translate(144.91 283.54) rotate(-166.93)"><tspan x="0" y="0">g</tspan></text>
    <text class="cls-1" transform="translate(142.29 282.93) rotate(-165.66)"><tspan x="0" y="0">e</tspan></text>
    <text class="cls-1" transform="translate(139.89 282.31) rotate(-164.71)"><tspan x="0" y="0"> </tspan></text>
    <text class="cls-1" transform="translate(138.57 281.95) rotate(-163.71)"><tspan x="0" y="0">o</tspan></text>
    <text class="cls-1" transform="translate(136.01 281.2) rotate(-162.45)"><tspan x="0" y="0">u</tspan></text>
    <text class="cls-1" transform="translate(133.67 280.46) rotate(-161.43)"><tspan x="0" y="0">r</tspan></text>
    <text class="cls-1" transform="translate(132.09 279.93) rotate(-160.67)"><tspan x="0" y="0"> </tspan></text>
    <text class="cls-1" transform="translate(130.79 279.48) rotate(-159.72)"><tspan x="0" y="0">n</tspan></text>
    <text class="cls-1" transform="translate(128.49 278.63) rotate(-158.45)"><tspan x="0" y="0">o</tspan></text>
    <text class="cls-1" transform="translate(125.96 277.62) rotate(-157.47)"><tspan x="0" y="0">t</tspan></text>
    <text class="cls-1" transform="translate(124.84 277.16) rotate(-156.9)"><tspan x="0" y="0">i</tspan></text>
    <text class="cls-1" transform="translate(123.82 276.73) rotate(-155.95)"><tspan x="0" y="0">o</tspan></text>
    <text class="cls-1" transform="translate(121.36 275.63) rotate(-154.67)"><tspan x="0" y="0">n</tspan></text>
    <text class="cls-1" transform="translate(119.14 274.58) rotate(-153.72)"><tspan x="0" y="0"> </tspan></text>
    <text class="cls-1" transform="translate(117.91 273.97) rotate(-152.71)"><tspan x="0" y="0">o</tspan></text>
    <text class="cls-1" transform="translate(115.51 272.73) rotate(-151.71)"><tspan x="0" y="0">f</tspan></text>
    <text class="cls-1" transform="translate(114.36 272.11) rotate(-151.05)"><tspan x="0" y="0"> </tspan></text>
    <text class="cls-1" transform="translate(113.14 271.45) rotate(-150.03)"><tspan x="0" y="0">d</tspan></text>
    <text class="cls-1" transform="translate(110.83 270.11) rotate(-148.76)"><tspan x="0" y="0">e</tspan></text>
    <text class="cls-1" transform="translate(108.71 268.82) rotate(-147.87)"><tspan x="0" y="0">l</tspan></text>
    <text class="cls-1" transform="translate(107.77 268.23) rotate(-147.32)"><tspan x="0" y="0">i</tspan></text>
    <text class="cls-1" transform="translate(106.83 267.63) rotate(-146.43)"><tspan x="0" y="0">n</tspan></text>
    <text class="cls-1" transform="translate(104.8 266.29) rotate(-145.22)"><tspan x="0" y="0">e</tspan></text>
    <text class="cls-1" transform="translate(102.76 264.87) rotate(-143.94)"><tspan x="0" y="0">a</tspan></text>
    <text class="cls-1" transform="translate(100.58 263.27) rotate(-142.97)"><tspan x="0" y="0">t</tspan></text>
    <text class="cls-1" transform="translate(99.62 262.55) rotate(-142.4)"><tspan x="0" y="0">i</tspan></text>
    <text class="cls-1" transform="translate(98.74 261.88) rotate(-141.47)"><tspan x="0" y="0">o</tspan></text>
    <text class="cls-1" transform="translate(96.63 260.2) rotate(-140.2)"><tspan x="0" y="0">n</tspan></text>
    <text class="cls-1" transform="translate(94.75 258.63) rotate(-139.16)"><tspan x="0" y="0">s</tspan></text>
    <text class="cls-1" transform="translate(93.38 257.44) rotate(-138.38)"><tspan x="0" y="0"> </tspan></text>
    <text class="cls-1" transform="translate(92.34 256.52) rotate(-137.77)"><tspan x="0" y="0">i</tspan></text>
    <text class="cls-1" transform="translate(91.52 255.79) rotate(-136.91)"><tspan x="0" y="0">n</tspan></text>
    <text class="cls-1" transform="translate(89.73 254.1) rotate(-135.98)"><tspan x="0" y="0"> </tspan></text>
    <text class="cls-1" transform="translate(88.74 253.13) rotate(-135.93)"><tspan x="0" y="0">t</tspan></text>
    <text class="cls-1" transform="translate(87.79 252.22) rotate(-134.07)"><tspan x="0" y="0">h</tspan></text>
    <text class="cls-1" transform="translate(86.09 250.47) rotate(-133.22)"><tspan x="0" y="0">e</tspan></text>
    <text class="cls-1" transform="translate(84.39 248.66) rotate(-132.28)"><tspan x="0" y="0"> </tspan></text>
    <text class="cls-1" transform="translate(83.47 247.64) rotate(-131.62)"><tspan x="0" y="0">f</tspan></text>
    <text class="cls-1" transform="translate(82.53 246.59) rotate(-130.99)"><tspan x="0" y="0">i</tspan></text>
    <text class="cls-1" transform="translate(81.81 245.76) rotate(-130.31)"><tspan x="0" y="0">r</tspan></text>
    <text class="cls-1" transform="translate(80.72 244.47) rotate(-129.45)"><tspan x="0" y="0">s</tspan></text>
    <text class="cls-1" transform="translate(79.56 243.07) rotate(-128.7)"><tspan x="0" y="0">t</tspan></text>
    <text class="cls-1" transform="translate(78.79 242.11) rotate(-128.06)"><tspan x="0" y="0"> </tspan></text>
    <text class="cls-1" transform="translate(77.94 241.03) rotate(-127.06)"><tspan x="0" y="0">p</tspan></text>
    <text class="cls-1" transform="translate(76.34 238.9) rotate(-126.13)"><tspan x="0" y="0">l</tspan></text>
    <text class="cls-1" transform="translate(75.67 237.99) rotate(-125.19)"><tspan x="0" y="0">a</tspan></text>
    <text class="cls-1" transform="translate(74.13 235.8) rotate(-124)"><tspan x="0" y="0">c</tspan></text>
    <text class="cls-1" transform="translate(72.94 234.05) rotate(-122.86)"><tspan x="0" y="0">e</tspan></text>
    <text class="cls-1" transform="translate(71.61 231.98) rotate(-121.71)"><tspan x="0" y="0">?</tspan></text>
    <text class="cls-1" transform="translate(70.45 230.1) rotate(-120.82)"><tspan x="0" y="0"> </tspan></text>
    <text class="cls-1" transform="translate(69.75 228.92) rotate(-120.14)"><tspan x="0" y="0"> </tspan></text>
    <text class="cls-1" transform="translate(69.06 227.74) rotate(-119.46)"><tspan x="0" y="0"> </tspan></text>
  </g>
</svg>