<?xml version="1.0" encoding="UTF-8"?>
<svg id="Layer_2" data-name="Layer 2" xmlns="http://www.w3.org/2000/svg" viewBox="0 0 153.52 153.52">
  <defs>
    <style>
      .cls-1 {
        fill: #231f20;
        font-family: Futura-Medium, Futura;
        font-size: 2.8px;
        font-weight: 500;
      }
    </style>
  </defs>
  <g id="Layer_10" data-name="Layer 10">
    <text class="cls-1" transform="translate(107.62 119.23) rotate(144.92)"><tspan x="0" y="0">L</tspan></text>
    <text class="cls-1" transform="translate(106.61 119.95) rotate(146.21)"><tspan x="0" y="0">a</tspan></text>
    <text class="cls-1" transform="translate(105.22 120.88) rotate(147.93)"><tspan x="0" y="0">y</tspan></text>
    <text class="cls-1" transform="translate(103.97 121.66) rotate(149.54)"><tspan x="0" y="0">e</tspan></text>
    <text class="cls-1" transform="translate(102.63 122.45) rotate(150.96)"><tspan x="0" y="0">r</tspan></text>
    <text class="cls-1" transform="translate(101.73 122.94) rotate(151.98)"><tspan x="0" y="0"> </tspan></text>
    <text class="cls-1" transform="translate(100.97 123.35) rotate(153.39)"><tspan x="0" y="0">1</tspan></text>
    <text class="cls-1" transform="translate(99.6 124.05) rotate(155.08)"><tspan x="0" y="0">0</tspan></text>
    <text class="cls-1" transform="translate(98.04 124.77) rotate(156.49)"><tspan x="0" y="0"> </tspan></text>
    <text class="cls-1" transform="translate(97.24 125.11) rotate(157.43)"><tspan x="0" y="0">I</tspan></text>
    <text class="cls-1" transform="translate(96.51 125.42) rotate(158.77)"><tspan x="0" y="0">p</tspan></text>
    <text class="cls-1" transform="translate(94.93 126.03) rotate(160.33)"><tspan x="0" y="0">s</tspan></text>
    <text class="cls-1" transform="translate(93.88 126.41) rotate(161.78)"><tspan x="0" y="0">u</tspan></text>
    <text class="cls-1" transform="translate(92.45 126.89) rotate(163.81)"><tspan x="0" y="0">m</tspan></text>
    <text class="cls-1" transform="translate(90.32 127.5) rotate(165.51)"><tspan x="0" y="0"> </tspan></text>
    <text class="cls-1" transform="translate(89.49 127.71) rotate(166.65)"><tspan x="0" y="0">L</tspan></text>
    <text class="cls-1" transform="translate(88.31 127.99) rotate(168.23)"><tspan x="0" y="0">o</tspan></text>
    <text class="cls-1" transform="translate(86.67 128.33) rotate(169.71)"><tspan x="0" y="0">r</tspan></text>
    <text class="cls-1" transform="translate(85.66 128.52) rotate(171.11)"><tspan x="0" y="0">e</tspan></text>
    <text class="cls-1" transform="translate(84.15 128.76) rotate(173.15)"><tspan x="0" y="0">m</tspan></text>
    <text class="cls-1" transform="translate(81.95 129.02) rotate(174.84)"><tspan x="0" y="0"> </tspan></text>
    <text class="cls-1" transform="translate(81.1 129.09) rotate(175.75)"><tspan x="0" y="0">I</tspan></text>
    <text class="cls-1" transform="translate(80.3 129.16) rotate(177.08)"><tspan x="0" y="0">p</tspan></text>
    <text class="cls-1" transform="translate(78.63 129.24) rotate(178.61)"><tspan x="0" y="0">s</tspan></text>
    <text class="cls-1" transform="translate(77.5 129.27) rotate(-179.95)"><tspan x="0" y="0">u</tspan></text>
    <text class="cls-1" transform="translate(75.99 129.27) rotate(-177.94)"><tspan x="0" y="0">m</tspan></text>
    <text class="cls-1" transform="translate(73.78 129.18) rotate(-176.27)"><tspan x="0" y="0"> </tspan></text>
    <text class="cls-1" transform="translate(72.93 129.13) rotate(-175.13)"><tspan x="0" y="0">L</tspan></text>
    <text class="cls-1" transform="translate(71.72 129.03) rotate(-173.57)"><tspan x="0" y="0">o</tspan></text>
    <text class="cls-1" transform="translate(70.03 128.84) rotate(-172.08)"><tspan x="0" y="0">r</tspan></text>
    <text class="cls-1" transform="translate(69.03 128.7) rotate(-170.71)"><tspan x="0" y="0">e</tspan></text>
    <text class="cls-1" transform="translate(67.53 128.46) rotate(-168.71)"><tspan x="0" y="0">m</tspan></text>
    <text class="cls-1" transform="translate(65.37 128.02) rotate(-167.04)"><tspan x="0" y="0"> </tspan></text>
    <text class="cls-1" transform="translate(64.52 127.83) rotate(-166.12)"><tspan x="0" y="0">I</tspan></text>
    <text class="cls-1" transform="translate(63.73 127.63) rotate(-164.77)"><tspan x="0" y="0">p</tspan></text>
    <text class="cls-1" transform="translate(62.12 127.19) rotate(-163.25)"><tspan x="0" y="0">s</tspan></text>
    <text class="cls-1" transform="translate(61.04 126.87) rotate(-161.82)"><tspan x="0" y="0">u</tspan></text>
    <text class="cls-1" transform="translate(59.6 126.4) rotate(-159.8)"><tspan x="0" y="0">m</tspan></text>
    <text class="cls-1" transform="translate(57.53 125.63) rotate(-158.12)"><tspan x="0" y="0"> </tspan></text>
    <text class="cls-1" transform="translate(56.75 125.32) rotate(-156.99)"><tspan x="0" y="0">L</tspan></text>
    <text class="cls-1" transform="translate(55.6 124.83) rotate(-155.39)"><tspan x="0" y="0">o</tspan></text>
    <text class="cls-1" transform="translate(54.08 124.14) rotate(-153.92)"><tspan x="0" y="0">r</tspan></text>
    <text class="cls-1" transform="translate(53.17 123.69) rotate(-152.52)"><tspan x="0" y="0">e</tspan></text>
    <text class="cls-1" transform="translate(51.8 122.99) rotate(-150.47)"><tspan x="0" y="0">m</tspan></text>
    <text class="cls-1" transform="translate(49.9 121.9) rotate(-148.81)"><tspan x="0" y="0"> </tspan></text>
    <text class="cls-1" transform="translate(49.16 121.45) rotate(-147.88)"><tspan x="0" y="0">I</tspan></text>
    <text class="cls-1" transform="translate(48.47 121.02) rotate(-146.52)"><tspan x="0" y="0">p</tspan></text>
    <text class="cls-1" transform="translate(47.07 120.1) rotate(-144.97)"><tspan x="0" y="0">s</tspan></text>
    <text class="cls-1" transform="translate(46.16 119.46) rotate(-143.53)"><tspan x="0" y="0">u</tspan></text>
    <text class="cls-1" transform="translate(44.95 118.57) rotate(-141.51)"><tspan x="0" y="0">m</tspan></text>
    <text class="cls-1" transform="translate(43.22 117.19) rotate(-139.82)"><tspan x="0" y="0"> </tspan></text>
    <text class="cls-1" transform="translate(42.56 116.63) rotate(-138.65)"><tspan x="0" y="0">L</tspan></text>
    <text class="cls-1" transform="translate(41.64 115.83) rotate(-137.08)"><tspan x="0" y="0">o</tspan></text>
    <text class="cls-1" transform="translate(40.42 114.69) rotate(-135.6)"><tspan x="0" y="0">r</tspan></text>
    <text class="cls-1" transform="translate(39.69 113.98) rotate(-134.2)"><tspan x="0" y="0">e</tspan></text>
    <text class="cls-1" transform="translate(38.62 112.88) rotate(-132.17)"><tspan x="0" y="0">m</tspan></text>
    <text class="cls-1" transform="translate(37.14 111.23) rotate(-130.5)"><tspan x="0" y="0"> </tspan></text>
    <text class="cls-1" transform="translate(36.58 110.58) rotate(-129.59)"><tspan x="0" y="0">I</tspan></text>
    <text class="cls-1" transform="translate(36.06 109.96) rotate(-128.26)"><tspan x="0" y="0">p</tspan></text>
    <text class="cls-1" transform="translate(35.02 108.63) rotate(-126.94)"><tspan x="0" y="0">s</tspan></text>
    <text class="cls-1" transform="translate(34.34 107.74) rotate(-125.08)"><tspan x="0" y="0">u</tspan></text>
    <text class="cls-1" transform="translate(33.47 106.51) rotate(-123.34)"><tspan x="0" y="0">m</tspan></text>
    <text class="cls-1" transform="translate(32.26 104.66) rotate(-121.48)"><tspan x="0" y="0">L</tspan></text>
    <text class="cls-1" transform="translate(31.62 103.63) rotate(-119.92)"><tspan x="0" y="0">o</tspan></text>
    <text class="cls-1" transform="translate(30.8 102.18) rotate(-118.45)"><tspan x="0" y="0">r</tspan></text>
    <text class="cls-1" transform="translate(30.3 101.28) rotate(-117.05)"><tspan x="0" y="0">e</tspan></text>
    <text class="cls-1" transform="translate(29.6 99.91) rotate(-115.01)"><tspan x="0" y="0">m</tspan></text>
    <text class="cls-1" transform="translate(28.68 97.91) rotate(-113.33)"><tspan x="0" y="0"> </tspan></text>
    <text class="cls-1" transform="translate(28.34 97.13) rotate(-112.41)"><tspan x="0" y="0">I</tspan></text>
    <text class="cls-1" transform="translate(28.02 96.38) rotate(-111.05)"><tspan x="0" y="0">p</tspan></text>
    <text class="cls-1" transform="translate(27.42 94.8) rotate(-109.49)"><tspan x="0" y="0">s</tspan></text>
    <text class="cls-1" transform="translate(27.05 93.77) rotate(-108.07)"><tspan x="0" y="0">u</tspan></text>
    <text class="cls-1" transform="translate(26.57 92.32) rotate(-106.01)"><tspan x="0" y="0">m</tspan></text>
    <text class="cls-1" transform="translate(25.97 90.21) rotate(-104.14)"><tspan x="0" y="0">L</tspan></text>
    <text class="cls-1" transform="translate(25.67 89.01) rotate(-102.54)"><tspan x="0" y="0">o</tspan></text>
    <text class="cls-1" transform="translate(25.31 87.37) rotate(-101.05)"><tspan x="0" y="0">r</tspan></text>
    <text class="cls-1" transform="translate(25.11 86.37) rotate(-99.65)"><tspan x="0" y="0">e</tspan></text>
    <text class="cls-1" transform="translate(24.85 84.88) rotate(-97.63)"><tspan x="0" y="0">m</tspan></text>
    <text class="cls-1" transform="translate(24.57 82.68) rotate(-95.94)"><tspan x="0" y="0"> </tspan></text>
    <text class="cls-1" transform="translate(24.48 81.83) rotate(-95.03)"><tspan x="0" y="0">I</tspan></text>
    <text class="cls-1" transform="translate(24.4 81.01) rotate(-93.67)"><tspan x="0" y="0">p</tspan></text>
    <text class="cls-1" transform="translate(24.3 79.34) rotate(-92.14)"><tspan x="0" y="0">s</tspan></text>
    <text class="cls-1" transform="translate(24.25 78.24) rotate(-90.72)"><tspan x="0" y="0">u</tspan></text>
    <text class="cls-1" transform="translate(24.23 76.73) rotate(-88.71)"><tspan x="0" y="0">m</tspan></text>
    <text class="cls-1" transform="translate(24.28 74.5) rotate(-86.82)"><tspan x="0" y="0">L</tspan></text>
    <text class="cls-1" transform="translate(24.35 73.27) rotate(-85.24)"><tspan x="0" y="0">o</tspan></text>
    <text class="cls-1" transform="translate(24.49 71.62) rotate(-83.79)"><tspan x="0" y="0">r</tspan></text>
    <text class="cls-1" transform="translate(24.6 70.62) rotate(-82.42)"><tspan x="0" y="0">e</tspan></text>
    <text class="cls-1" transform="translate(24.8 69.07) rotate(-80.37)"><tspan x="0" y="0">m</tspan></text>
    <text class="cls-1" transform="translate(25.18 66.89) rotate(-78.71)"><tspan x="0" y="0"> </tspan></text>
    <text class="cls-1" transform="translate(25.34 66.06) rotate(-77.81)"><tspan x="0" y="0">I</tspan></text>
    <text class="cls-1" transform="translate(25.51 65.27) rotate(-76.46)"><tspan x="0" y="0">p</tspan></text>
    <text class="cls-1" transform="translate(25.9 63.64) rotate(-74.95)"><tspan x="0" y="0">s</tspan></text>
    <text class="cls-1" transform="translate(26.19 62.56) rotate(-73.51)"><tspan x="0" y="0">u</tspan></text>
    <text class="cls-1" transform="translate(26.62 61.11) rotate(-71.5)"><tspan x="0" y="0">m</tspan></text>
    <text class="cls-1" transform="translate(27.32 59.02) rotate(-69.63)"><tspan x="0" y="0">L</tspan></text>
    <text class="cls-1" transform="translate(27.75 57.85) rotate(-68.03)"><tspan x="0" y="0">o</tspan></text>
    <text class="cls-1" transform="translate(28.38 56.31) rotate(-66.56)"><tspan x="0" y="0">r</tspan></text>
    <text class="cls-1" transform="translate(28.78 55.38) rotate(-65.18)"><tspan x="0" y="0">e</tspan></text>
    <text class="cls-1" transform="translate(29.42 53.98) rotate(-63.13)"><tspan x="0" y="0">m</tspan></text>
    <text class="cls-1" transform="translate(30.42 52.02) rotate(-61.46)"><tspan x="0" y="0"> </tspan></text>
    <text class="cls-1" transform="translate(30.83 51.27) rotate(-60.54)"><tspan x="0" y="0">I</tspan></text>
    <text class="cls-1" transform="translate(31.23 50.56) rotate(-59.18)"><tspan x="0" y="0">p</tspan></text>
    <text class="cls-1" transform="translate(32.09 49.13) rotate(-57.64)"><tspan x="0" y="0">s</tspan></text>
    <text class="cls-1" transform="translate(32.69 48.17) rotate(-56.19)"><tspan x="0" y="0">u</tspan></text>
    <text class="cls-1" transform="translate(33.52 46.92) rotate(-54.15)"><tspan x="0" y="0">m</tspan></text>
    <text class="cls-1" transform="translate(34.82 45.14) rotate(-52.27)"><tspan x="0" y="0">L</tspan></text>
    <text class="cls-1" transform="translate(35.57 44.16) rotate(-50.66)"><tspan x="0" y="0">o</tspan></text>
    <text class="cls-1" transform="translate(36.63 42.87) rotate(-49.19)"><tspan x="0" y="0">r</tspan></text>
    <text class="cls-1" transform="translate(37.29 42.11) rotate(-47.8)"><tspan x="0" y="0">e</tspan></text>
    <text class="cls-1" transform="translate(38.32 40.95) rotate(-45.74)"><tspan x="0" y="0">m</tspan></text>
    <text class="cls-1" transform="translate(39.87 39.38) rotate(-44.07)"><tspan x="0" y="0"> </tspan></text>
    <text class="cls-1" transform="translate(40.47 38.8) rotate(-43.17)"><tspan x="0" y="0">I</tspan></text>
    <text class="cls-1" transform="translate(41.07 38.23) rotate(-41.81)"><tspan x="0" y="0">p</tspan></text>
    <text class="cls-1" transform="translate(42.33 37.11) rotate(-40.27)"><tspan x="0" y="0">s</tspan></text>
    <text class="cls-1" transform="translate(43.17 36.39) rotate(-38.87)"><tspan x="0" y="0">u</tspan></text>
    <text class="cls-1" transform="translate(44.34 35.44) rotate(-36.94)"><tspan x="0" y="0">m</tspan></text>
    <text class="cls-1" transform="translate(46.13 34.11) rotate(-35.01)"><tspan x="0" y="0">L</tspan></text>
    <text class="cls-1" transform="translate(47.12 33.41) rotate(-33.47)"><tspan x="0" y="0">o</tspan></text>
    <text class="cls-1" transform="translate(48.52 32.49) rotate(-32)"><tspan x="0" y="0">r</tspan></text>
    <text class="cls-1" transform="translate(49.39 31.95) rotate(-30.62)"><tspan x="0" y="0">e</tspan></text>
    <text class="cls-1" transform="translate(50.7 31.16) rotate(-28.59)"><tspan x="0" y="0">m</tspan></text>
    <text class="cls-1" transform="translate(52.64 30.11) rotate(-26.92)"><tspan x="0" y="0"> </tspan></text>
    <text class="cls-1" transform="translate(53.41 29.72) rotate(-26)"><tspan x="0" y="0">I</tspan></text>
    <text class="cls-1" transform="translate(54.15 29.36) rotate(-24.63)"><tspan x="0" y="0">p</tspan></text>
    <text class="cls-1" transform="translate(55.66 28.67) rotate(-23.1)"><tspan x="0" y="0">s</tspan></text>
    <text class="cls-1" transform="translate(56.69 28.22) rotate(-21.65)"><tspan x="0" y="0">u</tspan></text>
    <text class="cls-1" transform="translate(58.08 27.66) rotate(-19.62)"><tspan x="0" y="0">m</tspan></text>
    <text class="cls-1" transform="translate(60.18 26.93) rotate(-17.72)"><tspan x="0" y="0">L</tspan></text>
    <text class="cls-1" transform="translate(61.35 26.55) rotate(-16.12)"><tspan x="0" y="0">o</tspan></text>
    <text class="cls-1" transform="translate(62.94 26.09) rotate(-14.65)"><tspan x="0" y="0">r</tspan></text>
    <text class="cls-1" transform="translate(63.92 25.83) rotate(-13.26)"><tspan x="0" y="0">e</tspan></text>
    <text class="cls-1" transform="translate(65.42 25.47) rotate(-11.2)"><tspan x="0" y="0">m</tspan></text>
    <text class="cls-1" transform="translate(67.59 25.05) rotate(-9.52)"><tspan x="0" y="0"> </tspan></text>
    <text class="cls-1" transform="translate(68.43 24.91) rotate(-8.61)"><tspan x="0" y="0">I</tspan></text>
    <text class="cls-1" transform="translate(69.25 24.78) rotate(-7.24)"><tspan x="0" y="0">p</tspan></text>
    <text class="cls-1" transform="translate(70.89 24.58) rotate(-5.72)"><tspan x="0" y="0">s</tspan></text>
    <text class="cls-1" transform="translate(72.02 24.46) rotate(-4.28)"><tspan x="0" y="0">u</tspan></text>
    <text class="cls-1" transform="translate(73.53 24.34) rotate(-2.25)"><tspan x="0" y="0">m</tspan></text>
    <text class="cls-1" transform="translate(75.72 24.27) rotate(-.6)"><tspan x="0" y="0"> </tspan></text>
    <text class="cls-1" transform="translate(76.6 24.26) rotate(.56)"><tspan x="0" y="0">L</tspan></text>
    <text class="cls-1" transform="translate(77.82 24.27) rotate(2.13)"><tspan x="0" y="0">o</tspan></text>
    <text class="cls-1" transform="translate(79.49 24.33) rotate(3.61)"><tspan x="0" y="0">r</tspan></text>
    <text class="cls-1" transform="translate(80.5 24.39) rotate(4.97)"><tspan x="0" y="0">e</tspan></text>
    <text class="cls-1" transform="translate(82.03 24.52) rotate(7)"><tspan x="0" y="0">m</tspan></text>
    <text class="cls-1" transform="translate(84.21 24.79) rotate(8.65)"><tspan x="0" y="0"> </tspan></text>
    <text class="cls-1" transform="translate(85.06 24.93) rotate(9.56)"><tspan x="0" y="0">I</tspan></text>
    <text class="cls-1" transform="translate(85.87 25.06) rotate(10.91)"><tspan x="0" y="0">p</tspan></text>
    <text class="cls-1" transform="translate(87.5 25.38) rotate(12.43)"><tspan x="0" y="0">s</tspan></text>
    <text class="cls-1" transform="translate(88.6 25.61) rotate(13.86)"><tspan x="0" y="0">u</tspan></text>
    <text class="cls-1" transform="translate(90.07 25.97) rotate(15.87)"><tspan x="0" y="0">m</tspan></text>
    <text class="cls-1" transform="translate(92.19 26.58) rotate(17.54)"><tspan x="0" y="0"> </tspan></text>
    <text class="cls-1" transform="translate(93.01 26.84) rotate(18.68)"><tspan x="0" y="0">L</tspan></text>
    <text class="cls-1" transform="translate(94.17 27.23) rotate(20.25)"><tspan x="0" y="0">o</tspan></text>
    <text class="cls-1" transform="translate(95.75 27.81) rotate(21.73)"><tspan x="0" y="0">r</tspan></text>
    <text class="cls-1" transform="translate(96.69 28.19) rotate(23.11)"><tspan x="0" y="0">e</tspan></text>
    <text class="cls-1" transform="translate(98.12 28.79) rotate(25.17)"><tspan x="0" y="0">m</tspan></text>
    <text class="cls-1" transform="translate(100.09 29.73) rotate(26.82)"><tspan x="0" y="0"> </tspan></text>
    <text class="cls-1" transform="translate(100.85 30.11) rotate(27.74)"><tspan x="0" y="0">I</tspan></text>
    <text class="cls-1" transform="translate(101.59 30.49) rotate(29.11)"><tspan x="0" y="0">p</tspan></text>
    <text class="cls-1" transform="translate(103.04 31.31) rotate(30.64)"><tspan x="0" y="0">s</tspan></text>
    <text class="cls-1" transform="translate(104.01 31.88) rotate(32.09)"><tspan x="0" y="0">u</tspan></text>
    <text class="cls-1" transform="translate(105.3 32.68) rotate(34.14)"><tspan x="0" y="0">m</tspan></text>
    <text class="cls-1" transform="translate(107.12 33.93) rotate(35.82)"><tspan x="0" y="0"> </tspan></text>
    <text class="cls-1" transform="translate(107.82 34.43) rotate(36.98)"><tspan x="0" y="0">L</tspan></text>
    <text class="cls-1" transform="translate(108.81 35.17) rotate(38.58)"><tspan x="0" y="0">o</tspan></text>
    <text class="cls-1" transform="translate(110.1 36.2) rotate(40.05)"><tspan x="0" y="0">r</tspan></text>
    <text class="cls-1" transform="translate(110.88 36.85) rotate(41.44)"><tspan x="0" y="0">e</tspan></text>
    <text class="cls-1" transform="translate(112.04 37.87) rotate(43.5)"><tspan x="0" y="0">m</tspan></text>
    <text class="cls-1" transform="translate(113.63 39.39) rotate(45.17)"><tspan x="0" y="0"> </tspan></text>
    <text class="cls-1" transform="translate(114.24 40) rotate(46.09)"><tspan x="0" y="0">I</tspan></text>
    <text class="cls-1" transform="translate(114.81 40.59) rotate(47.44)"><tspan x="0" y="0">p</tspan></text>
    <text class="cls-1" transform="translate(115.93 41.82) rotate(48.96)"><tspan x="0" y="0">s</tspan></text>
    <text class="cls-1" transform="translate(116.67 42.66) rotate(50.38)"><tspan x="0" y="0">u</tspan></text>
    <text class="cls-1" transform="translate(117.65 43.83) rotate(52.4)"><tspan x="0" y="0">m</tspan></text>
    <text class="cls-1" transform="translate(118.98 45.56) rotate(54.92)"><tspan x="0" y="0">L</tspan></text>
    <text class="cls-1" transform="translate(119.7 46.57) rotate(55.78)"><tspan x="0" y="0">o</tspan></text>
    <text class="cls-1" transform="translate(120.64 47.96) rotate(57.52)"><tspan x="0" y="0">e</tspan></text>
    <text class="cls-1" transform="translate(121.47 49.25) rotate(59.54)"><tspan x="0" y="0">m</tspan></text>
    <text class="cls-1" transform="translate(122.57 51.14) rotate(61.19)"><tspan x="0" y="0"> </tspan></text>
    <text class="cls-1" transform="translate(122.99 51.9) rotate(62.11)"><tspan x="0" y="0">I</tspan></text>
    <text class="cls-1" transform="translate(123.38 52.63) rotate(63.49)"><tspan x="0" y="0">p</tspan></text>
    <text class="cls-1" transform="translate(124.12 54.12) rotate(65.01)"><tspan x="0" y="0">s</tspan></text>
    <text class="cls-1" transform="translate(124.59 55.13) rotate(66.45)"><tspan x="0" y="0">u</tspan></text>
    <text class="cls-1" transform="translate(125.21 56.53) rotate(68.51)"><tspan x="0" y="0">m</tspan></text>
    <text class="cls-1" transform="translate(126.01 58.57) rotate(70.38)"><tspan x="0" y="0">L</tspan></text>
    <text class="cls-1" transform="translate(126.42 59.72) rotate(71.97)"><tspan x="0" y="0">o</tspan></text>
    <text class="cls-1" transform="translate(126.94 61.33) rotate(73.48)"><tspan x="0" y="0">r</tspan></text>
    <text class="cls-1" transform="translate(127.23 62.28) rotate(74.85)"><tspan x="0" y="0">e</tspan></text>
    <text class="cls-1" transform="translate(127.64 63.77) rotate(76.92)"><tspan x="0" y="0">m</tspan></text>
    <text class="cls-1" transform="translate(128.12 65.91) rotate(78.58)"><tspan x="0" y="0"> </tspan></text>
    <text class="cls-1" transform="translate(128.29 66.75) rotate(79.5)"><tspan x="0" y="0">I</tspan></text>
    <text class="cls-1" transform="translate(128.45 67.56) rotate(80.87)"><tspan x="0" y="0">p</tspan></text>
    <text class="cls-1" transform="translate(128.71 69.22) rotate(82.41)"><tspan x="0" y="0">s</tspan></text>
    <text class="cls-1" transform="translate(128.86 70.33) rotate(83.84)"><tspan x="0" y="0">u</tspan></text>
    <text class="cls-1" transform="translate(129.03 71.83) rotate(85.87)"><tspan x="0" y="0">m</tspan></text>
    <text class="cls-1" transform="translate(129.18 74.03) rotate(87.54)"><tspan x="0" y="0"> </tspan></text>
    <text class="cls-1" transform="translate(129.22 74.87) rotate(88.46)"><tspan x="0" y="0"> </tspan></text>
    <text class="cls-1" transform="translate(129.24 75.74) rotate(89.41)"><tspan x="0" y="0"> </tspan></text>
    <text class="cls-1" transform="translate(129.25 76.61) rotate(90.35)"><tspan x="0" y="0"> </tspan></text>
    <text class="cls-1" transform="translate(129.24 77.46) rotate(91.27)"><tspan x="0" y="0"> </tspan></text>
    <text class="cls-1" transform="translate(129.22 78.31) rotate(92.19)"><tspan x="0" y="0"> </tspan></text>
    <text class="cls-1" transform="translate(129.19 79.17) rotate(93.13)"><tspan x="0" y="0"> </tspan></text>
    <text class="cls-1" transform="translate(129.14 80.04) rotate(94.08)"><tspan x="0" y="0"> </tspan></text>
    <text class="cls-1" transform="translate(129.08 80.88) rotate(95)"><tspan x="0" y="0"> </tspan></text>
  </g>
</svg>