<?xml version="1.0" encoding="UTF-8"?>
<svg id="Layer_2" data-name="Layer 2" xmlns="http://www.w3.org/2000/svg" viewBox="0 0 228.13 228.13">
  <defs>
    <style>
      .cls-1 {
        font-family: Futura-Medium, Futura;
        font-weight: 500;
      }

      .cls-1, .cls-2 {
        fill: #231f20;
        font-size: 4px;
      }

      .cls-2 {
        font-family: Futura-CondensedExtraBold, Futura;
        font-weight: 700;
      }
    </style>
  </defs>
  <g id="Layer_22" data-name="Layer 22">
    <text class="cls-1" transform="translate(210.63 127.58) rotate(98.91)"><tspan x="0" y="0">L</tspan></text>
    <text class="cls-1" transform="translate(210.37 129.33) rotate(99.68)"><tspan x="0" y="0">a</tspan></text>
    <text class="cls-1" transform="translate(209.96 131.71) rotate(101.02)"><tspan x="0" y="0">y</tspan></text>
    <text class="cls-1" transform="translate(209.56 133.76) rotate(102.24)"><tspan x="0" y="0">e</tspan></text>
    <text class="cls-1" transform="translate(209.09 135.92) rotate(103.32)"><tspan x="0" y="0">r</tspan></text>
    <text class="cls-1" transform="translate(208.75 137.36) rotate(104.12)"><tspan x="0" y="0"> </tspan></text>
    <text class="cls-1" transform="translate(208.45 138.56) rotate(105.2)"><tspan x="0" y="0">2</tspan></text>
    <text class="cls-1" transform="translate(207.81 140.91) rotate(106.63)"><tspan x="0" y="0">2</tspan></text>
    <text class="cls-1" transform="translate(207.11 143.26) rotate(107.71)"><tspan x="0" y="0"> </tspan></text>
    <text class="cls-1" transform="translate(206.73 144.43) rotate(108.42)"><tspan x="0" y="0">I</tspan></text>
    <text class="cls-1" transform="translate(206.37 145.55) rotate(109.48)"><tspan x="0" y="0">p</tspan></text>
    <text class="cls-1" transform="translate(205.58 147.77) rotate(110.64)"><tspan x="0" y="0">s</tspan></text>
    <text class="cls-1" transform="translate(205.01 149.28) rotate(111.76)"><tspan x="0" y="0">u</tspan></text>
    <text class="cls-1" transform="translate(204.22 151.29) rotate(113.33)"><tspan x="0" y="0">m</tspan></text>
    <text class="cls-1" transform="translate(202.96 154.17) rotate(114.62)"><tspan x="0" y="0"> </tspan></text>
    <text class="cls-1" transform="translate(202.46 155.27) rotate(115.5)"><tspan x="0" y="0">L</tspan></text>
    <text class="cls-1" transform="translate(201.7 156.88) rotate(116.74)"><tspan x="0" y="0">o</tspan></text>
    <text class="cls-1" transform="translate(200.62 159) rotate(117.88)"><tspan x="0" y="0">r</tspan></text>
    <text class="cls-1" transform="translate(199.95 160.28) rotate(118.95)"><tspan x="0" y="0">e</tspan></text>
    <text class="cls-1" transform="translate(198.89 162.21) rotate(120.53)"><tspan x="0" y="0">m</tspan></text>
    <text class="cls-1" transform="translate(197.28 164.92) rotate(121.83)"><tspan x="0" y="0"> </tspan></text>
    <text class="cls-1" transform="translate(196.64 165.95) rotate(122.53)"><tspan x="0" y="0">I</tspan></text>
    <text class="cls-1" transform="translate(196.02 166.94) rotate(123.57)"><tspan x="0" y="0">p</tspan></text>
    <text class="cls-1" transform="translate(194.69 168.92) rotate(124.75)"><tspan x="0" y="0">s</tspan></text>
    <text class="cls-1" transform="translate(193.78 170.24) rotate(125.86)"><tspan x="0" y="0">u</tspan></text>
    <text class="cls-1" transform="translate(192.52 172) rotate(127.42)"><tspan x="0" y="0">m</tspan></text>
    <text class="cls-1" transform="translate(190.61 174.48) rotate(128.7)"><tspan x="0" y="0"> </tspan></text>
    <text class="cls-1" transform="translate(189.84 175.45) rotate(129.59)"><tspan x="0" y="0">L</tspan></text>
    <text class="cls-1" transform="translate(188.73 176.79) rotate(130.79)"><tspan x="0" y="0">o</tspan></text>
    <text class="cls-1" transform="translate(187.16 178.61) rotate(131.93)"><tspan x="0" y="0">r</tspan></text>
    <text class="cls-1" transform="translate(186.2 179.68) rotate(132.99)"><tspan x="0" y="0">e</tspan></text>
    <text class="cls-1" transform="translate(184.71 181.29) rotate(134.56)"><tspan x="0" y="0">m</tspan></text>
    <text class="cls-1" transform="translate(182.48 183.54) rotate(135.84)"><tspan x="0" y="0"> </tspan></text>
    <text class="cls-1" transform="translate(181.61 184.39) rotate(136.54)"><tspan x="0" y="0">I</tspan></text>
    <text class="cls-1" transform="translate(180.77 185.19) rotate(137.57)"><tspan x="0" y="0">p</tspan></text>
    <text class="cls-1" transform="translate(179 186.8) rotate(138.74)"><tspan x="0" y="0">s</tspan></text>
    <text class="cls-1" transform="translate(177.8 187.85) rotate(139.84)"><tspan x="0" y="0">u</tspan></text>
    <text class="cls-1" transform="translate(176.16 189.25) rotate(141.39)"><tspan x="0" y="0">m</tspan></text>
    <text class="cls-1" transform="translate(173.7 191.2) rotate(142.66)"><tspan x="0" y="0"> </tspan></text>
    <text class="cls-1" transform="translate(172.72 191.95) rotate(143.53)"><tspan x="0" y="0">L</tspan></text>
    <text class="cls-1" transform="translate(171.3 193.01) rotate(144.75)"><tspan x="0" y="0">o</tspan></text>
    <text class="cls-1" transform="translate(169.34 194.38) rotate(145.88)"><tspan x="0" y="0">r</tspan></text>
    <text class="cls-1" transform="translate(168.16 195.19) rotate(146.93)"><tspan x="0" y="0">e</tspan></text>
    <text class="cls-1" transform="translate(166.32 196.39) rotate(148.49)"><tspan x="0" y="0">m</tspan></text>
    <text class="cls-1" transform="translate(163.62 198.03) rotate(149.77)"><tspan x="0" y="0"> </tspan></text>
    <text class="cls-1" transform="translate(162.57 198.65) rotate(150.47)"><tspan x="0" y="0">I</tspan></text>
    <text class="cls-1" transform="translate(161.56 199.23) rotate(151.51)"><tspan x="0" y="0">p</tspan></text>
    <text class="cls-1" transform="translate(159.48 200.35) rotate(152.67)"><tspan x="0" y="0">s</tspan></text>
    <text class="cls-1" transform="translate(158.03 201.1) rotate(153.79)"><tspan x="0" y="0">u</tspan></text>
    <text class="cls-1" transform="translate(156.11 202.06) rotate(155.34)"><tspan x="0" y="0">m</tspan></text>
    <text class="cls-1" transform="translate(153.26 203.36) rotate(156.61)"><tspan x="0" y="0"> </tspan></text>
    <text class="cls-1" transform="translate(152.12 203.85) rotate(157.5)"><tspan x="0" y="0">L</tspan></text>
    <text class="cls-1" transform="translate(150.51 204.52) rotate(158.71)"><tspan x="0" y="0">o</tspan></text>
    <text class="cls-1" transform="translate(148.27 205.39) rotate(159.86)"><tspan x="0" y="0">r</tspan></text>
    <text class="cls-1" transform="translate(146.91 205.89) rotate(160.92)"><tspan x="0" y="0">e</tspan></text>
    <text class="cls-1" transform="translate(144.85 206.61) rotate(162.49)"><tspan x="0" y="0">m</tspan></text>
    <text class="cls-1" transform="translate(141.84 207.55) rotate(163.78)"><tspan x="0" y="0"> </tspan></text>
    <text class="cls-1" transform="translate(140.68 207.89) rotate(164.48)"><tspan x="0" y="0">I</tspan></text>
    <text class="cls-1" transform="translate(139.55 208.21) rotate(165.53)"><tspan x="0" y="0">p</tspan></text>
    <text class="cls-1" transform="translate(137.23 208.8) rotate(166.72)"><tspan x="0" y="0">s</tspan></text>
    <text class="cls-1" transform="translate(135.67 209.17) rotate(167.84)"><tspan x="0" y="0">u</tspan></text>
    <text class="cls-1" transform="translate(133.56 209.64) rotate(169.4)"><tspan x="0" y="0">m</tspan></text>
    <text class="cls-1" transform="translate(130.47 210.21) rotate(170.86)"><tspan x="0" y="0">L</tspan></text>
    <text class="cls-1" transform="translate(128.74 210.49) rotate(172.08)"><tspan x="0" y="0">o</tspan></text>
    <text class="cls-1" transform="translate(126.37 210.81) rotate(173.23)"><tspan x="0" y="0">r</tspan></text>
    <text class="cls-1" transform="translate(124.93 210.99) rotate(174.3)"><tspan x="0" y="0">e</tspan></text>
    <text class="cls-1" transform="translate(122.75 211.21) rotate(175.88)"><tspan x="0" y="0">m</tspan></text>
    <text class="cls-1" transform="translate(119.61 211.43) rotate(177.17)"><tspan x="0" y="0"> </tspan></text>
    <text class="cls-1" transform="translate(118.38 211.49) rotate(177.87)"><tspan x="0" y="0">I</tspan></text>
    <text class="cls-1" transform="translate(117.22 211.54) rotate(178.92)"><tspan x="0" y="0">p</tspan></text>
    <text class="cls-1" transform="translate(114.84 211.58) rotate(-179.91)"><tspan x="0" y="0">s</tspan></text>
    <text class="cls-1" transform="translate(113.24 211.58) rotate(-178.8)"><tspan x="0" y="0">u</tspan></text>
    <text class="cls-1" transform="translate(111.09 211.54) rotate(-177.26)"><tspan x="0" y="0">m</tspan></text>
    <text class="cls-1" transform="translate(107.93 211.38) rotate(-175.82)"><tspan x="0" y="0">L</tspan></text>
    <text class="cls-1" transform="translate(106.17 211.26) rotate(-174.61)"><tspan x="0" y="0">o</tspan></text>
    <text class="cls-1" transform="translate(103.81 211.03) rotate(-173.5)"><tspan x="0" y="0">r</tspan></text>
    <text class="cls-1" transform="translate(102.37 210.86) rotate(-172.95)"><tspan x="0" y="0">e</tspan></text>
    <text class="cls-1" transform="translate(100.18 210.59) rotate(-170.91)"><tspan x="0" y="0">m</tspan></text>
    <text class="cls-1" transform="translate(97.07 210.08) rotate(-169.64)"><tspan x="0" y="0"> </tspan></text>
    <text class="cls-1" transform="translate(95.89 209.86) rotate(-168.96)"><tspan x="0" y="0">I</tspan></text>
    <text class="cls-1" transform="translate(94.73 209.64) rotate(-167.92)"><tspan x="0" y="0">p</tspan></text>
    <text class="cls-1" transform="translate(92.42 209.14) rotate(-166.77)"><tspan x="0" y="0">s</tspan></text>
    <text class="cls-1" transform="translate(90.85 208.77) rotate(-165.66)"><tspan x="0" y="0">u</tspan></text>
    <text class="cls-2" transform="translate(88.75 208.25) rotate(-164.06)"><tspan x="0" y="0">m</tspan></text>
    <text class="cls-2" transform="translate(85.57 207.33) rotate(-162.59)"><tspan x="0" y="0">L</tspan></text>
    <text class="cls-2" transform="translate(84.01 206.84) rotate(-161.47)"><tspan x="0" y="0">o</tspan></text>
    <text class="cls-2" transform="translate(81.93 206.14) rotate(-160.37)"><tspan x="0" y="0">r</tspan></text>
    <text class="cls-2" transform="translate(80.44 205.61) rotate(-159.25)"><tspan x="0" y="0">e</tspan></text>
    <text class="cls-2" transform="translate(78.43 204.86) rotate(-157.64)"><tspan x="0" y="0">m</tspan></text>
    <text class="cls-2" transform="translate(75.37 203.59) rotate(-156.3)"><tspan x="0" y="0"> </tspan></text>
    <text class="cls-2" transform="translate(74.28 203.11) rotate(-155.59)"><tspan x="0" y="0">I</tspan></text>
    <text class="cls-2" transform="translate(73.16 202.61) rotate(-154.57)"><tspan x="0" y="0">p</tspan></text>
    <text class="cls-2" transform="translate(71.17 201.66) rotate(-153.39)"><tspan x="0" y="0">s</tspan></text>
    <text class="cls-2" transform="translate(69.58 200.86) rotate(-152.2)"><tspan x="0" y="0">u</tspan></text>
    <text class="cls-2" transform="translate(67.6 199.83) rotate(-150.57)"><tspan x="0" y="0">m</tspan></text>
    <text class="cls-1" transform="translate(64.74 198.2) rotate(-149.07)"><tspan x="0" y="0">L</tspan></text>
    <text class="cls-1" transform="translate(63.23 197.3) rotate(-147.85)"><tspan x="0" y="0">o</tspan></text>
    <text class="cls-1" transform="translate(61.21 196.03) rotate(-146.71)"><tspan x="0" y="0">r</tspan></text>
    <text class="cls-1" transform="translate(60 195.24) rotate(-145.64)"><tspan x="0" y="0">e</tspan></text>
    <text class="cls-1" transform="translate(58.16 193.99) rotate(-144.05)"><tspan x="0" y="0">m</tspan></text>
    <text class="cls-1" transform="translate(55.63 192.14) rotate(-142.77)"><tspan x="0" y="0"> </tspan></text>
    <text class="cls-1" transform="translate(54.67 191.41) rotate(-142.08)"><tspan x="0" y="0">I</tspan></text>
    <text class="cls-1" transform="translate(53.72 190.68) rotate(-141.02)"><tspan x="0" y="0">p</tspan></text>
    <text class="cls-1" transform="translate(51.88 189.19) rotate(-139.85)"><tspan x="0" y="0">s</tspan></text>
    <text class="cls-1" transform="translate(50.66 188.16) rotate(-138.75)"><tspan x="0" y="0">u</tspan></text>
    <text class="cls-1" transform="translate(49.03 186.74) rotate(-137.19)"><tspan x="0" y="0">m</tspan></text>
    <text class="cls-1" transform="translate(46.73 184.6) rotate(-135.77)"><tspan x="0" y="0">L</tspan></text>
    <text class="cls-1" transform="translate(45.46 183.37) rotate(-134.55)"><tspan x="0" y="0">o</tspan></text>
    <text class="cls-1" transform="translate(43.79 181.66) rotate(-133.41)"><tspan x="0" y="0">r</tspan></text>
    <text class="cls-1" transform="translate(42.8 180.62) rotate(-132.36)"><tspan x="0" y="0">e</tspan></text>
    <text class="cls-1" transform="translate(41.31 179) rotate(-130.8)"><tspan x="0" y="0">m</tspan></text>
    <text class="cls-1" transform="translate(39.26 176.6) rotate(-129.52)"><tspan x="0" y="0"> </tspan></text>
    <text class="cls-1" transform="translate(38.48 175.67) rotate(-128.83)"><tspan x="0" y="0">I</tspan></text>
    <text class="cls-1" transform="translate(37.75 174.76) rotate(-127.79)"><tspan x="0" y="0">p</tspan></text>
    <text class="cls-1" transform="translate(36.29 172.87) rotate(-126.62)"><tspan x="0" y="0">s</tspan></text>
    <text class="cls-1" transform="translate(35.34 171.6) rotate(-125.53)"><tspan x="0" y="0">u</tspan></text>
    <text class="cls-1" transform="translate(34.06 169.83) rotate(-123.97)"><tspan x="0" y="0">m</tspan></text>
    <text class="cls-1" transform="translate(32.32 167.21) rotate(-122.54)"><tspan x="0" y="0">L</tspan></text>
    <text class="cls-1" transform="translate(31.38 165.76) rotate(-121.34)"><tspan x="0" y="0">o</tspan></text>
    <text class="cls-1" transform="translate(30.14 163.71) rotate(-120.21)"><tspan x="0" y="0">r</tspan></text>
    <text class="cls-1" transform="translate(29.4 162.44) rotate(-119.13)"><tspan x="0" y="0">e</tspan></text>
    <text class="cls-1" transform="translate(28.33 160.54) rotate(-117.58)"><tspan x="0" y="0">m</tspan></text>
    <text class="cls-1" transform="translate(26.88 157.74) rotate(-116.3)"><tspan x="0" y="0"> </tspan></text>
    <text class="cls-1" transform="translate(26.33 156.63) rotate(-115.59)"><tspan x="0" y="0">I</tspan></text>
    <text class="cls-1" transform="translate(25.83 155.6) rotate(-114.56)"><tspan x="0" y="0">p</tspan></text>
    <text class="cls-1" transform="translate(24.85 153.44) rotate(-113.39)"><tspan x="0" y="0">s</tspan></text>
    <text class="cls-1" transform="translate(24.2 151.94) rotate(-112.27)"><tspan x="0" y="0">u</tspan></text>
    <text class="cls-1" transform="translate(23.37 149.95) rotate(-110.71)"><tspan x="0" y="0">m</tspan></text>
    <text class="cls-1" transform="translate(22.27 147.02) rotate(-109.27)"><tspan x="0" y="0">L</tspan></text>
    <text class="cls-1" transform="translate(21.69 145.36) rotate(-108.06)"><tspan x="0" y="0">o</tspan></text>
    <text class="cls-1" transform="translate(20.95 143.08) rotate(-106.91)"><tspan x="0" y="0">r</tspan></text>
    <text class="cls-1" transform="translate(20.53 141.71) rotate(-105.85)"><tspan x="0" y="0">e</tspan></text>
    <text class="cls-1" transform="translate(19.92 139.6) rotate(-104.27)"><tspan x="0" y="0">m</tspan></text>
    <text class="cls-1" transform="translate(19.16 136.54) rotate(-102.97)"><tspan x="0" y="0"> </tspan></text>
    <text class="cls-1" transform="translate(18.88 135.35) rotate(-102.26)"><tspan x="0" y="0">I</tspan></text>
    <text class="cls-1" transform="translate(18.63 134.19) rotate(-101.2)"><tspan x="0" y="0">p</tspan></text>
    <text class="cls-1" transform="translate(18.17 131.87) rotate(-100.03)"><tspan x="0" y="0">s</tspan></text>
    <text class="cls-1" transform="translate(17.89 130.3) rotate(-98.92)"><tspan x="0" y="0">u</tspan></text>
    <text class="cls-1" transform="translate(17.55 128.15) rotate(-97.34)"><tspan x="0" y="0">m</tspan></text>
    <text class="cls-1" transform="translate(17.15 125.03) rotate(-96.05)"><tspan x="0" y="0"> </tspan></text>
    <text class="cls-1" transform="translate(17.03 123.83) rotate(-95.18)"><tspan x="0" y="0">L</tspan></text>
    <text class="cls-1" transform="translate(16.86 122.07) rotate(-93.95)"><tspan x="0" y="0">o</tspan></text>
    <text class="cls-1" transform="translate(16.7 119.69) rotate(-92.8)"><tspan x="0" y="0">r</tspan></text>
    <text class="cls-1" transform="translate(16.63 118.24) rotate(-91.73)"><tspan x="0" y="0">e</tspan></text>
    <text class="cls-1" transform="translate(16.55 116.06) rotate(-90.17)"><tspan x="0" y="0">m</tspan></text>
    <text class="cls-1" transform="translate(16.56 112.9) rotate(-88.88)"><tspan x="0" y="0"> </tspan></text>
    <text class="cls-1" transform="translate(16.58 111.68) rotate(-88.18)"><tspan x="0" y="0">I</tspan></text>
    <text class="cls-1" transform="translate(16.61 110.51) rotate(-87.14)"><tspan x="0" y="0">p</tspan></text>
    <text class="cls-1" transform="translate(16.73 108.13) rotate(-85.98)"><tspan x="0" y="0">s</tspan></text>
    <text class="cls-1" transform="translate(16.84 106.53) rotate(-84.88)"><tspan x="0" y="0">u</tspan></text>
    <text class="cls-1" transform="translate(17.03 104.37) rotate(-83.34)"><tspan x="0" y="0">m</tspan></text>
    <text class="cls-1" transform="translate(17.42 101.24) rotate(-82.95)"><tspan x="0" y="0"> </tspan></text>
    <text class="cls-1" transform="translate(17.57 100.05) rotate(-81.09)"><tspan x="0" y="0">L</tspan></text>
    <text class="cls-1" transform="translate(17.84 98.3) rotate(-80.03)"><tspan x="0" y="0">o</tspan></text>
    <text class="cls-1" transform="translate(18.25 95.97) rotate(-78.92)"><tspan x="0" y="0">r</tspan></text>
    <text class="cls-1" transform="translate(18.53 94.53) rotate(-77.85)"><tspan x="0" y="0">e</tspan></text>
    <text class="cls-1" transform="translate(18.99 92.38) rotate(-76.29)"><tspan x="0" y="0">m</tspan></text>
    <text class="cls-1" transform="translate(19.74 89.33) rotate(-75.01)"><tspan x="0" y="0"> </tspan></text>
    <text class="cls-1" transform="translate(20.06 88.13) rotate(-74.3)"><tspan x="0" y="0">I</tspan></text>
    <text class="cls-1" transform="translate(20.37 87.02) rotate(-73.27)"><tspan x="0" y="0">p</tspan></text>
    <text class="cls-1" transform="translate(21.05 84.75) rotate(-72.1)"><tspan x="0" y="0">s</tspan></text>
    <text class="cls-1" transform="translate(21.55 83.2) rotate(-70.97)"><tspan x="0" y="0">u</tspan></text>
    <text class="cls-1" transform="translate(22.24 81.17) rotate(-69.41)"><tspan x="0" y="0">m</tspan></text>
    <text class="cls-1" transform="translate(23.36 78.24) rotate(-68.13)"><tspan x="0" y="0"> </tspan></text>
    <text class="cls-1" transform="translate(23.82 77.09) rotate(-67.24)"><tspan x="0" y="0">L</tspan></text>
    <text class="cls-1" transform="translate(24.49 75.47) rotate(-66.01)"><tspan x="0" y="0">o</tspan></text>
    <text class="cls-1" transform="translate(25.46 73.29) rotate(-64.87)"><tspan x="0" y="0">r</tspan></text>
    <text class="cls-1" transform="translate(26.08 71.97) rotate(-63.79)"><tspan x="0" y="0">e</tspan></text>
    <text class="cls-1" transform="translate(27.04 70.02) rotate(-62.22)"><tspan x="0" y="0">m</tspan></text>
    <text class="cls-1" transform="translate(28.52 67.22) rotate(-60.92)"><tspan x="0" y="0"> </tspan></text>
    <text class="cls-1" transform="translate(29.11 66.16) rotate(-60.21)"><tspan x="0" y="0">I</tspan></text>
    <text class="cls-1" transform="translate(29.69 65.14) rotate(-59.16)"><tspan x="0" y="0">p</tspan></text>
    <text class="cls-1" transform="translate(30.91 63.1) rotate(-57.99)"><tspan x="0" y="0">s</tspan></text>
    <text class="cls-1" transform="translate(31.76 61.74) rotate(-56.87)"><tspan x="0" y="0">u</tspan></text>
    <text class="cls-1" transform="translate(32.93 59.93) rotate(-55.31)"><tspan x="0" y="0">m</tspan></text>
    <text class="cls-1" transform="translate(34.74 57.33) rotate(-53.86)"><tspan x="0" y="0">L</tspan></text>
    <text class="cls-1" transform="translate(35.77 55.92) rotate(-52.64)"><tspan x="0" y="0">o</tspan></text>
    <text class="cls-1" transform="translate(37.2 54.04) rotate(-51.52)"><tspan x="0" y="0">r</tspan></text>
    <text class="cls-1" transform="translate(38.12 52.88) rotate(-50.44)"><tspan x="0" y="0">e</tspan></text>
    <text class="cls-1" transform="translate(39.5 51.2) rotate(-48.88)"><tspan x="0" y="0">m</tspan></text>
    <text class="cls-1" transform="translate(41.59 48.83) rotate(-47.59)"><tspan x="0" y="0"> </tspan></text>
    <text class="cls-1" transform="translate(42.4 47.94) rotate(-46.9)"><tspan x="0" y="0">I</tspan></text>
    <text class="cls-1" transform="translate(43.21 47.07) rotate(-45.85)"><tspan x="0" y="0">p</tspan></text>
    <text class="cls-1" transform="translate(44.85 45.37) rotate(-44.69)"><tspan x="0" y="0">s</tspan></text>
    <text class="cls-1" transform="translate(46.01 44.23) rotate(-43.58)"><tspan x="0" y="0">u</tspan></text>
    <text class="cls-1" transform="translate(47.56 42.75) rotate(-42.04)"><tspan x="0" y="0">m</tspan></text>
    <text class="cls-1" transform="translate(49.9 40.65) rotate(-40.61)"><tspan x="0" y="0">L</tspan></text>
    <text class="cls-1" transform="translate(51.24 39.49) rotate(-39.39)"><tspan x="0" y="0">o</tspan></text>
    <text class="cls-1" transform="translate(53.09 37.98) rotate(-38.26)"><tspan x="0" y="0">r</tspan></text>
    <text class="cls-1" transform="translate(54.21 37.09) rotate(-37.21)"><tspan x="0" y="0">e</tspan></text>
    <text class="cls-1" transform="translate(55.95 35.76) rotate(-35.65)"><tspan x="0" y="0">m</tspan></text>
    <text class="cls-1" transform="translate(58.53 33.93) rotate(-34.37)"><tspan x="0" y="0"> </tspan></text>
    <text class="cls-1" transform="translate(59.55 33.23) rotate(-33.67)"><tspan x="0" y="0">I</tspan></text>
    <text class="cls-1" transform="translate(60.5 32.59) rotate(-32.64)"><tspan x="0" y="0">p</tspan></text>
    <text class="cls-1" transform="translate(62.52 31.3) rotate(-31.47)"><tspan x="0" y="0">s</tspan></text>
    <text class="cls-1" transform="translate(63.87 30.46) rotate(-30.38)"><tspan x="0" y="0">u</tspan></text>
    <text class="cls-1" transform="translate(65.75 29.36) rotate(-28.81)"><tspan x="0" y="0">m</tspan></text>
    <text class="cls-1" transform="translate(68.49 27.86) rotate(-27.55)"><tspan x="0" y="0"> </tspan></text>
    <text class="cls-1" transform="translate(69.6 27.28) rotate(-26.82)"><tspan x="0" y="0"> </tspan></text>
    <text class="cls-1" transform="translate(70.68 26.74) rotate(-26.11)"><tspan x="0" y="0"> </tspan></text>
    <text class="cls-1" transform="translate(71.79 26.19) rotate(-25.22)"><tspan x="0" y="0">L</tspan></text>
    <text class="cls-1" transform="translate(73.36 25.45) rotate(-24.02)"><tspan x="0" y="0">o</tspan></text>
    <text class="cls-1" transform="translate(75.55 24.47) rotate(-22.87)"><tspan x="0" y="0">r</tspan></text>
    <text class="cls-1" transform="translate(76.88 23.91) rotate(-21.81)"><tspan x="0" y="0">e</tspan></text>
    <text class="cls-1" transform="translate(78.92 23.09) rotate(-20.24)"><tspan x="0" y="0">m</tspan></text>
    <text class="cls-1" transform="translate(81.89 22) rotate(-18.95)"><tspan x="0" y="0"> </tspan></text>
    <text class="cls-1" transform="translate(83.03 21.61) rotate(-18.25)"><tspan x="0" y="0">I</tspan></text>
    <text class="cls-1" transform="translate(84.14 21.24) rotate(-17.2)"><tspan x="0" y="0">p</tspan></text>
    <text class="cls-1" transform="translate(86.42 20.54) rotate(-16.02)"><tspan x="0" y="0">s</tspan></text>
    <text class="cls-1" transform="translate(87.97 20.09) rotate(-14.9)"><tspan x="0" y="0">u</tspan></text>
    <text class="cls-1" transform="translate(90.04 19.53) rotate(-13.34)"><tspan x="0" y="0">m</tspan></text>
    <text class="cls-1" transform="translate(93.11 18.81) rotate(-11.89)"><tspan x="0" y="0">L</tspan></text>
    <text class="cls-1" transform="translate(94.81 18.45) rotate(-10.67)"><tspan x="0" y="0">o</tspan></text>
    <text class="cls-1" transform="translate(97.17 18.01) rotate(-9.52)"><tspan x="0" y="0">r</tspan></text>
    <text class="cls-1" transform="translate(98.59 17.77) rotate(-8.45)"><tspan x="0" y="0">e</tspan></text>
    <text class="cls-1" transform="translate(100.76 17.44) rotate(-6.87)"><tspan x="0" y="0">m</tspan></text>
    <text class="cls-1" transform="translate(103.89 17.07) rotate(-5.58)"><tspan x="0" y="0"> </tspan></text>
    <text class="cls-1" transform="translate(105.12 16.95) rotate(-4.86)"><tspan x="0" y="0">I</tspan></text>
    <text class="cls-1" transform="translate(106.28 16.85) rotate(-3.81)"><tspan x="0" y="0">p</tspan></text>
    <text class="cls-1" transform="translate(108.64 16.69) rotate(-2.64)"><tspan x="0" y="0">s</tspan></text>
    <text class="cls-1" transform="translate(110.25 16.62) rotate(-1.53)"><tspan x="0" y="0">u</tspan></text>
    <text class="cls-1" transform="translate(112.42 16.56) rotate(-.53)"><tspan x="0" y="0"> </tspan></text>
    <text class="cls-1" transform="translate(113.64 16.55) rotate(.17)"><tspan x="0" y="0">I</tspan></text>
    <text class="cls-1" transform="translate(114.8 16.55) rotate(1.21)"><tspan x="0" y="0">p</tspan></text>
    <text class="cls-1" transform="translate(117.19 16.6) rotate(2.38)"><tspan x="0" y="0">s</tspan></text>
    <text class="cls-1" transform="translate(118.81 16.67) rotate(3.49)"><tspan x="0" y="0">u</tspan></text>
    <text class="cls-1" transform="translate(120.95 16.79) rotate(5.03)"><tspan x="0" y="0">m</tspan></text>
    <text class="cls-1" transform="translate(124.08 17.08) rotate(6.45)"><tspan x="0" y="0">L</tspan></text>
    <text class="cls-1" transform="translate(125.84 17.28) rotate(7.05)"><tspan x="0" y="0">o</tspan></text>
    <text class="cls-1" transform="translate(128.18 17.59) rotate(8.91)"><tspan x="0" y="0">r</tspan></text>
    <text class="cls-1" transform="translate(129.63 17.81) rotate(9.81)"><tspan x="0" y="0">e</tspan></text>
    <text class="cls-1" transform="translate(131.8 18.18) rotate(11.36)"><tspan x="0" y="0">m</tspan></text>
    <text class="cls-1" transform="translate(134.88 18.8) rotate(13.19)"><tspan x="0" y="0">m</tspan></text>
    <text class="cls-1" transform="translate(137.92 19.52) rotate(14.45)"><tspan x="0" y="0"> </tspan></text>
    <text class="cls-1" transform="translate(139.1 19.82) rotate(15.15)"><tspan x="0" y="0">I</tspan></text>
    <text class="cls-1" transform="translate(140.26 20.13) rotate(16.21)"><tspan x="0" y="0">p</tspan></text>
    <text class="cls-1" transform="translate(142.54 20.8) rotate(17.39)"><tspan x="0" y="0">s</tspan></text>
    <text class="cls-1" transform="translate(144.06 21.27) rotate(18.49)"><tspan x="0" y="0">u</tspan></text>
    <text class="cls-1" transform="translate(146.11 21.95) rotate(20.06)"><tspan x="0" y="0">m</tspan></text>
    <text class="cls-1" transform="translate(149.07 23.04) rotate(21.51)"><tspan x="0" y="0">L</tspan></text>
    <text class="cls-1" transform="translate(150.71 23.68) rotate(22.74)"><tspan x="0" y="0">o</tspan></text>
    <text class="cls-1" transform="translate(152.9 24.61) rotate(23.88)"><tspan x="0" y="0">r</tspan></text>
    <text class="cls-1" transform="translate(154.22 25.19) rotate(24.94)"><tspan x="0" y="0">e</tspan></text>
    <text class="cls-1" transform="translate(156.22 26.11) rotate(26.53)"><tspan x="0" y="0">m</tspan></text>
    <text class="cls-1" transform="translate(159.03 27.52) rotate(27.82)"><tspan x="0" y="0"> </tspan></text>
    <text class="cls-1" transform="translate(160.11 28.09) rotate(28.53)"><tspan x="0" y="0">I</tspan></text>
    <text class="cls-1" transform="translate(161.15 28.65) rotate(29.59)"><tspan x="0" y="0">p</tspan></text>
    <text class="cls-1" transform="translate(163.21 29.83) rotate(30.76)"><tspan x="0" y="0">s</tspan></text>
    <text class="cls-1" transform="translate(164.58 30.64) rotate(31.87)"><tspan x="0" y="0">u</tspan></text>
    <text class="cls-1" transform="translate(166.43 31.78) rotate(33.44)"><tspan x="0" y="0">m</tspan></text>
    <text class="cls-1" transform="translate(169.04 33.51) rotate(34.88)"><tspan x="0" y="0">L</tspan></text>
    <text class="cls-1" transform="translate(170.48 34.51) rotate(36.1)"><tspan x="0" y="0">o</tspan></text>
    <text class="cls-1" transform="translate(172.42 35.93) rotate(37.25)"><tspan x="0" y="0">r</tspan></text>
    <text class="cls-1" transform="translate(173.57 36.81) rotate(38.31)"><tspan x="0" y="0">e</tspan></text>
    <text class="cls-1" transform="translate(175.31 38.17) rotate(39.89)"><tspan x="0" y="0">m</tspan></text>
    <text class="cls-1" transform="translate(177.71 40.19) rotate(41.16)"><tspan x="0" y="0"> </tspan></text>
    <text class="cls-1" transform="translate(178.64 41) rotate(41.87)"><tspan x="0" y="0">I</tspan></text>
    <text class="cls-1" transform="translate(179.5 41.76) rotate(42.9)"><tspan x="0" y="0">p</tspan></text>
    <text class="cls-1" transform="translate(181.24 43.39) rotate(44.07)"><tspan x="0" y="0">s</tspan></text>
    <text class="cls-1" transform="translate(182.4 44.51) rotate(45.18)"><tspan x="0" y="0">u</tspan></text>
    <text class="cls-1" transform="translate(183.92 46.02) rotate(46.72)"><tspan x="0" y="0">m</tspan></text>
    <text class="cls-1" transform="translate(186.07 48.32) rotate(48.15)"><tspan x="0" y="0">L</tspan></text>
    <text class="cls-1" transform="translate(187.25 49.63) rotate(49.37)"><tspan x="0" y="0">o</tspan></text>
    <text class="cls-1" transform="translate(188.81 51.45) rotate(50.5)"><tspan x="0" y="0">r</tspan></text>
    <text class="cls-1" transform="translate(189.73 52.57) rotate(51.56)"><tspan x="0" y="0">e</tspan></text>
    <text class="cls-1" transform="translate(191.1 54.28) rotate(53.12)"><tspan x="0" y="0">m</tspan></text>
    <text class="cls-1" transform="translate(192.98 56.8) rotate(54.39)"><tspan x="0" y="0"> </tspan></text>
    <text class="cls-1" transform="translate(193.69 57.79) rotate(55.4)"><tspan x="0" y="0">E</tspan></text>
    <text class="cls-1" transform="translate(194.97 59.64) rotate(56.69)"><tspan x="0" y="0">n</tspan></text>
    <text class="cls-1" transform="translate(196.16 61.45) rotate(58.02)"><tspan x="0" y="0">d</tspan></text>
  </g>
</svg>