<?xml version="1.0" encoding="UTF-8"?>
<svg id="Layer_2" data-name="Layer 2" xmlns="http://www.w3.org/2000/svg" viewBox="0 0 197.56 197.56">
  <defs>
    <style>
      .cls-1 {
        font-family: Futura-CondensedExtraBold, Futura;
        font-weight: 700;
      }

      .cls-1, .cls-2 {
        fill: #231f20;
        font-size: 3.2px;
      }

      .cls-2 {
        font-family: Futura-Medium, Futura;
        font-weight: 500;
      }
    </style>
  </defs>
  <g id="Layer_14" data-name="Layer 14">
    <text class="cls-2" transform="translate(151.64 140.76) rotate(129.38)"><tspan x="0" y="0">L</tspan></text>
    <text class="cls-2" transform="translate(150.75 141.86) rotate(130.42)"><tspan x="0" y="0">a</tspan></text>
    <text class="cls-2" transform="translate(149.5 143.32) rotate(131.96)"><tspan x="0" y="0">y</tspan></text>
    <text class="cls-2" transform="translate(148.38 144.57) rotate(133.39)"><tspan x="0" y="0">e</tspan></text>
    <text class="cls-2" transform="translate(147.17 145.85) rotate(134.63)"><tspan x="0" y="0">r</tspan></text>
    <text class="cls-2" transform="translate(146.33 146.7) rotate(135.56)"><tspan x="0" y="0"> </tspan></text>
    <text class="cls-2" transform="translate(145.64 147.38) rotate(136.8)"><tspan x="0" y="0">1</tspan></text>
    <text class="cls-2" transform="translate(144.41 148.54) rotate(138.24)"><tspan x="0" y="0">4</tspan></text>
    <text class="cls-2" transform="translate(142.94 149.85) rotate(139.5)"><tspan x="0" y="0"> </tspan></text>
    <text class="cls-2" transform="translate(142.18 150.5) rotate(140.33)"><tspan x="0" y="0">I</tspan></text>
    <text class="cls-2" transform="translate(141.47 151.09) rotate(141.54)"><tspan x="0" y="0">p</tspan></text>
    <text class="cls-2" transform="translate(139.98 152.27) rotate(142.9)"><tspan x="0" y="0">s</tspan></text>
    <text class="cls-2" transform="translate(138.97 153.04) rotate(144.17)"><tspan x="0" y="0">u</tspan></text>
    <text class="cls-2" transform="translate(137.57 154.06) rotate(145.99)"><tspan x="0" y="0">m</tspan></text>
    <text class="cls-2" transform="translate(135.48 155.45) rotate(147.48)"><tspan x="0" y="0"> </tspan></text>
    <text class="cls-2" transform="translate(134.64 155.99) rotate(148.52)"><tspan x="0" y="0">L</tspan></text>
    <text class="cls-2" transform="translate(133.45 156.72) rotate(149.93)"><tspan x="0" y="0">o</tspan></text>
    <text class="cls-2" transform="translate(131.8 157.68) rotate(151.25)"><tspan x="0" y="0">r</tspan></text>
    <text class="cls-2" transform="translate(130.79 158.23) rotate(152.47)"><tspan x="0" y="0">e</tspan></text>
    <text class="cls-2" transform="translate(129.23 159.06) rotate(154.31)"><tspan x="0" y="0">m</tspan></text>
    <text class="cls-2" transform="translate(126.96 160.14) rotate(155.79)"><tspan x="0" y="0"> </tspan></text>
    <text class="cls-2" transform="translate(126.08 160.53) rotate(156.59)"><tspan x="0" y="0">I</tspan></text>
    <text class="cls-2" transform="translate(125.22 160.91) rotate(157.81)"><tspan x="0" y="0">p</tspan></text>
    <text class="cls-2" transform="translate(123.44 161.63) rotate(159.17)"><tspan x="0" y="0">s</tspan></text>
    <text class="cls-2" transform="translate(122.25 162.09) rotate(160.45)"><tspan x="0" y="0">u</tspan></text>
    <text class="cls-2" transform="translate(120.63 162.67) rotate(162.23)"><tspan x="0" y="0">m</tspan></text>
    <text class="cls-2" transform="translate(118.23 163.43) rotate(163.72)"><tspan x="0" y="0"> </tspan></text>
    <text class="cls-2" transform="translate(117.29 163.71) rotate(164.73)"><tspan x="0" y="0">L</tspan></text>
    <text class="cls-2" transform="translate(115.95 164.08) rotate(166.12)"><tspan x="0" y="0">o</tspan></text>
    <text class="cls-2" transform="translate(114.09 164.53) rotate(167.43)"><tspan x="0" y="0">r</tspan></text>
    <text class="cls-2" transform="translate(112.94 164.79) rotate(168.67)"><tspan x="0" y="0">e</tspan></text>
    <text class="cls-2" transform="translate(111.23 165.14) rotate(170.46)"><tspan x="0" y="0">m</tspan></text>
    <text class="cls-2" transform="translate(108.77 165.55) rotate(171.91)"><tspan x="0" y="0"> </tspan></text>
    <text class="cls-2" transform="translate(107.79 165.68) rotate(172.73)"><tspan x="0" y="0">I</tspan></text>
    <text class="cls-2" transform="translate(106.87 165.81) rotate(173.92)"><tspan x="0" y="0">p</tspan></text>
    <text class="cls-2" transform="translate(104.95 166.01) rotate(175.29)"><tspan x="0" y="0">s</tspan></text>
    <text class="cls-2" transform="translate(103.69 166.11) rotate(176.55)"><tspan x="0" y="0">u</tspan></text>
    <text class="cls-2" transform="translate(101.98 166.22) rotate(178.32)"><tspan x="0" y="0">m</tspan></text>
    <text class="cls-2" transform="translate(99.44 166.29) rotate(179.82)"><tspan x="0" y="0"> </tspan></text>
    <text class="cls-2" transform="translate(98.49 166.29) rotate(-179.2)"><tspan x="0" y="0">L</tspan></text>
    <text class="cls-2" transform="translate(97.07 166.28) rotate(-177.78)"><tspan x="0" y="0">o</tspan></text>
    <text class="cls-2" transform="translate(95.16 166.2) rotate(-176.47)"><tspan x="0" y="0">r</tspan></text>
    <text class="cls-2" transform="translate(94 166.13) rotate(-175.25)"><tspan x="0" y="0">e</tspan></text>
    <text class="cls-2" transform="translate(92.25 165.99) rotate(-173.44)"><tspan x="0" y="0">m</tspan></text>
    <text class="cls-2" transform="translate(89.77 165.7) rotate(-171.97)"><tspan x="0" y="0"> </tspan></text>
    <text class="cls-2" transform="translate(88.79 165.56) rotate(-171.14)"><tspan x="0" y="0">I</tspan></text>
    <text class="cls-2" transform="translate(87.86 165.42) rotate(-169.93)"><tspan x="0" y="0">p</tspan></text>
    <text class="cls-2" transform="translate(85.99 165.08) rotate(-168.58)"><tspan x="0" y="0">s</tspan></text>
    <text class="cls-2" transform="translate(84.73 164.83) rotate(-167.3)"><tspan x="0" y="0">u</tspan></text>
    <text class="cls-2" transform="translate(83.04 164.46) rotate(-165.48)"><tspan x="0" y="0">m</tspan></text>
    <text class="cls-2" transform="translate(80.6 163.82) rotate(-163.99)"><tspan x="0" y="0"> </tspan></text>
    <text class="cls-2" transform="translate(79.67 163.55) rotate(-162.98)"><tspan x="0" y="0">L</tspan></text>
    <text class="cls-2" transform="translate(78.33 163.15) rotate(-161.57)"><tspan x="0" y="0">o</tspan></text>
    <text class="cls-2" transform="translate(76.52 162.54) rotate(-160.24)"><tspan x="0" y="0">r</tspan></text>
    <text class="cls-2" transform="translate(75.42 162.15) rotate(-159)"><tspan x="0" y="0">e</tspan></text>
    <text class="cls-2" transform="translate(73.79 161.53) rotate(-157.18)"><tspan x="0" y="0">m</tspan></text>
    <text class="cls-2" transform="translate(71.47 160.54) rotate(-155.69)"><tspan x="0" y="0"> </tspan></text>
    <text class="cls-2" transform="translate(70.57 160.13) rotate(-154.86)"><tspan x="0" y="0">I</tspan></text>
    <text class="cls-2" transform="translate(69.73 159.74) rotate(-153.65)"><tspan x="0" y="0">p</tspan></text>
    <text class="cls-2" transform="translate(68.04 158.9) rotate(-152.31)"><tspan x="0" y="0">s</tspan></text>
    <text class="cls-2" transform="translate(66.9 158.31) rotate(-151.02)"><tspan x="0" y="0">u</tspan></text>
    <text class="cls-2" transform="translate(65.39 157.48) rotate(-149.22)"><tspan x="0" y="0">m</tspan></text>
    <text class="cls-2" transform="translate(63.22 156.18) rotate(-147.55)"><tspan x="0" y="0">L</tspan></text>
    <text class="cls-2" transform="translate(62.03 155.43) rotate(-146.15)"><tspan x="0" y="0">o</tspan></text>
    <text class="cls-2" transform="translate(60.46 154.37) rotate(-144.86)"><tspan x="0" y="0">r</tspan></text>
    <text class="cls-2" transform="translate(59.5 153.69) rotate(-143.64)"><tspan x="0" y="0">e</tspan></text>
    <text class="cls-2" transform="translate(58.1 152.66) rotate(-142.48)"><tspan x="0" y="0">m</tspan></text>
    <text class="cls-2" transform="translate(56.12 151.11) rotate(-140.42)"><tspan x="0" y="0"> </tspan></text>
    <text class="cls-2" transform="translate(55.35 150.47) rotate(-139.6)"><tspan x="0" y="0">I</tspan></text>
    <text class="cls-2" transform="translate(54.65 149.88) rotate(-138.42)"><tspan x="0" y="0">p</tspan></text>
    <text class="cls-2" transform="translate(53.23 148.62) rotate(-137.09)"><tspan x="0" y="0">s</tspan></text>
    <text class="cls-2" transform="translate(52.27 147.73) rotate(-135.8)"><tspan x="0" y="0">u</tspan></text>
    <text class="cls-2" transform="translate(51.04 146.54) rotate(-134.01)"><tspan x="0" y="0">m</tspan></text>
    <text class="cls-2" transform="translate(49.3 144.72) rotate(-132.35)"><tspan x="0" y="0">L</tspan></text>
    <text class="cls-2" transform="translate(48.34 143.68) rotate(-130.93)"><tspan x="0" y="0">o</tspan></text>
    <text class="cls-2" transform="translate(47.11 142.25) rotate(-129.63)"><tspan x="0" y="0">r</tspan></text>
    <text class="cls-2" transform="translate(46.35 141.35) rotate(-128.37)"><tspan x="0" y="0">e</tspan></text>
    <text class="cls-2" transform="translate(45.27 139.99) rotate(-126.56)"><tspan x="0" y="0">m</tspan></text>
    <text class="cls-2" transform="translate(43.78 137.96) rotate(-125.07)"><tspan x="0" y="0"> </tspan></text>
    <text class="cls-2" transform="translate(43.22 137.16) rotate(-124.25)"><tspan x="0" y="0">I</tspan></text>
    <text class="cls-2" transform="translate(42.68 136.39) rotate(-123.03)"><tspan x="0" y="0">p</tspan></text>
    <text class="cls-2" transform="translate(41.64 134.78) rotate(-121.66)"><tspan x="0" y="0">s</tspan></text>
    <text class="cls-2" transform="translate(40.97 133.7) rotate(-120.38)"><tspan x="0" y="0">u</tspan></text>
    <text class="cls-2" transform="translate(40.1 132.22) rotate(-118.58)"><tspan x="0" y="0">m</tspan></text>
    <text class="cls-2" transform="translate(38.9 130) rotate(-116.89)"><tspan x="0" y="0">L</tspan></text>
    <text class="cls-2" transform="translate(38.25 128.74) rotate(-115.47)"><tspan x="0" y="0">o</tspan></text>
    <text class="cls-2" transform="translate(37.44 127.02) rotate(-114.17)"><tspan x="0" y="0">r</tspan></text>
    <text class="cls-2" transform="translate(36.96 125.96) rotate(-112.93)"><tspan x="0" y="0">e</tspan></text>
    <text class="cls-2" transform="translate(36.28 124.36) rotate(-111.13)"><tspan x="0" y="0">m</tspan></text>
    <text class="cls-2" transform="translate(35.38 122) rotate(-109.64)"><tspan x="0" y="0"> </tspan></text>
    <text class="cls-2" transform="translate(35.05 121.1) rotate(-108.84)"><tspan x="0" y="0">I</tspan></text>
    <text class="cls-2" transform="translate(34.75 120.21) rotate(-107.64)"><tspan x="0" y="0">p</tspan></text>
    <text class="cls-2" transform="translate(34.17 118.39) rotate(-106.28)"><tspan x="0" y="0">s</tspan></text>
    <text class="cls-2" transform="translate(33.81 117.17) rotate(-105.02)"><tspan x="0" y="0">u</tspan></text>
    <text class="cls-2" transform="translate(33.36 115.49) rotate(-103.22)"><tspan x="0" y="0">m</tspan></text>
    <text class="cls-2" transform="translate(32.78 113.03) rotate(-101.55)"><tspan x="0" y="0">L</tspan></text>
    <text class="cls-2" transform="translate(32.5 111.66) rotate(-100.16)"><tspan x="0" y="0">o</tspan></text>
    <text class="cls-2" transform="translate(32.17 109.79) rotate(-98.86)"><tspan x="0" y="0">r</tspan></text>
    <text class="cls-2" transform="translate(31.99 108.64) rotate(-97.64)"><tspan x="0" y="0">e</tspan></text>
    <text class="cls-2" transform="translate(31.75 106.89) rotate(-95.82)"><tspan x="0" y="0">m</tspan></text>
    <text class="cls-2" transform="translate(31.5 104.41) rotate(-94.37)"><tspan x="0" y="0"> </tspan></text>
    <text class="cls-2" transform="translate(31.43 103.43) rotate(-93.56)"><tspan x="0" y="0">I</tspan></text>
    <text class="cls-2" transform="translate(31.37 102.5) rotate(-92.36)"><tspan x="0" y="0">p</tspan></text>
    <text class="cls-2" transform="translate(31.29 100.59) rotate(-91.02)"><tspan x="0" y="0">s</tspan></text>
    <text class="cls-2" transform="translate(31.26 99.3) rotate(-89.73)"><tspan x="0" y="0">u</tspan></text>
    <text class="cls-2" transform="translate(31.27 97.59) rotate(-87.96)"><tspan x="0" y="0">m</tspan></text>
    <text class="cls-2" transform="translate(31.37 95.05) rotate(-86.28)"><tspan x="0" y="0">L</tspan></text>
    <text class="cls-2" transform="translate(31.45 93.66) rotate(-84.88)"><tspan x="0" y="0">o</tspan></text>
    <text class="cls-2" transform="translate(31.63 91.75) rotate(-83.57)"><tspan x="0" y="0">r</tspan></text>
    <text class="cls-2" transform="translate(31.75 90.62) rotate(-82.36)"><tspan x="0" y="0">e</tspan></text>
    <text class="cls-2" transform="translate(31.98 88.88) rotate(-80.54)"><tspan x="0" y="0">m</tspan></text>
    <text class="cls-2" transform="translate(32.4 86.41) rotate(-79.06)"><tspan x="0" y="0"> </tspan></text>
    <text class="cls-2" transform="translate(32.59 85.43) rotate(-78.24)"><tspan x="0" y="0">I</tspan></text>
    <text class="cls-2" transform="translate(32.78 84.5) rotate(-77.02)"><tspan x="0" y="0">p</tspan></text>
    <text class="cls-2" transform="translate(33.21 82.65) rotate(-75.66)"><tspan x="0" y="0">s</tspan></text>
    <text class="cls-2" transform="translate(33.52 81.43) rotate(-74.39)"><tspan x="0" y="0">u</tspan></text>
    <text class="cls-2" transform="translate(33.98 79.75) rotate(-72.56)"><tspan x="0" y="0">m</tspan></text>
    <text class="cls-2" transform="translate(34.74 77.35) rotate(-70.89)"><tspan x="0" y="0">L</tspan></text>
    <text class="cls-2" transform="translate(35.2 76.02) rotate(-69.47)"><tspan x="0" y="0">o</tspan></text>
    <text class="cls-2" transform="translate(35.87 74.25) rotate(-68.16)"><tspan x="0" y="0">r</tspan></text>
    <text class="cls-2" transform="translate(36.3 73.16) rotate(-66.91)"><tspan x="0" y="0">e</tspan></text>
    <text class="cls-2" transform="translate(36.98 71.54) rotate(-65.08)"><tspan x="0" y="0">m</tspan></text>
    <text class="cls-2" transform="translate(38.04 69.28) rotate(-63.61)"><tspan x="0" y="0"> </tspan></text>
    <text class="cls-2" transform="translate(38.49 68.39) rotate(-62.78)"><tspan x="0" y="0">I</tspan></text>
    <text class="cls-2" transform="translate(38.9 67.58) rotate(-61.59)"><tspan x="0" y="0">p</tspan></text>
    <text class="cls-2" transform="translate(39.82 65.89) rotate(-60.21)"><tspan x="0" y="0">s</tspan></text>
    <text class="cls-2" transform="translate(40.46 64.77) rotate(-58.93)"><tspan x="0" y="0">u</tspan></text>
    <text class="cls-2" transform="translate(41.33 63.3) rotate(-57.14)"><tspan x="0" y="0">m</tspan></text>
    <text class="cls-2" transform="translate(42.7 61.19) rotate(-55.49)"><tspan x="0" y="0">L</tspan></text>
    <text class="cls-2" transform="translate(43.51 60.02) rotate(-54.09)"><tspan x="0" y="0">o</tspan></text>
    <text class="cls-2" transform="translate(44.61 58.49) rotate(-52.82)"><tspan x="0" y="0">r</tspan></text>
    <text class="cls-2" transform="translate(45.34 57.56) rotate(-52.48)"><tspan x="0" y="0">e</tspan></text>
    <text class="cls-2" transform="translate(46.4 56.18) rotate(-49.83)"><tspan x="0" y="0">m</tspan></text>
    <text class="cls-2" transform="translate(48.04 54.25) rotate(-48.35)"><tspan x="0" y="0"> </tspan></text>
    <text class="cls-2" transform="translate(48.68 53.53) rotate(-47.56)"><tspan x="0" y="0">I</tspan></text>
    <text class="cls-2" transform="translate(49.31 52.84) rotate(-46.36)"><tspan x="0" y="0">p</tspan></text>
    <text class="cls-2" transform="translate(50.63 51.46) rotate(-45.01)"><tspan x="0" y="0">s</tspan></text>
    <text class="cls-2" transform="translate(51.53 50.56) rotate(-43.74)"><tspan x="0" y="0">u</tspan></text>
    <text class="cls-2" transform="translate(52.77 49.36) rotate(-41.94)"><tspan x="0" y="0">m</tspan></text>
    <text class="cls-2" transform="translate(54.66 47.67) rotate(-40.43)"><tspan x="0" y="0"> </tspan></text>
    <text class="cls-2" transform="translate(55.4 47.04) rotate(-39.43)"><tspan x="0" y="0">L</tspan></text>
    <text class="cls-2" transform="translate(56.48 46.15) rotate(-38.01)"><tspan x="0" y="0">o</tspan></text>
    <text class="cls-2" transform="translate(57.98 44.98) rotate(-36.7)"><tspan x="0" y="0">r</tspan></text>
    <text class="cls-2" transform="translate(58.92 44.28) rotate(-35.45)"><tspan x="0" y="0">e</tspan></text>
    <text class="cls-2" transform="translate(60.34 43.26) rotate(-33.63)"><tspan x="0" y="0">m</tspan></text>
    <text class="cls-2" transform="translate(62.43 41.88) rotate(-32.15)"><tspan x="0" y="0"> </tspan></text>
    <text class="cls-2" transform="translate(63.28 41.35) rotate(-31.31)"><tspan x="0" y="0">I</tspan></text>
    <text class="cls-2" transform="translate(64.07 40.86) rotate(-30.1)"><tspan x="0" y="0">p</tspan></text>
    <text class="cls-2" transform="translate(65.7 39.92) rotate(-28.75)"><tspan x="0" y="0">s</tspan></text>
    <text class="cls-2" transform="translate(66.83 39.3) rotate(-27.46)"><tspan x="0" y="0">u</tspan></text>
    <text class="cls-2" transform="translate(68.36 38.49) rotate(-25.65)"><tspan x="0" y="0">m</tspan></text>
    <text class="cls-2" transform="translate(70.63 37.42) rotate(-24.17)"><tspan x="0" y="0"> </tspan></text>
    <text class="cls-2" transform="translate(71.53 37.01) rotate(-23.15)"><tspan x="0" y="0">L</tspan></text>
    <text class="cls-2" transform="translate(72.82 36.45) rotate(-21.74)"><tspan x="0" y="0">o</tspan></text>
    <text class="cls-2" transform="translate(74.6 35.75) rotate(-20.42)"><tspan x="0" y="0">r</tspan></text>
    <text class="cls-2" transform="translate(75.69 35.34) rotate(-19.19)"><tspan x="0" y="0">e</tspan></text>
    <text class="cls-2" transform="translate(77.34 34.76) rotate(-17.38)"><tspan x="0" y="0">m</tspan></text>
    <text class="cls-2" transform="translate(79.73 34.02) rotate(-15.92)"><tspan x="0" y="0"> </tspan></text>
    <text class="cls-2" transform="translate(80.68 33.75) rotate(-15.1)"><tspan x="0" y="0">I</tspan></text>
    <text class="cls-2" transform="translate(81.57 33.5) rotate(-13.9)"><tspan x="0" y="0">p</tspan></text>
    <text class="cls-2" transform="translate(83.43 33.05) rotate(-12.55)"><tspan x="0" y="0">s</tspan></text>
    <text class="cls-2" transform="translate(84.67 32.77) rotate(-11.29)"><tspan x="0" y="0">u</tspan></text>
    <text class="cls-2" transform="translate(86.37 32.42) rotate(-9.5)"><tspan x="0" y="0">m</tspan></text>
    <text class="cls-2" transform="translate(88.85 32.02) rotate(-8.02)"><tspan x="0" y="0"> </tspan></text>
    <text class="cls-2" transform="translate(89.82 31.88) rotate(-7.02)"><tspan x="0" y="0">L</tspan></text>
    <text class="cls-2" transform="translate(91.22 31.7) rotate(-5.61)"><tspan x="0" y="0">o</tspan></text>
    <text class="cls-2" transform="translate(93.12 31.52) rotate(-4.31)"><tspan x="0" y="0">r</tspan></text>
    <text class="cls-2" transform="translate(94.27 31.43) rotate(-3.09)"><tspan x="0" y="0">e</tspan></text>
    <text class="cls-2" transform="translate(96.02 31.33) rotate(-1.29)"><tspan x="0" y="0">m</tspan></text>
    <text class="cls-2" transform="translate(98.54 31.28) rotate(.18)"><tspan x="0" y="0"> </tspan></text>
    <text class="cls-2" transform="translate(99.52 31.29) rotate(.99)"><tspan x="0" y="0">I</tspan></text>
    <text class="cls-2" transform="translate(100.45 31.3) rotate(2.2)"><tspan x="0" y="0">p</tspan></text>
    <text class="cls-2" transform="translate(102.36 31.37) rotate(3.55)"><tspan x="0" y="0">s</tspan></text>
    <text class="cls-2" transform="translate(103.63 31.45) rotate(4.82)"><tspan x="0" y="0">u</tspan></text>
    <text class="cls-2" transform="translate(105.34 31.59) rotate(6.61)"><tspan x="0" y="0">m</tspan></text>
    <text class="cls-2" transform="translate(107.84 31.88) rotate(8.27)"><tspan x="0" y="0">L</tspan></text>
    <text class="cls-2" transform="translate(109.23 32.08) rotate(9.68)"><tspan x="0" y="0">o</tspan></text>
    <text class="cls-2" transform="translate(111.12 32.41) rotate(11)"><tspan x="0" y="0">r</tspan></text>
    <text class="cls-2" transform="translate(112.27 32.63) rotate(12.24)"><tspan x="0" y="0">e</tspan></text>
    <text class="cls-2" transform="translate(113.98 32.99) rotate(14.06)"><tspan x="0" y="0">m</tspan></text>
    <text class="cls-2" transform="translate(116.42 33.61) rotate(15.55)"><tspan x="0" y="0"> </tspan></text>
    <text class="cls-2" transform="translate(117.36 33.87) rotate(16.36)"><tspan x="0" y="0">I</tspan></text>
    <text class="cls-2" transform="translate(118.25 34.13) rotate(17.57)"><tspan x="0" y="0">p</tspan></text>
    <text class="cls-2" transform="translate(120.07 34.71) rotate(18.94)"><tspan x="0" y="0">s</tspan></text>
    <text class="cls-2" transform="translate(121.28 35.12) rotate(20.22)"><tspan x="0" y="0">u</tspan></text>
    <text class="cls-1" transform="translate(122.9 35.71) rotate(22.08)"><tspan x="0" y="0">m</tspan></text>
    <text class="cls-1" transform="translate(125.34 36.71) rotate(23.78)"><tspan x="0" y="0">L</tspan></text>
    <text class="cls-1" transform="translate(126.56 37.24) rotate(25.09)"><tspan x="0" y="0">o</tspan></text>
    <text class="cls-1" transform="translate(128.14 37.99) rotate(26.37)"><tspan x="0" y="0">r</tspan></text>
    <text class="cls-1" transform="translate(129.26 38.54) rotate(27.65)"><tspan x="0" y="0">e</tspan></text>
    <text class="cls-1" transform="translate(130.8 39.34) rotate(29.52)"><tspan x="0" y="0">m</tspan></text>
    <text class="cls-1" transform="translate(133.08 40.64) rotate(31.03)"><tspan x="0" y="0"> </tspan></text>
    <text class="cls-1" transform="translate(133.89 41.13) rotate(31.84)"><tspan x="0" y="0">I</tspan></text>
    <text class="cls-1" transform="translate(134.73 41.65) rotate(33.01)"><tspan x="0" y="0">p</tspan></text>
    <text class="cls-1" transform="translate(136.23 42.63) rotate(34.37)"><tspan x="0" y="0">s</tspan></text>
    <text class="cls-1" transform="translate(137.39 43.41) rotate(35.71)"><tspan x="0" y="0">u</tspan></text>
    <text class="cls-1" transform="translate(138.86 44.46) rotate(37.52)"><tspan x="0" y="0">m</tspan></text>
    <text class="cls-1" transform="translate(140.93 46.06) rotate(39.38)"><tspan x="0" y="0"> </tspan></text>
    <text class="cls-1" transform="translate(141.69 46.68) rotate(39.86)"><tspan x="0" y="0"> </tspan></text>
    <text class="cls-1" transform="translate(142.41 47.29) rotate(40.65)"><tspan x="0" y="0"> </tspan></text>
    <text class="cls-1" transform="translate(143.14 47.91) rotate(41.6)"><tspan x="0" y="0">L</tspan></text>
    <text class="cls-2" transform="translate(144.11 48.77) rotate(42.64)"><tspan x="0" y="0">r</tspan></text>
    <text class="cls-2" transform="translate(144.99 49.58) rotate(43.89)"><tspan x="0" y="0">e</tspan></text>
    <text class="cls-2" transform="translate(146.24 50.77) rotate(45.67)"><tspan x="0" y="0">m</tspan></text>
    <text class="cls-2" transform="translate(148 52.58) rotate(47.16)"><tspan x="0" y="0"> </tspan></text>
    <text class="cls-2" transform="translate(148.66 53.3) rotate(48.08)"><tspan x="0" y="0">r</tspan></text>
    <text class="cls-2" transform="translate(149.44 54.16) rotate(49.32)"><tspan x="0" y="0">e</tspan></text>
    <text class="cls-2" transform="translate(150.59 55.49) rotate(51.13)"><tspan x="0" y="0">m</tspan></text>
    <text class="cls-2" transform="translate(152.16 57.46) rotate(52.63)"><tspan x="0" y="0"> </tspan></text>
    <text class="cls-2" transform="translate(152.76 58.23) rotate(53.82)"><tspan x="0" y="0">E</tspan></text>
    <text class="cls-2" transform="translate(153.81 59.68) rotate(55.33)"><tspan x="0" y="0">n</tspan></text>
    <text class="cls-2" transform="translate(154.8 61.1) rotate(56.88)"><tspan x="0" y="0">d</tspan></text>
  </g>
</svg>