<?xml version="1.0" encoding="UTF-8"?>
<svg id="Layer_2" data-name="Layer 2" xmlns="http://www.w3.org/2000/svg" viewBox="0 0 287.42 287.41">
  <defs>
    <style>
      .cls-1 {
        font-family: Futura-Medium, Futura;
        font-weight: 500;
      }

      .cls-1, .cls-2 {
        fill: #231f20;
        font-size: 4.6px;
      }

      .cls-2 {
        font-family: Futura-CondensedExtraBold, Futura;
        font-weight: 700;
      }
    </style>
  </defs>
  <g id="Layer_28" data-name="Layer 28">
    <text class="cls-1" transform="translate(122.86 25.52) rotate(-9.07)"><tspan x="0" y="0">S</tspan></text>
    <text class="cls-1" transform="translate(125.51 25.09) rotate(-8.21)"><tspan x="0" y="0">k</tspan></text>
    <text class="cls-1" transform="translate(127.76 24.77) rotate(-7.4)"><tspan x="0" y="0">i</tspan></text>
    <text class="cls-1" transform="translate(128.87 24.62) rotate(-6.55)"><tspan x="0" y="0">n</tspan></text>
    <text class="cls-1" transform="translate(131.38 24.33) rotate(-5.51)"><tspan x="0" y="0">s</tspan></text>
    <text class="cls-1" transform="translate(133.21 24.16) rotate(-4.74)"><tspan x="0" y="0">,</tspan></text>
    <text class="cls-1" transform="translate(134.64 24.04) rotate(-4.07)"><tspan x="0" y="0"> </tspan></text>
    <text class="cls-1" transform="translate(136.02 23.93) rotate(-2.94)"><tspan x="0" y="0">H</tspan></text>
    <text class="cls-1" transform="translate(139.38 23.76) rotate(-1.54)"><tspan x="0" y="0">u</tspan></text>
    <text class="cls-1" transform="translate(141.87 23.7) rotate(-.5)"><tspan x="0" y="0">s</tspan></text>
    <text class="cls-1" transform="translate(143.72 23.68) rotate(.49)"><tspan x="0" y="0">k</tspan></text>
    <text class="cls-1" transform="translate(145.99 23.7) rotate(1.47)"><tspan x="0" y="0">s</tspan></text>
    <text class="cls-1" transform="translate(147.85 23.75) rotate(2.26)"><tspan x="0" y="0">,</tspan></text>
    <text class="cls-1" transform="translate(149.27 23.81) rotate(2.94)"><tspan x="0" y="0"> </tspan></text>
    <text class="cls-1" transform="translate(150.66 23.87) rotate(3.91)"><tspan x="0" y="0">S</tspan></text>
    <text class="cls-1" transform="translate(153.33 24.06) rotate(5.16)"><tspan x="0" y="0">h</tspan></text>
    <text class="cls-1" transform="translate(155.8 24.28) rotate(6.37)"><tspan x="0" y="0">e</tspan></text>
    <text class="cls-1" transform="translate(158.33 24.57) rotate(7.25)"><tspan x="0" y="0">l</tspan></text>
    <text class="cls-1" transform="translate(159.48 24.71) rotate(7.81)"><tspan x="0" y="0">l</tspan></text>
    <text class="cls-1" transform="translate(160.58 24.86) rotate(8.52)"><tspan x="0" y="0">s</tspan></text>
    <text class="cls-1" transform="translate(162.44 25.14) rotate(9.31)"><tspan x="0" y="0">,</tspan></text>
    <text class="cls-1" transform="translate(163.82 25.37) rotate(9.99)"><tspan x="0" y="0"> </tspan></text>
    <text class="cls-1" transform="translate(165.19 25.6) rotate(10.97)"><tspan x="0" y="0">B</tspan></text>
    <text class="cls-1" transform="translate(167.86 26.12) rotate(12.29)"><tspan x="0" y="0">o</tspan></text>
    <text class="cls-1" transform="translate(170.54 26.71) rotate(13.35)"><tspan x="0" y="0">r</tspan></text>
    <text class="cls-1" transform="translate(172.16 27.09) rotate(14.4)"><tspan x="0" y="0">d</tspan></text>
    <text class="cls-1" transform="translate(174.82 27.78) rotate(15.67)"><tspan x="0" y="0">e</tspan></text>
    <text class="cls-1" transform="translate(177.26 28.46) rotate(16.69)"><tspan x="0" y="0">r</tspan></text>
    <text class="cls-1" transform="translate(178.88 28.95) rotate(17.53)"><tspan x="0" y="0">s</tspan></text>
    <text class="cls-1" transform="translate(180.65 29.51) rotate(18.32)"><tspan x="0" y="0">,</tspan></text>
    <text class="cls-1" transform="translate(182.01 29.96) rotate(19)"><tspan x="0" y="0"> </tspan></text>
    <text class="cls-1" transform="translate(183.35 30.41) rotate(19.98)"><tspan x="0" y="0">B</tspan></text>
    <text class="cls-1" transform="translate(185.88 31.33) rotate(21.28)"><tspan x="0" y="0">o</tspan></text>
    <text class="cls-1" transform="translate(188.44 32.33) rotate(22.53)"><tspan x="0" y="0">u</tspan></text>
    <text class="cls-1" transform="translate(190.73 33.28) rotate(23.72)"><tspan x="0" y="0">n</tspan></text>
    <text class="cls-1" transform="translate(193.02 34.29) rotate(24.97)"><tspan x="0" y="0">d</tspan></text>
    <text class="cls-1" transform="translate(195.51 35.45) rotate(26.28)"><tspan x="0" y="0">a</tspan></text>
    <text class="cls-1" transform="translate(197.95 36.66) rotate(27.33)"><tspan x="0" y="0">r</tspan></text>
    <text class="cls-1" transform="translate(199.55 37.48) rotate(28.04)"><tspan x="0" y="0">i</tspan></text>
    <text class="cls-1" transform="translate(200.55 38.01) rotate(28.91)"><tspan x="0" y="0">e</tspan></text>
    <text class="cls-1" transform="translate(202.77 39.24) rotate(29.96)"><tspan x="0" y="0">s</tspan></text>
    <text class="cls-1" transform="translate(204.37 40.16) rotate(30.73)"><tspan x="0" y="0">,</tspan></text>
    <text class="cls-1" transform="translate(205.59 40.89) rotate(31.4)"><tspan x="0" y="0"> </tspan></text>
    <text class="cls-1" transform="translate(206.79 41.61) rotate(32.52)"><tspan x="0" y="0">D</tspan></text>
    <text class="cls-1" transform="translate(209.59 43.4) rotate(33.91)"><tspan x="0" y="0">e</tspan></text>
    <text class="cls-1" transform="translate(211.68 44.81) rotate(34.83)"><tspan x="0" y="0">f</tspan></text>
    <text class="cls-1" transform="translate(212.88 45.65) rotate(35.47)"><tspan x="0" y="0">i</tspan></text>
    <text class="cls-1" transform="translate(213.8 46.3) rotate(36.33)"><tspan x="0" y="0">n</tspan></text>
    <text class="cls-1" transform="translate(215.82 47.79) rotate(37.2)"><tspan x="0" y="0">i</tspan></text>
    <text class="cls-1" transform="translate(216.73 48.48) rotate(37.76)"><tspan x="0" y="0">t</tspan></text>
    <text class="cls-1" transform="translate(217.72 49.24) rotate(38.33)"><tspan x="0" y="0">i</tspan></text>
    <text class="cls-1" transform="translate(218.6 49.94) rotate(39.25)"><tspan x="0" y="0">o</tspan></text>
    <text class="cls-1" transform="translate(220.74 51.68) rotate(40.5)"><tspan x="0" y="0">n</tspan></text>
    <text class="cls-1" transform="translate(222.65 53.31) rotate(41.54)"><tspan x="0" y="0">s</tspan></text>
    <text class="cls-1" transform="translate(224.03 54.54) rotate(42.31)"><tspan x="0" y="0">,</tspan></text>
    <text class="cls-1" transform="translate(225.08 55.49) rotate(42.98)"><tspan x="0" y="0"> </tspan></text>
    <text class="cls-1" transform="translate(226.11 56.46) rotate(43.94)"><tspan x="0" y="0">E</tspan></text>
    <text class="cls-1" transform="translate(227.98 58.25) rotate(45.16)"><tspan x="0" y="0">x</tspan></text>
    <text class="cls-1" transform="translate(229.77 60.06) rotate(46.06)"><tspan x="0" y="0">t</tspan></text>
    <text class="cls-1" transform="translate(230.66 60.98) rotate(46.98)"><tspan x="0" y="0">e</tspan></text>
    <text class="cls-1" transform="translate(232.39 62.84) rotate(47.99)"><tspan x="0" y="0">r</tspan></text>
    <text class="cls-1" transform="translate(233.58 64.16) rotate(48.71)"><tspan x="0" y="0">i</tspan></text>
    <text class="cls-1" transform="translate(234.32 64.99) rotate(49.62)"><tspan x="0" y="0">o</tspan></text>
    <text class="cls-1" transform="translate(236.1 67.1) rotate(50.7)"><tspan x="0" y="0">r</tspan></text>
    <text class="cls-1" transform="translate(237.19 68.43) rotate(51.55)"><tspan x="0" y="0">s</tspan></text>
    <text class="cls-1" transform="translate(238.35 69.88) rotate(52.33)"><tspan x="0" y="0">,</tspan></text>
    <text class="cls-1" transform="translate(239.21 71) rotate(53.01)"><tspan x="0" y="0"> </tspan></text>
    <text class="cls-1" transform="translate(240.05 72.11) rotate(54.11)"><tspan x="0" y="0">C</tspan></text>
    <text class="cls-1" transform="translate(241.93 74.71) rotate(55.54)"><tspan x="0" y="0">o</tspan></text>
    <text class="cls-1" transform="translate(243.48 76.97) rotate(56.8)"><tspan x="0" y="0">n</tspan></text>
    <text class="cls-1" transform="translate(244.85 79.07) rotate(57.7)"><tspan x="0" y="0">t</tspan></text>
    <text class="cls-1" transform="translate(245.55 80.16) rotate(58.68)"><tspan x="0" y="0">a</tspan></text>
    <text class="cls-1" transform="translate(246.96 82.49) rotate(59.6)"><tspan x="0" y="0">i</tspan></text>
    <text class="cls-1" transform="translate(247.55 83.48) rotate(60.48)"><tspan x="0" y="0">n</tspan></text>
    <text class="cls-1" transform="translate(248.78 85.67) rotate(61.7)"><tspan x="0" y="0">e</tspan></text>
    <text class="cls-1" transform="translate(249.98 87.9) rotate(62.72)"><tspan x="0" y="0">r</tspan></text>
    <text class="cls-1" transform="translate(250.76 89.41) rotate(63.58)"><tspan x="0" y="0">s</tspan></text>
    <text class="cls-1" transform="translate(251.59 91.08) rotate(64.37)"><tspan x="0" y="0">,</tspan></text>
    <text class="cls-1" transform="translate(252.19 92.34) rotate(65.04)"><tspan x="0" y="0"> </tspan></text>
    <text class="cls-1" transform="translate(252.8 93.62) rotate(66.15)"><tspan x="0" y="0">C</tspan></text>
    <text class="cls-1" transform="translate(254.09 96.55) rotate(67.19)"><tspan x="0" y="0">l</tspan></text>
    <text class="cls-1" transform="translate(254.53 97.58) rotate(68.12)"><tspan x="0" y="0">o</tspan></text>
    <text class="cls-1" transform="translate(255.56 100.17) rotate(69.1)"><tspan x="0" y="0">t</tspan></text>
    <text class="cls-1" transform="translate(256.04 101.42) rotate(70.04)"><tspan x="0" y="0">h</tspan></text>
    <text class="cls-1" transform="translate(256.89 103.77) rotate(70.91)"><tspan x="0" y="0">i</tspan></text>
    <text class="cls-1" transform="translate(257.27 104.85) rotate(71.78)"><tspan x="0" y="0">n</tspan></text>
    <text class="cls-1" transform="translate(258.05 107.23) rotate(73.04)"><tspan x="0" y="0">g</tspan></text>
    <text class="cls-1" transform="translate(258.84 109.85) rotate(74.02)"><tspan x="0" y="0">,</tspan></text>
    <text class="cls-1" transform="translate(259.24 111.22) rotate(74.7)"><tspan x="0" y="0"> </tspan></text>
    <text class="cls-1" transform="translate(259.61 112.57) rotate(75.67)"><tspan x="0" y="0">B</tspan></text>
    <text class="cls-1" transform="translate(260.28 115.19) rotate(76.96)"><tspan x="0" y="0">a</tspan></text>
    <text class="cls-1" transform="translate(260.9 117.85) rotate(78)"><tspan x="0" y="0">r</tspan></text>
    <text class="cls-1" transform="translate(261.27 119.6) rotate(78.84)"><tspan x="0" y="0">r</tspan></text>
    <text class="cls-1" transform="translate(261.61 121.35) rotate(79.07)"><tspan x="0" y="0">i</tspan></text>
    <text class="cls-1" transform="translate(261.83 122.45) rotate(80.93)"><tspan x="0" y="0">e</tspan></text>
    <text class="cls-1" transform="translate(262.24 124.96) rotate(81.4)"><tspan x="0" y="0">r</tspan></text>
    <text class="cls-1" transform="translate(262.49 126.65) rotate(82.23)"><tspan x="0" y="0">s</tspan></text>
    <text class="cls-1" transform="translate(262.74 128.46) rotate(82.99)"><tspan x="0" y="0">,</tspan></text>
    <text class="cls-1" transform="translate(262.92 129.89) rotate(83.67)"><tspan x="0" y="0"> </tspan></text>
    <text class="cls-1" transform="translate(263.09 131.25) rotate(85.14)"><tspan x="0" y="0">W</tspan></text>
    <text class="cls-1" transform="translate(263.47 135.9) rotate(86.61)"><tspan x="0" y="0">r</tspan></text>
    <text class="cls-1" transform="translate(263.57 137.58) rotate(87.66)"><tspan x="0" y="0">a</tspan></text>
    <text class="cls-1" transform="translate(263.68 140.32) rotate(88.97)"><tspan x="0" y="0">p</tspan></text>
    <text class="cls-1" transform="translate(263.73 143.06) rotate(90.29)"><tspan x="0" y="0">p</tspan></text>
    <text class="cls-1" transform="translate(263.72 145.79) rotate(91.54)"><tspan x="0" y="0">e</tspan></text>
    <text class="cls-1" transform="translate(263.65 148.32) rotate(92.56)"><tspan x="0" y="0">r</tspan></text>
    <text class="cls-1" transform="translate(263.57 150.04) rotate(93.42)"><tspan x="0" y="0">s</tspan></text>
    <text class="cls-1" transform="translate(263.46 151.89) rotate(94.21)"><tspan x="0" y="0">,</tspan></text>
    <text class="cls-1" transform="translate(263.36 153.27) rotate(94.88)"><tspan x="0" y="0"> </tspan></text>
    <text class="cls-1" transform="translate(263.25 154.68) rotate(95.99)"><tspan x="0" y="0">C</tspan></text>
    <text class="cls-1" transform="translate(262.91 157.87) rotate(97.42)"><tspan x="0" y="0">o</tspan></text>
    <text class="cls-1" transform="translate(262.56 160.52) rotate(98.6)"><tspan x="0" y="0">v</tspan></text>
    <text class="cls-1" transform="translate(262.24 162.7) rotate(99.71)"><tspan x="0" y="0">e</tspan></text>
    <text class="cls-1" transform="translate(261.8 165.2) rotate(100.74)"><tspan x="0" y="0">r</tspan></text>
    <text class="cls-1" transform="translate(261.47 166.95) rotate(101.46)"><tspan x="0" y="0">i</tspan></text>
    <text class="cls-1" transform="translate(261.25 168.07) rotate(102.34)"><tspan x="0" y="0">n</tspan></text>
    <text class="cls-1" transform="translate(260.72 170.5) rotate(103.59)"><tspan x="0" y="0">g</tspan></text>
    <text class="cls-1" transform="translate(260.07 173.17) rotate(104.69)"><tspan x="0" y="0">s</tspan></text>
    <text class="cls-1" transform="translate(259.6 174.94) rotate(105.47)"><tspan x="0" y="0">,</tspan></text>
    <text class="cls-1" transform="translate(259.23 176.3) rotate(106.14)"><tspan x="0" y="0"> </tspan></text>
    <text class="cls-1" transform="translate(258.86 177.66) rotate(107.64)"><tspan x="0" y="0">W</tspan></text>
    <text class="cls-1" transform="translate(257.45 182.04) rotate(109.34)"><tspan x="0" y="0">a</tspan></text>
    <text class="cls-1" transform="translate(256.54 184.61) rotate(110.26)"><tspan x="0" y="0">l</tspan></text>
    <text class="cls-1" transform="translate(256.14 185.7) rotate(110.81)"><tspan x="0" y="0">l</tspan></text>
    <text class="cls-1" transform="translate(255.74 186.76) rotate(111.52)"><tspan x="0" y="0">s</tspan></text>
    <text class="cls-1" transform="translate(255.06 188.48) rotate(112.3)"><tspan x="0" y="0">,</tspan></text>
    <text class="cls-1" transform="translate(254.53 189.77) rotate(112.97)"><tspan x="0" y="0"> </tspan></text>
    <text class="cls-1" transform="translate(253.98 191.08) rotate(113.86)"><tspan x="0" y="0">F</tspan></text>
    <text class="cls-1" transform="translate(253.06 193.17) rotate(115)"><tspan x="0" y="0">e</tspan></text>
    <text class="cls-1" transform="translate(251.99 195.45) rotate(116.19)"><tspan x="0" y="0">n</tspan></text>
    <text class="cls-1" transform="translate(250.89 197.7) rotate(117.31)"><tspan x="0" y="0">c</tspan></text>
    <text class="cls-1" transform="translate(249.88 199.65) rotate(118.43)"><tspan x="0" y="0">e</tspan></text>
    <text class="cls-1" transform="translate(248.68 201.87) rotate(119.47)"><tspan x="0" y="0">s</tspan></text>
    <text class="cls-1" transform="translate(247.76 203.49) rotate(120.25)"><tspan x="0" y="0">,</tspan></text>
    <text class="cls-1" transform="translate(247.05 204.71) rotate(120.92)"><tspan x="0" y="0"> </tspan></text>
    <text class="cls-1" transform="translate(246.33 205.91) rotate(121.88)"><tspan x="0" y="0">S</tspan></text>
    <text class="cls-1" transform="translate(244.92 208.18) rotate(123.11)"><tspan x="0" y="0">h</tspan></text>
    <text class="cls-1" transform="translate(243.55 210.28) rotate(124.31)"><tspan x="0" y="0">e</tspan></text>
    <text class="cls-1" transform="translate(242.14 212.36) rotate(125.5)"><tspan x="0" y="0">e</tspan></text>
    <text class="cls-1" transform="translate(240.67 214.42) rotate(126.7)"><tspan x="0" y="0">n</tspan></text>
    <text class="cls-1" transform="translate(239.16 216.43) rotate(127.63)"><tspan x="0" y="0">,</tspan></text>
    <text class="cls-1" transform="translate(238.3 217.55) rotate(128.3)"><tspan x="0" y="0"> </tspan></text>
    <text class="cls-1" transform="translate(237.43 218.66) rotate(129.22)"><tspan x="0" y="0">P</tspan></text>
    <text class="cls-1" transform="translate(235.75 220.7) rotate(130.16)"><tspan x="0" y="0">l</tspan></text>
    <text class="cls-1" transform="translate(235.01 221.59) rotate(131.09)"><tspan x="0" y="0">a</tspan></text>
    <text class="cls-1" transform="translate(233.21 223.65) rotate(132.18)"><tspan x="0" y="0">s</tspan></text>
    <text class="cls-1" transform="translate(231.97 225.01) rotate(132.91)"><tspan x="0" y="0">t</tspan></text>
    <text class="cls-1" transform="translate(231.09 225.96) rotate(133.83)"><tspan x="0" y="0">e</tspan></text>
    <text class="cls-1" transform="translate(229.34 227.79) rotate(134.84)"><tspan x="0" y="0">r</tspan></text>
    <text class="cls-1" transform="translate(228.26 228.87) rotate(135.5)"><tspan x="0" y="0">,</tspan></text>
    <text class="cls-1" transform="translate(227.26 229.85) rotate(136.16)"><tspan x="0" y="0"> </tspan></text>
    <text class="cls-1" transform="translate(226.26 230.84) rotate(137.48)"><tspan x="0" y="0">O</tspan></text>
    <text class="cls-1" transform="translate(223.23 233.59) rotate(138.86)"><tspan x="0" y="0">r</tspan></text>
    <text class="cls-1" transform="translate(221.9 234.76) rotate(139.9)"><tspan x="0" y="0">n</tspan></text>
    <text class="cls-1" transform="translate(219.98 236.38) rotate(141.15)"><tspan x="0" y="0">a</tspan></text>
    <text class="cls-1" transform="translate(217.85 238.1) rotate(142.67)"><tspan x="0" y="0">m</tspan></text>
    <text class="cls-1" transform="translate(214.98 240.29) rotate(144.14)"><tspan x="0" y="0">e</tspan></text>
    <text class="cls-1" transform="translate(212.92 241.77) rotate(145.36)"><tspan x="0" y="0">n</tspan></text>
    <text class="cls-1" transform="translate(210.86 243.19) rotate(146.25)"><tspan x="0" y="0">t</tspan></text>
    <text class="cls-1" transform="translate(209.81 243.9) rotate(146.9)"><tspan x="0" y="0">,</tspan></text>
    <text class="cls-1" transform="translate(208.64 244.65) rotate(147.57)"><tspan x="0" y="0"> </tspan></text>
    <text class="cls-1" transform="translate(207.45 245.42) rotate(148.5)"><tspan x="0" y="0">P</tspan></text>
    <text class="cls-1" transform="translate(205.46 246.64) rotate(149.69)"><tspan x="0" y="0">o</tspan></text>
    <text class="cls-1" transform="translate(203.09 248.02) rotate(150.76)"><tspan x="0" y="0">r</tspan></text>
    <text class="cls-1" transform="translate(201.46 248.93) rotate(151.55)"><tspan x="0" y="0">t</tspan></text>
    <text class="cls-1" transform="translate(200.35 249.53) rotate(152.27)"><tspan x="0" y="0">r</tspan></text>
    <text class="cls-1" transform="translate(198.87 250.31) rotate(153.32)"><tspan x="0" y="0">a</tspan></text>
    <text class="cls-1" transform="translate(196.4 251.56) rotate(154.59)"><tspan x="0" y="0">y</tspan></text>
    <text class="cls-1" transform="translate(194.21 252.6) rotate(155.82)"><tspan x="0" y="0">a</tspan></text>
    <text class="cls-1" transform="translate(191.72 253.71) rotate(156.74)"><tspan x="0" y="0">l</tspan></text>
    <text class="cls-1" transform="translate(190.67 254.16) rotate(157.36)"><tspan x="0" y="0">,</tspan></text>
    <text class="cls-1" transform="translate(189.38 254.7) rotate(158.03)"><tspan x="0" y="0"> </tspan></text>
    <text class="cls-1" transform="translate(188.05 255.24) rotate(159.04)"><tspan x="0" y="0">R</tspan></text>
    <text class="cls-1" transform="translate(185.56 256.2) rotate(160.27)"><tspan x="0" y="0">e</tspan></text>
    <text class="cls-1" transform="translate(183.18 257.05) rotate(161.53)"><tspan x="0" y="0">p</tspan></text>
    <text class="cls-1" transform="translate(180.59 257.91) rotate(162.59)"><tspan x="0" y="0">r</tspan></text>
    <text class="cls-1" transform="translate(178.97 258.42) rotate(163.59)"><tspan x="0" y="0">e</tspan></text>
    <text class="cls-1" transform="translate(176.55 259.13) rotate(164.63)"><tspan x="0" y="0">s</tspan></text>
    <text class="cls-1" transform="translate(174.76 259.63) rotate(165.67)"><tspan x="0" y="0">e</tspan></text>
    <text class="cls-1" transform="translate(172.32 260.25) rotate(166.86)"><tspan x="0" y="0">n</tspan></text>
    <text class="cls-1" transform="translate(169.88 260.82) rotate(167.74)"><tspan x="0" y="0">t</tspan></text>
    <text class="cls-1" transform="translate(168.61 261.1) rotate(168.71)"><tspan x="0" y="0">a</tspan></text>
    <text class="cls-1" transform="translate(165.92 261.62) rotate(169.07)"><tspan x="0" y="0">t</tspan></text>
    <text class="cls-1" transform="translate(164.7 261.86) rotate(170.93)"><tspan x="0" y="0">i</tspan></text>
    <text class="cls-1" transform="translate(163.57 262.06) rotate(171.11)"><tspan x="0" y="0">o</tspan></text>
    <text class="cls-1" transform="translate(160.88 262.47) rotate(172.34)"><tspan x="0" y="0">n</tspan></text>
    <text class="cls-1" transform="translate(158.38 262.81) rotate(173.26)"><tspan x="0" y="0">,</tspan></text>
    <text class="cls-1" transform="translate(156.98 262.97) rotate(173.93)"><tspan x="0" y="0"> </tspan></text>
    <text class="cls-1" transform="translate(155.58 263.13) rotate(174.85)"><tspan x="0" y="0">P</tspan></text>
    <text class="cls-1" transform="translate(153.11 263.34) rotate(175.71)"><tspan x="0" y="0">i</tspan></text>
    <text class="cls-1" transform="translate(151.98 263.43) rotate(176.5)"><tspan x="0" y="0">c</tspan></text>
    <text class="cls-1" transform="translate(149.81 263.56) rotate(177.31)"><tspan x="0" y="0">t</tspan></text>
    <text class="cls-1" transform="translate(148.57 263.62) rotate(178.2)"><tspan x="0" y="0">u</tspan></text>
    <text class="cls-1" transform="translate(146.08 263.7) rotate(179.21)"><tspan x="0" y="0">r</tspan></text>
    <text class="cls-1" transform="translate(144.41 263.73) rotate(-179.79)"><tspan x="0" y="0">e</tspan></text>
    <text class="cls-1" transform="translate(141.85 263.71) rotate(-178.84)"><tspan x="0" y="0">,</tspan></text>
    <text class="cls-1" transform="translate(140.45 263.68) rotate(-178.17)"><tspan x="0" y="0"> </tspan></text>
    <text class="cls-1" transform="translate(139.06 263.65) rotate(-177.04)"><tspan x="0" y="0">D</tspan></text>
    <text class="cls-1" transform="translate(135.73 263.47) rotate(-175.96)"><tspan x="0" y="0">i</tspan></text>
    <text class="cls-1" transform="translate(134.62 263.39) rotate(-175.04)"><tspan x="0" y="0">a</tspan></text>
    <text class="cls-1" transform="translate(131.87 263.16) rotate(-173.71)"><tspan x="0" y="0">g</tspan></text>
    <text class="cls-1" transform="translate(129.16 262.85) rotate(-172.64)"><tspan x="0" y="0">r</tspan></text>
    <text class="cls-1" transform="translate(127.5 262.64) rotate(-171.59)"><tspan x="0" y="0">a</tspan></text>
    <text class="cls-1" transform="translate(124.78 262.25) rotate(-170.06)"><tspan x="0" y="0">m</tspan></text>
    <text class="cls-1" transform="translate(121.23 261.61) rotate(-168.85)"><tspan x="0" y="0">,</tspan></text>
    <text class="cls-1" transform="translate(119.83 261.34) rotate(-168.17)"><tspan x="0" y="0"> </tspan></text>
    <text class="cls-1" transform="translate(118.46 261.06) rotate(-167.17)"><tspan x="0" y="0">R</tspan></text>
    <text class="cls-1" transform="translate(115.78 260.44) rotate(-166.24)"><tspan x="0" y="0">i</tspan></text>
    <text class="cls-1" transform="translate(114.67 260.18) rotate(-165.36)"><tspan x="0" y="0">n</tspan></text>
    <text class="cls-1" transform="translate(112.23 259.54) rotate(-164.1)"><tspan x="0" y="0">d</tspan></text>
    <text class="cls-1" transform="translate(109.62 258.79) rotate(-163.12)"><tspan x="0" y="0">,</tspan></text>
    <text class="cls-1" transform="translate(108.25 258.37) rotate(-162.43)"><tspan x="0" y="0"> </tspan></text>
    <text class="cls-1" transform="translate(106.9 257.95) rotate(-161.44)"><tspan x="0" y="0">B</tspan></text>
    <text class="cls-1" transform="translate(104.35 257.1) rotate(-160.21)"><tspan x="0" y="0">u</tspan></text>
    <text class="cls-1" transform="translate(102.02 256.26) rotate(-159.02)"><tspan x="0" y="0">n</tspan></text>
    <text class="cls-1" transform="translate(99.68 255.36) rotate(-157.77)"><tspan x="0" y="0">d</tspan></text>
    <text class="cls-1" transform="translate(97.13 254.31) rotate(-156.84)"><tspan x="0" y="0">l</tspan></text>
    <text class="cls-1" transform="translate(96.09 253.88) rotate(-155.97)"><tspan x="0" y="0">e</tspan></text>
    <text class="cls-1" transform="translate(93.79 252.84) rotate(-155.03)"><tspan x="0" y="0">,</tspan></text>
    <text class="cls-1" transform="translate(92.5 252.24) rotate(-154.36)"><tspan x="0" y="0"> </tspan></text>
    <text class="cls-1" transform="translate(91.22 251.63) rotate(-153.4)"><tspan x="0" y="0">E</tspan></text>
    <text class="cls-1" transform="translate(88.93 250.49) rotate(-152.2)"><tspan x="0" y="0">n</tspan></text>
    <text class="cls-1" transform="translate(86.71 249.32) rotate(-151.09)"><tspan x="0" y="0">c</tspan></text>
    <text class="cls-1" transform="translate(84.79 248.26) rotate(-149.91)"><tspan x="0" y="0">a</tspan></text>
    <text class="cls-1" transform="translate(82.42 246.88) rotate(-148.82)"><tspan x="0" y="0">s</tspan></text>
    <text class="cls-1" transform="translate(80.84 245.93) rotate(-147.79)"><tspan x="0" y="0">e</tspan></text>
    <text class="cls-1" transform="translate(78.69 244.58) rotate(-146.33)"><tspan x="0" y="0">m</tspan></text>
    <text class="cls-1" transform="translate(75.7 242.58) rotate(-144.87)"><tspan x="0" y="0">e</tspan></text>
    <text class="cls-1" transform="translate(73.63 241.12) rotate(-143.68)"><tspan x="0" y="0">n</tspan></text>
    <text class="cls-1" transform="translate(71.6 239.62) rotate(-142.78)"><tspan x="0" y="0">t</tspan></text>
    <text class="cls-1" transform="translate(70.61 238.87) rotate(-142.15)"><tspan x="0" y="0">,</tspan></text>
    <text class="cls-1" transform="translate(69.49 238) rotate(-141.48)"><tspan x="0" y="0"> </tspan></text>
    <text class="cls-1" transform="translate(68.39 237.14) rotate(-140.52)"><tspan x="0" y="0">S</tspan></text>
    <text class="cls-1" transform="translate(66.33 235.44) rotate(-139.04)"><tspan x="0" y="0">w</tspan></text>
    <text class="cls-1" transform="translate(63.71 233.17) rotate(-137.59)"><tspan x="0" y="0">a</tspan></text>
    <text class="cls-1" transform="translate(61.69 231.32) rotate(-136.28)"><tspan x="0" y="0">d</tspan></text>
    <text class="cls-1" transform="translate(59.71 229.43) rotate(-134.98)"><tspan x="0" y="0">d</tspan></text>
    <text class="cls-1" transform="translate(57.78 227.48) rotate(-134.05)"><tspan x="0" y="0">l</tspan></text>
    <text class="cls-1" transform="translate(56.99 226.68) rotate(-133.18)"><tspan x="0" y="0">e</tspan></text>
    <text class="cls-1" transform="translate(55.26 224.83) rotate(-132.25)"><tspan x="0" y="0">,</tspan></text>
    <text class="cls-1" transform="translate(54.3 223.78) rotate(-131.57)"><tspan x="0" y="0"> </tspan></text>
    <text class="cls-1" transform="translate(53.36 222.73) rotate(-130.46)"><tspan x="0" y="0">C</tspan></text>
    <text class="cls-1" transform="translate(51.3 220.31) rotate(-129.06)"><tspan x="0" y="0">a</tspan></text>
    <text class="cls-1" transform="translate(49.56 218.16) rotate(-127.73)"><tspan x="0" y="0">g</tspan></text>
    <text class="cls-1" transform="translate(47.9 216.01) rotate(-126.48)"><tspan x="0" y="0">e</tspan></text>
    <text class="cls-1" transform="translate(46.39 213.97) rotate(-125.53)"><tspan x="0" y="0">,</tspan></text>
    <text class="cls-1" transform="translate(45.57 212.82) rotate(-124.86)"><tspan x="0" y="0"> </tspan></text>
    <text class="cls-1" transform="translate(44.76 211.66) rotate(-123.89)"><tspan x="0" y="0">E</tspan></text>
    <text class="cls-1" transform="translate(43.32 209.52) rotate(-122.68)"><tspan x="0" y="0">n</tspan></text>
    <text class="cls-1" transform="translate(42.01 207.47) rotate(-121.56)"><tspan x="0" y="0">v</tspan></text>
    <text class="cls-1" transform="translate(40.84 205.58) rotate(-120.43)"><tspan x="0" y="0">e</tspan></text>
    <text class="cls-1" transform="translate(39.56 203.39) rotate(-119.55)"><tspan x="0" y="0">l</tspan></text>
    <text class="cls-1" transform="translate(39.01 202.42) rotate(-118.62)"><tspan x="0" y="0">o</tspan></text>
    <text class="cls-1" transform="translate(37.69 200.01) rotate(-117.3)"><tspan x="0" y="0">p</tspan></text>
    <text class="cls-1" transform="translate(36.44 197.58) rotate(-116.04)"><tspan x="0" y="0">e</tspan></text>
    <text class="cls-1" transform="translate(35.32 195.28) rotate(-115.08)"><tspan x="0" y="0">,</tspan></text>
    <text class="cls-1" transform="translate(34.73 194.02) rotate(-114.41)"><tspan x="0" y="0"> </tspan></text>
    <text class="cls-1" transform="translate(34.14 192.74) rotate(-113.47)"><tspan x="0" y="0">P</tspan></text>
    <text class="cls-1" transform="translate(33.21 190.6) rotate(-112.28)"><tspan x="0" y="0">a</tspan></text>
    <text class="cls-1" transform="translate(32.17 188.04) rotate(-111.09)"><tspan x="0" y="0">c</tspan></text>
    <text class="cls-1" transform="translate(31.34 185.91) rotate(-109.97)"><tspan x="0" y="0">k</tspan></text>
    <text class="cls-1" transform="translate(30.59 183.85) rotate(-108.81)"><tspan x="0" y="0">a</tspan></text>
    <text class="cls-1" transform="translate(29.7 181.24) rotate(-107.49)"><tspan x="0" y="0">g</tspan></text>
    <text class="cls-1" transform="translate(28.89 178.65) rotate(-106.25)"><tspan x="0" y="0">e</tspan></text>
    <text class="cls-1" transform="translate(28.18 176.2) rotate(-105.3)"><tspan x="0" y="0">,</tspan></text>
    <text class="cls-1" transform="translate(27.81 174.86) rotate(-104.65)"><tspan x="0" y="0"> </tspan></text>
    <text class="cls-1" transform="translate(27.45 173.49) rotate(-103.7)"><tspan x="0" y="0">E</tspan></text>
    <text class="cls-1" transform="translate(26.84 170.99) rotate(-102.49)"><tspan x="0" y="0">n</tspan></text>
    <text class="cls-1" transform="translate(26.29 168.52) rotate(-101.38)"><tspan x="0" y="0">c</tspan></text>
    <text class="cls-1" transform="translate(25.87 166.4) rotate(-100.93)"><tspan x="0" y="0">l</tspan></text>
    <text class="cls-1" transform="translate(25.64 165.29) rotate(-99.07)"><tspan x="0" y="0">o</tspan></text>
    <text class="cls-1" transform="translate(25.19 162.58) rotate(-98.63)"><tspan x="0" y="0">s</tspan></text>
    <text class="cls-1" transform="translate(24.91 160.73) rotate(-97.6)"><tspan x="0" y="0">u</tspan></text>
    <text class="cls-1" transform="translate(24.59 158.27) rotate(-96.61)"><tspan x="0" y="0">r</tspan></text>
    <text class="cls-1" transform="translate(24.39 156.61) rotate(-95.63)"><tspan x="0" y="0">e</tspan></text>
    <text class="cls-1" transform="translate(24.15 154.08) rotate(-94.69)"><tspan x="0" y="0">,</tspan></text>
    <text class="cls-1" transform="translate(24.03 152.68) rotate(-94.02)"><tspan x="0" y="0"> </tspan></text>
    <text class="cls-2" transform="translate(23.93 151.29) rotate(-93.03)"><tspan x="0" y="0">D</tspan></text>
    <text class="cls-2" transform="translate(23.78 148.5) rotate(-91.76)"><tspan x="0" y="0">e</tspan></text>
    <text class="cls-2" transform="translate(23.71 146.03) rotate(-90.86)"><tspan x="0" y="0">l</tspan></text>
    <text class="cls-2" transform="translate(23.69 144.71) rotate(-90.23)"><tspan x="0" y="0">i</tspan></text>
    <text class="cls-2" transform="translate(23.68 143.4) rotate(-89.31)"><tspan x="0" y="0">n</tspan></text>
    <text class="cls-2" transform="translate(23.71 140.86) rotate(-88.1)"><tspan x="0" y="0">e</tspan></text>
    <text class="cls-2" transform="translate(23.79 138.38) rotate(-86.89)"><tspan x="0" y="0">a</tspan></text>
    <text class="cls-2" transform="translate(23.93 135.81) rotate(-85.89)"><tspan x="0" y="0">t</tspan></text>
    <text class="cls-2" transform="translate(24.05 134.27) rotate(-85.21)"><tspan x="0" y="0">i</tspan></text>
    <text class="cls-2" transform="translate(24.15 132.96) rotate(-84.29)"><tspan x="0" y="0">o</tspan></text>
    <text class="cls-2" transform="translate(24.4 130.47) rotate(-83.08)"><tspan x="0" y="0">n</tspan></text>
    <text class="cls-2" transform="translate(24.72 127.92) rotate(-82.12)"><tspan x="0" y="0"> </tspan></text>
    <text class="cls-2" transform="translate(24.9 126.57) rotate(-81.13)"><tspan x="0" y="0">D</tspan></text>
    <text class="cls-2" transform="translate(25.32 123.84) rotate(-79.87)"><tspan x="0" y="0">e</tspan></text>
    <text class="cls-2" transform="translate(25.77 121.38) rotate(-78.95)"><tspan x="0" y="0">l</tspan></text>
    <text class="cls-2" transform="translate(26.02 120.1) rotate(-78.32)"><tspan x="0" y="0">i</tspan></text>
    <text class="cls-2" transform="translate(26.28 118.82) rotate(-77.4)"><tspan x="0" y="0">n</tspan></text>
    <text class="cls-2" transform="translate(26.83 116.35) rotate(-76.2)"><tspan x="0" y="0">e</tspan></text>
    <text class="cls-2" transform="translate(27.43 113.91) rotate(-74.97)"><tspan x="0" y="0">a</tspan></text>
    <text class="cls-2" transform="translate(28.09 111.44) rotate(-73.99)"><tspan x="0" y="0">t</tspan></text>
    <text class="cls-2" transform="translate(28.52 109.94) rotate(-73.3)"><tspan x="0" y="0">i</tspan></text>
    <text class="cls-2" transform="translate(28.89 108.7) rotate(-72.39)"><tspan x="0" y="0">o</tspan></text>
    <text class="cls-2" transform="translate(29.65 106.31) rotate(-71.18)"><tspan x="0" y="0">n</tspan></text>
    <text class="cls-2" transform="translate(30.48 103.89) rotate(-70.24)"><tspan x="0" y="0"> </tspan></text>
  </g>
</svg>