<?xml version="1.0" encoding="UTF-8"?>
<svg id="Layer_2" data-name="Layer 2" xmlns="http://www.w3.org/2000/svg" viewBox="0 0 57.13 57.12">
  <defs>
    <style>
      .cls-1 {
        font-family: Futura-CondensedExtraBold, Futura;
        font-weight: 700;
      }

      .cls-1, .cls-2 {
        fill: #231f20;
        font-size: 1.9px;
      }

      .cls-2 {
        font-family: Futura-Medium, Futura;
        font-weight: 500;
      }
    </style>
  </defs>
  <g id="Layer_1-2" data-name="Layer 1">
    <text class="cls-2" transform="translate(13.51 39.75) rotate(-125.32)"><tspan x="0" y="0">L</tspan></text>
    <text class="cls-2" transform="translate(13.04 39.09) rotate(-122.42)"><tspan x="0" y="0">a</tspan></text>
    <text class="cls-2" transform="translate(12.44 38.14) rotate(-119.17)"><tspan x="0" y="0">y</tspan></text>
    <text class="cls-2" transform="translate(11.95 37.27) rotate(-116.1)"><tspan x="0" y="0">e</tspan></text>
    <text class="cls-2" transform="translate(11.51 36.36) rotate(-113.51)"><tspan x="0" y="0">r</tspan></text>
    <text class="cls-2" transform="translate(11.23 35.72) rotate(-111.54)"><tspan x="0" y="0"> </tspan></text>
    <text class="cls-2" transform="translate(11.01 35.19) rotate(-108.87)"><tspan x="0" y="0">1</tspan></text>
    <text class="cls-2" transform="translate(10.64 34.09) rotate(-106.22)"><tspan x="0" y="0"> </tspan></text>
    <text class="cls-2" transform="translate(10.48 33.53) rotate(-104.45)"><tspan x="0" y="0">I</tspan></text>
    <text class="cls-2" transform="translate(10.34 33.01) rotate(-101.91)"><tspan x="0" y="0">p</tspan></text>
    <text class="cls-2" transform="translate(10.11 31.91) rotate(-99.04)"><tspan x="0" y="0">s</tspan></text>
    <text class="cls-2" transform="translate(9.99 31.18) rotate(-96.35)"><tspan x="0" y="0">u</tspan></text>
    <text class="cls-2" transform="translate(9.87 30.17) rotate(-92.55)"><tspan x="0" y="0">m</tspan></text>
    <text class="cls-2" transform="translate(9.82 28.7) rotate(-89.46)"><tspan x="0" y="0"> </tspan></text>
    <text class="cls-2" transform="translate(9.82 28.12) rotate(-87.32)"><tspan x="0" y="0">L</tspan></text>
    <text class="cls-2" transform="translate(9.86 27.29) rotate(-84.33)"><tspan x="0" y="0">o</tspan></text>
    <text class="cls-2" transform="translate(9.97 26.18) rotate(-81.59)"><tspan x="0" y="0">r</tspan></text>
    <text class="cls-2" transform="translate(10.07 25.51) rotate(-79.03)"><tspan x="0" y="0">e</tspan></text>
    <text class="cls-2" transform="translate(10.26 24.49) rotate(-75.18)"><tspan x="0" y="0">m</tspan></text>
    <text class="cls-2" transform="translate(10.64 23.07) rotate(-72.1)"><tspan x="0" y="0"> </tspan></text>
    <text class="cls-2" transform="translate(10.82 22.52) rotate(-70.37)"><tspan x="0" y="0">I</tspan></text>
    <text class="cls-2" transform="translate(11 22.01) rotate(-68.48)"><tspan x="0" y="0">r</tspan></text>
    <text class="cls-2" transform="translate(11.25 21.37) rotate(-66.58)"><tspan x="0" y="0"> </tspan></text>
    <text class="cls-2" transform="translate(11.48 20.84) rotate(-64.41)"><tspan x="0" y="0">L</tspan></text>
    <text class="cls-2" transform="translate(11.83 20.1) rotate(-61.45)"><tspan x="0" y="0">o</tspan></text>
    <text class="cls-2" transform="translate(12.38 19.11) rotate(-58.64)"><tspan x="0" y="0">r</tspan></text>
    <text class="cls-2" transform="translate(12.73 18.52) rotate(-56)"><tspan x="0" y="0">e</tspan></text>
    <text class="cls-2" transform="translate(13.29 17.67) rotate(-52.18)"><tspan x="0" y="0">m</tspan></text>
    <text class="cls-2" transform="translate(14.2 16.52) rotate(-49.05)"><tspan x="0" y="0"> </tspan></text>
    <text class="cls-2" transform="translate(14.58 16.07) rotate(-47.26)"><tspan x="0" y="0"> </tspan></text>
    <text class="cls-2" transform="translate(14.98 15.65) rotate(-45.1)"><tspan x="0" y="0">L</tspan></text>
    <text class="cls-2" transform="translate(15.55 15.06) rotate(-42.12)"><tspan x="0" y="0">o</tspan></text>
    <text class="cls-2" transform="translate(16.38 14.32) rotate(-39.4)"><tspan x="0" y="0">r</tspan></text>
    <text class="cls-2" transform="translate(16.9 13.89) rotate(-37.52)"><tspan x="0" y="0">e</tspan></text>
    <text class="cls-2" transform="translate(17.73 13.26) rotate(-33.06)"><tspan x="0" y="0">m</tspan></text>
    <text class="cls-2" transform="translate(18.97 12.46) rotate(-29.98)"><tspan x="0" y="0"> </tspan></text>
    <text class="cls-2" transform="translate(19.46 12.18) rotate(-28.26)"><tspan x="0" y="0">I</tspan></text>
    <text class="cls-2" transform="translate(19.93 11.92) rotate(-25.75)"><tspan x="0" y="0">p</tspan></text>
    <text class="cls-2" transform="translate(20.94 11.44) rotate(-22.88)"><tspan x="0" y="0">s</tspan></text>
    <text class="cls-2" transform="translate(21.64 11.13) rotate(-20.11)"><tspan x="0" y="0">u</tspan></text>
    <text class="cls-2" transform="translate(22.58 10.78) rotate(-16.31)"><tspan x="0" y="0">m</tspan></text>
    <text class="cls-2" transform="translate(24.01 10.38) rotate(-13.14)"><tspan x="0" y="0"> </tspan></text>
    <text class="cls-2" transform="translate(24.55 10.25) rotate(-11.04)"><tspan x="0" y="0">L</tspan></text>
    <text class="cls-2" transform="translate(25.38 10.08) rotate(-7.99)"><tspan x="0" y="0">o</tspan></text>
    <text class="cls-2" transform="translate(26.49 9.93) rotate(-5.22)"><tspan x="0" y="0">r</tspan></text>
    <text class="cls-2" transform="translate(27.17 9.86) rotate(-2.64)"><tspan x="0" y="0">e</tspan></text>
    <text class="cls-2" transform="translate(28.18 9.81) rotate(1.14)"><tspan x="0" y="0">m</tspan></text>
    <text class="cls-2" transform="translate(29.68 9.85) rotate(4.31)"><tspan x="0" y="0"> </tspan></text>
    <text class="cls-2" transform="translate(30.23 9.89) rotate(5.93)"><tspan x="0" y="0">I</tspan></text>
    <text class="cls-2" transform="translate(30.78 9.94) rotate(8.49)"><tspan x="0" y="0">p</tspan></text>
    <text class="cls-2" transform="translate(31.88 10.11) rotate(11.31)"><tspan x="0" y="0">s</tspan></text>
    <text class="cls-2" transform="translate(32.63 10.26) rotate(14.05)"><tspan x="0" y="0">u</tspan></text>
    <text class="cls-2" transform="translate(33.61 10.49) rotate(17.82)"><tspan x="0" y="0">m</tspan></text>
    <text class="cls-2" transform="translate(35 10.95) rotate(21.26)"><tspan x="0" y="0">L</tspan></text>
    <text class="cls-2" transform="translate(35.78 11.25) rotate(24.29)"><tspan x="0" y="0">o</tspan></text>
    <text class="cls-2" transform="translate(36.8 11.71) rotate(27.07)"><tspan x="0" y="0">r</tspan></text>
    <text class="cls-2" transform="translate(37.41 12.02) rotate(29.69)"><tspan x="0" y="0">e</tspan></text>
    <text class="cls-2" transform="translate(38.29 12.51) rotate(33.47)"><tspan x="0" y="0">m</tspan></text>
    <text class="cls-2" transform="translate(39.53 13.35) rotate(36.67)"><tspan x="0" y="0"> </tspan></text>
    <text class="cls-2" transform="translate(39.98 13.68) rotate(38.36)"><tspan x="0" y="0">I</tspan></text>
    <text class="cls-2" transform="translate(40.42 14.02) rotate(40.95)"><tspan x="0" y="0">p</tspan></text>
    <text class="cls-2" transform="translate(41.26 14.76) rotate(43.82)"><tspan x="0" y="0">s</tspan></text>
    <text class="cls-2" transform="translate(41.81 15.28) rotate(46.52)"><tspan x="0" y="0">u</tspan></text>
    <text class="cls-2" transform="translate(42.51 16.03) rotate(48.97)"><tspan x="0" y="0"> </tspan></text>
    <text class="cls-2" transform="translate(42.88 16.45) rotate(50.68)"><tspan x="0" y="0"> </tspan></text>
    <text class="cls-2" transform="translate(43.24 16.89) rotate(52.23)"><tspan x="0" y="0">l</tspan></text>
    <text class="cls-2" transform="translate(43.53 17.25) rotate(54.59)"><tspan x="0" y="0">o</tspan></text>
    <text class="cls-2" transform="translate(44.19 18.18) rotate(57.39)"><tspan x="0" y="0">r</tspan></text>
    <text class="cls-2" transform="translate(44.55 18.74) rotate(59.93)"><tspan x="0" y="0">e</tspan></text>
    <text class="cls-2" transform="translate(45.06 19.63) rotate(62.37)"><tspan x="0" y="0"> </tspan></text>
    <text class="cls-2" transform="translate(45.33 20.15) rotate(63.98)"><tspan x="0" y="0">l</tspan></text>
    <text class="cls-2" transform="translate(45.54 20.57) rotate(65.78)"><tspan x="0" y="0">r</tspan></text>
    <text class="cls-2" transform="translate(45.81 21.18) rotate(68.37)"><tspan x="0" y="0">e</tspan></text>
    <text class="cls-2" transform="translate(46.2 22.15) rotate(70.86)"><tspan x="0" y="0"> </tspan></text>
    <text class="cls-2" transform="translate(46.38 22.69) rotate(72.46)"><tspan x="0" y="0">l</tspan></text>
    <text class="cls-2" transform="translate(46.52 23.11) rotate(74.84)"><tspan x="0" y="0">o</tspan></text>
    <text class="cls-2" transform="translate(46.81 24.2) rotate(77.65)"><tspan x="0" y="0">r</tspan></text>
    <text class="cls-2" transform="translate(46.97 24.87) rotate(80.27)"><tspan x="0" y="0">e</tspan></text>
    <text class="cls-2" transform="translate(47.13 25.88) rotate(82.7)"><tspan x="0" y="0"> </tspan></text>
    <text class="cls-2" transform="translate(47.21 26.47) rotate(84.34)"><tspan x="0" y="0">l</tspan></text>
    <text class="cls-2" transform="translate(47.26 26.92) rotate(86.76)"><tspan x="0" y="0">o</tspan></text>
    <text class="cls-2" transform="translate(47.32 28.04) rotate(89.51)"><tspan x="0" y="0">r</tspan></text>
    <text class="cls-2" transform="translate(47.33 28.72) rotate(92.08)"><tspan x="0" y="0">e</tspan></text>
    <text class="cls-2" transform="translate(47.29 29.74) rotate(94.48)"><tspan x="0" y="0"> </tspan></text>
    <text class="cls-2" transform="translate(47.24 30.32) rotate(96.1)"><tspan x="0" y="0">l</tspan></text>
    <text class="cls-2" transform="translate(47.2 30.78) rotate(98.49)"><tspan x="0" y="0">o</tspan></text>
    <text class="cls-2" transform="translate(47.03 31.88) rotate(101.23)"><tspan x="0" y="0">r</tspan></text>
    <text class="cls-2" transform="translate(46.9 32.57) rotate(103.88)"><tspan x="0" y="0">e</tspan></text>
    <text class="cls-2" transform="translate(46.65 33.56) rotate(106.27)"><tspan x="0" y="0"> </tspan></text>
    <text class="cls-2" transform="translate(46.49 34.1) rotate(107.82)"><tspan x="0" y="0">l</tspan></text>
    <text class="cls-2" transform="translate(46.36 34.54) rotate(110.23)"><tspan x="0" y="0">o</tspan></text>
    <text class="cls-2" transform="translate(45.97 35.58) rotate(112.99)"><tspan x="0" y="0">r</tspan></text>
    <text class="cls-2" transform="translate(45.71 36.21) rotate(115.59)"><tspan x="0" y="0">e</tspan></text>
    <text class="cls-2" transform="translate(45.24 37.16) rotate(118.12)"><tspan x="0" y="0"> </tspan></text>
    <text class="cls-2" transform="translate(44.98 37.66) rotate(119.69)"><tspan x="0" y="0">l</tspan></text>
    <text class="cls-2" transform="translate(44.75 38.06) rotate(121.45)"><tspan x="0" y="0">r</tspan></text>
    <text class="cls-2" transform="translate(44.4 38.65) rotate(124.1)"><tspan x="0" y="0">e</tspan></text>
    <text class="cls-1" transform="translate(43.83 39.49) rotate(127.2)"><tspan x="0" y="0">o</tspan></text>
    <text class="cls-1" transform="translate(43.19 40.32) rotate(129.7)"><tspan x="0" y="0"> </tspan></text>
    <text class="cls-1" transform="translate(42.85 40.74) rotate(132.11)"><tspan x="0" y="0">o</tspan></text>
    <text class="cls-1" transform="translate(42.15 41.51) rotate(134.81)"><tspan x="0" y="0">r</tspan></text>
    <text class="cls-1" transform="translate(41.63 42.04) rotate(137.52)"><tspan x="0" y="0">e</tspan></text>
    <text class="cls-1" transform="translate(40.89 42.71) rotate(139.87)"><tspan x="0" y="0"> </tspan></text>
    <text class="cls-1" transform="translate(40.47 43.07) rotate(141.5)"><tspan x="0" y="0">l</tspan></text>
    <text class="cls-1" transform="translate(40.05 43.41) rotate(144.34)"><tspan x="0" y="0">o</tspan></text>
    <text class="cls-1" transform="translate(39.22 44.01) rotate(146.49)"><tspan x="0" y="0">r</tspan></text>
    <text class="cls-1" transform="translate(38.6 44.43) rotate(149.21)"><tspan x="0" y="0">e</tspan></text>
    <text class="cls-1" transform="translate(37.73 44.93) rotate(151.55)"><tspan x="0" y="0"> </tspan></text>
    <text class="cls-1" transform="translate(37.23 45.21) rotate(153.27)"><tspan x="0" y="0">l</tspan></text>
    <text class="cls-1" transform="translate(36.75 45.45) rotate(155.69)"><tspan x="0" y="0">o</tspan></text>
    <text class="cls-1" transform="translate(35.82 45.87) rotate(158.1)"><tspan x="0" y="0"> </tspan></text>
    <text class="cls-1" transform="translate(35.31 46.08) rotate(160.51)"><tspan x="0" y="0">e</tspan></text>
    <text class="cls-1" transform="translate(34.35 46.42) rotate(163.69)"><tspan x="0" y="0">n</tspan></text>
    <text class="cls-1" transform="translate(33.36 46.71) rotate(166.86)"><tspan x="0" y="0">d</tspan></text>
    <text class="cls-1" transform="translate(32.35 46.94) rotate(169.48)"><tspan x="0" y="0">!</tspan></text>
    <text class="cls-1" transform="translate(31.68 47.07) rotate(171.57)"><tspan x="0" y="0">!</tspan></text>
    <text class="cls-1" transform="translate(31.01 47.17) rotate(173.65)"><tspan x="0" y="0">!</tspan></text>
    <text class="cls-1" transform="translate(30.33 47.24) rotate(175.56)"><tspan x="0" y="0"> </tspan></text>
    <text class="cls-2" transform="translate(29.77 47.29) rotate(177.28)"><tspan x="0" y="0"> </tspan></text>
    <text class="cls-2" transform="translate(29.21 47.31) rotate(179)"><tspan x="0" y="0"> </tspan></text>
    <text class="cls-2" transform="translate(28.62 47.32) rotate(-179.2)"><tspan x="0" y="0"> </tspan></text>
    <text class="cls-2" transform="translate(28.05 47.32) rotate(-177.49)"><tspan x="0" y="0"> </tspan></text>
    <text class="cls-2" transform="translate(27.49 47.29) rotate(-175.78)"><tspan x="0" y="0"> </tspan></text>
    <text class="cls-2" transform="translate(26.9 47.25) rotate(-173.98)"><tspan x="0" y="0"> </tspan></text>
    <text class="cls-2" transform="translate(26.34 47.19) rotate(-172.28)"><tspan x="0" y="0"> </tspan></text>
    <text class="cls-2" transform="translate(25.76 47.11) rotate(-170.48)"><tspan x="0" y="0"> </tspan></text>
  </g>
</svg>