<?xml version="1.0" encoding="UTF-8"?>
<svg id="Layer_2" data-name="Layer 2" xmlns="http://www.w3.org/2000/svg" viewBox="0 0 229.07 227.03">
  <defs>
    <style>
      .cls-1 {
        fill: #231f20;
        font-family: Futura-Medium, Futura;
        font-size: 3.9px;
        font-weight: 500;
      }
    </style>
  </defs>
  <g id="Layer_21" data-name="Layer 21">
    <text class="cls-1" transform="translate(206.09 93.3) rotate(79.28)"><tspan x="0" y="0">L</tspan></text>
    <text class="cls-1" transform="translate(206.42 94.98) rotate(80.07)"><tspan x="0" y="0">a</tspan></text>
    <text class="cls-1" transform="translate(206.83 97.31) rotate(81.43)"><tspan x="0" y="0">y</tspan></text>
    <text class="cls-1" transform="translate(207.13 99.32) rotate(82.68)"><tspan x="0" y="0">e</tspan></text>
    <text class="cls-1" transform="translate(207.4 101.46) rotate(83.78)"><tspan x="0" y="0">r</tspan></text>
    <text class="cls-1" transform="translate(207.56 102.9) rotate(84.58)"><tspan x="0" y="0"> </tspan></text>
    <text class="cls-1" transform="translate(207.68 104.11) rotate(85.68)"><tspan x="0" y="0">2</tspan></text>
    <text class="cls-1" transform="translate(207.84 106.16) rotate(86.95)"><tspan x="0" y="0">1</tspan></text>
    <text class="cls-1" transform="translate(207.96 108.55) rotate(88.04)"><tspan x="0" y="0"> </tspan></text>
    <text class="cls-1" transform="translate(208 109.72) rotate(88.75)"><tspan x="0" y="0">I</tspan></text>
    <text class="cls-1" transform="translate(208.03 110.89) rotate(89.82)"><tspan x="0" y="0">p</tspan></text>
    <text class="cls-1" transform="translate(208.04 113.2) rotate(91.01)"><tspan x="0" y="0">s</tspan></text>
    <text class="cls-1" transform="translate(208.01 114.78) rotate(92.15)"><tspan x="0" y="0">u</tspan></text>
    <text class="cls-1" transform="translate(207.94 116.87) rotate(93.74)"><tspan x="0" y="0">m</tspan></text>
    <text class="cls-1" transform="translate(207.73 119.94) rotate(95.05)"><tspan x="0" y="0"> </tspan></text>
    <text class="cls-1" transform="translate(207.62 121.14) rotate(95.96)"><tspan x="0" y="0">L</tspan></text>
    <text class="cls-1" transform="translate(207.45 122.84) rotate(97.2)"><tspan x="0" y="0">o</tspan></text>
    <text class="cls-1" transform="translate(207.15 125.17) rotate(98.37)"><tspan x="0" y="0">r</tspan></text>
    <text class="cls-1" transform="translate(206.95 126.56) rotate(99.45)"><tspan x="0" y="0">e</tspan></text>
    <text class="cls-1" transform="translate(206.6 128.68) rotate(101.06)"><tspan x="0" y="0">m</tspan></text>
    <text class="cls-1" transform="translate(206 131.7) rotate(102.37)"><tspan x="0" y="0"> </tspan></text>
    <text class="cls-1" transform="translate(205.75 132.87) rotate(103.09)"><tspan x="0" y="0">I</tspan></text>
    <text class="cls-1" transform="translate(205.5 133.96) rotate(104.14)"><tspan x="0" y="0">p</tspan></text>
    <text class="cls-1" transform="translate(204.92 136.21) rotate(105.34)"><tspan x="0" y="0">s</tspan></text>
    <text class="cls-1" transform="translate(204.51 137.73) rotate(106.47)"><tspan x="0" y="0">u</tspan></text>
    <text class="cls-1" transform="translate(203.92 139.75) rotate(108.05)"><tspan x="0" y="0">m</tspan></text>
    <text class="cls-1" transform="translate(202.96 142.66) rotate(109.35)"><tspan x="0" y="0"> </tspan></text>
    <text class="cls-1" transform="translate(202.56 143.82) rotate(110.26)"><tspan x="0" y="0">L</tspan></text>
    <text class="cls-1" transform="translate(201.97 145.42) rotate(111.49)"><tspan x="0" y="0">o</tspan></text>
    <text class="cls-1" transform="translate(201.12 147.58) rotate(112.64)"><tspan x="0" y="0">r</tspan></text>
    <text class="cls-1" transform="translate(200.57 148.9) rotate(113.72)"><tspan x="0" y="0">e</tspan></text>
    <text class="cls-1" transform="translate(199.71 150.87) rotate(115.31)"><tspan x="0" y="0">m</tspan></text>
    <text class="cls-1" transform="translate(198.4 153.63) rotate(116.6)"><tspan x="0" y="0"> </tspan></text>
    <text class="cls-1" transform="translate(197.86 154.7) rotate(117.31)"><tspan x="0" y="0">I</tspan></text>
    <text class="cls-1" transform="translate(197.34 155.73) rotate(118.37)"><tspan x="0" y="0">p</tspan></text>
    <text class="cls-1" transform="translate(196.23 157.76) rotate(119.55)"><tspan x="0" y="0">s</tspan></text>
    <text class="cls-1" transform="translate(195.46 159.13) rotate(120.67)"><tspan x="0" y="0">u</tspan></text>
    <text class="cls-1" transform="translate(194.39 160.94) rotate(122.24)"><tspan x="0" y="0">m</tspan></text>
    <text class="cls-1" transform="translate(192.74 163.54) rotate(123.54)"><tspan x="0" y="0"> </tspan></text>
    <text class="cls-1" transform="translate(192.09 164.53) rotate(124.42)"><tspan x="0" y="0">L</tspan></text>
    <text class="cls-1" transform="translate(191.11 165.96) rotate(125.66)"><tspan x="0" y="0">o</tspan></text>
    <text class="cls-1" transform="translate(189.75 167.84) rotate(126.8)"><tspan x="0" y="0">r</tspan></text>
    <text class="cls-1" transform="translate(188.9 168.99) rotate(127.88)"><tspan x="0" y="0">e</tspan></text>
    <text class="cls-1" transform="translate(187.59 170.68) rotate(129.46)"><tspan x="0" y="0">m</tspan></text>
    <text class="cls-1" transform="translate(185.64 173.04) rotate(130.75)"><tspan x="0" y="0"> </tspan></text>
    <text class="cls-1" transform="translate(184.85 173.96) rotate(131.47)"><tspan x="0" y="0">I</tspan></text>
    <text class="cls-1" transform="translate(184.1 174.81) rotate(132.52)"><tspan x="0" y="0">p</tspan></text>
    <text class="cls-1" transform="translate(182.54 176.51) rotate(133.71)"><tspan x="0" y="0">s</tspan></text>
    <text class="cls-1" transform="translate(181.46 177.65) rotate(134.82)"><tspan x="0" y="0">u</tspan></text>
    <text class="cls-1" transform="translate(179.96 179.16) rotate(136.42)"><tspan x="0" y="0">m</tspan></text>
    <text class="cls-1" transform="translate(177.73 181.27) rotate(137.71)"><tspan x="0" y="0"> </tspan></text>
    <text class="cls-1" transform="translate(176.86 182.07) rotate(138.6)"><tspan x="0" y="0">L</tspan></text>
    <text class="cls-1" transform="translate(175.58 183.2) rotate(139.84)"><tspan x="0" y="0">o</tspan></text>
    <text class="cls-1" transform="translate(173.77 184.72) rotate(141.01)"><tspan x="0" y="0">r</tspan></text>
    <text class="cls-1" transform="translate(172.68 185.61) rotate(142.09)"><tspan x="0" y="0">e</tspan></text>
    <text class="cls-1" transform="translate(170.99 186.93) rotate(143.69)"><tspan x="0" y="0">m</tspan></text>
    <text class="cls-1" transform="translate(168.51 188.74) rotate(145)"><tspan x="0" y="0"> </tspan></text>
    <text class="cls-1" transform="translate(167.54 189.41) rotate(145.71)"><tspan x="0" y="0">I</tspan></text>
    <text class="cls-1" transform="translate(166.59 190.07) rotate(146.79)"><tspan x="0" y="0">p</tspan></text>
    <text class="cls-1" transform="translate(164.66 191.34) rotate(147.97)"><tspan x="0" y="0">s</tspan></text>
    <text class="cls-1" transform="translate(163.31 192.18) rotate(149.12)"><tspan x="0" y="0">u</tspan></text>
    <text class="cls-1" transform="translate(161.5 193.27) rotate(150.72)"><tspan x="0" y="0">m</tspan></text>
    <text class="cls-1" transform="translate(158.83 194.76) rotate(152.18)"><tspan x="0" y="0">L</tspan></text>
    <text class="cls-1" transform="translate(157.31 195.56) rotate(153.43)"><tspan x="0" y="0">o</tspan></text>
    <text class="cls-1" transform="translate(155.23 196.6) rotate(154.59)"><tspan x="0" y="0">r</tspan></text>
    <text class="cls-1" transform="translate(153.94 197.22) rotate(155.69)"><tspan x="0" y="0">e</tspan></text>
    <text class="cls-1" transform="translate(152 198.1) rotate(157.28)"><tspan x="0" y="0">m</tspan></text>
    <text class="cls-1" transform="translate(149.17 199.27) rotate(158.58)"><tspan x="0" y="0"> </tspan></text>
    <text class="cls-1" transform="translate(148.05 199.71) rotate(159.3)"><tspan x="0" y="0">I</tspan></text>
    <text class="cls-1" transform="translate(146.99 200.12) rotate(160.36)"><tspan x="0" y="0">p</tspan></text>
    <text class="cls-1" transform="translate(144.79 200.9) rotate(161.56)"><tspan x="0" y="0">s</tspan></text>
    <text class="cls-1" transform="translate(143.29 201.4) rotate(162.69)"><tspan x="0" y="0">u</tspan></text>
    <text class="cls-1" transform="translate(141.3 202.03) rotate(164.25)"><tspan x="0" y="0">m</tspan></text>
    <text class="cls-1" transform="translate(138.34 202.86) rotate(165.7)"><tspan x="0" y="0">L</tspan></text>
    <text class="cls-1" transform="translate(136.67 203.29) rotate(166.92)"><tspan x="0" y="0">o</tspan></text>
    <text class="cls-1" transform="translate(134.39 203.8) rotate(167.42)"><tspan x="0" y="0">r</tspan></text>
    <text class="cls-1" transform="translate(133 204.11) rotate(169.28)"><tspan x="0" y="0">e</tspan></text>
    <text class="cls-1" transform="translate(130.9 204.52) rotate(170.69)"><tspan x="0" y="0">m</tspan></text>
    <text class="cls-1" transform="translate(127.86 205.01) rotate(171.98)"><tspan x="0" y="0"> </tspan></text>
    <text class="cls-1" transform="translate(126.69 205.17) rotate(172.68)"><tspan x="0" y="0">I</tspan></text>
    <text class="cls-1" transform="translate(125.56 205.32) rotate(173.73)"><tspan x="0" y="0">p</tspan></text>
    <text class="cls-1" transform="translate(123.25 205.57) rotate(174.92)"><tspan x="0" y="0">s</tspan></text>
    <text class="cls-1" transform="translate(121.68 205.72) rotate(176.05)"><tspan x="0" y="0">u</tspan></text>
    <text class="cls-1" transform="translate(119.58 205.87) rotate(177.62)"><tspan x="0" y="0">m</tspan></text>
    <text class="cls-1" transform="translate(116.53 205.99) rotate(179.08)"><tspan x="0" y="0">L</tspan></text>
    <text class="cls-1" transform="translate(114.79 206.02) rotate(-179.66)"><tspan x="0" y="0">o</tspan></text>
    <text class="cls-1" transform="translate(112.45 206) rotate(-178.5)"><tspan x="0" y="0">r</tspan></text>
    <text class="cls-1" transform="translate(111.04 205.96) rotate(-177.41)"><tspan x="0" y="0">e</tspan></text>
    <text class="cls-1" transform="translate(108.92 205.88) rotate(-175.82)"><tspan x="0" y="0">m</tspan></text>
    <text class="cls-1" transform="translate(105.84 205.64) rotate(-174.49)"><tspan x="0" y="0"> </tspan></text>
    <text class="cls-1" transform="translate(104.65 205.53) rotate(-173.77)"><tspan x="0" y="0">I</tspan></text>
    <text class="cls-1" transform="translate(103.52 205.41) rotate(-172.71)"><tspan x="0" y="0">p</tspan></text>
    <text class="cls-1" transform="translate(101.23 205.11) rotate(-171.52)"><tspan x="0" y="0">s</tspan></text>
    <text class="cls-1" transform="translate(99.65 204.88) rotate(-170.37)"><tspan x="0" y="0">u</tspan></text>
    <text class="cls-1" transform="translate(97.59 204.54) rotate(-168.79)"><tspan x="0" y="0">m</tspan></text>
    <text class="cls-1" transform="translate(94.58 203.93) rotate(-167.32)"><tspan x="0" y="0">L</tspan></text>
    <text class="cls-1" transform="translate(92.9 203.56) rotate(-166.08)"><tspan x="0" y="0">o</tspan></text>
    <text class="cls-1" transform="translate(90.63 202.99) rotate(-164.91)"><tspan x="0" y="0">r</tspan></text>
    <text class="cls-1" transform="translate(89.27 202.63) rotate(-163.83)"><tspan x="0" y="0">e</tspan></text>
    <text class="cls-1" transform="translate(87.2 202.03) rotate(-162.23)"><tspan x="0" y="0">m</tspan></text>
    <text class="cls-1" transform="translate(84.28 201.09) rotate(-160.93)"><tspan x="0" y="0"> </tspan></text>
    <text class="cls-1" transform="translate(83.15 200.7) rotate(-160.22)"><tspan x="0" y="0">I</tspan></text>
    <text class="cls-1" transform="translate(82.08 200.32) rotate(-159.16)"><tspan x="0" y="0">p</tspan></text>
    <text class="cls-1" transform="translate(79.9 199.48) rotate(-157.96)"><tspan x="0" y="0">s</tspan></text>
    <text class="cls-1" transform="translate(78.44 198.89) rotate(-156.83)"><tspan x="0" y="0">u</tspan></text>
    <text class="cls-1" transform="translate(76.51 198.08) rotate(-155.27)"><tspan x="0" y="0">m</tspan></text>
    <text class="cls-1" transform="translate(73.72 196.78) rotate(-153.81)"><tspan x="0" y="0">L</tspan></text>
    <text class="cls-1" transform="translate(72.17 196.02) rotate(-152.57)"><tspan x="0" y="0">o</tspan></text>
    <text class="cls-1" transform="translate(70.12 194.95) rotate(-151.43)"><tspan x="0" y="0">r</tspan></text>
    <text class="cls-1" transform="translate(68.85 194.27) rotate(-150.34)"><tspan x="0" y="0">e</tspan></text>
    <text class="cls-1" transform="translate(66.99 193.21) rotate(-148.76)"><tspan x="0" y="0">m</tspan></text>
    <text class="cls-1" transform="translate(64.39 191.62) rotate(-147.48)"><tspan x="0" y="0"> </tspan></text>
    <text class="cls-1" transform="translate(63.36 190.97) rotate(-146.76)"><tspan x="0" y="0">I</tspan></text>
    <text class="cls-1" transform="translate(62.41 190.35) rotate(-145.71)"><tspan x="0" y="0">p</tspan></text>
    <text class="cls-1" transform="translate(60.5 189.05) rotate(-144.54)"><tspan x="0" y="0">s</tspan></text>
    <text class="cls-1" transform="translate(59.2 188.13) rotate(-143.4)"><tspan x="0" y="0">u</tspan></text>
    <text class="cls-1" transform="translate(57.52 186.89) rotate(-141.85)"><tspan x="0" y="0">m</tspan></text>
    <text class="cls-1" transform="translate(55.12 184.99) rotate(-140.39)"><tspan x="0" y="0">L</tspan></text>
    <text class="cls-1" transform="translate(53.78 183.88) rotate(-139.15)"><tspan x="0" y="0">o</tspan></text>
    <text class="cls-1" transform="translate(52.01 182.35) rotate(-137.99)"><tspan x="0" y="0">r</tspan></text>
    <text class="cls-1" transform="translate(50.96 181.4) rotate(-136.92)"><tspan x="0" y="0">e</tspan></text>
    <text class="cls-1" transform="translate(49.38 179.94) rotate(-135.33)"><tspan x="0" y="0">m</tspan></text>
    <text class="cls-1" transform="translate(47.22 177.78) rotate(-134.03)"><tspan x="0" y="0"> </tspan></text>
    <text class="cls-1" transform="translate(46.39 176.93) rotate(-133.32)"><tspan x="0" y="0">I</tspan></text>
    <text class="cls-1" transform="translate(45.6 176.1) rotate(-132.26)"><tspan x="0" y="0">p</tspan></text>
    <text class="cls-1" transform="translate(44.04 174.38) rotate(-131.07)"><tspan x="0" y="0">s</tspan></text>
    <text class="cls-1" transform="translate(43.01 173.2) rotate(-129.95)"><tspan x="0" y="0">u</tspan></text>
    <text class="cls-1" transform="translate(41.65 171.59) rotate(-128.36)"><tspan x="0" y="0">m</tspan></text>
    <text class="cls-1" transform="translate(39.75 169.17) rotate(-126.89)"><tspan x="0" y="0">L</tspan></text>
    <text class="cls-1" transform="translate(38.72 167.81) rotate(-125.65)"><tspan x="0" y="0">o</tspan></text>
    <text class="cls-1" transform="translate(37.36 165.91) rotate(-124.49)"><tspan x="0" y="0">r</tspan></text>
    <text class="cls-1" transform="translate(36.55 164.73) rotate(-123.39)"><tspan x="0" y="0">e</tspan></text>
    <text class="cls-1" transform="translate(35.36 162.94) rotate(-121.78)"><tspan x="0" y="0">m</tspan></text>
    <text class="cls-1" transform="translate(33.76 160.33) rotate(-120.48)"><tspan x="0" y="0"> </tspan></text>
    <text class="cls-1" transform="translate(33.14 159.29) rotate(-119.75)"><tspan x="0" y="0">I</tspan></text>
    <text class="cls-1" transform="translate(32.58 158.31) rotate(-118.68)"><tspan x="0" y="0">p</tspan></text>
    <text class="cls-1" transform="translate(31.46 156.26) rotate(-117.48)"><tspan x="0" y="0">s</tspan></text>
    <text class="cls-1" transform="translate(30.73 154.87) rotate(-116.35)"><tspan x="0" y="0">u</tspan></text>
    <text class="cls-1" transform="translate(29.8 152.99) rotate(-114.76)"><tspan x="0" y="0">m</tspan></text>
    <text class="cls-1" transform="translate(28.52 150.2) rotate(-113.45)"><tspan x="0" y="0"> </tspan></text>
    <text class="cls-1" transform="translate(28.05 149.12) rotate(-112.56)"><tspan x="0" y="0">L</tspan></text>
    <text class="cls-1" transform="translate(27.38 147.51) rotate(-111.31)"><tspan x="0" y="0">o</tspan></text>
    <text class="cls-1" transform="translate(26.54 145.35) rotate(-110.16)"><tspan x="0" y="0">r</tspan></text>
    <text class="cls-1" transform="translate(26.05 144.02) rotate(-109.07)"><tspan x="0" y="0">e</tspan></text>
    <text class="cls-1" transform="translate(25.35 142.01) rotate(-107.49)"><tspan x="0" y="0">m</tspan></text>
    <text class="cls-1" transform="translate(24.42 139.05) rotate(-106.18)"><tspan x="0" y="0"> </tspan></text>
    <text class="cls-1" transform="translate(24.09 137.91) rotate(-105.48)"><tspan x="0" y="0">I</tspan></text>
    <text class="cls-1" transform="translate(23.79 136.83) rotate(-104.44)"><tspan x="0" y="0">p</tspan></text>
    <text class="cls-1" transform="translate(23.21 134.57) rotate(-103.26)"><tspan x="0" y="0">s</tspan></text>
    <text class="cls-1" transform="translate(22.85 133.03) rotate(-102.58)"><tspan x="0" y="0">u</tspan></text>
    <text class="cls-1" transform="translate(22.4 130.98) rotate(-100.61)"><tspan x="0" y="0">m</tspan></text>
    <text class="cls-1" transform="translate(21.84 127.95) rotate(-99.31)"><tspan x="0" y="0"> </tspan></text>
    <text class="cls-1" transform="translate(21.64 126.76) rotate(-98.43)"><tspan x="0" y="0">L</tspan></text>
    <text class="cls-1" transform="translate(21.39 125.07) rotate(-97.21)"><tspan x="0" y="0">o</tspan></text>
    <text class="cls-1" transform="translate(21.1 122.75) rotate(-96.05)"><tspan x="0" y="0">r</tspan></text>
    <text class="cls-1" transform="translate(20.95 121.36) rotate(-94.99)"><tspan x="0" y="0">e</tspan></text>
    <text class="cls-1" transform="translate(20.75 119.21) rotate(-93.39)"><tspan x="0" y="0">m</tspan></text>
    <text class="cls-1" transform="translate(20.58 116.14) rotate(-92.08)"><tspan x="0" y="0"> </tspan></text>
    <text class="cls-1" transform="translate(20.54 114.94) rotate(-91.36)"><tspan x="0" y="0">I</tspan></text>
    <text class="cls-1" transform="translate(20.51 113.82) rotate(-90.31)"><tspan x="0" y="0">p</tspan></text>
    <text class="cls-1" transform="translate(20.5 111.49) rotate(-89.11)"><tspan x="0" y="0">s</tspan></text>
    <text class="cls-1" transform="translate(20.52 109.93) rotate(-87.98)"><tspan x="0" y="0">u</tspan></text>
    <text class="cls-1" transform="translate(20.59 107.8) rotate(-86.38)"><tspan x="0" y="0">m</tspan></text>
    <text class="cls-1" transform="translate(20.79 104.75) rotate(-85.07)"><tspan x="0" y="0"> </tspan></text>
    <text class="cls-1" transform="translate(20.89 103.56) rotate(-84.17)"><tspan x="0" y="0">L</tspan></text>
    <text class="cls-1" transform="translate(21.06 101.86) rotate(-82.93)"><tspan x="0" y="0">o</tspan></text>
    <text class="cls-1" transform="translate(21.35 99.53) rotate(-81.76)"><tspan x="0" y="0">r</tspan></text>
    <text class="cls-1" transform="translate(21.55 98.14) rotate(-80.68)"><tspan x="0" y="0">e</tspan></text>
    <text class="cls-1" transform="translate(21.89 96.02) rotate(-79.07)"><tspan x="0" y="0">m</tspan></text>
    <text class="cls-1" transform="translate(22.49 93) rotate(-77.76)"><tspan x="0" y="0"> </tspan></text>
    <text class="cls-1" transform="translate(22.74 91.83) rotate(-77.04)"><tspan x="0" y="0">I</tspan></text>
    <text class="cls-1" transform="translate(22.99 90.72) rotate(-75.98)"><tspan x="0" y="0">p</tspan></text>
    <text class="cls-1" transform="translate(23.56 88.48) rotate(-74.79)"><tspan x="0" y="0">s</tspan></text>
    <text class="cls-1" transform="translate(23.97 86.96) rotate(-73.66)"><tspan x="0" y="0">u</tspan></text>
    <text class="cls-1" transform="translate(24.55 84.94) rotate(-72.07)"><tspan x="0" y="0">m</tspan></text>
    <text class="cls-1" transform="translate(25.51 82) rotate(-70.61)"><tspan x="0" y="0">L</tspan></text>
    <text class="cls-1" transform="translate(26.07 80.39) rotate(-69.37)"><tspan x="0" y="0">o</tspan></text>
    <text class="cls-1" transform="translate(26.9 78.2) rotate(-68.21)"><tspan x="0" y="0">r</tspan></text>
    <text class="cls-1" transform="translate(27.43 76.88) rotate(-67.13)"><tspan x="0" y="0">e</tspan></text>
    <text class="cls-1" transform="translate(28.25 74.9) rotate(-65.55)"><tspan x="0" y="0">m</tspan></text>
    <text class="cls-1" transform="translate(29.52 72.13) rotate(-64.26)"><tspan x="0" y="0"> </tspan></text>
    <text class="cls-1" transform="translate(30.06 71.03) rotate(-63.53)"><tspan x="0" y="0">I</tspan></text>
    <text class="cls-1" transform="translate(30.56 70.01) rotate(-62.48)"><tspan x="0" y="0">p</tspan></text>
    <text class="cls-1" transform="translate(31.63 67.96) rotate(-61.3)"><tspan x="0" y="0">s</tspan></text>
    <text class="cls-1" transform="translate(32.38 66.58) rotate(-60.17)"><tspan x="0" y="0">e</tspan></text>
    <text class="cls-1" transform="translate(33.45 64.71) rotate(-58.87)"><tspan x="0" y="0">n</tspan></text>
    <text class="cls-1" transform="translate(34.54 62.9) rotate(-57.52)"><tspan x="0" y="0">d</tspan></text>
    <text class="cls-1" transform="translate(35.8 60.94) rotate(-56.46)"><tspan x="0" y="0"> </tspan></text>
    <text class="cls-1" transform="translate(36.46 59.94) rotate(-55.74)"><tspan x="0" y="0">I</tspan></text>
    <text class="cls-1" transform="translate(37.1 58.99) rotate(-54.69)"><tspan x="0" y="0">p</tspan></text>
    <text class="cls-1" transform="translate(38.44 57.11) rotate(-53.51)"><tspan x="0" y="0">s</tspan></text>
    <text class="cls-1" transform="translate(39.38 55.84) rotate(-52.39)"><tspan x="0" y="0">u</tspan></text>
    <text class="cls-1" transform="translate(40.66 54.17) rotate(-50.82)"><tspan x="0" y="0">m</tspan></text>
    <text class="cls-1" transform="translate(42.6 51.79) rotate(-49.36)"><tspan x="0" y="0">L</tspan></text>
    <text class="cls-1" transform="translate(43.73 50.47) rotate(-48.12)"><tspan x="0" y="0">o</tspan></text>
    <text class="cls-1" transform="translate(45.27 48.75) rotate(-46.98)"><tspan x="0" y="0">r</tspan></text>
    <text class="cls-1" transform="translate(46.24 47.72) rotate(-45.91)"><tspan x="0" y="0">e</tspan></text>
    <text class="cls-1" transform="translate(47.73 46.17) rotate(-44.32)"><tspan x="0" y="0">m</tspan></text>
    <text class="cls-1" transform="translate(49.93 44.03) rotate(-43.01)"><tspan x="0" y="0"> </tspan></text>
    <text class="cls-1" transform="translate(50.82 43.2) rotate(-42.29)"><tspan x="0" y="0">I</tspan></text>
    <text class="cls-1" transform="translate(51.66 42.43) rotate(-41.23)"><tspan x="0" y="0">p</tspan></text>
    <text class="cls-1" transform="translate(53.41 40.9) rotate(-40.03)"><tspan x="0" y="0">s</tspan></text>
    <text class="cls-1" transform="translate(54.61 39.89) rotate(-38.9)"><tspan x="0" y="0">u</tspan></text>
    <text class="cls-1" transform="translate(56.24 38.57) rotate(-37.32)"><tspan x="0" y="0">m</tspan></text>
    <text class="cls-1" transform="translate(58.69 36.71) rotate(-35.85)"><tspan x="0" y="0">L</tspan></text>
    <text class="cls-1" transform="translate(60.07 35.7) rotate(-34.61)"><tspan x="0" y="0">o</tspan></text>
    <text class="cls-1" transform="translate(61.98 34.39) rotate(-33.46)"><tspan x="0" y="0">r</tspan></text>
    <text class="cls-1" transform="translate(63.18 33.6) rotate(-32.36)"><tspan x="0" y="0">e</tspan></text>
    <text class="cls-1" transform="translate(64.98 32.45) rotate(-30.76)"><tspan x="0" y="0">m</tspan></text>
    <text class="cls-1" transform="translate(67.64 30.88) rotate(-29.44)"><tspan x="0" y="0"> </tspan></text>
    <text class="cls-1" transform="translate(68.67 30.29) rotate(-28.39)"><tspan x="0" y="0">E</tspan></text>
    <text class="cls-1" transform="translate(70.59 29.25) rotate(-27.07)"><tspan x="0" y="0">n</tspan></text>
    <text class="cls-1" transform="translate(72.49 28.28) rotate(-25.7)"><tspan x="0" y="0">d</tspan></text>
  </g>
</svg>