<?xml version="1.0" encoding="UTF-8"?>
<svg id="Layer_2" data-name="Layer 2" xmlns="http://www.w3.org/2000/svg" viewBox="0 0 64.21 64.19">
  <defs>
    <style>
      .cls-1 {
        fill: #231f20;
        font-family: Futura-Medium, Futura;
        font-size: 2px;
        font-weight: 500;
      }
    </style>
  </defs>
  <g id="Layer_2-2" data-name="Layer 2">
    <text class="cls-1" transform="translate(11.71 41.5) rotate(-113.56)"><tspan x="0" y="0">L</tspan></text>
    <text class="cls-1" transform="translate(11.36 40.72) rotate(-111.02)"><tspan x="0" y="0">a</tspan></text>
    <text class="cls-1" transform="translate(10.93 39.6) rotate(-108.12)"><tspan x="0" y="0">y</tspan></text>
    <text class="cls-1" transform="translate(10.6 38.6) rotate(-105.42)"><tspan x="0" y="0">e</tspan></text>
    <text class="cls-1" transform="translate(10.32 37.55) rotate(-103.08)"><tspan x="0" y="0">r</tspan></text>
    <text class="cls-1" transform="translate(10.15 36.84) rotate(-101.37)"><tspan x="0" y="0"> </tspan></text>
    <text class="cls-1" transform="translate(10.03 36.25) rotate(-99.05)"><tspan x="0" y="0">2</tspan></text>
    <text class="cls-1" transform="translate(9.84 35.06) rotate(-96.75)"><tspan x="0" y="0"> </tspan></text>
    <text class="cls-1" transform="translate(9.77 34.43) rotate(-95.15)"><tspan x="0" y="0">I</tspan></text>
    <text class="cls-1" transform="translate(9.71 33.88) rotate(-92.94)"><tspan x="0" y="0">p</tspan></text>
    <text class="cls-1" transform="translate(9.66 32.69) rotate(-90.4)"><tspan x="0" y="0">s</tspan></text>
    <text class="cls-1" transform="translate(9.65 31.91) rotate(-88.04)"><tspan x="0" y="0">u</tspan></text>
    <text class="cls-1" transform="translate(9.68 30.83) rotate(-84.66)"><tspan x="0" y="0">m</tspan></text>
    <text class="cls-1" transform="translate(9.83 29.27) rotate(-81.89)"><tspan x="0" y="0"> </tspan></text>
    <text class="cls-1" transform="translate(9.92 28.66) rotate(-80)"><tspan x="0" y="0">L</tspan></text>
    <text class="cls-1" transform="translate(10.06 27.82) rotate(-77.42)"><tspan x="0" y="0">o</tspan></text>
    <text class="cls-1" transform="translate(10.32 26.67) rotate(-75.02)"><tspan x="0" y="0">r</tspan></text>
    <text class="cls-1" transform="translate(10.51 25.96) rotate(-72.72)"><tspan x="0" y="0">e</tspan></text>
    <text class="cls-1" transform="translate(10.82 24.93) rotate(-69.39)"><tspan x="0" y="0">m</tspan></text>
    <text class="cls-1" transform="translate(11.38 23.47) rotate(-66.66)"><tspan x="0" y="0"> </tspan></text>
    <text class="cls-1" transform="translate(11.63 22.9) rotate(-65.12)"><tspan x="0" y="0">I</tspan></text>
    <text class="cls-1" transform="translate(11.86 22.38) rotate(-62.89)"><tspan x="0" y="0">p</tspan></text>
    <text class="cls-1" transform="translate(12.4 21.34) rotate(-60.41)"><tspan x="0" y="0">s</tspan></text>
    <text class="cls-1" transform="translate(12.79 20.65) rotate(-58.04)"><tspan x="0" y="0">u</tspan></text>
    <text class="cls-1" transform="translate(13.34 19.74) rotate(-54.71)"><tspan x="0" y="0">m</tspan></text>
    <text class="cls-1" transform="translate(14.26 18.47) rotate(-51.94)"><tspan x="0" y="0"> </tspan></text>
    <text class="cls-1" transform="translate(14.64 17.98) rotate(-50.02)"><tspan x="0" y="0">L</tspan></text>
    <text class="cls-1" transform="translate(15.19 17.31) rotate(-47.39)"><tspan x="0" y="0">o</tspan></text>
    <text class="cls-1" transform="translate(15.99 16.45) rotate(-44.97)"><tspan x="0" y="0">r</tspan></text>
    <text class="cls-1" transform="translate(16.51 15.93) rotate(-42.63)"><tspan x="0" y="0">e</tspan></text>
    <text class="cls-1" transform="translate(17.3 15.2) rotate(-39.25)"><tspan x="0" y="0">m</tspan></text>
    <text class="cls-1" transform="translate(18.51 14.21) rotate(-36.48)"><tspan x="0" y="0"> </tspan></text>
    <text class="cls-1" transform="translate(18.99 13.86) rotate(-35)"><tspan x="0" y="0">I</tspan></text>
    <text class="cls-1" transform="translate(19.46 13.53) rotate(-32.75)"><tspan x="0" y="0">p</tspan></text>
    <text class="cls-1" transform="translate(20.45 12.9) rotate(-30.26)"><tspan x="0" y="0">s</tspan></text>
    <text class="cls-1" transform="translate(21.13 12.49) rotate(-27.91)"><tspan x="0" y="0">u</tspan></text>
    <text class="cls-1" transform="translate(22.07 11.97) rotate(-23.72)"><tspan x="0" y="0">m</tspan></text>
    <text class="cls-1" transform="translate(23.51 11.34) rotate(-21.88)"><tspan x="0" y="0"> </tspan></text>
    <text class="cls-1" transform="translate(24.06 11.11) rotate(-20.02)"><tspan x="0" y="0">L</tspan></text>
    <text class="cls-1" transform="translate(24.88 10.81) rotate(-17.4)"><tspan x="0" y="0">o</tspan></text>
    <text class="cls-1" transform="translate(26.01 10.46) rotate(-14.97)"><tspan x="0" y="0">r</tspan></text>
    <text class="cls-1" transform="translate(26.72 10.27) rotate(-12.63)"><tspan x="0" y="0">e</tspan></text>
    <text class="cls-1" transform="translate(27.76 10.03) rotate(-9.28)"><tspan x="0" y="0">m</tspan></text>
    <text class="cls-1" transform="translate(29.32 9.78) rotate(-6.47)"><tspan x="0" y="0"> </tspan></text>
    <text class="cls-1" transform="translate(29.91 9.72) rotate(-4.98)"><tspan x="0" y="0">I</tspan></text>
    <text class="cls-1" transform="translate(30.46 9.66) rotate(-2.77)"><tspan x="0" y="0">p</tspan></text>
    <text class="cls-1" transform="translate(31.65 9.61) rotate(-.23)"><tspan x="0" y="0">s</tspan></text>
    <text class="cls-1" transform="translate(32.47 9.6) rotate(2.21)"><tspan x="0" y="0">u</tspan></text>
    <text class="cls-1" transform="translate(33.51 9.64) rotate(5.51)"><tspan x="0" y="0">m</tspan></text>
    <text class="cls-1" transform="translate(35.07 9.8) rotate(8.28)"><tspan x="0" y="0"> </tspan></text>
    <text class="cls-1" transform="translate(35.68 9.88) rotate(10.18)"><tspan x="0" y="0">L</tspan></text>
    <text class="cls-1" transform="translate(36.52 10.03) rotate(12.75)"><tspan x="0" y="0">o</tspan></text>
    <text class="cls-1" transform="translate(37.7 10.3) rotate(15.23)"><tspan x="0" y="0">r</tspan></text>
    <text class="cls-1" transform="translate(38.37 10.48) rotate(17.46)"><tspan x="0" y="0">e</tspan></text>
    <text class="cls-1" transform="translate(39.4 10.8) rotate(20.79)"><tspan x="0" y="0">m</tspan></text>
    <text class="cls-1" transform="translate(40.86 11.36) rotate(23.52)"><tspan x="0" y="0"> </tspan></text>
    <text class="cls-1" transform="translate(41.43 11.61) rotate(25.05)"><tspan x="0" y="0">I</tspan></text>
    <text class="cls-1" transform="translate(41.95 11.85) rotate(27.28)"><tspan x="0" y="0">p</tspan></text>
    <text class="cls-1" transform="translate(42.99 12.39) rotate(29.77)"><tspan x="0" y="0">s</tspan></text>
    <text class="cls-1" transform="translate(43.7 12.79) rotate(32.18)"><tspan x="0" y="0">u</tspan></text>
    <text class="cls-1" transform="translate(44.6 13.35) rotate(35.5)"><tspan x="0" y="0">m</tspan></text>
    <text class="cls-1" transform="translate(45.86 14.26) rotate(38.58)"><tspan x="0" y="0">L</tspan></text>
    <text class="cls-1" transform="translate(46.54 14.79) rotate(41.2)"><tspan x="0" y="0">o</tspan></text>
    <text class="cls-1" transform="translate(47.43 15.58) rotate(43.66)"><tspan x="0" y="0">r</tspan></text>
    <text class="cls-1" transform="translate(47.95 16.07) rotate(45.95)"><tspan x="0" y="0">e</tspan></text>
    <text class="cls-1" transform="translate(48.72 16.85) rotate(49.37)"><tspan x="0" y="0">m</tspan></text>
    <text class="cls-1" transform="translate(49.72 18.04) rotate(52.13)"><tspan x="0" y="0"> </tspan></text>
    <text class="cls-1" transform="translate(50.1 18.52) rotate(53.66)"><tspan x="0" y="0">I</tspan></text>
    <text class="cls-1" transform="translate(50.44 18.98) rotate(55.9)"><tspan x="0" y="0">p</tspan></text>
    <text class="cls-1" transform="translate(51.09 19.95) rotate(58.38)"><tspan x="0" y="0">s</tspan></text>
    <text class="cls-1" transform="translate(51.53 20.65) rotate(60.83)"><tspan x="0" y="0">u</tspan></text>
    <text class="cls-1" transform="translate(52.05 21.56) rotate(64.09)"><tspan x="0" y="0">m</tspan></text>
    <text class="cls-1" transform="translate(52.72 22.97) rotate(67.12)"><tspan x="0" y="0">L</tspan></text>
    <text class="cls-1" transform="translate(53.06 23.77) rotate(69.71)"><tspan x="0" y="0">o</tspan></text>
    <text class="cls-1" transform="translate(53.47 24.89) rotate(72.15)"><tspan x="0" y="0">r</tspan></text>
    <text class="cls-1" transform="translate(53.69 25.56) rotate(74.4)"><tspan x="0" y="0">e</tspan></text>
    <text class="cls-1" transform="translate(53.99 26.61) rotate(77.82)"><tspan x="0" y="0">m</tspan></text>
    <text class="cls-1" transform="translate(54.31 28.14) rotate(80.59)"><tspan x="0" y="0"> </tspan></text>
    <text class="cls-1" transform="translate(54.41 28.74) rotate(82.1)"><tspan x="0" y="0">I</tspan></text>
    <text class="cls-1" transform="translate(54.49 29.29) rotate(84.32)"><tspan x="0" y="0">p</tspan></text>
    <text class="cls-1" transform="translate(54.61 30.48) rotate(86.88)"><tspan x="0" y="0">s</tspan></text>
    <text class="cls-1" transform="translate(54.65 31.26) rotate(89.25)"><tspan x="0" y="0">u</tspan></text>
    <text class="cls-1" transform="translate(54.68 32.35) rotate(92.65)"><tspan x="0" y="0">m</tspan></text>
    <text class="cls-1" transform="translate(54.6 33.9) rotate(95.73)"><tspan x="0" y="0">L</tspan></text>
    <text class="cls-1" transform="translate(54.51 34.77) rotate(98.37)"><tspan x="0" y="0">o</tspan></text>
    <text class="cls-1" transform="translate(54.34 35.93) rotate(100.77)"><tspan x="0" y="0">r</tspan></text>
    <text class="cls-1" transform="translate(54.2 36.65) rotate(103.09)"><tspan x="0" y="0">e</tspan></text>
    <text class="cls-1" transform="translate(53.97 37.71) rotate(106.43)"><tspan x="0" y="0">m</tspan></text>
    <text class="cls-1" transform="translate(53.52 39.2) rotate(109.16)"><tspan x="0" y="0"> </tspan></text>
    <text class="cls-1" transform="translate(53.32 39.76) rotate(110.61)"><tspan x="0" y="0">I</tspan></text>
    <text class="cls-1" transform="translate(53.13 40.3) rotate(112.83)"><tspan x="0" y="0">p</tspan></text>
    <text class="cls-1" transform="translate(52.65 41.41) rotate(115.4)"><tspan x="0" y="0">s</tspan></text>
    <text class="cls-1" transform="translate(52.33 42.11) rotate(117.71)"><tspan x="0" y="0">u</tspan></text>
    <text class="cls-1" transform="translate(51.83 43.06) rotate(121.06)"><tspan x="0" y="0">m</tspan></text>
    <text class="cls-1" transform="translate(51.02 44.4) rotate(123.81)"><tspan x="0" y="0"> </tspan></text>
    <text class="cls-1" transform="translate(50.68 44.9) rotate(125.33)"><tspan x="0" y="0">I</tspan></text>
    <text class="cls-1" transform="translate(50.35 45.38) rotate(128.06)"><tspan x="0" y="0">m</tspan></text>
    <text class="cls-1" transform="translate(49.41 46.59) rotate(131.99)"><tspan x="0" y="0">m</tspan></text>
    <text class="cls-1" transform="translate(48.34 47.76) rotate(134.81)"><tspan x="0" y="0"> </tspan></text>
    <text class="cls-1" transform="translate(47.93 48.18) rotate(136.66)"><tspan x="0" y="0">L</tspan></text>
    <text class="cls-1" transform="translate(47.29 48.78) rotate(139.32)"><tspan x="0" y="0">o</tspan></text>
    <text class="cls-1" transform="translate(46.38 49.56) rotate(141.82)"><tspan x="0" y="0">r</tspan></text>
    <text class="cls-1" transform="translate(45.83 49.99) rotate(144.06)"><tspan x="0" y="0">e</tspan></text>
    <text class="cls-1" transform="translate(44.95 50.65) rotate(147.48)"><tspan x="0" y="0">m</tspan></text>
    <text class="cls-1" transform="translate(43.63 51.47) rotate(150.19)"><tspan x="0" y="0"> </tspan></text>
    <text class="cls-1" transform="translate(43.09 51.78) rotate(151.73)"><tspan x="0" y="0">I</tspan></text>
    <text class="cls-1" transform="translate(42.6 52.05) rotate(153.9)"><tspan x="0" y="0">p</tspan></text>
    <text class="cls-1" transform="translate(41.55 52.56) rotate(156.36)"><tspan x="0" y="0">s</tspan></text>
    <text class="cls-1" transform="translate(40.82 52.89) rotate(158.71)"><tspan x="0" y="0">u</tspan></text>
    <text class="cls-1" transform="translate(39.82 53.29) rotate(162.06)"><tspan x="0" y="0">m</tspan></text>
    <text class="cls-1" transform="translate(38.34 53.75) rotate(164.76)"><tspan x="0" y="0"> </tspan></text>
    <text class="cls-1" transform="translate(37.76 53.91) rotate(166.65)"><tspan x="0" y="0">L</tspan></text>
    <text class="cls-1" transform="translate(36.9 54.12) rotate(169.34)"><tspan x="0" y="0">o</tspan></text>
    <text class="cls-1" transform="translate(35.75 54.33) rotate(171.74)"><tspan x="0" y="0">r</tspan></text>
    <text class="cls-1" transform="translate(35.04 54.44) rotate(174.05)"><tspan x="0" y="0">e</tspan></text>
    <text class="cls-1" transform="translate(33.93 54.56) rotate(176.88)"><tspan x="0" y="0">u</tspan></text>
    <text class="cls-1" transform="translate(32.88 54.62) rotate(-179.79)"><tspan x="0" y="0">m</tspan></text>
    <text class="cls-1" transform="translate(31.31 54.6) rotate(-177)"><tspan x="0" y="0"> </tspan></text>
    <text class="cls-1" transform="translate(30.72 54.57) rotate(-175.53)"><tspan x="0" y="0">I</tspan></text>
    <text class="cls-1" transform="translate(30.14 54.53) rotate(-173.27)"><tspan x="0" y="0">p</tspan></text>
    <text class="cls-1" transform="translate(28.97 54.39) rotate(-170.77)"><tspan x="0" y="0">s</tspan></text>
    <text class="cls-1" transform="translate(28.18 54.27) rotate(-168.37)"><tspan x="0" y="0">e</tspan></text>
    <text class="cls-1" transform="translate(27.1 54.05) rotate(-165.54)"><tspan x="0" y="0">E</tspan></text>
    <text class="cls-1" transform="translate(26.04 53.77) rotate(-162.8)"><tspan x="0" y="0">n</tspan></text>
    <text class="cls-1" transform="translate(25.02 53.46) rotate(-159.99)"><tspan x="0" y="0">d</tspan></text>
    <text class="cls-1" transform="translate(23.89 53.04) rotate(-157.68)"><tspan x="0" y="0"> </tspan></text>
    <text class="cls-1" transform="translate(23.33 52.81) rotate(-156.14)"><tspan x="0" y="0"> </tspan></text>
    <text class="cls-1" transform="translate(22.78 52.57) rotate(-154.6)"><tspan x="0" y="0"> </tspan></text>
    <text class="cls-1" transform="translate(22.23 52.31) rotate(-153.06)"><tspan x="0" y="0"> </tspan></text>
    <text class="cls-1" transform="translate(21.69 52.03) rotate(-151.52)"><tspan x="0" y="0"> </tspan></text>
    <text class="cls-1" transform="translate(21.15 51.74) rotate(-149.98)"><tspan x="0" y="0"> </tspan></text>
    <text class="cls-1" transform="translate(20.64 51.44) rotate(-148.47)"><tspan x="0" y="0"> </tspan></text>
    <text class="cls-1" transform="translate(20.13 51.13) rotate(-146.96)"><tspan x="0" y="0"> </tspan></text>
    <text class="cls-1" transform="translate(19.62 50.8) rotate(-145.41)"><tspan x="0" y="0"> </tspan></text>
  </g>
</svg>