<?xml version="1.0" encoding="UTF-8"?>
<svg id="Layer_2" data-name="Layer 2" xmlns="http://www.w3.org/2000/svg" viewBox="0 0 317.92 317.91">
  <defs>
    <style>
      .cls-1 {
        font-family: Futura-Medium, Futura;
        font-weight: 500;
      }

      .cls-1, .cls-2 {
        fill: #231f20;
        font-size: 4.4px;
      }

      .cls-2 {
        font-family: Futura-CondensedExtraBold, Futura;
        font-weight: 700;
      }
    </style>
  </defs>
  <g id="Layer_26" data-name="Layer 26">
    <text class="cls-1" transform="translate(61.51 102.7) rotate(-58.95)"><tspan x="0" y="0">M</tspan></text>
    <text class="cls-1" transform="translate(63.69 99.1) rotate(-57.23)"><tspan x="0" y="0">a</tspan></text>
    <text class="cls-1" transform="translate(65.12 96.89) rotate(-55.97)"><tspan x="0" y="0">n</tspan></text>
    <text class="cls-1" transform="translate(66.41 94.98) rotate(-54.8)"><tspan x="0" y="0">y</tspan></text>
    <text class="cls-1" transform="translate(67.78 93.04) rotate(-53.86)"><tspan x="0" y="0"> </tspan></text>
    <text class="cls-1" transform="translate(68.58 91.94) rotate(-52.85)"><tspan x="0" y="0">o</tspan></text>
    <text class="cls-1" transform="translate(70.16 89.86) rotate(-51.85)"><tspan x="0" y="0">f</tspan></text>
    <text class="cls-1" transform="translate(70.96 88.84) rotate(-51.18)"><tspan x="0" y="0"> </tspan></text>
    <text class="cls-1" transform="translate(71.81 87.78) rotate(-50.52)"><tspan x="0" y="0">t</tspan></text>
    <text class="cls-1" transform="translate(72.63 86.79) rotate(-49.56)"><tspan x="0" y="0">h</tspan></text>
    <text class="cls-1" transform="translate(74.18 84.96) rotate(-48.32)"><tspan x="0" y="0">e</tspan></text>
    <text class="cls-1" transform="translate(75.8 83.16) rotate(-47.36)"><tspan x="0" y="0"> </tspan></text>
    <text class="cls-1" transform="translate(76.7 82.17) rotate(-46.4)"><tspan x="0" y="0">e</tspan></text>
    <text class="cls-1" transform="translate(78.31 80.47) rotate(-45.19)"><tspan x="0" y="0">x</tspan></text>
    <text class="cls-1" transform="translate(79.96 78.81) rotate(-43.95)"><tspan x="0" y="0">a</tspan></text>
    <text class="cls-1" transform="translate(81.85 76.98) rotate(-42.38)"><tspan x="0" y="0">m</tspan></text>
    <text class="cls-1" transform="translate(84.44 74.63) rotate(-40.8)"><tspan x="0" y="0">p</tspan></text>
    <text class="cls-1" transform="translate(86.43 72.92) rotate(-39.85)"><tspan x="0" y="0">l</tspan></text>
    <text class="cls-1" transform="translate(87.27 72.21) rotate(-38.94)"><tspan x="0" y="0">e</tspan></text>
    <text class="cls-1" transform="translate(89.16 70.69) rotate(-37.87)"><tspan x="0" y="0">s</tspan></text>
    <text class="cls-1" transform="translate(90.54 69.61) rotate(-37.07)"><tspan x="0" y="0"> </tspan></text>
    <text class="cls-1" transform="translate(91.61 68.8) rotate(-36.2)"><tspan x="0" y="0">c</tspan></text>
    <text class="cls-1" transform="translate(93.31 67.56) rotate(-35.38)"><tspan x="0" y="0">i</tspan></text>
    <text class="cls-1" transform="translate(94.18 66.94) rotate(-34.69)"><tspan x="0" y="0">r</tspan></text>
    <text class="cls-1" transform="translate(95.5 66.02) rotate(-33.75)"><tspan x="0" y="0">c</tspan></text>
    <text class="cls-1" transform="translate(97.23 64.87) rotate(-32.94)"><tspan x="0" y="0">l</tspan></text>
    <text class="cls-1" transform="translate(98.13 64.28) rotate(-32.05)"><tspan x="0" y="0">e</tspan></text>
    <text class="cls-1" transform="translate(100.2 63) rotate(-31.09)"><tspan x="0" y="0"> </tspan></text>
    <text class="cls-1" transform="translate(101.34 62.3) rotate(-30.08)"><tspan x="0" y="0">b</tspan></text>
    <text class="cls-1" transform="translate(103.61 60.98) rotate(-28.74)"><tspan x="0" y="0">a</tspan></text>
    <text class="cls-1" transform="translate(105.91 59.73) rotate(-27.54)"><tspan x="0" y="0">c</tspan></text>
    <text class="cls-1" transform="translate(107.86 58.71) rotate(-26.4)"><tspan x="0" y="0">k</tspan></text>
    <text class="cls-1" transform="translate(109.81 57.75) rotate(-25.51)"><tspan x="0" y="0"> </tspan></text>
    <text class="cls-1" transform="translate(111.03 57.17) rotate(-24.86)"><tspan x="0" y="0">t</tspan></text>
    <text class="cls-1" transform="translate(112.13 56.65) rotate(-23.88)"><tspan x="0" y="0">o</tspan></text>
    <text class="cls-1" transform="translate(114.54 55.59) rotate(-22.87)"><tspan x="0" y="0"> </tspan></text>
    <text class="cls-1" transform="translate(115.79 55.06) rotate(-21.91)"><tspan x="0" y="0">n</tspan></text>
    <text class="cls-1" transform="translate(118.01 54.16) rotate(-20.64)"><tspan x="0" y="0">o</tspan></text>
    <text class="cls-1" transform="translate(120.5 53.23) rotate(-19.66)"><tspan x="0" y="0">t</tspan></text>
    <text class="cls-1" transform="translate(121.63 52.83) rotate(-19.08)"><tspan x="0" y="0">i</tspan></text>
    <text class="cls-1" transform="translate(122.65 52.47) rotate(-18.14)"><tspan x="0" y="0">o</tspan></text>
    <text class="cls-1" transform="translate(125.12 51.66) rotate(-16.88)"><tspan x="0" y="0">n</tspan></text>
    <text class="cls-1" transform="translate(127.44 50.96) rotate(-15.81)"><tspan x="0" y="0">s</tspan></text>
    <text class="cls-1" transform="translate(129.15 50.48) rotate(-15.02)"><tspan x="0" y="0"> </tspan></text>
    <text class="cls-1" transform="translate(130.45 50.12) rotate(-14.23)"><tspan x="0" y="0">s</tspan></text>
    <text class="cls-1" transform="translate(132.15 49.69) rotate(-13.19)"><tspan x="0" y="0">u</tspan></text>
    <text class="cls-1" transform="translate(134.47 49.15) rotate(-12.17)"><tspan x="0" y="0">r</tspan></text>
    <text class="cls-1" transform="translate(136.14 48.79) rotate(-11.31)"><tspan x="0" y="0">r</tspan></text>
    <text class="cls-1" transform="translate(137.7 48.47) rotate(-10.25)"><tspan x="0" y="0">o</tspan></text>
    <text class="cls-1" transform="translate(140.29 48) rotate(-8.98)"><tspan x="0" y="0">u</tspan></text>
    <text class="cls-1" transform="translate(142.62 47.64) rotate(-7.78)"><tspan x="0" y="0">n</tspan></text>
    <text class="cls-1" transform="translate(145 47.31) rotate(-6.5)"><tspan x="0" y="0">d</tspan></text>
    <text class="cls-1" transform="translate(147.62 47.02) rotate(-5.56)"><tspan x="0" y="0">i</tspan></text>
    <text class="cls-1" transform="translate(148.71 46.91) rotate(-4.67)"><tspan x="0" y="0">n</tspan></text>
    <text class="cls-1" transform="translate(151.09 46.71) rotate(-3.4)"><tspan x="0" y="0">g</tspan></text>
    <text class="cls-1" transform="translate(153.71 46.56) rotate(-2.39)"><tspan x="0" y="0"> </tspan></text>
    <text class="cls-1" transform="translate(155.06 46.51) rotate(-1.74)"><tspan x="0" y="0">t</tspan></text>
    <text class="cls-1" transform="translate(156.32 46.46) rotate(-.79)"><tspan x="0" y="0">h</tspan></text>
    <text class="cls-1" transform="translate(158.73 46.43) rotate(.45)"><tspan x="0" y="0">e</tspan></text>
    <text class="cls-1" transform="translate(161.13 46.45) rotate(1.4)"><tspan x="0" y="0"> </tspan></text>
    <text class="cls-1" transform="translate(162.49 46.48) rotate(2.42)"><tspan x="0" y="0">b</tspan></text>
    <text class="cls-1" transform="translate(165.09 46.59) rotate(3.75)"><tspan x="0" y="0">o</tspan></text>
    <text class="cls-1" transform="translate(167.73 46.76) rotate(5.1)"><tspan x="0" y="0">d</tspan></text>
    <text class="cls-1" transform="translate(170.32 46.99) rotate(6.37)"><tspan x="0" y="0">y</tspan></text>
    <text class="cls-1" transform="translate(172.49 47.24) rotate(7.23)"><tspan x="0" y="0">,</tspan></text>
    <text class="cls-1" transform="translate(173.85 47.41) rotate(7.93)"><tspan x="0" y="0"> </tspan></text>
    <text class="cls-1" transform="translate(175.18 47.59) rotate(9.14)"><tspan x="0" y="0">w</tspan></text>
    <text class="cls-1" transform="translate(178.51 48.13) rotate(10.62)"><tspan x="0" y="0">h</tspan></text>
    <text class="cls-1" transform="translate(180.87 48.58) rotate(11.51)"><tspan x="0" y="0">i</tspan></text>
    <text class="cls-1" transform="translate(181.93 48.79) rotate(12.32)"><tspan x="0" y="0">c</tspan></text>
    <text class="cls-1" transform="translate(184.08 49.26) rotate(13.53)"><tspan x="0" y="0">h</tspan></text>
    <text class="cls-1" transform="translate(186.42 49.82) rotate(14.5)"><tspan x="0" y="0"> </tspan></text>
    <text class="cls-1" transform="translate(187.73 50.16) rotate(15.12)"><tspan x="0" y="0">i</tspan></text>
    <text class="cls-1" transform="translate(188.77 50.44) rotate(16.02)"><tspan x="0" y="0">n</tspan></text>
    <text class="cls-1" transform="translate(191.08 51.11) rotate(16.98)"><tspan x="0" y="0"> </tspan></text>
    <text class="cls-1" transform="translate(192.35 51.49) rotate(17.99)"><tspan x="0" y="0">a</tspan></text>
    <text class="cls-1" transform="translate(194.85 52.31) rotate(19.01)"><tspan x="0" y="0"> </tspan></text>
    <text class="cls-1" transform="translate(196.12 52.74) rotate(19.88)"><tspan x="0" y="0">c</tspan></text>
    <text class="cls-1" transform="translate(198.08 53.45) rotate(20.69)"><tspan x="0" y="0">l</tspan></text>
    <text class="cls-1" transform="translate(199.1 53.83) rotate(21.64)"><tspan x="0" y="0">a</tspan></text>
    <text class="cls-1" transform="translate(201.53 54.8) rotate(22.76)"><tspan x="0" y="0">s</tspan></text>
    <text class="cls-1" transform="translate(203.17 55.49) rotate(23.66)"><tspan x="0" y="0">s</tspan></text>
    <text class="cls-1" transform="translate(204.79 56.2) rotate(24.38)"><tspan x="0" y="0">i</tspan></text>
    <text class="cls-1" transform="translate(205.8 56.65) rotate(25.2)"><tspan x="0" y="0">c</tspan></text>
    <text class="cls-1" transform="translate(207.67 57.54) rotate(26.06)"><tspan x="0" y="0"> </tspan></text>
    <text class="cls-1" transform="translate(208.87 58.12) rotate(27.17)"><tspan x="0" y="0">C</tspan></text>
    <text class="cls-1" transform="translate(211.6 59.52) rotate(28.59)"><tspan x="0" y="0">a</tspan></text>
    <text class="cls-1" transform="translate(213.9 60.79) rotate(29.07)"><tspan x="0" y="0">r</tspan></text>
    <text class="cls-1" transform="translate(215.46 61.66) rotate(30.93)"><tspan x="0" y="0">t</tspan></text>
    <text class="cls-1" transform="translate(216.51 62.28) rotate(31.36)"><tspan x="0" y="0">e</tspan></text>
    <text class="cls-1" transform="translate(218.58 63.55) rotate(32.41)"><tspan x="0" y="0">s</tspan></text>
    <text class="cls-1" transform="translate(220.09 64.51) rotate(33.14)"><tspan x="0" y="0">i</tspan></text>
    <text class="cls-1" transform="translate(221.01 65.1) rotate(34.08)"><tspan x="0" y="0">a</tspan></text>
    <text class="cls-1" transform="translate(223.17 66.56) rotate(35.35)"><tspan x="0" y="0">n</tspan></text>
    <text class="cls-1" transform="translate(225.13 67.95) rotate(36.3)"><tspan x="0" y="0"> </tspan></text>
    <text class="cls-1" transform="translate(226.21 68.75) rotate(37.09)"><tspan x="0" y="0">s</tspan></text>
    <text class="cls-1" transform="translate(227.61 69.8) rotate(38.15)"><tspan x="0" y="0">e</tspan></text>
    <text class="cls-1" transform="translate(229.53 71.31) rotate(39.39)"><tspan x="0" y="0">n</tspan></text>
    <text class="cls-1" transform="translate(231.37 72.82) rotate(40.44)"><tspan x="0" y="0">s</tspan></text>
    <text class="cls-1" transform="translate(232.73 73.98) rotate(41.52)"><tspan x="0" y="0">e</tspan></text>
    <text class="cls-1" transform="translate(234.53 75.58) rotate(42.49)"><tspan x="0" y="0"> </tspan></text>
    <text class="cls-1" transform="translate(235.53 76.5) rotate(43.11)"><tspan x="0" y="0">i</tspan></text>
    <text class="cls-1" transform="translate(236.32 77.23) rotate(43.84)"><tspan x="0" y="0">s</tspan></text>
    <text class="cls-1" transform="translate(237.6 78.46) rotate(44.64)"><tspan x="0" y="0"> </tspan></text>
    <text class="cls-1" transform="translate(238.57 79.42) rotate(45.3)"><tspan x="0" y="0">t</tspan></text>
    <text class="cls-1" transform="translate(239.45 80.31) rotate(46.26)"><tspan x="0" y="0">h</tspan></text>
    <text class="cls-1" transform="translate(241.12 82.05) rotate(47.5)"><tspan x="0" y="0">e</tspan></text>
    <text class="cls-1" transform="translate(242.74 83.82) rotate(48.45)"><tspan x="0" y="0"> </tspan></text>
    <text class="cls-1" transform="translate(243.64 84.83) rotate(49.34)"><tspan x="0" y="0">c</tspan></text>
    <text class="cls-1" transform="translate(245 86.42) rotate(50.55)"><tspan x="0" y="0">o</tspan></text>
    <text class="cls-1" transform="translate(246.67 88.45) rotate(51.84)"><tspan x="0" y="0">n</tspan></text>
    <text class="cls-1" transform="translate(248.14 90.32) rotate(52.75)"><tspan x="0" y="0">t</tspan></text>
    <text class="cls-1" transform="translate(248.9 91.32) rotate(53.76)"><tspan x="0" y="0">a</tspan></text>
    <text class="cls-1" transform="translate(250.44 93.42) rotate(54.7)"><tspan x="0" y="0">i</tspan></text>
    <text class="cls-1" transform="translate(251.08 94.31) rotate(55.6)"><tspan x="0" y="0">n</tspan></text>
    <text class="cls-1" transform="translate(252.43 96.29) rotate(56.83)"><tspan x="0" y="0">e</tspan></text>
    <text class="cls-1" transform="translate(253.75 98.31) rotate(57.86)"><tspan x="0" y="0">r</tspan></text>
    <text class="cls-1" transform="translate(254.53 99.55) rotate(58.54)"><tspan x="0" y="0">,</tspan></text>
    <text class="cls-1" transform="translate(255.23 100.69) rotate(59.22)"><tspan x="0" y="0"> </tspan></text>
    <text class="cls-1" transform="translate(255.92 101.86) rotate(59.87)"><tspan x="0" y="0">t</tspan></text>
    <text class="cls-1" transform="translate(256.57 102.96) rotate(60.83)"><tspan x="0" y="0">h</tspan></text>
    <text class="cls-1" transform="translate(257.74 105.07) rotate(62.06)"><tspan x="0" y="0">e</tspan></text>
    <text class="cls-1" transform="translate(258.86 107.19) rotate(63.01)"><tspan x="0" y="0"> </tspan></text>
    <text class="cls-1" transform="translate(259.48 108.39) rotate(64.02)"><tspan x="0" y="0">b</tspan></text>
    <text class="cls-1" transform="translate(260.63 110.74) rotate(65.35)"><tspan x="0" y="0">o</tspan></text>
    <text class="cls-1" transform="translate(261.72 113.13) rotate(66.62)"><tspan x="0" y="0">u</tspan></text>
    <text class="cls-1" transform="translate(262.67 115.33) rotate(67.84)"><tspan x="0" y="0">n</tspan></text>
    <text class="cls-1" transform="translate(263.57 117.53) rotate(69.11)"><tspan x="0" y="0">d</tspan></text>
    <text class="cls-1" transform="translate(264.5 119.97) rotate(70.43)"><tspan x="0" y="0">a</tspan></text>
    <text class="cls-1" transform="translate(265.38 122.45) rotate(71.51)"><tspan x="0" y="0">r</tspan></text>
    <text class="cls-1" transform="translate(265.89 123.96) rotate(72.57)"><tspan x="0" y="0">a</tspan></text>
    <text class="cls-1" transform="translate(266.69 126.51) rotate(73.86)"><tspan x="0" y="0">y</tspan></text>
    <text class="cls-1" transform="translate(267.29 128.61) rotate(74.7)"><tspan x="0" y="0">,</tspan></text>
    <text class="cls-1" transform="translate(267.65 129.91) rotate(75.38)"><tspan x="0" y="0"> </tspan></text>
    <text class="cls-1" transform="translate(267.99 131.21) rotate(76.03)"><tspan x="0" y="0">t</tspan></text>
    <text class="cls-1" transform="translate(268.3 132.47) rotate(76.99)"><tspan x="0" y="0">h</tspan></text>
    <text class="cls-1" transform="translate(268.84 134.78) rotate(78.25)"><tspan x="0" y="0">a</tspan></text>
    <text class="cls-1" transform="translate(269.37 137.36) rotate(79.22)"><tspan x="0" y="0">t</tspan></text>
    <text class="cls-1" transform="translate(269.59 138.53) rotate(79.86)"><tspan x="0" y="0"> </tspan></text>
    <text class="cls-1" transform="translate(269.84 139.87) rotate(80.88)"><tspan x="0" y="0">d</tspan></text>
    <text class="cls-1" transform="translate(270.25 142.43) rotate(82.14)"><tspan x="0" y="0">e</tspan></text>
    <text class="cls-1" transform="translate(270.58 144.86) rotate(83.04)"><tspan x="0" y="0">l</tspan></text>
    <text class="cls-1" transform="translate(270.71 145.93) rotate(83.58)"><tspan x="0" y="0">i</tspan></text>
    <text class="cls-1" transform="translate(270.84 147.01) rotate(84.48)"><tspan x="0" y="0">n</tspan></text>
    <text class="cls-1" transform="translate(271.07 149.38) rotate(85.69)"><tspan x="0" y="0">e</tspan></text>
    <text class="cls-1" transform="translate(271.25 151.79) rotate(86.97)"><tspan x="0" y="0">a</tspan></text>
    <text class="cls-1" transform="translate(271.38 154.41) rotate(87.94)"><tspan x="0" y="0">t</tspan></text>
    <text class="cls-1" transform="translate(271.43 155.64) rotate(88.88)"><tspan x="0" y="0">e</tspan></text>
    <text class="cls-1" transform="translate(271.48 158.07) rotate(89.95)"><tspan x="0" y="0">s</tspan></text>
    <text class="cls-1" transform="translate(271.48 159.85) rotate(90.75)"><tspan x="0" y="0"> </tspan></text>
    <text class="cls-1" transform="translate(271.46 161.18) rotate(91.39)"><tspan x="0" y="0">t</tspan></text>
    <text class="cls-1" transform="translate(271.43 162.47) rotate(92.36)"><tspan x="0" y="0">h</tspan></text>
    <text class="cls-1" transform="translate(271.34 164.84) rotate(93.58)"><tspan x="0" y="0">e</tspan></text>
    <text class="cls-1" transform="translate(271.18 167.27) rotate(94.55)"><tspan x="0" y="0"> </tspan></text>
    <text class="cls-1" transform="translate(271.07 168.62) rotate(95.17)"><tspan x="0" y="0">i</tspan></text>
    <text class="cls-1" transform="translate(270.98 169.7) rotate(96.07)"><tspan x="0" y="0">n</tspan></text>
    <text class="cls-1" transform="translate(270.72 172.09) rotate(97.29)"><tspan x="0" y="0">n</tspan></text>
    <text class="cls-1" transform="translate(270.42 174.46) rotate(98.52)"><tspan x="0" y="0">e</tspan></text>
    <text class="cls-1" transform="translate(270.06 176.84) rotate(99.56)"><tspan x="0" y="0">r</tspan></text>
    <text class="cls-1" transform="translate(269.78 178.47) rotate(100.33)"><tspan x="0" y="0"> </tspan></text>
    <text class="cls-1" transform="translate(269.55 179.79) rotate(101.13)"><tspan x="0" y="0">s</tspan></text>
    <text class="cls-1" transform="translate(269.21 181.52) rotate(102.19)"><tspan x="0" y="0">u</tspan></text>
    <text class="cls-1" transform="translate(268.71 183.85) rotate(103.48)"><tspan x="0" y="0">b</tspan></text>
    <text class="cls-1" transform="translate(268.09 186.4) rotate(104.6)"><tspan x="0" y="0">s</tspan></text>
    <text class="cls-1" transform="translate(267.64 188.13) rotate(105.37)"><tspan x="0" y="0">t</tspan></text>
    <text class="cls-1" transform="translate(267.32 189.31) rotate(106.36)"><tspan x="0" y="0">a</tspan></text>
    <text class="cls-1" transform="translate(266.58 191.82) rotate(107.65)"><tspan x="0" y="0">n</tspan></text>
    <text class="cls-1" transform="translate(265.86 194.1) rotate(108.79)"><tspan x="0" y="0">c</tspan></text>
    <text class="cls-1" transform="translate(265.19 196.06) rotate(109.94)"><tspan x="0" y="0">e</tspan></text>
    <text class="cls-1" transform="translate(264.36 198.34) rotate(110.91)"><tspan x="0" y="0"> </tspan></text>
    <text class="cls-1" transform="translate(263.88 199.6) rotate(111.92)"><tspan x="0" y="0">o</tspan></text>
    <text class="cls-1" transform="translate(262.9 202.03) rotate(112.91)"><tspan x="0" y="0">f</tspan></text>
    <text class="cls-1" transform="translate(262.39 203.23) rotate(113.59)"><tspan x="0" y="0"> </tspan></text>
    <text class="cls-1" transform="translate(261.85 204.46) rotate(114.23)"><tspan x="0" y="0">t</tspan></text>
    <text class="cls-1" transform="translate(261.33 205.65) rotate(115.2)"><tspan x="0" y="0">h</tspan></text>
    <text class="cls-1" transform="translate(260.31 207.8) rotate(116.41)"><tspan x="0" y="0">e</tspan></text>
    <text class="cls-1" transform="translate(259.23 209.98) rotate(117.36)"><tspan x="0" y="0"> </tspan></text>
    <text class="cls-1" transform="translate(258.61 211.17) rotate(118.14)"><tspan x="0" y="0">s</tspan></text>
    <text class="cls-1" transform="translate(257.78 212.73) rotate(119.07)"><tspan x="0" y="0">o</tspan></text>
    <text class="cls-1" transform="translate(256.51 215.02) rotate(120.93)"><tspan x="0" y="0">u</tspan></text>
    <text class="cls-1" transform="translate(255.28 217.08) rotate(121.36)"><tspan x="0" y="0">l</tspan></text>
    <text class="cls-1" transform="translate(254.72 218.01) rotate(121.97)"><tspan x="0" y="0">.</tspan></text>
    <text class="cls-1" transform="translate(254 219.16) rotate(122.65)"><tspan x="0" y="0"> </tspan></text>
    <text class="cls-1" transform="translate(253.28 220.28) rotate(123.64)"><tspan x="0" y="0">B</tspan></text>
    <text class="cls-1" transform="translate(251.85 222.44) rotate(124.91)"><tspan x="0" y="0">e</tspan></text>
    <text class="cls-1" transform="translate(250.46 224.43) rotate(126.05)"><tspan x="0" y="0">c</tspan></text>
    <text class="cls-1" transform="translate(249.24 226.11) rotate(127.24)"><tspan x="0" y="0">a</tspan></text>
    <text class="cls-1" transform="translate(247.66 228.18) rotate(128.51)"><tspan x="0" y="0">u</tspan></text>
    <text class="cls-1" transform="translate(246.18 230.04) rotate(129.57)"><tspan x="0" y="0">s</tspan></text>
    <text class="cls-1" transform="translate(245.04 231.42) rotate(130.64)"><tspan x="0" y="0">e</tspan></text>
    <text class="cls-1" transform="translate(243.46 233.25) rotate(131.61)"><tspan x="0" y="0"> </tspan></text>
    <text class="cls-1" transform="translate(242.58 234.26) rotate(132.82)"><tspan x="0" y="0">w</tspan></text>
    <text class="cls-1" transform="translate(240.32 236.69) rotate(134.27)"><tspan x="0" y="0">e</tspan></text>
    <text class="cls-1" transform="translate(238.64 238.41) rotate(135.23)"><tspan x="0" y="0"> </tspan></text>
    <text class="cls-1" transform="translate(237.68 239.36) rotate(135.86)"><tspan x="0" y="0">i</tspan></text>
    <text class="cls-1" transform="translate(236.9 240.13) rotate(136.81)"><tspan x="0" y="0">d</tspan></text>
    <text class="cls-1" transform="translate(234.99 241.92) rotate(138.11)"><tspan x="0" y="0">e</tspan></text>
    <text class="cls-1" transform="translate(233.2 243.53) rotate(139.34)"><tspan x="0" y="0">n</tspan></text>
    <text class="cls-1" transform="translate(231.36 245.1) rotate(140.27)"><tspan x="0" y="0">t</tspan></text>
    <text class="cls-1" transform="translate(230.45 245.86) rotate(140.85)"><tspan x="0" y="0">i</tspan></text>
    <text class="cls-1" transform="translate(229.61 246.54) rotate(141.45)"><tspan x="0" y="0">f</tspan></text>
    <text class="cls-1" transform="translate(228.6 247.35) rotate(142.4)"><tspan x="0" y="0">y</tspan></text>
    <text class="cls-1" transform="translate(226.71 248.8) rotate(143.35)"><tspan x="0" y="0"> </tspan></text>
    <text class="cls-1" transform="translate(225.63 249.61) rotate(144.37)"><tspan x="0" y="0">a</tspan></text>
    <text class="cls-1" transform="translate(223.51 251.13) rotate(145.49)"><tspan x="0" y="0">s</tspan></text>
    <text class="cls-1" transform="translate(222.04 252.14) rotate(146.29)"><tspan x="0" y="0"> </tspan></text>
    <text class="cls-1" transform="translate(220.92 252.89) rotate(147.25)"><tspan x="0" y="0">h</tspan></text>
    <text class="cls-1" transform="translate(218.9 254.19) rotate(148.53)"><tspan x="0" y="0">a</tspan></text>
    <text class="cls-1" transform="translate(216.64 255.57) rotate(149.78)"><tspan x="0" y="0">v</tspan></text>
    <text class="cls-1" transform="translate(214.74 256.67) rotate(150.61)"><tspan x="0" y="0">i</tspan></text>
    <text class="cls-1" transform="translate(213.8 257.21) rotate(151.5)"><tspan x="0" y="0">n</tspan></text>
    <text class="cls-1" transform="translate(211.7 258.35) rotate(152.77)"><tspan x="0" y="0">g</tspan></text>
    <text class="cls-1" transform="translate(209.36 259.55) rotate(153.78)"><tspan x="0" y="0"> </tspan></text>
    <text class="cls-1" transform="translate(208.15 260.15) rotate(154.79)"><tspan x="0" y="0">a</tspan></text>
    <text class="cls-1" transform="translate(205.79 261.26) rotate(156.06)"><tspan x="0" y="0">n</tspan></text>
    <text class="cls-1" transform="translate(203.59 262.23) rotate(157.02)"><tspan x="0" y="0"> </tspan></text>
    <text class="cls-2" transform="translate(202.35 262.76) rotate(157.97)"><tspan x="0" y="0">o</tspan></text>
    <text class="cls-2" transform="translate(200.11 263.67) rotate(159.21)"><tspan x="0" y="0">u</tspan></text>
    <text class="cls-2" transform="translate(197.81 264.54) rotate(160.21)"><tspan x="0" y="0">t</tspan></text>
    <text class="cls-2" transform="translate(196.39 265.05) rotate(161.2)"><tspan x="0" y="0">e</tspan></text>
    <text class="cls-2" transform="translate(194.15 265.81) rotate(162.22)"><tspan x="0" y="0">r</tspan></text>
    <text class="cls-2" transform="translate(192.52 266.33) rotate(162.99)"><tspan x="0" y="0"> </tspan></text>
    <text class="cls-2" transform="translate(191.25 266.72) rotate(163.82)"><tspan x="0" y="0">s</tspan></text>
    <text class="cls-2" transform="translate(189.38 267.27) rotate(164.93)"><tspan x="0" y="0">h</tspan></text>
    <text class="cls-2" transform="translate(187.05 267.9) rotate(166.14)"><tspan x="0" y="0">e</tspan></text>
    <text class="cls-2" transform="translate(184.74 268.46) rotate(167.06)"><tspan x="0" y="0">l</tspan></text>
    <text class="cls-2" transform="translate(183.53 268.74) rotate(167.69)"><tspan x="0" y="0">l</tspan></text>
    <text class="cls-1" transform="translate(182.3 269.01) rotate(168.35)"><tspan x="0" y="0"> </tspan></text>
    <text class="cls-1" transform="translate(180.98 269.29) rotate(169.36)"><tspan x="0" y="0">a</tspan></text>
    <text class="cls-1" transform="translate(178.4 269.77) rotate(170.63)"><tspan x="0" y="0">n</tspan></text>
    <text class="cls-1" transform="translate(176.04 270.16) rotate(171.9)"><tspan x="0" y="0">d</tspan></text>
    <text class="cls-1" transform="translate(173.44 270.53) rotate(172.91)"><tspan x="0" y="0"> </tspan></text>
    <text class="cls-1" transform="translate(172.09 270.69) rotate(173.53)"><tspan x="0" y="0">i</tspan></text>
    <text class="cls-1" transform="translate(171.02 270.82) rotate(174.41)"><tspan x="0" y="0">n</tspan></text>
    <text class="cls-1" transform="translate(168.62 271.05) rotate(175.63)"><tspan x="0" y="0">n</tspan></text>
    <text class="cls-1" transform="translate(166.25 271.24) rotate(176.85)"><tspan x="0" y="0">e</tspan></text>
    <text class="cls-1" transform="translate(163.85 271.37) rotate(177.87)"><tspan x="0" y="0">r</tspan></text>
    <text class="cls-1" transform="translate(162.2 271.43) rotate(178.64)"><tspan x="0" y="0"> </tspan></text>
    <text class="cls-1" transform="translate(160.85 271.46) rotate(179.51)"><tspan x="0" y="0">c</tspan></text>
    <text class="cls-1" transform="translate(158.79 271.48) rotate(-179.3)"><tspan x="0" y="0">o</tspan></text>
    <text class="cls-1" transform="translate(156.14 271.44) rotate(-178.2)"><tspan x="0" y="0">r</tspan></text>
    <text class="cls-1" transform="translate(154.56 271.4) rotate(-177.19)"><tspan x="0" y="0">e</tspan></text>
    <text class="cls-1" transform="translate(152.13 271.27) rotate(-176.22)"><tspan x="0" y="0">,</tspan></text>
    <text class="cls-1" transform="translate(150.79 271.19) rotate(-175.53)"><tspan x="0" y="0"> </tspan></text>
    <text class="cls-1" transform="translate(149.45 271.09) rotate(-174.32)"><tspan x="0" y="0">w</tspan></text>
    <text class="cls-1" transform="translate(146.13 270.76) rotate(-172.86)"><tspan x="0" y="0">e</tspan></text>
    <text class="cls-1" transform="translate(143.73 270.45) rotate(-171.9)"><tspan x="0" y="0"> </tspan></text>
    <text class="cls-1" transform="translate(142.41 270.27) rotate(-170.88)"><tspan x="0" y="0">p</tspan></text>
    <text class="cls-1" transform="translate(139.82 269.85) rotate(-169.79)"><tspan x="0" y="0">r</tspan></text>
    <text class="cls-1" transform="translate(138.25 269.57) rotate(-168.72)"><tspan x="0" y="0">o</tspan></text>
    <text class="cls-1" transform="translate(135.67 269.05) rotate(-167.77)"><tspan x="0" y="0">j</tspan></text>
    <text class="cls-1" transform="translate(134.62 268.83) rotate(-166.87)"><tspan x="0" y="0">e</tspan></text>
    <text class="cls-1" transform="translate(132.26 268.28) rotate(-165.71)"><tspan x="0" y="0">c</tspan></text>
    <text class="cls-1" transform="translate(130.25 267.76) rotate(-164.88)"><tspan x="0" y="0">t</tspan></text>
    <text class="cls-1" transform="translate(129.08 267.45) rotate(-164.22)"><tspan x="0" y="0"> </tspan></text>
    <text class="cls-1" transform="translate(127.79 267.08) rotate(-163.57)"><tspan x="0" y="0">t</tspan></text>
    <text class="cls-1" transform="translate(126.55 266.72) rotate(-162.6)"><tspan x="0" y="0">h</tspan></text>
    <text class="cls-1" transform="translate(124.28 266.01) rotate(-161.32)"><tspan x="0" y="0">a</tspan></text>
    <text class="cls-1" transform="translate(121.79 265.16) rotate(-160.34)"><tspan x="0" y="0">t</tspan></text>
    <text class="cls-1" transform="translate(120.66 264.76) rotate(-159.69)"><tspan x="0" y="0"> </tspan></text>
    <text class="cls-1" transform="translate(119.41 264.29) rotate(-159.07)"><tspan x="0" y="0">i</tspan></text>
    <text class="cls-1" transform="translate(118.39 263.91) rotate(-158.13)"><tspan x="0" y="0">d</tspan></text>
    <text class="cls-1" transform="translate(115.95 262.93) rotate(-156.84)"><tspan x="0" y="0">e</tspan></text>
    <text class="cls-1" transform="translate(113.74 261.99) rotate(-155.62)"><tspan x="0" y="0">n</tspan></text>
    <text class="cls-1" transform="translate(111.56 260.99) rotate(-154.71)"><tspan x="0" y="0">t</tspan></text>
    <text class="cls-1" transform="translate(110.46 260.47) rotate(-154.13)"><tspan x="0" y="0">i</tspan></text>
    <text class="cls-1" transform="translate(109.51 260.01) rotate(-153.54)"><tspan x="0" y="0">f</tspan></text>
    <text class="cls-1" transform="translate(108.24 259.38) rotate(-152.88)"><tspan x="0" y="0">i</tspan></text>
    <text class="cls-1" transform="translate(107.29 258.89) rotate(-152.09)"><tspan x="0" y="0">c</tspan></text>
    <text class="cls-1" transform="translate(105.44 257.92) rotate(-150.93)"><tspan x="0" y="0">a</tspan></text>
    <text class="cls-1" transform="translate(103.15 256.65) rotate(-149.07)"><tspan x="0" y="0">t</tspan><tspan x="1.19" y="-.01">i</tspan></text>
    <text class="cls-1" transform="translate(101.19 255.5) rotate(-148.46)"><tspan x="0" y="0">o</tspan></text>
    <text class="cls-1" transform="translate(98.94 254.12) rotate(-147.19)"><tspan x="0" y="0">n</tspan></text>
    <text class="cls-1" transform="translate(96.93 252.82) rotate(-146.25)"><tspan x="0" y="0"> </tspan></text>
    <text class="cls-1" transform="translate(95.8 252.07) rotate(-145.24)"><tspan x="0" y="0">o</tspan></text>
    <text class="cls-1" transform="translate(93.65 250.58) rotate(-143.98)"><tspan x="0" y="0">n</tspan></text>
    <text class="cls-1" transform="translate(91.71 249.16) rotate(-143.06)"><tspan x="0" y="0">t</tspan></text>
    <text class="cls-1" transform="translate(90.74 248.44) rotate(-142.08)"><tspan x="0" y="0">o</tspan></text>
    <text class="cls-1" transform="translate(88.67 246.82) rotate(-141.07)"><tspan x="0" y="0"> </tspan></text>
    <text class="cls-1" transform="translate(87.61 245.97) rotate(-140.1)"><tspan x="0" y="0">e</tspan></text>
    <text class="cls-1" transform="translate(85.81 244.46) rotate(-138.95)"><tspan x="0" y="0">v</tspan></text>
    <text class="cls-1" transform="translate(84.21 243.07) rotate(-137.81)"><tspan x="0" y="0">e</tspan></text>
    <text class="cls-1" transform="translate(82.43 241.45) rotate(-136.78)"><tspan x="0" y="0">r</tspan></text>
    <text class="cls-1" transform="translate(81.1 240.2) rotate(-135.65)"><tspan x="0" y="0">y</tspan></text>
    <text class="cls-1" transform="translate(79.4 238.54) rotate(-134.74)"><tspan x="0" y="0">t</tspan></text>
    <text class="cls-1" transform="translate(78.5 237.63) rotate(-133.77)"><tspan x="0" y="0">h</tspan></text>
    <text class="cls-1" transform="translate(76.85 235.9) rotate(-132.88)"><tspan x="0" y="0">i</tspan></text>
    <text class="cls-1" transform="translate(76.1 235.1) rotate(-131.98)"><tspan x="0" y="0">n</tspan></text>
    <text class="cls-1" transform="translate(74.49 233.31) rotate(-130.68)"><tspan x="0" y="0">g</tspan></text>
    <text class="cls-1" transform="translate(72.78 231.32) rotate(-129.67)"><tspan x="0" y="0">.</tspan></text>
  </g>
</svg>