<?xml version="1.0" encoding="UTF-8"?>
<svg id="Layer_2" data-name="Layer 2" xmlns="http://www.w3.org/2000/svg" viewBox="0 0 63.91 64.05">
  <defs>
    <style>
      .cls-1 {
        fill: #231f20;
        font-family: Futura-Medium, Futura;
        font-size: 2.3px;
        font-weight: 500;
      }
    </style>
  </defs>
  <g id="Layer_4" data-name="Layer 4">
    <text class="cls-1" transform="translate(31.97 2.01) rotate(1.59)"><tspan x="0" y="0">A</tspan></text>
    <text class="cls-1" transform="translate(33.64 2.07) rotate(3.81)"><tspan x="0" y="0"> </tspan></text>
    <text class="cls-1" transform="translate(34.35 2.11) rotate(5.53)"><tspan x="0" y="0">c</tspan></text>
    <text class="cls-1" transform="translate(35.44 2.22) rotate(7.87)"><tspan x="0" y="0">o</tspan></text>
    <text class="cls-1" transform="translate(36.76 2.39) rotate(10.84)"><tspan x="0" y="0">m</tspan></text>
    <text class="cls-1" transform="translate(38.58 2.75) rotate(13.98)"><tspan x="0" y="0">p</tspan></text>
    <text class="cls-1" transform="translate(39.88 3.08) rotate(16.08)"><tspan x="0" y="0">r</tspan></text>
    <text class="cls-1" transform="translate(40.69 3.3) rotate(18.07)"><tspan x="0" y="0">e</tspan></text>
    <text class="cls-1" transform="translate(41.89 3.7) rotate(20.2)"><tspan x="0" y="0">s</tspan></text>
    <text class="cls-1" transform="translate(42.75 4.02) rotate(21.96)"><tspan x="0" y="0">s</tspan></text>
    <text class="cls-1" transform="translate(43.6 4.36) rotate(23.37)"><tspan x="0" y="0">i</tspan></text>
    <text class="cls-1" transform="translate(44.11 4.57) rotate(25.2)"><tspan x="0" y="0">o</tspan></text>
    <text class="cls-1" transform="translate(45.36 5.16) rotate(27.73)"><tspan x="0" y="0">n</tspan></text>
    <text class="cls-1" transform="translate(46.46 5.75) rotate(29.6)"><tspan x="0" y="0"> </tspan></text>
    <text class="cls-1" transform="translate(47.07 6.09) rotate(31.15)"><tspan x="0" y="0">s</tspan></text>
    <text class="cls-1" transform="translate(47.84 6.55) rotate(33.18)"><tspan x="0" y="0">h</tspan></text>
    <text class="cls-1" transform="translate(48.89 7.24) rotate(34.9)"><tspan x="0" y="0">i</tspan></text>
    <text class="cls-1" transform="translate(49.36 7.57) rotate(36.28)"><tspan x="0" y="0">r</tspan></text>
    <text class="cls-1" transform="translate(50.11 8.12) rotate(37.82)"><tspan x="0" y="0">t</tspan></text>
    <text class="cls-1" transform="translate(50.61 8.51) rotate(39.1)"><tspan x="0" y="0"> </tspan></text>
    <text class="cls-1" transform="translate(51.14 8.94) rotate(40.78)"><tspan x="0" y="0">c</tspan></text>
    <text class="cls-1" transform="translate(51.97 9.65) rotate(43.12)"><tspan x="0" y="0">a</tspan></text>
    <text class="cls-1" transform="translate(52.97 10.59) rotate(45.6)"><tspan x="0" y="0">n</tspan></text>
    <text class="cls-1" transform="translate(53.82 11.46) rotate(47.39)"><tspan x="0" y="0"> </tspan></text>
    <text class="cls-1" transform="translate(54.3 11.97) rotate(49.36)"><tspan x="0" y="0">b</tspan></text>
    <text class="cls-1" transform="translate(55.18 13) rotate(51.84)"><tspan x="0" y="0">e</tspan></text>
    <text class="cls-1" transform="translate(55.96 14.01) rotate(53.73)"><tspan x="0" y="0"> </tspan></text>
    <text class="cls-1" transform="translate(56.39 14.58) rotate(55.44)"><tspan x="0" y="0">c</tspan></text>
    <text class="cls-1" transform="translate(57 15.46) rotate(57.77)"><tspan x="0" y="0">o</tspan></text>
    <text class="cls-1" transform="translate(57.73 16.61) rotate(60.8)"><tspan x="0" y="0">m</tspan></text>
    <text class="cls-1" transform="translate(58.6 18.18) rotate(63.14)"><tspan x="0" y="0">f</tspan></text>
    <text class="cls-1" transform="translate(58.92 18.8) rotate(65.15)"><tspan x="0" y="0">o</tspan></text>
    <text class="cls-1" transform="translate(59.49 20.04) rotate(67.25)"><tspan x="0" y="0">r</tspan></text>
    <text class="cls-1" transform="translate(59.85 20.9) rotate(68.83)"><tspan x="0" y="0">t</tspan></text>
    <text class="cls-1" transform="translate(60.07 21.48) rotate(69.98)"><tspan x="0" y="0">i</tspan></text>
    <text class="cls-1" transform="translate(60.27 22.02) rotate(71.75)"><tspan x="0" y="0">n</tspan></text>
    <text class="cls-1" transform="translate(60.66 23.19) rotate(74.24)"><tspan x="0" y="0">g</tspan></text>
    <text class="cls-1" transform="translate(61.02 24.5) rotate(76.2)"><tspan x="0" y="0"> </tspan></text>
    <text class="cls-1" transform="translate(61.19 25.19) rotate(77.54)"><tspan x="0" y="0">f</tspan></text>
    <text class="cls-1" transform="translate(61.35 25.85) rotate(79.51)"><tspan x="0" y="0">o</tspan></text>
    <text class="cls-1" transform="translate(61.59 27.22) rotate(81.67)"><tspan x="0" y="0">r</tspan></text>
    <text class="cls-1" transform="translate(61.71 28.04) rotate(83.12)"><tspan x="0" y="0"> </tspan></text>
    <text class="cls-1" transform="translate(61.8 28.75) rotate(85.11)"><tspan x="0" y="0">a</tspan></text>
    <text class="cls-1" transform="translate(61.91 30.1) rotate(87.05)"><tspan x="0" y="0"> </tspan></text>
    <text class="cls-1" transform="translate(61.95 30.81) rotate(88.91)"><tspan x="0" y="0">h</tspan></text>
    <text class="cls-1" transform="translate(61.98 32.03) rotate(91.18)"><tspan x="0" y="0">u</tspan></text>
    <text class="cls-1" transform="translate(61.96 33.28) rotate(94.08)"><tspan x="0" y="0">m</tspan></text>
    <text class="cls-1" transform="translate(61.83 35.07) rotate(97.06)"><tspan x="0" y="0">a</tspan></text>
    <text class="cls-1" transform="translate(61.66 36.41) rotate(99.54)"><tspan x="0" y="0">n</tspan></text>
    <text class="cls-1" transform="translate(61.45 37.66) rotate(101.43)"><tspan x="0" y="0"> </tspan></text>
    <text class="cls-1" transform="translate(61.32 38.33) rotate(103.4)"><tspan x="0" y="0">o</tspan></text>
    <text class="cls-1" transform="translate(60.99 39.67) rotate(105.54)"><tspan x="0" y="0">r</tspan></text>
    <text class="cls-1" transform="translate(60.77 40.47) rotate(107.01)"><tspan x="0" y="0"> </tspan></text>
    <text class="cls-1" transform="translate(60.57 41.15) rotate(108.74)"><tspan x="0" y="0">c</tspan></text>
    <text class="cls-1" transform="translate(60.22 42.17) rotate(111.08)"><tspan x="0" y="0">a</tspan></text>
    <text class="cls-1" transform="translate(59.72 43.46) rotate(113.01)"><tspan x="0" y="0">t</tspan></text>
    <text class="cls-1" transform="translate(59.49 44.01) rotate(114.24)"><tspan x="0" y="0"> </tspan></text>
    <text class="cls-1" transform="translate(59.21 44.64) rotate(116.59)"><tspan x="0" y="0">w</tspan></text>
    <text class="cls-1" transform="translate(58.42 46.21) rotate(119.46)"><tspan x="0" y="0">h</tspan></text>
    <text class="cls-1" transform="translate(57.81 47.3) rotate(121.97)"><tspan x="0" y="0">o</tspan></text>
    <text class="cls-1" transform="translate(57.07 48.47) rotate(123.95)"><tspan x="0" y="0"> </tspan></text>
    <text class="cls-1" transform="translate(56.69 49.04) rotate(125.25)"><tspan x="0" y="0">f</tspan></text>
    <text class="cls-1" transform="translate(56.26 49.64) rotate(126.53)"><tspan x="0" y="0">i</tspan></text>
    <text class="cls-1" transform="translate(55.94 50.09) rotate(128.24)"><tspan x="0" y="0">n</tspan></text>
    <text class="cls-1" transform="translate(55.17 51.07) rotate(130.73)"><tspan x="0" y="0">d</tspan></text>
    <text class="cls-1" transform="translate(54.27 52.1) rotate(132.91)"><tspan x="0" y="0">s</tspan></text>
    <text class="cls-1" transform="translate(53.64 52.78) rotate(134.44)"><tspan x="0" y="0"> </tspan></text>
    <text class="cls-1" transform="translate(53.16 53.27) rotate(135.68)"><tspan x="0" y="0">t</tspan></text>
    <text class="cls-1" transform="translate(52.68 53.75) rotate(137.56)"><tspan x="0" y="0">h</tspan></text>
    <text class="cls-1" transform="translate(51.75 54.59) rotate(139.96)"><tspan x="0" y="0">e</tspan></text>
    <text class="cls-1" transform="translate(50.79 55.39) rotate(141.79)"><tspan x="0" y="0"> </tspan></text>
    <text class="cls-1" transform="translate(50.26 55.82) rotate(143.72)"><tspan x="0" y="0">p</tspan></text>
    <text class="cls-1" transform="translate(49.14 56.64) rotate(145.87)"><tspan x="0" y="0">r</tspan></text>
    <text class="cls-1" transform="translate(48.45 57.11) rotate(147.86)"><tspan x="0" y="0">e</tspan></text>
    <text class="cls-1" transform="translate(47.39 57.77) rotate(149.93)"><tspan x="0" y="0">s</tspan></text>
    <text class="cls-1" transform="translate(46.61 58.23) rotate(151.66)"><tspan x="0" y="0">s</tspan></text>
    <text class="cls-1" transform="translate(45.79 58.67) rotate(153.75)"><tspan x="0" y="0">u</tspan></text>
    <text class="cls-1" transform="translate(44.67 59.22) rotate(155.76)"><tspan x="0" y="0">r</tspan></text>
    <text class="cls-1" transform="translate(43.92 59.56) rotate(157.73)"><tspan x="0" y="0">e</tspan></text>
    <text class="cls-1" transform="translate(42.75 60.03) rotate(159.63)"><tspan x="0" y="0"> </tspan></text>
    <text class="cls-1" transform="translate(42.11 60.27) rotate(161.31)"><tspan x="0" y="0">c</tspan></text>
    <text class="cls-1" transform="translate(41.07 60.63) rotate(163.7)"><tspan x="0" y="0">o</tspan></text>
    <text class="cls-1" transform="translate(39.77 61.02) rotate(166.73)"><tspan x="0" y="0">m</tspan></text>
    <text class="cls-1" transform="translate(38.03 61.41) rotate(169.07)"><tspan x="0" y="0">f</tspan></text>
    <text class="cls-1" transform="translate(37.34 61.56) rotate(171.09)"><tspan x="0" y="0">o</tspan></text>
    <text class="cls-1" transform="translate(35.99 61.76) rotate(173.21)"><tspan x="0" y="0">r</tspan></text>
    <text class="cls-1" transform="translate(35.07 61.87) rotate(174.75)"><tspan x="0" y="0">t</tspan></text>
    <text class="cls-1" transform="translate(34.45 61.93) rotate(175.88)"><tspan x="0" y="0">i</tspan></text>
    <text class="cls-1" transform="translate(33.88 61.97) rotate(177.6)"><tspan x="0" y="0">n</tspan></text>
    <text class="cls-1" transform="translate(32.64 62.04) rotate(-179.07)"><tspan x="0" y="0">g</tspan></text>
    <text class="cls-1" transform="translate(31.27 62.02) rotate(-178)"><tspan x="0" y="0">,</tspan></text>
    <text class="cls-1" transform="translate(30.57 62) rotate(-176.69)"><tspan x="0" y="0"> </tspan></text>
    <text class="cls-1" transform="translate(29.88 61.96) rotate(-174.74)"><tspan x="0" y="0">b</tspan></text>
    <text class="cls-1" transform="translate(28.52 61.83) rotate(-172.26)"><tspan x="0" y="0">u</tspan></text>
    <text class="cls-1" transform="translate(27.3 61.66) rotate(-170.5)"><tspan x="0" y="0">t</tspan></text>
    <text class="cls-1" transform="translate(26.69 61.56) rotate(-169.24)"><tspan x="0" y="0"> </tspan></text>
    <text class="cls-1" transform="translate(26.01 61.44) rotate(-167.27)"><tspan x="0" y="0">o</tspan></text>
    <text class="cls-1" transform="translate(24.72 61.15) rotate(-164.95)"><tspan x="0" y="0">v</tspan></text>
    <text class="cls-1" transform="translate(23.66 60.86) rotate(-162.72)"><tspan x="0" y="0">e</tspan></text>
    <text class="cls-1" transform="translate(22.45 60.49) rotate(-160.68)"><tspan x="0" y="0">r</tspan></text>
    <text class="cls-1" transform="translate(21.54 60.18) rotate(-157.95)"><tspan x="0" y="0">w</tspan></text>
    <text class="cls-1" transform="translate(19.91 59.51) rotate(-155.06)"><tspan x="0" y="0">h</tspan></text>
    <text class="cls-1" transform="translate(18.8 58.99) rotate(-152.7)"><tspan x="0" y="0">e</tspan></text>
    <text class="cls-1" transform="translate(17.69 58.41) rotate(-150.97)"><tspan x="0" y="0">l</tspan></text>
    <text class="cls-1" transform="translate(17.18 58.14) rotate(-148.67)"><tspan x="0" y="0">m</tspan></text>
    <text class="cls-1" transform="translate(15.65 57.2) rotate(-146.43)"><tspan x="0" y="0">i</tspan></text>
    <text class="cls-1" transform="translate(15.18 56.89) rotate(-144.71)"><tspan x="0" y="0">n</tspan></text>
    <text class="cls-1" transform="translate(14.16 56.17) rotate(-142.22)"><tspan x="0" y="0">g</tspan></text>
    <text class="cls-1" transform="translate(13.08 55.33) rotate(-140.38)"><tspan x="0" y="0">l</tspan></text>
    <text class="cls-1" transform="translate(12.64 54.97) rotate(-138.67)"><tspan x="0" y="0">y</tspan></text>
    <text class="cls-1" transform="translate(11.7 54.14) rotate(-136.79)"><tspan x="0" y="0"> </tspan></text>
    <text class="cls-1" transform="translate(11.2 53.67) rotate(-135.13)"><tspan x="0" y="0">c</tspan></text>
    <text class="cls-1" transform="translate(10.43 52.9) rotate(-133.55)"><tspan x="0" y="0">l</tspan></text>
    <text class="cls-1" transform="translate(10.05 52.51) rotate(-131.76)"><tspan x="0" y="0">a</tspan></text>
    <text class="cls-1" transform="translate(9.14 51.49) rotate(-129.27)"><tspan x="0" y="0">u</tspan></text>
    <text class="cls-1" transform="translate(8.35 50.53) rotate(-127.22)"><tspan x="0" y="0">s</tspan></text>
    <text class="cls-1" transform="translate(7.8 49.79) rotate(-125.76)"><tspan x="0" y="0">t</tspan></text>
    <text class="cls-1" transform="translate(7.43 49.28) rotate(-124.34)"><tspan x="0" y="0">r</tspan></text>
    <text class="cls-1" transform="translate(6.96 48.61) rotate(-122.28)"><tspan x="0" y="0">o</tspan></text>
    <text class="cls-1" transform="translate(6.23 47.46) rotate(-119.68)"><tspan x="0" y="0">p</tspan></text>
    <text class="cls-1" transform="translate(5.57 46.28) rotate(-117.21)"><tspan x="0" y="0">h</tspan></text>
    <text class="cls-1" transform="translate(4.99 45.17) rotate(-114.68)"><tspan x="0" y="0">o</tspan></text>
    <text class="cls-1" transform="translate(4.42 43.92) rotate(-112.05)"><tspan x="0" y="0">b</tspan></text>
    <text class="cls-1" transform="translate(3.91 42.65) rotate(-110.2)"><tspan x="0" y="0">i</tspan></text>
    <text class="cls-1" transform="translate(3.71 42.12) rotate(-108.61)"><tspan x="0" y="0">c</tspan></text>
    <text class="cls-1" transform="translate(3.37 41.11) rotate(-106.92)"><tspan x="0" y="0"> </tspan></text>
    <text class="cls-1" transform="translate(3.17 40.43) rotate(-105.59)"><tspan x="0" y="0">f</tspan></text>
    <text class="cls-1" transform="translate(2.97 39.77) rotate(-103.58)"><tspan x="0" y="0">o</tspan></text>
    <text class="cls-1" transform="translate(2.66 38.45) rotate(-101.48)"><tspan x="0" y="0">r</tspan></text>
    <text class="cls-1" transform="translate(2.49 37.59) rotate(-99.95)"><tspan x="0" y="0"> </tspan></text>
    <text class="cls-1" transform="translate(2.37 36.9) rotate(-98.69)"><tspan x="0" y="0">t</tspan></text>
    <text class="cls-1" transform="translate(2.26 36.26) rotate(-96.84)"><tspan x="0" y="0">h</tspan></text>
    <text class="cls-1" transform="translate(2.11 35.02) rotate(-94.35)"><tspan x="0" y="0">o</tspan></text>
    <text class="cls-1" transform="translate(2.01 33.65) rotate(-92.18)"><tspan x="0" y="0">s</tspan></text>
    <text class="cls-1" transform="translate(1.98 32.74) rotate(-90.93)"><tspan x="0" y="0">e</tspan></text>
    <text class="cls-1" transform="translate(1.98 31.49) rotate(-88.32)"><tspan x="0" y="0"> </tspan></text>
    <text class="cls-1" transform="translate(1.99 30.8) rotate(-86.01)"><tspan x="0" y="0">w</tspan></text>
    <text class="cls-1" transform="translate(2.12 29.02) rotate(-83.12)"><tspan x="0" y="0">h</tspan></text>
    <text class="cls-1" transform="translate(2.26 27.79) rotate(-80.64)"><tspan x="0" y="0">o</tspan></text>
    <text class="cls-1" transform="translate(2.49 26.44) rotate(-78.66)"><tspan x="0" y="0"> </tspan></text>
    <text class="cls-1" transform="translate(2.62 25.76) rotate(-76.69)"><tspan x="0" y="0">d</tspan></text>
    <text class="cls-1" transform="translate(2.94 24.43) rotate(-74.06)"><tspan x="0" y="0">o</tspan></text>
    <text class="cls-1" transform="translate(3.31 23.13) rotate(-72.1)"><tspan x="0" y="0"> </tspan></text>
    <text class="cls-1" transform="translate(3.53 22.45) rotate(-70.2)"><tspan x="0" y="0">n</tspan></text>
    <text class="cls-1" transform="translate(3.95 21.28) rotate(-67.69)"><tspan x="0" y="0">o</tspan></text>
    <text class="cls-1" transform="translate(4.48 20.01) rotate(-65.76)"><tspan x="0" y="0">t</tspan></text>
    <text class="cls-1" transform="translate(4.73 19.44) rotate(-64.49)"><tspan x="0" y="0"> </tspan></text>
    <text class="cls-1" transform="translate(5.03 18.81) rotate(-62.62)"><tspan x="0" y="0">n</tspan></text>
    <text class="cls-1" transform="translate(5.6 17.7) rotate(-60.23)"><tspan x="0" y="0">e</tspan></text>
    <text class="cls-1" transform="translate(6.22 16.62) rotate(-57.85)"><tspan x="0" y="0">e</tspan></text>
    <text class="cls-1" transform="translate(6.88 15.56) rotate(-55.36)"><tspan x="0" y="0">d</tspan></text>
    <text class="cls-1" transform="translate(7.67 14.43) rotate(-53.38)"><tspan x="0" y="0"> </tspan></text>
    <text class="cls-1" transform="translate(8.08 13.88) rotate(-52.14)"><tspan x="0" y="0">t</tspan></text>
    <text class="cls-1" transform="translate(8.49 13.34) rotate(-50.25)"><tspan x="0" y="0">h</tspan></text>
    <text class="cls-1" transform="translate(9.27 12.4) rotate(-47.82)"><tspan x="0" y="0">a</tspan></text>
    <text class="cls-1" transform="translate(10.2 11.39) rotate(-45.94)"><tspan x="0" y="0">t</tspan></text>
    <text class="cls-1" transform="translate(10.64 10.94) rotate(-44.66)"><tspan x="0" y="0"> </tspan></text>
    <text class="cls-1" transform="translate(11.13 10.45) rotate(-43.38)"><tspan x="0" y="0">f</tspan></text>
    <text class="cls-1" transform="translate(11.64 9.95) rotate(-41.46)"><tspan x="0" y="0">e</tspan></text>
    <text class="cls-1" transform="translate(12.59 9.12) rotate(-39.06)"><tspan x="0" y="0">e</tspan></text>
    <text class="cls-1" transform="translate(13.56 8.34) rotate(-37.35)"><tspan x="0" y="0">l</tspan></text>
    <text class="cls-1" transform="translate(14.01 7.99) rotate(-36.28)"><tspan x="0" y="0">i</tspan></text>
    <text class="cls-1" transform="translate(14.46 7.66) rotate(-34.56)"><tspan x="0" y="0">n</tspan></text>
    <text class="cls-1" transform="translate(15.49 6.95) rotate(-32.06)"><tspan x="0" y="0">g</tspan></text>
    <text class="cls-1" transform="translate(16.66 6.22) rotate(-30.07)"><tspan x="0" y="0">.</tspan></text>
    <text class="cls-1" transform="translate(17.24 5.88) rotate(-28.77)"><tspan x="0" y="0"> </tspan></text>
  </g>
</svg>