<?xml version="1.0" encoding="UTF-8"?>
<svg id="Layer_2" data-name="Layer 2" xmlns="http://www.w3.org/2000/svg" viewBox="0 0 120.78 120.84">
  <defs>
    <style>
      .cls-1 {
        font-family: Futura-CondensedExtraBold, Futura;
        font-weight: 700;
      }

      .cls-1, .cls-2 {
        fill: #231f20;
        font-size: 2.7px;
      }

      .cls-2 {
        font-family: Futura-Medium, Futura;
        font-weight: 500;
      }
    </style>
  </defs>
  <g id="Layer_9" data-name="Layer 9">
    <text class="cls-2" transform="translate(70.27 108.16) rotate(169.23)"><tspan x="0" y="0">L</tspan></text>
    <text class="cls-2" transform="translate(69.09 108.39) rotate(170.62)"><tspan x="0" y="0">a</tspan></text>
    <text class="cls-2" transform="translate(67.48 108.66) rotate(172.43)"><tspan x="0" y="0">y</tspan></text>
    <text class="cls-2" transform="translate(66.09 108.84) rotate(174.08)"><tspan x="0" y="0">e</tspan></text>
    <text class="cls-2" transform="translate(64.61 109) rotate(175.55)"><tspan x="0" y="0">r</tspan></text>
    <text class="cls-2" transform="translate(63.6 109.07) rotate(176.63)"><tspan x="0" y="0"> </tspan></text>
    <text class="cls-2" transform="translate(62.79 109.13) rotate(178.07)"><tspan x="0" y="0">9</tspan></text>
    <text class="cls-2" transform="translate(61.12 109.18) rotate(179.56)"><tspan x="0" y="0"> </tspan></text>
    <text class="cls-2" transform="translate(60.31 109.18) rotate(-179.5)"><tspan x="0" y="0">I</tspan></text>
    <text class="cls-2" transform="translate(59.52 109.18) rotate(-178.09)"><tspan x="0" y="0">p</tspan></text>
    <text class="cls-2" transform="translate(57.93 109.12) rotate(-176.51)"><tspan x="0" y="0">s</tspan></text>
    <text class="cls-2" transform="translate(56.84 109.06) rotate(-175)"><tspan x="0" y="0">u</tspan></text>
    <text class="cls-2" transform="translate(55.38 108.94) rotate(-172.87)"><tspan x="0" y="0">m</tspan></text>
    <text class="cls-2" transform="translate(53.29 108.67) rotate(-171.14)"><tspan x="0" y="0"> </tspan></text>
    <text class="cls-2" transform="translate(52.46 108.54) rotate(-169.93)"><tspan x="0" y="0">L</tspan></text>
    <text class="cls-2" transform="translate(51.3 108.34) rotate(-168.29)"><tspan x="0" y="0">o</tspan></text>
    <text class="cls-2" transform="translate(49.73 108.01) rotate(-166.75)"><tspan x="0" y="0">r</tspan></text>
    <text class="cls-2" transform="translate(48.76 107.78) rotate(-165.29)"><tspan x="0" y="0">e</tspan></text>
    <text class="cls-2" transform="translate(47.34 107.42) rotate(-163.18)"><tspan x="0" y="0">m</tspan></text>
    <text class="cls-2" transform="translate(45.31 106.79) rotate(-161.45)"><tspan x="0" y="0"> </tspan></text>
    <text class="cls-2" transform="translate(44.52 106.53) rotate(-160.5)"><tspan x="0" y="0">I</tspan></text>
    <text class="cls-2" transform="translate(43.76 106.27) rotate(-159.07)"><tspan x="0" y="0">p</tspan></text>
    <text class="cls-2" transform="translate(42.27 105.69) rotate(-157.5)"><tspan x="0" y="0">s</tspan></text>
    <text class="cls-2" transform="translate(41.27 105.28) rotate(-156.02)"><tspan x="0" y="0">u</tspan></text>
    <text class="cls-2" transform="translate(39.94 104.69) rotate(-153.92)"><tspan x="0" y="0">m</tspan></text>
    <text class="cls-2" transform="translate(38.04 103.75) rotate(-152.21)"><tspan x="0" y="0"> </tspan></text>
    <text class="cls-2" transform="translate(37.29 103.36) rotate(-151.01)"><tspan x="0" y="0">L</tspan></text>
    <text class="cls-2" transform="translate(36.26 102.8) rotate(-149.39)"><tspan x="0" y="0">o</tspan></text>
    <text class="cls-2" transform="translate(34.87 101.97) rotate(-147.85)"><tspan x="0" y="0">r</tspan></text>
    <text class="cls-2" transform="translate(34.05 101.46) rotate(-146.44)"><tspan x="0" y="0">e</tspan></text>
    <text class="cls-2" transform="translate(32.79 100.63) rotate(-144.31)"><tspan x="0" y="0">m</tspan></text>
    <text class="cls-2" transform="translate(31.08 99.39) rotate(-142.6)"><tspan x="0" y="0"> </tspan></text>
    <text class="cls-2" transform="translate(30.43 98.89) rotate(-141.66)"><tspan x="0" y="0">I</tspan></text>
    <text class="cls-2" transform="translate(29.8 98.4) rotate(-140.24)"><tspan x="0" y="0">p</tspan></text>
    <text class="cls-2" transform="translate(28.57 97.37) rotate(-138.68)"><tspan x="0" y="0">s</tspan></text>
    <text class="cls-2" transform="translate(27.76 96.66) rotate(-137.2)"><tspan x="0" y="0">u</tspan></text>
    <text class="cls-2" transform="translate(26.68 95.67) rotate(-135.09)"><tspan x="0" y="0">m</tspan></text>
    <text class="cls-2" transform="translate(25.19 94.17) rotate(-133.37)"><tspan x="0" y="0"> </tspan></text>
    <text class="cls-2" transform="translate(24.62 93.57) rotate(-132.18)"><tspan x="0" y="0">L</tspan></text>
    <text class="cls-2" transform="translate(23.82 92.69) rotate(-130.53)"><tspan x="0" y="0">o</tspan></text>
    <text class="cls-2" transform="translate(22.77 91.46) rotate(-128.99)"><tspan x="0" y="0">r</tspan></text>
    <text class="cls-2" transform="translate(22.16 90.71) rotate(-127.56)"><tspan x="0" y="0">e</tspan></text>
    <text class="cls-2" transform="translate(21.24 89.53) rotate(-125.41)"><tspan x="0" y="0">m</tspan></text>
    <text class="cls-2" transform="translate(20.03 87.81) rotate(-123.7)"><tspan x="0" y="0"> </tspan></text>
    <text class="cls-2" transform="translate(19.57 87.11) rotate(-122.73)"><tspan x="0" y="0">I</tspan></text>
    <text class="cls-2" transform="translate(19.14 86.46) rotate(-121.32)"><tspan x="0" y="0">p</tspan></text>
    <text class="cls-2" transform="translate(18.31 85.09) rotate(-119.73)"><tspan x="0" y="0">s</tspan></text>
    <text class="cls-2" transform="translate(17.77 84.14) rotate(-118.22)"><tspan x="0" y="0">u</tspan></text>
    <text class="cls-2" transform="translate(17.07 82.85) rotate(-116.08)"><tspan x="0" y="0">m</tspan></text>
    <text class="cls-2" transform="translate(16.14 80.94) rotate(-114.34)"><tspan x="0" y="0"> </tspan></text>
    <text class="cls-2" transform="translate(15.81 80.2) rotate(-113.17)"><tspan x="0" y="0">L</tspan></text>
    <text class="cls-2" transform="translate(15.34 79.11) rotate(-111.51)"><tspan x="0" y="0">o</tspan></text>
    <text class="cls-2" transform="translate(14.75 77.61) rotate(-109.98)"><tspan x="0" y="0">r</tspan></text>
    <text class="cls-2" transform="translate(14.41 76.68) rotate(-108.53)"><tspan x="0" y="0">e</tspan></text>
    <text class="cls-2" transform="translate(13.93 75.27) rotate(-106.41)"><tspan x="0" y="0">m</tspan></text>
    <text class="cls-2" transform="translate(13.34 73.24) rotate(-104.71)"><tspan x="0" y="0"> </tspan></text>
    <text class="cls-2" transform="translate(13.13 72.45) rotate(-103.78)"><tspan x="0" y="0">I</tspan></text>
    <text class="cls-2" transform="translate(12.94 71.67) rotate(-102.62)"><tspan x="0" y="0">p</tspan></text>
    <text class="cls-2" transform="translate(12.6 70.11) rotate(-100.77)"><tspan x="0" y="0">s</tspan></text>
    <text class="cls-2" transform="translate(12.39 69.04) rotate(-99.36)"><tspan x="0" y="0">u</tspan></text>
    <text class="cls-2" transform="translate(12.15 67.6) rotate(-97.28)"><tspan x="0" y="0">m</tspan></text>
    <text class="cls-2" transform="translate(11.89 65.51) rotate(-95.35)"><tspan x="0" y="0">L</tspan></text>
    <text class="cls-2" transform="translate(11.77 64.32) rotate(-93.71)"><tspan x="0" y="0">o</tspan></text>
    <text class="cls-2" transform="translate(11.67 62.7) rotate(-92.15)"><tspan x="0" y="0">r</tspan></text>
    <text class="cls-2" transform="translate(11.63 61.72) rotate(-90.72)"><tspan x="0" y="0">e</tspan></text>
    <text class="cls-2" transform="translate(11.61 60.26) rotate(-88.61)"><tspan x="0" y="0">m</tspan></text>
    <text class="cls-2" transform="translate(11.67 58.14) rotate(-86.87)"><tspan x="0" y="0"> </tspan></text>
    <text class="cls-2" transform="translate(11.71 57.29) rotate(-85.88)"><tspan x="0" y="0">I</tspan></text>
    <text class="cls-2" transform="translate(11.77 56.51) rotate(-84.46)"><tspan x="0" y="0">p</tspan></text>
    <text class="cls-2" transform="translate(11.93 54.91) rotate(-82.87)"><tspan x="0" y="0">s</tspan></text>
    <text class="cls-2" transform="translate(12.06 53.83) rotate(-81.37)"><tspan x="0" y="0">u</tspan></text>
    <text class="cls-2" transform="translate(12.27 52.4) rotate(-79.25)"><tspan x="0" y="0">m</tspan></text>
    <text class="cls-2" transform="translate(12.67 50.31) rotate(-77.3)"><tspan x="0" y="0">L</tspan></text>
    <text class="cls-2" transform="translate(12.93 49.17) rotate(-75.66)"><tspan x="0" y="0">o</tspan></text>
    <text class="cls-2" transform="translate(13.34 47.58) rotate(-74.1)"><tspan x="0" y="0">r</tspan></text>
    <text class="cls-2" transform="translate(13.6 46.65) rotate(-72.66)"><tspan x="0" y="0">e</tspan></text>
    <text class="cls-2" transform="translate(14.03 45.23) rotate(-70.54)"><tspan x="0" y="0">m</tspan></text>
    <text class="cls-2" transform="translate(14.75 43.23) rotate(-68.82)"><tspan x="0" y="0"> </tspan></text>
    <text class="cls-2" transform="translate(15.05 42.46) rotate(-67.87)"><tspan x="0" y="0">I</tspan></text>
    <text class="cls-2" transform="translate(15.34 41.74) rotate(-66.47)"><tspan x="0" y="0">p</tspan></text>
    <text class="cls-2" transform="translate(15.98 40.27) rotate(-64.91)"><tspan x="0" y="0">s</tspan></text>
    <text class="cls-2" transform="translate(16.44 39.28) rotate(-63.41)"><tspan x="0" y="0">u</tspan></text>
    <text class="cls-2" transform="translate(17.09 37.97) rotate(-61.31)"><tspan x="0" y="0">m</tspan></text>
    <text class="cls-2" transform="translate(18.11 36.12) rotate(-59.39)"><tspan x="0" y="0">L</tspan></text>
    <text class="cls-2" transform="translate(18.71 35.11) rotate(-57.76)"><tspan x="0" y="0">o</tspan></text>
    <text class="cls-2" transform="translate(19.58 33.74) rotate(-56.23)"><tspan x="0" y="0">r</tspan></text>
    <text class="cls-2" transform="translate(20.13 32.9) rotate(-54.78)"><tspan x="0" y="0">e</tspan></text>
    <text class="cls-2" transform="translate(20.98 31.7) rotate(-52.68)"><tspan x="0" y="0">m</tspan></text>
    <text class="cls-2" transform="translate(22.26 30.02) rotate(-50.97)"><tspan x="0" y="0"> </tspan></text>
    <text class="cls-2" transform="translate(22.78 29.38) rotate(-50.03)"><tspan x="0" y="0">I</tspan></text>
    <text class="cls-2" transform="translate(23.29 28.77) rotate(-48.62)"><tspan x="0" y="0">p</tspan></text>
    <text class="cls-2" transform="translate(24.36 27.56) rotate(-47.03)"><tspan x="0" y="0">s</tspan></text>
    <text class="cls-2" transform="translate(25.08 26.78) rotate(-45.57)"><tspan x="0" y="0">u</tspan></text>
    <text class="cls-2" transform="translate(26.1 25.73) rotate(-43.45)"><tspan x="0" y="0">m</tspan></text>
    <text class="cls-2" transform="translate(27.65 24.28) rotate(-41.51)"><tspan x="0" y="0">L</tspan></text>
    <text class="cls-2" transform="translate(28.54 23.49) rotate(-39.86)"><tspan x="0" y="0">o</tspan></text>
    <text class="cls-2" transform="translate(29.77 22.46) rotate(-38.34)"><tspan x="0" y="0">r</tspan></text>
    <text class="cls-2" transform="translate(30.55 21.84) rotate(-36.88)"><tspan x="0" y="0">e</tspan></text>
    <text class="cls-2" transform="translate(31.72 20.95) rotate(-34.75)"><tspan x="0" y="0">m</tspan></text>
    <text class="cls-2" transform="translate(33.49 19.74) rotate(-33)"><tspan x="0" y="0"> </tspan></text>
    <text class="cls-2" transform="translate(34.16 19.31) rotate(-32.07)"><tspan x="0" y="0">I</tspan></text>
    <text class="cls-2" transform="translate(34.83 18.88) rotate(-30.63)"><tspan x="0" y="0">p</tspan></text>
    <text class="cls-2" transform="translate(36.22 18.06) rotate(-29.04)"><tspan x="0" y="0">s</tspan></text>
    <text class="cls-2" transform="translate(37.17 17.53) rotate(-27.53)"><tspan x="0" y="0">u</tspan></text>
    <text class="cls-2" transform="translate(38.46 16.85) rotate(-25.41)"><tspan x="0" y="0">m</tspan></text>
    <text class="cls-2" transform="translate(40.37 15.95) rotate(-23.46)"><tspan x="0" y="0">L</tspan></text>
    <text class="cls-2" transform="translate(41.45 15.48) rotate(-21.82)"><tspan x="0" y="0">o</tspan></text>
    <text class="cls-2" transform="translate(42.96 14.88) rotate(-20.27)"><tspan x="0" y="0">r</tspan></text>
    <text class="cls-2" transform="translate(43.88 14.54) rotate(-18.83)"><tspan x="0" y="0">e</tspan></text>
    <text class="cls-2" transform="translate(45.27 14.06) rotate(-16.72)"><tspan x="0" y="0">m</tspan></text>
    <text class="cls-2" transform="translate(47.31 13.45) rotate(-15.01)"><tspan x="0" y="0"> </tspan></text>
    <text class="cls-2" transform="translate(48.12 13.24) rotate(-14.05)"><tspan x="0" y="0">I</tspan></text>
    <text class="cls-2" transform="translate(48.86 13.04) rotate(-12.69)"><tspan x="0" y="0">p</tspan></text>
    <text class="cls-2" transform="translate(50.44 12.69) rotate(-10.77)"><tspan x="0" y="0">s</tspan></text>
    <text class="cls-2" transform="translate(51.51 12.48) rotate(-9.65)"><tspan x="0" y="0">u</tspan></text>
    <text class="cls-2" transform="translate(52.95 12.23) rotate(-7.57)"><tspan x="0" y="0">m</tspan></text>
    <text class="cls-2" transform="translate(55.05 11.96) rotate(-5.65)"><tspan x="0" y="0">L</tspan></text>
    <text class="cls-2" transform="translate(56.23 11.84) rotate(-4)"><tspan x="0" y="0">o</tspan></text>
    <text class="cls-2" transform="translate(57.83 11.73) rotate(-2.47)"><tspan x="0" y="0">r</tspan></text>
    <text class="cls-2" transform="translate(58.81 11.68) rotate(-1.03)"><tspan x="0" y="0">e</tspan></text>
    <text class="cls-2" transform="translate(60.29 11.65) rotate(1.1)"><tspan x="0" y="0">m</tspan></text>
    <text class="cls-2" transform="translate(62.42 11.7) rotate(2.84)"><tspan x="0" y="0"> </tspan></text>
    <text class="cls-2" transform="translate(63.24 11.74) rotate(3.8)"><tspan x="0" y="0">I</tspan></text>
    <text class="cls-2" transform="translate(64.03 11.79) rotate(5.23)"><tspan x="0" y="0">p</tspan></text>
    <text class="cls-2" transform="translate(65.63 11.94) rotate(6.82)"><tspan x="0" y="0">s</tspan></text>
    <text class="cls-2" transform="translate(66.71 12.07) rotate(8.33)"><tspan x="0" y="0">u</tspan></text>
    <text class="cls-2" transform="translate(68.15 12.27) rotate(10.44)"><tspan x="0" y="0">m</tspan></text>
    <text class="cls-2" transform="translate(70.23 12.66) rotate(12.39)"><tspan x="0" y="0">L</tspan></text>
    <text class="cls-2" transform="translate(71.38 12.91) rotate(14.03)"><tspan x="0" y="0">o</tspan></text>
    <text class="cls-2" transform="translate(72.97 13.31) rotate(15.6)"><tspan x="0" y="0">r</tspan></text>
    <text class="cls-2" transform="translate(73.91 13.57) rotate(17.03)"><tspan x="0" y="0">e</tspan></text>
    <text class="cls-2" transform="translate(75.33 14) rotate(19.16)"><tspan x="0" y="0">m</tspan></text>
    <text class="cls-2" transform="translate(77.33 14.7) rotate(20.88)"><tspan x="0" y="0"> </tspan></text>
    <text class="cls-2" transform="translate(78.1 15) rotate(21.83)"><tspan x="0" y="0">I</tspan></text>
    <text class="cls-2" transform="translate(78.83 15.28) rotate(23.23)"><tspan x="0" y="0">p</tspan></text>
    <text class="cls-2" transform="translate(80.29 15.92) rotate(24.79)"><tspan x="0" y="0">s</tspan></text>
    <text class="cls-2" transform="translate(81.29 16.37) rotate(26.3)"><tspan x="0" y="0">u</tspan></text>
    <text class="cls-2" transform="translate(82.6 17.01) rotate(28.39)"><tspan x="0" y="0">m</tspan></text>
    <text class="cls-2" transform="translate(84.45 18.03) rotate(30.1)"><tspan x="0" y="0"> </tspan></text>
    <text class="cls-2" transform="translate(85.18 18.45) rotate(31.3)"><tspan x="0" y="0">L</tspan></text>
    <text class="cls-2" transform="translate(86.19 19.06) rotate(32.92)"><tspan x="0" y="0">o</tspan></text>
    <text class="cls-2" transform="translate(87.55 19.94) rotate(34.46)"><tspan x="0" y="0">r</tspan></text>
    <text class="cls-2" transform="translate(88.35 20.49) rotate(35.87)"><tspan x="0" y="0">e</tspan></text>
    <text class="cls-2" transform="translate(89.56 21.35) rotate(37.98)"><tspan x="0" y="0">m</tspan></text>
    <text class="cls-2" transform="translate(91.23 22.67) rotate(39.71)"><tspan x="0" y="0"> </tspan></text>
    <text class="cls-2" transform="translate(91.87 23.2) rotate(40.66)"><tspan x="0" y="0">I</tspan></text>
    <text class="cls-2" transform="translate(92.46 23.7) rotate(42.05)"><tspan x="0" y="0">p</tspan></text>
    <text class="cls-2" transform="translate(93.65 24.78) rotate(43.62)"><tspan x="0" y="0">s</tspan></text>
    <text class="cls-2" transform="translate(94.44 25.53) rotate(45.12)"><tspan x="0" y="0">u</tspan></text>
    <text class="cls-2" transform="translate(95.48 26.57) rotate(47.24)"><tspan x="0" y="0">m</tspan></text>
    <text class="cls-2" transform="translate(96.92 28.13) rotate(48.97)"><tspan x="0" y="0"> </tspan></text>
    <text class="cls-2" transform="translate(97.45 28.74) rotate(50.14)"><tspan x="0" y="0">L</tspan></text>
    <text class="cls-2" transform="translate(98.22 29.65) rotate(51.79)"><tspan x="0" y="0">o</tspan></text>
    <text class="cls-2" transform="translate(99.2 30.92) rotate(53.32)"><tspan x="0" y="0">r</tspan></text>
    <text class="cls-2" transform="translate(99.79 31.7) rotate(54.76)"><tspan x="0" y="0">e</tspan></text>
    <text class="cls-2" transform="translate(100.66 32.92) rotate(56.92)"><tspan x="0" y="0">m</tspan></text>
    <text class="cls-2" transform="translate(101.8 34.69) rotate(58.64)"><tspan x="0" y="0"> </tspan></text>
    <text class="cls-2" transform="translate(102.24 35.4) rotate(59.61)"><tspan x="0" y="0">I</tspan></text>
    <text class="cls-2" transform="translate(102.64 36.08) rotate(61.03)"><tspan x="0" y="0">p</tspan></text>
    <text class="cls-2" transform="translate(103.42 37.49) rotate(62.63)"><tspan x="0" y="0">s</tspan></text>
    <text class="cls-2" transform="translate(103.91 38.44) rotate(64.12)"><tspan x="0" y="0">u</tspan></text>
    <text class="cls-2" transform="translate(104.56 39.76) rotate(66.25)"><tspan x="0" y="0">m</tspan></text>
    <text class="cls-2" transform="translate(105.41 41.72) rotate(68)"><tspan x="0" y="0"> </tspan></text>
    <text class="cls-2" transform="translate(105.71 42.47) rotate(69.17)"><tspan x="0" y="0">L</tspan></text>
    <text class="cls-2" transform="translate(106.14 43.57) rotate(70.81)"><tspan x="0" y="0">o</tspan></text>
    <text class="cls-2" transform="translate(106.67 45.1) rotate(72.35)"><tspan x="0" y="0">r</tspan></text>
    <text class="cls-2" transform="translate(106.97 46.03) rotate(73.77)"><tspan x="0" y="0">e</tspan></text>
    <text class="cls-2" transform="translate(107.38 47.44) rotate(75.86)"><tspan x="0" y="0">m</tspan></text>
    <text class="cls-2" transform="translate(107.89 49.52) rotate(77.38)"><tspan x="0" y="0"> </tspan></text>
    <text class="cls-2" transform="translate(108.07 50.3) rotate(79.23)"><tspan x="0" y="0">I</tspan></text>
    <text class="cls-2" transform="translate(108.24 51.09) rotate(79.89)"><tspan x="0" y="0">p</tspan></text>
    <text class="cls-2" transform="translate(108.51 52.66) rotate(81.43)"><tspan x="0" y="0">s</tspan></text>
    <text class="cls-2" transform="translate(108.68 53.74) rotate(82.93)"><tspan x="0" y="0">u</tspan></text>
    <text class="cls-2" transform="translate(108.86 55.19) rotate(85.03)"><tspan x="0" y="0">m</tspan></text>
    <text class="cls-2" transform="translate(109.04 57.31) rotate(86.97)"><tspan x="0" y="0">L</tspan></text>
    <text class="cls-2" transform="translate(109.11 58.48) rotate(88.61)"><tspan x="0" y="0">o</tspan></text>
    <text class="cls-2" transform="translate(109.14 60.1) rotate(90.16)"><tspan x="0" y="0">r</tspan></text>
    <text class="cls-2" transform="translate(109.14 61.09) rotate(91.62)"><tspan x="0" y="0">e</tspan></text>
    <text class="cls-2" transform="translate(109.11 62.56) rotate(93.74)"><tspan x="0" y="0">m</tspan></text>
    <text class="cls-1" transform="translate(108.96 64.68) rotate(95.47)"><tspan x="0" y="0"> </tspan></text>
    <text class="cls-1" transform="translate(108.88 65.47) rotate(96.42)"><tspan x="0" y="0">I</tspan></text>
    <text class="cls-1" transform="translate(108.79 66.29) rotate(97.8)"><tspan x="0" y="0">p</tspan></text>
    <text class="cls-1" transform="translate(108.59 67.78) rotate(99.56)"><tspan x="0" y="0">e</tspan></text>
    <text class="cls-1" transform="translate(108.35 69.24) rotate(101.76)"><tspan x="0" y="0">m</tspan></text>
    <text class="cls-1" transform="translate(107.89 71.4) rotate(103.53)"><tspan x="0" y="0"> </tspan></text>
    <text class="cls-1" transform="translate(107.7 72.18) rotate(104.49)"><tspan x="0" y="0">I</tspan></text>
    <text class="cls-1" transform="translate(107.5 72.98) rotate(105.86)"><tspan x="0" y="0">p</tspan></text>
    <text class="cls-1" transform="translate(107.08 74.44) rotate(107.47)"><tspan x="0" y="0">s</tspan></text>
    <text class="cls-1" transform="translate(106.73 75.57) rotate(109.05)"><tspan x="0" y="0">u</tspan></text>
    <text class="cls-1" transform="translate(106.25 76.99) rotate(111.23)"><tspan x="0" y="0">m</tspan></text>
    <text class="cls-1" transform="translate(105.43 79.08) rotate(113.21)"><tspan x="0" y="0">L</tspan></text>
    <text class="cls-1" transform="translate(105 80.09) rotate(114.71)"><tspan x="0" y="0">o</tspan></text>
    <text class="cls-1" transform="translate(104.37 81.44) rotate(116.19)"><tspan x="0" y="0">r</tspan></text>
    <text class="cls-1" transform="translate(103.91 82.38) rotate(117.67)"><tspan x="0" y="0">e</tspan></text>
    <text class="cls-1" transform="translate(103.23 83.7) rotate(119.85)"><tspan x="0" y="0">m</tspan></text>
    <text class="cls-1" transform="translate(102.12 85.61) rotate(121.6)"><tspan x="0" y="0"> </tspan></text>
    <text class="cls-1" transform="translate(101.7 86.29) rotate(122.54)"><tspan x="0" y="0">I</tspan></text>
    <text class="cls-1" transform="translate(101.26 86.99) rotate(123.9)"><tspan x="0" y="0">p</tspan></text>
    <text class="cls-1" transform="translate(100.41 88.25) rotate(125.27)"><tspan x="0" y="0"> </tspan></text>
    <text class="cls-1" transform="translate(99.96 88.89) rotate(126.17)"><tspan x="0" y="0">l</tspan></text>
    <text class="cls-1" transform="translate(99.5 89.52) rotate(127.49)"><tspan x="0" y="0">o</tspan></text>
    <text class="cls-1" transform="translate(98.61 90.68) rotate(128.94)"><tspan x="0" y="0">r</tspan></text>
    <text class="cls-1" transform="translate(97.94 91.51) rotate(130.44)"><tspan x="0" y="0">e</tspan></text>
    <text class="cls-1" transform="translate(96.98 92.62) rotate(131.77)"><tspan x="0" y="0"> </tspan></text>
    <text class="cls-1" transform="translate(96.46 93.21) rotate(132.67)"><tspan x="0" y="0">i</tspan></text>
    <text class="cls-1" transform="translate(95.93 93.79) rotate(134)"><tspan x="0" y="0">e</tspan></text>
    <text class="cls-1" transform="translate(94.91 94.85) rotate(135.34)"><tspan x="0" y="0"> </tspan></text>
    <text class="cls-1" transform="translate(94.34 95.4) rotate(136.24)"><tspan x="0" y="0">l</tspan></text>
    <text class="cls-1" transform="translate(93.8 95.93) rotate(137.56)"><tspan x="0" y="0">o</tspan></text>
    <text class="cls-1" transform="translate(92.7 96.94) rotate(139.06)"><tspan x="0" y="0">r</tspan></text>
    <text class="cls-1" transform="translate(91.91 97.62) rotate(140.53)"><tspan x="0" y="0">e</tspan></text>
    <text class="cls-1" transform="translate(90.79 98.56) rotate(142.71)"><tspan x="0" y="0">m</tspan></text>
    <text class="cls-1" transform="translate(89 99.9) rotate(144.5)"><tspan x="0" y="0"> </tspan></text>
    <text class="cls-1" transform="translate(88.35 100.36) rotate(145.42)"><tspan x="0" y="0">i</tspan></text>
    <text class="cls-1" transform="translate(87.71 100.81) rotate(146.78)"><tspan x="0" y="0">p</tspan></text>
    <text class="cls-1" transform="translate(86.46 101.63) rotate(148.37)"><tspan x="0" y="0">s</tspan></text>
    <text class="cls-1" transform="translate(85.45 102.25) rotate(149.96)"><tspan x="0" y="0">u</tspan></text>
    <text class="cls-1" transform="translate(84.13 103.01) rotate(151.74)"><tspan x="0" y="0">e</tspan></text>
    <text class="cls-1" transform="translate(82.85 103.71) rotate(153.92)"><tspan x="0" y="0">m</tspan></text>
    <text class="cls-1" transform="translate(80.85 104.68) rotate(155.71)"><tspan x="0" y="0"> </tspan></text>
    <text class="cls-2" transform="translate(80.12 105.01) rotate(156.61)"><tspan x="0" y="0">t</tspan></text>
    <text class="cls-2" transform="translate(79.44 105.3) rotate(157.55)"><tspan x="0" y="0"> </tspan></text>
    <text class="cls-2" transform="translate(78.68 105.62) rotate(158.9)"><tspan x="0" y="0">h</tspan></text>
    <text class="cls-2" transform="translate(77.33 106.14) rotate(160.61)"><tspan x="0" y="0">e</tspan></text>
    <text class="cls-2" transform="translate(75.91 106.64) rotate(162.37)"><tspan x="0" y="0">e</tspan></text>
    <text class="cls-2" transform="translate(74.51 107.09) rotate(164.09)"><tspan x="0" y="0">n</tspan></text>
    <text class="cls-2" transform="translate(73.11 107.49) rotate(165.86)"><tspan x="0" y="0">d</tspan></text>
  </g>
</svg>