<?xml version="1.0" encoding="UTF-8"?>
<svg id="Layer_2" data-name="Layer 2" xmlns="http://www.w3.org/2000/svg" viewBox="0 0 241.23 241.23">
  <defs>
    <style>
      .cls-1 {
        fill: #231f20;
        font-family: Futura-CondensedExtraBold, Futura;
        font-size: 3.6px;
        font-weight: 700;
      }
    </style>
  </defs>
  <g id="Layer_18" data-name="Layer 18">
    <text class="cls-1" transform="translate(173.25 184.15) rotate(141.29)"><tspan x="0" y="0">L</tspan></text>
    <text class="cls-1" transform="translate(172.1 185.08) rotate(142.06)"><tspan x="0" y="0">a</tspan></text>
    <text class="cls-1" transform="translate(170.49 186.33) rotate(143.4)"><tspan x="0" y="0">y</tspan></text>
    <text class="cls-1" transform="translate(169.06 187.4) rotate(144.67)"><tspan x="0" y="0">e</tspan></text>
    <text class="cls-1" transform="translate(167.46 188.53) rotate(145.82)"><tspan x="0" y="0">r</tspan></text>
    <text class="cls-1" transform="translate(166.3 189.31) rotate(146.68)"><tspan x="0" y="0"> </tspan></text>
    <text class="cls-1" transform="translate(165.43 189.9) rotate(147.79)"><tspan x="0" y="0">1</tspan></text>
    <text class="cls-1" transform="translate(163.75 190.95) rotate(149.16)"><tspan x="0" y="0">8</tspan></text>
    <text class="cls-1" transform="translate(161.9 192.05) rotate(150.29)"><tspan x="0" y="0"> </tspan></text>
    <text class="cls-1" transform="translate(160.99 192.58) rotate(151.03)"><tspan x="0" y="0">I</tspan></text>
    <text class="cls-1" transform="translate(160.01 193.12) rotate(152.13)"><tspan x="0" y="0">p</tspan></text>
    <text class="cls-1" transform="translate(158.24 194.06) rotate(153.38)"><tspan x="0" y="0">s</tspan></text>
    <text class="cls-1" transform="translate(156.83 194.76) rotate(154.64)"><tspan x="0" y="0">u</tspan></text>
    <text class="cls-1" transform="translate(154.99 195.64) rotate(156.4)"><tspan x="0" y="0">m</tspan></text>
    <text class="cls-1" transform="translate(152.28 196.82) rotate(157.8)"><tspan x="0" y="0"> </tspan></text>
    <text class="cls-1" transform="translate(151.27 197.23) rotate(158.71)"><tspan x="0" y="0">L</tspan></text>
    <text class="cls-1" transform="translate(149.9 197.77) rotate(159.91)"><tspan x="0" y="0">o</tspan></text>
    <text class="cls-1" transform="translate(148.04 198.45) rotate(161.09)"><tspan x="0" y="0">r</tspan></text>
    <text class="cls-1" transform="translate(146.69 198.91) rotate(162.28)"><tspan x="0" y="0">e</tspan></text>
    <text class="cls-1" transform="translate(144.85 199.51) rotate(163.99)"><tspan x="0" y="0">m</tspan></text>
    <text class="cls-1" transform="translate(142.01 200.31) rotate(165.39)"><tspan x="0" y="0"> </tspan></text>
    <text class="cls-1" transform="translate(140.96 200.58) rotate(166.16)"><tspan x="0" y="0">I</tspan></text>
    <text class="cls-1" transform="translate(139.88 200.85) rotate(167.25)"><tspan x="0" y="0">p</tspan></text>
    <text class="cls-1" transform="translate(137.95 201.29) rotate(168.49)"><tspan x="0" y="0">s</tspan></text>
    <text class="cls-1" transform="translate(136.38 201.61) rotate(169.74)"><tspan x="0" y="0">u</tspan></text>
    <text class="cls-1" transform="translate(134.4 201.98) rotate(171.47)"><tspan x="0" y="0">m</tspan></text>
    <text class="cls-1" transform="translate(131.46 202.41) rotate(172.88)"><tspan x="0" y="0"> </tspan></text>
    <text class="cls-1" transform="translate(130.38 202.54) rotate(173.78)"><tspan x="0" y="0">L</tspan></text>
    <text class="cls-1" transform="translate(128.89 202.71) rotate(174.99)"><tspan x="0" y="0">o</tspan></text>
    <text class="cls-1" transform="translate(126.93 202.88) rotate(176.15)"><tspan x="0" y="0">r</tspan></text>
    <text class="cls-1" transform="translate(125.54 202.97) rotate(177.31)"><tspan x="0" y="0">e</tspan></text>
    <text class="cls-1" transform="translate(123.58 203.07) rotate(179.02)"><tspan x="0" y="0">m</tspan></text>
    <text class="cls-1" transform="translate(120.61 203.11) rotate(-179.59)"><tspan x="0" y="0"> </tspan></text>
    <text class="cls-1" transform="translate(119.54 203.1) rotate(-178.84)"><tspan x="0" y="0">I</tspan></text>
    <text class="cls-1" transform="translate(118.45 203.09) rotate(-177.77)"><tspan x="0" y="0">p</tspan></text>
    <text class="cls-1" transform="translate(116.45 203.01) rotate(-176.54)"><tspan x="0" y="0">s</tspan></text>
    <text class="cls-1" transform="translate(114.84 202.91) rotate(-175.28)"><tspan x="0" y="0">u</tspan></text>
    <text class="cls-1" transform="translate(112.85 202.76) rotate(-173.57)"><tspan x="0" y="0">m</tspan></text>
    <text class="cls-1" transform="translate(109.88 202.41) rotate(-172.16)"><tspan x="0" y="0"> </tspan></text>
    <text class="cls-1" transform="translate(108.83 202.27) rotate(-171.28)"><tspan x="0" y="0">L</tspan></text>
    <text class="cls-1" transform="translate(107.35 202.04) rotate(-170.09)"><tspan x="0" y="0">o</tspan></text>
    <text class="cls-1" transform="translate(105.42 201.7) rotate(-168.93)"><tspan x="0" y="0">r</tspan></text>
    <text class="cls-1" transform="translate(104.02 201.43) rotate(-167.76)"><tspan x="0" y="0">e</tspan></text>
    <text class="cls-1" transform="translate(102.13 201.03) rotate(-166.06)"><tspan x="0" y="0">m</tspan></text>
    <text class="cls-1" transform="translate(99.22 200.29) rotate(-164.65)"><tspan x="0" y="0"> </tspan></text>
    <text class="cls-1" transform="translate(98.19 200.01) rotate(-163.89)"><tspan x="0" y="0">I</tspan></text>
    <text class="cls-1" transform="translate(97.13 199.71) rotate(-162.82)"><tspan x="0" y="0">p</tspan></text>
    <text class="cls-1" transform="translate(95.22 199.12) rotate(-161.57)"><tspan x="0" y="0">s</tspan></text>
    <text class="cls-1" transform="translate(93.71 198.62) rotate(-160.31)"><tspan x="0" y="0">u</tspan></text>
    <text class="cls-1" transform="translate(91.81 197.94) rotate(-158.58)"><tspan x="0" y="0">m</tspan></text>
    <text class="cls-1" transform="translate(89.04 196.84) rotate(-157.17)"><tspan x="0" y="0"> </tspan></text>
    <text class="cls-1" transform="translate(88.05 196.43) rotate(-156.28)"><tspan x="0" y="0">L</tspan></text>
    <text class="cls-1" transform="translate(86.7 195.84) rotate(-155.08)"><tspan x="0" y="0">o</tspan></text>
    <text class="cls-1" transform="translate(84.9 195) rotate(-153.9)"><tspan x="0" y="0">r</tspan></text>
    <text class="cls-1" transform="translate(83.63 194.38) rotate(-152.72)"><tspan x="0" y="0">e</tspan></text>
    <text class="cls-1" transform="translate(81.9 193.5) rotate(-151)"><tspan x="0" y="0">m</tspan></text>
    <text class="cls-1" transform="translate(79.31 192.05) rotate(-149.59)"><tspan x="0" y="0"> </tspan></text>
    <text class="cls-1" transform="translate(78.4 191.51) rotate(-148.84)"><tspan x="0" y="0">I</tspan></text>
    <text class="cls-1" transform="translate(77.45 190.95) rotate(-147.76)"><tspan x="0" y="0">p</tspan></text>
    <text class="cls-1" transform="translate(75.76 189.88) rotate(-146.49)"><tspan x="0" y="0">s</tspan></text>
    <text class="cls-1" transform="translate(74.42 189) rotate(-145.22)"><tspan x="0" y="0">u</tspan></text>
    <text class="cls-1" transform="translate(72.77 187.86) rotate(-143.48)"><tspan x="0" y="0">m</tspan></text>
    <text class="cls-1" transform="translate(70.38 186.07) rotate(-141.92)"><tspan x="0" y="0">L</tspan></text>
    <text class="cls-1" transform="translate(69.2 185.15) rotate(-140.71)"><tspan x="0" y="0">o</tspan></text>
    <text class="cls-1" transform="translate(67.68 183.91) rotate(-139.54)"><tspan x="0" y="0">r</tspan></text>
    <text class="cls-1" transform="translate(66.61 183) rotate(-138.37)"><tspan x="0" y="0">e</tspan></text>
    <text class="cls-1" transform="translate(65.15 181.71) rotate(-136.65)"><tspan x="0" y="0">m</tspan></text>
    <text class="cls-1" transform="translate(62.99 179.66) rotate(-135.25)"><tspan x="0" y="0"> </tspan></text>
    <text class="cls-1" transform="translate(62.23 178.91) rotate(-134.51)"><tspan x="0" y="0">I</tspan></text>
    <text class="cls-1" transform="translate(61.44 178.11) rotate(-133.42)"><tspan x="0" y="0">p</tspan></text>
    <text class="cls-1" transform="translate(60.08 176.67) rotate(-132.2)"><tspan x="0" y="0">s</tspan></text>
    <text class="cls-1" transform="translate(59 175.48) rotate(-130.95)"><tspan x="0" y="0">u</tspan></text>
    <text class="cls-1" transform="translate(57.68 173.99) rotate(-128.71)"><tspan x="0" y="0">m</tspan></text>
    <text class="cls-1" transform="translate(55.8 171.65) rotate(-127.73)"><tspan x="0" y="0">L</tspan></text>
    <text class="cls-1" transform="translate(54.89 170.48) rotate(-126.55)"><tspan x="0" y="0">o</tspan></text>
    <text class="cls-1" transform="translate(53.72 168.9) rotate(-125.4)"><tspan x="0" y="0">r</tspan></text>
    <text class="cls-1" transform="translate(52.89 167.74) rotate(-124.22)"><tspan x="0" y="0">e</tspan></text>
    <text class="cls-1" transform="translate(51.8 166.14) rotate(-122.53)"><tspan x="0" y="0">m</tspan></text>
    <text class="cls-1" transform="translate(50.22 163.64) rotate(-121.13)"><tspan x="0" y="0"> </tspan></text>
    <text class="cls-1" transform="translate(49.65 162.71) rotate(-120.36)"><tspan x="0" y="0">I</tspan></text>
    <text class="cls-1" transform="translate(49.09 161.77) rotate(-119.28)"><tspan x="0" y="0">p</tspan></text>
    <text class="cls-1" transform="translate(48.12 160.02) rotate(-118.03)"><tspan x="0" y="0">s</tspan></text>
    <text class="cls-1" transform="translate(47.37 158.62) rotate(-116.77)"><tspan x="0" y="0">u</tspan></text>
    <text class="cls-1" transform="translate(46.45 156.82) rotate(-115.03)"><tspan x="0" y="0">m</tspan></text>
    <text class="cls-1" transform="translate(45.21 154.13) rotate(-113.47)"><tspan x="0" y="0">L</tspan></text>
    <text class="cls-1" transform="translate(44.61 152.75) rotate(-112.25)"><tspan x="0" y="0">o</tspan></text>
    <text class="cls-1" transform="translate(43.86 150.92) rotate(-111.07)"><tspan x="0" y="0">r</tspan></text>
    <text class="cls-1" transform="translate(43.35 149.59) rotate(-109.88)"><tspan x="0" y="0">e</tspan></text>
    <text class="cls-1" transform="translate(42.69 147.8) rotate(-108.18)"><tspan x="0" y="0">m</tspan></text>
    <text class="cls-1" transform="translate(41.77 144.95) rotate(-106.75)"><tspan x="0" y="0"> </tspan></text>
    <text class="cls-1" transform="translate(41.46 143.94) rotate(-106.01)"><tspan x="0" y="0">I</tspan></text>
    <text class="cls-1" transform="translate(41.15 142.87) rotate(-104.91)"><tspan x="0" y="0">p</tspan></text>
    <text class="cls-1" transform="translate(40.64 140.95) rotate(-103.67)"><tspan x="0" y="0">s</tspan></text>
    <text class="cls-1" transform="translate(40.26 139.39) rotate(-102.41)"><tspan x="0" y="0">u</tspan></text>
    <text class="cls-1" transform="translate(39.82 137.42) rotate(-100.67)"><tspan x="0" y="0">m</tspan></text>
    <text class="cls-1" transform="translate(39.28 134.49) rotate(-99.11)"><tspan x="0" y="0">L</tspan></text>
    <text class="cls-1" transform="translate(39.04 133.04) rotate(-97.92)"><tspan x="0" y="0">o</tspan></text>
    <text class="cls-1" transform="translate(38.77 131.09) rotate(-96.76)"><tspan x="0" y="0">r</tspan></text>
    <text class="cls-1" transform="translate(38.6 129.67) rotate(-95.57)"><tspan x="0" y="0">e</tspan></text>
    <text class="cls-1" transform="translate(38.41 127.74) rotate(-93.87)"><tspan x="0" y="0">m</tspan></text>
    <text class="cls-1" transform="translate(38.22 124.78) rotate(-92.48)"><tspan x="0" y="0"> </tspan></text>
    <text class="cls-1" transform="translate(38.17 123.68) rotate(-91.71)"><tspan x="0" y="0">I</tspan></text>
    <text class="cls-1" transform="translate(38.13 122.59) rotate(-90.64)"><tspan x="0" y="0">p</tspan></text>
    <text class="cls-1" transform="translate(38.11 120.59) rotate(-89.4)"><tspan x="0" y="0">s</tspan></text>
    <text class="cls-1" transform="translate(38.13 119.01) rotate(-88.16)"><tspan x="0" y="0">u</tspan></text>
    <text class="cls-1" transform="translate(38.18 116.98) rotate(-86.43)"><tspan x="0" y="0">m</tspan></text>
    <text class="cls-1" transform="translate(38.38 114.01) rotate(-84.89)"><tspan x="0" y="0">L</tspan></text>
    <text class="cls-1" transform="translate(38.51 112.53) rotate(-83.7)"><tspan x="0" y="0">o</tspan></text>
    <text class="cls-1" transform="translate(38.73 110.58) rotate(-82.54)"><tspan x="0" y="0">r</tspan></text>
    <text class="cls-1" transform="translate(38.91 109.17) rotate(-81.37)"><tspan x="0" y="0">e</tspan></text>
    <text class="cls-1" transform="translate(39.19 107.26) rotate(-79.68)"><tspan x="0" y="0">m</tspan></text>
    <text class="cls-1" transform="translate(39.73 104.34) rotate(-78.29)"><tspan x="0" y="0"> </tspan></text>
    <text class="cls-1" transform="translate(39.96 103.27) rotate(-77.52)"><tspan x="0" y="0">I</tspan></text>
    <text class="cls-1" transform="translate(40.19 102.19) rotate(-76.45)"><tspan x="0" y="0">p</tspan></text>
    <text class="cls-1" transform="translate(40.66 100.25) rotate(-75.2)"><tspan x="0" y="0">s</tspan></text>
    <text class="cls-1" transform="translate(41.06 98.71) rotate(-73.96)"><tspan x="0" y="0">u</tspan></text>
    <text class="cls-1" transform="translate(41.61 96.78) rotate(-72.24)"><tspan x="0" y="0">m</tspan></text>
    <text class="cls-1" transform="translate(42.53 93.95) rotate(-70.68)"><tspan x="0" y="0">L</tspan></text>
    <text class="cls-1" transform="translate(43.02 92.53) rotate(-69.47)"><tspan x="0" y="0">o</tspan></text>
    <text class="cls-1" transform="translate(43.71 90.71) rotate(-68.32)"><tspan x="0" y="0">r</tspan></text>
    <text class="cls-1" transform="translate(44.23 89.37) rotate(-67.13)"><tspan x="0" y="0">e</tspan></text>
    <text class="cls-1" transform="translate(44.97 87.6) rotate(-65.43)"><tspan x="0" y="0">m</tspan></text>
    <text class="cls-1" transform="translate(46.23 84.89) rotate(-64.01)"><tspan x="0" y="0"> </tspan></text>
    <text class="cls-1" transform="translate(46.7 83.91) rotate(-63.24)"><tspan x="0" y="0">I</tspan></text>
    <text class="cls-1" transform="translate(47.19 82.94) rotate(-62.17)"><tspan x="0" y="0">p</tspan></text>
    <text class="cls-1" transform="translate(48.12 81.18) rotate(-60.91)"><tspan x="0" y="0">s</tspan></text>
    <text class="cls-1" transform="translate(48.9 79.77) rotate(-59.63)"><tspan x="0" y="0">u</tspan></text>
    <text class="cls-1" transform="translate(49.92 78.02) rotate(-57.89)"><tspan x="0" y="0">m</tspan></text>
    <text class="cls-1" transform="translate(51.5 75.52) rotate(-56.34)"><tspan x="0" y="0">L</tspan></text>
    <text class="cls-1" transform="translate(52.32 74.29) rotate(-55.13)"><tspan x="0" y="0">o</tspan></text>
    <text class="cls-1" transform="translate(53.45 72.66) rotate(-53.95)"><tspan x="0" y="0">r</tspan></text>
    <text class="cls-1" transform="translate(54.28 71.52) rotate(-52.77)"><tspan x="0" y="0">e</tspan></text>
    <text class="cls-1" transform="translate(55.46 69.96) rotate(-51.04)"><tspan x="0" y="0">m</tspan></text>
    <text class="cls-1" transform="translate(57.33 67.66) rotate(-49.64)"><tspan x="0" y="0"> </tspan></text>
    <text class="cls-1" transform="translate(58.02 66.85) rotate(-48.89)"><tspan x="0" y="0">I</tspan></text>
    <text class="cls-1" transform="translate(58.74 66.01) rotate(-47.81)"><tspan x="0" y="0">p</tspan></text>
    <text class="cls-1" transform="translate(60.09 64.53) rotate(-46.55)"><tspan x="0" y="0">s</tspan></text>
    <text class="cls-1" transform="translate(61.19 63.37) rotate(-45.3)"><tspan x="0" y="0">u</tspan></text>
    <text class="cls-1" transform="translate(62.6 61.93) rotate(-43.58)"><tspan x="0" y="0">m</tspan></text>
    <text class="cls-1" transform="translate(64.75 59.9) rotate(-42.2)"><tspan x="0" y="0"> </tspan></text>
    <text class="cls-1" transform="translate(65.55 59.17) rotate(-41.31)"><tspan x="0" y="0">L</tspan></text>
    <text class="cls-1" transform="translate(66.67 58.19) rotate(-40.56)"><tspan x="0" y="0">o</tspan></text>
    <text class="cls-1" transform="translate(68.17 56.92) rotate(-38.71)"><tspan x="0" y="0">r</tspan></text>
    <text class="cls-1" transform="translate(69.26 56.03) rotate(-37.85)"><tspan x="0" y="0">e</tspan></text>
    <text class="cls-1" transform="translate(70.81 54.82) rotate(-36.14)"><tspan x="0" y="0">m</tspan></text>
    <text class="cls-1" transform="translate(73.2 53.09) rotate(-34.76)"><tspan x="0" y="0"> </tspan></text>
    <text class="cls-1" transform="translate(74.11 52.46) rotate(-34)"><tspan x="0" y="0">I</tspan></text>
    <text class="cls-1" transform="translate(75 51.85) rotate(-32.94)"><tspan x="0" y="0">p</tspan></text>
    <text class="cls-1" transform="translate(76.67 50.77) rotate(-31.69)"><tspan x="0" y="0">s</tspan></text>
    <text class="cls-1" transform="translate(78.04 49.93) rotate(-30.43)"><tspan x="0" y="0">u</tspan></text>
    <text class="cls-1" transform="translate(79.79 48.89) rotate(-28.68)"><tspan x="0" y="0">m</tspan></text>
    <text class="cls-1" transform="translate(82.38 47.48) rotate(-27.29)"><tspan x="0" y="0"> </tspan></text>
    <text class="cls-1" transform="translate(83.36 46.98) rotate(-26.37)"><tspan x="0" y="0">L</tspan></text>
    <text class="cls-1" transform="translate(84.68 46.32) rotate(-25.16)"><tspan x="0" y="0">o</tspan></text>
    <text class="cls-1" transform="translate(86.45 45.49) rotate(-24)"><tspan x="0" y="0">r</tspan></text>
    <text class="cls-1" transform="translate(87.76 44.9) rotate(-22.8)"><tspan x="0" y="0">e</tspan></text>
    <text class="cls-1" transform="translate(89.53 44.15) rotate(-21.1)"><tspan x="0" y="0">m</tspan></text>
    <text class="cls-1" transform="translate(92.31 43.09) rotate(-19.68)"><tspan x="0" y="0"> </tspan></text>
    <text class="cls-1" transform="translate(93.34 42.73) rotate(-18.91)"><tspan x="0" y="0">I</tspan></text>
    <text class="cls-1" transform="translate(94.37 42.37) rotate(-17.83)"><tspan x="0" y="0">p</tspan></text>
    <text class="cls-1" transform="translate(96.27 41.76) rotate(-16.58)"><tspan x="0" y="0">s</tspan></text>
    <text class="cls-1" transform="translate(97.81 41.3) rotate(-15.31)"><tspan x="0" y="0">u</tspan></text>
    <text class="cls-1" transform="translate(99.76 40.75) rotate(-13.56)"><tspan x="0" y="0">m</tspan></text>
    <text class="cls-1" transform="translate(102.63 40.07) rotate(-12.17)"><tspan x="0" y="0"> </tspan></text>
    <text class="cls-1" transform="translate(103.68 39.85) rotate(-11.28)"><tspan x="0" y="0">L</tspan></text>
    <text class="cls-1" transform="translate(105.15 39.55) rotate(-10.06)"><tspan x="0" y="0">o</tspan></text>
    <text class="cls-1" transform="translate(107.09 39.21) rotate(-8.89)"><tspan x="0" y="0">r</tspan></text>
    <text class="cls-1" transform="translate(108.51 38.98) rotate(-7.71)"><tspan x="0" y="0">e</tspan></text>
    <text class="cls-1" transform="translate(110.43 38.72) rotate(-6)"><tspan x="0" y="0">m</tspan></text>
    <text class="cls-1" transform="translate(113.38 38.42) rotate(-4.6)"><tspan x="0" y="0"> </tspan></text>
    <text class="cls-1" transform="translate(114.45 38.33) rotate(-3.85)"><tspan x="0" y="0">I</tspan></text>
    <text class="cls-1" transform="translate(115.55 38.25) rotate(-2.78)"><tspan x="0" y="0">p</tspan></text>
    <text class="cls-1" transform="translate(117.54 38.16) rotate(-1.54)"><tspan x="0" y="0">s</tspan></text>
    <text class="cls-1" transform="translate(119.13 38.11) rotate(-.3)"><tspan x="0" y="0">u</tspan></text>
    <text class="cls-1" transform="translate(121.16 38.1) rotate(1.43)"><tspan x="0" y="0">m</tspan></text>
    <text class="cls-1" transform="translate(124.13 38.18) rotate(2.97)"><tspan x="0" y="0">L</tspan></text>
    <text class="cls-1" transform="translate(125.61 38.25) rotate(4.17)"><tspan x="0" y="0">o</tspan></text>
    <text class="cls-1" transform="translate(127.57 38.4) rotate(5.32)"><tspan x="0" y="0">r</tspan></text>
    <text class="cls-1" transform="translate(128.99 38.53) rotate(6.49)"><tspan x="0" y="0">e</tspan></text>
    <text class="cls-1" transform="translate(130.9 38.74) rotate(8.18)"><tspan x="0" y="0">m</tspan></text>
    <text class="cls-1" transform="translate(133.87 39.18) rotate(9.59)"><tspan x="0" y="0"> </tspan></text>
    <text class="cls-1" transform="translate(134.92 39.35) rotate(10.34)"><tspan x="0" y="0">I</tspan></text>
    <text class="cls-1" transform="translate(136 39.55) rotate(11.41)"><tspan x="0" y="0">p</tspan></text>
    <text class="cls-1" transform="translate(137.96 39.94) rotate(12.65)"><tspan x="0" y="0">s</tspan></text>
    <text class="cls-1" transform="translate(139.51 40.29) rotate(13.89)"><tspan x="0" y="0">u</tspan></text>
    <text class="cls-1" transform="translate(141.48 40.77) rotate(15.63)"><tspan x="0" y="0">m</tspan></text>
    <text class="cls-1" transform="translate(144.32 41.57) rotate(17.16)"><tspan x="0" y="0">L</tspan></text>
    <text class="cls-1" transform="translate(145.75 42.01) rotate(18.37)"><tspan x="0" y="0">o</tspan></text>
    <text class="cls-1" transform="translate(147.62 42.64) rotate(19.53)"><tspan x="0" y="0">r</tspan></text>
    <text class="cls-1" transform="translate(148.97 43.11) rotate(20.72)"><tspan x="0" y="0">e</tspan></text>
    <text class="cls-1" transform="translate(150.77 43.78) rotate(22.42)"><tspan x="0" y="0">m</tspan></text>
    <text class="cls-1" transform="translate(153.52 44.93) rotate(23.83)"><tspan x="0" y="0"> </tspan></text>
    <text class="cls-1" transform="translate(154.51 45.37) rotate(24.59)"><tspan x="0" y="0">I</tspan></text>
    <text class="cls-1" transform="translate(155.52 45.83) rotate(25.69)"><tspan x="0" y="0">p</tspan></text>
    <text class="cls-1" transform="translate(157.32 46.69) rotate(26.93)"><tspan x="0" y="0">s</tspan></text>
    <text class="cls-1" transform="translate(158.75 47.42) rotate(28.2)"><tspan x="0" y="0">u</tspan></text>
    <text class="cls-1" transform="translate(160.52 48.36) rotate(29.95)"><tspan x="0" y="0">m</tspan></text>
    <text class="cls-1" transform="translate(163.09 49.86) rotate(31.36)"><tspan x="0" y="0"> </tspan></text>
    <text class="cls-1" transform="translate(164.01 50.41) rotate(32.11)"><tspan x="0" y="0"> </tspan></text>
    <text class="cls-1" transform="translate(164.92 50.99) rotate(32.87)"><tspan x="0" y="0"> </tspan></text>
    <text class="cls-1" transform="translate(165.82 51.56) rotate(33.75)"><tspan x="0" y="0">L</tspan></text>
    <text class="cls-1" transform="translate(167.04 52.38) rotate(34.96)"><tspan x="0" y="0">o</tspan></text>
    <text class="cls-1" transform="translate(168.67 53.51) rotate(36.14)"><tspan x="0" y="0">r</tspan></text>
    <text class="cls-1" transform="translate(169.81 54.35) rotate(37.32)"><tspan x="0" y="0">e</tspan></text>
    <text class="cls-1" transform="translate(171.37 55.53) rotate(39.05)"><tspan x="0" y="0">m</tspan></text>
    <text class="cls-1" transform="translate(173.68 57.41) rotate(40.46)"><tspan x="0" y="0"> </tspan></text>
    <text class="cls-1" transform="translate(174.48 58.1) rotate(41.2)"><tspan x="0" y="0">I</tspan></text>
    <text class="cls-1" transform="translate(175.31 58.82) rotate(42.28)"><tspan x="0" y="0">p</tspan></text>
    <text class="cls-1" transform="translate(176.81 60.18) rotate(43.55)"><tspan x="0" y="0">s</tspan></text>
    <text class="cls-1" transform="translate(177.95 61.27) rotate(44.79)"><tspan x="0" y="0">u</tspan></text>
    <text class="cls-1" transform="translate(179.39 62.68) rotate(46.51)"><tspan x="0" y="0">m</tspan></text>
    <text class="cls-1" transform="translate(181.43 64.85) rotate(48.04)"><tspan x="0" y="0">L</tspan></text>
    <text class="cls-1" transform="translate(182.43 65.96) rotate(49.23)"><tspan x="0" y="0">o</tspan></text>
    <text class="cls-1" transform="translate(183.71 67.43) rotate(51.29)"><tspan x="0" y="0">r</tspan></text>
    <text class="cls-1" transform="translate(184.61 68.53) rotate(51.52)"><tspan x="0" y="0">e</tspan></text>
    <text class="cls-1" transform="translate(185.82 70.04) rotate(53.2)"><tspan x="0" y="0">m</tspan></text>
    <text class="cls-1" transform="translate(187.61 72.45) rotate(54.6)"><tspan x="0" y="0"> </tspan></text>
    <text class="cls-1" transform="translate(188.23 73.32) rotate(55.67)"><tspan x="0" y="0">p</tspan></text>
    <text class="cls-1" transform="translate(189.36 74.97) rotate(56.91)"><tspan x="0" y="0">s</tspan></text>
    <text class="cls-1" transform="translate(190.22 76.29) rotate(58.15)"><tspan x="0" y="0">u</tspan></text>
    <text class="cls-1" transform="translate(191.29 78) rotate(59.88)"><tspan x="0" y="0">m</tspan></text>
    <text class="cls-1" transform="translate(192.78 80.59) rotate(61.3)"><tspan x="0" y="0"> </tspan></text>
    <text class="cls-1" transform="translate(193.29 81.52) rotate(62.04)"><tspan x="0" y="0"> </tspan></text>
    <text class="cls-1" transform="translate(193.8 82.48) rotate(62.8)"><tspan x="0" y="0"> </tspan></text>
    <text class="cls-1" transform="translate(194.29 83.43) rotate(63.7)"><tspan x="0" y="0">L</tspan></text>
    <text class="cls-1" transform="translate(194.95 84.76) rotate(64.9)"><tspan x="0" y="0">o</tspan></text>
    <text class="cls-1" transform="translate(195.79 86.55) rotate(66.09)"><tspan x="0" y="0">r</tspan></text>
    <text class="cls-1" transform="translate(196.36 87.84) rotate(67.26)"><tspan x="0" y="0">e</tspan></text>
    <text class="cls-1" transform="translate(197.12 89.64) rotate(68.99)"><tspan x="0" y="0">m</tspan></text>
    <text class="cls-1" transform="translate(198.18 92.42) rotate(70.41)"><tspan x="0" y="0"> </tspan></text>
    <text class="cls-1" transform="translate(198.53 93.42) rotate(71.16)"><tspan x="0" y="0">I</tspan></text>
    <text class="cls-1" transform="translate(198.9 94.48) rotate(72.26)"><tspan x="0" y="0">p</tspan></text>
    <text class="cls-1" transform="translate(199.51 96.38) rotate(73.51)"><tspan x="0" y="0">s</tspan></text>
    <text class="cls-1" transform="translate(199.95 97.89) rotate(74.76)"><tspan x="0" y="0">u</tspan></text>
    <text class="cls-1" transform="translate(200.5 99.84) rotate(76.51)"><tspan x="0" y="0">m</tspan></text>
    <text class="cls-1" transform="translate(201.18 102.72) rotate(78.05)"><tspan x="0" y="0">L</tspan></text>
    <text class="cls-1" transform="translate(201.49 104.19) rotate(79.27)"><tspan x="0" y="0">o</tspan></text>
    <text class="cls-1" transform="translate(201.85 106.13) rotate(80.44)"><tspan x="0" y="0">r</tspan></text>
    <text class="cls-1" transform="translate(202.09 107.51) rotate(81.6)"><tspan x="0" y="0">e</tspan></text>
    <text class="cls-1" transform="translate(202.38 109.43) rotate(83.31)"><tspan x="0" y="0">m</tspan></text>
    <text class="cls-1" transform="translate(202.72 112.38) rotate(84.71)"><tspan x="0" y="0"> </tspan></text>
    <text class="cls-1" transform="translate(202.82 113.45) rotate(85.46)"><tspan x="0" y="0">I</tspan></text>
    <text class="cls-1" transform="translate(202.91 114.58) rotate(86.55)"><tspan x="0" y="0">p</tspan></text>
    <text class="cls-1" transform="translate(203.03 116.58) rotate(87.8)"><tspan x="0" y="0">s</tspan></text>
    <text class="cls-1" transform="translate(203.09 118.16) rotate(89.04)"><tspan x="0" y="0">u</tspan></text>
    <text class="cls-1" transform="translate(203.13 120.16) rotate(90.75)"><tspan x="0" y="0">m</tspan></text>
    <text class="cls-1" transform="translate(203.08 123.13) rotate(92.29)"><tspan x="0" y="0">L</tspan></text>
    <text class="cls-1" transform="translate(203.03 124.62) rotate(93.49)"><tspan x="0" y="0">o</tspan></text>
    <text class="cls-1" transform="translate(202.9 126.61) rotate(94.66)"><tspan x="0" y="0">r</tspan></text>
    <text class="cls-1" transform="translate(202.79 127.99) rotate(95.81)"><tspan x="0" y="0">e</tspan></text>
    <text class="cls-1" transform="translate(202.6 129.94) rotate(97.52)"><tspan x="0" y="0">m</tspan></text>
    <text class="cls-1" transform="translate(202.2 132.88) rotate(98.91)"><tspan x="0" y="0"> </tspan></text>
    <text class="cls-1" transform="translate(202.04 133.93) rotate(99.85)"><tspan x="0" y="0">E</tspan></text>
    <text class="cls-1" transform="translate(201.76 135.57) rotate(101.11)"><tspan x="0" y="0">n</tspan></text>
    <text class="cls-1" transform="translate(201.37 137.54) rotate(102.5)"><tspan x="0" y="0">d</tspan></text>
  </g>
</svg>