<?xml version="1.0" encoding="UTF-8"?>
<svg id="Layer_2" data-name="Layer 2" xmlns="http://www.w3.org/2000/svg" viewBox="0 0 117.37 117.36">
  <defs>
    <style>
      .cls-1 {
        fill: #231f20;
        font-family: Futura-Medium, Futura;
        font-size: 2.5px;
        font-weight: 500;
      }
    </style>
  </defs>
  <g id="Layer_7" data-name="Layer 7">
    <text class="cls-1" transform="translate(22.19 77.91) rotate(-116.85)"><tspan x="0" y="0">T</tspan></text>
    <text class="cls-1" transform="translate(21.7 76.94) rotate(-115.64)"><tspan x="0" y="0">r</tspan></text>
    <text class="cls-1" transform="translate(21.3 76.12) rotate(-114.01)"><tspan x="0" y="0">a</tspan></text>
    <text class="cls-1" transform="translate(20.7 74.75) rotate(-112.47)"><tspan x="0" y="0">f</tspan></text>
    <text class="cls-1" transform="translate(20.39 74) rotate(-111.35)"><tspan x="0" y="0">f</tspan></text>
    <text class="cls-1" transform="translate(20.09 73.25) rotate(-110.31)"><tspan x="0" y="0">i</tspan></text>
    <text class="cls-1" transform="translate(19.88 72.69) rotate(-109.09)"><tspan x="0" y="0">c</tspan></text>
    <text class="cls-1" transform="translate(19.5 71.58) rotate(-107.74)"><tspan x="0" y="0"> </tspan></text>
    <text class="cls-1" transform="translate(19.26 70.83) rotate(-106.35)"><tspan x="0" y="0">c</tspan></text>
    <text class="cls-1" transform="translate(18.93 69.72) rotate(-104.51)"><tspan x="0" y="0">o</tspan></text>
    <text class="cls-1" transform="translate(18.55 68.26) rotate(-102.5)"><tspan x="0" y="0">n</tspan></text>
    <text class="cls-1" transform="translate(18.26 66.93) rotate(-100.59)"><tspan x="0" y="0">e</tspan></text>
    <text class="cls-1" transform="translate(18.01 65.6) rotate(-98.95)"><tspan x="0" y="0">s</tspan></text>
    <text class="cls-1" transform="translate(17.86 64.61) rotate(-97.71)"><tspan x="0" y="0"> </tspan></text>
    <text class="cls-1" transform="translate(17.75 63.85) rotate(-96.12)"><tspan x="0" y="0">a</tspan></text>
    <text class="cls-1" transform="translate(17.59 62.38) rotate(-94.45)"><tspan x="0" y="0">r</tspan></text>
    <text class="cls-1" transform="translate(17.52 61.48) rotate(-92.88)"><tspan x="0" y="0">e</tspan></text>
    <text class="cls-1" transform="translate(17.46 60.11) rotate(-91.4)"><tspan x="0" y="0"> </tspan></text>
    <text class="cls-1" transform="translate(17.44 59.32) rotate(-90.39)"><tspan x="0" y="0">i</tspan></text>
    <text class="cls-1" transform="translate(17.43 58.72) rotate(-89.05)"><tspan x="0" y="0">n</tspan></text>
    <text class="cls-1" transform="translate(17.45 57.35) rotate(-87.62)"><tspan x="0" y="0">t</tspan></text>
    <text class="cls-1" transform="translate(17.48 56.68) rotate(-86.19)"><tspan x="0" y="0">e</tspan></text>
    <text class="cls-1" transform="translate(17.57 55.3) rotate(-84.29)"><tspan x="0" y="0">n</tspan></text>
    <text class="cls-1" transform="translate(17.7 53.95) rotate(-82.32)"><tspan x="0" y="0">d</tspan></text>
    <text class="cls-1" transform="translate(17.9 52.48) rotate(-80.34)"><tspan x="0" y="0">e</tspan></text>
    <text class="cls-1" transform="translate(18.13 51.13) rotate(-78.37)"><tspan x="0" y="0">d</tspan></text>
    <text class="cls-1" transform="translate(18.44 49.65) rotate(-76.79)"><tspan x="0" y="0"> </tspan></text>
    <text class="cls-1" transform="translate(18.61 48.92) rotate(-75.81)"><tspan x="0" y="0">t</tspan></text>
    <text class="cls-1" transform="translate(18.77 48.26) rotate(-74.31)"><tspan x="0" y="0">o</tspan></text>
    <text class="cls-1" transform="translate(19.19 46.81) rotate(-72.73)"><tspan x="0" y="0"> </tspan></text>
    <text class="cls-1" transform="translate(19.4 46.09) rotate(-71.2)"><tspan x="0" y="0">d</tspan></text>
    <text class="cls-1" transform="translate(19.88 44.69) rotate(-69.23)"><tspan x="0" y="0">e</tspan></text>
    <text class="cls-1" transform="translate(20.37 43.41) rotate(-67.86)"><tspan x="0" y="0">l</tspan></text>
    <text class="cls-1" transform="translate(20.6 42.84) rotate(-67.01)"><tspan x="0" y="0">i</tspan></text>
    <text class="cls-1" transform="translate(20.84 42.27) rotate(-65.64)"><tspan x="0" y="0">n</tspan></text>
    <text class="cls-1" transform="translate(21.4 41.03) rotate(-63.75)"><tspan x="0" y="0">e</tspan></text>
    <text class="cls-1" transform="translate(22.01 39.8) rotate(-61.78)"><tspan x="0" y="0">a</tspan></text>
    <text class="cls-1" transform="translate(22.72 38.49) rotate(-60.27)"><tspan x="0" y="0">t</tspan></text>
    <text class="cls-1" transform="translate(23.07 37.87) rotate(-58.8)"><tspan x="0" y="0">e</tspan></text>
    <text class="cls-1" transform="translate(23.77 36.71) rotate(-57.33)"><tspan x="0" y="0"> </tspan></text>
    <text class="cls-1" transform="translate(24.18 36.08) rotate(-56.11)"><tspan x="0" y="0">s</tspan></text>
    <text class="cls-1" transform="translate(24.74 35.24) rotate(-54.38)"><tspan x="0" y="0">p</tspan></text>
    <text class="cls-1" transform="translate(25.61 34.02) rotate(-52.28)"><tspan x="0" y="0">a</tspan></text>
    <text class="cls-1" transform="translate(26.51 32.85) rotate(-50.44)"><tspan x="0" y="0">c</tspan></text>
    <text class="cls-1" transform="translate(27.27 31.93) rotate(-48.64)"><tspan x="0" y="0">e</tspan></text>
    <text class="cls-1" transform="translate(28.18 30.91) rotate(-47.16)"><tspan x="0" y="0"> </tspan></text>
    <text class="cls-1" transform="translate(28.69 30.35) rotate(-45.59)"><tspan x="0" y="0">b</tspan></text>
    <text class="cls-1" transform="translate(29.74 29.28) rotate(-43.59)"><tspan x="0" y="0">u</tspan></text>
    <text class="cls-1" transform="translate(30.72 28.35) rotate(-42.16)"><tspan x="0" y="0">t</tspan></text>
    <text class="cls-1" transform="translate(31.21 27.91) rotate(-41.18)"><tspan x="0" y="0"> </tspan></text>
    <text class="cls-1" transform="translate(31.78 27.41) rotate(-39.61)"><tspan x="0" y="0">d</tspan></text>
    <text class="cls-1" transform="translate(32.92 26.46) rotate(-37.55)"><tspan x="0" y="0">o</tspan></text>
    <text class="cls-1" transform="translate(34.11 25.55) rotate(-35.97)"><tspan x="0" y="0"> </tspan></text>
    <text class="cls-1" transform="translate(34.72 25.11) rotate(-34.75)"><tspan x="0" y="0">s</tspan></text>
    <text class="cls-1" transform="translate(35.56 24.52) rotate(-32.99)"><tspan x="0" y="0">o</tspan></text>
    <text class="cls-1" transform="translate(36.81 23.72) rotate(-31.45)"><tspan x="0" y="0"> </tspan></text>
    <text class="cls-1" transform="translate(37.46 23.32) rotate(-30.5)"><tspan x="0" y="0">i</tspan></text>
    <text class="cls-1" transform="translate(37.99 23) rotate(-29.14)"><tspan x="0" y="0">n</tspan></text>
    <text class="cls-1" transform="translate(39.16 22.34) rotate(-26.85)"><tspan x="0" y="0">t</tspan></text>
    <text class="cls-1" transform="translate(39.8 22.01) rotate(-26.32)"><tspan x="0" y="0">e</tspan></text>
    <text class="cls-1" transform="translate(41.02 21.41) rotate(-24.47)"><tspan x="0" y="0">n</tspan></text>
    <text class="cls-1" transform="translate(42.26 20.85) rotate(-23.06)"><tspan x="0" y="0">t</tspan></text>
    <text class="cls-1" transform="translate(42.89 20.58) rotate(-22.16)"><tspan x="0" y="0">i</tspan></text>
    <text class="cls-1" transform="translate(43.45 20.35) rotate(-20.71)"><tspan x="0" y="0">o</tspan></text>
    <text class="cls-1" transform="translate(44.84 19.82) rotate(-18.73)"><tspan x="0" y="0">n</tspan></text>
    <text class="cls-1" transform="translate(46.13 19.38) rotate(-16.75)"><tspan x="0" y="0">a</tspan></text>
    <text class="cls-1" transform="translate(47.56 18.96) rotate(-15.27)"><tspan x="0" y="0">l</tspan></text>
    <text class="cls-1" transform="translate(48.15 18.8) rotate(-14.42)"><tspan x="0" y="0">l</tspan></text>
    <text class="cls-1" transform="translate(48.75 18.64) rotate(-13.03)"><tspan x="0" y="0">y</tspan></text>
    <text class="cls-1" transform="translate(50.06 18.34) rotate(-11.56)"><tspan x="0" y="0"> </tspan></text>
    <text class="cls-1" transform="translate(50.82 18.18) rotate(-9.97)"><tspan x="0" y="0">p</tspan></text>
    <text class="cls-1" transform="translate(52.28 17.92) rotate(-7.89)"><tspan x="0" y="0">o</tspan></text>
    <text class="cls-1" transform="translate(53.75 17.72) rotate(-5.82)"><tspan x="0" y="0">o</tspan></text>
    <text class="cls-1" transform="translate(55.22 17.57) rotate(-4.15)"><tspan x="0" y="0">r</tspan></text>
    <text class="cls-1" transform="translate(56.19 17.5) rotate(-3.01)"><tspan x="0" y="0">l</tspan></text>
    <text class="cls-1" transform="translate(56.82 17.46) rotate(-1.61)"><tspan x="0" y="0">y</tspan></text>
    <text class="cls-1" transform="translate(58.02 17.43) rotate(-.35)"><tspan x="0" y="0">.</tspan></text>
    <text class="cls-1" transform="translate(58.8 17.43) rotate(.73)"><tspan x="0" y="0"> </tspan></text>
    <text class="cls-1" transform="translate(59.56 17.43) rotate(2.3)"><tspan x="0" y="0">Y</tspan></text>
    <text class="cls-1" transform="translate(60.86 17.48) rotate(4.11)"><tspan x="0" y="0">o</tspan></text>
    <text class="cls-1" transform="translate(62.36 17.59) rotate(6.09)"><tspan x="0" y="0">u</tspan></text>
    <text class="cls-1" transform="translate(63.7 17.74) rotate(7.56)"><tspan x="0" y="0"> </tspan></text>
    <text class="cls-1" transform="translate(64.47 17.84) rotate(8.93)"><tspan x="0" y="0">c</tspan></text>
    <text class="cls-1" transform="translate(65.64 18.02) rotate(10.77)"><tspan x="0" y="0">a</tspan></text>
    <text class="cls-1" transform="translate(67.07 18.29) rotate(12.7)"><tspan x="0" y="0">n</tspan></text>
    <text class="cls-1" transform="translate(68.42 18.6) rotate(14.19)"><tspan x="0" y="0"> </tspan></text>
    <text class="cls-1" transform="translate(69.15 18.78) rotate(15.73)"><tspan x="0" y="0">d</tspan></text>
    <text class="cls-1" transform="translate(70.58 19.18) rotate(17.4)"><tspan x="0" y="0">r</tspan></text>
    <text class="cls-1" transform="translate(71.49 19.47) rotate(18.51)"><tspan x="0" y="0">i</tspan></text>
    <text class="cls-1" transform="translate(72.07 19.66) rotate(19.79)"><tspan x="0" y="0">v</tspan></text>
    <text class="cls-1" transform="translate(73.21 20.07) rotate(21.54)"><tspan x="0" y="0">e</tspan></text>
    <text class="cls-1" transform="translate(74.5 20.58) rotate(23.03)"><tspan x="0" y="0"> </tspan></text>
    <text class="cls-1" transform="translate(75.19 20.87) rotate(24.57)"><tspan x="0" y="0">o</tspan></text>
    <text class="cls-1" transform="translate(76.5 21.47) rotate(26.4)"><tspan x="0" y="0">v</tspan></text>
    <text class="cls-1" transform="translate(77.57 22) rotate(28.14)"><tspan x="0" y="0">e</tspan></text>
    <text class="cls-1" transform="translate(78.78 22.65) rotate(29.73)"><tspan x="0" y="0">r</tspan></text>
    <text class="cls-1" transform="translate(79.58 23.11) rotate(30.9)"><tspan x="0" y="0"> </tspan></text>
    <text class="cls-1" transform="translate(80.26 23.51) rotate(32.5)"><tspan x="0" y="0">a</tspan></text>
    <text class="cls-1" transform="translate(81.51 24.31) rotate(34.06)"><tspan x="0" y="0"> </tspan></text>
    <text class="cls-1" transform="translate(82.14 24.74) rotate(35.06)"><tspan x="0" y="0">t</tspan></text>
    <text class="cls-1" transform="translate(82.68 25.11) rotate(36.15)"><tspan x="0" y="0">r</tspan></text>
    <text class="cls-1" transform="translate(83.41 25.64) rotate(37.81)"><tspan x="0" y="0">a</tspan></text>
    <text class="cls-1" transform="translate(84.6 26.57) rotate(39.39)"><tspan x="0" y="0">f</tspan></text>
    <text class="cls-1" transform="translate(85.23 27.09) rotate(40.53)"><tspan x="0" y="0">f</tspan></text>
    <text class="cls-1" transform="translate(85.83 27.6) rotate(41.54)"><tspan x="0" y="0">i</tspan></text>
    <text class="cls-1" transform="translate(86.28 28) rotate(42.77)"><tspan x="0" y="0">c</tspan></text>
    <text class="cls-1" transform="translate(87.15 28.81) rotate(44.15)"><tspan x="0" y="0"> </tspan></text>
    <text class="cls-1" transform="translate(87.7 29.34) rotate(45.52)"><tspan x="0" y="0">c</tspan></text>
    <text class="cls-1" transform="translate(88.53 30.18) rotate(47.39)"><tspan x="0" y="0">o</tspan></text>
    <text class="cls-1" transform="translate(89.53 31.27) rotate(49.36)"><tspan x="0" y="0">n</tspan></text>
    <text class="cls-1" transform="translate(90.42 32.31) rotate(51.29)"><tspan x="0" y="0">e</tspan></text>
    <text class="cls-1" transform="translate(91.28 33.38) rotate(52.77)"><tspan x="0" y="0"> </tspan></text>
    <text class="cls-1" transform="translate(91.75 33.99) rotate(54.35)"><tspan x="0" y="0">a</tspan></text>
    <text class="cls-1" transform="translate(92.6 35.18) rotate(56.29)"><tspan x="0" y="0">n</tspan></text>
    <text class="cls-1" transform="translate(93.37 36.32) rotate(58.28)"><tspan x="0" y="0">d</tspan></text>
    <text class="cls-1" transform="translate(94.14 37.59) rotate(59.82)"><tspan x="0" y="0"> </tspan></text>
    <text class="cls-1" transform="translate(94.53 38.26) rotate(60.77)"><tspan x="0" y="0">i</tspan></text>
    <text class="cls-1" transform="translate(94.82 38.78) rotate(61.29)"><tspan x="0" y="0">t</tspan></text>
    <text class="cls-1" transform="translate(95.15 39.38) rotate(63.15)"><tspan x="0" y="0"> </tspan></text>
    <text class="cls-1" transform="translate(95.5 40.04) rotate(64.44)"><tspan x="0" y="0">w</tspan></text>
    <text class="cls-1" transform="translate(96.32 41.77) rotate(66.17)"><tspan x="0" y="0">i</tspan></text>
    <text class="cls-1" transform="translate(96.57 42.34) rotate(67.03)"><tspan x="0" y="0">l</tspan></text>
    <text class="cls-1" transform="translate(96.81 42.91) rotate(67.89)"><tspan x="0" y="0">l</tspan></text>
    <text class="cls-1" transform="translate(97.04 43.48) rotate(68.84)"><tspan x="0" y="0"> </tspan></text>
    <text class="cls-1" transform="translate(97.33 44.2) rotate(70.33)"><tspan x="0" y="0">n</tspan></text>
    <text class="cls-1" transform="translate(97.78 45.48) rotate(72.31)"><tspan x="0" y="0">o</tspan></text>
    <text class="cls-1" transform="translate(98.23 46.91) rotate(73.83)"><tspan x="0" y="0">t</tspan></text>
    <text class="cls-1" transform="translate(98.42 47.55) rotate(74.82)"><tspan x="0" y="0"> </tspan></text>
    <text class="cls-1" transform="translate(98.63 48.31) rotate(76.43)"><tspan x="0" y="0">d</tspan></text>
    <text class="cls-1" transform="translate(98.97 49.73) rotate(78.48)"><tspan x="0" y="0">a</tspan></text>
    <text class="cls-1" transform="translate(99.28 51.2) rotate(80.92)"><tspan x="0" y="0">m</tspan></text>
    <text class="cls-1" transform="translate(99.58 53.12) rotate(83.3)"><tspan x="0" y="0">a</tspan></text>
    <text class="cls-1" transform="translate(99.76 54.59) rotate(85.37)"><tspan x="0" y="0">g</tspan></text>
    <text class="cls-1" transform="translate(99.88 56.08) rotate(87.38)"><tspan x="0" y="0">e</tspan></text>
    <text class="cls-1" transform="translate(99.93 57.45) rotate(88.87)"><tspan x="0" y="0"> </tspan></text>
    <text class="cls-1" transform="translate(99.95 58.22) rotate(90.35)"><tspan x="0" y="0">y</tspan></text>
    <text class="cls-1" transform="translate(99.95 59.52) rotate(92.25)"><tspan x="0" y="0">o</tspan></text>
    <text class="cls-1" transform="translate(99.89 60.99) rotate(94.2)"><tspan x="0" y="0">u</tspan></text>
    <text class="cls-1" transform="translate(99.79 62.35) rotate(95.79)"><tspan x="0" y="0">r</tspan></text>
    <text class="cls-1" transform="translate(99.69 63.26) rotate(96.95)"><tspan x="0" y="0"> </tspan></text>
    <text class="cls-1" transform="translate(99.6 64.01) rotate(98.29)"><tspan x="0" y="0">c</tspan></text>
    <text class="cls-1" transform="translate(99.44 65.18) rotate(100.13)"><tspan x="0" y="0">a</tspan></text>
    <text class="cls-1" transform="translate(99.17 66.64) rotate(101.8)"><tspan x="0" y="0">r</tspan></text>
    <text class="cls-1" transform="translate(99.01 67.42) rotate(102.78)"><tspan x="0" y="0">.</tspan></text>
    <text class="cls-1" transform="translate(98.84 68.17) rotate(103.85)"><tspan x="0" y="0"> </tspan></text>
    <text class="cls-1" transform="translate(98.66 68.92) rotate(105.22)"><tspan x="0" y="0">T</tspan></text>
    <text class="cls-1" transform="translate(98.35 70.07) rotate(106.97)"><tspan x="0" y="0">h</tspan></text>
    <text class="cls-1" transform="translate(97.95 71.36) rotate(108.84)"><tspan x="0" y="0">e</tspan></text>
    <text class="cls-1" transform="translate(97.52 72.63) rotate(110.68)"><tspan x="0" y="0">y</tspan></text>
    <text class="cls-1" transform="translate(97.04 73.89) rotate(112.14)"><tspan x="0" y="0"> </tspan></text>
    <text class="cls-1" transform="translate(96.76 74.59) rotate(113.68)"><tspan x="0" y="0">a</tspan></text>
    <text class="cls-1" transform="translate(96.16 75.95) rotate(115.35)"><tspan x="0" y="0">r</tspan></text>
    <text class="cls-1" transform="translate(95.78 76.76) rotate(116.89)"><tspan x="0" y="0">e</tspan></text>
    <text class="cls-1" transform="translate(95.15 78) rotate(118.4)"><tspan x="0" y="0"> </tspan></text>
    <text class="cls-1" transform="translate(94.79 78.67) rotate(119.39)"><tspan x="0" y="0">t</tspan></text>
    <text class="cls-1" transform="translate(94.44 79.29) rotate(120.86)"><tspan x="0" y="0">h</tspan></text>
    <text class="cls-1" transform="translate(93.74 80.46) rotate(122.76)"><tspan x="0" y="0">e</tspan></text>
    <text class="cls-1" transform="translate(93 81.61) rotate(124.23)"><tspan x="0" y="0"> </tspan></text>
    <text class="cls-1" transform="translate(92.56 82.25) rotate(125.8)"><tspan x="0" y="0">S</tspan></text>
    <text class="cls-1" transform="translate(91.69 83.45) rotate(127.33)"><tspan x="0" y="0">t</tspan></text>
    <text class="cls-1" transform="translate(91.28 84.01) rotate(128.86)"><tspan x="0" y="0">a</tspan></text>
    <text class="cls-1" transform="translate(90.33 85.18) rotate(130.4)"><tspan x="0" y="0">t</tspan></text>
    <text class="cls-1" transform="translate(89.89 85.7) rotate(131.85)"><tspan x="0" y="0">e</tspan></text>
    <text class="cls-1" transform="translate(88.98 86.71) rotate(133.35)"><tspan x="0" y="0">’</tspan></text>
    <text class="cls-1" transform="translate(88.42 87.31) rotate(134.64)"><tspan x="0" y="0">s</tspan></text>
    <text class="cls-1" transform="translate(87.71 88.03) rotate(135.88)"><tspan x="0" y="0"> </tspan></text>
    <text class="cls-1" transform="translate(87.16 88.57) rotate(137.8)"><tspan x="0" y="0">m</tspan></text>
    <text class="cls-1" transform="translate(85.72 89.87) rotate(140.19)"><tspan x="0" y="0">o</tspan></text>
    <text class="cls-1" transform="translate(84.58 90.82) rotate(141.92)"><tspan x="0" y="0">s</tspan></text>
    <text class="cls-1" transform="translate(83.78 91.44) rotate(143.09)"><tspan x="0" y="0">t</tspan></text>
    <text class="cls-1" transform="translate(83.22 91.86) rotate(144.12)"><tspan x="0" y="0"> </tspan></text>
    <text class="cls-1" transform="translate(82.63 92.3) rotate(145.66)"><tspan x="0" y="0">p</tspan></text>
    <text class="cls-1" transform="translate(81.38 93.15) rotate(147.74)"><tspan x="0" y="0">a</tspan></text>
    <text class="cls-1" transform="translate(80.15 93.92) rotate(149.19)"><tspan x="0" y="0">t</tspan></text>
    <text class="cls-1" transform="translate(79.51 94.31) rotate(150.68)"><tspan x="0" y="0">h</tspan></text>
    <text class="cls-1" transform="translate(78.32 94.98) rotate(153.15)"><tspan x="0" y="0">e</tspan></text>
    <text class="cls-1" transform="translate(77.1 95.61) rotate(153.95)"><tspan x="0" y="0">t</tspan></text>
    <text class="cls-1" transform="translate(76.47 95.91) rotate(154.85)"><tspan x="0" y="0">i</tspan></text>
    <text class="cls-1" transform="translate(75.93 96.17) rotate(156.08)"><tspan x="0" y="0">c</tspan></text>
    <text class="cls-1" transform="translate(74.83 96.65) rotate(157.44)"><tspan x="0" y="0"> </tspan></text>
    <text class="cls-1" transform="translate(74.15 96.94) rotate(158.97)"><tspan x="0" y="0">a</tspan></text>
    <text class="cls-1" transform="translate(72.76 97.47) rotate(160.46)"><tspan x="0" y="0">t</tspan></text>
    <text class="cls-1" transform="translate(72.12 97.7) rotate(161.41)"><tspan x="0" y="0">t</tspan></text>
    <text class="cls-1" transform="translate(71.45 97.93) rotate(162.89)"><tspan x="0" y="0">e</tspan></text>
    <text class="cls-1" transform="translate(70.17 98.33) rotate(165.18)"><tspan x="0" y="0">m</tspan></text>
    <text class="cls-1" transform="translate(68.24 98.83) rotate(167.63)"><tspan x="0" y="0">p</tspan></text>
    <text class="cls-1" transform="translate(66.75 99.15) rotate(169.19)"><tspan x="0" y="0">t</tspan></text>
    <text class="cls-1" transform="translate(66.07 99.29) rotate(170.39)"><tspan x="0" y="0">s</tspan></text>
    <text class="cls-1" transform="translate(65.08 99.45) rotate(171.63)"><tspan x="0" y="0"> </tspan></text>
    <text class="cls-1" transform="translate(64.35 99.57) rotate(173.17)"><tspan x="0" y="0">a</tspan></text>
    <text class="cls-1" transform="translate(62.85 99.74) rotate(174.71)"><tspan x="0" y="0">t</tspan></text>
    <text class="cls-1" transform="translate(62.21 99.8) rotate(175.68)"><tspan x="0" y="0"> </tspan></text>
    <text class="cls-1" transform="translate(61.45 99.86) rotate(177.03)"><tspan x="0" y="0">c</tspan></text>
    <text class="cls-1" transform="translate(60.26 99.92) rotate(178.91)"><tspan x="0" y="0">o</tspan></text>
    <text class="cls-1" transform="translate(58.76 99.95) rotate(-179.09)"><tspan x="0" y="0">n</tspan></text>
    <text class="cls-1" transform="translate(57.42 99.92) rotate(-177.71)"><tspan x="0" y="0">t</tspan></text>
    <text class="cls-1" transform="translate(56.74 99.9) rotate(-176.58)"><tspan x="0" y="0">r</tspan></text>
    <text class="cls-1" transform="translate(55.84 99.85) rotate(-174.94)"><tspan x="0" y="0">o</tspan></text>
    <text class="cls-1" transform="translate(54.35 99.71) rotate(-173.48)"><tspan x="0" y="0">l</tspan></text>
    <text class="cls-1" transform="translate(53.73 99.64) rotate(-172.62)"><tspan x="0" y="0">l</tspan></text>
    <text class="cls-1" transform="translate(53.12 99.56) rotate(-171.76)"><tspan x="0" y="0">i</tspan></text>
    <text class="cls-1" transform="translate(52.51 99.48) rotate(-170.38)"><tspan x="0" y="0">n</tspan></text>
    <text class="cls-1" transform="translate(51.16 99.25) rotate(-168.42)"><tspan x="0" y="0">g</tspan></text>
    <text class="cls-1" transform="translate(49.72 98.95) rotate(-166.88)"><tspan x="0" y="0"> </tspan></text>
    <text class="cls-1" transform="translate(48.99 98.79) rotate(-165.34)"><tspan x="0" y="0">o</tspan></text>
    <text class="cls-1" transform="translate(47.54 98.41) rotate(-163.37)"><tspan x="0" y="0">u</tspan></text>
    <text class="cls-1" transform="translate(46.24 98.02) rotate(-161.8)"><tspan x="0" y="0">r</tspan></text>
    <text class="cls-1" transform="translate(45.37 97.73) rotate(-160.64)"><tspan x="0" y="0"> </tspan></text>
    <text class="cls-1" transform="translate(44.65 97.49) rotate(-158.76)"><tspan x="0" y="0">m</tspan></text>
    <text class="cls-1" transform="translate(42.82 96.77) rotate(-156.37)"><tspan x="0" y="0">o</tspan></text>
    <text class="cls-1" transform="translate(41.49 96.18) rotate(-154.53)"><tspan x="0" y="0">v</tspan></text>
    <text class="cls-1" transform="translate(40.42 95.68) rotate(-152.81)"><tspan x="0" y="0">e</tspan></text>
    <text class="cls-1" transform="translate(39.19 95.06) rotate(-150.48)"><tspan x="0" y="0">m</tspan></text>
    <text class="cls-1" transform="translate(37.5 94.09) rotate(-148.2)"><tspan x="0" y="0">e</tspan></text>
    <text class="cls-1" transform="translate(36.33 93.37) rotate(-146.29)"><tspan x="0" y="0">n</tspan></text>
    <text class="cls-1" transform="translate(35.19 92.6) rotate(-144.85)"><tspan x="0" y="0">t</tspan></text>
    <text class="cls-1" transform="translate(34.64 92.21) rotate(-143.85)"><tspan x="0" y="0">.</tspan></text>
  </g>
</svg>