<?xml version="1.0" encoding="UTF-8"?>
<svg id="Layer_2" data-name="Layer 2" xmlns="http://www.w3.org/2000/svg" viewBox="0 0 57.14 57.14">
  <defs>
    <style>
      .cls-1 {
        fill: #231f20;
        font-family: Futura-Medium, Futura;
        font-size: 1.9px;
        font-weight: 500;
      }
    </style>
  </defs>
  <g id="Layer_1-2" data-name="Layer 1">
    <text class="cls-1" transform="translate(13.51 39.76) rotate(-124.51)"><tspan x="0" y="0">A</tspan></text>
    <text class="cls-1" transform="translate(12.73 38.6) rotate(-121.61)"><tspan x="0" y="0">t</tspan></text>
    <text class="cls-1" transform="translate(12.46 38.17) rotate(-119.98)"><tspan x="0" y="0"> </tspan></text>
    <text class="cls-1" transform="translate(12.17 37.66) rotate(-118.26)"><tspan x="0" y="0">t</tspan></text>
    <text class="cls-1" transform="translate(11.91 37.19) rotate(-115.84)"><tspan x="0" y="0">h</tspan></text>
    <text class="cls-1" transform="translate(11.47 36.28) rotate(-112.7)"><tspan x="0" y="0">e</tspan></text>
    <text class="cls-1" transform="translate(11.07 35.32) rotate(-110.2)"><tspan x="0" y="0"> </tspan></text>
    <text class="cls-1" transform="translate(10.87 34.79) rotate(-107.98)"><tspan x="0" y="0">c</tspan></text>
    <text class="cls-1" transform="translate(10.6 33.96) rotate(-105.07)"><tspan x="0" y="0">e</tspan></text>
    <text class="cls-1" transform="translate(10.33 32.96) rotate(-101.91)"><tspan x="0" y="0">n</tspan></text>
    <text class="cls-1" transform="translate(10.12 31.96) rotate(-99.56)"><tspan x="0" y="0">t</tspan></text>
    <text class="cls-1" transform="translate(10.03 31.44) rotate(-97.12)"><tspan x="0" y="0">e</tspan></text>
    <text class="cls-1" transform="translate(9.91 30.42) rotate(-94.53)"><tspan x="0" y="0">r</tspan></text>
    <text class="cls-1" transform="translate(9.85 29.71) rotate(-92.55)"><tspan x="0" y="0"> </tspan></text>
    <text class="cls-1" transform="translate(9.82 29.15) rotate(-89.97)"><tspan x="0" y="0">o</tspan></text>
    <text class="cls-1" transform="translate(9.83 28.01) rotate(-87.4)"><tspan x="0" y="0">f</tspan></text>
    <text class="cls-1" transform="translate(9.85 27.46) rotate(-85.69)"><tspan x="0" y="0"> </tspan></text>
    <text class="cls-1" transform="translate(9.89 26.9) rotate(-84.07)"><tspan x="0" y="0">t</tspan></text>
    <text class="cls-1" transform="translate(9.94 26.37) rotate(-81.68)"><tspan x="0" y="0">h</tspan></text>
    <text class="cls-1" transform="translate(10.09 25.35) rotate(-78.51)"><tspan x="0" y="0">e</tspan></text>
    <text class="cls-1" transform="translate(10.3 24.35) rotate(-76.13)"><tspan x="0" y="0"> </tspan></text>
    <text class="cls-1" transform="translate(10.43 23.79) rotate(-73.9)"><tspan x="0" y="0">c</tspan></text>
    <text class="cls-1" transform="translate(10.68 22.93) rotate(-70.81)"><tspan x="0" y="0">a</tspan></text>
    <text class="cls-1" transform="translate(11.04 21.89) rotate(-67.44)"><tspan x="0" y="0">d</tspan></text>
    <text class="cls-1" transform="translate(11.48 20.84) rotate(-63.97)"><tspan x="0" y="0">b</tspan></text>
    <text class="cls-1" transform="translate(11.96 19.85) rotate(-60.75)"><tspan x="0" y="0">u</tspan></text>
    <text class="cls-1" transform="translate(12.46 18.96) rotate(-58.12)"><tspan x="0" y="0">r</tspan></text>
    <text class="cls-1" transform="translate(12.86 18.32) rotate(-55.29)"><tspan x="0" y="0">y</tspan></text>
    <text class="cls-1" transform="translate(13.45 17.47) rotate(-52.8)"><tspan x="0" y="0"> </tspan></text>
    <text class="cls-1" transform="translate(13.79 17.02) rotate(-50.57)"><tspan x="0" y="0">c</tspan></text>
    <text class="cls-1" transform="translate(14.35 16.34) rotate(-48.16)"><tspan x="0" y="0">r</tspan></text>
    <text class="cls-1" transform="translate(14.8 15.83) rotate(-45.55)"><tspan x="0" y="0">e</tspan></text>
    <text class="cls-1" transform="translate(15.53 15.08) rotate(-42.21)"><tspan x="0" y="0">a</tspan></text>
    <text class="cls-1" transform="translate(16.35 14.33) rotate(-38.31)"><tspan x="0" y="0">m</tspan></text>
    <text class="cls-1" transform="translate(17.52 13.42) rotate(-35.23)"><tspan x="0" y="0"> </tspan></text>
    <text class="cls-1" transform="translate(17.99 13.08) rotate(-32.78)"><tspan x="0" y="0">e</tspan></text>
    <text class="cls-1" transform="translate(18.86 12.52) rotate(-29.53)"><tspan x="0" y="0">g</tspan></text>
    <text class="cls-1" transform="translate(19.8 11.99) rotate(-26.19)"><tspan x="0" y="0">g</tspan></text>
    <text class="cls-1" transform="translate(20.81 11.49) rotate(-23.6)"><tspan x="0" y="0"> </tspan></text>
    <text class="cls-1" transform="translate(21.34 11.26) rotate(-21.99)"><tspan x="0" y="0">i</tspan></text>
    <text class="cls-1" transform="translate(21.77 11.09) rotate(-20.11)"><tspan x="0" y="0">s</tspan></text>
    <text class="cls-1" transform="translate(22.48 10.83) rotate(-18.07)"><tspan x="0" y="0"> </tspan></text>
    <text class="cls-1" transform="translate(23.03 10.65) rotate(-16.39)"><tspan x="0" y="0">t</tspan></text>
    <text class="cls-1" transform="translate(23.54 10.5) rotate(-13.93)"><tspan x="0" y="0">h</tspan></text>
    <text class="cls-1" transform="translate(24.53 10.25) rotate(-10.78)"><tspan x="0" y="0">e</tspan></text>
    <text class="cls-1" transform="translate(25.55 10.06) rotate(-8.34)"><tspan x="0" y="0"> </tspan></text>
    <text class="cls-1" transform="translate(26.11 9.97) rotate(-5.74)"><tspan x="0" y="0">g</tspan></text>
    <text class="cls-1" transform="translate(27.23 9.86) rotate(-2.29)"><tspan x="0" y="0">o</tspan></text>
    <text class="cls-1" transform="translate(28.33 9.81) rotate(1.05)"><tspan x="0" y="0">o</tspan></text>
    <text class="cls-1" transform="translate(29.45 9.83) rotate(4.31)"><tspan x="0" y="0">e</tspan></text>
    <text class="cls-1" transform="translate(30.47 9.91) rotate(7.39)"><tspan x="0" y="0">y</tspan></text>
    <text class="cls-1" transform="translate(31.47 10.04) rotate(9.77)"><tspan x="0" y="0"> </tspan></text>
    <text class="cls-1" transform="translate(32.03 10.14) rotate(12)"><tspan x="0" y="0">c</tspan></text>
    <text class="cls-1" transform="translate(32.88 10.31) rotate(14.99)"><tspan x="0" y="0">o</tspan></text>
    <text class="cls-1" transform="translate(33.99 10.61) rotate(17.82)"><tspan x="0" y="0">r</tspan></text>
    <text class="cls-1" transform="translate(34.63 10.82) rotate(20.4)"><tspan x="0" y="0">e</tspan></text>
    <text class="cls-1" transform="translate(35.59 11.18) rotate(22.82)"><tspan x="0" y="0">,</tspan></text>
    <text class="cls-1" transform="translate(36.11 11.4) rotate(24.55)"><tspan x="0" y="0"> </tspan></text>
    <text class="cls-1" transform="translate(36.64 11.63) rotate(27.68)"><tspan x="0" y="0">w</tspan></text>
    <text class="cls-1" transform="translate(37.92 12.3) rotate(31.45)"><tspan x="0" y="0">h</tspan></text>
    <text class="cls-1" transform="translate(38.79 12.84) rotate(33.74)"><tspan x="0" y="0">i</tspan></text>
    <text class="cls-1" transform="translate(39.16 13.09) rotate(35.78)"><tspan x="0" y="0">c</tspan></text>
    <text class="cls-1" transform="translate(39.93 13.64) rotate(38.89)"><tspan x="0" y="0">h</tspan></text>
    <text class="cls-1" transform="translate(40.72 14.28) rotate(41.31)"><tspan x="0" y="0"> </tspan></text>
    <text class="cls-1" transform="translate(41.15 14.65) rotate(43.91)"><tspan x="0" y="0">o</tspan></text>
    <text class="cls-1" transform="translate(41.97 15.44) rotate(47.25)"><tspan x="0" y="0">n</tspan></text>
    <text class="cls-1" transform="translate(42.66 16.18) rotate(50.32)"><tspan x="0" y="0">e</tspan></text>
    <text class="cls-1" transform="translate(43.3 16.97) rotate(52.48)"><tspan x="0" y="0"> </tspan></text>
    <text class="cls-1" transform="translate(43.67 17.44) rotate(54.95)"><tspan x="0" y="0">c</tspan></text>
    <text class="cls-1" transform="translate(44.17 18.15) rotate(57.94)"><tspan x="0" y="0">a</tspan></text>
    <text class="cls-1" transform="translate(44.76 19.1) rotate(61.19)"><tspan x="0" y="0">n</tspan></text>
    <text class="cls-1" transform="translate(45.25 20) rotate(63.63)"><tspan x="0" y="0"> </tspan></text>
    <text class="cls-1" transform="translate(45.51 20.52) rotate(65.24)"><tspan x="0" y="0">l</tspan></text>
    <text class="cls-1" transform="translate(45.71 20.94) rotate(66.67)"><tspan x="0" y="0">i</tspan></text>
    <text class="cls-1" transform="translate(45.89 21.36) rotate(68.72)"><tspan x="0" y="0">c</tspan></text>
    <text class="cls-1" transform="translate(46.23 22.22) rotate(71.66)"><tspan x="0" y="0">k</tspan></text>
    <text class="cls-1" transform="translate(46.51 23.1) rotate(73.96)"><tspan x="0" y="0"> </tspan></text>
    <text class="cls-1" transform="translate(46.68 23.66) rotate(76.6)"><tspan x="0" y="0">o</tspan></text>
    <text class="cls-1" transform="translate(46.94 24.74) rotate(79.83)"><tspan x="0" y="0">u</tspan></text>
    <text class="cls-1" transform="translate(47.11 25.74) rotate(82.18)"><tspan x="0" y="0">t</tspan></text>
    <text class="cls-1" transform="translate(47.18 26.24) rotate(83.83)"><tspan x="0" y="0"> </tspan></text>
    <text class="cls-1" transform="translate(47.25 26.83) rotate(85.9)"><tspan x="0" y="0">s</tspan></text>
    <text class="cls-1" transform="translate(47.3 27.56) rotate(88.57)"><tspan x="0" y="0">e</tspan></text>
    <text class="cls-1" transform="translate(47.33 28.59) rotate(91.83)"><tspan x="0" y="0">p</tspan></text>
    <text class="cls-1" transform="translate(47.29 29.73) rotate(95.16)"><tspan x="0" y="0">e</tspan></text>
    <text class="cls-1" transform="translate(47.2 30.74) rotate(97.73)"><tspan x="0" y="0">r</tspan></text>
    <text class="cls-1" transform="translate(47.11 31.42) rotate(100.46)"><tspan x="0" y="0">a</tspan></text>
    <text class="cls-1" transform="translate(46.9 32.52) rotate(102.93)"><tspan x="0" y="0">t</tspan></text>
    <text class="cls-1" transform="translate(46.79 33.03) rotate(105.33)"><tspan x="0" y="0">e</tspan></text>
    <text class="cls-1" transform="translate(46.52 34.02) rotate(107.56)"><tspan x="0" y="0">l</tspan></text>
    <text class="cls-1" transform="translate(46.38 34.48) rotate(109.88)"><tspan x="0" y="0">y</tspan></text>
    <text class="cls-1" transform="translate(46.03 35.43) rotate(112.3)"><tspan x="0" y="0"> </tspan></text>
    <text class="cls-1" transform="translate(45.81 35.96) rotate(114.9)"><tspan x="0" y="0">o</tspan></text>
    <text class="cls-1" transform="translate(45.34 36.98) rotate(117.68)"><tspan x="0" y="0">r</tspan></text>
    <text class="cls-1" transform="translate(45.02 37.59) rotate(119.6)"><tspan x="0" y="0"> </tspan></text>
    <text class="cls-1" transform="translate(44.73 38.1) rotate(121.89)"><tspan x="0" y="0">c</tspan></text>
    <text class="cls-1" transform="translate(44.27 38.84) rotate(124.27)"><tspan x="0" y="0">r</tspan></text>
    <text class="cls-1" transform="translate(43.86 39.44) rotate(127.02)"><tspan x="0" y="0">u</tspan></text>
    <text class="cls-1" transform="translate(43.25 40.25) rotate(130.14)"><tspan x="0" y="0">n</tspan></text>
    <text class="cls-1" transform="translate(42.59 41.04) rotate(133.1)"><tspan x="0" y="0">c</tspan></text>
    <text class="cls-1" transform="translate(41.95 41.72) rotate(136.16)"><tspan x="0" y="0">h</tspan></text>
    <text class="cls-1" transform="translate(41.21 42.43) rotate(138.6)"><tspan x="0" y="0"> </tspan></text>
    <text class="cls-1" transform="translate(40.8 42.8) rotate(141.6)"><tspan x="0" y="0">w</tspan></text>
    <text class="cls-1" transform="translate(39.65 43.7) rotate(144.5)"><tspan x="0" y="0">i</tspan></text>
    <text class="cls-1" transform="translate(39.27 43.97) rotate(145.95)"><tspan x="0" y="0">t</tspan></text>
    <text class="cls-1" transform="translate(38.82 44.28) rotate(148.39)"><tspan x="0" y="0">h</tspan></text>
    <text class="cls-1" transform="translate(37.95 44.81) rotate(150.83)"><tspan x="0" y="0"> </tspan></text>
    <text class="cls-1" transform="translate(37.45 45.09) rotate(152.45)"><tspan x="0" y="0">t</tspan></text>
    <text class="cls-1" transform="translate(36.99 45.34) rotate(154.88)"><tspan x="0" y="0">h</tspan></text>
    <text class="cls-1" transform="translate(36.07 45.77) rotate(158.02)"><tspan x="0" y="0">e</tspan></text>
    <text class="cls-1" transform="translate(35.1 46.15) rotate(160.51)"><tspan x="0" y="0"> </tspan></text>
    <text class="cls-1" transform="translate(34.56 46.35) rotate(162.55)"><tspan x="0" y="0">s</tspan></text>
    <text class="cls-1" transform="translate(33.85 46.58) rotate(165.28)"><tspan x="0" y="0">h</tspan></text>
    <text class="cls-1" transform="translate(32.86 46.84) rotate(168.44)"><tspan x="0" y="0">e</tspan></text>
    <text class="cls-1" transform="translate(31.85 47.04) rotate(170.7)"><tspan x="0" y="0">l</tspan></text>
    <text class="cls-1" transform="translate(31.37 47.11) rotate(172.18)"><tspan x="0" y="0">l</tspan></text>
    <text class="cls-1" transform="translate(30.93 47.18) rotate(173.74)"><tspan x="0" y="0">.</tspan></text>
  </g>
</svg>