<?xml version="1.0" encoding="UTF-8"?>
<svg id="Layer_2" data-name="Layer 2" xmlns="http://www.w3.org/2000/svg" viewBox="0 0 76.48 76.43">
  <defs>
    <style>
      .cls-1 {
        font-family: Futura-Medium, Futura;
        font-weight: 500;
      }

      .cls-1, .cls-2 {
        fill: #231f20;
        font-size: 2.1px;
      }

      .cls-2 {
        font-family: Futura-CondensedExtraBold, Futura;
        font-weight: 700;
      }
    </style>
  </defs>
  <g id="Layer_3" data-name="Layer 3">
    <text class="cls-1" transform="translate(15.38 51.13) rotate(-117.8)"><tspan x="0" y="0">D</tspan></text>
    <text class="cls-1" transform="translate(14.68 49.81) rotate(-114.99)"><tspan x="0" y="0">u</tspan></text>
    <text class="cls-1" transform="translate(14.21 48.77) rotate(-112.91)"><tspan x="0" y="0">r</tspan></text>
    <text class="cls-1" transform="translate(13.9 48.04) rotate(-111.47)"><tspan x="0" y="0">i</tspan></text>
    <text class="cls-1" transform="translate(13.71 47.57) rotate(-109.66)"><tspan x="0" y="0">n</tspan></text>
    <text class="cls-1" transform="translate(13.32 46.5) rotate(-107.06)"><tspan x="0" y="0">g</tspan></text>
    <text class="cls-1" transform="translate(12.96 45.31) rotate(-105)"><tspan x="0" y="0"> </tspan></text>
    <text class="cls-1" transform="translate(12.79 44.7) rotate(-102.69)"><tspan x="0" y="0">C</tspan></text>
    <text class="cls-1" transform="translate(12.47 43.28) rotate(-99.72)"><tspan x="0" y="0">o</tspan></text>
    <text class="cls-1" transform="translate(12.27 42.09) rotate(-97.29)"><tspan x="0" y="0">v</tspan></text>
    <text class="cls-1" transform="translate(12.14 41.05) rotate(-95.58)"><tspan x="0" y="0">i</tspan></text>
    <text class="cls-1" transform="translate(12.09 40.54) rotate(-93.66)"><tspan x="0" y="0">d</tspan></text>
    <text class="cls-1" transform="translate(12.01 39.31) rotate(-91.62)"><tspan x="0" y="0"> </tspan></text>
    <text class="cls-1" transform="translate(11.98 38.68) rotate(-89.19)"><tspan x="0" y="0">w</tspan></text>
    <text class="cls-1" transform="translate(12.01 37.11) rotate(-86.25)"><tspan x="0" y="0">e</tspan></text>
    <text class="cls-1" transform="translate(12.09 35.95) rotate(-84.27)"><tspan x="0" y="0"> </tspan></text>
    <text class="cls-1" transform="translate(12.15 35.33) rotate(-82.26)"><tspan x="0" y="0">a</tspan></text>
    <text class="cls-1" transform="translate(12.32 34.08) rotate(-80.33)"><tspan x="0" y="0">l</tspan></text>
    <text class="cls-1" transform="translate(12.41 33.58) rotate(-79.22)"><tspan x="0" y="0">l</tspan></text>
    <text class="cls-1" transform="translate(12.5 33.08) rotate(-77.98)"><tspan x="0" y="0"> </tspan></text>
    <text class="cls-1" transform="translate(12.62 32.46) rotate(-75.54)"><tspan x="0" y="0">w</tspan></text>
    <text class="cls-1" transform="translate(13.02 30.95) rotate(-72.56)"><tspan x="0" y="0">o</tspan></text>
    <text class="cls-1" transform="translate(13.4 29.74) rotate(-70.33)"><tspan x="0" y="0">r</tspan></text>
    <text class="cls-1" transform="translate(13.65 29.03) rotate(-68.28)"><tspan x="0" y="0">e</tspan></text>
    <text class="cls-1" transform="translate(14.08 27.97) rotate(-66.35)"><tspan x="0" y="0"> </tspan></text>
    <text class="cls-1" transform="translate(14.32 27.4) rotate(-63.9)"><tspan x="0" y="0">m</tspan></text>
    <text class="cls-1" transform="translate(15.05 25.91) rotate(-60.71)"><tspan x="0" y="0">a</tspan></text>
    <text class="cls-1" transform="translate(15.66 24.83) rotate(-58.46)"><tspan x="0" y="0">s</tspan></text>
    <text class="cls-1" transform="translate(16.09 24.12) rotate(-56.42)"><tspan x="0" y="0">k</tspan></text>
    <text class="cls-1" transform="translate(16.67 23.26) rotate(-54.38)"><tspan x="0" y="0">s</tspan></text>
    <text class="cls-1" transform="translate(17.16 22.58) rotate(-52.75)"><tspan x="0" y="0">,</tspan></text>
    <text class="cls-1" transform="translate(17.53 22.08) rotate(-51.39)"><tspan x="0" y="0"> </tspan></text>
    <text class="cls-1" transform="translate(17.94 21.57) rotate(-49.28)"><tspan x="0" y="0">o</tspan></text>
    <text class="cls-1" transform="translate(18.75 20.62) rotate(-46.53)"><tspan x="0" y="0">b</tspan></text>
    <text class="cls-1" transform="translate(19.6 19.73) rotate(-44.26)"><tspan x="0" y="0">s</tspan></text>
    <text class="cls-1" transform="translate(20.2 19.14) rotate(-42.25)"><tspan x="0" y="0">c</tspan></text>
    <text class="cls-1" transform="translate(20.94 18.47) rotate(-39.92)"><tspan x="0" y="0">u</tspan></text>
    <text class="cls-1" transform="translate(21.8 17.75) rotate(-37.85)"><tspan x="0" y="0">r</tspan></text>
    <text class="cls-1" transform="translate(22.43 17.27) rotate(-36.41)"><tspan x="0" y="0">i</tspan></text>
    <text class="cls-1" transform="translate(22.84 16.95) rotate(-34.6)"><tspan x="0" y="0">n</tspan></text>
    <text class="cls-1" transform="translate(23.76 16.32) rotate(-32.06)"><tspan x="0" y="0">g</tspan></text>
    <text class="cls-1" transform="translate(24.83 15.66) rotate(-30.36)"><tspan x="0" y="0"> </tspan></text>
    <text class="cls-1" transform="translate(25.39 15.33) rotate(-27.98)"><tspan x="0" y="0">o</tspan></text>
    <text class="cls-1" transform="translate(26.48 14.75) rotate(-25.44)"><tspan x="0" y="0">u</tspan></text>
    <text class="cls-1" transform="translate(27.51 14.26) rotate(-23.36)"><tspan x="0" y="0">r</tspan></text>
    <text class="cls-1" transform="translate(28.22 13.96) rotate(-21.83)"><tspan x="0" y="0"> </tspan></text>
    <text class="cls-2" transform="translate(28.81 13.72) rotate(-20.47)"><tspan x="0" y="0">i</tspan></text>
    <text class="cls-2" transform="translate(29.35 13.51) rotate(-18.58)"><tspan x="0" y="0">n</tspan></text>
    <text class="cls-2" transform="translate(30.44 13.15) rotate(-16.07)"><tspan x="0" y="0">n</tspan></text>
    <text class="cls-2" transform="translate(31.54 12.83) rotate(-13.58)"><tspan x="0" y="0">e</tspan></text>
    <text class="cls-2" transform="translate(32.64 12.57) rotate(-11.44)"><tspan x="0" y="0">r</tspan></text>
    <text class="cls-2" transform="translate(33.44 12.4) rotate(-9.85)"><tspan x="0" y="0"> </tspan></text>
    <text class="cls-2" transform="translate(34.05 12.3) rotate(-8.53)"><tspan x="0" y="0">i</tspan></text>
    <text class="cls-2" transform="translate(34.63 12.21) rotate(-6.59)"><tspan x="0" y="0">d</tspan></text>
    <text class="cls-2" transform="translate(35.78 12.07) rotate(-4.09)"><tspan x="0" y="0">e</tspan></text>
    <text class="cls-2" transform="translate(36.9 11.99) rotate(-1.61)"><tspan x="0" y="0">n</tspan></text>
    <text class="cls-2" transform="translate(38.04 11.96) rotate(.38)"><tspan x="0" y="0">t</tspan></text>
    <text class="cls-2" transform="translate(38.77 11.97) rotate(1.85)"><tspan x="0" y="0">i</tspan></text>
    <text class="cls-2" transform="translate(39.34 11.99) rotate(3.23)"><tspan x="0" y="0">t</tspan></text>
    <text class="cls-2" transform="translate(40.05 12.02) rotate(5.17)"><tspan x="0" y="0">y</tspan></text>
    <text class="cls-1" transform="translate(41.11 12.12) rotate(7.02)"><tspan x="0" y="0"> </tspan></text>
    <text class="cls-1" transform="translate(41.76 12.2) rotate(8.3)"><tspan x="0" y="0">i</tspan></text>
    <text class="cls-1" transform="translate(42.27 12.27) rotate(10.1)"><tspan x="0" y="0">n</tspan></text>
    <text class="cls-1" transform="translate(43.37 12.47) rotate(11.99)"><tspan x="0" y="0"> </tspan></text>
    <text class="cls-1" transform="translate(43.99 12.6) rotate(14.03)"><tspan x="0" y="0">o</tspan></text>
    <text class="cls-1" transform="translate(45.22 12.91) rotate(16.25)"><tspan x="0" y="0">r</tspan></text>
    <text class="cls-1" transform="translate(45.94 13.11) rotate(18.39)"><tspan x="0" y="0">d</tspan></text>
    <text class="cls-1" transform="translate(47.1 13.5) rotate(20.95)"><tspan x="0" y="0">e</tspan></text>
    <text class="cls-1" transform="translate(48.18 13.92) rotate(23.05)"><tspan x="0" y="0">r</tspan></text>
    <text class="cls-1" transform="translate(48.9 14.22) rotate(24.59)"><tspan x="0" y="0"> </tspan></text>
    <text class="cls-1" transform="translate(49.49 14.49) rotate(25.93)"><tspan x="0" y="0">t</tspan></text>
    <text class="cls-1" transform="translate(50 14.74) rotate(27.9)"><tspan x="0" y="0">o</tspan></text>
    <text class="cls-1" transform="translate(51.11 15.33) rotate(29.98)"><tspan x="0" y="0"> </tspan></text>
    <text class="cls-1" transform="translate(51.65 15.64) rotate(32.01)"><tspan x="0" y="0">p</tspan></text>
    <text class="cls-1" transform="translate(52.71 16.3) rotate(34.23)"><tspan x="0" y="0">r</tspan></text>
    <text class="cls-1" transform="translate(53.32 16.71) rotate(36.37)"><tspan x="0" y="0">o</tspan></text>
    <text class="cls-1" transform="translate(54.33 17.47) rotate(38.39)"><tspan x="0" y="0">t</tspan></text>
    <text class="cls-1" transform="translate(54.78 17.82) rotate(40.28)"><tspan x="0" y="0">e</tspan></text>
    <text class="cls-1" transform="translate(55.67 18.57) rotate(42.67)"><tspan x="0" y="0">c</tspan></text>
    <text class="cls-1" transform="translate(56.39 19.24) rotate(44.36)"><tspan x="0" y="0">t</tspan></text>
    <text class="cls-1" transform="translate(56.8 19.64) rotate(45.69)"><tspan x="0" y="0"> </tspan></text>
    <text class="cls-1" transform="translate(57.24 20.08) rotate(47.74)"><tspan x="0" y="0">o</tspan></text>
    <text class="cls-1" transform="translate(58.09 21.02) rotate(49.77)"><tspan x="0" y="0">t</tspan></text>
    <text class="cls-1" transform="translate(58.47 21.47) rotate(51.7)"><tspan x="0" y="0">h</tspan></text>
    <text class="cls-1" transform="translate(59.19 22.38) rotate(54.22)"><tspan x="0" y="0">e</tspan></text>
    <text class="cls-1" transform="translate(59.86 23.31) rotate(56.31)"><tspan x="0" y="0">r</tspan></text>
    <text class="cls-1" transform="translate(60.28 23.94) rotate(58.03)"><tspan x="0" y="0">s</tspan></text>
    <text class="cls-1" transform="translate(60.72 24.66) rotate(59.61)"><tspan x="0" y="0">.</tspan></text>
    <text class="cls-1" transform="translate(61.05 25.2) rotate(61.5)"><tspan x="0" y="0"> </tspan></text>
    <text class="cls-1" transform="translate(61.36 25.76) rotate(62.74)"><tspan x="0" y="0">T</tspan></text>
    <text class="cls-1" transform="translate(61.82 26.65) rotate(65.06)"><tspan x="0" y="0">h</tspan></text>
    <text class="cls-1" transform="translate(62.3 27.68) rotate(67.54)"><tspan x="0" y="0">e</tspan></text>
    <text class="cls-1" transform="translate(62.73 28.73) rotate(69.44)"><tspan x="0" y="0"> </tspan></text>
    <text class="cls-1" transform="translate(62.96 29.32) rotate(71.95)"><tspan x="0" y="0">m</tspan></text>
    <text class="cls-1" transform="translate(63.46 30.87) rotate(75.09)"><tspan x="0" y="0">a</tspan></text>
    <text class="cls-1" transform="translate(63.78 32.09) rotate(77.4)"><tspan x="0" y="0">s</tspan></text>
    <text class="cls-1" transform="translate(63.96 32.9) rotate(79.44)"><tspan x="0" y="0">k</tspan></text>
    <text class="cls-1" transform="translate(64.15 33.92) rotate(81.51)"><tspan x="0" y="0">s</tspan></text>
    <text class="cls-1" transform="translate(64.28 34.75) rotate(83.14)"><tspan x="0" y="0"> </tspan></text>
    <text class="cls-1" transform="translate(64.36 35.38) rotate(85.6)"><tspan x="0" y="0">w</tspan></text>
    <text class="cls-1" transform="translate(64.48 36.96) rotate(88.56)"><tspan x="0" y="0">e</tspan></text>
    <text class="cls-1" transform="translate(64.5 38.1) rotate(90.64)"><tspan x="0" y="0">r</tspan></text>
    <text class="cls-1" transform="translate(64.5 38.86) rotate(92.72)"><tspan x="0" y="0">e</tspan></text>
    <text class="cls-1" transform="translate(64.44 39.98) rotate(94.61)"><tspan x="0" y="0"> </tspan></text>
    <text class="cls-1" transform="translate(64.39 40.64) rotate(96.59)"><tspan x="0" y="0">u</tspan></text>
    <text class="cls-1" transform="translate(64.27 41.74) rotate(98.99)"><tspan x="0" y="0">n</tspan></text>
    <text class="cls-1" transform="translate(64.09 42.86) rotate(101.3)"><tspan x="0" y="0">c</tspan></text>
    <text class="cls-1" transform="translate(63.9 43.83) rotate(103.74)"><tspan x="0" y="0">o</tspan></text>
    <text class="cls-1" transform="translate(63.61 45.04) rotate(106.85)"><tspan x="0" y="0">m</tspan></text>
    <text class="cls-1" transform="translate(63.12 46.62) rotate(109.33)"><tspan x="0" y="0">f</tspan></text>
    <text class="cls-1" transform="translate(62.92 47.22) rotate(111.38)"><tspan x="0" y="0">o</tspan></text>
    <text class="cls-1" transform="translate(62.46 48.37) rotate(113.56)"><tspan x="0" y="0">r</tspan></text>
    <text class="cls-1" transform="translate(62.11 49.16) rotate(115.19)"><tspan x="0" y="0">t</tspan></text>
    <text class="cls-1" transform="translate(61.89 49.65) rotate(117.13)"><tspan x="0" y="0">b</tspan></text>
    <text class="cls-1" transform="translate(61.31 50.77) rotate(119.07)"><tspan x="0" y="0">l</tspan></text>
    <text class="cls-1" transform="translate(61.06 51.22) rotate(120.88)"><tspan x="0" y="0">e</tspan></text>
    <text class="cls-1" transform="translate(60.47 52.2) rotate(122.84)"><tspan x="0" y="0"> </tspan></text>
    <text class="cls-1" transform="translate(60.13 52.74) rotate(124.89)"><tspan x="0" y="0">a</tspan></text>
    <text class="cls-1" transform="translate(59.43 53.74) rotate(127.47)"><tspan x="0" y="0">n</tspan></text>
    <text class="cls-1" transform="translate(58.73 54.66) rotate(130.11)"><tspan x="0" y="0">d</tspan></text>
    <text class="cls-1" transform="translate(57.94 55.59) rotate(132.14)"><tspan x="0" y="0"> </tspan></text>
    <text class="cls-1" transform="translate(57.51 56.08) rotate(134.67)"><tspan x="0" y="0">m</tspan></text>
    <text class="cls-1" transform="translate(56.35 57.24) rotate(137.84)"><tspan x="0" y="0">a</tspan></text>
    <text class="cls-1" transform="translate(55.43 58.07) rotate(140.44)"><tspan x="0" y="0">n</tspan></text>
    <text class="cls-1" transform="translate(54.59 58.77) rotate(142.83)"><tspan x="0" y="0">y</tspan></text>
    <text class="cls-1" transform="translate(53.68 59.46) rotate(144.77)"><tspan x="0" y="0"> </tspan></text>
    <text class="cls-1" transform="translate(53.15 59.83) rotate(146.03)"><tspan x="0" y="0">i</tspan></text>
    <text class="cls-1" transform="translate(52.75 60.11) rotate(147.89)"><tspan x="0" y="0">g</tspan></text>
    <text class="cls-1" transform="translate(51.68 60.77) rotate(149.64)"><tspan x="0" y="0">n</tspan></text>
    <text class="cls-1" transform="translate(50.7 61.33) rotate(153.02)"><tspan x="0" y="0">o</tspan></text>
    <text class="cls-1" transform="translate(49.59 61.9) rotate(155.19)"><tspan x="0" y="0">r</tspan></text>
    <text class="cls-1" transform="translate(48.91 62.21) rotate(157.22)"><tspan x="0" y="0">e</tspan></text>
    <text class="cls-1" transform="translate(47.86 62.66) rotate(159.84)"><tspan x="0" y="0">d</tspan></text>
    <text class="cls-1" transform="translate(46.7 63.08) rotate(161.86)"><tspan x="0" y="0"> </tspan></text>
    <text class="cls-1" transform="translate(46.08 63.28) rotate(163.21)"><tspan x="0" y="0">t</tspan></text>
    <text class="cls-1" transform="translate(45.5 63.46) rotate(165.18)"><tspan x="0" y="0">h</tspan></text>
    <text class="cls-1" transform="translate(44.41 63.75) rotate(167.67)"><tspan x="0" y="0">e</tspan></text>
    <text class="cls-1" transform="translate(43.28 64) rotate(170.77)"><tspan x="0" y="0">m</tspan></text>
    <text class="cls-1" transform="translate(41.67 64.26) rotate(173.23)"><tspan x="0" y="0">.</tspan></text>
  </g>
</svg>