<?xml version="1.0" encoding="UTF-8"?>
<svg id="Layer_2" data-name="Layer 2" xmlns="http://www.w3.org/2000/svg" viewBox="0 0 241.5 241.5">
  <defs>
    <style>
      .cls-1 {
        fill: #231f20;
        font-family: Futura-Medium, Futura;
        font-size: 3.7px;
        font-weight: 500;
      }
    </style>
  </defs>
  <g id="Layer_19" data-name="Layer 19">
    <text class="cls-1" transform="translate(44.28 160.65) rotate(-116.63)"><tspan x="0" y="0">L</tspan></text>
    <text class="cls-1" transform="translate(43.54 159.19) rotate(-115.76)"><tspan x="0" y="0">a</tspan></text>
    <text class="cls-1" transform="translate(42.57 157.16) rotate(-114.36)"><tspan x="0" y="0">y</tspan></text>
    <text class="cls-1" transform="translate(41.78 155.42) rotate(-113.09)"><tspan x="0" y="0">e</tspan></text>
    <text class="cls-1" transform="translate(40.98 153.54) rotate(-111.96)"><tspan x="0" y="0">r</tspan></text>
    <text class="cls-1" transform="translate(40.46 152.26) rotate(-111.13)"><tspan x="0" y="0"> </tspan></text>
    <text class="cls-1" transform="translate(40.05 151.21) rotate(-110)"><tspan x="0" y="0">1</tspan></text>
    <text class="cls-1" transform="translate(39.37 149.36) rotate(-108.69)"><tspan x="0" y="0">9</tspan></text>
    <text class="cls-1" transform="translate(38.66 147.22) rotate(-107.56)"><tspan x="0" y="0"> </tspan></text>
    <text class="cls-1" transform="translate(38.31 146.13) rotate(-106.82)"><tspan x="0" y="0">I</tspan></text>
    <text class="cls-1" transform="translate(37.99 145.1) rotate(-105.72)"><tspan x="0" y="0">p</tspan></text>
    <text class="cls-1" transform="translate(37.4 142.98) rotate(-104.49)"><tspan x="0" y="0">s</tspan></text>
    <text class="cls-1" transform="translate(37.02 141.52) rotate(-103.31)"><tspan x="0" y="0">u</tspan></text>
    <text class="cls-1" transform="translate(36.56 139.59) rotate(-101.68)"><tspan x="0" y="0">m</tspan></text>
    <text class="cls-1" transform="translate(35.98 136.74) rotate(-100.32)"><tspan x="0" y="0"> </tspan></text>
    <text class="cls-1" transform="translate(35.77 135.61) rotate(-99.39)"><tspan x="0" y="0">L</tspan></text>
    <text class="cls-1" transform="translate(35.5 134.01) rotate(-98.11)"><tspan x="0" y="0">o</tspan></text>
    <text class="cls-1" transform="translate(35.2 131.83) rotate(-96.92)"><tspan x="0" y="0">r</tspan></text>
    <text class="cls-1" transform="translate(35.03 130.49) rotate(-95.79)"><tspan x="0" y="0">e</tspan></text>
    <text class="cls-1" transform="translate(34.82 128.46) rotate(-94.14)"><tspan x="0" y="0">m</tspan></text>
    <text class="cls-1" transform="translate(34.62 125.56) rotate(-92.79)"><tspan x="0" y="0"> </tspan></text>
    <text class="cls-1" transform="translate(34.56 124.43) rotate(-92.05)"><tspan x="0" y="0">I</tspan></text>
    <text class="cls-1" transform="translate(34.52 123.36) rotate(-90.96)"><tspan x="0" y="0">p</tspan></text>
    <text class="cls-1" transform="translate(34.49 121.14) rotate(-89.72)"><tspan x="0" y="0">s</tspan></text>
    <text class="cls-1" transform="translate(34.49 119.67) rotate(-88.57)"><tspan x="0" y="0">u</tspan></text>
    <text class="cls-1" transform="translate(34.53 117.65) rotate(-86.92)"><tspan x="0" y="0">m</tspan></text>
    <text class="cls-1" transform="translate(34.7 114.75) rotate(-85.58)"><tspan x="0" y="0"> </tspan></text>
    <text class="cls-1" transform="translate(34.79 113.6) rotate(-84.65)"><tspan x="0" y="0">L</tspan></text>
    <text class="cls-1" transform="translate(34.94 111.99) rotate(-83.38)"><tspan x="0" y="0">o</tspan></text>
    <text class="cls-1" transform="translate(35.19 109.8) rotate(-82.2)"><tspan x="0" y="0">r</tspan></text>
    <text class="cls-1" transform="translate(35.37 108.45) rotate(-81.09)"><tspan x="0" y="0">e</tspan></text>
    <text class="cls-1" transform="translate(35.68 106.45) rotate(-79.46)"><tspan x="0" y="0">m</tspan></text>
    <text class="cls-1" transform="translate(36.22 103.61) rotate(-78.13)"><tspan x="0" y="0"> </tspan></text>
    <text class="cls-1" transform="translate(36.46 102.47) rotate(-77.38)"><tspan x="0" y="0">I</tspan></text>
    <text class="cls-1" transform="translate(36.68 101.44) rotate(-76.31)"><tspan x="0" y="0">p</tspan></text>
    <text class="cls-1" transform="translate(37.21 99.29) rotate(-75.09)"><tspan x="0" y="0">s</tspan></text>
    <text class="cls-1" transform="translate(37.59 97.85) rotate(-73.93)"><tspan x="0" y="0">u</tspan></text>
    <text class="cls-1" transform="translate(38.14 95.94) rotate(-72.32)"><tspan x="0" y="0">m</tspan></text>
    <text class="cls-1" transform="translate(39.04 93.15) rotate(-70.98)"><tspan x="0" y="0"> </tspan></text>
    <text class="cls-1" transform="translate(39.41 92.07) rotate(-70.06)"><tspan x="0" y="0">L</tspan></text>
    <text class="cls-1" transform="translate(39.95 90.55) rotate(-68.8)"><tspan x="0" y="0">o</tspan></text>
    <text class="cls-1" transform="translate(40.75 88.5) rotate(-67.62)"><tspan x="0" y="0">r</tspan></text>
    <text class="cls-1" transform="translate(41.26 87.25) rotate(-66.51)"><tspan x="0" y="0">e</tspan></text>
    <text class="cls-1" transform="translate(42.06 85.39) rotate(-64.88)"><tspan x="0" y="0">m</tspan></text>
    <text class="cls-1" transform="translate(43.32 82.74) rotate(-63.53)"><tspan x="0" y="0"> </tspan></text>
    <text class="cls-1" transform="translate(43.82 81.73) rotate(-62.8)"><tspan x="0" y="0">I</tspan></text>
    <text class="cls-1" transform="translate(44.31 80.76) rotate(-61.71)"><tspan x="0" y="0">p</tspan></text>
    <text class="cls-1" transform="translate(45.36 78.82) rotate(-60.48)"><tspan x="0" y="0">s</tspan></text>
    <text class="cls-1" transform="translate(46.08 77.54) rotate(-59.34)"><tspan x="0" y="0">u</tspan></text>
    <text class="cls-1" transform="translate(47.11 75.81) rotate(-57.69)"><tspan x="0" y="0">m</tspan></text>
    <text class="cls-1" transform="translate(48.67 73.35) rotate(-56.35)"><tspan x="0" y="0"> </tspan></text>
    <text class="cls-1" transform="translate(49.29 72.42) rotate(-55.44)"><tspan x="0" y="0">L</tspan></text>
    <text class="cls-1" transform="translate(50.21 71.07) rotate(-54.15)"><tspan x="0" y="0">o</tspan></text>
    <text class="cls-1" transform="translate(51.52 69.27) rotate(-52.96)"><tspan x="0" y="0">r</tspan></text>
    <text class="cls-1" transform="translate(52.32 68.2) rotate(-51.84)"><tspan x="0" y="0">e</tspan></text>
    <text class="cls-1" transform="translate(53.56 66.61) rotate(-50.2)"><tspan x="0" y="0">m</tspan></text>
    <text class="cls-1" transform="translate(55.45 64.37) rotate(-48.83)"><tspan x="0" y="0"> </tspan></text>
    <text class="cls-1" transform="translate(56.2 63.5) rotate(-48.09)"><tspan x="0" y="0">I</tspan></text>
    <text class="cls-1" transform="translate(56.9 62.72) rotate(-47)"><tspan x="0" y="0">p</tspan></text>
    <text class="cls-1" transform="translate(58.41 61.1) rotate(-45.77)"><tspan x="0" y="0">s</tspan></text>
    <text class="cls-1" transform="translate(59.45 60.03) rotate(-44.59)"><tspan x="0" y="0">u</tspan></text>
    <text class="cls-1" transform="translate(60.87 58.62) rotate(-42.94)"><tspan x="0" y="0">m</tspan></text>
    <text class="cls-1" transform="translate(63.01 56.64) rotate(-41.43)"><tspan x="0" y="0">L</tspan></text>
    <text class="cls-1" transform="translate(64.22 55.57) rotate(-40.15)"><tspan x="0" y="0">o</tspan></text>
    <text class="cls-1" transform="translate(65.93 54.13) rotate(-38.94)"><tspan x="0" y="0">r</tspan></text>
    <text class="cls-1" transform="translate(66.96 53.29) rotate(-37.83)"><tspan x="0" y="0">e</tspan></text>
    <text class="cls-1" transform="translate(68.57 52.03) rotate(-36.18)"><tspan x="0" y="0">m</tspan></text>
    <text class="cls-1" transform="translate(70.91 50.34) rotate(-34.85)"><tspan x="0" y="0"> </tspan></text>
    <text class="cls-1" transform="translate(71.86 49.68) rotate(-34.1)"><tspan x="0" y="0">I</tspan></text>
    <text class="cls-1" transform="translate(72.74 49.07) rotate(-33.02)"><tspan x="0" y="0">p</tspan></text>
    <text class="cls-1" transform="translate(74.6 47.87) rotate(-31.79)"><tspan x="0" y="0">s</tspan></text>
    <text class="cls-1" transform="translate(75.87 47.08) rotate(-30.64)"><tspan x="0" y="0">u</tspan></text>
    <text class="cls-1" transform="translate(77.59 46.06) rotate(-29.03)"><tspan x="0" y="0">m</tspan></text>
    <text class="cls-1" transform="translate(80.12 44.64) rotate(-26.63)"><tspan x="0" y="0">L</tspan></text>
    <text class="cls-1" transform="translate(81.56 43.9) rotate(-26.31)"><tspan x="0" y="0">o</tspan></text>
    <text class="cls-1" transform="translate(83.56 42.92) rotate(-25.13)"><tspan x="0" y="0">r</tspan></text>
    <text class="cls-1" transform="translate(84.76 42.35) rotate(-24.04)"><tspan x="0" y="0">e</tspan></text>
    <text class="cls-1" transform="translate(86.61 41.52) rotate(-22.41)"><tspan x="0" y="0">m</tspan></text>
    <text class="cls-1" transform="translate(89.32 40.41) rotate(-21.07)"><tspan x="0" y="0"> </tspan></text>
    <text class="cls-1" transform="translate(90.37 40.01) rotate(-20.33)"><tspan x="0" y="0">I</tspan></text>
    <text class="cls-1" transform="translate(91.37 39.63) rotate(-19.25)"><tspan x="0" y="0">p</tspan></text>
    <text class="cls-1" transform="translate(93.46 38.9) rotate(-18.01)"><tspan x="0" y="0">s</tspan></text>
    <text class="cls-1" transform="translate(94.89 38.44) rotate(-16.84)"><tspan x="0" y="0">u</tspan></text>
    <text class="cls-1" transform="translate(96.79 37.85) rotate(-15.21)"><tspan x="0" y="0">m</tspan></text>
    <text class="cls-1" transform="translate(99.61 37.1) rotate(-13.69)"><tspan x="0" y="0">L</tspan></text>
    <text class="cls-1" transform="translate(101.18 36.71) rotate(-12.41)"><tspan x="0" y="0">o</tspan></text>
    <text class="cls-1" transform="translate(103.34 36.24) rotate(-11.21)"><tspan x="0" y="0">r</tspan></text>
    <text class="cls-1" transform="translate(104.67 35.97) rotate(-10.08)"><tspan x="0" y="0">e</tspan></text>
    <text class="cls-1" transform="translate(106.65 35.61) rotate(-8.44)"><tspan x="0" y="0">m</tspan></text>
    <text class="cls-1" transform="translate(109.56 35.19) rotate(-7.07)"><tspan x="0" y="0"> </tspan></text>
    <text class="cls-1" transform="translate(110.66 35.06) rotate(-6.34)"><tspan x="0" y="0">I</tspan></text>
    <text class="cls-1" transform="translate(111.73 34.93) rotate(-5.24)"><tspan x="0" y="0">p</tspan></text>
    <text class="cls-1" transform="translate(113.94 34.73) rotate(-4.01)"><tspan x="0" y="0">s</tspan></text>
    <text class="cls-1" transform="translate(115.43 34.63) rotate(-2.83)"><tspan x="0" y="0">u</tspan></text>
    <text class="cls-1" transform="translate(117.43 34.52) rotate(-1.2)"><tspan x="0" y="0">m</tspan></text>
    <text class="cls-1" transform="translate(120.32 34.47) rotate(.3)"><tspan x="0" y="0">L</tspan></text>
    <text class="cls-1" transform="translate(121.95 34.47) rotate(1.58)"><tspan x="0" y="0">o</tspan></text>
    <text class="cls-1" transform="translate(124.16 34.54) rotate(2.78)"><tspan x="0" y="0">r</tspan></text>
    <text class="cls-1" transform="translate(125.52 34.6) rotate(3.9)"><tspan x="0" y="0">e</tspan></text>
    <text class="cls-1" transform="translate(127.55 34.73) rotate(5.54)"><tspan x="0" y="0">m</tspan></text>
    <text class="cls-1" transform="translate(130.44 35.02) rotate(6.87)"><tspan x="0" y="0"> </tspan></text>
    <text class="cls-1" transform="translate(131.56 35.16) rotate(7.6)"><tspan x="0" y="0">I</tspan></text>
    <text class="cls-1" transform="translate(132.64 35.3) rotate(8.7)"><tspan x="0" y="0">p</tspan></text>
    <text class="cls-1" transform="translate(134.82 35.63) rotate(9.92)"><tspan x="0" y="0">s</tspan></text>
    <text class="cls-1" transform="translate(136.28 35.89) rotate(11.08)"><tspan x="0" y="0">u</tspan></text>
    <text class="cls-1" transform="translate(138.25 36.27) rotate(12.7)"><tspan x="0" y="0">m</tspan></text>
    <text class="cls-1" transform="translate(141.09 36.91) rotate(14.2)"><tspan x="0" y="0">L</tspan></text>
    <text class="cls-1" transform="translate(142.66 37.31) rotate(15.46)"><tspan x="0" y="0">o</tspan></text>
    <text class="cls-1" transform="translate(144.81 37.91) rotate(16.65)"><tspan x="0" y="0">r</tspan></text>
    <text class="cls-1" transform="translate(146.1 38.29) rotate(17.76)"><tspan x="0" y="0">e</tspan></text>
    <text class="cls-1" transform="translate(148.02 38.9) rotate(19.39)"><tspan x="0" y="0">m</tspan></text>
    <text class="cls-1" transform="translate(150.75 39.87) rotate(20.71)"><tspan x="0" y="0"> </tspan></text>
    <text class="cls-1" transform="translate(151.84 40.28) rotate(21.46)"><tspan x="0" y="0">I</tspan></text>
    <text class="cls-1" transform="translate(152.85 40.67) rotate(22.55)"><tspan x="0" y="0">p</tspan></text>
    <text class="cls-1" transform="translate(154.88 41.52) rotate(23.77)"><tspan x="0" y="0">s</tspan></text>
    <text class="cls-1" transform="translate(156.25 42.12) rotate(24.92)"><tspan x="0" y="0">u</tspan></text>
    <text class="cls-1" transform="translate(158.04 42.94) rotate(26.53)"><tspan x="0" y="0">m</tspan></text>
    <text class="cls-1" transform="translate(160.65 44.25) rotate(28.04)"><tspan x="0" y="0">L</tspan></text>
    <text class="cls-1" transform="translate(162.08 45.01) rotate(29.3)"><tspan x="0" y="0">o</tspan></text>
    <text class="cls-1" transform="translate(164 46.1) rotate(30.49)"><tspan x="0" y="0">r</tspan></text>
    <text class="cls-1" transform="translate(165.17 46.78) rotate(31.61)"><tspan x="0" y="0">e</tspan></text>
    <text class="cls-1" transform="translate(166.91 47.85) rotate(33.26)"><tspan x="0" y="0">m</tspan></text>
    <text class="cls-1" transform="translate(169.34 49.45) rotate(34.61)"><tspan x="0" y="0"> </tspan></text>
    <text class="cls-1" transform="translate(170.27 50.1) rotate(35.34)"><tspan x="0" y="0">I</tspan></text>
    <text class="cls-1" transform="translate(171.15 50.71) rotate(36.43)"><tspan x="0" y="0">p</tspan></text>
    <text class="cls-1" transform="translate(172.94 52.03) rotate(37.68)"><tspan x="0" y="0">s</tspan></text>
    <text class="cls-1" transform="translate(174.11 52.94) rotate(38.84)"><tspan x="0" y="0">u</tspan></text>
    <text class="cls-1" transform="translate(175.68 54.19) rotate(40.48)"><tspan x="0" y="0">m</tspan></text>
    <text class="cls-1" transform="translate(177.89 56.09) rotate(42)"><tspan x="0" y="0">L</tspan></text>
    <text class="cls-1" transform="translate(179.09 57.17) rotate(43.28)"><tspan x="0" y="0">o</tspan></text>
    <text class="cls-1" transform="translate(180.7 58.68) rotate(44.48)"><tspan x="0" y="0">r</tspan></text>
    <text class="cls-1" transform="translate(181.67 59.63) rotate(45.61)"><tspan x="0" y="0">e</tspan></text>
    <text class="cls-1" transform="translate(183.09 61.07) rotate(47.26)"><tspan x="0" y="0">m</tspan></text>
    <text class="cls-1" transform="translate(185.06 63.23) rotate(48.62)"><tspan x="0" y="0"> </tspan></text>
    <text class="cls-1" transform="translate(185.81 64.07) rotate(49.36)"><tspan x="0" y="0">I</tspan></text>
    <text class="cls-1" transform="translate(186.52 64.89) rotate(50.45)"><tspan x="0" y="0">p</tspan></text>
    <text class="cls-1" transform="translate(187.92 66.59) rotate(51.69)"><tspan x="0" y="0">s</tspan></text>
    <text class="cls-1" transform="translate(188.85 67.77) rotate(52.86)"><tspan x="0" y="0">u</tspan></text>
    <text class="cls-1" transform="translate(190.05 69.34) rotate(54.48)"><tspan x="0" y="0">m</tspan></text>
    <text class="cls-1" transform="translate(191.74 71.73) rotate(55.83)"><tspan x="0" y="0"> </tspan></text>
    <text class="cls-1" transform="translate(192.37 72.66) rotate(56.74)"><tspan x="0" y="0">L</tspan></text>
    <text class="cls-1" transform="translate(193.27 74.01) rotate(58)"><tspan x="0" y="0">o</tspan></text>
    <text class="cls-1" transform="translate(194.43 75.89) rotate(59.18)"><tspan x="0" y="0">r</tspan></text>
    <text class="cls-1" transform="translate(195.14 77.05) rotate(60.29)"><tspan x="0" y="0">e</tspan></text>
    <text class="cls-1" transform="translate(196.13 78.81) rotate(61.52)"><tspan x="0" y="0">m</tspan></text>
    <text class="cls-1" transform="translate(197.51 81.38) rotate(63.37)"><tspan x="0" y="0"> </tspan></text>
    <text class="cls-1" transform="translate(198.02 82.4) rotate(63.94)"><tspan x="0" y="0">I</tspan></text>
    <text class="cls-1" transform="translate(198.49 83.35) rotate(65.01)"><tspan x="0" y="0">p</tspan></text>
    <text class="cls-1" transform="translate(199.43 85.36) rotate(66.23)"><tspan x="0" y="0">s</tspan></text>
    <text class="cls-1" transform="translate(200.03 86.73) rotate(67.38)"><tspan x="0" y="0">u</tspan></text>
    <text class="cls-1" transform="translate(200.81 88.58) rotate(69.01)"><tspan x="0" y="0">m</tspan></text>
    <text class="cls-1" transform="translate(201.83 91.29) rotate(70.34)"><tspan x="0" y="0"> </tspan></text>
    <text class="cls-1" transform="translate(202.22 92.36) rotate(71.27)"><tspan x="0" y="0">L</tspan></text>
    <text class="cls-1" transform="translate(202.75 93.9) rotate(72.55)"><tspan x="0" y="0">o</tspan></text>
    <text class="cls-1" transform="translate(203.41 96.01) rotate(73.74)"><tspan x="0" y="0">r</tspan></text>
    <text class="cls-1" transform="translate(203.78 97.3) rotate(74.86)"><tspan x="0" y="0">e</tspan></text>
    <text class="cls-1" transform="translate(204.32 99.26) rotate(76.51)"><tspan x="0" y="0">m</tspan></text>
    <text class="cls-1" transform="translate(204.99 102.09) rotate(77.86)"><tspan x="0" y="0"> </tspan></text>
    <text class="cls-1" transform="translate(205.23 103.21) rotate(78.61)"><tspan x="0" y="0">I</tspan></text>
    <text class="cls-1" transform="translate(205.45 104.25) rotate(79.7)"><tspan x="0" y="0">p</tspan></text>
    <text class="cls-1" transform="translate(205.84 106.43) rotate(80.94)"><tspan x="0" y="0">s</tspan></text>
    <text class="cls-1" transform="translate(206.08 107.9) rotate(82.11)"><tspan x="0" y="0">u</tspan></text>
    <text class="cls-1" transform="translate(206.36 109.89) rotate(83.77)"><tspan x="0" y="0">m</tspan></text>
    <text class="cls-1" transform="translate(206.66 112.78) rotate(85.11)"><tspan x="0" y="0"> </tspan></text>
    <text class="cls-1" transform="translate(206.76 113.9) rotate(86.03)"><tspan x="0" y="0">L</tspan></text>
    <text class="cls-1" transform="translate(206.88 115.54) rotate(87.32)"><tspan x="0" y="0">o</tspan></text>
    <text class="cls-1" transform="translate(206.98 117.72) rotate(88.5)"><tspan x="0" y="0">r</tspan></text>
    <text class="cls-1" transform="translate(207.02 119.09) rotate(89.63)"><tspan x="0" y="0">e</tspan></text>
    <text class="cls-1" transform="translate(207.04 121.11) rotate(91.27)"><tspan x="0" y="0">m</tspan></text>
    <text class="cls-1" transform="translate(206.96 124.04) rotate(92.62)"><tspan x="0" y="0"> </tspan></text>
    <text class="cls-1" transform="translate(206.91 125.17) rotate(93.36)"><tspan x="0" y="0">I</tspan></text>
    <text class="cls-1" transform="translate(206.85 126.23) rotate(94.44)"><tspan x="0" y="0">p</tspan></text>
    <text class="cls-1" transform="translate(206.68 128.43) rotate(95.67)"><tspan x="0" y="0">s</tspan></text>
    <text class="cls-1" transform="translate(206.53 129.92) rotate(96.83)"><tspan x="0" y="0">u</tspan></text>
    <text class="cls-1" transform="translate(206.3 131.92) rotate(98.46)"><tspan x="0" y="0">m</tspan></text>
    <text class="cls-1" transform="translate(205.86 134.79) rotate(99.96)"><tspan x="0" y="0">L</tspan></text>
    <text class="cls-1" transform="translate(205.59 136.39) rotate(101.23)"><tspan x="0" y="0">o</tspan></text>
    <text class="cls-1" transform="translate(205.15 138.55) rotate(102.4)"><tspan x="0" y="0">r</tspan></text>
    <text class="cls-1" transform="translate(204.87 139.87) rotate(103.51)"><tspan x="0" y="0">e</tspan></text>
    <text class="cls-1" transform="translate(204.4 141.83) rotate(105.14)"><tspan x="0" y="0">m</tspan></text>
    <text class="cls-1" transform="translate(203.63 144.66) rotate(106.48)"><tspan x="0" y="0"> </tspan></text>
    <text class="cls-1" transform="translate(203.31 145.73) rotate(107.21)"><tspan x="0" y="0">I</tspan></text>
    <text class="cls-1" transform="translate(202.99 146.77) rotate(108.3)"><tspan x="0" y="0">p</tspan></text>
    <text class="cls-1" transform="translate(202.3 148.86) rotate(109.51)"><tspan x="0" y="0">s</tspan></text>
    <text class="cls-1" transform="translate(201.8 150.27) rotate(110.67)"><tspan x="0" y="0">u</tspan></text>
    <text class="cls-1" transform="translate(201.1 152.14) rotate(112.29)"><tspan x="0" y="0">m</tspan></text>
    <text class="cls-1" transform="translate(199.99 154.83) rotate(113.79)"><tspan x="0" y="0">L</tspan></text>
    <text class="cls-1" transform="translate(199.34 156.31) rotate(115.05)"><tspan x="0" y="0">o</tspan></text>
    <text class="cls-1" transform="translate(198.39 158.34) rotate(116.25)"><tspan x="0" y="0">r</tspan></text>
    <text class="cls-1" transform="translate(197.8 159.54) rotate(117.36)"><tspan x="0" y="0">e</tspan></text>
    <text class="cls-1" transform="translate(196.87 161.35) rotate(119)"><tspan x="0" y="0">m</tspan></text>
    <text class="cls-1" transform="translate(195.45 163.89) rotate(120.34)"><tspan x="0" y="0"> </tspan></text>
    <text class="cls-1" transform="translate(194.88 164.87) rotate(121.07)"><tspan x="0" y="0">I</tspan></text>
    <text class="cls-1" transform="translate(194.34 165.78) rotate(122.15)"><tspan x="0" y="0">p</tspan></text>
    <text class="cls-1" transform="translate(193.15 167.65) rotate(123.39)"><tspan x="0" y="0">s</tspan></text>
    <text class="cls-1" transform="translate(192.33 168.91) rotate(124.56)"><tspan x="0" y="0">u</tspan></text>
    <text class="cls-1" transform="translate(191.2 170.55) rotate(126.19)"><tspan x="0" y="0">m</tspan></text>
    <text class="cls-1" transform="translate(189.47 172.91) rotate(127.55)"><tspan x="0" y="0"> </tspan></text>
    <text class="cls-1" transform="translate(188.79 173.79) rotate(128.29)"><tspan x="0" y="0"> </tspan></text>
    <text class="cls-1" transform="translate(188.08 174.69) rotate(129.06)"><tspan x="0" y="0"> </tspan></text>
    <text class="cls-1" transform="translate(187.37 175.57) rotate(129.98)"><tspan x="0" y="0">L</tspan></text>
    <text class="cls-1" transform="translate(186.34 176.81) rotate(131.25)"><tspan x="0" y="0">o</tspan></text>
    <text class="cls-1" transform="translate(184.86 178.48) rotate(132.47)"><tspan x="0" y="0">r</tspan></text>
    <text class="cls-1" transform="translate(183.96 179.47) rotate(133.58)"><tspan x="0" y="0">e</tspan></text>
    <text class="cls-1" transform="translate(182.57 180.94) rotate(135.23)"><tspan x="0" y="0">m</tspan></text>
    <text class="cls-1" transform="translate(180.49 182.99) rotate(136.59)"><tspan x="0" y="0"> </tspan></text>
    <text class="cls-1" transform="translate(179.68 183.76) rotate(137.32)"><tspan x="0" y="0">I</tspan></text>
    <text class="cls-1" transform="translate(178.87 184.51) rotate(138.44)"><tspan x="0" y="0">p</tspan></text>
    <text class="cls-1" transform="translate(177.22 185.97) rotate(139.67)"><tspan x="0" y="0">s</tspan></text>
    <text class="cls-1" transform="translate(176.09 186.93) rotate(140.83)"><tspan x="0" y="0">u</tspan></text>
    <text class="cls-1" transform="translate(174.54 188.2) rotate(142.47)"><tspan x="0" y="0">m</tspan></text>
    <text class="cls-1" transform="translate(172.23 189.96) rotate(143.98)"><tspan x="0" y="0">L</tspan></text>
    <text class="cls-1" transform="translate(170.91 190.93) rotate(145.27)"><tspan x="0" y="0">o</tspan></text>
    <text class="cls-1" transform="translate(169.1 192.18) rotate(146.44)"><tspan x="0" y="0">r</tspan></text>
    <text class="cls-1" transform="translate(167.98 192.93) rotate(147.55)"><tspan x="0" y="0">e</tspan></text>
    <text class="cls-1" transform="translate(166.27 194.02) rotate(149.18)"><tspan x="0" y="0">m</tspan></text>
    <text class="cls-1" transform="translate(163.75 195.51) rotate(150.52)"><tspan x="0" y="0"> </tspan></text>
    <text class="cls-1" transform="translate(162.76 196.07) rotate(151.24)"><tspan x="0" y="0">I</tspan></text>
    <text class="cls-1" transform="translate(161.82 196.58) rotate(151.52)"><tspan x="0" y="0">p</tspan></text>
    <text class="cls-1" transform="translate(159.87 197.61) rotate(153.51)"><tspan x="0" y="0">s</tspan></text>
    <text class="cls-1" transform="translate(158.55 198.27) rotate(154.64)"><tspan x="0" y="0">u</tspan></text>
    <text class="cls-1" transform="translate(156.75 199.13) rotate(156.25)"><tspan x="0" y="0">m</tspan></text>
    <text class="cls-1" transform="translate(154.06 200.31) rotate(157.77)"><tspan x="0" y="0">L</tspan></text>
    <text class="cls-1" transform="translate(152.56 200.93) rotate(159.03)"><tspan x="0" y="0">o</tspan></text>
    <text class="cls-1" transform="translate(150.5 201.71) rotate(160.22)"><tspan x="0" y="0">r</tspan></text>
    <text class="cls-1" transform="translate(149.23 202.17) rotate(161.33)"><tspan x="0" y="0">e</tspan></text>
    <text class="cls-1" transform="translate(147.32 202.83) rotate(162.98)"><tspan x="0" y="0">m</tspan></text>
    <text class="cls-1" transform="translate(144.53 203.67) rotate(164.32)"><tspan x="0" y="0"> </tspan></text>
    <text class="cls-1" transform="translate(143.44 203.97) rotate(165.06)"><tspan x="0" y="0">I</tspan></text>
    <text class="cls-1" transform="translate(142.39 204.26) rotate(166.17)"><tspan x="0" y="0">p</tspan></text>
    <text class="cls-1" transform="translate(140.24 204.78) rotate(167.41)"><tspan x="0" y="0">s</tspan></text>
    <text class="cls-1" transform="translate(138.81 205.11) rotate(168.57)"><tspan x="0" y="0">u</tspan></text>
    <text class="cls-1" transform="translate(136.85 205.51) rotate(170.21)"><tspan x="0" y="0">m</tspan></text>
    <text class="cls-1" transform="translate(133.97 206) rotate(171.74)"><tspan x="0" y="0">L</tspan></text>
    <text class="cls-1" transform="translate(132.36 206.24) rotate(173.02)"><tspan x="0" y="0">o</tspan></text>
    <text class="cls-1" transform="translate(130.15 206.5) rotate(174.23)"><tspan x="0" y="0">r</tspan></text>
    <text class="cls-1" transform="translate(128.81 206.64) rotate(175.35)"><tspan x="0" y="0">e</tspan></text>
    <text class="cls-1" transform="translate(126.8 206.81) rotate(176.99)"><tspan x="0" y="0">m</tspan></text>
    <text class="cls-1" transform="translate(123.88 206.96) rotate(178.34)"><tspan x="0" y="0"> </tspan></text>
    <text class="cls-1" transform="translate(122.75 206.99) rotate(179.09)"><tspan x="0" y="0">I</tspan></text>
    <text class="cls-1" transform="translate(121.68 207.01) rotate(-179.83)"><tspan x="0" y="0">p</tspan></text>
    <text class="cls-1" transform="translate(119.46 207) rotate(-178.59)"><tspan x="0" y="0">s</tspan></text>
    <text class="cls-1" transform="translate(117.99 206.97) rotate(-177.44)"><tspan x="0" y="0">u</tspan></text>
    <text class="cls-1" transform="translate(115.97 206.87) rotate(-176.4)"><tspan x="0" y="0">I</tspan></text>
    <text class="cls-1" transform="translate(114.91 206.81) rotate(-175.32)"><tspan x="0" y="0">p</tspan></text>
    <text class="cls-1" transform="translate(112.71 206.63) rotate(-174.1)"><tspan x="0" y="0">s</tspan></text>
    <text class="cls-1" transform="translate(111.22 206.48) rotate(-172.93)"><tspan x="0" y="0">u</tspan></text>
    <text class="cls-1" transform="translate(109.23 206.23) rotate(-171.3)"><tspan x="0" y="0">m</tspan></text>
    <text class="cls-1" transform="translate(106.35 205.79) rotate(-169.8)"><tspan x="0" y="0">L</tspan></text>
    <text class="cls-1" transform="translate(104.76 205.5) rotate(-168.54)"><tspan x="0" y="0">o</tspan></text>
    <text class="cls-1" transform="translate(102.6 205.06) rotate(-167.36)"><tspan x="0" y="0">r</tspan></text>
    <text class="cls-1" transform="translate(101.28 204.77) rotate(-166.25)"><tspan x="0" y="0">e</tspan></text>
    <text class="cls-1" transform="translate(99.29 204.29) rotate(-164.61)"><tspan x="0" y="0">m</tspan></text>
    <text class="cls-1" transform="translate(96.5 203.51) rotate(-163.28)"><tspan x="0" y="0"> </tspan></text>
    <text class="cls-1" transform="translate(95.4 203.19) rotate(-162.21)"><tspan x="0" y="0">E</tspan></text>
    <text class="cls-1" transform="translate(93.43 202.55) rotate(-160.87)"><tspan x="0" y="0">n</tspan></text>
    <text class="cls-1" transform="translate(91.54 201.9) rotate(-159.48)"><tspan x="0" y="0">d</tspan></text>
  </g>
</svg>