<?xml version="1.0" encoding="UTF-8"?>
<svg id="Layer_2" data-name="Layer 2" xmlns="http://www.w3.org/2000/svg" viewBox="0 0 120.87 120.85">
  <defs>
    <style>
      .cls-1 {
        fill: #231f20;
        font-family: Futura-Medium, Futura;
        font-size: 2.6px;
        font-weight: 500;
      }
    </style>
  </defs>
  <g id="Layer_8" data-name="Layer 8">
    <text class="cls-1" transform="translate(75.58 102.77) rotate(161.24)"><tspan x="0" y="0">L</tspan></text>
    <text class="cls-1" transform="translate(74.51 103.14) rotate(162.71)"><tspan x="0" y="0">a</tspan></text>
    <text class="cls-1" transform="translate(73 103.61) rotate(164.61)"><tspan x="0" y="0">y</tspan></text>
    <text class="cls-1" transform="translate(71.7 103.97) rotate(166.33)"><tspan x="0" y="0">e</tspan></text>
    <text class="cls-1" transform="translate(70.3 104.31) rotate(167.87)"><tspan x="0" y="0">r</tspan></text>
    <text class="cls-1" transform="translate(69.39 104.5) rotate(168.95)"><tspan x="0" y="0"> </tspan></text>
    <text class="cls-1" transform="translate(68.61 104.66) rotate(170.48)"><tspan x="0" y="0">8</tspan></text>
    <text class="cls-1" transform="translate(67.03 104.92) rotate(172)"><tspan x="0" y="0"> </tspan></text>
    <text class="cls-1" transform="translate(66.24 105.03) rotate(173.01)"><tspan x="0" y="0">I</tspan></text>
    <text class="cls-1" transform="translate(65.49 105.13) rotate(174.49)"><tspan x="0" y="0">p</tspan></text>
    <text class="cls-1" transform="translate(63.94 105.28) rotate(176.16)"><tspan x="0" y="0">s</tspan></text>
    <text class="cls-1" transform="translate(62.91 105.35) rotate(177.72)"><tspan x="0" y="0">u</tspan></text>
    <text class="cls-1" transform="translate(61.51 105.41) rotate(179.93)"><tspan x="0" y="0">m</tspan></text>
    <text class="cls-1" transform="translate(59.47 105.4) rotate(-178.26)"><tspan x="0" y="0"> </tspan></text>
    <text class="cls-1" transform="translate(58.67 105.38) rotate(-177.01)"><tspan x="0" y="0">L</tspan></text>
    <text class="cls-1" transform="translate(57.52 105.32) rotate(-175.28)"><tspan x="0" y="0">o</tspan></text>
    <text class="cls-1" transform="translate(55.97 105.19) rotate(-173.66)"><tspan x="0" y="0">r</tspan></text>
    <text class="cls-1" transform="translate(55.05 105.09) rotate(-172.18)"><tspan x="0" y="0">e</tspan></text>
    <text class="cls-1" transform="translate(53.63 104.9) rotate(-169.97)"><tspan x="0" y="0">m</tspan></text>
    <text class="cls-1" transform="translate(51.61 104.54) rotate(-168.15)"><tspan x="0" y="0"> </tspan></text>
    <text class="cls-1" transform="translate(50.84 104.37) rotate(-167.16)"><tspan x="0" y="0">I</tspan></text>
    <text class="cls-1" transform="translate(50.1 104.21) rotate(-165.7)"><tspan x="0" y="0">p</tspan></text>
    <text class="cls-1" transform="translate(48.61 103.83) rotate(-164.06)"><tspan x="0" y="0">s</tspan></text>
    <text class="cls-1" transform="translate(47.61 103.54) rotate(-162.52)"><tspan x="0" y="0">u</tspan></text>
    <text class="cls-1" transform="translate(46.27 103.13) rotate(-160.33)"><tspan x="0" y="0">m</tspan></text>
    <text class="cls-1" transform="translate(44.35 102.43) rotate(-158.54)"><tspan x="0" y="0"> </tspan></text>
    <text class="cls-1" transform="translate(43.6 102.14) rotate(-157.3)"><tspan x="0" y="0">L</tspan></text>
    <text class="cls-1" transform="translate(42.54 101.7) rotate(-155.59)"><tspan x="0" y="0">o</tspan></text>
    <text class="cls-1" transform="translate(41.14 101.06) rotate(-154.01)"><tspan x="0" y="0">r</tspan></text>
    <text class="cls-1" transform="translate(40.28 100.65) rotate(-152.52)"><tspan x="0" y="0">e</tspan></text>
    <text class="cls-1" transform="translate(39.03 100) rotate(-150.34)"><tspan x="0" y="0">m</tspan></text>
    <text class="cls-1" transform="translate(37.25 98.98) rotate(-148.54)"><tspan x="0" y="0"> </tspan></text>
    <text class="cls-1" transform="translate(36.58 98.57) rotate(-147.56)"><tspan x="0" y="0">I</tspan></text>
    <text class="cls-1" transform="translate(35.94 98.17) rotate(-146.1)"><tspan x="0" y="0">p</tspan></text>
    <text class="cls-1" transform="translate(34.64 97.29) rotate(-144.43)"><tspan x="0" y="0">s</tspan></text>
    <text class="cls-1" transform="translate(33.79 96.68) rotate(-142.88)"><tspan x="0" y="0">u</tspan></text>
    <text class="cls-1" transform="translate(32.66 95.84) rotate(-140.68)"><tspan x="0" y="0">m</tspan></text>
    <text class="cls-1" transform="translate(31.11 94.55) rotate(-138.9)"><tspan x="0" y="0"> </tspan></text>
    <text class="cls-1" transform="translate(30.49 94.02) rotate(-137.64)"><tspan x="0" y="0">L</tspan></text>
    <text class="cls-1" transform="translate(29.66 93.27) rotate(-135.94)"><tspan x="0" y="0">o</tspan></text>
    <text class="cls-1" transform="translate(28.54 92.18) rotate(-134.33)"><tspan x="0" y="0">r</tspan></text>
    <text class="cls-1" transform="translate(27.87 91.49) rotate(-132.8)"><tspan x="0" y="0">e</tspan></text>
    <text class="cls-1" transform="translate(26.91 90.46) rotate(-130.6)"><tspan x="0" y="0">m</tspan></text>
    <text class="cls-1" transform="translate(25.59 88.91) rotate(-128.79)"><tspan x="0" y="0"> </tspan></text>
    <text class="cls-1" transform="translate(25.08 88.28) rotate(-127.77)"><tspan x="0" y="0">I</tspan></text>
    <text class="cls-1" transform="translate(24.62 87.69) rotate(-126.3)"><tspan x="0" y="0">p</tspan></text>
    <text class="cls-1" transform="translate(23.7 86.44) rotate(-124.64)"><tspan x="0" y="0">s</tspan></text>
    <text class="cls-1" transform="translate(23.1 85.57) rotate(-123.05)"><tspan x="0" y="0">u</tspan></text>
    <text class="cls-1" transform="translate(22.33 84.41) rotate(-120.85)"><tspan x="0" y="0">m</tspan></text>
    <text class="cls-1" transform="translate(21.3 82.66) rotate(-119.05)"><tspan x="0" y="0"> </tspan></text>
    <text class="cls-1" transform="translate(20.9 81.95) rotate(-117.79)"><tspan x="0" y="0">L</tspan></text>
    <text class="cls-1" transform="translate(20.37 80.95) rotate(-116.1)"><tspan x="0" y="0">o</tspan></text>
    <text class="cls-1" transform="translate(19.69 79.55) rotate(-114.5)"><tspan x="0" y="0">r</tspan></text>
    <text class="cls-1" transform="translate(19.3 78.68) rotate(-113)"><tspan x="0" y="0">e</tspan></text>
    <text class="cls-1" transform="translate(18.73 77.38) rotate(-110.83)"><tspan x="0" y="0">m</tspan></text>
    <text class="cls-1" transform="translate(18.02 75.48) rotate(-108.77)"><tspan x="0" y="0"> </tspan></text>
    <text class="cls-1" transform="translate(17.76 74.73) rotate(-108.11)"><tspan x="0" y="0">I</tspan></text>
    <text class="cls-1" transform="translate(17.52 74.01) rotate(-106.66)"><tspan x="0" y="0">p</tspan></text>
    <text class="cls-1" transform="translate(17.08 72.53) rotate(-105.02)"><tspan x="0" y="0">s</tspan></text>
    <text class="cls-1" transform="translate(16.81 71.51) rotate(-103.47)"><tspan x="0" y="0">u</tspan></text>
    <text class="cls-1" transform="translate(16.47 70.15) rotate(-101.28)"><tspan x="0" y="0">m</tspan></text>
    <text class="cls-1" transform="translate(16.08 68.15) rotate(-99.25)"><tspan x="0" y="0">L</tspan></text>
    <text class="cls-1" transform="translate(15.89 67.02) rotate(-97.52)"><tspan x="0" y="0">o</tspan></text>
    <text class="cls-1" transform="translate(15.7 65.48) rotate(-95.91)"><tspan x="0" y="0">r</tspan></text>
    <text class="cls-1" transform="translate(15.6 64.56) rotate(-94.42)"><tspan x="0" y="0">e</tspan></text>
    <text class="cls-1" transform="translate(15.48 63.14) rotate(-92.19)"><tspan x="0" y="0">m</tspan></text>
    <text class="cls-1" transform="translate(15.41 61.1) rotate(-90.38)"><tspan x="0" y="0"> </tspan></text>
    <text class="cls-1" transform="translate(15.41 60.29) rotate(-89.36)"><tspan x="0" y="0">I</tspan></text>
    <text class="cls-1" transform="translate(15.41 59.51) rotate(-87.87)"><tspan x="0" y="0">p</tspan></text>
    <text class="cls-1" transform="translate(15.47 58) rotate(-86.24)"><tspan x="0" y="0">s</tspan></text>
    <text class="cls-1" transform="translate(15.54 56.95) rotate(-84.66)"><tspan x="0" y="0">u</tspan></text>
    <text class="cls-1" transform="translate(15.66 55.53) rotate(-82.44)"><tspan x="0" y="0">m</tspan></text>
    <text class="cls-1" transform="translate(15.94 53.54) rotate(-80.44)"><tspan x="0" y="0">L</tspan></text>
    <text class="cls-1" transform="translate(16.12 52.4) rotate(-78.71)"><tspan x="0" y="0">o</tspan></text>
    <text class="cls-1" transform="translate(16.43 50.88) rotate(-77.12)"><tspan x="0" y="0">r</tspan></text>
    <text class="cls-1" transform="translate(16.64 49.95) rotate(-75.61)"><tspan x="0" y="0">e</tspan></text>
    <text class="cls-1" transform="translate(16.99 48.57) rotate(-73.42)"><tspan x="0" y="0">m</tspan></text>
    <text class="cls-1" transform="translate(17.58 46.62) rotate(-71.62)"><tspan x="0" y="0"> </tspan></text>
    <text class="cls-1" transform="translate(17.83 45.86) rotate(-70.63)"><tspan x="0" y="0">I</tspan></text>
    <text class="cls-1" transform="translate(18.08 45.15) rotate(-69.18)"><tspan x="0" y="0">p</tspan></text>
    <text class="cls-1" transform="translate(18.63 43.7) rotate(-67.54)"><tspan x="0" y="0">s</tspan></text>
    <text class="cls-1" transform="translate(19.03 42.73) rotate(-65.97)"><tspan x="0" y="0">u</tspan></text>
    <text class="cls-1" transform="translate(19.59 41.45) rotate(-63.8)"><tspan x="0" y="0">m</tspan></text>
    <text class="cls-1" transform="translate(20.5 39.62) rotate(-61.79)"><tspan x="0" y="0">L</tspan></text>
    <text class="cls-1" transform="translate(21.04 38.61) rotate(-60.08)"><tspan x="0" y="0">o</tspan></text>
    <text class="cls-1" transform="translate(21.81 37.27) rotate(-58.5)"><tspan x="0" y="0">r</tspan></text>
    <text class="cls-1" transform="translate(22.31 36.46) rotate(-57)"><tspan x="0" y="0">e</tspan></text>
    <text class="cls-1" transform="translate(23.07 35.27) rotate(-54.81)"><tspan x="0" y="0">m</tspan></text>
    <text class="cls-1" transform="translate(24.26 33.6) rotate(-53)"><tspan x="0" y="0"> </tspan></text>
    <text class="cls-1" transform="translate(24.74 32.97) rotate(-52.01)"><tspan x="0" y="0">I</tspan></text>
    <text class="cls-1" transform="translate(25.2 32.37) rotate(-50.55)"><tspan x="0" y="0">p</tspan></text>
    <text class="cls-1" transform="translate(26.19 31.18) rotate(-48.9)"><tspan x="0" y="0">s</tspan></text>
    <text class="cls-1" transform="translate(26.87 30.39) rotate(-47.34)"><tspan x="0" y="0">u</tspan></text>
    <text class="cls-1" transform="translate(27.83 29.34) rotate(-45.12)"><tspan x="0" y="0">m</tspan></text>
    <text class="cls-1" transform="translate(29.26 27.91) rotate(-43.1)"><tspan x="0" y="0">L</tspan></text>
    <text class="cls-1" transform="translate(30.08 27.14) rotate(-41.39)"><tspan x="0" y="0">o</tspan></text>
    <text class="cls-1" transform="translate(31.26 26.1) rotate(-39.76)"><tspan x="0" y="0">r</tspan></text>
    <text class="cls-1" transform="translate(31.98 25.5) rotate(-38.26)"><tspan x="0" y="0">e</tspan></text>
    <text class="cls-1" transform="translate(33.09 24.62) rotate(-36.04)"><tspan x="0" y="0">m</tspan></text>
    <text class="cls-1" transform="translate(34.76 23.42) rotate(-34.21)"><tspan x="0" y="0"> </tspan></text>
    <text class="cls-1" transform="translate(35.41 22.98) rotate(-33.23)"><tspan x="0" y="0">I</tspan></text>
    <text class="cls-1" transform="translate(36.03 22.56) rotate(-31.75)"><tspan x="0" y="0">p</tspan></text>
    <text class="cls-1" transform="translate(37.35 21.75) rotate(-30.09)"><tspan x="0" y="0">s</tspan></text>
    <text class="cls-1" transform="translate(38.26 21.22) rotate(-28.52)"><tspan x="0" y="0">u</tspan></text>
    <text class="cls-1" transform="translate(39.5 20.54) rotate(-26.31)"><tspan x="0" y="0">m</tspan></text>
    <text class="cls-1" transform="translate(41.32 19.65) rotate(-24.32)"><tspan x="0" y="0">L</tspan></text>
    <text class="cls-1" transform="translate(42.37 19.17) rotate(-22.6)"><tspan x="0" y="0">o</tspan></text>
    <text class="cls-1" transform="translate(43.8 18.58) rotate(-21.03)"><tspan x="0" y="0">r</tspan></text>
    <text class="cls-1" transform="translate(44.68 18.23) rotate(-18.77)"><tspan x="0" y="0">e</tspan></text>
    <text class="cls-1" transform="translate(46.03 17.75) rotate(-17.38)"><tspan x="0" y="0">m</tspan></text>
    <text class="cls-1" transform="translate(47.97 17.15) rotate(-15.61)"><tspan x="0" y="0"> </tspan></text>
    <text class="cls-1" transform="translate(48.74 16.94) rotate(-14.62)"><tspan x="0" y="0">I</tspan></text>
    <text class="cls-1" transform="translate(49.46 16.74) rotate(-13.17)"><tspan x="0" y="0">p</tspan></text>
    <text class="cls-1" transform="translate(50.98 16.39) rotate(-11.5)"><tspan x="0" y="0">s</tspan></text>
    <text class="cls-1" transform="translate(52 16.18) rotate(-9.95)"><tspan x="0" y="0">u</tspan></text>
    <text class="cls-1" transform="translate(53.38 15.93) rotate(-7.75)"><tspan x="0" y="0">m</tspan></text>
    <text class="cls-1" transform="translate(55.4 15.66) rotate(-5.71)"><tspan x="0" y="0">L</tspan></text>
    <text class="cls-1" transform="translate(56.55 15.55) rotate(-3.97)"><tspan x="0" y="0">o</tspan></text>
    <text class="cls-1" transform="translate(58.09 15.44) rotate(-2.37)"><tspan x="0" y="0">r</tspan></text>
    <text class="cls-1" transform="translate(59.03 15.4) rotate(-.87)"><tspan x="0" y="0">e</tspan></text>
    <text class="cls-1" transform="translate(60.44 15.37) rotate(1.34)"><tspan x="0" y="0">m</tspan></text>
    <text class="cls-1" transform="translate(62.5 15.43) rotate(3.19)"><tspan x="0" y="0"> </tspan></text>
    <text class="cls-1" transform="translate(63.27 15.47) rotate(4.15)"><tspan x="0" y="0">I</tspan></text>
    <text class="cls-1" transform="translate(64.04 15.52) rotate(5.64)"><tspan x="0" y="0">p</tspan></text>
    <text class="cls-1" transform="translate(65.58 15.68) rotate(7.3)"><tspan x="0" y="0">s</tspan></text>
    <text class="cls-1" transform="translate(66.62 15.81) rotate(8.86)"><tspan x="0" y="0">u</tspan></text>
    <text class="cls-1" transform="translate(68.01 16.02) rotate(11.07)"><tspan x="0" y="0">m</tspan></text>
    <text class="cls-1" transform="translate(70.02 16.42) rotate(13.1)"><tspan x="0" y="0">L</tspan></text>
    <text class="cls-1" transform="translate(71.11 16.67) rotate(14.78)"><tspan x="0" y="0">o</tspan></text>
    <text class="cls-1" transform="translate(72.63 17.08) rotate(16.41)"><tspan x="0" y="0">r</tspan></text>
    <text class="cls-1" transform="translate(73.52 17.34) rotate(17.87)"><tspan x="0" y="0">e</tspan></text>
    <text class="cls-1" transform="translate(74.89 17.77) rotate(20.1)"><tspan x="0" y="0">m</tspan></text>
    <text class="cls-1" transform="translate(76.81 18.49) rotate(21.89)"><tspan x="0" y="0"> </tspan></text>
    <text class="cls-1" transform="translate(77.55 18.78) rotate(22.87)"><tspan x="0" y="0">I</tspan></text>
    <text class="cls-1" transform="translate(78.24 19.07) rotate(24.32)"><tspan x="0" y="0">p</tspan></text>
    <text class="cls-1" transform="translate(79.64 19.71) rotate(25.95)"><tspan x="0" y="0">s</tspan></text>
    <text class="cls-1" transform="translate(80.6 20.17) rotate(27.53)"><tspan x="0" y="0">u</tspan></text>
    <text class="cls-1" transform="translate(81.85 20.81) rotate(29.71)"><tspan x="0" y="0">m</tspan></text>
    <text class="cls-1" transform="translate(83.6 21.82) rotate(31.48)"><tspan x="0" y="0"> </tspan></text>
    <text class="cls-1" transform="translate(84.28 22.23) rotate(32.7)"><tspan x="0" y="0">L</tspan></text>
    <text class="cls-1" transform="translate(85.24 22.85) rotate(34.42)"><tspan x="0" y="0">o</tspan></text>
    <text class="cls-1" transform="translate(86.52 23.73) rotate(36)"><tspan x="0" y="0">r</tspan></text>
    <text class="cls-1" transform="translate(87.29 24.29) rotate(37.51)"><tspan x="0" y="0">e</tspan></text>
    <text class="cls-1" transform="translate(88.42 25.15) rotate(39.71)"><tspan x="0" y="0">m</tspan></text>
    <text class="cls-1" transform="translate(89.99 26.47) rotate(41.53)"><tspan x="0" y="0"> </tspan></text>
    <text class="cls-1" transform="translate(90.59 27) rotate(42.53)"><tspan x="0" y="0">I</tspan></text>
    <text class="cls-1" transform="translate(91.13 27.48) rotate(43.97)"><tspan x="0" y="0">p</tspan></text>
    <text class="cls-1" transform="translate(92.25 28.56) rotate(45.63)"><tspan x="0" y="0">s</tspan></text>
    <text class="cls-1" transform="translate(92.98 29.31) rotate(47.2)"><tspan x="0" y="0">u</tspan></text>
    <text class="cls-1" transform="translate(93.94 30.33) rotate(49.4)"><tspan x="0" y="0">m</tspan></text>
    <text class="cls-1" transform="translate(95.27 31.9) rotate(51.23)"><tspan x="0" y="0"> </tspan></text>
    <text class="cls-1" transform="translate(95.77 32.53) rotate(52.5)"><tspan x="0" y="0">L</tspan></text>
    <text class="cls-1" transform="translate(96.46 33.42) rotate(54.21)"><tspan x="0" y="0">o</tspan></text>
    <text class="cls-1" transform="translate(97.37 34.69) rotate(55.83)"><tspan x="0" y="0">r</tspan></text>
    <text class="cls-1" transform="translate(97.89 35.45) rotate(57.31)"><tspan x="0" y="0">e</tspan></text>
    <text class="cls-1" transform="translate(98.68 36.66) rotate(59.55)"><tspan x="0" y="0">m</tspan></text>
    <text class="cls-1" transform="translate(99.7 38.42) rotate(61.35)"><tspan x="0" y="0"> </tspan></text>
    <text class="cls-1" transform="translate(100.08 39.12) rotate(62.34)"><tspan x="0" y="0">I</tspan></text>
    <text class="cls-1" transform="translate(100.44 39.8) rotate(63.83)"><tspan x="0" y="0">p</tspan></text>
    <text class="cls-1" transform="translate(101.12 41.18) rotate(65.46)"><tspan x="0" y="0">s</tspan></text>
    <text class="cls-1" transform="translate(101.55 42.12) rotate(67)"><tspan x="0" y="0">u</tspan></text>
    <text class="cls-1" transform="translate(102.11 43.42) rotate(69.17)"><tspan x="0" y="0">m</tspan></text>
    <text class="cls-1" transform="translate(102.83 45.33) rotate(71.24)"><tspan x="0" y="0"> </tspan></text>
    <text class="cls-1" transform="translate(103.09 46.09) rotate(72.16)"><tspan x="0" y="0">L</tspan></text>
    <text class="cls-1" transform="translate(103.44 47.17) rotate(73.34)"><tspan x="0" y="0">I</tspan></text>
    <text class="cls-1" transform="translate(103.66 47.89) rotate(74.79)"><tspan x="0" y="0">p</tspan></text>
    <text class="cls-1" transform="translate(104.06 49.37) rotate(76.42)"><tspan x="0" y="0">s</tspan></text>
    <text class="cls-1" transform="translate(104.31 50.4) rotate(78)"><tspan x="0" y="0">u</tspan></text>
    <text class="cls-1" transform="translate(104.61 51.78) rotate(80.21)"><tspan x="0" y="0">m</tspan></text>
    <text class="cls-1" transform="translate(104.95 53.79) rotate(82.23)"><tspan x="0" y="0">L</tspan></text>
    <text class="cls-1" transform="translate(105.1 54.92) rotate(83.95)"><tspan x="0" y="0">o</tspan></text>
    <text class="cls-1" transform="translate(105.26 56.47) rotate(85.58)"><tspan x="0" y="0">r</tspan></text>
    <text class="cls-1" transform="translate(105.34 57.4) rotate(87.07)"><tspan x="0" y="0">e</tspan></text>
    <text class="cls-1" transform="translate(105.42 58.83) rotate(89.31)"><tspan x="0" y="0">m</tspan></text>
    <text class="cls-1" transform="translate(105.43 60.87) rotate(91.12)"><tspan x="0" y="0"> </tspan></text>
    <text class="cls-1" transform="translate(105.42 61.66) rotate(92.11)"><tspan x="0" y="0">I</tspan></text>
    <text class="cls-1" transform="translate(105.4 62.41) rotate(93.58)"><tspan x="0" y="0">p</tspan></text>
    <text class="cls-1" transform="translate(105.3 63.96) rotate(95.25)"><tspan x="0" y="0">s</tspan></text>
    <text class="cls-1" transform="translate(105.2 65) rotate(96.82)"><tspan x="0" y="0">u</tspan></text>
    <text class="cls-1" transform="translate(105.03 66.41) rotate(98.21)"><tspan x="0" y="0">I</tspan></text>
    <text class="cls-1" transform="translate(104.92 67.15) rotate(99.17)"><tspan x="0" y="0">I</tspan></text>
    <text class="cls-1" transform="translate(104.81 67.9) rotate(100.64)"><tspan x="0" y="0">p</tspan></text>
    <text class="cls-1" transform="translate(104.52 69.41) rotate(102.28)"><tspan x="0" y="0">s</tspan></text>
    <text class="cls-1" transform="translate(104.3 70.43) rotate(103.83)"><tspan x="0" y="0">u</tspan></text>
    <text class="cls-1" transform="translate(103.97 71.8) rotate(106.02)"><tspan x="0" y="0">m</tspan></text>
    <text class="cls-1" transform="translate(103.4 73.76) rotate(108.04)"><tspan x="0" y="0">L</tspan></text>
    <text class="cls-1" transform="translate(103.04 74.85) rotate(109.28)"><tspan x="0" y="0"> </tspan></text>
    <text class="cls-1" transform="translate(102.78 75.6) rotate(110.27)"><tspan x="0" y="0">I</tspan></text>
    <text class="cls-1" transform="translate(102.52 76.31) rotate(111.72)"><tspan x="0" y="0">p</tspan></text>
    <text class="cls-1" transform="translate(101.95 77.73) rotate(113.34)"><tspan x="0" y="0">s</tspan></text>
    <text class="cls-1" transform="translate(101.53 78.72) rotate(114.92)"><tspan x="0" y="0">u</tspan></text>
    <text class="cls-1" transform="translate(100.95 79.99) rotate(117.1)"><tspan x="0" y="0">m</tspan></text>
    <text class="cls-1" transform="translate(100.01 81.81) rotate(118.89)"><tspan x="0" y="0"> </tspan></text>
    <text class="cls-1" transform="translate(99.63 82.48) rotate(119.88)"><tspan x="0" y="0"> </tspan></text>
    <text class="cls-1" transform="translate(99.23 83.19) rotate(120.9)"><tspan x="0" y="0"> </tspan></text>
    <text class="cls-1" transform="translate(98.83 83.86) rotate(122.12)"><tspan x="0" y="0">L</tspan></text>
    <text class="cls-1" transform="translate(98.23 84.82) rotate(123.82)"><tspan x="0" y="0">o</tspan></text>
    <text class="cls-1" transform="translate(97.35 86.12) rotate(125.42)"><tspan x="0" y="0">r</tspan></text>
    <text class="cls-1" transform="translate(96.79 86.92) rotate(126.78)"><tspan x="0" y="0">L</tspan></text>
    <text class="cls-1" transform="translate(96.12 87.81) rotate(128.46)"><tspan x="0" y="0">o</tspan></text>
    <text class="cls-1" transform="translate(95.15 89.03) rotate(130.06)"><tspan x="0" y="0">r</tspan></text>
    <text class="cls-1" transform="translate(94.54 89.76) rotate(131.58)"><tspan x="0" y="0">e</tspan></text>
    <text class="cls-1" transform="translate(93.58 90.83) rotate(133.01)"><tspan x="0" y="0"> </tspan></text>
    <text class="cls-1" transform="translate(93.04 91.42) rotate(133.97)"><tspan x="0" y="0">t</tspan></text>
    <text class="cls-1" transform="translate(92.53 91.95) rotate(135.37)"><tspan x="0" y="0">h</tspan></text>
    <text class="cls-1" transform="translate(91.51 92.95) rotate(137.2)"><tspan x="0" y="0">e</tspan></text>
    <text class="cls-1" transform="translate(90.48 93.91) rotate(139.01)"><tspan x="0" y="0">e</tspan></text>
    <text class="cls-1" transform="translate(89.4 94.85) rotate(140.84)"><tspan x="0" y="0">n</tspan></text>
    <text class="cls-1" transform="translate(88.32 95.73) rotate(142.72)"><tspan x="0" y="0">d</tspan></text>
    <text class="cls-1" transform="translate(87.08 96.67) rotate(144.23)"><tspan x="0" y="0"> </tspan></text>
    <text class="cls-1" transform="translate(86.43 97.14) rotate(145.25)"><tspan x="0" y="0"> </tspan></text>
    <text class="cls-1" transform="translate(85.77 97.59) rotate(146.28)"><tspan x="0" y="0"> </tspan></text>
    <text class="cls-1" transform="translate(85.1 98.04) rotate(147.31)"><tspan x="0" y="0"> </tspan></text>
    <text class="cls-1" transform="translate(84.44 98.46) rotate(148.32)"><tspan x="0" y="0"> </tspan></text>
    <text class="cls-1" transform="translate(83.77 98.88) rotate(149.32)"><tspan x="0" y="0"> </tspan></text>
    <text class="cls-1" transform="translate(83.08 99.29) rotate(150.36)"><tspan x="0" y="0"> </tspan></text>
  </g>
</svg>