<?xml version="1.0" encoding="UTF-8"?>
<svg id="Layer_2" data-name="Layer 2" xmlns="http://www.w3.org/2000/svg" viewBox="0 0 97.1 97.1">
  <defs>
    <style>
      .cls-1 {
        font-family: Futura-CondensedExtraBold, Futura;
        font-weight: 700;
      }

      .cls-1, .cls-2 {
        fill: #231f20;
        font-size: 2.3px;
      }

      .cls-2 {
        font-family: Futura-Medium, Futura;
        font-weight: 500;
      }
    </style>
  </defs>
  <g id="Layer_5" data-name="Layer 5">
    <text class="cls-2" transform="translate(18.95 64.78) rotate(-116.91)"><tspan x="0" y="0">M</tspan></text>
    <text class="cls-2" transform="translate(17.96 62.82) rotate(-113.92)"><tspan x="0" y="0">o</tspan></text>
    <text class="cls-2" transform="translate(17.41 61.56) rotate(-111.98)"><tspan x="0" y="0">s</tspan></text>
    <text class="cls-2" transform="translate(17.07 60.7) rotate(-110.67)"><tspan x="0" y="0">t</tspan></text>
    <text class="cls-2" transform="translate(16.85 60.12) rotate(-109.54)"><tspan x="0" y="0"> </tspan></text>
    <text class="cls-2" transform="translate(16.61 59.47) rotate(-107.79)"><tspan x="0" y="0">b</tspan></text>
    <text class="cls-2" transform="translate(16.19 58.17) rotate(-105.46)"><tspan x="0" y="0">a</tspan></text>
    <text class="cls-2" transform="translate(15.83 56.86) rotate(-103.58)"><tspan x="0" y="0">r</tspan></text>
    <text class="cls-2" transform="translate(15.63 56) rotate(-102.07)"><tspan x="0" y="0">r</tspan></text>
    <text class="cls-2" transform="translate(15.44 55.12) rotate(-100.78)"><tspan x="0" y="0">i</tspan></text>
    <text class="cls-2" transform="translate(15.33 54.58) rotate(-99.23)"><tspan x="0" y="0">e</tspan></text>
    <text class="cls-2" transform="translate(15.13 53.33) rotate(-97.42)"><tspan x="0" y="0">r</tspan></text>
    <text class="cls-2" transform="translate(15.02 52.47) rotate(-95.88)"><tspan x="0" y="0">s</tspan></text>
    <text class="cls-2" transform="translate(14.93 51.57) rotate(-94.53)"><tspan x="0" y="0"> </tspan></text>
    <text class="cls-2" transform="translate(14.87 50.86) rotate(-92.74)"><tspan x="0" y="0">a</tspan></text>
    <text class="cls-2" transform="translate(14.81 49.5) rotate(-90.86)"><tspan x="0" y="0">r</tspan></text>
    <text class="cls-2" transform="translate(14.79 48.66) rotate(-89.08)"><tspan x="0" y="0">e</tspan></text>
    <text class="cls-2" transform="translate(14.81 47.41) rotate(-87.44)"><tspan x="0" y="0"> </tspan></text>
    <text class="cls-2" transform="translate(14.84 46.71) rotate(-86.06)"><tspan x="0" y="0">s</tspan></text>
    <text class="cls-2" transform="translate(14.9 45.81) rotate(-84.25)"><tspan x="0" y="0">u</tspan></text>
    <text class="cls-2" transform="translate(15.03 44.55) rotate(-82.45)"><tspan x="0" y="0">r</tspan></text>
    <text class="cls-2" transform="translate(15.15 43.67) rotate(-80.95)"><tspan x="0" y="0">r</tspan></text>
    <text class="cls-2" transform="translate(15.28 42.82) rotate(-78.68)"><tspan x="0" y="0">m</tspan></text>
    <text class="cls-2" transform="translate(15.64 41.04) rotate(-75.99)"><tspan x="0" y="0">o</tspan></text>
    <text class="cls-2" transform="translate(15.97 39.73) rotate(-73.81)"><tspan x="0" y="0">u</tspan></text>
    <text class="cls-2" transform="translate(16.31 38.54) rotate(-71.72)"><tspan x="0" y="0">n</tspan></text>
    <text class="cls-2" transform="translate(16.71 37.35) rotate(-70.14)"><tspan x="0" y="0">t</tspan></text>
    <text class="cls-2" transform="translate(16.92 36.75) rotate(-68.43)"><tspan x="0" y="0">a</tspan></text>
    <text class="cls-2" transform="translate(17.42 35.48) rotate(-66.12)"><tspan x="0" y="0">b</tspan></text>
    <text class="cls-2" transform="translate(17.98 34.23) rotate(-64.48)"><tspan x="0" y="0">l</tspan></text>
    <text class="cls-2" transform="translate(18.22 33.72) rotate(-62.94)"><tspan x="0" y="0">e</tspan></text>
    <text class="cls-2" transform="translate(18.79 32.61) rotate(-61.3)"><tspan x="0" y="0">.</tspan></text>
    <text class="cls-2" transform="translate(19.13 31.98) rotate(-60.09)"><tspan x="0" y="0"> </tspan></text>
    <text class="cls-2" transform="translate(19.46 31.38) rotate(-57.45)"><tspan x="0" y="0">W</tspan></text>
    <text class="cls-2" transform="translate(20.7 29.45) rotate(-54.54)"><tspan x="0" y="0">e</tspan></text>
    <text class="cls-2" transform="translate(21.43 28.43) rotate(-52.88)"><tspan x="0" y="0"> </tspan></text>
    <text class="cls-2" transform="translate(21.85 27.87) rotate(-51.13)"><tspan x="0" y="0">d</tspan></text>
    <text class="cls-2" transform="translate(22.7 26.81) rotate(-48.79)"><tspan x="0" y="0">o</tspan></text>
    <text class="cls-2" transform="translate(23.61 25.77) rotate(-46.53)"><tspan x="0" y="0">n</tspan></text>
    <text class="cls-2" transform="translate(24.47 24.88) rotate(-44.84)"><tspan x="0" y="0">’</tspan></text>
    <text class="cls-2" transform="translate(24.99 24.36) rotate(-43.68)"><tspan x="0" y="0">t</tspan></text>
    <text class="cls-2" transform="translate(25.45 23.91) rotate(-42.53)"><tspan x="0" y="0"> </tspan></text>
    <text class="cls-2" transform="translate(25.96 23.44) rotate(-40.43)"><tspan x="0" y="0">w</tspan></text>
    <text class="cls-2" transform="translate(27.28 22.32) rotate(-37.82)"><tspan x="0" y="0">a</tspan></text>
    <text class="cls-2" transform="translate(28.35 21.49) rotate(-36.2)"><tspan x="0" y="0">l</tspan></text>
    <text class="cls-2" transform="translate(28.81 21.15) rotate(-34.75)"><tspan x="0" y="0">k</tspan></text>
    <text class="cls-2" transform="translate(29.74 20.51) rotate(-33.21)"><tspan x="0" y="0"> </tspan></text>
    <text class="cls-2" transform="translate(30.33 20.12) rotate(-32.08)"><tspan x="0" y="0">t</tspan></text>
    <text class="cls-2" transform="translate(30.89 19.77) rotate(-30.45)"><tspan x="0" y="0">h</tspan></text>
    <text class="cls-2" transform="translate(31.97 19.13) rotate(-27.8)"><tspan x="0" y="0">r</tspan></text>
    <text class="cls-2" transform="translate(32.7 18.73) rotate(-26.86)"><tspan x="0" y="0">o</tspan></text>
    <text class="cls-2" transform="translate(33.92 18.12) rotate(-24.69)"><tspan x="0" y="0">u</tspan></text>
    <text class="cls-2" transform="translate(35.03 17.6) rotate(-22.52)"><tspan x="0" y="0">g</tspan></text>
    <text class="cls-2" transform="translate(36.29 17.08) rotate(-20.31)"><tspan x="0" y="0">h</tspan></text>
    <text class="cls-2" transform="translate(37.46 16.65) rotate(-18.64)"><tspan x="0" y="0"> </tspan></text>
    <text class="cls-2" transform="translate(38.12 16.42) rotate(-16.89)"><tspan x="0" y="0">a</tspan></text>
    <text class="cls-2" transform="translate(39.44 16.03) rotate(-15.1)"><tspan x="0" y="0"> </tspan></text>
    <text class="cls-2" transform="translate(40.1 15.84) rotate(-13.36)"><tspan x="0" y="0">d</tspan></text>
    <text class="cls-2" transform="translate(41.44 15.53) rotate(-11)"><tspan x="0" y="0">o</tspan></text>
    <text class="cls-2" transform="translate(42.78 15.26) rotate(-8.66)"><tspan x="0" y="0">o</tspan></text>
    <text class="cls-2" transform="translate(44.14 15.06) rotate(-6.76)"><tspan x="0" y="0">r</tspan></text>
    <text class="cls-2" transform="translate(44.98 14.97) rotate(-5.45)"><tspan x="0" y="0"> </tspan></text>
    <text class="cls-2" transform="translate(45.68 14.9) rotate(-4.31)"><tspan x="0" y="0">t</tspan></text>
    <text class="cls-2" transform="translate(46.34 14.84) rotate(-2.65)"><tspan x="0" y="0">h</tspan></text>
    <text class="cls-2" transform="translate(47.58 14.79) rotate(-.43)"><tspan x="0" y="0">a</tspan></text>
    <text class="cls-2" transform="translate(48.95 14.78) rotate(1.26)"><tspan x="0" y="0">t</tspan></text>
    <text class="cls-2" transform="translate(49.57 14.79) rotate(2.39)"><tspan x="0" y="0"> </tspan></text>
    <text class="cls-2" transform="translate(50.27 14.82) rotate(3.77)"><tspan x="0" y="0">s</tspan></text>
    <text class="cls-2" transform="translate(51.19 14.88) rotate(5.71)"><tspan x="0" y="0">a</tspan></text>
    <text class="cls-2" transform="translate(52.57 15.02) rotate(7.94)"><tspan x="0" y="0">y</tspan></text>
    <text class="cls-2" transform="translate(53.78 15.19) rotate(9.74)"><tspan x="0" y="0">s</tspan></text>
    <text class="cls-1" transform="translate(54.7 15.35) rotate(11.11)"><tspan x="0" y="0"> </tspan></text>
    <text class="cls-1" transform="translate(55.36 15.47) rotate(12.39)"><tspan x="0" y="0">‘</tspan></text>
    <text class="cls-1" transform="translate(56.21 15.66) rotate(14.23)"><tspan x="0" y="0">d</tspan></text>
    <text class="cls-1" transform="translate(57.45 15.97) rotate(16.36)"><tspan x="0" y="0">o</tspan></text>
    <text class="cls-1" transform="translate(58.65 16.33) rotate(17.98)"><tspan x="0" y="0"> </tspan></text>
    <text class="cls-1" transform="translate(59.29 16.53) rotate(19.61)"><tspan x="0" y="0">n</tspan></text>
    <text class="cls-1" transform="translate(60.49 16.96) rotate(21.74)"><tspan x="0" y="0">o</tspan></text>
    <text class="cls-1" transform="translate(61.65 17.43) rotate(23.46)"><tspan x="0" y="0">t</tspan></text>
    <text class="cls-1" transform="translate(62.34 17.73) rotate(24.66)"><tspan x="0" y="0"> </tspan></text>
    <text class="cls-1" transform="translate(62.97 18.01) rotate(26.29)"><tspan x="0" y="0">e</tspan></text>
    <text class="cls-1" transform="translate(64.09 18.56) rotate(28.44)"><tspan x="0" y="0">n</tspan></text>
    <text class="cls-1" transform="translate(65.2 19.17) rotate(30.17)"><tspan x="0" y="0">t</tspan></text>
    <text class="cls-1" transform="translate(65.88 19.56) rotate(31.9)"><tspan x="0" y="0">e</tspan></text>
    <text class="cls-1" transform="translate(66.92 20.21) rotate(33.68)"><tspan x="0" y="0">r</tspan></text>
    <text class="cls-2" transform="translate(67.66 20.7) rotate(35.07)"><tspan x="0" y="0">’</tspan></text>
    <text class="cls-2" transform="translate(68.27 21.13) rotate(36.29)"><tspan x="0" y="0"> </tspan></text>
    <text class="cls-2" transform="translate(68.85 21.55) rotate(38.09)"><tspan x="0" y="0">b</tspan></text>
    <text class="cls-2" transform="translate(69.9 22.37) rotate(40.28)"><tspan x="0" y="0">e</tspan></text>
    <text class="cls-2" transform="translate(70.87 23.2) rotate(42.32)"><tspan x="0" y="0">c</tspan></text>
    <text class="cls-2" transform="translate(71.67 23.92) rotate(44.4)"><tspan x="0" y="0">a</tspan></text>
    <text class="cls-2" transform="translate(72.64 24.88) rotate(46.63)"><tspan x="0" y="0">u</tspan></text>
    <text class="cls-2" transform="translate(73.49 25.78) rotate(48.46)"><tspan x="0" y="0">s</tspan></text>
    <text class="cls-2" transform="translate(74.11 26.47) rotate(50.34)"><tspan x="0" y="0">e</tspan></text>
    <text class="cls-2" transform="translate(74.91 27.44) rotate(52)"><tspan x="0" y="0"> </tspan></text>
    <text class="cls-2" transform="translate(75.34 27.98) rotate(54.08)"><tspan x="0" y="0">w</tspan></text>
    <text class="cls-2" transform="translate(76.35 29.37) rotate(56.56)"><tspan x="0" y="0">e</tspan></text>
    <text class="cls-2" transform="translate(77.05 30.44) rotate(58.24)"><tspan x="0" y="0"> </tspan></text>
    <text class="cls-2" transform="translate(77.41 31.03) rotate(59.28)"><tspan x="0" y="0">i</tspan></text>
    <text class="cls-2" transform="translate(77.73 31.51) rotate(62.2)"><tspan x="0" y="0">m</tspan></text>
    <text class="cls-2" transform="translate(78.57 33.1) rotate(63.91)"><tspan x="0" y="0">a</tspan></text>
    <text class="cls-2" transform="translate(79.18 34.33) rotate(66.22)"><tspan x="0" y="0">g</tspan></text>
    <text class="cls-2" transform="translate(79.72 35.58) rotate(67.84)"><tspan x="0" y="0">i</tspan></text>
    <text class="cls-2" transform="translate(79.94 36.1) rotate(69.38)"><tspan x="0" y="0">n</tspan></text>
    <text class="cls-2" transform="translate(80.37 37.25) rotate(71.5)"><tspan x="0" y="0">e</tspan></text>
    <text class="cls-2" transform="translate(80.77 38.45) rotate(73.16)"><tspan x="0" y="0"> </tspan></text>
    <text class="cls-2" transform="translate(80.97 39.11) rotate(74.27)"><tspan x="0" y="0">t</tspan></text>
    <text class="cls-2" transform="translate(81.16 39.76) rotate(75.97)"><tspan x="0" y="0">h</tspan></text>
    <text class="cls-2" transform="translate(81.46 40.97) rotate(78.11)"><tspan x="0" y="0">e</tspan></text>
    <text class="cls-2" transform="translate(81.72 42.21) rotate(79.93)"><tspan x="0" y="0">r</tspan></text>
    <text class="cls-2" transform="translate(81.87 43.03) rotate(81.7)"><tspan x="0" y="0">e</tspan></text>
    <text class="cls-2" transform="translate(82.04 44.28) rotate(83.41)"><tspan x="0" y="0">’</tspan></text>
    <text class="cls-2" transform="translate(82.13 45) rotate(84.81)"><tspan x="0" y="0">s</tspan></text>
    <text class="cls-2" transform="translate(82.21 45.93) rotate(86.22)"><tspan x="0" y="0"> </tspan></text>
    <text class="cls-2" transform="translate(82.26 46.62) rotate(87.96)"><tspan x="0" y="0">a</tspan></text>
    <text class="cls-2" transform="translate(82.31 48) rotate(89.75)"><tspan x="0" y="0"> </tspan></text>
    <text class="cls-2" transform="translate(82.32 48.69) rotate(91.48)"><tspan x="0" y="0">g</tspan></text>
    <text class="cls-2" transform="translate(82.28 50.06) rotate(93.81)"><tspan x="0" y="0">o</tspan></text>
    <text class="cls-2" transform="translate(82.19 51.4) rotate(96.09)"><tspan x="0" y="0">o</tspan></text>
    <text class="cls-2" transform="translate(82.05 52.76) rotate(98.41)"><tspan x="0" y="0">d</tspan></text>
    <text class="cls-2" transform="translate(81.84 54.12) rotate(100.17)"><tspan x="0" y="0"> </tspan></text>
    <text class="cls-2" transform="translate(81.72 54.82) rotate(101.49)"><tspan x="0" y="0">r</tspan></text>
    <text class="cls-2" transform="translate(81.55 55.64) rotate(103.25)"><tspan x="0" y="0">e</tspan></text>
    <text class="cls-2" transform="translate(81.27 56.84) rotate(105.42)"><tspan x="0" y="0">a</tspan></text>
    <text class="cls-2" transform="translate(80.9 58.18) rotate(107.39)"><tspan x="0" y="0">s</tspan></text>
    <text class="cls-2" transform="translate(80.63 59.05) rotate(109.31)"><tspan x="0" y="0">o</tspan></text>
    <text class="cls-2" transform="translate(80.18 60.33) rotate(111.49)"><tspan x="0" y="0">n</tspan></text>
    <text class="cls-2" transform="translate(79.71 61.5) rotate(113.16)"><tspan x="0" y="0"> </tspan></text>
    <text class="cls-2" transform="translate(79.45 62.16) rotate(115.26)"><tspan x="0" y="0">w</tspan></text>
    <text class="cls-2" transform="translate(78.69 63.74) rotate(117.8)"><tspan x="0" y="0">h</tspan></text>
    <text class="cls-2" transform="translate(78.13 64.81) rotate(119.82)"><tspan x="0" y="0">y</tspan></text>
    <text class="cls-2" transform="translate(77.51 65.88) rotate(121.46)"><tspan x="0" y="0"> </tspan></text>
    <text class="cls-2" transform="translate(77.16 66.47) rotate(123.55)"><tspan x="0" y="0">w</tspan></text>
    <text class="cls-2" transform="translate(76.2 67.92) rotate(126.07)"><tspan x="0" y="0">e</tspan></text>
    <text class="cls-2" transform="translate(75.46 68.93) rotate(127.74)"><tspan x="0" y="0"> </tspan></text>
    <text class="cls-2" transform="translate(75.04 69.48) rotate(129.49)"><tspan x="0" y="0">a</tspan></text>
    <text class="cls-2" transform="translate(74.16 70.53) rotate(131.39)"><tspan x="0" y="0">r</tspan></text>
    <text class="cls-2" transform="translate(73.62 71.16) rotate(133.16)"><tspan x="0" y="0">e</tspan></text>
    <text class="cls-2" transform="translate(72.75 72.08) rotate(134.84)"><tspan x="0" y="0"> </tspan></text>
    <text class="cls-2" transform="translate(72.25 72.58) rotate(136.62)"><tspan x="0" y="0">b</tspan></text>
    <text class="cls-2" transform="translate(71.26 73.52) rotate(138.86)"><tspan x="0" y="0">e</tspan></text>
    <text class="cls-2" transform="translate(70.3 74.35) rotate(140.43)"><tspan x="0" y="0">i</tspan></text>
    <text class="cls-2" transform="translate(69.88 74.71) rotate(141.96)"><tspan x="0" y="0">n</tspan></text>
    <text class="cls-2" transform="translate(68.9 75.47) rotate(144.17)"><tspan x="0" y="0">g</tspan></text>
    <text class="cls-2" transform="translate(67.79 76.27) rotate(145.93)"><tspan x="0" y="0"> </tspan></text>
    <text class="cls-2" transform="translate(67.22 76.66) rotate(147.65)"><tspan x="0" y="0">a</tspan></text>
    <text class="cls-2" transform="translate(66.07 77.38) rotate(149.55)"><tspan x="0" y="0">s</tspan></text>
    <text class="cls-2" transform="translate(65.28 77.86) rotate(152.2)"><tspan x="0" y="0">k</tspan></text>
    <text class="cls-2" transform="translate(64.31 78.39) rotate(153.23)"><tspan x="0" y="0">e</tspan></text>
    <text class="cls-2" transform="translate(63.2 78.95) rotate(155.4)"><tspan x="0" y="0">d</tspan></text>
    <text class="cls-2" transform="translate(61.94 79.52) rotate(157.16)"><tspan x="0" y="0"> </tspan></text>
    <text class="cls-2" transform="translate(61.29 79.79) rotate(158.3)"><tspan x="0" y="0">t</tspan></text>
    <text class="cls-2" transform="translate(60.7 80.03) rotate(160.01)"><tspan x="0" y="0">o</tspan></text>
    <text class="cls-2" transform="translate(59.42 80.5) rotate(161.76)"><tspan x="0" y="0"> </tspan></text>
    <text class="cls-2" transform="translate(58.76 80.71) rotate(163.07)"><tspan x="0" y="0">r</tspan></text>
    <text class="cls-2" transform="translate(57.96 80.96) rotate(164.86)"><tspan x="0" y="0">e</tspan></text>
    <text class="cls-2" transform="translate(56.74 81.29) rotate(166.73)"><tspan x="0" y="0">s</tspan></text>
    <text class="cls-2" transform="translate(55.84 81.5) rotate(168.69)"><tspan x="0" y="0">p</tspan></text>
    <text class="cls-2" transform="translate(54.52 81.77) rotate(170.9)"><tspan x="0" y="0">e</tspan></text>
    <text class="cls-2" transform="translate(53.26 81.97) rotate(172.93)"><tspan x="0" y="0">c</tspan></text>
    <text class="cls-2" transform="translate(52.19 82.1) rotate(174.38)"><tspan x="0" y="0">t</tspan></text>
    <text class="cls-2" transform="translate(51.56 82.16) rotate(175.52)"><tspan x="0" y="0"> </tspan></text>
    <text class="cls-2" transform="translate(50.86 82.22) rotate(176.66)"><tspan x="0" y="0">t</tspan></text>
    <text class="cls-2" transform="translate(50.2 82.26) rotate(178.31)"><tspan x="0" y="0">h</tspan></text>
    <text class="cls-2" transform="translate(48.97 82.29) rotate(179.83)"><tspan x="0" y="0">i</tspan></text>
    <text class="cls-2" transform="translate(48.41 82.29) rotate(-178.91)"><tspan x="0" y="0">s</tspan></text>
    <text class="cls-2" transform="translate(47.48 82.27) rotate(-177.53)"><tspan x="0" y="0"> </tspan></text>
    <text class="cls-2" transform="translate(46.77 82.25) rotate(-175.76)"><tspan x="0" y="0">b</tspan></text>
    <text class="cls-2" transform="translate(45.41 82.15) rotate(-173.43)"><tspan x="0" y="0">o</tspan></text>
    <text class="cls-2" transform="translate(44.06 81.99) rotate(-171.25)"><tspan x="0" y="0">u</tspan></text>
    <text class="cls-2" transform="translate(42.84 81.8) rotate(-169.15)"><tspan x="0" y="0">n</tspan></text>
    <text class="cls-2" transform="translate(41.63 81.57) rotate(-166.97)"><tspan x="0" y="0">d</tspan></text>
    <text class="cls-2" transform="translate(40.29 81.27) rotate(-164.66)"><tspan x="0" y="0">a</tspan></text>
    <text class="cls-2" transform="translate(38.97 80.9) rotate(-162.78)"><tspan x="0" y="0">r</tspan></text>
    <text class="cls-2" transform="translate(38.07 80.62) rotate(-160.86)"><tspan x="0" y="0">y</tspan></text>
    <text class="cls-2" transform="translate(37.02 80.26) rotate(-159.45)"><tspan x="0" y="0">.</tspan></text>
  </g>
</svg>