<?xml version="1.0" encoding="UTF-8"?>
<svg id="Layer_2" data-name="Layer 2" xmlns="http://www.w3.org/2000/svg" viewBox="0 0 268.4 268.39">
  <defs>
    <style>
      .cls-1 {
        font-family: Futura-Medium, Futura;
        font-weight: 500;
      }

      .cls-1, .cls-2 {
        fill: #231f20;
        font-size: 4.2px;
      }

      .cls-2 {
        font-family: Futura-CondensedExtraBold, Futura;
        font-weight: 700;
      }
    </style>
  </defs>
  <g id="Layer_24" data-name="Layer 24">
    <text class="cls-1" transform="translate(33.17 105.58) rotate(-73.26)"><tspan x="0" y="0">L</tspan></text>
    <text class="cls-1" transform="translate(33.69 103.81) rotate(-72.53)"><tspan x="0" y="0">a</tspan></text>
    <text class="cls-1" transform="translate(34.45 101.38) rotate(-71.23)"><tspan x="0" y="0">y</tspan></text>
    <text class="cls-1" transform="translate(35.16 99.3) rotate(-70.03)"><tspan x="0" y="0">e</tspan></text>
    <text class="cls-1" transform="translate(35.95 97.12) rotate(-68.97)"><tspan x="0" y="0">r</tspan></text>
    <text class="cls-1" transform="translate(36.51 95.68) rotate(-68.2)"><tspan x="0" y="0"> </tspan></text>
    <text class="cls-1" transform="translate(36.98 94.49) rotate(-67.15)"><tspan x="0" y="0">2</tspan></text>
    <text class="cls-1" transform="translate(37.97 92.14) rotate(-65.77)"><tspan x="0" y="0">4</tspan></text>
    <text class="cls-1" transform="translate(39.03 89.79) rotate(-64.71)"><tspan x="0" y="0"> </tspan></text>
    <text class="cls-1" transform="translate(39.58 88.63) rotate(-63.67)"><tspan x="0" y="0">p</tspan></text>
    <text class="cls-1" transform="translate(40.68 86.4) rotate(-62.53)"><tspan x="0" y="0">s</tspan></text>
    <text class="cls-1" transform="translate(41.47 84.88) rotate(-61.43)"><tspan x="0" y="0">u</tspan></text>
    <text class="cls-1" transform="translate(42.54 82.9) rotate(-59.91)"><tspan x="0" y="0">m</tspan></text>
    <text class="cls-1" transform="translate(44.22 80.03) rotate(-58.64)"><tspan x="0" y="0"> </tspan></text>
    <text class="cls-1" transform="translate(44.88 78.94) rotate(-57.78)"><tspan x="0" y="0">L</tspan></text>
    <text class="cls-1" transform="translate(45.85 77.39) rotate(-56.6)"><tspan x="0" y="0">o</tspan></text>
    <text class="cls-1" transform="translate(47.25 75.28) rotate(-55.47)"><tspan x="0" y="0">r</tspan></text>
    <text class="cls-1" transform="translate(48.1 74.03) rotate(-54.43)"><tspan x="0" y="0">e</tspan></text>
    <text class="cls-1" transform="translate(49.44 72.15) rotate(-52.88)"><tspan x="0" y="0">m</tspan></text>
    <text class="cls-1" transform="translate(51.43 69.53) rotate(-51.63)"><tspan x="0" y="0"> </tspan></text>
    <text class="cls-2" transform="translate(52.24 68.51) rotate(-50.92)"><tspan x="0" y="0">I</tspan></text>
    <text class="cls-2" transform="translate(53.05 67.51) rotate(-49.92)"><tspan x="0" y="0">p</tspan></text>
    <text class="cls-2" transform="translate(54.54 65.74) rotate(-48.79)"><tspan x="0" y="0">s</tspan></text>
    <text class="cls-2" transform="translate(55.76 64.34) rotate(-47.63)"><tspan x="0" y="0">u</tspan></text>
    <text class="cls-2" transform="translate(57.35 62.59) rotate(-46.03)"><tspan x="0" y="0">m</tspan></text>
    <text class="cls-2" transform="translate(59.77 60.1) rotate(-44.74)"><tspan x="0" y="0"> </tspan></text>
    <text class="cls-2" transform="translate(60.66 59.21) rotate(-43.92)"><tspan x="0" y="0">L</tspan></text>
    <text class="cls-2" transform="translate(61.9 58.02) rotate(-42.83)"><tspan x="0" y="0">o</tspan></text>
    <text class="cls-2" transform="translate(63.59 56.46) rotate(-41.76)"><tspan x="0" y="0">r</tspan></text>
    <text class="cls-2" transform="translate(64.82 55.35) rotate(-40.68)"><tspan x="0" y="0">e</tspan></text>
    <text class="cls-2" transform="translate(66.54 53.86) rotate(-39.11)"><tspan x="0" y="0">m</tspan></text>
    <text class="cls-2" transform="translate(69.22 51.7) rotate(-37.84)"><tspan x="0" y="0"> </tspan></text>
    <text class="cls-2" transform="translate(70.22 50.92) rotate(-37.15)"><tspan x="0" y="0">I</tspan></text>
    <text class="cls-2" transform="translate(71.24 50.14) rotate(-36.16)"><tspan x="0" y="0">p</tspan></text>
    <text class="cls-2" transform="translate(73.14 48.76) rotate(-35.02)"><tspan x="0" y="0">s</tspan></text>
    <text class="cls-2" transform="translate(74.64 47.7) rotate(-33.88)"><tspan x="0" y="0">u</tspan></text>
    <text class="cls-2" transform="translate(76.6 46.38) rotate(-32.3)"><tspan x="0" y="0">m</tspan></text>
    <text class="cls-2" transform="translate(79.54 44.53) rotate(-31.02)"><tspan x="0" y="0"> </tspan></text>
    <text class="cls-2" transform="translate(80.61 43.89) rotate(-30.21)"><tspan x="0" y="0">L</tspan></text>
    <text class="cls-2" transform="translate(82.1 43.02) rotate(-29.12)"><tspan x="0" y="0">o</tspan></text>
    <text class="cls-2" transform="translate(84.12 41.9) rotate(-28.05)"><tspan x="0" y="0">r</tspan></text>
    <text class="cls-2" transform="translate(85.57 41.12) rotate(-26.99)"><tspan x="0" y="0">e</tspan></text>
    <text class="cls-2" transform="translate(87.59 40.08) rotate(-25.43)"><tspan x="0" y="0">m</tspan></text>
    <text class="cls-2" transform="translate(90.73 38.6) rotate(-24.14)"><tspan x="0" y="0"> </tspan></text>
    <text class="cls-2" transform="translate(91.87 38.09) rotate(-23.46)"><tspan x="0" y="0">I</tspan></text>
    <text class="cls-2" transform="translate(93.05 37.58) rotate(-22.48)"><tspan x="0" y="0">p</tspan></text>
    <text class="cls-2" transform="translate(95.2 36.69) rotate(-21.34)"><tspan x="0" y="0">s</tspan></text>
    <text class="cls-1" transform="translate(96.93 36.01) rotate(-20.21)"><tspan x="0" y="0">u</tspan></text>
    <text class="cls-1" transform="translate(99.06 35.22) rotate(-18.7)"><tspan x="0" y="0">m</tspan></text>
    <text class="cls-1" transform="translate(102.19 34.17) rotate(-17.45)"><tspan x="0" y="0"> </tspan></text>
    <text class="cls-1" transform="translate(103.43 33.78) rotate(-16.59)"><tspan x="0" y="0">L</tspan></text>
    <text class="cls-1" transform="translate(105.19 33.25) rotate(-15.4)"><tspan x="0" y="0">o</tspan></text>
    <text class="cls-1" transform="translate(107.6 32.59) rotate(-14.3)"><tspan x="0" y="0">r</tspan></text>
    <text class="cls-1" transform="translate(109.08 32.21) rotate(-13.26)"><tspan x="0" y="0">e</tspan></text>
    <text class="cls-1" transform="translate(111.34 31.67) rotate(-11.72)"><tspan x="0" y="0">m</tspan></text>
    <text class="cls-1" transform="translate(114.55 31.01) rotate(-10.48)"><tspan x="0" y="0"> </tspan></text>
    <text class="cls-1" transform="translate(115.83 30.78) rotate(-9.78)"><tspan x="0" y="0">I</tspan></text>
    <text class="cls-1" transform="translate(117.04 30.56) rotate(-8.75)"><tspan x="0" y="0">p</tspan></text>
    <text class="cls-1" transform="translate(119.5 30.19) rotate(-7.62)"><tspan x="0" y="0">s</tspan></text>
    <text class="cls-1" transform="translate(121.19 29.96) rotate(-6.52)"><tspan x="0" y="0">u</tspan></text>
    <text class="cls-1" transform="translate(123.42 29.7) rotate(-5)"><tspan x="0" y="0">m</tspan></text>
    <text class="cls-1" transform="translate(126.7 29.42) rotate(-3.59)"><tspan x="0" y="0">L</tspan></text>
    <text class="cls-1" transform="translate(128.56 29.3) rotate(-2.38)"><tspan x="0" y="0">o</tspan></text>
    <text class="cls-1" transform="translate(131.07 29.2) rotate(-1.26)"><tspan x="0" y="0">r</tspan></text>
    <text class="cls-1" transform="translate(132.6 29.16) rotate(-.22)"><tspan x="0" y="0">e</tspan></text>
    <text class="cls-1" transform="translate(134.89 29.14) rotate(1.32)"><tspan x="0" y="0">m</tspan></text>
    <text class="cls-1" transform="translate(138.2 29.23) rotate(2.58)"><tspan x="0" y="0"> </tspan></text>
    <text class="cls-1" transform="translate(139.47 29.29) rotate(3.26)"><tspan x="0" y="0">I</tspan></text>
    <text class="cls-1" transform="translate(140.71 29.35) rotate(4.3)"><tspan x="0" y="0">p</tspan></text>
    <text class="cls-1" transform="translate(143.2 29.54) rotate(5.44)"><tspan x="0" y="0">s</tspan></text>
    <text class="cls-1" transform="translate(144.87 29.7) rotate(6.52)"><tspan x="0" y="0">u</tspan></text>
    <text class="cls-1" transform="translate(147.14 29.95) rotate(8.05)"><tspan x="0" y="0">m</tspan></text>
    <text class="cls-1" transform="translate(150.4 30.42) rotate(9.45)"><tspan x="0" y="0">L</tspan></text>
    <text class="cls-1" transform="translate(152.23 30.72) rotate(10.64)"><tspan x="0" y="0">o</tspan></text>
    <text class="cls-1" transform="translate(154.69 31.19) rotate(11.74)"><tspan x="0" y="0">r</tspan></text>
    <text class="cls-1" transform="translate(156.19 31.5) rotate(12.77)"><tspan x="0" y="0">e</tspan></text>
    <text class="cls-1" transform="translate(158.43 32) rotate(14.27)"><tspan x="0" y="0">m</tspan></text>
    <text class="cls-1" transform="translate(161.64 32.83) rotate(14.89)"><tspan x="0" y="0"> </tspan></text>
    <text class="cls-1" transform="translate(162.88 33.16) rotate(16.74)"><tspan x="0" y="0">I</tspan></text>
    <text class="cls-1" transform="translate(164.06 33.51) rotate(17.18)"><tspan x="0" y="0">p</tspan></text>
    <text class="cls-1" transform="translate(166.46 34.25) rotate(18.31)"><tspan x="0" y="0">s</tspan></text>
    <text class="cls-1" transform="translate(168.06 34.78) rotate(19.37)"><tspan x="0" y="0">u</tspan></text>
    <text class="cls-1" transform="translate(170.19 35.52) rotate(20.88)"><tspan x="0" y="0">m</tspan></text>
    <text class="cls-1" transform="translate(173.28 36.71) rotate(22.28)"><tspan x="0" y="0">L</tspan></text>
    <text class="cls-1" transform="translate(174.99 37.4) rotate(23.47)"><tspan x="0" y="0">o</tspan></text>
    <text class="cls-1" transform="translate(177.28 38.4) rotate(24.57)"><tspan x="0" y="0">r</tspan></text>
    <text class="cls-1" transform="translate(178.68 39.04) rotate(25.62)"><tspan x="0" y="0">e</tspan></text>
    <text class="cls-1" transform="translate(180.76 40.03) rotate(27.16)"><tspan x="0" y="0">m</tspan></text>
    <text class="cls-1" transform="translate(183.69 41.55) rotate(28.41)"><tspan x="0" y="0"> </tspan></text>
    <text class="cls-1" transform="translate(184.83 42.16) rotate(29.11)"><tspan x="0" y="0">I</tspan></text>
    <text class="cls-1" transform="translate(185.91 42.75) rotate(30.13)"><tspan x="0" y="0">p</tspan></text>
    <text class="cls-1" transform="translate(188.04 44) rotate(31.27)"><tspan x="0" y="0">s</tspan></text>
    <text class="cls-1" transform="translate(189.49 44.88) rotate(32.36)"><tspan x="0" y="0">u</tspan></text>
    <text class="cls-1" transform="translate(191.41 46.08) rotate(33.89)"><tspan x="0" y="0">m</tspan></text>
    <text class="cls-1" transform="translate(194.15 47.93) rotate(35.31)"><tspan x="0" y="0">L</tspan></text>
    <text class="cls-1" transform="translate(195.67 49) rotate(36.51)"><tspan x="0" y="0">o</tspan></text>
    <text class="cls-1" transform="translate(197.67 50.49) rotate(37.62)"><tspan x="0" y="0">r</tspan></text>
    <text class="cls-1" transform="translate(198.9 51.43) rotate(38.68)"><tspan x="0" y="0">e</tspan></text>
    <text class="cls-1" transform="translate(200.69 52.86) rotate(40.21)"><tspan x="0" y="0">m</tspan></text>
    <text class="cls-1" transform="translate(203.21 55) rotate(41.47)"><tspan x="0" y="0"> </tspan></text>
    <text class="cls-1" transform="translate(204.17 55.85) rotate(42.15)"><tspan x="0" y="0">I</tspan></text>
    <text class="cls-1" transform="translate(205.09 56.67) rotate(43.18)"><tspan x="0" y="0">p</tspan></text>
    <text class="cls-1" transform="translate(206.91 58.4) rotate(44.33)"><tspan x="0" y="0">s</tspan></text>
    <text class="cls-1" transform="translate(208.13 59.57) rotate(45.41)"><tspan x="0" y="0">u</tspan></text>
    <text class="cls-1" transform="translate(209.72 61.18) rotate(46.93)"><tspan x="0" y="0">m</tspan></text>
    <text class="cls-1" transform="translate(211.96 63.59) rotate(48.33)"><tspan x="0" y="0">L</tspan></text>
    <text class="cls-1" transform="translate(213.19 64.97) rotate(49.51)"><tspan x="0" y="0">o</tspan></text>
    <text class="cls-1" transform="translate(214.82 66.88) rotate(50.62)"><tspan x="0" y="0">r</tspan></text>
    <text class="cls-1" transform="translate(215.8 68.07) rotate(51.66)"><tspan x="0" y="0">e</tspan></text>
    <text class="cls-1" transform="translate(217.23 69.87) rotate(53.19)"><tspan x="0" y="0">m</tspan></text>
    <text class="cls-1" transform="translate(219.2 72.52) rotate(54.43)"><tspan x="0" y="0"> </tspan></text>
    <text class="cls-1" transform="translate(219.95 73.56) rotate(55.11)"><tspan x="0" y="0">I</tspan></text>
    <text class="cls-1" transform="translate(220.65 74.56) rotate(56.12)"><tspan x="0" y="0">p</tspan></text>
    <text class="cls-1" transform="translate(222.04 76.64) rotate(57.26)"><tspan x="0" y="0">s</tspan></text>
    <text class="cls-1" transform="translate(222.96 78.07) rotate(58.34)"><tspan x="0" y="0">u</tspan></text>
    <text class="cls-1" transform="translate(224.16 79.99) rotate(59.84)"><tspan x="0" y="0">m</tspan></text>
    <text class="cls-1" transform="translate(225.81 82.85) rotate(61.24)"><tspan x="0" y="0">L</tspan></text>
    <text class="cls-1" transform="translate(226.7 84.46) rotate(62.42)"><tspan x="0" y="0">o</tspan></text>
    <text class="cls-1" transform="translate(227.86 86.7) rotate(63.53)"><tspan x="0" y="0">r</tspan></text>
    <text class="cls-1" transform="translate(228.54 88.05) rotate(64.55)"><tspan x="0" y="0">e</tspan></text>
    <text class="cls-1" transform="translate(229.53 90.12) rotate(66.07)"><tspan x="0" y="0">m</tspan></text>
    <text class="cls-1" transform="translate(230.87 93.16) rotate(67.32)"><tspan x="0" y="0"> </tspan></text>
    <text class="cls-1" transform="translate(231.36 94.33) rotate(68)"><tspan x="0" y="0">I</tspan></text>
    <text class="cls-1" transform="translate(231.83 95.49) rotate(69.02)"><tspan x="0" y="0">p</tspan></text>
    <text class="cls-1" transform="translate(232.72 97.83) rotate(70.16)"><tspan x="0" y="0">s</tspan></text>
    <text class="cls-1" transform="translate(233.3 99.41) rotate(71.24)"><tspan x="0" y="0">u</tspan></text>
    <text class="cls-1" transform="translate(234.03 101.53) rotate(72.74)"><tspan x="0" y="0">m</tspan></text>
    <text class="cls-1" transform="translate(235 104.71) rotate(74.15)"><tspan x="0" y="0">L</tspan></text>
    <text class="cls-1" transform="translate(235.51 106.48) rotate(75.34)"><tspan x="0" y="0">o</tspan></text>
    <text class="cls-1" transform="translate(236.14 108.92) rotate(76.46)"><tspan x="0" y="0">r</tspan></text>
    <text class="cls-1" transform="translate(236.51 110.4) rotate(77.5)"><tspan x="0" y="0">e</tspan></text>
    <text class="cls-1" transform="translate(237.01 112.63) rotate(79.02)"><tspan x="0" y="0">m</tspan></text>
    <text class="cls-1" transform="translate(237.63 115.89) rotate(80.29)"><tspan x="0" y="0"> </tspan></text>
    <text class="cls-1" transform="translate(237.84 117.16) rotate(80.97)"><tspan x="0" y="0">I</tspan></text>
    <text class="cls-1" transform="translate(238.04 118.36) rotate(81.99)"><tspan x="0" y="0">p</tspan></text>
    <text class="cls-1" transform="translate(238.39 120.86) rotate(83.15)"><tspan x="0" y="0">s</tspan></text>
    <text class="cls-1" transform="translate(238.59 122.51) rotate(84.23)"><tspan x="0" y="0">u</tspan></text>
    <text class="cls-1" transform="translate(238.83 124.77) rotate(85.76)"><tspan x="0" y="0">m</tspan></text>
    <text class="cls-1" transform="translate(239.06 128.07) rotate(87.02)"><tspan x="0" y="0"> </tspan></text>
    <text class="cls-1" transform="translate(239.13 129.35) rotate(87.88)"><tspan x="0" y="0">L</tspan></text>
    <text class="cls-1" transform="translate(239.2 131.2) rotate(89.08)"><tspan x="0" y="0">o</tspan></text>
    <text class="cls-1" transform="translate(239.24 133.72) rotate(90.21)"><tspan x="0" y="0">r</tspan></text>
    <text class="cls-1" transform="translate(239.23 135.24) rotate(91.25)"><tspan x="0" y="0">e</tspan></text>
    <text class="cls-1" transform="translate(239.19 137.53) rotate(92.78)"><tspan x="0" y="0">m</tspan></text>
    <text class="cls-1" transform="translate(239.02 140.84) rotate(94.05)"><tspan x="0" y="0"> </tspan></text>
    <text class="cls-1" transform="translate(238.93 142.12) rotate(94.73)"><tspan x="0" y="0">I</tspan></text>
    <text class="cls-1" transform="translate(238.83 143.34) rotate(95.76)"><tspan x="0" y="0">p</tspan></text>
    <text class="cls-1" transform="translate(238.58 145.83) rotate(96.9)"><tspan x="0" y="0">s</tspan></text>
    <text class="cls-1" transform="translate(238.38 147.5) rotate(97.98)"><tspan x="0" y="0">u</tspan></text>
    <text class="cls-1" transform="translate(238.07 149.74) rotate(99.5)"><tspan x="0" y="0">m</tspan></text>
    <text class="cls-1" transform="translate(237.52 153) rotate(100.74)"><tspan x="0" y="0"> </tspan></text>
    <text class="cls-1" transform="translate(237.28 154.28) rotate(101.6)"><tspan x="0" y="0">L</tspan></text>
    <text class="cls-1" transform="translate(236.91 156.08) rotate(102.78)"><tspan x="0" y="0">o</tspan></text>
    <text class="cls-1" transform="translate(236.35 158.52) rotate(103.86)"><tspan x="0" y="0">r</tspan></text>
    <text class="cls-1" transform="translate(235.99 160) rotate(104.89)"><tspan x="0" y="0">e</tspan></text>
    <text class="cls-1" transform="translate(235.42 162.23) rotate(106.74)"><tspan x="0" y="0">m</tspan></text>
    <text class="cls-1" transform="translate(234.46 165.4) rotate(107.62)"><tspan x="0" y="0"> </tspan></text>
    <text class="cls-1" transform="translate(234.07 166.63) rotate(108.3)"><tspan x="0" y="0">I</tspan></text>
    <text class="cls-1" transform="translate(233.69 167.8) rotate(109.31)"><tspan x="0" y="0">p</tspan></text>
    <text class="cls-1" transform="translate(232.86 170.16) rotate(110.44)"><tspan x="0" y="0">s</tspan></text>
    <text class="cls-1" transform="translate(232.27 171.74) rotate(111.51)"><tspan x="0" y="0">u</tspan></text>
    <text class="cls-1" transform="translate(231.45 173.85) rotate(113.03)"><tspan x="0" y="0">m</tspan></text>
    <text class="cls-1" transform="translate(230.15 176.89) rotate(114.28)"><tspan x="0" y="0"> </tspan></text>
    <text class="cls-1" transform="translate(229.62 178.06) rotate(115.13)"><tspan x="0" y="0">L</tspan></text>
    <text class="cls-1" transform="translate(228.84 179.73) rotate(116.33)"><tspan x="0" y="0">o</tspan></text>
    <text class="cls-1" transform="translate(227.72 181.99) rotate(117.45)"><tspan x="0" y="0">r</tspan></text>
    <text class="cls-1" transform="translate(227.02 183.34) rotate(118.49)"><tspan x="0" y="0">e</tspan></text>
    <text class="cls-1" transform="translate(225.93 185.36) rotate(120.02)"><tspan x="0" y="0">m</tspan></text>
    <text class="cls-1" transform="translate(224.26 188.23) rotate(121.29)"><tspan x="0" y="0"> </tspan></text>
    <text class="cls-1" transform="translate(223.59 189.32) rotate(121.98)"><tspan x="0" y="0">I</tspan></text>
    <text class="cls-1" transform="translate(222.95 190.36) rotate(123)"><tspan x="0" y="0">p</tspan></text>
    <text class="cls-1" transform="translate(221.59 192.46) rotate(124.16)"><tspan x="0" y="0">s</tspan></text>
    <text class="cls-1" transform="translate(220.65 193.85) rotate(125.24)"><tspan x="0" y="0">u</tspan></text>
    <text class="cls-1" transform="translate(219.34 195.71) rotate(126.77)"><tspan x="0" y="0">m</tspan></text>
    <text class="cls-1" transform="translate(217.35 198.36) rotate(128.19)"><tspan x="0" y="0">L</tspan></text>
    <text class="cls-1" transform="translate(216.22 199.8) rotate(129.38)"><tspan x="0" y="0">o</tspan></text>
    <text class="cls-1" transform="translate(214.63 201.73) rotate(130.49)"><tspan x="0" y="0">r</tspan></text>
    <text class="cls-1" transform="translate(213.63 202.91) rotate(131.54)"><tspan x="0" y="0">e</tspan></text>
    <text class="cls-1" transform="translate(212.11 204.63) rotate(133.08)"><tspan x="0" y="0">m</tspan></text>
    <text class="cls-1" transform="translate(209.85 207.04) rotate(134.33)"><tspan x="0" y="0"> </tspan></text>
    <text class="cls-1" transform="translate(208.94 207.96) rotate(135.02)"><tspan x="0" y="0">I</tspan></text>
    <text class="cls-1" transform="translate(208.08 208.83) rotate(136.04)"><tspan x="0" y="0">p</tspan></text>
    <text class="cls-1" transform="translate(206.28 210.57) rotate(137.19)"><tspan x="0" y="0">s</tspan></text>
    <text class="cls-1" transform="translate(205.04 211.72) rotate(138.26)"><tspan x="0" y="0">u</tspan></text>
    <text class="cls-1" transform="translate(203.37 213.22) rotate(139.77)"><tspan x="0" y="0">m</tspan></text>
    <text class="cls-1" transform="translate(200.83 215.35) rotate(141.18)"><tspan x="0" y="0">L</tspan></text>
    <text class="cls-1" transform="translate(199.38 216.52) rotate(142.37)"><tspan x="0" y="0">o</tspan></text>
    <text class="cls-1" transform="translate(197.41 218.04) rotate(143.46)"><tspan x="0" y="0">r</tspan></text>
    <text class="cls-1" transform="translate(196.18 218.96) rotate(144.5)"><tspan x="0" y="0">e</tspan></text>
    <text class="cls-1" transform="translate(194.3 220.31) rotate(146.03)"><tspan x="0" y="0">m</tspan></text>
    <text class="cls-1" transform="translate(191.56 222.14) rotate(147.27)"><tspan x="0" y="0"> </tspan></text>
    <text class="cls-1" transform="translate(190.47 222.84) rotate(147.95)"><tspan x="0" y="0">I</tspan></text>
    <text class="cls-1" transform="translate(189.45 223.48) rotate(148.96)"><tspan x="0" y="0">p</tspan></text>
    <text class="cls-1" transform="translate(187.29 224.78) rotate(150.1)"><tspan x="0" y="0">s</tspan></text>
    <text class="cls-1" transform="translate(185.82 225.62) rotate(151.18)"><tspan x="0" y="0">u</tspan></text>
    <text class="cls-1" transform="translate(183.85 226.72) rotate(152.68)"><tspan x="0" y="0">m</tspan></text>
    <text class="cls-1" transform="translate(180.9 228.23) rotate(153.93)"><tspan x="0" y="0"> </tspan></text>
    <text class="cls-1" transform="translate(179.77 228.79) rotate(154.62)"><tspan x="0" y="0"> </tspan></text>
    <text class="cls-1" transform="translate(178.59 229.34) rotate(155.32)"><tspan x="0" y="0"> </tspan></text>
    <text class="cls-1" transform="translate(177.42 229.89) rotate(156.18)"><tspan x="0" y="0">L</tspan></text>
    <text class="cls-1" transform="translate(175.74 230.63) rotate(157.35)"><tspan x="0" y="0">o</tspan></text>
    <text class="cls-1" transform="translate(173.42 231.59) rotate(158.46)"><tspan x="0" y="0">r</tspan></text>
    <text class="cls-1" transform="translate(172 232.16) rotate(159.5)"><tspan x="0" y="0">e</tspan></text>
    <text class="cls-1" transform="translate(169.84 232.97) rotate(161.02)"><tspan x="0" y="0">m</tspan></text>
    <text class="cls-1" transform="translate(166.71 234.04) rotate(162.27)"><tspan x="0" y="0"> </tspan></text>
    <text class="cls-1" transform="translate(165.48 234.43) rotate(162.96)"><tspan x="0" y="0">I</tspan></text>
    <text class="cls-1" transform="translate(164.32 234.79) rotate(163.97)"><tspan x="0" y="0">p</tspan></text>
    <text class="cls-1" transform="translate(161.91 235.48) rotate(165.12)"><tspan x="0" y="0">s</tspan></text>
    <text class="cls-1" transform="translate(160.28 235.92) rotate(166.2)"><tspan x="0" y="0">u</tspan></text>
    <text class="cls-1" transform="translate(158.09 236.46) rotate(167.72)"><tspan x="0" y="0">m</tspan></text>
    <text class="cls-1" transform="translate(154.85 237.16) rotate(169.13)"><tspan x="0" y="0">L</tspan></text>
    <text class="cls-1" transform="translate(153.04 237.51) rotate(170.32)"><tspan x="0" y="0">o</tspan></text>
    <text class="cls-1" transform="translate(150.57 237.93) rotate(171.43)"><tspan x="0" y="0">r</tspan></text>
    <text class="cls-1" transform="translate(149.07 238.16) rotate(172.47)"><tspan x="0" y="0">e</tspan></text>
    <text class="cls-1" transform="translate(146.79 238.47) rotate(174.01)"><tspan x="0" y="0">m</tspan></text>
    <text class="cls-1" transform="translate(143.49 238.8) rotate(175.28)"><tspan x="0" y="0"> </tspan></text>
    <text class="cls-1" transform="translate(142.2 238.91) rotate(175.97)"><tspan x="0" y="0">I</tspan></text>
    <text class="cls-1" transform="translate(140.99 239) rotate(176.99)"><tspan x="0" y="0">p</tspan></text>
    <text class="cls-1" transform="translate(138.5 239.12) rotate(178.14)"><tspan x="0" y="0">s</tspan></text>
    <text class="cls-1" transform="translate(136.81 239.18) rotate(179.23)"><tspan x="0" y="0">u</tspan></text>
    <text class="cls-1" transform="translate(134.53 239.22) rotate(-179.24)"><tspan x="0" y="0">m</tspan></text>
    <text class="cls-1" transform="translate(131.25 239.17) rotate(-177.83)"><tspan x="0" y="0">L</tspan></text>
    <text class="cls-1" transform="translate(129.38 239.1) rotate(-176.62)"><tspan x="0" y="0">o</tspan></text>
    <text class="cls-1" transform="translate(126.89 238.95) rotate(-175.51)"><tspan x="0" y="0">r</tspan></text>
    <text class="cls-1" transform="translate(125.38 238.84) rotate(-174.42)"><tspan x="0" y="0">o</tspan></text>
    <text class="cls-1" transform="translate(122.86 238.59) rotate(-173.3)"><tspan x="0" y="0">r</tspan></text>
    <text class="cls-1" transform="translate(121.35 238.41) rotate(-172.26)"><tspan x="0" y="0">e</tspan></text>
    <text class="cls-1" transform="translate(119.06 238.11) rotate(-170.73)"><tspan x="0" y="0">m</tspan></text>
    <text class="cls-1" transform="translate(115.8 237.57) rotate(-169.49)"><tspan x="0" y="0"> </tspan></text>
    <text class="cls-1" transform="translate(114.54 237.33) rotate(-168.81)"><tspan x="0" y="0">I</tspan></text>
    <text class="cls-1" transform="translate(113.35 237.1) rotate(-167.8)"><tspan x="0" y="0">p</tspan></text>
    <text class="cls-1" transform="translate(110.9 236.57) rotate(-166.67)"><tspan x="0" y="0">s</tspan></text>
    <text class="cls-1" transform="translate(109.25 236.18) rotate(-165.6)"><tspan x="0" y="0">u</tspan></text>
    <text class="cls-1" transform="translate(107.06 235.65) rotate(-163.26)"><tspan x="0" y="0">m</tspan></text>
    <text class="cls-1" transform="translate(103.88 234.71) rotate(-162.73)"><tspan x="0" y="0">L</tspan></text>
    <text class="cls-1" transform="translate(102.1 234.16) rotate(-161.56)"><tspan x="0" y="0">o</tspan></text>
    <text class="cls-1" transform="translate(99.74 233.37) rotate(-160.47)"><tspan x="0" y="0">r</tspan></text>
    <text class="cls-1" transform="translate(98.28 232.86) rotate(-159.43)"><tspan x="0" y="0">e</tspan></text>
    <text class="cls-1" transform="translate(96.14 232.06) rotate(-157.91)"><tspan x="0" y="0">m</tspan></text>
    <text class="cls-1" transform="translate(93.09 230.81) rotate(-156.67)"><tspan x="0" y="0"> </tspan></text>
    <text class="cls-1" transform="translate(91.89 230.29) rotate(-155.97)"><tspan x="0" y="0">I</tspan></text>
    <text class="cls-1" transform="translate(90.78 229.8) rotate(-154.96)"><tspan x="0" y="0">p</tspan></text>
    <text class="cls-1" transform="translate(88.51 228.74) rotate(-153.81)"><tspan x="0" y="0">s</tspan></text>
    <text class="cls-1" transform="translate(86.99 228) rotate(-152.72)"><tspan x="0" y="0">u</tspan></text>
    <text class="cls-1" transform="translate(84.96 226.96) rotate(-151.19)"><tspan x="0" y="0">m</tspan></text>
    <text class="cls-1" transform="translate(82.09 225.36) rotate(-149.93)"><tspan x="0" y="0"> </tspan></text>
    <text class="cls-1" transform="translate(80.96 224.71) rotate(-149.22)"><tspan x="0" y="0"> </tspan></text>
    <text class="cls-1" transform="translate(79.87 224.06) rotate(-148.52)"><tspan x="0" y="0"> </tspan></text>
    <text class="cls-1" transform="translate(78.78 223.39) rotate(-147.66)"><tspan x="0" y="0">L</tspan></text>
    <text class="cls-1" transform="translate(77.21 222.41) rotate(-146.46)"><tspan x="0" y="0">o</tspan></text>
    <text class="cls-1" transform="translate(75.12 221.02) rotate(-145.34)"><tspan x="0" y="0">r</tspan></text>
    <text class="cls-1" transform="translate(73.86 220.15) rotate(-144.29)"><tspan x="0" y="0">e</tspan></text>
    <text class="cls-1" transform="translate(71.98 218.81) rotate(-142.75)"><tspan x="0" y="0">m</tspan></text>
    <text class="cls-1" transform="translate(69.37 216.81) rotate(-141.5)"><tspan x="0" y="0"> </tspan></text>
    <text class="cls-1" transform="translate(68.36 216) rotate(-140.81)"><tspan x="0" y="0">I</tspan></text>
    <text class="cls-1" transform="translate(67.41 215.24) rotate(-139.79)"><tspan x="0" y="0">p</tspan></text>
    <text class="cls-1" transform="translate(65.49 213.61) rotate(-138.63)"><tspan x="0" y="0">s</tspan></text>
    <text class="cls-1" transform="translate(64.23 212.5) rotate(-137.55)"><tspan x="0" y="0">u</tspan></text>
    <text class="cls-1" transform="translate(62.54 210.97) rotate(-136.02)"><tspan x="0" y="0">m</tspan></text>
    <text class="cls-1" transform="translate(60.18 208.68) rotate(-134.62)"><tspan x="0" y="0">L</tspan></text>
    <text class="cls-1" transform="translate(58.88 207.37) rotate(-133.43)"><tspan x="0" y="0">o</tspan></text>
    <text class="cls-1" transform="translate(57.15 205.54) rotate(-132.32)"><tspan x="0" y="0">r</tspan></text>
    <text class="cls-1" transform="translate(56.13 204.41) rotate(-131.28)"><tspan x="0" y="0">e</tspan></text>
    <text class="cls-1" transform="translate(54.6 202.69) rotate(-129.75)"><tspan x="0" y="0">m</tspan></text>
    <text class="cls-1" transform="translate(52.5 200.14) rotate(-128.51)"><tspan x="0" y="0"> </tspan></text>
    <text class="cls-1" transform="translate(51.69 199.13) rotate(-127.82)"><tspan x="0" y="0">I</tspan></text>
    <text class="cls-1" transform="translate(50.94 198.17) rotate(-126.81)"><tspan x="0" y="0">p</tspan></text>
    <text class="cls-1" transform="translate(49.45 196.17) rotate(-125.68)"><tspan x="0" y="0">s</tspan></text>
    <text class="cls-1" transform="translate(48.46 194.79) rotate(-124.6)"><tspan x="0" y="0">u</tspan></text>
    <text class="cls-1" transform="translate(47.17 192.94) rotate(-123.09)"><tspan x="0" y="0">m</tspan></text>
    <text class="cls-1" transform="translate(45.37 190.16) rotate(-121.69)"><tspan x="0" y="0">L</tspan></text>
    <text class="cls-1" transform="translate(44.39 188.59) rotate(-120.51)"><tspan x="0" y="0">o</tspan></text>
    <text class="cls-1" transform="translate(43.13 186.42) rotate(-119.41)"><tspan x="0" y="0">r</tspan></text>
    <text class="cls-1" transform="translate(42.37 185.09) rotate(-118.37)"><tspan x="0" y="0">e</tspan></text>
    <text class="cls-1" transform="translate(41.27 183.08) rotate(-116.86)"><tspan x="0" y="0">m</tspan></text>
    <text class="cls-1" transform="translate(39.79 180.13) rotate(-115.62)"><tspan x="0" y="0"> </tspan></text>
    <text class="cls-1" transform="translate(39.23 178.97) rotate(-114.63)"><tspan x="0" y="0">E</tspan></text>
    <text class="cls-1" transform="translate(38.25 176.84) rotate(-113.37)"><tspan x="0" y="0">n</tspan></text>
    <text class="cls-1" transform="translate(37.34 174.73) rotate(-112.07)"><tspan x="0" y="0">d</tspan></text>
  </g>
</svg>