<?xml version="1.0" encoding="UTF-8"?>
<svg id="Layer_1" data-name="Layer 1" xmlns="http://www.w3.org/2000/svg" viewBox="0 0 150 150">
  <defs>
    <style>
      .cls-1 {
        fill: #231f20;
        font-family: MyriadPro-Regular, 'Myriad Pro';
        font-size: 2px;
      }
    </style>
  </defs>
  <text class="cls-1" transform="translate(74.98 37.5) rotate(.93)"><tspan x="0" y="0">L</tspan></text>
  <text class="cls-1" transform="translate(75.9 37.51) rotate(2.18)"><tspan x="0" y="0">o</tspan></text>
  <text class="cls-1" transform="translate(76.99 37.55) rotate(3.49)"><tspan x="0" y="0">r</tspan></text>
  <text class="cls-1" transform="translate(77.62 37.59) rotate(4.71)"><tspan x="0" y="0">e</tspan></text>
  <text class="cls-1" transform="translate(78.6 37.66) rotate(6.7)"><tspan x="0" y="0">m</tspan></text>
  <text class="cls-1" transform="translate(80.24 37.86) rotate(8.28)"><tspan x="0" y="0"> </tspan></text>
  <text class="cls-1" transform="translate(80.65 37.92) rotate(8.96)"><tspan x="0" y="0">i</tspan></text>
  <text class="cls-1" transform="translate(81.11 37.99) rotate(10.17)"><tspan x="0" y="0">p</tspan></text>
  <text class="cls-1" transform="translate(82.23 38.19) rotate(11.65)"><tspan x="0" y="0">s</tspan></text>
  <text class="cls-1" transform="translate(82.99 38.35) rotate(13.09)"><tspan x="0" y="0">u</tspan></text>
  <text class="cls-1" transform="translate(84.04 38.59) rotate(15.19)"><tspan x="0" y="0">m</tspan></text>
  <text class="cls-1" transform="translate(85.65 39.03) rotate(16.79)"><tspan x="0" y="0"> </tspan></text>
  <text class="cls-1" transform="translate(86.05 39.15) rotate(17.99)"><tspan x="0" y="0">d</tspan></text>
  <text class="cls-1" transform="translate(87.11 39.49) rotate(19.67)"><tspan x="0" y="0">o</tspan></text>
  <text class="cls-1" transform="translate(88.13 39.86) rotate(20.86)"><tspan x="0" y="0">l</tspan></text>
  <text class="cls-1" transform="translate(88.56 40.02) rotate(22.05)"><tspan x="0" y="0">o</tspan></text>
  <text class="cls-1" transform="translate(89.56 40.43) rotate(23.37)"><tspan x="0" y="0">r</tspan></text>
  <text class="cls-1" transform="translate(90.16 40.69) rotate(24.2)"><tspan x="0" y="0"> </tspan></text>
  <text class="cls-1" transform="translate(90.54 40.86) rotate(25.12)"><tspan x="0" y="0">s</tspan></text>
  <text class="cls-1" transform="translate(91.25 41.19) rotate(26.08)"><tspan x="0" y="0">i</tspan></text>
  <text class="cls-1" transform="translate(91.68 41.4) rotate(26.95)"><tspan x="0" y="0">t</tspan></text>
  <text class="cls-1" transform="translate(92.26 41.7) rotate(27.77)"><tspan x="0" y="0"> </tspan></text>
  <text class="cls-1" transform="translate(92.63 41.89) rotate(28.82)"><tspan x="0" y="0">a</tspan></text>
  <text class="cls-1" transform="translate(93.46 42.34) rotate(30.81)"><tspan x="0" y="0">m</tspan></text>
  <text class="cls-1" transform="translate(94.89 43.2) rotate(32.84)"><tspan x="0" y="0">e</tspan></text>
  <text class="cls-1" transform="translate(95.72 43.73) rotate(34.08)"><tspan x="0" y="0">t</tspan></text>
  <text class="cls-1" transform="translate(96.26 44.11) rotate(34.9)"><tspan x="0" y="0">,</tspan></text>
  <text class="cls-1" transform="translate(96.58 44.33) rotate(35.5)"><tspan x="0" y="0"> </tspan></text>
  <text class="cls-1" transform="translate(96.94 44.58) rotate(36.54)"><tspan x="0" y="0">c</tspan></text>
  <text class="cls-1" transform="translate(97.63 45.09) rotate(37.99)"><tspan x="0" y="0">o</tspan></text>
  <text class="cls-1" transform="translate(98.49 45.76) rotate(39.66)"><tspan x="0" y="0">n</tspan></text>
  <text class="cls-1" transform="translate(99.33 46.46) rotate(41.07)"><tspan x="0" y="0">s</tspan></text>
  <text class="cls-1" transform="translate(99.93 46.98) rotate(42.44)"><tspan x="0" y="0">e</tspan></text>
  <text class="cls-1" transform="translate(100.65 47.64) rotate(43.85)"><tspan x="0" y="0">c</tspan></text>
  <text class="cls-1" transform="translate(101.32 48.29) rotate(45.09)"><tspan x="0" y="0">t</tspan></text>
  <text class="cls-1" transform="translate(101.76 48.72) rotate(46.28)"><tspan x="0" y="0">e</tspan></text>
  <text class="cls-1" transform="translate(102.46 49.46) rotate(47.56)"><tspan x="0" y="0">t</tspan></text>
  <text class="cls-1" transform="translate(102.9 49.94) rotate(48.89)"><tspan x="0" y="0">u</tspan></text>
  <text class="cls-1" transform="translate(103.62 50.76) rotate(50.47)"><tspan x="0" y="0">e</tspan></text>
  <text class="cls-1" transform="translate(104.25 51.53) rotate(51.71)"><tspan x="0" y="0">r</tspan></text>
  <text class="cls-1" transform="translate(104.65 52.04) rotate(52.52)"><tspan x="0" y="0"> </tspan></text>
  <text class="cls-1" transform="translate(104.9 52.36) rotate(53.55)"><tspan x="0" y="0">a</tspan></text>
  <text class="cls-1" transform="translate(105.47 53.13) rotate(55.14)"><tspan x="0" y="0">d</tspan></text>
  <text class="cls-1" transform="translate(106.11 54.05) rotate(56.35)"><tspan x="0" y="0">i</tspan></text>
  <text class="cls-1" transform="translate(106.36 54.43) rotate(57.55)"><tspan x="0" y="0">p</tspan></text>
  <text class="cls-1" transform="translate(106.96 55.38) rotate(58.76)"><tspan x="0" y="0">i</tspan></text>
  <text class="cls-1" transform="translate(107.2 55.77) rotate(59.71)"><tspan x="0" y="0">s</tspan></text>
  <text class="cls-1" transform="translate(107.61 56.46) rotate(61.01)"><tspan x="0" y="0">c</tspan></text>
  <text class="cls-1" transform="translate(108.02 57.22) rotate(62.01)"><tspan x="0" y="0">i</tspan></text>
  <text class="cls-1" transform="translate(108.25 57.64) rotate(63.23)"><tspan x="0" y="0">n</tspan></text>
  <text class="cls-1" transform="translate(108.75 58.62) rotate(64.93)"><tspan x="0" y="0">g</tspan></text>
  <text class="cls-1" transform="translate(109.22 59.63) rotate(66.11)"><tspan x="0" y="0"> </tspan></text>
  <text class="cls-1" transform="translate(109.38 59.99) rotate(67.16)"><tspan x="0" y="0">e</tspan></text>
  <text class="cls-1" transform="translate(109.77 60.92) rotate(68.3)"><tspan x="0" y="0">l</tspan></text>
  <text class="cls-1" transform="translate(109.94 61.35) rotate(69.01)"><tspan x="0" y="0">i</tspan></text>
  <text class="cls-1" transform="translate(110.11 61.8) rotate(69.89)"><tspan x="0" y="0">t</tspan></text>
  <text class="cls-1" transform="translate(110.33 62.4) rotate(70.68)"><tspan x="0" y="0">,</tspan></text>
  <text class="cls-1" transform="translate(110.46 62.77) rotate(71.3)"><tspan x="0" y="0"> </tspan></text>
  <text class="cls-1" transform="translate(110.6 63.17) rotate(72.24)"><tspan x="0" y="0">s</tspan></text>
  <text class="cls-1" transform="translate(110.84 63.92) rotate(73.61)"><tspan x="0" y="0">e</tspan></text>
  <text class="cls-1" transform="translate(111.12 64.86) rotate(75.21)"><tspan x="0" y="0">d</tspan></text>
  <text class="cls-1" transform="translate(111.4 65.96) rotate(76.42)"><tspan x="0" y="0"> </tspan></text>
  <text class="cls-1" transform="translate(111.5 66.35) rotate(77.58)"><tspan x="0" y="0">d</tspan></text>
  <text class="cls-1" transform="translate(111.74 67.44) rotate(78.79)"><tspan x="0" y="0">i</tspan></text>
  <text class="cls-1" transform="translate(111.83 67.92) rotate(79.92)"><tspan x="0" y="0">a</tspan></text>
  <text class="cls-1" transform="translate(112.01 68.84) rotate(81.9)"><tspan x="0" y="0">m</tspan></text>
  <text class="cls-1" transform="translate(112.23 70.48) rotate(83.48)"><tspan x="0" y="0"> </tspan></text>
  <text class="cls-1" transform="translate(112.28 70.88) rotate(84.61)"><tspan x="0" y="0">n</tspan></text>
  <text class="cls-1" transform="translate(112.38 71.98) rotate(86.28)"><tspan x="0" y="0">o</tspan></text>
  <text class="cls-1" transform="translate(112.46 73.09) rotate(87.96)"><tspan x="0" y="0">n</tspan></text>
  <text class="cls-1" transform="translate(112.49 74.18) rotate(89.07)"><tspan x="0" y="0">u</tspan></text>
  <text class="cls-1" transform="translate(112.51 75.26) rotate(91.63)"><tspan x="0" y="0">m</tspan></text>
  <text class="cls-1" transform="translate(112.46 76.91) rotate(94.13)"><tspan x="0" y="0">m</tspan></text>
  <text class="cls-1" transform="translate(112.34 78.54) rotate(96.07)"><tspan x="0" y="0">y</tspan></text>
  <text class="cls-1" transform="translate(112.24 79.45) rotate(97.06)"><tspan x="0" y="0"> </tspan></text>
  <text class="cls-1" transform="translate(112.19 79.87) rotate(98.24)"><tspan x="0" y="0">n</tspan></text>
  <text class="cls-1" transform="translate(112.03 80.97) rotate(99.45)"><tspan x="0" y="0">i</tspan></text>
  <text class="cls-1" transform="translate(111.96 81.43) rotate(100.67)"><tspan x="0" y="0">b</tspan></text>
  <text class="cls-1" transform="translate(111.75 82.53) rotate(102.37)"><tspan x="0" y="0">h</tspan></text>
  <text class="cls-1" transform="translate(111.51 83.6) rotate(103.53)"><tspan x="0" y="0"> </tspan></text>
  <text class="cls-1" transform="translate(111.42 84) rotate(104.61)"><tspan x="0" y="0">e</tspan></text>
  <text class="cls-1" transform="translate(111.17 84.96) rotate(106.21)"><tspan x="0" y="0">u</tspan></text>
  <text class="cls-1" transform="translate(110.86 86.01) rotate(107.41)"><tspan x="0" y="0">i</tspan></text>
  <text class="cls-1" transform="translate(110.72 86.46) rotate(108.38)"><tspan x="0" y="0">s</tspan></text>
  <text class="cls-1" transform="translate(110.48 87.19) rotate(110.24)"><tspan x="0" y="0">m</tspan></text>
  <text class="cls-1" transform="translate(109.9 88.75) rotate(112.35)"><tspan x="0" y="0">o</tspan></text>
  <text class="cls-1" transform="translate(109.49 89.76) rotate(114.06)"><tspan x="0" y="0">d</tspan></text>
  <text class="cls-1" transform="translate(109.04 90.76) rotate(115.2)"><tspan x="0" y="0"> </tspan></text>
  <text class="cls-1" transform="translate(108.86 91.14) rotate(116.03)"><tspan x="0" y="0">t</tspan></text>
  <text class="cls-1" transform="translate(108.57 91.74) rotate(116.9)"><tspan x="0" y="0">i</tspan></text>
  <text class="cls-1" transform="translate(108.36 92.16) rotate(118.12)"><tspan x="0" y="0">n</tspan></text>
  <text class="cls-1" transform="translate(107.84 93.13) rotate(119.64)"><tspan x="0" y="0">c</tspan></text>
  <text class="cls-1" transform="translate(107.41 93.88) rotate(120.63)"><tspan x="0" y="0">i</tspan></text>
  <text class="cls-1" transform="translate(107.18 94.28) rotate(121.85)"><tspan x="0" y="0">d</tspan></text>
  <text class="cls-1" transform="translate(106.59 95.23) rotate(123.52)"><tspan x="0" y="0">u</tspan></text>
  <text class="cls-1" transform="translate(105.98 96.14) rotate(125.2)"><tspan x="0" y="0">n</tspan></text>
  <text class="cls-1" transform="translate(105.35 97.04) rotate(126.53)"><tspan x="0" y="0">t</tspan></text>
  <text class="cls-1" transform="translate(104.96 97.56) rotate(127.35)"><tspan x="0" y="0"> </tspan></text>
  <text class="cls-1" transform="translate(104.71 97.9) rotate(128.5)"><tspan x="0" y="0">u</tspan></text>
  <text class="cls-1" transform="translate(104.02 98.75) rotate(129.83)"><tspan x="0" y="0">t</tspan></text>
  <text class="cls-1" transform="translate(103.6 99.25) rotate(130.64)"><tspan x="0" y="0"> </tspan></text>
  <text class="cls-1" transform="translate(103.33 99.58) rotate(131.33)"><tspan x="0" y="0">l</tspan></text>
  <text class="cls-1" transform="translate(103.03 99.92) rotate(132.4)"><tspan x="0" y="0">a</tspan></text>
  <text class="cls-1" transform="translate(102.39 100.62) rotate(133.93)"><tspan x="0" y="0">o</tspan></text>
  <text class="cls-1" transform="translate(101.63 101.41) rotate(135.26)"><tspan x="0" y="0">r</tspan></text>
  <text class="cls-1" transform="translate(101.17 101.86) rotate(136.49)"><tspan x="0" y="0">e</tspan></text>
  <text class="cls-1" transform="translate(100.46 102.54) rotate(137.99)"><tspan x="0" y="0">e</tspan></text>
  <text class="cls-1" transform="translate(99.73 103.2) rotate(139.23)"><tspan x="0" y="0">t</tspan></text>
  <text class="cls-1" transform="translate(99.23 103.62) rotate(140.04)"><tspan x="0" y="0"> </tspan></text>
  <text class="cls-1" transform="translate(98.9 103.9) rotate(141.24)"><tspan x="0" y="0">d</tspan></text>
  <text class="cls-1" transform="translate(98.03 104.6) rotate(142.91)"><tspan x="0" y="0">o</tspan></text>
  <text class="cls-1" transform="translate(97.17 105.25) rotate(144.07)"><tspan x="0" y="0">l</tspan></text>
  <text class="cls-1" transform="translate(96.79 105.53) rotate(145.27)"><tspan x="0" y="0">o</tspan></text>
  <text class="cls-1" transform="translate(95.91 106.14) rotate(146.56)"><tspan x="0" y="0">r</tspan></text>
  <text class="cls-1" transform="translate(95.37 106.49) rotate(147.81)"><tspan x="0" y="0">e</tspan></text>
  <text class="cls-1" transform="translate(94.53 107.02) rotate(148.89)"><tspan x="0" y="0"> </tspan></text>
  <text class="cls-1" transform="translate(94.19 107.23) rotate(150.45)"><tspan x="0" y="0">m</tspan></text>
  <text class="cls-1" transform="translate(92.75 108.04) rotate(152.44)"><tspan x="0" y="0">a</tspan></text>
  <text class="cls-1" transform="translate(91.91 108.48) rotate(154.01)"><tspan x="0" y="0">g</tspan></text>
  <text class="cls-1" transform="translate(90.91 108.97) rotate(155.71)"><tspan x="0" y="0">n</tspan></text>
  <text class="cls-1" transform="translate(89.91 109.42) rotate(157.29)"><tspan x="0" y="0">a</tspan></text>
  <text class="cls-1" transform="translate(89.03 109.79) rotate(158.35)"><tspan x="0" y="0"> </tspan></text>
  <text class="cls-1" transform="translate(88.64 109.94) rotate(159.41)"><tspan x="0" y="0">a</tspan></text>
  <text class="cls-1" transform="translate(87.74 110.28) rotate(160.51)"><tspan x="0" y="0">l</tspan></text>
  <text class="cls-1" transform="translate(87.3 110.44) rotate(161.22)"><tspan x="0" y="0">i</tspan></text>
  <text class="cls-1" transform="translate(86.88 110.58) rotate(162.41)"><tspan x="0" y="0">q</tspan></text>
  <text class="cls-1" transform="translate(85.82 110.92) rotate(164.1)"><tspan x="0" y="0">u</tspan></text>
  <text class="cls-1" transform="translate(84.75 111.22) rotate(165.71)"><tspan x="0" y="0">a</tspan></text>
  <text class="cls-1" transform="translate(83.83 111.46) rotate(167.72)"><tspan x="0" y="0">m</tspan></text>
  <text class="cls-1" transform="translate(82.22 111.81) rotate(169.29)"><tspan x="0" y="0"> </tspan></text>
  <text class="cls-1" transform="translate(81.81 111.89) rotate(170.37)"><tspan x="0" y="0">e</tspan></text>
  <text class="cls-1" transform="translate(80.83 112.05) rotate(171.63)"><tspan x="0" y="0">r</tspan></text>
  <text class="cls-1" transform="translate(80.2 112.15) rotate(172.85)"><tspan x="0" y="0">a</tspan></text>
  <text class="cls-1" transform="translate(79.25 112.26) rotate(174.06)"><tspan x="0" y="0">t</tspan></text>
  <text class="cls-1" transform="translate(78.6 112.33) rotate(174.88)"><tspan x="0" y="0"> </tspan></text>
  <text class="cls-1" transform="translate(78.19 112.37) rotate(175.92)"><tspan x="0" y="0">v</tspan></text>
  <text class="cls-1" transform="translate(77.27 112.44) rotate(177.41)"><tspan x="0" y="0">o</tspan></text>
  <text class="cls-1" transform="translate(76.17 112.48) rotate(178.6)"><tspan x="0" y="0">l</tspan></text>
  <text class="cls-1" transform="translate(75.7 112.49) rotate(179.07)"><tspan x="0" y="0">u</tspan></text>
  <text class="cls-1" transform="translate(74.64 112.5) rotate(-178.96)"><tspan x="0" y="0">t</tspan></text>
  <text class="cls-1" transform="translate(73.97 112.49) rotate(-177.6)"><tspan x="0" y="0">p</tspan></text>
  <text class="cls-1" transform="translate(72.83 112.44) rotate(-176.01)"><tspan x="0" y="0">a</tspan></text>
  <text class="cls-1" transform="translate(71.91 112.38) rotate(-174.83)"><tspan x="0" y="0">t</tspan></text>
  <text class="cls-1" transform="translate(71.25 112.32) rotate(-174.02)"><tspan x="0" y="0">.</tspan></text>
  <text class="cls-1" transform="translate(70.85 112.27) rotate(-173.39)"><tspan x="0" y="0"> </tspan></text>
  <text class="cls-1" transform="translate(70.43 112.23) rotate(-172.08)"><tspan x="0" y="0">U</tspan></text>
  <text class="cls-1" transform="translate(69.15 112.05) rotate(-170.59)"><tspan x="0" y="0">t</tspan></text>
  <text class="cls-1" transform="translate(68.51 111.94) rotate(-169.78)"><tspan x="0" y="0"> </tspan></text>
  <text class="cls-1" transform="translate(68.11 111.88) rotate(-168.34)"><tspan x="0" y="0">w</tspan></text>
  <text class="cls-1" transform="translate(66.67 111.57) rotate(-166.87)"><tspan x="0" y="0">i</tspan></text>
  <text class="cls-1" transform="translate(66.21 111.47) rotate(-165.88)"><tspan x="0" y="0">s</tspan></text>
  <text class="cls-1" transform="translate(65.46 111.28) rotate(-164.94)"><tspan x="0" y="0">i</tspan></text>
  <text class="cls-1" transform="translate(65.02 111.16) rotate(-164.28)"><tspan x="0" y="0"> </tspan></text>
  <text class="cls-1" transform="translate(64.6 111.04) rotate(-163.17)"><tspan x="0" y="0">e</tspan></text>
  <text class="cls-1" transform="translate(63.66 110.76) rotate(-161.57)"><tspan x="0" y="0">n</tspan></text>
  <text class="cls-1" transform="translate(62.62 110.41) rotate(-160.38)"><tspan x="0" y="0">i</tspan></text>
  <text class="cls-1" transform="translate(62.19 110.26) rotate(-158.74)"><tspan x="0" y="0">m</tspan></text>
  <text class="cls-1" transform="translate(60.65 109.66) rotate(-157.16)"><tspan x="0" y="0"> </tspan></text>
  <text class="cls-1" transform="translate(60.27 109.5) rotate(-156.11)"><tspan x="0" y="0">a</tspan></text>
  <text class="cls-1" transform="translate(59.38 109.11) rotate(-154.49)"><tspan x="0" y="0">d</tspan></text>
  <text class="cls-1" transform="translate(58.37 108.62) rotate(-153.32)"><tspan x="0" y="0"> </tspan></text>
  <text class="cls-1" transform="translate(58.01 108.45) rotate(-151.75)"><tspan x="0" y="0">m</tspan></text>
  <text class="cls-1" transform="translate(56.54 107.65) rotate(-150.1)"><tspan x="0" y="0">i</tspan></text>
  <text class="cls-1" transform="translate(56.15 107.43) rotate(-148.93)"><tspan x="0" y="0">n</tspan></text>
  <text class="cls-1" transform="translate(55.2 106.85) rotate(-147.72)"><tspan x="0" y="0">i</tspan></text>
  <text class="cls-1" transform="translate(54.82 106.62) rotate(-146.13)"><tspan x="0" y="0">m</tspan></text>
  <text class="cls-1" transform="translate(53.44 105.69) rotate(-144.54)"><tspan x="0" y="0"> </tspan></text>
  <text class="cls-1" transform="translate(53.11 105.45) rotate(-143.51)"><tspan x="0" y="0">v</tspan></text>
  <text class="cls-1" transform="translate(52.35 104.9) rotate(-142.05)"><tspan x="0" y="0">e</tspan></text>
  <text class="cls-1" transform="translate(51.57 104.29) rotate(-140.47)"><tspan x="0" y="0">n</tspan></text>
  <text class="cls-1" transform="translate(50.72 103.58) rotate(-139.27)"><tspan x="0" y="0">i</tspan></text>
  <text class="cls-1" transform="translate(50.38 103.29) rotate(-138.2)"><tspan x="0" y="0">a</tspan></text>
  <text class="cls-1" transform="translate(49.67 102.66) rotate(-136.24)"><tspan x="0" y="0">m</tspan></text>
  <text class="cls-1" transform="translate(48.47 101.5) rotate(-134.66)"><tspan x="0" y="0">,</tspan></text>
  <text class="cls-1" transform="translate(48.18 101.21) rotate(-134.02)"><tspan x="0" y="0"> </tspan></text>
  <text class="cls-1" transform="translate(47.89 100.92) rotate(-132.87)"><tspan x="0" y="0">q</tspan></text>
  <text class="cls-1" transform="translate(47.14 100.1) rotate(-131.2)"><tspan x="0" y="0">u</tspan></text>
  <text class="cls-1" transform="translate(46.41 99.27) rotate(-130)"><tspan x="0" y="0">i</tspan></text>
  <text class="cls-1" transform="translate(46.12 98.92) rotate(-129.06)"><tspan x="0" y="0">s</tspan></text>
  <text class="cls-1" transform="translate(45.63 98.32) rotate(-128.16)"><tspan x="0" y="0"> </tspan></text>
  <text class="cls-1" transform="translate(45.37 97.99) rotate(-127.01)"><tspan x="0" y="0">n</tspan></text>
  <text class="cls-1" transform="translate(44.7 97.11) rotate(-125.33)"><tspan x="0" y="0">o</tspan></text>
  <text class="cls-1" transform="translate(44.08 96.22) rotate(-123.91)"><tspan x="0" y="0">s</tspan></text>
  <text class="cls-1" transform="translate(43.63 95.56) rotate(-122.79)"><tspan x="0" y="0">t</tspan></text>
  <text class="cls-1" transform="translate(43.28 95.01) rotate(-121.8)"><tspan x="0" y="0">r</tspan></text>
  <text class="cls-1" transform="translate(42.95 94.48) rotate(-120.5)"><tspan x="0" y="0">u</tspan></text>
  <text class="cls-1" transform="translate(42.38 93.52) rotate(-118.77)"><tspan x="0" y="0">d</tspan></text>
  <text class="cls-1" transform="translate(41.84 92.54) rotate(-117.6)"><tspan x="0" y="0"> </tspan></text>
  <text class="cls-1" transform="translate(41.66 92.19) rotate(-116.56)"><tspan x="0" y="0">e</tspan></text>
  <text class="cls-1" transform="translate(41.21 91.29) rotate(-115.07)"><tspan x="0" y="0">x</tspan></text>
  <text class="cls-1" transform="translate(40.84 90.5) rotate(-113.67)"><tspan x="0" y="0">e</tspan></text>
  <text class="cls-1" transform="translate(40.44 89.58) rotate(-112.4)"><tspan x="0" y="0">r</tspan></text>
  <text class="cls-1" transform="translate(40.2 89.01) rotate(-111.26)"><tspan x="0" y="0">c</tspan></text>
  <text class="cls-1" transform="translate(39.88 88.17) rotate(-110.2)"><tspan x="0" y="0">i</tspan></text>
  <text class="cls-1" transform="translate(39.72 87.74) rotate(-109.54)"><tspan x="0" y="0"> </tspan></text>
  <text class="cls-1" transform="translate(39.58 87.34) rotate(-108.7)"><tspan x="0" y="0">t</tspan></text>
  <text class="cls-1" transform="translate(39.36 86.72) rotate(-107.46)"><tspan x="0" y="0">a</tspan></text>
  <text class="cls-1" transform="translate(39.09 85.83) rotate(-106.26)"><tspan x="0" y="0">t</tspan></text>
  <text class="cls-1" transform="translate(38.9 85.19) rotate(-105.36)"><tspan x="0" y="0">i</tspan></text>
  <text class="cls-1" transform="translate(38.78 84.76) rotate(-104.21)"><tspan x="0" y="0">o</tspan></text>
  <text class="cls-1" transform="translate(38.51 83.7) rotate(-102.51)"><tspan x="0" y="0">n</tspan></text>
  <text class="cls-1" transform="translate(38.27 82.62) rotate(-101.34)"><tspan x="0" y="0"> </tspan></text>
  <text class="cls-1" transform="translate(38.19 82.21) rotate(-100.17)"><tspan x="0" y="0">u</tspan></text>
  <text class="cls-1" transform="translate(38 81.15) rotate(-99)"><tspan x="0" y="0">l</tspan></text>
  <text class="cls-1" transform="translate(37.93 80.68) rotate(-98.28)"><tspan x="0" y="0">l</tspan></text>
  <text class="cls-1" transform="translate(37.86 80.23) rotate(-97.2)"><tspan x="0" y="0">a</tspan></text>
  <text class="cls-1" transform="translate(37.73 79.28) rotate(-95.21)"><tspan x="0" y="0">m</tspan></text>
  <text class="cls-1" transform="translate(37.59 77.62) rotate(-93.26)"><tspan x="0" y="0">c</tspan></text>
  <text class="cls-1" transform="translate(37.54 76.76) rotate(-91.82)"><tspan x="0" y="0">o</tspan></text>
  <text class="cls-1" transform="translate(37.51 75.66) rotate(-90.93)"><tspan x="0" y="0">r</tspan></text>
  <text class="cls-1" transform="translate(37.49 75.02) rotate(-89.07)"><tspan x="0" y="0">p</tspan></text>
  <text class="cls-1" transform="translate(37.51 73.9) rotate(-87.6)"><tspan x="0" y="0">e</tspan></text>
  <text class="cls-1" transform="translate(37.56 72.89) rotate(-86.33)"><tspan x="0" y="0">r</tspan></text>
  <text class="cls-1" transform="translate(37.6 72.24) rotate(-85.51)"><tspan x="0" y="0"> </tspan></text>
  <text class="cls-1" transform="translate(37.63 71.83) rotate(-84.61)"><tspan x="0" y="0">s</tspan></text>
  <text class="cls-1" transform="translate(37.7 71.06) rotate(-83.21)"><tspan x="0" y="0">u</tspan></text>
  <text class="cls-1" transform="translate(37.83 69.97) rotate(-81.76)"><tspan x="0" y="0">s</tspan></text>
  <text class="cls-1" transform="translate(37.94 69.21) rotate(-80.5)"><tspan x="0" y="0">c</tspan></text>
  <text class="cls-1" transform="translate(38.09 68.33) rotate(-79.47)"><tspan x="0" y="0">i</tspan></text>
  <text class="cls-1" transform="translate(38.17 67.86) rotate(-78.21)"><tspan x="0" y="0">p</tspan></text>
  <text class="cls-1" transform="translate(38.41 66.76) rotate(-77)"><tspan x="0" y="0">i</tspan></text>
  <text class="cls-1" transform="translate(38.51 66.32) rotate(-76.15)"><tspan x="0" y="0">t</tspan></text>
  <text class="cls-1" transform="translate(38.67 65.67) rotate(-75.3)"><tspan x="0" y="0"> </tspan></text>
  <text class="cls-1" transform="translate(38.77 65.27) rotate(-74.63)"><tspan x="0" y="0">l</tspan></text>
  <text class="cls-1" transform="translate(38.9 64.82) rotate(-73.43)"><tspan x="0" y="0">o</tspan></text>
  <text class="cls-1" transform="translate(39.2 63.79) rotate(-71.75)"><tspan x="0" y="0">b</tspan></text>
  <text class="cls-1" transform="translate(39.56 62.7) rotate(-70.02)"><tspan x="0" y="0">o</tspan></text>
  <text class="cls-1" transform="translate(39.93 61.69) rotate(-68.7)"><tspan x="0" y="0">r</tspan></text>
  <text class="cls-1" transform="translate(40.18 61.05) rotate(-67.64)"><tspan x="0" y="0">t</tspan></text>
  <text class="cls-1" transform="translate(40.43 60.43) rotate(-66.77)"><tspan x="0" y="0">i</tspan></text>
  <text class="cls-1" transform="translate(40.62 60.01) rotate(-65.8)"><tspan x="0" y="0">s</tspan></text>
  <text class="cls-1" transform="translate(40.94 59.29) rotate(-64.88)"><tspan x="0" y="0"> </tspan></text>
  <text class="cls-1" transform="translate(41.11 58.91) rotate(-63.71)"><tspan x="0" y="0">n</tspan></text>
  <text class="cls-1" transform="translate(41.6 57.93) rotate(-62.53)"><tspan x="0" y="0">i</tspan></text>
  <text class="cls-1" transform="translate(41.81 57.52) rotate(-61.57)"><tspan x="0" y="0">s</tspan></text>
  <text class="cls-1" transform="translate(42.18 56.83) rotate(-60.62)"><tspan x="0" y="0">l</tspan></text>
  <text class="cls-1" transform="translate(42.42 56.42) rotate(-59.93)"><tspan x="0" y="0"> </tspan></text>
  <text class="cls-1" transform="translate(42.61 56.07) rotate(-58.8)"><tspan x="0" y="0">u</tspan></text>
  <text class="cls-1" transform="translate(43.18 55.14) rotate(-57.47)"><tspan x="0" y="0">t</tspan></text>
  <text class="cls-1" transform="translate(43.54 54.59) rotate(-56.65)"><tspan x="0" y="0"> </tspan></text>
  <text class="cls-1" transform="translate(43.77 54.22) rotate(-55.57)"><tspan x="0" y="0">a</tspan></text>
  <text class="cls-1" transform="translate(44.31 53.44) rotate(-54.5)"><tspan x="0" y="0">l</tspan></text>
  <text class="cls-1" transform="translate(44.58 53.07) rotate(-53.81)"><tspan x="0" y="0">i</tspan></text>
  <text class="cls-1" transform="translate(44.85 52.7) rotate(-52.61)"><tspan x="0" y="0">q</tspan></text>
  <text class="cls-1" transform="translate(45.54 51.79) rotate(-50.9)"><tspan x="0" y="0">u</tspan></text>
  <text class="cls-1" transform="translate(46.22 50.96) rotate(-49.74)"><tspan x="0" y="0">i</tspan></text>
  <text class="cls-1" transform="translate(46.53 50.59) rotate(-48.5)"><tspan x="0" y="0">p</tspan></text>
  <text class="cls-1" transform="translate(47.27 49.76) rotate(-47.35)"><tspan x="0" y="0"> </tspan></text>
  <text class="cls-1" transform="translate(47.55 49.45) rotate(-46.28)"><tspan x="0" y="0">e</tspan></text>
  <text class="cls-1" transform="translate(48.24 48.73) rotate(-44.83)"><tspan x="0" y="0">x</tspan></text>
  <text class="cls-1" transform="translate(48.89 48.08) rotate(-43.81)"><tspan x="0" y="0"> </tspan></text>
  <text class="cls-1" transform="translate(49.19 47.79) rotate(-42.74)"><tspan x="0" y="0">e</tspan></text>
  <text class="cls-1" transform="translate(49.91 47.13) rotate(-41.29)"><tspan x="0" y="0">a</tspan></text>
  <text class="cls-1" transform="translate(50.64 46.49) rotate(-40.22)"><tspan x="0" y="0"> </tspan></text>
  <text class="cls-1" transform="translate(50.95 46.22) rotate(-39.23)"><tspan x="0" y="0">c</tspan></text>
  <text class="cls-1" transform="translate(51.61 45.68) rotate(-37.78)"><tspan x="0" y="0">o</tspan></text>
  <text class="cls-1" transform="translate(52.48 45) rotate(-35.68)"><tspan x="0" y="0">m</tspan></text>
  <text class="cls-1" transform="translate(53.81 44.05) rotate(-33.18)"><tspan x="0" y="0">m</tspan></text>
  <text class="cls-1" transform="translate(55.21 43.14) rotate(-31.07)"><tspan x="0" y="0">o</tspan></text>
  <text class="cls-1" transform="translate(56.14 42.58) rotate(-29.38)"><tspan x="0" y="0">d</tspan></text>
  <text class="cls-1" transform="translate(57.11 42.03) rotate(-27.69)"><tspan x="0" y="0">o</tspan></text>
  <text class="cls-1" transform="translate(58.07 41.53) rotate(-26.56)"><tspan x="0" y="0"> </tspan></text>
  <text class="cls-1" transform="translate(58.44 41.34) rotate(-25.55)"><tspan x="0" y="0">c</tspan></text>
  <text class="cls-1" transform="translate(59.22 40.97) rotate(-24.07)"><tspan x="0" y="0">o</tspan></text>
  <text class="cls-1" transform="translate(60.23 40.52) rotate(-22.36)"><tspan x="0" y="0">n</tspan></text>
  <text class="cls-1" transform="translate(61.25 40.1) rotate(-20.9)"><tspan x="0" y="0">s</tspan></text>
  <text class="cls-1" transform="translate(61.98 39.82) rotate(-19.54)"><tspan x="0" y="0">e</tspan></text>
  <text class="cls-1" transform="translate(62.9 39.49) rotate(-17.94)"><tspan x="0" y="0">q</tspan></text>
  <text class="cls-1" transform="translate(63.96 39.15) rotate(-16.26)"><tspan x="0" y="0">u</tspan></text>
  <text class="cls-1" transform="translate(65.02 38.84) rotate(-14.65)"><tspan x="0" y="0">a</tspan></text>
  <text class="cls-1" transform="translate(65.93 38.6) rotate(-13.45)"><tspan x="0" y="0">t</tspan></text>
  <text class="cls-1" transform="translate(66.56 38.45) rotate(-12.64)"><tspan x="0" y="0">.</tspan></text>
  <text class="cls-1" transform="translate(66.95 38.37) rotate(-12.01)"><tspan x="0" y="0"> </tspan></text>
  <text class="cls-1" transform="translate(67.36 38.27) rotate(-10.67)"><tspan x="0" y="0">D</tspan></text>
  <text class="cls-1" transform="translate(68.69 38.03) rotate(-8.78)"><tspan x="0" y="0">u</tspan></text>
  <text class="cls-1" transform="translate(69.76 37.86) rotate(-7.61)"><tspan x="0" y="0">i</tspan></text>
  <text class="cls-1" transform="translate(70.21 37.8) rotate(-6.66)"><tspan x="0" y="0">s</tspan></text>
  <text class="cls-1" transform="translate(70.98 37.71) rotate(-5.75)"><tspan x="0" y="0"> </tspan></text>
</svg>